<svg width="64" height="64" viewBox="0 0 64 64" fill="none" xmlns="http://www.w3.org/2000/svg">
<g clip-path="url(#clip0_511:4932)">
<rect width="64" height="64" fill="white"/>
<rect x="-0.5" y="-0.5" width="65" height="65" fill="white" stroke="black"/>
<path fill-rule="evenodd" clip-rule="evenodd" d="M60 12C60 10.8954 59.1046 10 58 10H6C4.89543 10 4 10.8954 4 12V16C4 17.1046 4.89543 18 6 18H58C59.1046 18 60 17.1046 60 16V12ZM4 6C1.79086 6 0 7.79086 0 10V18C0 20.2091 1.79086 22 4 22H60C62.2091 22 64 20.2091 64 18V10C64 7.79086 62.2091 6 60 6H4Z" fill="black"/>
<path fill-rule="evenodd" clip-rule="evenodd" d="M56 22H8V30H56V22ZM4 18V34H60V18H4Z" fill="black"/>
<path fill-rule="evenodd" clip-rule="evenodd" d="M56 34H8V42H56V34ZM4 30V46H60V30H4Z" fill="black"/>
<path fill-rule="evenodd" clip-rule="evenodd" d="M56 46H8V52C8 53.1046 8.89543 54 10 54H54C55.1046 54 56 53.1046 56 52V46ZM4 42V54C4 56.2091 5.79086 58 8 58H56C58.2091 58 60 56.2091 60 54V42H4Z" fill="black"/>
<path d="M6.77539 14.084C7.08789 14.084 7.34766 14.1777 7.55469 14.3652C7.76172 14.5488 7.86523 14.7852 7.86523 15.0742C7.86523 15.3633 7.76172 15.6016 7.55469 15.7891C7.34766 15.9727 7.08789 16.0645 6.77539 16.0645C6.45898 16.0645 6.19727 15.9707 5.99023 15.7832C5.78711 15.5957 5.68555 15.3594 5.68555 15.0742C5.68555 14.7891 5.78711 14.5527 5.99023 14.3652C6.19727 14.1777 6.45898 14.084 6.77539 14.084Z" fill="black"/>
<path d="M10.4082 14.084C10.7207 14.084 10.9805 14.1777 11.1875 14.3652C11.3945 14.5488 11.498 14.7852 11.498 15.0742C11.498 15.3633 11.3945 15.6016 11.1875 15.7891C10.9805 15.9727 10.7207 16.0645 10.4082 16.0645C10.0918 16.0645 9.83008 15.9707 9.62305 15.7832C9.41992 15.5957 9.31836 15.3594 9.31836 15.0742C9.31836 14.7891 9.41992 14.5527 9.62305 14.3652C9.83008 14.1777 10.0918 14.084 10.4082 14.084Z" fill="black"/>
<path d="M14.041 14.084C14.3535 14.084 14.6133 14.1777 14.8203 14.3652C15.0273 14.5488 15.1309 14.7852 15.1309 15.0742C15.1309 15.3633 15.0273 15.6016 14.8203 15.7891C14.6133 15.9727 14.3535 16.0645 14.041 16.0645C13.7246 16.0645 13.4629 15.9707 13.2559 15.7832C13.0527 15.5957 12.9512 15.3594 12.9512 15.0742C12.9512 14.7891 13.0527 14.5527 13.2559 14.3652C13.4629 14.1777 13.7246 14.084 14.041 14.084Z" fill="black"/>
</g>
<defs>
<clipPath id="clip0_511:4932">
<rect width="64" height="64" fill="white"/>
</clipPath>
</defs>
</svg>
