<svg width="64" height="64" viewBox="0 0 64 64" fill="none" xmlns="http://www.w3.org/2000/svg">
<rect width="64" height="64" fill="white"/>
<rect x="2" y="2" width="14" height="14" rx="4" stroke="black" stroke-width="4"/>
<rect x="2" y="48" width="37" height="14" rx="4" stroke="black" stroke-width="4"/>
<mask id="path-4-inside-1_867_4887" fill="white">
<path fill-rule="evenodd" clip-rule="evenodd" d="M35.9024 23H6C2.68629 23 0 25.6863 0 29V35C0 38.3137 2.68629 41 6 41H35.9024H58C61.3137 41 64 38.3137 64 35V29C64 25.6863 61.3137 23 58 23H35.9024Z"/>
</mask>
<path d="M6 27H35.9024V19H6V27ZM4 35V29H-4V35H4ZM35.9024 37H6V45H35.9024V37ZM58 37H35.9024V45H58V37ZM60 29V35H68V29H60ZM35.9024 27H58V19H35.9024V27ZM58 45C63.5228 45 68 40.5228 68 35H60C60 36.1046 59.1046 37 58 37V45ZM-4 35C-4 40.5228 0.477148 45 6 45V37C4.89543 37 4 36.1046 4 35H-4ZM68 29C68 23.4771 63.5228 19 58 19V27C59.1046 27 60 27.8954 60 29H68ZM6 19C0.477153 19 -4 23.4772 -4 29H4C4 27.8954 4.89543 27 6 27V19Z" fill="black" mask="url(#path-4-inside-1_867_4887)"/>
<mask id="path-6-inside-2_867_4887" fill="white">
<path fill-rule="evenodd" clip-rule="evenodd" d="M46 0H29C25.6863 0 23 2.68629 23 6V12C23 15.3137 25.6863 18 29 18H46H58C61.3137 18 64 15.3137 64 12V6C64 2.68629 61.3137 0 58 0H46Z"/>
</mask>
<path d="M29 4H46V-4H29V4ZM27 12V6H19V12H27ZM46 14H29V22H46V14ZM58 14H46V22H58V14ZM60 6V12H68V6H60ZM46 4H58V-4H46V4ZM58 22C63.5228 22 68 17.5228 68 12H60C60 13.1046 59.1046 14 58 14V22ZM19 12C19 17.5228 23.4772 22 29 22V14C27.8954 14 27 13.1046 27 12H19ZM68 6C68 0.477153 63.5228 -4 58 -4V4C59.1046 4 60 4.89543 60 6H68ZM29 -4C23.4772 -4 19 0.477152 19 6H27C27 4.89543 27.8954 4 29 4V-4Z" fill="black" mask="url(#path-6-inside-2_867_4887)"/>
<mask id="path-8-inside-3_867_4887" fill="white">
<path fill-rule="evenodd" clip-rule="evenodd" d="M64 52C64 48.6863 61.3137 46 58 46H52C48.6863 46 46 48.6863 46 52V53.9024V58C46 61.3137 48.6863 64 52 64H58C61.3137 64 64 61.3137 64 58V53.9024V52Z"/>
</mask>
<path d="M52 50H58V42H52V50ZM50 53.9024V52H42V53.9024H50ZM50 58V53.9024H42V58H50ZM58 60H52V68H58V60ZM60 53.9024V58H68V53.9024H60ZM60 52V53.9024H68V52H60ZM58 68C63.5228 68 68 63.5229 68 58H60C60 59.1046 59.1046 60 58 60V68ZM42 58C42 63.5228 46.4772 68 52 68V60C50.8954 60 50 59.1046 50 58H42ZM58 50C59.1046 50 60 50.8954 60 52H68C68 46.4772 63.5228 42 58 42V50ZM52 42C46.4772 42 42 46.4772 42 52H50C50 50.8954 50.8954 50 52 50V42Z" fill="black" mask="url(#path-8-inside-3_867_4887)"/>
</svg>
