<svg width="64" height="64" viewBox="0 0 64 64" fill="none" xmlns="http://www.w3.org/2000/svg">
<rect width="64" height="64" fill="white"/>
<path d="M50.125 34.4C44.1244 34.4 39.25 39.236 39.25 45.2C39.25 51.164 44.1244 56 50.125 56C56.1256 56 61 51.164 61 45.2C61 39.236 56.1256 34.4 50.125 34.4ZM56.1667 46.4H51.3333V51.2H48.9167V46.4H44.0833V44H48.9167V39.2H51.3333V44H56.1667V46.4ZM38.815 56H3V8H19.9167C24.0129 12.6608 25.6466 15.2 29.5833 15.2H61V33.968C59.608 32.6384 57.9743 31.5536 56.1667 30.8024V20H29.5833C23.9283 20 21.0356 16.6688 17.703 12.8H7.83333V51.2H35.6298C36.3838 52.9976 37.4786 54.6176 38.815 56Z" fill="black"/>
</svg>
