<svg width="75" height="69" viewBox="0 0 75 69" fill="none" xmlns="http://www.w3.org/2000/svg">
<path d="M72.8598 31.5572C73.8898 37.7726 75.0264 44.2875 72.688 49.0517C70.3496 53.8159 64.4656 56.8208 58.7811 60.244C53.057 63.6983 47.4618 67.5623 41.4704 68.2257C35.4084 68.8805 28.9107 66.3657 21.5249 63.2049C14.1082 60.0045 5.87396 56.1667 2.31673 49.821C-1.23187 43.4048 -0.0725329 34.5203 3.92807 27.8821C7.88906 21.2748 14.7223 16.9534 20.7475 13.9659C26.8432 10.987 32.1619 9.38151 38.1302 6.56609C44.0675 3.71107 50.6544 -0.353918 56.0545 0.593755C61.4547 1.54143 65.7386 7.5104 68.3026 13.4837C70.9063 19.4261 71.8298 25.3418 72.8598 31.5572Z" fill="#F7C032"/>
</svg>
