<svg width="505" height="92" viewBox="0 0 505 92" fill="none" xmlns="http://www.w3.org/2000/svg">
<path d="M98.3359 4.55469H112.75V5.69727H121.979V6.66406H122.945V9.65234H124.088V10.7949H122.945V13.7832H124.088V15.8926H122.945V16.9473H124.088V21.0781H122.945V23.0996H121.979V24.0664H119.957V25.0332H118.814V24.0664H116.793V22.0449H115.826V16.9473H114.684V15.8926H113.717V13.7832H111.695V12.8164H110.729V11.7617H106.598V10.7949H98.3359V11.7617H95.3477V12.8164H94.293V13.7832H93.3262V14.9258H92.1836V15.8926H91.2168V17.9141H90.1621V25.0332H91.2168V27.1426H92.1836V29.1641H93.3262V30.3066H94.293V31.2734H97.3691V32.3281H100.445V33.2949H102.467V34.4375H106.598V35.4043H111.695V36.459H113.717V37.4258H115.826V38.5684H117.848V39.5352H118.814V40.502H119.957V41.5566H120.924V42.5234H121.979V43.666H122.945V44.6328H124.088V47.709H125.055V50.7852H126.109V56.9375H125.055V60.0137H124.088V62.0352H122.945V64.1445H121.979V65.1992H120.924V66.166H119.957V67.3086H118.814V68.2754H117.848V69.3301H115.826V70.2969H113.717V71.2637H110.729V72.4062H93.3262V71.2637H88.0527V72.4062H83.9219V71.2637H81.9883V69.3301H80.9336V54.916H81.9883V52.8066H82.9551V51.8398H87.0859V53.9492H88.0527V56.9375H89.1953V60.0137H90.1621V62.0352H91.2168V63.1777H92.1836V64.1445H94.293V65.1992H96.3145V66.166H108.707V65.1992H110.729V64.1445H112.75V63.1777H113.717V62.0352H114.684V61.0684H115.826V60.0137H116.793V55.8828H117.848V52.8066H116.793V49.8184H115.826V47.709H114.684V46.6543H113.717V45.6875H112.75V44.6328H110.729V43.666H107.564V42.5234H104.576V41.5566H101.412V40.502H96.3145V39.5352H93.3262V38.5684H91.2168V37.4258H90.1621V36.459H88.0527V35.4043H86.0312V34.4375H85.0645V32.3281H83.9219V31.2734H82.9551V29.1641H81.9883V26.1758H80.9336V22.0449H81.9883V17.9141H82.9551V15.8926H83.9219V13.7832H85.0645V11.7617H86.0312V10.7949H88.0527V9.65234H89.1953V8.68555H90.1621V7.71875H92.1836V6.66406H95.3477V5.69727H98.3359V4.55469Z" fill="white"/>
<path d="M143.16 48.9395H144.215V58.8711H145.182V61.7715H146.236V62.8262H148.17V63.793H150.191V64.8477H159.068V63.793H161.002V62.8262H163.023V61.7715H163.902V60.8926H164.957V59.8379H165.924V57.9922H166.891V55.9707H167.945V53.9492H168.824V42.084H167.945V40.0625H166.891V39.1836H165.924V38.1289H164.957V37.1621H163.902V36.1074H163.023V35.1406H161.969V34.0859H161.002V33.207H159.068V32.1523H148.17V33.207H146.236V34.0859H145.182V36.1074H144.215V47.0059H143.16V48.9395ZM138.238 25.209H140.26V26.2637H142.281V27.2305H143.16V28.2852H144.215V27.2305H148.17V26.2637H151.07V25.209H161.969V26.2637H163.902V27.2305H166.891V28.2852H168.824V29.252H169.879V30.1309H170.846V31.1855H171.9V32.1523H172.779V33.207H173.834V35.1406H174.801V36.1074H175.855V39.1836H176.734V46.0391H177.789V53.9492H176.734V55.9707H175.855V57.9922H174.801V59.8379H173.834V61.7715H172.779V62.8262H171.9V63.793H170.846V64.8477H169.879V65.8145H168.824V66.7812H167.945V67.748H164.957V68.8027H163.023V69.7695H158.014V70.8242H151.07V69.7695H145.182V71.7031H144.215V81.6348H145.182V85.5898H147.115V86.5566H152.037V87.6113H153.092V90.5117H151.07V91.4785H133.404V90.5117H131.383V87.6113H132.35V86.5566H135.338V85.5898H136.305V82.6016H137.184V35.1406H136.305V34.0859H135.338V33.207H129.449V32.1523H128.395V29.252H129.449V28.2852H131.383V27.2305H136.305V26.2637H138.238V25.209Z" fill="white"/>
<path d="M217.252 40.9414H218.131V39.8867H217.252V37.9531H216.197V36.9863H215.23V35.9316H214.176V33.998H212.242V33.0312H211.275V31.9766H208.199V31.0098H200.465V31.9766H198.443V33.0312H197.389V33.998H196.422V35.0527H195.367V35.9316H194.488V36.9863H193.434V37.9531H192.467V39.8867H191.412V44.8086H207.32V43.9297H216.197V42.875H217.252V40.9414ZM198.443 25.1211H212.242V26.1758H214.176V27.0547H216.197V28.0215H217.252V29.0762H219.098V30.043H220.152V31.0098H221.031V31.9766H222.086V33.998H223.053V35.0527H224.107V36.9863H225.074V39.8867H226.129V47.8848H225.074V48.7637H222.086V49.8184H196.422V50.7852H191.412V51.8398H190.533V54.7402H191.412V56.7617H192.467V58.6953H193.434V59.6621H194.488V60.7168H195.367V61.6836H197.389V62.7383H199.41V63.6172H203.365V64.6719H211.275V63.6172H217.252V62.7383H220.152V61.6836H223.053V60.7168H227.008V61.6836H228.062V64.6719H227.008V65.6387H226.129V66.6934H224.107V67.5723H222.086V68.627H218.131V69.5938H214.176V70.6484H209.254V71.6152H199.41V70.6484H195.367V69.5938H192.467V68.627H190.533V67.5723H189.479V66.6934H188.512V65.6387H186.578V64.6719H185.611V62.7383H184.557V61.6836H183.59V59.6621H182.535V54.7402H181.656V45.8633H182.535V40.9414H183.59V39.0078H184.557V36.9863H185.611V35.0527H186.578V33.998H187.633V33.0312H188.512V31.0098H189.479V30.043H190.533V29.0762H192.467V28.0215H194.488V27.0547H196.422V26.1758H198.443V25.1211Z" fill="white"/>
<path d="M250.738 25.1211H263.57V26.1758H266.471V27.0547H268.404V28.0215H269.459V29.0762H270.426V30.043H271.305V31.0098H272.359V33.0312H273.326V37.9531H274.381V39.8867H273.326V41.9082H272.359V42.875H267.525V41.9082H265.504V39.8867H264.449V33.998H263.57V33.0312H262.516V31.9766H259.527V31.0098H251.617V31.9766H249.684V33.0312H247.662V33.998H246.695V35.0527H245.641V35.9316H244.762V36.9863H243.707V37.9531H242.74V39.8867H241.686V42.875H240.807V53.8613H241.686V56.7617H242.74V57.6406H243.707V59.6621H244.762V60.7168H245.641V61.6836H247.662V62.7383H249.684V63.6172H254.693V64.6719H260.494V63.6172H266.471V62.7383H268.404V61.6836H271.305V60.7168H276.402V61.6836H277.281V64.6719H276.402V65.6387H275.348V66.6934H273.326V67.5723H270.426V68.627H268.404V69.5938H263.57V70.6484H260.494V71.6152H248.717V70.6484H244.762V69.5938H241.686V68.627H240.807V67.5723H239.84V66.6934H238.785V65.6387H237.906V64.6719H236.852V63.6172H235.885V61.6836H234.83V59.6621H233.863V56.7617H232.809V53.8613H231.93V46.8301H232.809V40.9414H233.863V39.0078H234.83V36.9863H235.885V35.0527H236.852V33.998H237.906V33.0312H238.785V31.9766H239.84V31.0098H240.807V30.043H241.686V29.0762H243.707V28.0215H244.762V27.0547H247.662V26.1758H250.738V25.1211Z" fill="white"/>
<path d="M299.957 5.69727H304.879V6.66406H306.812V7.71875H307.867V8.59766H308.834V14.5742H307.867V15.541H306.812V16.5957H305.934V17.4746H304.879V18.5293H302.857V19.4961H299.957V18.5293H297.057V17.4746H296.002V16.5957H295.035V10.6191H296.002V8.59766H297.057V7.71875H297.936V6.66406H299.957V5.69727ZM298.99 25.4727H302.857V26.5273H304.879V29.4277H305.934V32.3281H304.879V63.0898H305.934V63.9688H307.867V65.0234H323.6V65.9902H325.621V69.9453H324.654V71H322.721V71.9668H317.711V71H286.07V71.9668H284.225V71H282.203V68.9785H281.148V67.9238H282.203V65.9902H283.17V65.0234H293.102V63.9688H295.035V63.0898H297.057V33.3828H293.98V32.3281H287.125V33.3828H283.17V32.3281H282.203V31.3613H281.148V28.4609H282.203V27.4062H290.025V26.5273H298.99V25.4727Z" fill="white"/>
<path d="M354.273 25.4727H355.328V26.5273H359.107V27.4062H361.129V28.4609H363.15V29.4277H366.139V28.4609H368.16V27.4062H372.115V26.5273H380.992V27.4062H382.926V28.4609H383.893V29.4277H384.947V31.3613H385.826V32.3281H386.881V35.4043H387.848V53.1582H386.881V63.9688H387.848V65.0234H389.869V65.9902H392.77V67.9238H393.824V68.9785H392.77V71H377.916V69.9453H377.037V68.9785H375.982V67.9238H377.037V67.0449H377.916V65.9902H378.971V63.0898H379.938V36.2832H378.971V34.3496H377.037V32.3281H369.039V33.3828H368.16V34.3496H367.105V35.4043H366.139V63.9688H367.105V65.0234H368.16V65.9902H371.061V67.9238H372.115V68.9785H371.061V71H357.262V69.9453H356.207V67.0449H357.262V65.9902H358.229V65.0234H359.107V59.0469H360.162V39.3594H359.107V36.2832H358.229V35.4043H357.262V33.3828H356.207V32.3281H349.352V33.3828H348.297V34.3496H346.275V35.4043H345.396V36.2832H344.342V63.9688H345.396V65.0234H346.275V65.9902H350.318V67.0449H351.373V67.9238H352.252V68.9785H351.373V69.9453H350.318V71H336.52V69.9453H334.498V65.9902H335.465V65.0234H336.52V63.9688H337.486V35.4043H336.52V34.3496H330.543V32.3281H329.488V30.3066H330.543V28.4609H333.443V27.4062H338.541V26.5273H342.496V27.4062H344.342V28.4609H345.396V27.4062H349.352V26.5273H354.273V25.4727Z" fill="white"/>
<path d="M433.287 40.9414H434.166V39.8867H433.287V37.9531H432.232V36.9863H431.266V35.9316H430.211V33.998H428.277V33.0312H427.311V31.9766H424.234V31.0098H416.5V31.9766H414.479V33.0312H413.424V33.998H412.457V35.0527H411.402V35.9316H410.523V36.9863H409.469V37.9531H408.502V39.8867H407.447V44.8086H423.355V43.9297H432.232V42.875H433.287V40.9414ZM414.479 25.1211H428.277V26.1758H430.211V27.0547H432.232V28.0215H433.287V29.0762H435.133V30.043H436.188V31.0098H437.066V31.9766H438.121V33.998H439.088V35.0527H440.143V36.9863H441.109V39.8867H442.164V47.8848H441.109V48.7637H438.121V49.8184H412.457V50.7852H407.447V51.8398H406.568V54.7402H407.447V56.7617H408.502V58.6953H409.469V59.6621H410.523V60.7168H411.402V61.6836H413.424V62.7383H415.445V63.6172H419.4V64.6719H427.311V63.6172H433.287V62.7383H436.188V61.6836H439.088V60.7168H443.043V61.6836H444.098V64.6719H443.043V65.6387H442.164V66.6934H440.143V67.5723H438.121V68.627H434.166V69.5938H430.211V70.6484H425.289V71.6152H415.445V70.6484H411.402V69.5938H408.502V68.627H406.568V67.5723H405.514V66.6934H404.547V65.6387H402.613V64.6719H401.646V62.7383H400.592V61.6836H399.625V59.6621H398.57V54.7402H397.691V45.8633H398.57V40.9414H399.625V39.0078H400.592V36.9863H401.646V35.0527H402.613V33.998H403.668V33.0312H404.547V31.0098H405.514V30.043H406.568V29.0762H408.502V28.0215H410.523V27.0547H412.457V26.1758H414.479V25.1211Z" fill="white"/>
<path d="M477.584 25.4727H486.461V26.5273H487.516V27.4062H489.361V28.4609H491.383V29.4277H492.438V30.3066H493.316V31.3613H494.371V33.3828H495.338V36.2832H496.393V63.9688H497.359V65.0234H502.369V65.9902H504.215V71H502.369V71.9668H494.371V71H484.527V68.9785H483.561V67.9238H484.527V67.0449H485.582V65.9902H486.461V65.0234H487.516V63.9688H488.482V52.1914H489.361V43.3145H488.482V38.3047H487.516V36.2832H486.461V35.4043H485.582V34.3496H484.527V33.3828H482.506V32.3281H475.65V33.3828H473.629V34.3496H470.729V35.4043H468.707V36.2832H465.719V38.3047H464.752V47.1816H463.697V58.168H464.752V63.9688H465.719V65.0234H470.729V65.9902H472.75V67.0449H473.629V67.9238H474.596V68.9785H473.629V69.9453H472.75V71H453.941V69.9453H452.887V68.9785H451.92V67.9238H452.887V65.9902H453.941V65.0234H455.875V63.9688H456.842V34.3496H455.875V33.3828H448.932V32.3281H447.965V29.4277H448.932V28.4609H450.865V27.4062H455.875V26.5273H461.764V27.4062H462.818V28.4609H463.697V30.3066H467.652V29.4277H468.707V28.4609H470.729V27.4062H474.596V26.5273H477.584V25.4727Z" fill="white"/>
<path d="M12.6719 2.22266L11.8906 1.44141H5.54297L6.03125 3.00391L4.95703 3.29688L6.03125 6.32422L5.15234 6.61719L6.22656 9.54688L5.15234 9.74219L6.22656 12.8672L5.54297 13.0625L6.42188 16.0898L5.44531 16.3828L6.03125 18.3359L5.15234 18.7266L6.22656 21.7539L5.44531 22.0469L6.42188 25.1719L5.15234 29.7617L5.34766 28.8828L0.464844 34.1562L2.32031 40.4062L6.42188 43.5312L6.8125 44.6055L5.93359 44.8984L6.51953 46.8516L5.83594 47.1445L6.42188 49.0977L5.34766 49.4883L6.42188 52.5156L5.44531 52.9062L6.51953 55.7383L5.44531 56.0312L6.51953 58.9609L5.64062 59.3516L6.71484 62.2812L5.83594 62.6719L6.42188 64.625L5.64062 64.918L6.22656 66.9688L5.34766 67.2617L6.32422 70.2891L6.51953 74H7.88672L13.4531 74.293L12.9648 73.707L13.9414 74.6836H15.3086V74.1953H24.0977L25.5625 73.2188L25.2695 73.5117H27.418V71.9492H27.8086V64.1367H27.418V63.4531H27.0273V62.6719H22.6328V63.4531H18.6289V62.6719H15.1133L14.918 62.1836L15.7969 61.793L15.2109 59.8398L16.1875 59.4492L14.8203 55.6406L15.6992 55.3477L15.0156 53.4922L16.0898 53.1016L15.0156 50.0742L15.7969 49.7812L14.8203 46.9492L15.6992 46.5586L15.1133 44.6055L16.5781 44.1172L13.4531 37.7695L10.3281 35.2305L12.4766 32.3008L12.1836 32.9844L13.3555 32.4961C13.4531 31.9102 13.8438 30.4453 14.0391 29.2734L15.8945 28.7852L14.5273 24.9766L15.6992 24.5859L14.918 22.7305L15.6992 22.3398L15.1133 20.2891L16.0898 19.8984L15.0156 17.0664L15.8945 16.7734L15.2109 14.625L16.2852 14.2344L15.6992 12.5742H24.0977L25.5625 11.4023L25.2695 11.793H27.418V10.2305H27.8086V2.41797H27.418V1.63672H27.0273V0.953125H22.6328V1.63672H18.6289V0.953125H13.4531V1.63672H12.2812L12.6719 2.22266Z" fill="#EF5959"/>
<path d="M30.0469 45.5H29.1094V47.1406H28.3281V51.2031H29.1094V53.625H30.0469V54.5625H30.75V55.2656H37.5469V54.5625H38.4062V53.625H39.1875V52.8438H40.125V46.2812H39.1875V44.5625H37.5469V43.8594H35.125V43H31.5312V43.8594H30.0469V45.5ZM30.0469 21.4375H29.1094V23.9375H28.3281V28H29.1094V30.4219H30.0469V31.3594H30.75V32.1406H36.7656V31.3594H38.4062V30.4219H39.1875V28H40.125V23.9375H39.1875V21.4375H37.5469V20.6562H36.7656V19.7969H30.75V20.6562H30.0469V21.4375Z" fill="#EF5959"/>
<path d="M55.2109 0.953125H50.0352V1.63672H46.0312V0.953125H41.6367V1.63672H41.2461V2.41797H40.8555V10.2305H41.2461V11.793H43.3945L43.1992 11.6953L44.4688 12.1836H53.0625L52.4766 14.332L53.3555 14.625L52.7695 16.7734C52.8672 16.7734 53.3555 16.9688 53.7461 17.0664L52.3789 19.8984L53.5508 20.2891L52.8672 22.3398L53.7461 22.6328L52.9648 24.5859C53.1602 24.5859 53.5508 24.7812 54.0391 24.8789L52.7695 28.7852L54.625 29.3711L55.3086 32.4961L56.4805 32.9844L56.0898 32.3984C56.7734 33.2773 57.6523 34.2539 58.3359 35.1328L55.2109 37.7695L52.0859 44.1172L53.5508 44.6055L52.8672 46.5586C52.9648 46.5586 53.3555 46.6562 53.7461 46.8516L52.7695 49.7812C52.7695 49.7812 53.2578 49.9766 53.6484 50.0742L52.6719 53.1992L53.5508 53.4922L52.9648 55.3477C53.0625 55.3477 53.4531 55.4453 53.9414 55.6406L52.3789 59.4492L53.4531 59.9375L52.7695 61.793L53.7461 62.1836L53.5508 62.6719H50.0352V63.4531H46.0312V62.6719H41.6367V63.4531H41.2461V64.1367H40.8555V71.9492H41.2461V73.5117H43.3945L43.1992 73.4141L44.4688 73.9023H53.3555V74.6836H54.7227L55.6992 73.707L55.2109 74.293H60.582L68.7852 72.2422L62.4375 70.1914L63.4141 67.2617L62.3398 66.8711L63.0234 64.918L62.2422 64.625L62.8281 62.6719C62.7305 62.6719 62.3398 62.4766 61.8516 62.2812L62.6328 59.1562C62.5352 59.1562 62.3398 59.0586 62.0469 58.9609L63.4141 56.0312C63.2188 56.0312 62.5352 55.8359 62.0469 55.6406L63.4141 52.9062C63.2188 52.9062 62.7305 52.7109 62.2422 52.5156L63.2188 49.3906L62.2422 49.0977L62.8281 47.1445L62.1445 46.8516L62.7305 44.8984C62.6328 44.8984 62.3398 44.8008 61.8516 44.6055L62.2422 43.5312L66.3438 40.4062L68.1992 34.1562L63.3164 28.8828L63.5117 29.7617L62.2422 25.1719L63.2188 22.0469C63.1211 22.0469 62.6328 21.8516 62.4375 21.7539L63.4141 18.6289L62.5352 18.3359L63.2188 16.3828C63.1211 16.3828 62.6328 16.2852 62.2422 16.0898L63.2188 13.0625C63.1211 13.0625 62.7305 12.9648 62.3398 12.8672L63.707 9.74219C63.5117 9.74219 62.8281 9.64453 62.3398 9.44922L63.707 6.61719C63.6094 6.61719 62.9258 6.51953 62.5352 6.32422L63.9023 3.29688L62.5352 3.00391L63.1211 1.44141H56.7734L55.9922 2.32031L56.3828 1.73438H55.2109V0.953125Z" fill="#EF5959"/>
</svg>
