<svg width="64" height="64" viewBox="0 0 64 64" fill="none" xmlns="http://www.w3.org/2000/svg">
<path d="M40.1 5.33333V18.6667H53.6V58.6667H10.4V5.33333H40.1ZM42.8 0H5V64H59V16L42.8 0Z" fill="black"/>
<path d="M32.1621 37.2314H25.6289V55H21.2344V37.2314H14.7891V33.6719H32.1621V37.2314Z" fill="black"/>
<path d="M45.5068 49.4043C45.5068 48.5742 45.2139 47.9395 44.6279 47.5C44.042 47.0508 42.9873 46.582 41.4639 46.0938C39.9404 45.5957 38.7344 45.1074 37.8457 44.6289C35.4238 43.3203 34.2129 41.5576 34.2129 39.3408C34.2129 38.1885 34.5352 37.1631 35.1797 36.2646C35.834 35.3564 36.7666 34.6484 37.9775 34.1406C39.1982 33.6328 40.5654 33.3789 42.0791 33.3789C43.6025 33.3789 44.96 33.6572 46.1514 34.2139C47.3428 34.7607 48.2656 35.5371 48.9199 36.543C49.584 37.5488 49.916 38.6914 49.916 39.9707H45.5215C45.5215 38.9941 45.2139 38.2373 44.5986 37.7002C43.9834 37.1533 43.1191 36.8799 42.0059 36.8799C40.9316 36.8799 40.0967 37.1094 39.501 37.5684C38.9053 38.0176 38.6074 38.6133 38.6074 39.3555C38.6074 40.0488 38.9541 40.6299 39.6475 41.0986C40.3506 41.5674 41.3809 42.0068 42.7383 42.417C45.2383 43.1689 47.0596 44.1016 48.2021 45.2148C49.3447 46.3281 49.916 47.7148 49.916 49.375C49.916 51.2207 49.2178 52.6709 47.8213 53.7256C46.4248 54.7705 44.5449 55.293 42.1816 55.293C40.541 55.293 39.0469 54.9951 37.6992 54.3994C36.3516 53.7939 35.3213 52.9688 34.6084 51.9238C33.9053 50.8789 33.5537 49.668 33.5537 48.291H37.9629C37.9629 50.6445 39.3691 51.8213 42.1816 51.8213C43.2266 51.8213 44.042 51.6113 44.6279 51.1914C45.2139 50.7617 45.5068 50.166 45.5068 49.4043Z" fill="black"/>
</svg>
