<svg width="64" height="64" viewBox="0 0 64 64" fill="none" xmlns="http://www.w3.org/2000/svg">
<path fill-rule="evenodd" clip-rule="evenodd" d="M64 0H0V64H64V0ZM53.0913 50.304C53.7413 50.7915 54.0663 51.4957 54.0663 52.4165C54.0663 53.2615 53.7413 53.9223 53.0913 54.399C52.4413 54.8648 51.5367 55.0978 50.3775 55.0978C47.2575 55.0978 45.6975 53.7923 45.6975 51.1815H40.8063C40.8063 52.709 41.1963 54.0523 41.9763 55.2115C42.7671 56.3707 43.91 57.2861 45.405 57.9578C46.9 58.6186 48.5575 58.949 50.3775 58.949C52.9992 58.949 55.0846 58.3694 56.6338 57.2103C58.1829 56.0403 58.9575 54.4315 58.9575 52.384C58.9575 50.5423 58.3238 49.004 57.0563 47.769C55.7888 46.534 53.7683 45.4994 50.995 44.6653C49.4892 44.2103 48.3463 43.7228 47.5663 43.2028C46.7971 42.6828 46.4125 42.0382 46.4125 41.269C46.4125 40.4457 46.7429 39.7848 47.4038 39.2865C48.0646 38.7773 48.9908 38.5228 50.1825 38.5228C51.4175 38.5228 52.3763 38.8261 53.0588 39.4328C53.7413 40.0286 54.0825 40.8682 54.0825 41.9515H58.9575C58.9575 40.5323 58.5892 39.2648 57.8525 38.149C57.1267 37.0332 56.1029 36.1719 54.7813 35.5653C53.4596 34.9478 51.9538 34.639 50.2638 34.639C48.5846 34.639 47.0679 34.9207 45.7138 35.484C44.3704 36.0473 43.3358 36.8328 42.61 37.8403C41.895 38.8369 41.5375 39.9744 41.5375 41.2528C41.5375 43.7119 42.8808 45.6673 45.5675 47.119C46.5533 47.6498 47.8913 48.1915 49.5813 48.744C51.2713 49.2857 52.4413 49.8057 53.0913 50.304ZM32.015 38.9128H39.2625V34.964H19.99V38.9128H27.14V58.624H32.015V38.9128Z" fill="black"/>
</svg>
