<svg width="64" height="64" viewBox="0 0 64 64" fill="none" xmlns="http://www.w3.org/2000/svg">
<path fill-rule="evenodd" clip-rule="evenodd" d="M0 16C0 14.8954 0.89543 14 2 14H20C24.4183 14 28 17.5817 28 22V42C28 46.4183 24.4183 50 20 50H2C0.89543 50 0 49.1046 0 48C0 46.8954 0.89543 46 2 46H20C22.2091 46 24 44.2091 24 42V22C24 19.7909 22.2091 18 20 18H2C0.89543 18 0 17.1046 0 16Z" fill="black"/>
<path fill-rule="evenodd" clip-rule="evenodd" d="M36 22C36 17.5817 39.5817 14 44 14H62C63.1046 14 64 14.8954 64 16C64 17.1046 63.1046 18 62 18H44C41.7909 18 40 19.7909 40 22V42C40 44.2091 41.7909 46 44 46H62C63.1046 46 64 46.8954 64 48C64 49.1046 63.1046 50 62 50H44C39.5817 50 36 46.4183 36 42V22Z" fill="black"/>
</svg>
