<svg width="64" height="64" viewBox="0 0 64 64" fill="none" xmlns="http://www.w3.org/2000/svg">
<path d="M44.6264 51.5283C48.849 57.2327 52.3678 61.9519 52.4429 62.0082L55.699 60.2537L48.0983 48.7418C43.9133 42.4089 35.393 29.5084 29.1624 20.0606C22.9317 10.6128 17.7239 2.76933 17.5831 2.61922C17.0858 2.07506 16.7667 2 14.8525 2C13.2292 2 13.079 2.01876 12.6943 2.20641C12.4691 2.32837 12.1501 2.58169 11.9999 2.77872L11.709 3.14462L11.6809 21.9652L11.6621 40.7764L11.8592 41.1986C11.9999 41.4707 12.2064 41.7052 12.4879 41.8835L12.9195 42.1556H14.5428C15.9598 42.1556 16.2225 42.1274 16.5228 41.9773C16.9169 41.7709 17.1046 41.5832 17.3485 41.1235C17.5174 40.8045 17.5268 40.2604 17.555 26.7407C17.5737 19.0192 17.6113 12.6956 17.6488 12.705C17.6863 12.705 22.0403 19.1036 27.3326 26.9283L36.9507 41.1611L44.6264 51.5283Z" fill="black"/>
<path d="M46.6397 5.00527C47.0901 5.23044 47.456 5.66202 47.5874 6.11236C47.6625 6.3563 47.6812 11.5728 47.6625 23.3286L47.6343 40.1977L44.6597 35.638L41.6758 31.0782V18.8158C41.6758 10.8879 41.7133 6.43135 41.7696 6.21556C41.9198 5.69016 42.2482 5.27735 42.6986 5.03342C43.0833 4.83639 43.2241 4.81763 44.6973 4.81763C46.086 4.81763 46.33 4.83639 46.6397 5.00527Z" fill="black"/>
</svg>
