<svg width="64" height="64" viewBox="0 0 64 64" fill="none" xmlns="http://www.w3.org/2000/svg">
<path fill-rule="evenodd" clip-rule="evenodd" d="M2.71675 11.2609C7.6347 4.62165 27.5517 3.63803 37.1424 3.63806C46.7331 3.63809 63.6986 19.3755 63.6993 23.8016C63.7 28.2278 53.1259 46.4242 48.7005 51.3421C44.275 56.2601 28.2894 61.6698 26.077 60.9321C23.8646 60.1944 6.8963 49.3749 4.68393 45.6865C2.47156 41.9981 -2.20119 17.9001 2.71675 11.2609ZM8.17879 15.0767C11.0043 11.2355 28.316 9.29369 36.1581 9.29372C44.0002 9.29374 58.5347 22.4494 58.5347 24.2934C58.5347 26.1375 47.9624 47.8996 46.4871 49.8668C45.0117 51.8339 28.3784 57.1132 26.5694 56.506C24.7604 55.8988 11.2016 45.569 9.78731 43.4147C8.37301 41.2604 5.35324 18.918 8.17879 15.0767Z" fill="black"/>
<path d="M35.5 31.5C35.7671 29.4544 29.7671 28.7953 29.5 30.5C29.5 30.5 27.5 53.5 27 55C26.5 56.5 24 55 24 55L26.7321 57L26.5 59L30 59.5L30.5 56C30.5 56 28 56.5 28 55C28 53.5 35.5 31.5 35.5 31.5Z" fill="black"/>
<path d="M10 18.5C13 20 29.492 32.103 32.2258 32.4081C33.9988 32.606 45.9949 29.2211 54.2084 26.8173C55.2027 26.5263 58.5 25.5 57 29C58.17 28.6537 59.691 26.7424 60.5 26.5C61.7551 26.124 57.5 22.5 57.5 22.5C57.5 22.5 58.7019 24.7131 54.4135 25.0124C54.3954 25.0137 54.3772 25.0149 54.3589 25.0161C46.5153 25.5284 35.2134 26.211 33.4553 26.0148C31.8375 25.8342 11 16.5 9.99977 15C8.99953 13.5 15 11.5 15 11.5L8.5 10.5L4.5 14.5L7 22C7 22 7 17 10 18.5Z" fill="black"/>
<circle cx="37.8816" cy="35.8506" r="1.47538" fill="black"/>
<circle cx="42.5537" cy="34.1293" r="1.22949" fill="black"/>
<circle cx="36.1611" cy="40.5226" r="1.22949" fill="black"/>
<circle cx="34.9309" cy="45.1946" r="0.983589" fill="black"/>
<circle cx="33.7006" cy="49.375" r="0.737692" fill="black"/>
<circle cx="40.5873" cy="39.5391" r="0.737692" fill="black"/>
</svg>
