<svg width="64" height="64" viewBox="0 0 64 64" fill="none" xmlns="http://www.w3.org/2000/svg">
<g clip-path="url(#clip0_2475_4231)">
<path fill-rule="evenodd" clip-rule="evenodd" d="M45.3836 63.7264C46.3916 64.1212 47.541 64.0959 48.5584 63.6038L61.7349 57.2306C63.1195 56.5609 64 55.1524 64 53.6071V10.3931C64 8.84781 63.1196 7.43926 61.735 6.76957L48.5584 0.396207C47.2232 -0.249609 45.6605 -0.0914244 44.4886 0.764952C44.3213 0.887285 44.1618 1.02387 44.0122 1.1744L18.7873 24.3068L7.79981 15.9232C6.77696 15.1428 5.34632 15.2067 4.39637 16.0753L0.872339 19.2976C-0.289633 20.36 -0.290965 22.1975 0.86946 23.2618L10.3981 32L0.86946 40.7382C-0.290965 41.8024 -0.289633 43.64 0.872339 44.7024L4.39637 47.9247C5.34632 48.7933 6.77696 48.8572 7.79981 48.0767L18.7873 39.6932L44.0122 62.8255C44.4112 63.2269 44.8797 63.5291 45.3836 63.7264ZM48.0097 17.3959L28.8698 32L48.0097 46.604V17.3959Z" fill="black"/>
</g>
<defs>
<clipPath id="clip0_2475_4231">
<rect width="64" height="64" fill="white"/>
</clipPath>
</defs>
</svg>
