<svg width="64" height="64" viewBox="0 0 64 64" fill="none" xmlns="http://www.w3.org/2000/svg">
<g clip-path="url(#clip0_2525_4097)">
<path d="M28.2188 17.6388L15.5391 10.2422V2.13241L36.7223 13.9923V38.4344L29.3351 34.0823V19.5823C29.3351 18.782 28.9101 18.042 28.2188 17.6388ZM29.212 34.0098C29.2121 34.0099 29.2123 34.0099 29.2124 34.01L29.212 34.0098L29.0851 34.2252L29.212 34.0098Z" stroke="black" stroke-width="2.5"/>
<path d="M9.15627 43.186L8.86208 57.8625L1.77651 61.8076L1.83375 37.5304L23.189 25.6403L22.98 34.2116L10.3113 41.2653C9.61211 41.6546 9.17231 42.3859 9.15627 43.186ZM22.9766 34.3544C22.9766 34.3543 22.9766 34.3541 22.9766 34.354L22.9766 34.3544L23.2265 34.3605L22.9766 34.3544Z" stroke="black" stroke-width="2.5"/>
<path d="M40.7556 47.0083L53.5011 39.7256L60.5244 43.7805L39.6618 56.1958L18.4943 43.9747L25.9569 39.7533L38.5143 47.0033C39.2074 47.4034 40.0608 47.4053 40.7556 47.0083ZM26.0813 39.6829C26.0812 39.683 26.081 39.6831 26.0809 39.6831L26.0813 39.6829L25.9582 39.4653L26.0813 39.6829Z" stroke="black" stroke-width="2.5"/>
</g>
<defs>
<clipPath id="clip0_2525_4097">
<rect width="64" height="64" fill="white"/>
</clipPath>
</defs>
</svg>
