<svg viewBox="0 0 64 64" fill="none" xmlns="http://www.w3.org/2000/svg">
<path fill-rule="evenodd" clip-rule="evenodd" d="M31.9971 2C14.3259 2.00157 0 16.351 0 34.0532C0 46.5613 7.1557 57.3933 17.5899 62.6726C19.2987 63.5372 21.3083 62.6111 21.9805 60.8157L26.9205 47.6218C27.5928 45.8261 26.6313 43.8588 25.1356 42.6613C22.6144 40.6428 21.0002 37.5361 21.0002 34.0532C21.0002 27.9689 25.9253 23.0361 32 23.0361C38.0747 23.0361 42.9998 27.9689 42.9998 34.0532C42.9998 37.538 41.3842 40.6435 38.8636 42.6614C37.3681 43.8586 36.407 45.8257 37.0793 47.6211L42.0195 60.8157C42.6917 62.6111 44.7013 63.5372 46.4101 62.6726C56.8443 57.3933 64 46.5613 64 34.0532C64 16.351 49.6741 2.00156 32 2C31.9995 2 31.999 2 31.9986 2C31.9981 2 31.9976 2 31.9971 2ZM32 6.62903C47.1215 6.6306 59.3782 18.9075 59.3782 34.0532C59.3782 44.1476 53.9314 52.9741 45.8024 57.7359L41.5752 46.4455C41.6248 46.3875 41.684 46.3295 41.7492 46.2773C45.3195 43.4191 47.6216 39.0049 47.6216 34.0532C47.6216 25.4123 40.6273 18.407 32 18.407C23.3727 18.407 16.3784 25.4123 16.3784 34.0532C16.3784 39.0017 18.6781 43.4175 22.2498 46.2771C22.3153 46.3295 22.3747 46.3878 22.4246 46.4461L18.1976 57.7359C10.0686 52.9741 4.62177 44.1476 4.62177 34.0532C4.62177 18.9072 16.8787 6.6306 31.9971 6.62903" fill="black"/>
</svg>
