<svg width="62" height="64" viewBox="0 0 62 64" fill="none" xmlns="http://www.w3.org/2000/svg">
<path d="M13.7641 10.3858V1.70592C13.7641 0.941977 14.5861 0.460164 15.2527 0.833363L36.9359 12.9732C37.2517 13.15 37.4473 13.4837 37.4473 13.8457V38.8719C37.4473 39.6456 36.6064 40.1262 35.9397 39.7335L28.0526 35.0868C27.7475 34.907 27.5602 34.5793 27.5602 34.2252V19.5822C27.5602 19.2266 27.3713 18.8977 27.0641 18.7185L14.2603 11.2496C13.953 11.0704 13.7641 10.7415 13.7641 10.3858Z" fill="black"/>
<path d="M9.07011 58.8847L1.48646 63.1071C0.819001 63.4787 -0.00179823 62.995 2.95924e-06 62.231L0.058594 37.3808C0.0594475 37.0188 0.25586 36.6856 0.572132 36.5095L22.4376 24.3353C23.1136 23.9589 23.9426 24.4599 23.9238 25.2334L23.7007 34.3848C23.6921 34.7388 23.4968 35.0619 23.1875 35.2342L10.3939 42.3574C10.0831 42.5304 9.88765 42.8554 9.88052 43.211L9.58345 58.031C9.57632 58.3866 9.38086 58.7117 9.07011 58.8847Z" fill="black"/>
<path d="M53.4768 38.5712L60.9938 42.9112C61.6554 43.2931 61.6617 44.2458 61.0052 44.6365L39.6502 57.3448C39.3392 57.53 38.9523 57.5325 38.6388 57.3515L16.9655 44.8384C16.2955 44.4516 16.2997 43.483 16.9732 43.102L24.9409 38.5949C25.2492 38.4205 25.6266 38.4222 25.9333 38.5993L38.6144 45.9207C38.9225 46.0986 39.3018 46.0994 39.6106 45.923L52.4807 38.569C52.7895 38.3925 53.1688 38.3934 53.4768 38.5712Z" fill="black"/>
</svg>
