<svg width="64" height="64" viewBox="0 0 64 64" fill="none" xmlns="http://www.w3.org/2000/svg">
<g clip-path="url(#clip0_511_4911)">
<rect width="64" height="64" fill="white"/>
<rect x="-0.5" y="-0.5" width="65" height="65" fill="white" stroke="black"/>
<path fill-rule="evenodd" clip-rule="evenodd" d="M0 9V56.0272H9.35226V51.2658H4.68471V13.7405H9.35226V9H0Z" fill="black"/>
<path fill-rule="evenodd" clip-rule="evenodd" d="M54.6465 9V13.7405H59.314V51.2658H54.6465V56.0272H63.9988V9H54.6465Z" fill="black"/>
<path fill-rule="evenodd" clip-rule="evenodd" d="M33.8588 32.315C33.8096 40.8928 29.5322 46.5249 21.7133 46.5249L21.711 46.5016C18.5848 46.4784 16.0971 46.0262 13.9619 44.3499V46.5005H9.35156V36.7358H13.9619C15.2698 40.2418 17.9715 41.4228 21.203 41.4228C23.44 41.4228 25.2812 40.5894 26.7253 38.9224C28.1694 37.2543 28.8926 35.0735 28.8926 32.3754C28.8926 29.7994 28.2094 27.5873 26.8431 25.739C25.4769 23.8918 23.4572 22.9688 20.7922 22.9688C17.5607 22.9688 15.2904 24.7241 13.9836 28.2301H9.3733V18.4655H13.9836V20.6172C16.1807 18.8898 18.8217 18.4085 22.0783 18.4085C27.1578 18.4085 33.8588 22.0284 33.8588 32.315Z" fill="black"/>
<path fill-rule="evenodd" clip-rule="evenodd" d="M54.6555 41.7361V46.4906L49.941 46.5022L38.0633 34.2848L35.7175 34.2964L35.7633 41.7594H40.4091V46.5022H31.1289V18.394L35.809 18.4172L35.7633 29.5419L38.0633 29.5536L44.3225 23.1484H40.4674V18.4056H54.644V23.1484H51.0521L42.6519 31.8901L52.4241 41.7361H54.6555Z" fill="black"/>
<mask id="mask0_511_4911" style="mask-type:alpha" maskUnits="userSpaceOnUse" x="0" y="9" width="64" height="48">
<path fill-rule="evenodd" clip-rule="evenodd" d="M0 56.0272H64V9H0V56.0272Z" fill="white"/>
</mask>
<g mask="url(#mask0_511_4911)">
<path fill-rule="evenodd" clip-rule="evenodd" d="M14.0176 56.0273H49.9802V51.2867H14.0176V56.0273Z" fill="black"/>
<path fill-rule="evenodd" clip-rule="evenodd" d="M14.0176 13.7405H49.9802V9H14.0176V13.7405Z" fill="black"/>
</g>
</g>
<defs>
<clipPath id="clip0_511_4911">
<rect width="64" height="64" fill="white"/>
</clipPath>
</defs>
</svg>
