<svg width="64" height="64" viewBox="0 0 64 64" fill="none" xmlns="http://www.w3.org/2000/svg">
<g clip-path="url(#clip0_2475_4202)">
<path fill-rule="evenodd" clip-rule="evenodd" d="M46.4775 60.933C46.7256 61.0301 47.0043 61.023 47.2521 60.9031L60.4287 54.5299C60.7713 54.3642 61 54.0088 61 53.6071V10.3931C61 9.99135 60.7713 9.63594 60.4287 9.47025L61.735 6.76957C63.1195 7.43927 64 8.84781 64 10.3931V53.6071C64 55.1524 63.1195 56.5609 61.7349 57.2306L48.5584 63.6038C47.541 64.0959 46.3916 64.1212 45.3836 63.7264C44.8797 63.5291 44.4112 63.2269 44.0122 62.8255L18.7873 39.6932L7.79981 48.0767C6.77696 48.8572 5.34632 48.7933 4.39637 47.9247L0.872339 44.7024C-0.289633 43.64 -0.290965 41.8024 0.86946 40.7382L10.3981 32L0.86946 23.2618C-0.290965 22.1975 -0.289633 20.36 0.872339 19.2976L4.39637 16.0753C5.34632 15.2067 6.77696 15.1428 7.79981 15.9232L18.7873 24.3068L44.0122 1.1744C44.1618 1.02387 44.3213 0.887285 44.4886 0.764952C45.6605 -0.0914244 47.2232 -0.249609 48.5584 0.396207L61.735 6.76957L60.4287 9.47025L47.2521 3.09689C47.2521 3.09689 47.2522 3.0969 47.2521 3.09689C46.9277 2.93999 46.547 2.97663 46.259 3.1869M46.259 3.1869C46.2176 3.21716 46.1775 3.25144 46.1398 3.28941L46.0909 3.33858L18.964 28.2152L6.20902 18.483L3.14856 21.2813L14.8368 32L3.14856 42.7187L6.20898 45.517L18.964 35.7848L46.0908 60.6613L46.1396 60.7104C46.2402 60.8115 46.3552 60.8851 46.4775 60.933M2.8971 21.5113C2.89722 21.5112 2.89698 21.5114 2.8971 21.5113ZM6.42078 18.2893C6.42094 18.2892 6.42062 18.2895 6.42078 18.2893Z" fill="black"/>
<path fill-rule="evenodd" clip-rule="evenodd" d="M49.5009 14.4684V50.0954L26.5547 31.9799L49.5009 14.4684ZM31.4471 32.0201L46.5009 43.9047V20.5317L31.4471 32.0201Z" fill="black"/>
</g>
<defs>
<clipPath id="clip0_2475_4202">
<rect width="64" height="64" fill="white"/>
</clipPath>
</defs>
</svg>
