<svg width="64" height="64" viewBox="0 0 64 64" fill="none" xmlns="http://www.w3.org/2000/svg">
<path d="M41.5846 10.6632V11.9132H42.8346H43.8534C44.2884 11.9132 44.641 12.2659 44.641 12.7009V24.8588C44.641 25.2938 44.2884 25.6465 43.8534 25.6465H20.4205C19.9855 25.6465 19.6328 25.2938 19.6328 24.8588V12.7009C19.6328 12.2659 19.9855 11.9132 20.4205 11.9132H20.8959H22.1459V10.6632V8.62557C22.1459 8.19057 22.4986 7.83792 22.9336 7.83792H27.6201C28.0551 7.83792 28.4078 8.19057 28.4078 8.62557V10.6632V11.9132H29.6578H34.0727H35.3227V10.6632V8.62557C35.3227 8.19057 35.6753 7.83792 36.1103 7.83792H40.7969C41.2319 7.83792 41.5846 8.19057 41.5846 8.62557V10.6632Z" stroke="black" stroke-width="2.5"/>
<mask id="path-2-inside-1_1087_8085" fill="white">
<path fill-rule="evenodd" clip-rule="evenodd" d="M45.0749 26.4889H45.0749C44.7343 26.7448 44.3109 26.8965 43.8521 26.8965H32.3051C32.3051 26.8965 32.3051 26.8965 32.3051 26.8965H43.8521C44.3109 26.8965 44.7343 26.7448 45.0749 26.4889ZM31.4902 28.9341H43.8521C46.1028 28.9341 47.9274 27.1096 47.9274 24.8588V22.8742C48.2788 22.5864 48.7281 22.4136 49.2178 22.4136H53.9043C55.0297 22.4136 55.942 23.3259 55.942 24.4513V26.4889H56.9608C58.0862 26.4889 58.9985 27.4012 58.9985 28.5266V40.6845C58.9985 41.8099 58.0862 42.7222 56.9608 42.7222H33.5279C32.4025 42.7222 31.4902 41.8099 31.4902 40.6845V28.9341Z"/>
</mask>
<path d="M45.0749 26.4889V23.9889H44.2404L43.5732 24.4902L45.0749 26.4889ZM45.0749 26.4889L46.5766 28.4876L52.5642 23.9889H45.0749V26.4889ZM32.3051 26.8965L30.8013 24.8993L24.8285 29.3965H32.3051V26.8965ZM32.3051 26.8965V24.3965H31.4691L30.8013 24.8993L32.3051 26.8965ZM31.4902 28.9341V26.4341H28.9902V28.9341H31.4902ZM47.9274 22.8742L46.3432 20.9402L45.4274 21.6904V22.8742H47.9274ZM55.942 26.4889H53.442V28.9889H55.942V26.4889ZM45.0749 28.9889H45.0749V23.9889H45.0749V28.9889ZM43.8521 29.3965C44.871 29.3965 45.8179 29.0577 46.5766 28.4876L43.5732 24.4902C43.6507 24.432 43.7509 24.3965 43.8521 24.3965V29.3965ZM32.3051 29.3965H43.8521V24.3965H32.3051V29.3965ZM33.8088 28.8937L33.8088 28.8936L30.8013 24.8993L30.8013 24.8993L33.8088 28.8937ZM43.8521 24.3965H32.3051V29.3965H43.8521V24.3965ZM43.5732 24.4902C43.6507 24.432 43.7508 24.3965 43.8521 24.3965V29.3965C44.8709 29.3965 45.8179 29.0577 46.5766 28.4877L43.5732 24.4902ZM31.4902 31.4341H43.8521V26.4341H31.4902V31.4341ZM43.8521 31.4341C47.4835 31.4341 50.4274 28.4903 50.4274 24.8588H45.4274C45.4274 25.7288 44.7221 26.4341 43.8521 26.4341V31.4341ZM50.4274 24.8588V22.8742H45.4274V24.8588H50.4274ZM49.5116 24.8082C49.4326 24.8729 49.3266 24.9136 49.2178 24.9136V19.9136C48.1296 19.9136 47.125 20.2998 46.3432 20.9402L49.5116 24.8082ZM49.2178 24.9136H53.9043V19.9136H49.2178V24.9136ZM53.9043 24.9136C53.649 24.9136 53.442 24.7066 53.442 24.4513H58.442C58.442 21.9452 56.4104 19.9136 53.9043 19.9136V24.9136ZM53.442 24.4513V26.4889H58.442V24.4513H53.442ZM55.942 28.9889H56.9608V23.9889H55.942V28.9889ZM56.9608 28.9889C56.7055 28.9889 56.4985 28.7819 56.4985 28.5266H61.4985C61.4985 26.0205 59.4669 23.9889 56.9608 23.9889V28.9889ZM56.4985 28.5266V40.6845H61.4985V28.5266H56.4985ZM56.4985 40.6845C56.4985 40.4292 56.7055 40.2222 56.9608 40.2222V45.2222C59.4669 45.2222 61.4985 43.1906 61.4985 40.6845H56.4985ZM56.9608 40.2222H33.5279V45.2222H56.9608V40.2222ZM33.5279 40.2222C33.7832 40.2222 33.9902 40.4292 33.9902 40.6845H28.9902C28.9902 43.1906 31.0218 45.2222 33.5279 45.2222V40.2222ZM33.9902 40.6845V28.9341H28.9902V40.6845H33.9902Z" fill="black" mask="url(#path-2-inside-1_1087_8085)"/>
<mask id="path-4-inside-2_1087_8085" fill="white">
<path fill-rule="evenodd" clip-rule="evenodd" d="M44.6258 42.7221C44.6258 42.7221 44.6258 42.7221 44.6258 42.7221H33.5281C32.605 42.7221 31.8252 42.1083 31.5748 41.2664C31.8252 42.1082 32.605 42.7221 33.5281 42.7221H44.6258ZM29.4528 40.1576V40.6845C29.4528 42.9352 31.2774 44.7598 33.5281 44.7598H45.2781V56.3743C45.2781 57.4997 44.3658 58.412 43.2405 58.412H6.83452C5.70916 58.412 4.79688 57.4997 4.79688 56.3743V44.2164C4.79688 43.091 5.70916 42.1787 6.83452 42.1787H7.30997V40.1411C7.30997 39.0157 8.22226 38.1035 9.34762 38.1035H14.0342C15.1596 38.1035 16.0718 39.0157 16.0718 40.1411V42.1787H20.4867V40.1411C20.4867 39.0157 21.399 38.1035 22.5244 38.1035H27.211C28.3363 38.1035 29.4184 39.0157 29.4184 40.1411L29.4528 40.1576Z"/>
</mask>
<path d="M28.1727 40.0373L28.0029 42.0749L30.4943 42.2826L30.6641 40.2449L28.1727 40.0373ZM44.6258 42.7221V45.2221H51.1074L46.3046 40.8697L44.6258 42.7221ZM44.6258 42.7221L46.3046 40.8696L45.5901 40.2221H44.6258V42.7221ZM31.5748 41.2664L33.971 40.5536L29.1786 41.9793L31.5748 41.2664ZM29.4528 40.1576H31.9528V38.5845L30.5347 37.9038L29.4528 40.1576ZM45.2781 44.7598H47.7781V42.2598H45.2781V44.7598ZM7.30997 42.1787V44.6787H9.80997V42.1787H7.30997ZM16.0718 42.1787H13.5718V44.6787H16.0718V42.1787ZM20.4867 42.1787V44.6787H22.9867V42.1787H20.4867ZM29.4184 40.1411H26.9184V41.7142L28.3366 42.3949L29.4184 40.1411ZM46.3046 40.8697C46.3098 40.8744 46.314 40.8782 46.3164 40.8804C46.3187 40.8825 46.3207 40.8843 46.3203 40.884V40.884C46.3203 40.884 46.3203 40.884 46.3203 40.884C46.3203 40.884 46.3203 40.884 46.3203 40.884C46.3203 40.884 46.3203 40.884 46.3203 40.884C46.3203 40.884 46.3203 40.884 46.3203 40.884C46.3202 40.8839 46.3202 40.8839 46.3201 40.8838C46.3199 40.8836 46.3197 40.8834 46.3194 40.8831C46.3187 40.8825 46.3177 40.8816 46.3164 40.8804C46.3139 40.8781 46.3098 40.8743 46.3046 40.8696L42.947 44.5746C42.9418 44.5699 42.9377 44.5661 42.9352 44.5638C42.9329 44.5617 42.931 44.5599 42.9313 44.5602V44.5602V44.5602C42.9313 44.5602 42.9313 44.5602 42.9313 44.5602C42.9313 44.5602 42.9313 44.5602 42.9313 44.5603C42.9313 44.5603 42.9314 44.5603 42.9314 44.5603C42.9314 44.5603 42.9315 44.5604 42.9316 44.5605C42.9317 44.5606 42.932 44.5608 42.9323 44.5611C42.9329 44.5617 42.9339 44.5627 42.9352 44.5638C42.9377 44.5661 42.9419 44.5699 42.947 44.5746L46.3046 40.8697ZM33.5281 45.2221H44.6258V40.2221H33.5281V45.2221ZM29.1786 41.9793C29.7357 43.8521 31.4687 45.2221 33.5281 45.2221V40.2221C33.7413 40.2221 33.9147 40.3644 33.971 40.5536L29.1786 41.9793ZM33.5281 40.2221C33.7413 40.2221 33.9147 40.3643 33.971 40.5536L29.1786 41.9793C29.7358 43.8522 31.4687 45.2221 33.5281 45.2221V40.2221ZM44.6258 40.2221H33.5281V45.2221H44.6258V40.2221ZM26.9528 40.1576V40.6845H31.9528V40.1576H26.9528ZM26.9528 40.6845C26.9528 44.316 29.8967 47.2598 33.5281 47.2598V42.2598C32.6581 42.2598 31.9528 41.5545 31.9528 40.6845H26.9528ZM33.5281 47.2598H45.2781V42.2598H33.5281V47.2598ZM47.7781 56.3743V44.7598H42.7781V56.3743H47.7781ZM43.2405 60.912C45.7465 60.912 47.7781 58.8804 47.7781 56.3743H42.7781C42.7781 56.119 42.9851 55.912 43.2405 55.912V60.912ZM6.83452 60.912H43.2405V55.912H6.83452V60.912ZM2.29688 56.3743C2.29688 58.8804 4.32845 60.912 6.83452 60.912V55.912C7.08987 55.912 7.29688 56.119 7.29688 56.3743H2.29688ZM2.29688 44.2164V56.3743H7.29688V44.2164H2.29688ZM6.83452 39.6787C4.32845 39.6787 2.29688 41.7103 2.29688 44.2164H7.29688C7.29688 44.4717 7.08987 44.6787 6.83452 44.6787V39.6787ZM7.30997 39.6787H6.83452V44.6787H7.30997V39.6787ZM4.80997 40.1411V42.1787H9.80997V40.1411H4.80997ZM9.34762 35.6035C6.84154 35.6035 4.80997 37.635 4.80997 40.1411H9.80997C9.80997 40.3965 9.60297 40.6035 9.34762 40.6035V35.6035ZM14.0342 35.6035H9.34762V40.6035H14.0342V35.6035ZM18.5718 40.1411C18.5718 37.635 16.5403 35.6035 14.0342 35.6035V40.6035C13.7789 40.6035 13.5718 40.3965 13.5718 40.1411H18.5718ZM18.5718 42.1787V40.1411H13.5718V42.1787H18.5718ZM20.4867 39.6787H16.0718V44.6787H20.4867V39.6787ZM17.9867 40.1411V42.1787H22.9867V40.1411H17.9867ZM22.5244 35.6035C20.0183 35.6035 17.9867 37.635 17.9867 40.1411H22.9867C22.9867 40.3965 22.7797 40.6035 22.5244 40.6035V35.6035ZM27.211 35.6035H22.5244V40.6035H27.211V35.6035ZM31.9184 40.1411C31.9184 37.3858 29.4539 35.6035 27.211 35.6035V40.6035C27.1557 40.6035 27.1221 40.5927 27.1081 40.5871C27.0948 40.5818 27.0826 40.5749 27.0676 40.5615C27.0469 40.5429 26.9184 40.4092 26.9184 40.1411H31.9184ZM30.5347 37.9038L30.5003 37.8873L28.3366 42.3949L28.371 42.4114L30.5347 37.9038Z" fill="black" mask="url(#path-4-inside-2_1087_8085)"/>
</svg>
