<svg width="64" height="64" viewBox="0 0 64 64" fill="none" xmlns="http://www.w3.org/2000/svg">
<g clip-path="url(#clip0_835_4880)">
<rect width="64" height="64" fill="white"/>
<rect x="-0.5" y="-0.5" width="65" height="65" fill="white" stroke="black"/>
<path d="M42.9814 34.4364L42.9464 48.6616C42.944 49.631 44.1841 50.0364 44.7547 49.2528L49.0142 43.4037C49.1626 43.2 49.3824 43.0598 49.6297 43.0112L56.8809 41.5858C57.8227 41.4007 57.9881 40.1239 57.1246 39.7049L44.4179 33.5392C43.7548 33.2174 42.9832 33.6993 42.9814 34.4364Z" fill="black" stroke="black"/>
<path fill-rule="evenodd" clip-rule="evenodd" d="M44.4796 35.2365L44.4503 47.1231L47.8018 42.5209C48.1727 42.0115 48.7223 41.661 49.3405 41.5395L55.1257 40.4023L44.4796 35.2365ZM44.4815 34.4409L44.4815 34.4403L43.9815 34.439L44.4815 34.4403C44.4815 34.4405 44.4815 34.4407 44.4815 34.4409ZM45.0729 32.1898L44.4361 33.5023L45.0729 32.1898L57.7796 38.3555C59.9384 39.4031 59.5249 42.595 57.1704 43.0578L50.1115 44.4454L45.9675 50.136C44.5408 52.0951 41.4406 51.0817 41.4465 48.6581L41.4816 34.4329C41.4861 32.5901 43.415 31.3854 45.0729 32.1898Z" fill="black" stroke="black"/>
<path fill-rule="evenodd" clip-rule="evenodd" d="M44.8971 36.3716C46.2879 35.4711 48.2033 35.9581 49.1753 37.4592L54.895 46.293C55.8669 47.7942 55.5274 49.7411 54.1366 50.6416C52.7459 51.5421 50.8305 51.0552 49.8585 49.554L44.1388 40.7202C43.1668 39.2191 43.5064 37.2721 44.8971 36.3716Z" fill="black" stroke="black" stroke-linecap="round"/>
<path d="M58 24C59.1046 24 60 24.8954 60 26V35C60.4203 37.2067 63.5797 37.2067 64 35V24C64 21.7909 62.2091 20 60 20H4C1.79086 20 0 21.7909 0 24V40C0 42.2091 1.79086 44 4 44H36C38.3241 43.6794 38.3241 40.3206 36 40H6C4.89543 40 4 39.1046 4 38V26C4 24.8954 4.89543 24 6 24H58Z" fill="black"/>
</g>
<defs>
<clipPath id="clip0_835_4880">
<rect width="64" height="64" fill="white"/>
</clipPath>
</defs>
</svg>
