<svg width="64" height="64" viewBox="0 0 64 64" fill="none" xmlns="http://www.w3.org/2000/svg">
<g clip-path="url(#clip0_511_4960)">
<rect width="64" height="64" fill="white"/>
<rect x="-0.5" y="-0.5" width="65" height="65" fill="white" stroke="black"/>
<path fill-rule="evenodd" clip-rule="evenodd" d="M23.6667 41.2812C23.6667 42.2132 24.4129 42.9688 25.3333 42.9688L52 42.9688C52.9205 42.9688 53.6667 42.2132 53.6667 41.2813L53.6667 10.0625C53.6667 9.13052 52.9205 8.375 52 8.375L25.3333 8.375C24.4129 8.375 23.6667 9.13052 23.6667 10.0625L23.6667 41.2812ZM53.6667 46.3438C55.5076 46.3438 57 44.8327 57 42.9688V8.375C57 6.51104 55.5076 5 53.6667 5L23.6667 5C21.8257 5 20.3333 6.51104 20.3333 8.375L20.3333 42.9688C20.3333 44.8327 21.8257 46.3438 23.6667 46.3438L53.6667 46.3438Z" fill="black"/>
<path d="M12 55.625C11.0795 55.625 10.3333 54.8695 10.3333 53.9375L10.3333 22.7187C10.3333 21.7868 11.0795 21.0312 12 21.0312L20.3333 21.0312V17.6562H10.3333C8.49239 17.6562 7 19.1673 7 21.0312L7 55.625C7 57.489 8.49238 59 10.3333 59L40.3333 59C42.1743 59 43.6667 57.489 43.6667 55.625V46.3438H40.3333V53.9375C40.3333 54.8695 39.5871 55.625 38.6667 55.625L12 55.625Z" fill="black"/>
</g>
<defs>
<clipPath id="clip0_511_4960">
<rect width="64" height="64" fill="white"/>
</clipPath>
</defs>
</svg>
