<svg width="64" height="64" viewBox="0 0 64 64" fill="none" xmlns="http://www.w3.org/2000/svg">
<g clip-path="url(#clip0_1326_4924)">
<path fill-rule="evenodd" clip-rule="evenodd" d="M27.3432 6.25951C35.7216 -2.11882 49.3055 -2.11881 57.6838 6.25952C66.0622 14.6378 66.0622 28.2218 57.6838 36.6001L53.1682 41.1157L52.5318 40.492C49.4282 37.4503 44.4466 37.5005 41.4049 40.604C38.3633 43.7075 38.4135 48.6892 41.517 51.7308L42.0403 52.2437L36.5785 57.7055C28.2001 66.0838 14.6162 66.0838 6.23785 57.7055C-2.14048 49.3272 -2.14048 35.7432 6.23785 27.3649L11.9178 21.685L12.8217 22.5709C15.9253 25.6125 20.9069 25.5624 23.9486 22.4589C26.9902 19.3553 26.94 14.3737 23.8365 11.332L23.0457 10.557L27.3432 6.25951ZM40.7281 29.2681L48.2756 21.7206C49.8922 20.104 49.8922 17.4828 48.2756 15.8662C46.6589 14.2495 44.0378 14.2495 42.4211 15.8662L34.8736 23.4137C33.257 25.0303 33.257 27.6514 34.8736 29.2681C36.4903 30.8848 39.1114 30.8848 40.7281 29.2681ZM22.106 47.7413L29.6571 40.1902C31.2738 38.5736 31.2738 35.9524 29.6571 34.3358C28.0404 32.7191 25.4193 32.7191 23.8027 34.3358L16.2516 41.8869C14.6349 43.5036 14.6349 46.1247 16.2516 47.7413C17.8682 49.358 20.4893 49.358 22.106 47.7413Z" fill="black"/>
<path d="M45.0172 48.1599C43.8859 47.0511 43.8676 45.2351 44.9764 44.1037C46.0852 42.9724 47.9012 42.9541 49.0325 44.0629L56.0502 50.9406C57.1815 52.0494 57.1998 53.8654 56.091 54.9967C54.9822 56.1281 53.1662 56.1464 52.0349 55.0376L45.0172 48.1599Z" fill="black"/>
<path d="M9.30337 12.1222C8.17202 11.0134 8.15373 9.19742 9.26252 8.06608C10.3713 6.93473 12.1873 6.91644 13.3187 8.02523L20.3363 14.9029C21.4676 16.0117 21.4859 17.8277 20.3771 18.9591C19.2683 20.0904 17.4524 20.1087 16.321 18.9999L9.30337 12.1222Z" fill="black"/>
</g>
<defs>
<clipPath id="clip0_1326_4924">
<rect width="64" height="64" fill="white"/>
</clipPath>
</defs>
</svg>
