<svg width="64" height="64" viewBox="0 0 64 64" fill="none" xmlns="http://www.w3.org/2000/svg">
<path d="M36.1544 31.6439C36.1544 34.0558 34.1702 36.0377 31.6895 36.0377C29.2088 36.0377 27.2246 34.0558 27.2246 31.6439C27.2246 29.2319 29.2088 27.25 31.6895 27.25C34.1702 27.25 36.1544 29.2319 36.1544 31.6439Z" stroke="black" stroke-width="2.5"/>
<path d="M17.5684 31.6439C17.5684 34.0558 15.5842 36.0377 13.1036 36.0377C10.6229 36.0377 8.63867 34.0558 8.63867 31.6439C8.63867 29.2319 10.6229 27.25 13.1036 27.25C15.5842 27.25 17.5684 29.2319 17.5684 31.6439Z" stroke="black" stroke-width="2.5"/>
<path d="M54.7413 31.6439C54.7413 34.0558 52.7571 36.0377 50.2764 36.0377C47.7957 36.0377 45.8115 34.0558 45.8115 31.6439C45.8115 29.2319 47.7957 27.25 50.2764 27.25C52.7571 27.25 54.7413 29.2319 54.7413 31.6439Z" stroke="black" stroke-width="2.5"/>
</svg>
