<svg width="64" height="64" viewBox="0 0 64 64" fill="none" xmlns="http://www.w3.org/2000/svg">
<g clip-path="url(#clip0_534_5167)">
<rect width="64" height="64" fill="white"/>
<rect x="-0.5" y="-0.5" width="65" height="65" fill="white" stroke="black"/>
<path d="M55.0121 31.6114C55.0121 44.0065 44.9623 54.0569 32.5666 54.0569C29.1456 54.0569 24.081 52.1115 21 50.5001L25.0852 48.562C26.4626 48.562 27.5791 47.4454 27.5791 46.068C27.5791 44.6907 26.4626 43.5741 25.0852 43.5741L15.1095 46.5741C15.1016 46.5741 15.094 46.5752 15.0862 46.5753C15.0787 46.5754 15.0713 46.5764 15.0639 46.5765C14.4762 46.5871 13.9381 46.7994 13.517 47.1492C13.5126 47.1529 13.5085 47.1573 13.504 47.161C13.4452 47.2106 13.3885 47.2625 13.3345 47.3173C13.3325 47.3193 13.3303 47.321 13.3283 47.323C13.3143 47.3374 13.3025 47.353 13.2888 47.3676C13.2484 47.4108 13.2084 47.4544 13.1711 47.5005C13.1493 47.5273 13.1302 47.5552 13.1097 47.5826C13.0819 47.62 13.0537 47.6571 13.0279 47.6962C13.0059 47.7295 12.9863 47.7639 12.966 47.7979C12.945 47.8332 12.9236 47.8681 12.9043 47.9046C12.8848 47.9416 12.8677 47.9794 12.8501 48.0171C12.8335 48.0529 12.8163 48.0882 12.8013 48.1248C12.7852 48.164 12.7716 48.204 12.7577 48.244C12.745 48.2805 12.7315 48.3167 12.7204 48.3539C12.7077 48.3964 12.6977 48.4396 12.6873 48.4826C12.6788 48.518 12.6695 48.5532 12.6624 48.5892C12.6527 48.6389 12.6463 48.6888 12.6396 48.739C12.6357 48.7691 12.6304 48.7988 12.6275 48.8292C12.6214 48.8932 12.6189 48.9573 12.6178 49.0215C12.6174 49.0372 12.6154 49.0524 12.6154 49.068L12.6154 49.0835C12.6154 49.089 12.6153 49.0945 12.6154 49.1L12.6154 59.0438C12.6156 60.4211 13.7321 61.5377 15.1095 61.5377C16.4868 61.5377 17.6034 60.4211 17.6034 59.0438L17.6034 54.3194C22.0648 57.3349 27.2332 59.0448 32.5666 59.0448C47.7172 59.0448 60 46.7612 60 31.6114C60 27.4078 59.0532 23.3351 57.2552 19.6352C56.6532 18.3964 55.1609 17.8801 53.9221 18.4822C52.6832 19.0842 52.167 20.5765 52.769 21.8153C54.2385 24.8393 55.0121 28.1668 55.0121 31.6114Z" fill="black"/>
<path d="M9.98793 31.9263C9.98793 19.5312 20.0377 9.48079 32.4334 9.48079C35.8544 9.48079 40.919 11.4262 44 13.0376L39.9148 14.9757C38.5374 14.9757 37.4209 16.0923 37.4209 17.4697C37.4209 18.847 38.5374 19.9636 39.9148 19.9636L49.8905 16.9636C49.8984 16.9636 49.906 16.9625 49.9138 16.9624C49.9213 16.9623 49.9286 16.9613 49.9361 16.9612C50.5238 16.9506 51.0619 16.7383 51.483 16.3885C51.4874 16.3848 51.4915 16.3804 51.496 16.3767C51.5548 16.3271 51.6115 16.2752 51.6655 16.2204C51.6675 16.2184 51.6697 16.2167 51.6717 16.2147C51.6857 16.2003 51.6975 16.1847 51.7112 16.1701C51.7516 16.1269 51.7916 16.0833 51.8289 16.0372C51.8507 16.0104 51.8698 15.9825 51.8903 15.9551C51.9181 15.9177 51.9463 15.8806 51.9721 15.8415C51.9941 15.8082 52.0137 15.7738 52.034 15.7398C52.055 15.7045 52.0764 15.6695 52.0957 15.6331C52.1152 15.5961 52.1323 15.5583 52.1499 15.5206C52.1665 15.4848 52.1837 15.4495 52.1987 15.4129C52.2148 15.3737 52.2284 15.3337 52.2423 15.2937C52.255 15.2572 52.2685 15.221 52.2796 15.1838C52.2923 15.1413 52.3023 15.0981 52.3127 15.0551C52.3212 15.0197 52.3305 14.9845 52.3376 14.9485C52.3473 14.8988 52.3537 14.8489 52.3604 14.7987C52.3643 14.7686 52.3696 14.7389 52.3725 14.7085C52.3786 14.6445 52.3811 14.5804 52.3822 14.5162C52.3826 14.5005 52.3846 14.4853 52.3846 14.4697V14.4542C52.3846 14.4487 52.3847 14.4432 52.3846 14.4377V4.49391C52.3844 3.11655 51.2679 2 49.8905 2C48.5132 2 47.3966 3.11655 47.3966 4.49391V9.21834C42.9352 6.20281 37.7668 4.49286 32.4334 4.49286C17.2828 4.49286 5 16.7765 5 31.9263C5 36.1299 5.9468 40.2026 7.74478 43.9025C8.34683 45.1413 9.83911 45.6576 11.0779 45.0555C12.3168 44.4535 12.833 42.9612 12.231 41.7224C10.7615 38.6984 9.98793 35.3709 9.98793 31.9263Z" fill="black"/>
</g>
<defs>
<clipPath id="clip0_534_5167">
<rect width="64" height="64" fill="white"/>
</clipPath>
</defs>
</svg>
