<svg width="1055" height="676" viewBox="0 0 1055 676" fill="none" xmlns="http://www.w3.org/2000/svg">
<g clip-path="url(#clip0_913_5165)">
<g opacity="0.1" filter="url(#filter0_f_913_5165)">
<path d="M219.5 667L132 599.5L239 540L332 585L219.5 667Z" fill="url(#paint0_linear_913_5165)"/>
</g>
<g opacity="0.1" filter="url(#filter1_f_913_5165)">
<path d="M942.5 640L855 572.5L962 513L1055 558L942.5 640Z" fill="url(#paint1_linear_913_5165)"/>
</g>
<g opacity="0.1" filter="url(#filter2_f_913_5165)">
<path d="M760.5 667L673 599.5L726 574L838.5 604L760.5 667Z" fill="url(#paint2_linear_913_5165)"/>
</g>
<g opacity="0.1" filter="url(#filter3_f_913_5165)">
<path d="M677.5 625L590 557.5L643 532L755.5 562L677.5 625Z" fill="url(#paint3_linear_913_5165)"/>
</g>
<g opacity="0.1" filter="url(#filter4_f_913_5165)">
<path d="M586.5 589L499 521.5L552 496L664.5 526L586.5 589Z" fill="url(#paint4_linear_913_5165)"/>
</g>
<g opacity="0.1" filter="url(#filter5_f_913_5165)">
<path d="M777.5 630L690 562.5L925.5 432L1043.5 484L777.5 630Z" fill="url(#paint5_linear_913_5165)"/>
</g>
<g opacity="0.1" filter="url(#filter6_f_913_5165)">
<path d="M448 663.5L293 573.5L500 458L644.5 513L448 663.5Z" fill="url(#paint6_linear_913_5165)"/>
</g>
<g opacity="0.1" filter="url(#filter7_f_913_5165)">
<path d="M387.5 601.5L355 576.5L382.5 560L421.5 574L387.5 601.5Z" fill="url(#paint7_linear_913_5165)"/>
</g>
<path d="M933.539 185.965L678 333.575V555.013L933.539 407.478V185.965Z" fill="#FFBB01"/>
<path d="M933.539 185.966L678 333.575V555.014L933.539 407.478V185.966Z" fill="black" fill-opacity="0.07"/>
<path d="M422 185.373L678 333.587V556.012L422 408.21V185.373Z" fill="#FFBB01"/>
<path d="M422 185.373L678 333.587V556.012L422 408.21V185.373Z" fill="black" fill-opacity="0.33"/>
<path d="M677.539 39.1387L422 186.674L678 333.59L933.539 186.055L677.539 39.1387Z" fill="#FFBB01"/>
<path d="M506.071 278.942L301.22 397.272V574.786L506.071 456.515V278.942Z" fill="#4900E6"/>
<path d="M506.071 278.942L301.22 397.272V574.786L506.071 456.515V278.942Z" fill="black" fill-opacity="0.07"/>
<path d="M96 278.466L301.221 397.281V575.586L96 457.102V278.466Z" fill="#4900E6"/>
<path d="M96 278.466L301.221 397.281V575.586L96 457.102V278.466Z" fill="black" fill-opacity="0.33"/>
<path d="M300.851 161.239L95.9997 279.51L301.22 397.284L506.071 279.013L300.851 161.239Z" fill="#4900E6"/>
<path d="M841.848 319.794V317.544L843.796 316.35V300.809L841.906 301.967V299.751L846.645 296.847V309.55L851.21 302.6L849.291 303.776V301.526L855.542 297.695V299.945L854.001 300.889L849.552 307.803L853.71 310.275L855.629 309.099V311.348L852.053 313.54L846.645 310.139V314.604L848.36 313.553V315.803L841.848 319.794Z" fill="white"/>
<path d="M854.32 312.15V309.901L856.297 308.689V299.482L854.32 300.693V298.444L859.147 295.486V299.605L858.71 299.872C858.962 298.61 859.263 297.561 859.612 296.724C859.98 295.875 860.387 295.187 860.833 294.66C861.279 294.11 861.724 293.699 862.17 293.425C862.577 293.176 862.965 292.996 863.333 292.886C863.721 292.764 864.099 292.693 864.467 292.675L863.827 296.044C863.498 295.992 863.149 296.021 862.781 296.132C862.432 296.207 862.064 296.364 861.676 296.601C861.036 296.993 860.455 297.649 859.932 298.57C859.428 299.479 859.176 300.522 859.176 301.699L859.147 306.943L861.065 305.767V308.017L854.32 312.15Z" fill="white"/>
<path d="M866.357 305.155C865.175 305.88 864.225 306.081 863.508 305.759C862.81 305.402 862.461 304.647 862.461 303.493C862.461 302.431 862.674 301.458 863.101 300.574C863.527 299.69 864.089 298.895 864.787 298.191C865.485 297.486 866.241 296.885 867.055 296.386C867.733 295.97 868.392 295.635 869.032 295.382C869.671 295.128 870.272 294.933 870.834 294.796L870.02 295.434V293.876C870.02 292.861 869.797 292.247 869.352 292.036C868.906 291.825 868.286 291.962 867.491 292.449C866.948 292.782 866.328 293.266 865.63 293.901C864.952 294.525 864.273 295.24 863.595 296.048L862.839 294.435C863.614 293.429 864.448 292.526 865.339 291.726C866.25 290.914 867.093 290.27 867.869 289.795C868.935 289.142 869.836 288.797 870.573 288.761C871.329 288.713 871.9 288.963 872.288 289.51C872.676 290.034 872.87 290.815 872.87 291.853V298.533L874.527 297.518V299.768L870.427 302.28L870.108 300.468L871.071 301.574C870.373 302.81 869.565 302.209 868.828 303.052C868.111 303.884 867.287 304.585 866.357 305.155ZM867.084 302.633C867.704 302.253 868.315 301.717 868.915 301.026C869.536 300.323 870.166 299.429 870.805 298.345L870.02 300.106V296.299L870.66 296.565C870.233 296.641 869.749 296.788 869.206 297.006C868.663 297.223 868.101 297.51 867.52 297.866C866.9 298.246 866.338 298.752 865.834 299.384C865.349 300.004 865.107 300.764 865.107 301.664C865.107 302.287 865.281 302.699 865.63 302.901C865.979 303.102 866.464 303.013 867.084 302.633Z" fill="white"/>
<path d="M872.928 300.748V298.498L874.876 297.304V281.763L872.986 282.921V280.706L877.725 277.801V290.505L882.29 283.554L880.371 284.73V282.48L886.622 278.649V280.899L885.081 281.843L880.632 288.758L884.79 291.229L890.227 287.897V290.147L883.133 294.494L877.725 291.093V295.558L879.44 294.507V296.757L872.928 300.748Z" fill="white"/>
<path d="M892.058 289.405C890.799 290.177 889.674 290.578 888.686 290.607C887.697 290.612 886.922 290.245 886.36 289.505C885.798 288.765 885.517 287.657 885.517 286.18C885.517 284.726 885.788 283.29 886.331 281.873C886.874 280.456 887.6 279.18 888.511 278.045C889.442 276.875 890.488 275.933 891.651 275.221C892.834 274.496 893.851 274.173 894.704 274.25C895.557 274.304 896.206 274.726 896.652 275.514C897.117 276.29 897.35 277.382 897.35 278.79V279.586L887.581 285.572L887.61 283.72L894.588 279.444C894.588 278.683 894.462 278.102 894.21 277.703C893.958 277.303 893.609 277.102 893.163 277.098C892.718 277.071 892.204 277.236 891.622 277.592C890.983 277.984 890.411 278.519 889.907 279.197C889.422 279.863 889.035 280.62 888.744 281.468C888.473 282.303 888.337 283.205 888.337 284.175C888.337 285.19 888.492 285.972 888.802 286.52C889.132 287.057 889.587 287.343 890.169 287.379C890.75 287.415 891.419 287.201 892.175 286.738C892.989 286.239 893.745 285.591 894.443 284.794C895.14 283.998 895.751 283.162 896.274 282.287L897.176 283.812C896.613 284.849 895.896 285.876 895.024 286.896C894.171 287.88 893.183 288.716 892.058 289.405Z" fill="white"/>
<path d="M892.262 288.9V286.65L899.124 282.445V273.238L897.146 274.449V272.2L901.886 269.295L901.915 271.112L901.013 271.872C901.827 270.681 902.642 269.617 903.456 268.679C904.27 267.719 905.113 266.972 905.985 266.437C907.109 265.748 908.03 265.599 908.747 265.991C909.464 266.382 909.823 267.304 909.823 268.758V275.888L911.742 274.713V276.962L905.287 280.918V278.668L906.944 277.652V271.11C906.944 270.257 906.77 269.694 906.421 269.424C906.072 269.153 905.588 269.207 904.967 269.588C904.367 269.956 903.746 270.497 903.107 271.212C902.486 271.916 901.827 272.769 901.13 273.774L902.002 271.786V280.681L903.775 279.594V281.844L892.262 288.9Z" fill="white"/>
<path d="M851.848 292.348C850.357 293.261 848.982 293.856 847.722 294.131C846.462 294.381 845.36 294.324 844.415 293.959C843.491 293.557 842.766 292.834 842.241 291.789C841.737 290.732 841.485 289.334 841.485 287.595C841.485 285.31 841.905 283.078 842.745 280.899C843.606 278.683 844.761 276.683 846.21 274.901C847.68 273.081 849.36 271.592 851.25 270.434C852.573 269.624 853.728 269.152 854.715 269.019C855.722 268.873 856.541 269.017 857.171 269.451C857.822 269.872 858.263 270.57 858.494 271.546L857.234 271.238V267.14L860.762 264.978V272.653L857.738 274.506C857.192 273.623 856.499 273.129 855.659 273.023C854.841 272.879 853.812 273.186 852.573 273.946C851.418 274.653 850.42 275.55 849.58 276.636C848.761 277.709 848.121 278.897 847.659 280.198C847.218 281.462 846.998 282.777 846.998 284.143C846.998 285.186 847.123 286.053 847.375 286.743C847.627 287.408 847.974 287.916 848.415 288.267C848.877 288.58 849.423 288.705 850.053 288.642C850.683 288.578 851.386 288.309 852.163 287.833C853.024 287.305 853.78 286.656 854.431 285.884C855.082 285.113 855.628 284.232 856.069 283.241C856.51 282.226 856.835 281.12 857.045 279.923L861.235 279.07C860.941 280.765 860.374 282.441 859.534 284.098C858.715 285.718 857.654 287.237 856.352 288.656C855.071 290.062 853.57 291.292 851.848 292.348Z" fill="#4900E6"/>
<path d="M863.912 284.992C862.505 285.854 861.277 286.284 860.227 286.282C859.177 286.255 858.358 285.825 857.77 284.993C857.182 284.161 856.888 282.963 856.888 281.398C856.888 279.833 857.182 278.287 857.77 276.759C858.358 275.231 859.177 273.823 860.227 272.534C861.277 271.22 862.505 270.132 863.912 269.27C865.319 268.407 866.547 267.99 867.597 268.017C868.647 268.02 869.466 268.424 870.054 269.231C870.642 270.038 870.936 271.224 870.936 272.789C870.936 274.354 870.642 275.913 870.054 277.465C869.466 279.018 868.647 280.451 867.597 281.765C866.547 283.054 865.319 284.13 863.912 284.992ZM863.912 280.819C864.458 280.485 864.93 280.046 865.329 279.504C865.749 278.948 866.064 278.333 866.274 277.658C866.484 276.958 866.589 276.223 866.589 275.453C866.589 274.683 866.484 274.089 866.274 273.671C866.064 273.254 865.749 273.024 865.329 272.984C864.93 272.93 864.458 273.071 863.912 273.405C863.345 273.753 862.862 274.198 862.463 274.74C862.085 275.27 861.781 275.879 861.55 276.567C861.34 277.242 861.235 277.964 861.235 278.734C861.235 279.504 861.34 280.111 861.55 280.553C861.781 280.958 862.085 281.194 862.463 281.26C862.862 281.314 863.345 281.167 863.912 280.819Z" fill="#4900E6"/>
<path d="M870.149 280.76V277.482L871.786 276.478V268.095L870.117 269.118V265.877L871.786 264.854V263.475C871.786 261.588 872.248 259.814 873.172 258.155C874.096 256.496 875.409 255.145 877.11 254.103C878.747 253.099 879.986 252.775 880.826 253.129C881.687 253.446 882.191 254.293 882.338 255.668L879.094 258.289C879.073 257.632 878.957 257.181 878.747 256.937C878.558 256.655 878.243 256.65 877.803 256.92C877.362 257.19 877.026 257.607 876.795 258.171C876.564 258.71 876.448 259.439 876.448 260.358V261.997L880.763 259.353V257.453C880.763 256.285 880.973 255.113 881.393 253.937C881.813 252.761 882.443 251.642 883.283 250.581C884.144 249.507 885.236 248.564 886.559 247.754C887.651 247.084 888.554 246.717 889.268 246.653C890.003 246.55 890.58 246.718 891 247.156C891.42 247.569 891.683 248.253 891.788 249.207L888.228 252.133C888.207 251.475 888.092 251.024 887.882 250.78C887.672 250.537 887.336 250.556 886.874 250.839C886.412 251.122 886.055 251.54 885.803 252.092C885.572 252.631 885.457 253.422 885.457 254.465V256.477L887.63 255.145V258.386L885.457 259.718V268.101L887.598 266.789V270.067L879.031 275.317V272.039L880.763 270.977V262.594L876.448 265.239V273.621L879.251 271.904V275.182L870.149 280.76Z" fill="#4900E6"/>
<path d="M893.961 266.578C892.512 267.466 891.242 267.934 890.15 267.982C889.079 268.017 888.239 267.638 887.63 266.844C887.021 266.025 886.716 264.795 886.716 263.156C886.716 261.591 887.01 260.045 887.598 258.517C888.186 256.99 888.995 255.575 890.024 254.274C891.074 252.96 892.271 251.891 893.615 251.068C894.937 250.257 896.061 249.904 896.985 250.008C897.93 250.075 898.644 250.544 899.127 251.416C899.631 252.249 899.883 253.424 899.883 254.939V255.945L889.299 262.43L889.331 260.064L895.567 256.242C895.567 255.646 895.483 255.201 895.315 254.906C895.168 254.574 894.937 254.393 894.622 254.362C894.307 254.332 893.919 254.458 893.457 254.741C892.932 255.063 892.491 255.494 892.134 256.036C891.777 256.553 891.504 257.167 891.315 257.879C891.147 258.553 891.063 259.288 891.063 260.083C891.063 261.002 891.21 261.682 891.504 262.122C891.819 262.525 892.239 262.728 892.764 262.729C893.289 262.705 893.898 262.481 894.591 262.056C895.347 261.593 896.061 261.007 896.733 260.297C897.405 259.587 897.993 258.842 898.497 258.061L899.788 260.548C899.074 261.731 898.224 262.848 897.237 263.9C896.25 264.952 895.158 265.845 893.961 266.578Z" fill="#4900E6"/>
<path d="M905.458 259.533C904.009 260.421 902.738 260.889 901.647 260.937C900.576 260.972 899.736 260.593 899.127 259.799C898.518 258.979 898.213 257.75 898.213 256.111C898.213 254.546 898.507 253 899.095 251.472C899.683 249.944 900.492 248.53 901.521 247.229C902.57 245.915 903.767 244.846 905.111 244.022C906.434 243.212 907.558 242.859 908.482 242.963C909.427 243.03 910.14 243.499 910.623 244.37C911.127 245.204 911.379 246.379 911.379 247.894V248.9L900.796 255.385L900.828 253.019L907.064 249.197C907.064 248.601 906.98 248.155 906.812 247.861C906.665 247.529 906.434 247.347 906.119 247.317C905.804 247.286 905.416 247.413 904.954 247.696C904.429 248.017 903.988 248.449 903.631 248.991C903.274 249.508 903.001 250.122 902.812 250.834C902.644 251.508 902.56 252.243 902.56 253.037C902.56 253.956 902.707 254.636 903.001 255.077C903.316 255.48 903.736 255.682 904.261 255.684C904.786 255.66 905.395 255.436 906.088 255.011C906.844 254.548 907.558 253.961 908.23 253.252C908.902 252.542 909.49 251.796 909.993 251.016L911.285 253.503C910.571 254.686 909.72 255.803 908.734 256.855C907.747 257.907 906.655 258.799 905.458 259.533Z" fill="#4900E6"/>
<path d="M795.739 308.299V342.853C795.739 343.957 796.502 344.385 797.444 343.808C798.472 343.178 799.845 342.337 801.218 341.496C800.67 344.08 801.218 344.708 801.218 344.708L797.263 347.131C794.909 348.574 793 347.505 793 344.744V309.765C793 307.003 794.908 303.596 797.262 302.153L802.588 298.89C801.218 300.693 799.848 303.781 799.848 303.781L797.445 305.254C796.503 305.831 795.739 307.194 795.739 308.299Z" fill="white"/>
<path d="M833.542 319.687V285.133C833.542 284.029 832.785 283.598 831.843 284.175L806.697 299.584C806.971 297.81 808.34 295.364 808.34 295.364L832.018 280.854C834.373 279.412 836.282 280.481 836.282 283.242V318.221C836.282 320.982 834.378 324.387 832.024 325.83L812.723 337.658C814.915 334.709 815.333 332.845 815.333 332.845L831.837 322.732C832.779 322.154 833.542 320.791 833.542 319.687Z" fill="white"/>
<mask id="mask0_913_5165" style="mask-type:alpha" maskUnits="userSpaceOnUse" x="794" y="279" width="41" height="71">
<path d="M794.096 304.094L834.638 279.249V324.228L794.096 349.073V304.094Z" fill="white"/>
</mask>
<g mask="url(#mask0_913_5165)">
<mask id="mask1_913_5165" style="mask-type:alpha" maskUnits="userSpaceOnUse" x="800" y="296" width="31" height="50">
<path d="M808.635 312.483C809.54 311.428 810.567 310.659 811.376 310.181C812.693 309.404 814.035 308.999 815.198 308.953C816.362 308.908 817.352 309.222 817.943 309.925C818.444 310.521 818.822 311.661 818.164 313.399C820.151 312.815 821.221 313.738 821.69 314.741C822.229 315.89 822.256 317.572 821.852 319.442C821.447 321.311 820.616 323.343 819.427 325.199C818.559 326.552 817.217 328.215 815.575 329.357C815.707 330.029 815.687 330.787 815.582 331.512C815.298 333.476 814.35 335.868 812.963 338.262C811.576 340.655 809.809 342.947 807.93 344.713C807.675 344.954 807.404 345.196 807.123 345.432L818.465 332.054C820.393 330.608 822.463 335.222 826.201 326.465C832.501 311.5 830.751 307.537 827.24 305.08C824.601 303.234 815.855 305.93 810.577 307.556C808.832 308.094 807.466 308.515 806.826 308.616C804.766 308.942 801.394 306.894 805.761 296.867C797.242 309.133 801.632 311.792 803.681 312.717C804.309 313 805.764 312.825 807.519 312.614C807.88 312.57 808.253 312.526 808.635 312.483Z" fill="white"/>
</mask>
<g mask="url(#mask1_913_5165)">
<rect width="54.2587" height="47.3905" transform="matrix(0.85264 -0.522499 0 1 791.167 303.698)" fill="white"/>
</g>
</g>
<mask id="mask2_913_5165" style="mask-type:alpha" maskUnits="userSpaceOnUse" x="795" y="283" width="39" height="66">
<path d="M795.74 306.299L833.543 283.134V325.542L795.74 348.708V306.299Z" fill="white"/>
</mask>
<g mask="url(#mask2_913_5165)">
<path d="M815.771 315.038C815.176 316.208 813.428 317.242 811.866 317.348C810.304 317.453 809.519 316.591 810.114 315.421C810.708 314.251 812.456 313.217 814.018 313.111C815.58 313.005 816.365 313.868 815.771 315.038Z" fill="#4900E6"/>
<path d="M814.971 326.681C813.463 327.312 812.701 325.791 813.269 323.284C813.836 320.777 815.518 318.233 817.025 317.602C818.532 316.971 819.294 318.492 818.727 320.999C818.159 323.506 816.478 326.05 814.971 326.681Z" fill="#4900E6"/>
<path d="M805.602 335.69C803.538 339.136 803.1 342.036 804.622 342.167C806.144 342.299 809.051 339.612 811.115 336.167C813.178 332.721 813.617 329.821 812.095 329.689C810.573 329.558 807.666 332.244 805.602 335.69Z" fill="#4900E6"/>
</g>
<path d="M959.895 423.921L855.541 484.2V574.628L959.895 514.379V423.921Z" fill="#4900E6"/>
<path d="M959.895 423.922L855.541 484.2V574.628L959.895 514.379V423.922Z" fill="black" fill-opacity="0.07"/>
<path d="M751 423.679L855.542 484.205V575.035L751 514.678V423.679Z" fill="#4900E6"/>
<path d="M751 423.679L855.542 484.205V575.035L751 514.678V423.679Z" fill="black" fill-opacity="0.33"/>
<path d="M855.353 363.962L751 424.211L855.541 484.206L959.895 423.958L855.353 363.962Z" fill="#4900E6"/>
<path d="M238.895 449.921L134.541 510.2V600.628L238.895 540.379V449.921Z" fill="#FFBB01"/>
<path d="M238.895 449.922L134.541 510.2V600.628L238.895 540.379V449.922Z" fill="black" fill-opacity="0.07"/>
<path d="M30 449.679L134.542 510.205V601.035L30 540.678V449.679Z" fill="#FFBB01"/>
<path d="M30 449.679L134.542 510.205V601.035L30 540.678V449.679Z" fill="black" fill-opacity="0.33"/>
<path d="M134.353 389.962L29.9998 450.211L134.541 510.206L238.895 449.958L134.353 389.962Z" fill="#FFBB01"/>
<g opacity="0.1">
<path d="M547.97 179.87L666.042 248.927C666.995 249.485 668.539 249.484 669.492 248.925C672.803 246.98 680.403 242.518 688.002 238.055C693.068 243.389 698.127 243.977 698.127 243.977L672.09 259.27C669.709 260.668 665.846 260.672 663.463 259.277L530.316 181.403C527.932 180.009 527.921 177.75 530.302 176.352L561.407 158.083C559.387 162.83 561.417 169.947 561.417 169.947L547.968 177.847C547.015 178.406 547.016 179.312 547.97 179.87Z" fill="black"/>
<path d="M805.645 166.932L687.573 97.8746C686.619 97.3169 685.129 97.2863 684.176 97.8458L586.708 155.093C582.656 151.537 582.651 145.605 582.651 145.605L681.524 87.5323C683.905 86.1338 687.768 86.1303 690.151 87.5244L823.298 165.399C825.682 166.793 825.724 169.034 823.343 170.432C807.173 179.93 750.148 213.425 740.617 219.023C743.647 211.308 740.128 207.438 740.128 207.438L805.647 168.955C806.599 168.395 806.598 167.49 805.645 166.932Z" fill="black"/>
<mask id="mask3_913_5165" style="mask-type:alpha" maskUnits="userSpaceOnUse" x="530" y="88" width="292" height="172">
<path d="M530.051 176.501L679.77 88.5643L821.549 171.488L671.83 259.424L530.051 176.501Z" fill="white"/>
</mask>
<g mask="url(#mask3_913_5165)">
<mask id="mask4_913_5165" style="mask-type:alpha" maskUnits="userSpaceOnUse" x="571" y="143" width="212" height="97">
<path d="M638.264 176.856C640.031 173.972 643.384 171.486 646.429 169.764C651.384 166.963 657.659 164.821 664.058 163.528C670.456 162.236 677.015 161.786 682.555 162.468C687.253 163.046 692.972 164.754 694.748 168.642C704.084 165.5 713.012 166.091 718.814 167.451C725.468 169.01 730.921 172.082 734.538 175.95C738.156 179.818 739.887 184.428 739.046 189.084C738.433 192.48 736.126 196.942 730.49 200.754C733.35 201.856 735.625 203.273 737.322 204.72C741.915 208.634 744.124 214.03 743.866 219.885C743.608 225.739 740.893 231.8 735.898 237.009C735.218 237.718 734.458 238.445 733.621 239.174L755.246 202.722C761.531 198.052 787.721 204.407 781.142 184.379C769.4 150.241 747.067 144.754 719.575 143.873C698.915 143.212 658.217 157.272 633.661 165.755C625.541 168.56 619.186 170.756 615.905 171.607C605.342 174.349 579.923 174.078 572.879 151.053C563.626 182.52 596.701 182.861 611.142 182.435C615.567 182.305 623.198 180.47 632.403 178.257C634.295 177.802 636.253 177.332 638.264 176.856Z" fill="white"/>
</mask>
<g mask="url(#mask4_913_5165)">
<rect width="198.136" height="173.055" transform="matrix(0.86227 -0.506449 0.863198 0.504866 512.332 178.812)" fill="black"/>
</g>
</g>
<mask id="mask5_913_5165" style="mask-type:alpha" maskUnits="userSpaceOnUse" x="546" y="96" width="274" height="162">
<path d="M546.247 178.863L685.85 96.8676L819.527 175.052L679.924 257.047L546.247 178.863Z" fill="white"/>
</mask>
<g mask="url(#mask5_913_5165)">
<path d="M686.451 174.158C686.797 176.933 680.224 180.656 671.771 182.475C663.318 184.293 656.185 183.518 655.84 180.744C655.495 177.969 662.068 174.246 670.521 172.427C678.974 170.608 686.106 171.383 686.451 174.158Z" fill="black"/>
<path d="M718.651 196.455C712.163 199.185 703.083 197.173 698.371 191.961C693.659 186.749 695.1 180.311 701.588 177.582C708.076 174.852 717.156 176.864 721.868 182.076C726.579 187.288 725.139 193.725 718.651 196.455Z" fill="black"/>
<path d="M694.357 222.801C693.61 231.298 700.283 237.101 709.259 235.761C718.236 234.422 726.118 226.448 726.864 217.951C727.611 209.454 720.938 203.651 711.962 204.99C702.985 206.33 695.103 214.304 694.357 222.801Z" fill="black"/>
<path d="M686.451 174.158C686.797 176.933 680.224 180.656 671.771 182.475C663.318 184.293 656.185 183.518 655.84 180.744C655.495 177.969 662.068 174.246 670.521 172.427C678.974 170.608 686.106 171.383 686.451 174.158Z" fill="black"/>
<path d="M718.651 196.455C712.163 199.185 703.083 197.173 698.371 191.961C693.659 186.749 695.1 180.311 701.588 177.582C708.076 174.852 717.156 176.864 721.868 182.076C726.579 187.288 725.139 193.725 718.651 196.455Z" fill="black"/>
<path d="M694.357 222.801C693.61 231.298 700.283 237.101 709.259 235.761C718.236 234.422 726.118 226.448 726.864 217.951C727.611 209.454 720.938 203.651 711.962 204.99C702.985 206.33 695.103 214.304 694.357 222.801Z" fill="black"/>
</g>
</g>
<g opacity="0.2" filter="url(#filter8_f_913_5165)">
<path d="M708 312.5L673 291.5L722.5 264L759.5 282.5L708 312.5Z" fill="url(#paint8_linear_913_5165)"/>
</g>
<path d="M726.163 223.06L677.625 251.097V293.158L726.163 265.134V223.06Z" fill="#4900E6"/>
<path d="M726.163 223.06L677.625 251.097V293.158L726.163 265.134V223.06Z" fill="black" fill-opacity="0.07"/>
<path d="M629 222.947L677.625 251.1V293.347L629 265.274V222.947Z" fill="#4900E6"/>
<path d="M629 222.947L677.625 251.1V293.347L629 265.274V222.947Z" fill="black" fill-opacity="0.33"/>
<path d="M677.538 195.171L629 223.194L677.625 251.1L726.163 223.077L677.538 195.171Z" fill="#4900E6"/>
<g opacity="0.2" filter="url(#filter9_f_913_5165)">
<path d="M700 164L618 121.5L655 101L734.5 140L700 164Z" fill="url(#paint9_linear_913_5165)"/>
</g>
<path d="M658 70.0388L622.032 90.8151V121.983L658 101.217V70.0388Z" fill="#4900E6"/>
<path d="M658 70.0388L622.032 90.8151V121.983L658 101.217V70.0388Z" fill="black" fill-opacity="0.07"/>
<path d="M586 69.9553L622.032 90.8168V122.123L586 101.32V69.9553Z" fill="#4900E6"/>
<path d="M586 69.9553L622.032 90.8168V122.123L586 101.32V69.9553Z" fill="black" fill-opacity="0.33"/>
<path d="M621.968 49.3727L586 70.1385L622.032 90.8172L658 70.0513L621.968 49.3727Z" fill="#4900E6"/>
<g opacity="0.2" filter="url(#filter10_f_913_5165)">
<path d="M901 202.5L866 181.5L891.5 165.5L924 183L901 202.5Z" fill="url(#paint10_linear_913_5165)"/>
</g>
<path d="M899.093 144.233L872.57 159.553V182.536L899.093 167.223V144.233Z" fill="#4900E6"/>
<path d="M899.093 144.233L872.57 159.553V182.536L899.093 167.223V144.233Z" fill="black" fill-opacity="0.07"/>
<path d="M846 144.171L872.57 159.554V182.64L846 167.299V144.171Z" fill="#4900E6"/>
<path d="M846 144.171L872.57 159.554V182.64L846 167.299V144.171Z" fill="black" fill-opacity="0.33"/>
<path d="M872.523 128.993L846 144.306L872.57 159.555L899.093 144.242L872.523 128.993Z" fill="#4900E6"/>
<path d="M566.163 438.652L506.635 473.038V524.622L566.163 490.254V438.652Z" fill="#FFBB01"/>
<path d="M566.163 438.652L506.635 473.038V524.622L566.163 490.254V438.652Z" fill="black" fill-opacity="0.07"/>
<path d="M447 438.514L506.635 473.041V524.855L447 490.424V438.514Z" fill="#FFBB01"/>
<path d="M447 438.514L506.635 473.041V524.855L447 490.424V438.514Z" fill="black" fill-opacity="0.33"/>
<path d="M506.528 404.449L447 438.817L506.635 473.042L566.163 438.673L506.528 404.449Z" fill="#FFBB01"/>
<path d="M384.163 535.266L355.179 552.008V577.124L384.163 560.39V535.266Z" fill="#FFBB01"/>
<path d="M384.163 535.266L355.179 552.008V577.124L384.163 560.39V535.266Z" fill="black" fill-opacity="0.07"/>
<path d="M326.144 535.199L355.18 552.009V577.237L326.144 560.473V535.199Z" fill="#FFBB01"/>
<path d="M326.144 535.199L355.18 552.009V577.237L326.144 560.473V535.199Z" fill="black" fill-opacity="0.33"/>
<path d="M355.127 518.613L326.143 535.346L355.179 552.01L384.163 535.276L355.127 518.613Z" fill="#FFBB01"/>
<path d="M304.02 177.915L275.036 194.657V219.773L304.02 203.039V177.915Z" fill="#FFBB01"/>
<path d="M304.02 177.915L275.036 194.657V219.773L304.02 203.039V177.915Z" fill="black" fill-opacity="0.07"/>
<path d="M246 177.847L275.036 194.658V219.886L246 203.122V177.847Z" fill="#FFBB01"/>
<path d="M246 177.847L275.036 194.658V219.886L246 203.122V177.847Z" fill="black" fill-opacity="0.33"/>
<path d="M274.984 161.261L246 177.995L275.036 194.658L304.02 177.925L274.984 161.261Z" fill="#FFBB01"/>
<path d="M268.02 198.915L239.036 215.657V240.773L268.02 224.039V198.915Z" fill="#FFBB01"/>
<path d="M268.02 198.915L239.036 215.657V240.773L268.02 224.039V198.915Z" fill="black" fill-opacity="0.07"/>
<path d="M210 198.847L239.036 215.658V240.886L210 224.122V198.847Z" fill="#FFBB01"/>
<path d="M210 198.847L239.036 215.658V240.886L210 224.122V198.847Z" fill="black" fill-opacity="0.33"/>
<path d="M238.984 182.261L210 198.995L239.036 215.658L268.02 198.925L238.984 182.261Z" fill="#FFBB01"/>
<path d="M232.02 219.915L203.036 236.657V261.773L232.02 245.039V219.915Z" fill="#FFBB01"/>
<path d="M232.02 219.915L203.036 236.657V261.773L232.02 245.039V219.915Z" fill="black" fill-opacity="0.07"/>
<path d="M174 219.847L203.036 236.658V261.886L174 245.122V219.847Z" fill="#FFBB01"/>
<path d="M174 219.847L203.036 236.658V261.886L174 245.122V219.847Z" fill="black" fill-opacity="0.33"/>
<path d="M202.984 203.261L174 219.995L203.036 236.658L232.02 219.925L202.984 203.261Z" fill="#FFBB01"/>
<g opacity="0.2" filter="url(#filter11_f_913_5165)">
<path d="M265.5 341.5L162 283.5L301 202.501L394 247.501L265.5 341.5Z" fill="url(#paint11_linear_913_5165)"/>
</g>
<path d="M195.02 240.915L166.036 257.657V282.773L195.02 266.039V240.915Z" fill="#FFBB01"/>
<path d="M195.02 240.915L166.036 257.657V282.773L195.02 266.039V240.915Z" fill="black" fill-opacity="0.07"/>
<path d="M137 240.847L166.036 257.658V282.886L137 266.122V240.847Z" fill="#FFBB01"/>
<path d="M137 240.847L166.036 257.658V282.886L137 266.122V240.847Z" fill="black" fill-opacity="0.33"/>
<path d="M165.984 224.261L137 240.995L166.036 257.658L195.02 240.925L165.984 224.261Z" fill="#FFBB01"/>
<path d="M638.162 489.735L590.308 517.377V558.845L638.162 531.217V489.735Z" fill="#4900E6"/>
<path d="M638.162 489.735L590.308 517.377V558.845L638.162 531.217V489.735Z" fill="black" fill-opacity="0.07"/>
<path d="M542.368 489.625L590.308 517.38V559.032L542.368 531.354V489.625Z" fill="#4900E6"/>
<path d="M542.368 489.625L590.308 517.38V559.032L542.368 531.354V489.625Z" fill="black" fill-opacity="0.33"/>
<path d="M590.222 462.239L542.368 489.868L590.308 517.38L638.162 489.752L590.222 462.239Z" fill="#4900E6"/>
<path d="M726.163 532.06L677.625 560.097V602.158L726.163 574.134V532.06Z" fill="#FFBB01"/>
<path d="M726.163 532.06L677.625 560.097V602.158L726.163 574.134V532.06Z" fill="black" fill-opacity="0.07"/>
<path d="M629 531.947L677.625 560.1V602.347L629 574.274V531.947Z" fill="#FFBB01"/>
<path d="M629 531.947L677.625 560.1V602.347L629 574.274V531.947Z" fill="black" fill-opacity="0.33"/>
<path d="M677.538 504.171L629 532.194L677.625 560.1L726.163 532.077L677.538 504.171Z" fill="#FFBB01"/>
<path d="M393.966 441.203V438.717L396.118 437.399V420.229L394.03 421.509V419.061L399.266 415.853V429.887L404.308 422.208L402.188 423.507V421.021L409.094 416.79V419.275L407.392 420.318L402.478 427.957L407.071 430.687L409.191 429.388V431.873L405.24 434.294L399.266 430.537V435.47L401.161 434.308V436.794L393.966 441.203Z" fill="white"/>
<path d="M407.745 432.759V430.274L409.929 428.935V418.764L407.745 420.102V417.617L413.077 414.349V418.9L412.595 419.195C412.873 417.801 413.205 416.641 413.591 415.717C413.998 414.779 414.447 414.019 414.94 413.437C415.432 412.829 415.925 412.374 416.417 412.073C416.867 411.797 417.295 411.598 417.702 411.477C418.13 411.342 418.548 411.264 418.955 411.244L418.248 414.966C417.884 414.909 417.499 414.941 417.092 415.063C416.706 415.146 416.299 415.319 415.871 415.581C415.165 416.014 414.522 416.739 413.944 417.756C413.387 418.76 413.109 419.912 413.109 421.212L413.077 427.006L415.197 425.707V428.193L407.745 432.759Z" fill="white"/>
<path d="M421.042 425.031C419.736 425.832 418.687 426.054 417.895 425.698C417.124 425.304 416.738 424.469 416.738 423.195C416.738 422.022 416.974 420.947 417.445 419.97C417.916 418.993 418.537 418.116 419.308 417.337C420.079 416.559 420.914 415.894 421.813 415.343C422.563 414.884 423.291 414.514 423.997 414.234C424.704 413.954 425.368 413.738 425.989 413.587L425.09 414.291V412.571C425.09 411.449 424.843 410.771 424.351 410.538C423.858 410.304 423.173 410.456 422.295 410.994C421.696 411.362 421.01 411.897 420.239 412.598C419.49 413.287 418.741 414.078 417.991 414.97L417.156 413.188C418.012 412.077 418.933 411.079 419.918 410.195C420.925 409.298 421.856 408.587 422.713 408.062C423.89 407.34 424.886 406.959 425.7 406.92C426.535 406.867 427.167 407.142 427.595 407.747C428.023 408.326 428.237 409.189 428.237 410.336V417.716L430.068 416.594V419.08L425.539 421.855L425.186 419.853L426.25 421.075C425.479 422.44 424.586 421.776 423.773 422.708C422.98 423.627 422.07 424.401 421.042 425.031ZM421.845 422.245C422.531 421.825 423.205 421.233 423.869 420.469C424.554 419.692 425.25 418.705 425.957 417.507L425.09 419.454V415.247L425.796 415.541C425.325 415.626 424.79 415.788 424.19 416.028C423.591 416.268 422.97 416.585 422.327 416.978C421.642 417.398 421.021 417.957 420.464 418.655C419.929 419.34 419.661 420.18 419.661 421.174C419.661 421.862 419.854 422.318 420.239 422.54C420.625 422.763 421.16 422.665 421.845 422.245Z" fill="white"/>
<path d="M428.302 420.162V417.677L430.454 416.358V399.188L428.366 400.468V398.021L433.601 394.812V408.846L438.644 401.167L436.524 402.466V399.981L443.43 395.749V398.234L441.728 399.277L436.813 406.916L441.406 409.646L447.413 405.965V408.451L439.575 413.253L433.601 409.496V414.429L435.496 413.268V415.753L428.302 420.162Z" fill="white"/>
<path d="M449.436 407.631C448.044 408.484 446.802 408.927 445.71 408.959C444.618 408.965 443.762 408.559 443.141 407.742C442.52 406.924 442.209 405.7 442.209 404.068C442.209 402.462 442.509 400.876 443.109 399.311C443.708 397.745 444.511 396.335 445.518 395.081C446.545 393.788 447.702 392.749 448.987 391.961C450.293 391.161 451.417 390.803 452.359 390.889C453.301 390.949 454.019 391.414 454.511 392.285C455.025 393.143 455.282 394.349 455.282 395.904V396.784L444.49 403.397L444.522 401.351L452.231 396.627C452.231 395.786 452.091 395.144 451.813 394.703C451.535 394.262 451.149 394.039 450.657 394.035C450.164 394.005 449.597 394.187 448.954 394.581C448.248 395.014 447.616 395.605 447.059 396.354C446.524 397.09 446.096 397.926 445.775 398.862C445.475 399.785 445.325 400.782 445.325 401.853C445.325 402.975 445.496 403.838 445.839 404.444C446.203 405.037 446.706 405.353 447.348 405.393C447.991 405.432 448.73 405.196 449.565 404.685C450.464 404.134 451.299 403.418 452.07 402.538C452.841 401.657 453.515 400.734 454.094 399.768L455.089 401.452C454.468 402.597 453.676 403.733 452.712 404.859C451.77 405.946 450.678 406.87 449.436 407.631Z" fill="white"/>
<path d="M449.661 407.073V404.587L457.241 399.942V389.771L455.057 391.109V388.623L460.293 385.415L460.325 387.422L459.329 388.262C460.228 386.946 461.128 385.77 462.027 384.735C462.927 383.674 463.858 382.848 464.822 382.257C466.064 381.496 467.081 381.332 467.873 381.764C468.665 382.196 469.061 383.216 469.061 384.822V392.699L471.181 391.4V393.885L464.051 398.255V395.769L465.882 394.647V387.42C465.882 386.477 465.689 385.856 465.303 385.557C464.918 385.258 464.383 385.318 463.697 385.738C463.034 386.145 462.348 386.743 461.642 387.533C460.957 388.31 460.228 389.253 459.458 390.363L460.421 388.166V397.994L462.381 396.793V399.278L449.661 407.073Z" fill="white"/>
<path d="M405.014 410.882C403.367 411.891 401.847 412.548 400.455 412.852C399.063 413.129 397.846 413.066 396.802 412.663C395.781 412.218 394.981 411.419 394.401 410.265C393.844 409.097 393.565 407.552 393.565 405.632C393.565 403.107 394.029 400.641 394.957 398.234C395.908 395.785 397.184 393.577 398.785 391.608C400.409 389.598 402.265 387.953 404.353 386.673C405.814 385.778 407.09 385.256 408.18 385.11C409.294 384.949 410.199 385.108 410.895 385.587C411.614 386.051 412.101 386.823 412.356 387.902L410.964 387.561V383.033L414.861 380.645V389.124L411.521 391.171C410.918 390.196 410.152 389.65 409.224 389.533C408.32 389.374 407.183 389.713 405.814 390.552C404.538 391.334 403.436 392.325 402.508 393.525C401.604 394.71 400.896 396.022 400.386 397.46C399.899 398.856 399.655 400.308 399.655 401.818C399.655 402.97 399.794 403.928 400.073 404.69C400.351 405.425 400.734 405.986 401.221 406.373C401.731 406.719 402.334 406.857 403.03 406.788C403.726 406.718 404.503 406.42 405.362 405.894C406.313 405.311 407.148 404.594 407.867 403.741C408.586 402.889 409.189 401.916 409.677 400.821C410.164 399.7 410.523 398.478 410.755 397.156L415.383 396.213C415.059 398.086 414.432 399.938 413.504 401.769C412.6 403.558 411.428 405.236 409.99 406.803C408.575 408.357 406.916 409.716 405.014 410.882Z" fill="#FFBB01"/>
<path d="M418.341 402.756C416.787 403.708 415.43 404.183 414.27 404.181C413.11 404.151 412.205 403.676 411.556 402.757C410.906 401.838 410.581 400.514 410.581 398.785C410.581 397.056 410.906 395.348 411.556 393.661C412.205 391.973 413.11 390.417 414.27 388.993C415.43 387.541 416.787 386.339 418.341 385.386C419.895 384.434 421.253 383.973 422.412 384.003C423.572 384.005 424.477 384.453 425.127 385.344C425.776 386.236 426.101 387.546 426.101 389.275C426.101 391.003 425.776 392.725 425.127 394.441C424.477 396.156 423.572 397.739 422.412 399.191C421.253 400.615 419.895 401.803 418.341 402.756ZM418.341 398.146C418.944 397.776 419.466 397.292 419.907 396.692C420.371 396.079 420.719 395.399 420.951 394.653C421.183 393.88 421.299 393.068 421.299 392.217C421.299 391.367 421.183 390.711 420.951 390.249C420.719 389.788 420.371 389.534 419.907 389.489C419.466 389.43 418.944 389.585 418.341 389.955C417.715 390.339 417.181 390.831 416.74 391.43C416.323 392.015 415.987 392.688 415.731 393.448C415.499 394.194 415.383 394.992 415.383 395.842C415.383 396.693 415.499 397.363 415.731 397.852C415.987 398.299 416.323 398.56 416.74 398.633C417.181 398.692 417.715 398.53 418.341 398.146Z" fill="#FFBB01"/>
<path d="M425.231 398.081V394.459L427.041 393.35V384.089L425.196 385.219V381.638L427.041 380.508V378.985C427.041 376.9 427.551 374.941 428.572 373.108C429.592 371.275 431.042 369.783 432.921 368.631C434.731 367.522 436.099 367.164 437.027 367.556C437.979 367.906 438.535 368.84 438.698 370.36L435.114 373.256C435.09 372.529 434.963 372.031 434.731 371.762C434.522 371.451 434.174 371.444 433.687 371.743C433.2 372.042 432.828 372.502 432.573 373.125C432.318 373.721 432.191 374.526 432.191 375.541V377.352L436.958 374.431V372.332C436.958 371.042 437.19 369.747 437.654 368.448C438.118 367.148 438.814 365.912 439.742 364.74C440.693 363.553 441.899 362.512 443.361 361.617C444.567 360.877 445.564 360.472 446.353 360.4C447.165 360.287 447.803 360.472 448.267 360.956C448.731 361.413 449.021 362.168 449.137 363.222L445.205 366.455C445.182 365.728 445.054 365.23 444.822 364.961C444.59 364.691 444.219 364.713 443.708 365.025C443.198 365.338 442.804 365.799 442.525 366.409C442.27 367.004 442.143 367.878 442.143 369.031V371.254L444.544 369.782V373.363L442.143 374.834V384.096L444.509 382.645V386.268L435.044 392.068V388.446L436.958 387.273V378.012L432.191 380.933V390.194L435.288 388.296V391.918L425.231 398.081Z" fill="#FFBB01"/>
<path d="M451.538 382.413C449.937 383.394 448.534 383.911 447.327 383.964C446.144 384.003 445.216 383.584 444.544 382.706C443.871 381.802 443.535 380.444 443.535 378.633C443.535 376.904 443.859 375.196 444.509 373.508C445.158 371.82 446.052 370.258 447.188 368.82C448.348 367.368 449.67 366.188 451.155 365.278C452.617 364.382 453.858 363.992 454.878 364.108C455.922 364.181 456.711 364.7 457.245 365.662C457.801 366.583 458.08 367.881 458.08 369.555V370.666L446.388 377.831L446.423 375.216L453.313 370.994C453.313 370.336 453.22 369.844 453.034 369.518C452.872 369.151 452.617 368.951 452.269 368.917C451.921 368.884 451.492 369.023 450.981 369.336C450.401 369.691 449.914 370.168 449.52 370.767C449.125 371.338 448.824 372.016 448.615 372.803C448.429 373.548 448.337 374.359 448.337 375.237C448.337 376.252 448.499 377.004 448.824 377.491C449.172 377.936 449.636 378.159 450.216 378.161C450.796 378.134 451.468 377.887 452.234 377.418C453.069 376.906 453.858 376.258 454.6 375.474C455.342 374.69 455.992 373.866 456.549 373.004L457.975 375.751C457.187 377.058 456.247 378.292 455.157 379.454C454.067 380.616 452.86 381.603 451.538 382.413Z" fill="#FFBB01"/>
<path d="M464.239 374.63C462.638 375.611 461.235 376.128 460.028 376.181C458.845 376.22 457.917 375.801 457.245 374.923C456.572 374.018 456.236 372.66 456.236 370.849C456.236 369.121 456.56 367.412 457.21 365.725C457.859 364.037 458.753 362.474 459.889 361.037C461.049 359.585 462.372 358.404 463.856 357.495C465.318 356.599 466.559 356.209 467.58 356.324C468.623 356.398 469.412 356.916 469.946 357.879C470.503 358.8 470.781 360.098 470.781 361.771V362.883L459.089 370.048L459.124 367.433L466.014 363.211C466.014 362.552 465.921 362.06 465.735 361.735C465.573 361.368 465.318 361.168 464.97 361.134C464.622 361.1 464.193 361.24 463.682 361.553C463.102 361.908 462.615 362.385 462.221 362.983C461.826 363.554 461.525 364.233 461.316 365.02C461.13 365.764 461.038 366.576 461.038 367.454C461.038 368.469 461.2 369.22 461.525 369.707C461.873 370.153 462.337 370.376 462.917 370.377C463.497 370.351 464.169 370.104 464.935 369.634C465.77 369.123 466.559 368.475 467.301 367.69C468.044 366.906 468.693 366.083 469.25 365.22L470.677 367.968C469.888 369.275 468.948 370.509 467.858 371.671C466.768 372.833 465.561 373.819 464.239 374.63Z" fill="#FFBB01"/>
<path d="M343.026 428.295V466.887C343.026 467.991 343.789 468.419 344.731 467.842C345.883 467.136 347.481 466.157 349.079 465.178C348.474 468.034 349.079 468.727 349.079 468.727L344.263 471.678C341.909 473.121 340 472.052 340 469.29V429.6C340 426.839 341.908 423.431 344.262 421.988L350.592 418.109C349.079 420.101 347.566 423.513 347.566 423.513L344.732 425.25C343.79 425.827 343.026 427.19 343.026 428.295Z" fill="white"/>
<path d="M384.789 441.294V402.703C384.789 401.598 384.031 401.167 383.09 401.744L355.131 418.877C355.434 416.917 356.947 414.215 356.947 414.215L383.552 397.911C385.907 396.469 387.815 397.537 387.815 400.299V439.989C387.815 442.751 385.912 446.155 383.558 447.598L361.789 460.939C364.21 457.68 364.673 455.622 364.673 455.622L383.084 444.339C384.026 443.762 384.789 442.399 384.789 441.294Z" fill="white"/>
<mask id="mask6_913_5165" style="mask-type:alpha" maskUnits="userSpaceOnUse" x="341" y="396" width="45" height="78">
<path d="M341.211 423.859L386 396.412V446.102L341.211 473.549V423.859Z" fill="white"/>
</mask>
<g mask="url(#mask6_913_5165)">
<mask id="mask7_913_5165" style="mask-type:alpha" maskUnits="userSpaceOnUse" x="348" y="415" width="34" height="55">
<path d="M357.272 433.126C358.272 431.961 359.407 431.112 360.301 430.584C361.755 429.725 363.239 429.277 364.523 429.227C365.808 429.177 366.902 429.524 367.555 430.301C368.109 430.959 368.526 432.219 367.799 434.138C369.995 433.493 371.176 434.513 371.695 435.621C372.291 436.891 372.321 438.748 371.874 440.814C371.426 442.88 370.508 445.125 369.195 447.174C368.236 448.669 366.753 450.507 364.939 451.768C365.085 452.511 365.063 453.348 364.947 454.149C364.634 456.318 363.586 458.961 362.054 461.605C360.521 464.25 358.569 466.781 356.494 468.733C356.212 468.999 355.913 469.266 355.602 469.527L368.132 454.748C370.262 453.15 372.549 458.247 376.679 448.573C383.638 432.04 381.705 427.662 377.826 424.948C374.911 422.909 365.248 425.887 359.418 427.684C357.49 428.278 355.981 428.743 355.274 428.855C352.998 429.214 349.273 426.952 354.098 415.875C344.686 429.425 349.536 432.364 351.8 433.385C352.494 433.698 354.101 433.504 356.04 433.271C356.438 433.223 356.851 433.174 357.272 433.126Z" fill="white"/>
</mask>
<g mask="url(#mask7_913_5165)">
<rect width="59.9423" height="52.3547" transform="matrix(0.85264 -0.522499 0 1 337.976 423.421)" fill="white"/>
</g>
</g>
<mask id="mask8_913_5165" style="mask-type:alpha" maskUnits="userSpaceOnUse" x="343" y="400" width="42" height="74">
<path d="M343.027 426.295L384.79 400.703V447.554L343.027 473.146V426.295Z" fill="white"/>
</mask>
<g mask="url(#mask8_913_5165)">
<path d="M365.156 435.949C364.499 437.242 362.568 438.384 360.842 438.501C359.116 438.618 358.249 437.665 358.906 436.372C359.562 435.08 361.494 433.937 363.22 433.82C364.945 433.703 365.812 434.657 365.156 435.949Z" fill="#FFBB01"/>
<path d="M364.272 448.812C362.607 449.509 361.765 447.829 362.392 445.059C363.018 442.289 364.876 439.479 366.541 438.782C368.206 438.085 369.048 439.765 368.421 442.535C367.795 445.304 365.937 448.115 364.272 448.812Z" fill="#FFBB01"/>
<path d="M353.922 458.765C351.642 462.571 351.157 465.775 352.839 465.921C354.521 466.066 357.732 463.098 360.012 459.291C362.292 455.485 362.777 452.281 361.095 452.136C359.413 451.99 356.202 454.958 353.922 458.765Z" fill="#FFBB01"/>
</g>
<path d="M60.9357 500.093V528.923C60.9357 530.027 61.7101 531.37 62.6666 531.922L65.6741 533.659C65.2003 535.3 65.6741 536.394 65.6741 536.394L62.8965 534.791C60.5051 533.41 58.5664 530.052 58.5664 527.291V498.99C58.5664 496.228 60.5048 495.109 62.8963 496.49L66.8588 498.777C65.6741 498.914 64.4895 500.145 64.4895 500.145L62.6677 499.093C61.7111 498.541 60.9357 498.989 60.9357 500.093Z" fill="white"/>
<path d="M93.6312 547.799V518.97C93.6312 517.866 92.8658 516.528 91.9092 515.976L70.4126 503.565C70.6496 502.334 71.8342 501.65 71.8342 501.65L91.6704 513.102C94.0618 514.483 96.0005 517.841 96.0005 520.602V548.903C96.0005 551.665 94.0648 552.786 91.6734 551.405L75.625 542.14C77.5204 541.866 77.8825 540.707 77.8825 540.707L91.8992 548.8C92.8558 549.352 93.6312 548.904 93.6312 547.799Z" fill="white"/>
<mask id="mask9_913_5165" style="mask-type:alpha" maskUnits="userSpaceOnUse" x="59" y="494" width="36" height="60">
<path d="M59.5146 494.538L94.5795 514.782V553.083L59.5146 532.838V494.538Z" fill="white"/>
</mask>
<g mask="url(#mask9_913_5165)">
<mask id="mask10_913_5165" style="mask-type:alpha" maskUnits="userSpaceOnUse" x="65" y="500" width="26" height="48">
<path d="M72.0888 516.527C72.8716 516.553 73.7601 516.947 74.4599 517.367C75.5986 518.049 76.7599 519.075 77.7658 520.224C78.7718 521.373 79.6281 522.652 80.1392 523.854C80.5727 524.873 80.8997 526.23 80.3304 527.037C82.0492 528.57 82.9744 530.448 83.3807 531.782C83.8467 533.311 83.8702 534.77 83.5201 535.949C83.1701 537.128 82.4513 538.01 81.4228 538.375C80.6726 538.642 79.5117 538.687 78.0914 537.983C78.2053 538.69 78.188 539.314 78.0973 539.825C77.8521 541.207 77.032 542.277 75.8322 542.898C74.6324 543.519 73.1042 543.667 71.4798 543.253C71.2586 543.197 71.0247 543.126 70.7811 543.04L80.591 543.231C82.2585 543.968 84.0493 550.011 87.2819 546.372C92.7304 540.061 91.217 534.899 88.1803 529.222C85.8983 524.956 78.3333 518.319 73.7689 514.315C72.2596 512.991 71.0783 511.955 70.5247 511.388C68.7427 509.561 65.8264 504.374 69.6035 500.295C62.2352 502.04 66.0322 508.788 67.8048 511.668C68.348 512.55 69.6063 513.887 71.124 515.499C71.436 515.831 71.7589 516.174 72.0888 516.527Z" fill="white"/>
</mask>
<g mask="url(#mask10_913_5165)">
<rect width="46.2029" height="40.3544" transform="matrix(0.866025 0.5 0 1 56.9824 491.21)" fill="white"/>
</g>
</g>
<mask id="mask11_913_5165" style="mask-type:alpha" maskUnits="userSpaceOnUse" x="60" y="498" width="34" height="56">
<path d="M60.9355 498.094L93.6311 516.971V553.083L60.9355 534.206V498.094Z" fill="white"/>
</mask>
<g mask="url(#mask11_913_5165)">
<path d="M78.2592 525.989C77.7452 526.379 76.2332 525.474 74.882 523.969C73.5309 522.464 72.8523 520.928 73.3663 520.538C73.8803 520.149 75.3923 521.054 76.7434 522.559C78.0946 524.064 78.7732 525.6 78.2592 525.989Z" fill="#FFBB01"/>
<path d="M77.5671 535.086C76.2635 534.085 75.6045 532.011 76.0952 530.456C76.5858 528.9 78.0404 528.451 79.3439 529.453C80.6475 530.455 81.3065 532.528 80.8158 534.084C80.3252 535.639 78.8706 536.088 77.5671 535.086Z" fill="#FFBB01"/>
<path d="M69.4644 533.191C67.6795 534.018 67.2999 536.039 68.6164 537.706C69.933 539.372 72.4472 540.053 74.2321 539.227C76.017 538.4 76.3966 536.379 75.0801 534.712C73.7635 533.046 71.2492 532.365 69.4644 533.191Z" fill="#FFBB01"/>
<path d="M78.2592 525.99C77.7452 526.379 76.2332 525.474 74.882 523.969C73.5309 522.464 72.8523 520.928 73.3663 520.539C73.8803 520.15 75.3923 521.054 76.7434 522.559C78.0946 524.064 78.7732 525.6 78.2592 525.99Z" fill="white" fill-opacity="0.28"/>
<path d="M77.5671 535.087C76.2635 534.085 75.6045 532.012 76.0952 530.456C76.5858 528.901 78.0404 528.452 79.3439 529.454C80.6475 530.456 81.3065 532.529 80.8158 534.084C80.3252 535.64 78.8706 536.089 77.5671 535.087Z" fill="white" fill-opacity="0.28"/>
<path d="M69.4644 533.192C67.6795 534.019 67.2999 536.04 68.6164 537.706C69.933 539.373 72.4472 540.054 74.2321 539.227C76.017 538.4 76.3966 536.379 75.0801 534.713C73.7635 533.046 71.2492 532.365 69.4644 533.192Z" fill="white" fill-opacity="0.28"/>
</g>
<g opacity="0.1">
<path d="M215.583 283.894L301.319 334.039C302.272 334.597 303.813 334.598 304.766 334.038C307.39 332.497 312.643 329.413 317.895 326.328C321.613 330.243 325.326 330.674 325.326 330.674L307.364 341.224C304.983 342.623 301.12 342.626 298.737 341.232L203.316 285.423C200.932 284.028 200.928 281.766 203.309 280.367L224.985 267.636C223.503 271.12 224.993 276.344 224.993 276.344L215.581 281.872C214.629 282.431 214.63 283.337 215.583 283.894Z" fill="black"/>
<path d="M403.774 273.862L318.039 223.717C317.086 223.16 315.551 223.155 314.598 223.715L243.554 265.442C240.58 262.832 240.576 258.479 240.576 258.479L311.993 216.532C314.374 215.134 318.237 215.13 320.621 216.524L416.042 272.334C418.425 273.728 418.454 275.976 416.073 277.375C402.872 285.129 363.294 308.376 356.509 312.361C358.733 306.699 356.151 303.858 356.151 303.858L403.776 275.885C404.729 275.325 404.728 274.42 403.774 273.862Z" fill="black"/>
<mask id="mask12_913_5165" style="mask-type:alpha" maskUnits="userSpaceOnUse" x="201" y="216" width="215" height="127">
<path d="M201.973 281.153L311.853 216.616L415.906 277.474L306.025 342.011L201.973 281.153Z" fill="white"/>
</mask>
<g mask="url(#mask12_913_5165)">
<mask id="mask13_913_5165" style="mask-type:alpha" maskUnits="userSpaceOnUse" x="232" y="257" width="156" height="71">
<path d="M281.391 281.414C282.688 279.297 285.149 277.473 287.384 276.209C291.02 274.153 295.625 272.581 300.321 271.633C305.017 270.684 309.831 270.354 313.897 270.854C317.345 271.279 321.542 272.533 322.845 275.386C329.698 273.08 336.25 273.514 340.508 274.512C345.391 275.656 349.393 277.91 352.048 280.749C354.703 283.588 355.973 286.971 355.356 290.388C354.906 292.881 353.213 296.155 349.077 298.953C351.175 299.762 352.845 300.802 354.091 301.864C357.462 304.736 359.083 308.697 358.894 312.993C358.704 317.289 356.712 321.738 353.046 325.561C352.546 326.081 351.989 326.614 351.375 327.15L367.246 300.398C371.858 296.97 391.079 301.634 386.25 286.935C377.633 261.881 361.243 257.854 341.066 257.208C325.904 256.722 296.035 267.041 278.013 273.267C272.054 275.326 267.39 276.937 264.982 277.562C257.229 279.574 238.574 279.375 233.405 262.477C226.613 285.571 250.888 285.821 261.486 285.509C264.733 285.413 270.334 284.066 277.09 282.442C278.478 282.109 279.916 281.763 281.391 281.414Z" fill="white"/>
</mask>
<g mask="url(#mask13_913_5165)">
<rect width="145.413" height="127.007" transform="matrix(0.86227 -0.506449 0.863198 0.504866 188.969 282.85)" fill="black"/>
</g>
</g>
<mask id="mask14_913_5165" style="mask-type:alpha" maskUnits="userSpaceOnUse" x="213" y="222" width="202" height="119">
<path d="M213.859 282.887L316.315 222.71L414.422 280.09L311.966 340.267L213.859 282.887Z" fill="white"/>
</mask>
<g mask="url(#mask14_913_5165)">
<path d="M316.757 279.434C317.01 281.47 312.186 284.203 305.982 285.538C299.778 286.872 294.544 286.304 294.291 284.267C294.037 282.231 298.861 279.498 305.065 278.164C311.269 276.829 316.503 277.398 316.757 279.434Z" fill="black"/>
<path d="M340.388 295.798C335.626 297.801 328.963 296.325 325.505 292.5C322.047 288.675 323.104 283.95 327.865 281.947C332.627 279.943 339.291 281.42 342.749 285.245C346.207 289.07 345.15 293.795 340.388 295.798Z" fill="black"/>
<path d="M322.558 315.133C322.011 321.37 326.907 325.628 333.496 324.645C340.084 323.662 345.868 317.81 346.416 311.574C346.964 305.338 342.067 301.079 335.479 302.062C328.891 303.045 323.106 308.897 322.558 315.133Z" fill="black"/>
<path d="M316.757 279.434C317.01 281.47 312.186 284.203 305.982 285.538C299.778 286.872 294.544 286.304 294.291 284.267C294.037 282.231 298.861 279.498 305.065 278.164C311.269 276.829 316.503 277.398 316.757 279.434Z" fill="black"/>
<path d="M340.388 295.798C335.626 297.801 328.963 296.325 325.505 292.5C322.047 288.675 323.104 283.95 327.865 281.947C332.627 279.943 339.291 281.42 342.749 285.245C346.207 289.07 345.15 293.795 340.388 295.798Z" fill="black"/>
<path d="M322.558 315.133C322.011 321.37 326.907 325.628 333.496 324.645C340.084 323.662 345.868 317.81 346.416 311.574C346.964 305.338 342.067 301.079 335.479 302.062C328.891 303.045 323.106 308.897 322.558 315.133Z" fill="black"/>
</g>
</g>
<path d="M784.369 477.104V505.933C784.369 507.038 785.144 508.38 786.1 508.933L789.108 510.669C788.634 512.311 789.108 513.404 789.108 513.404L786.33 511.801C783.939 510.42 782 507.062 782 504.301V476C782 473.239 783.938 472.119 786.33 473.5L790.292 475.788C789.108 475.924 787.923 477.155 787.923 477.155L786.101 476.104C785.145 475.551 784.369 475.999 784.369 477.104Z" fill="white"/>
<path d="M817.065 524.81V495.98C817.065 494.876 816.299 493.539 815.343 492.986L793.846 480.575C794.083 479.344 795.268 478.66 795.268 478.66L815.104 490.113C817.495 491.493 819.434 494.851 819.434 497.613V525.913C819.434 528.675 817.498 529.796 815.107 528.415L799.059 519.15C800.954 518.877 801.316 517.717 801.316 517.717L815.333 525.81C816.289 526.362 817.065 525.914 817.065 524.81Z" fill="white"/>
<mask id="mask15_913_5165" style="mask-type:alpha" maskUnits="userSpaceOnUse" x="782" y="471" width="37" height="60">
<path d="M782.948 471.548L818.013 491.793V530.093L782.948 509.849V471.548Z" fill="white"/>
</mask>
<g mask="url(#mask15_913_5165)">
<mask id="mask16_913_5165" style="mask-type:alpha" maskUnits="userSpaceOnUse" x="788" y="477" width="27" height="48">
<path d="M795.522 493.537C796.305 493.563 797.194 493.957 797.894 494.377C799.032 495.059 800.194 496.085 801.199 497.234C802.205 498.383 803.062 499.662 803.573 500.864C804.006 501.883 804.333 503.24 803.764 504.047C805.483 505.58 806.408 507.458 806.814 508.792C807.28 510.321 807.304 511.78 806.954 512.959C806.604 514.138 805.885 515.02 804.856 515.385C804.106 515.652 802.945 515.697 801.525 514.993C801.639 515.7 801.622 516.324 801.531 516.835C801.286 518.217 800.466 519.287 799.266 519.908C798.066 520.53 796.538 520.677 794.913 520.263C794.692 520.207 794.458 520.136 794.215 520.05L804.025 520.241C805.692 520.978 807.483 527.021 810.716 523.382C816.164 517.071 814.651 511.909 811.614 506.232C809.332 501.966 801.767 495.329 797.203 491.325C795.693 490.001 794.512 488.965 793.958 488.398C792.176 486.571 789.26 481.384 793.037 477.305C785.669 479.05 789.466 485.798 791.238 488.678C791.782 489.56 793.04 490.897 794.558 492.509C794.87 492.841 795.192 493.184 795.522 493.537Z" fill="white"/>
</mask>
<g mask="url(#mask16_913_5165)">
<rect width="46.2029" height="40.3544" transform="matrix(0.866025 0.5 0 1 780.416 468.22)" fill="white"/>
</g>
</g>
<mask id="mask17_913_5165" style="mask-type:alpha" maskUnits="userSpaceOnUse" x="784" y="475" width="34" height="56">
<path d="M784.369 475.104L817.065 493.981V530.093L784.369 511.217V475.104Z" fill="white"/>
</mask>
<g mask="url(#mask17_913_5165)">
<path d="M801.693 502.999C801.179 503.389 799.667 502.484 798.316 500.979C796.964 499.474 796.286 497.938 796.8 497.549C797.314 497.159 798.826 498.064 800.177 499.569C801.528 501.074 802.207 502.61 801.693 502.999Z" fill="#4900E6"/>
<path d="M801.001 512.097C799.697 511.095 799.038 509.022 799.529 507.466C800.019 505.911 801.474 505.462 802.778 506.463C804.081 507.465 804.74 509.538 804.249 511.094C803.759 512.65 802.304 513.098 801.001 512.097Z" fill="#4900E6"/>
<path d="M792.898 510.202C791.113 511.028 790.733 513.05 792.05 514.716C793.367 516.383 795.881 517.063 797.666 516.237C799.451 515.41 799.83 513.389 798.514 511.722C797.197 510.056 794.683 509.375 792.898 510.202Z" fill="#4900E6"/>
<path d="M801.693 503C801.179 503.389 799.667 502.485 798.316 500.98C796.964 499.474 796.286 497.939 796.8 497.549C797.314 497.16 798.826 498.064 800.177 499.57C801.528 501.075 802.207 502.611 801.693 503Z" fill="white" fill-opacity="0.56"/>
<path d="M801.001 512.097C799.697 511.095 799.038 509.022 799.529 507.467C800.019 505.911 801.474 505.462 802.778 506.464C804.081 507.466 804.74 509.539 804.249 511.094C803.759 512.65 802.304 513.099 801.001 512.097Z" fill="white" fill-opacity="0.56"/>
<path d="M792.898 510.202C791.113 511.029 790.733 513.05 792.05 514.717C793.367 516.383 795.881 517.064 797.666 516.237C799.451 515.411 799.83 513.389 798.514 511.723C797.197 510.056 794.683 509.376 792.898 510.202Z" fill="white" fill-opacity="0.56"/>
</g>
</g>
<defs>
<filter id="filter0_f_913_5165" x="122" y="530" width="220" height="147" filterUnits="userSpaceOnUse" color-interpolation-filters="sRGB">
<feFlood flood-opacity="0" result="BackgroundImageFix"/>
<feBlend mode="normal" in="SourceGraphic" in2="BackgroundImageFix" result="shape"/>
<feGaussianBlur stdDeviation="5" result="effect1_foregroundBlur_913_5165"/>
</filter>
<filter id="filter1_f_913_5165" x="845" y="503" width="220" height="147" filterUnits="userSpaceOnUse" color-interpolation-filters="sRGB">
<feFlood flood-opacity="0" result="BackgroundImageFix"/>
<feBlend mode="normal" in="SourceGraphic" in2="BackgroundImageFix" result="shape"/>
<feGaussianBlur stdDeviation="5" result="effect1_foregroundBlur_913_5165"/>
</filter>
<filter id="filter2_f_913_5165" x="663" y="564" width="185.5" height="113" filterUnits="userSpaceOnUse" color-interpolation-filters="sRGB">
<feFlood flood-opacity="0" result="BackgroundImageFix"/>
<feBlend mode="normal" in="SourceGraphic" in2="BackgroundImageFix" result="shape"/>
<feGaussianBlur stdDeviation="5" result="effect1_foregroundBlur_913_5165"/>
</filter>
<filter id="filter3_f_913_5165" x="580" y="522" width="185.5" height="113" filterUnits="userSpaceOnUse" color-interpolation-filters="sRGB">
<feFlood flood-opacity="0" result="BackgroundImageFix"/>
<feBlend mode="normal" in="SourceGraphic" in2="BackgroundImageFix" result="shape"/>
<feGaussianBlur stdDeviation="5" result="effect1_foregroundBlur_913_5165"/>
</filter>
<filter id="filter4_f_913_5165" x="489" y="486" width="185.5" height="113" filterUnits="userSpaceOnUse" color-interpolation-filters="sRGB">
<feFlood flood-opacity="0" result="BackgroundImageFix"/>
<feBlend mode="normal" in="SourceGraphic" in2="BackgroundImageFix" result="shape"/>
<feGaussianBlur stdDeviation="5" result="effect1_foregroundBlur_913_5165"/>
</filter>
<filter id="filter5_f_913_5165" x="680" y="422" width="373.5" height="218" filterUnits="userSpaceOnUse" color-interpolation-filters="sRGB">
<feFlood flood-opacity="0" result="BackgroundImageFix"/>
<feBlend mode="normal" in="SourceGraphic" in2="BackgroundImageFix" result="shape"/>
<feGaussianBlur stdDeviation="5" result="effect1_foregroundBlur_913_5165"/>
</filter>
<filter id="filter6_f_913_5165" x="283" y="448" width="371.5" height="225.5" filterUnits="userSpaceOnUse" color-interpolation-filters="sRGB">
<feFlood flood-opacity="0" result="BackgroundImageFix"/>
<feBlend mode="normal" in="SourceGraphic" in2="BackgroundImageFix" result="shape"/>
<feGaussianBlur stdDeviation="5" result="effect1_foregroundBlur_913_5165"/>
</filter>
<filter id="filter7_f_913_5165" x="345" y="550" width="86.5" height="61.5" filterUnits="userSpaceOnUse" color-interpolation-filters="sRGB">
<feFlood flood-opacity="0" result="BackgroundImageFix"/>
<feBlend mode="normal" in="SourceGraphic" in2="BackgroundImageFix" result="shape"/>
<feGaussianBlur stdDeviation="5" result="effect1_foregroundBlur_913_5165"/>
</filter>
<filter id="filter8_f_913_5165" x="663" y="254" width="106.5" height="68.5" filterUnits="userSpaceOnUse" color-interpolation-filters="sRGB">
<feFlood flood-opacity="0" result="BackgroundImageFix"/>
<feBlend mode="normal" in="SourceGraphic" in2="BackgroundImageFix" result="shape"/>
<feGaussianBlur stdDeviation="5" result="effect1_foregroundBlur_913_5165"/>
</filter>
<filter id="filter9_f_913_5165" x="608" y="91" width="136.5" height="83" filterUnits="userSpaceOnUse" color-interpolation-filters="sRGB">
<feFlood flood-opacity="0" result="BackgroundImageFix"/>
<feBlend mode="normal" in="SourceGraphic" in2="BackgroundImageFix" result="shape"/>
<feGaussianBlur stdDeviation="5" result="effect1_foregroundBlur_913_5165"/>
</filter>
<filter id="filter10_f_913_5165" x="856" y="155.5" width="78" height="57" filterUnits="userSpaceOnUse" color-interpolation-filters="sRGB">
<feFlood flood-opacity="0" result="BackgroundImageFix"/>
<feBlend mode="normal" in="SourceGraphic" in2="BackgroundImageFix" result="shape"/>
<feGaussianBlur stdDeviation="5" result="effect1_foregroundBlur_913_5165"/>
</filter>
<filter id="filter11_f_913_5165" x="152" y="192.501" width="252" height="158.999" filterUnits="userSpaceOnUse" color-interpolation-filters="sRGB">
<feFlood flood-opacity="0" result="BackgroundImageFix"/>
<feBlend mode="normal" in="SourceGraphic" in2="BackgroundImageFix" result="shape"/>
<feGaussianBlur stdDeviation="5" result="effect1_foregroundBlur_913_5165"/>
</filter>
<linearGradient id="paint0_linear_913_5165" x1="159.5" y1="571.5" x2="212" y2="636" gradientUnits="userSpaceOnUse">
<stop stop-color="#242424"/>
<stop offset="1" stop-color="#C4C4C4" stop-opacity="0"/>
</linearGradient>
<linearGradient id="paint1_linear_913_5165" x1="882.5" y1="544.5" x2="935" y2="609" gradientUnits="userSpaceOnUse">
<stop stop-color="#242424"/>
<stop offset="1" stop-color="#C4C4C4" stop-opacity="0"/>
</linearGradient>
<linearGradient id="paint2_linear_913_5165" x1="700.5" y1="571.5" x2="753" y2="636" gradientUnits="userSpaceOnUse">
<stop stop-color="#242424"/>
<stop offset="1" stop-color="#C4C4C4" stop-opacity="0"/>
</linearGradient>
<linearGradient id="paint3_linear_913_5165" x1="617.5" y1="529.5" x2="670" y2="594" gradientUnits="userSpaceOnUse">
<stop stop-color="#242424"/>
<stop offset="1" stop-color="#C4C4C4" stop-opacity="0"/>
</linearGradient>
<linearGradient id="paint4_linear_913_5165" x1="526.5" y1="493.5" x2="579" y2="558" gradientUnits="userSpaceOnUse">
<stop stop-color="#242424"/>
<stop offset="1" stop-color="#C4C4C4" stop-opacity="0"/>
</linearGradient>
<linearGradient id="paint5_linear_913_5165" x1="711.5" y1="513.5" x2="764" y2="578" gradientUnits="userSpaceOnUse">
<stop stop-color="#242424"/>
<stop offset="1" stop-color="#C4C4C4" stop-opacity="0"/>
</linearGradient>
<linearGradient id="paint6_linear_913_5165" x1="320.5" y1="545.5" x2="484" y2="646.5" gradientUnits="userSpaceOnUse">
<stop stop-color="#242424"/>
<stop offset="1" stop-color="#C4C4C4" stop-opacity="0"/>
</linearGradient>
<linearGradient id="paint7_linear_913_5165" x1="336.5" y1="571.5" x2="389" y2="636" gradientUnits="userSpaceOnUse">
<stop stop-color="#242424"/>
<stop offset="1" stop-color="#C4C4C4" stop-opacity="0"/>
</linearGradient>
<linearGradient id="paint8_linear_913_5165" x1="686.5" y1="285" x2="758" y2="328.5" gradientUnits="userSpaceOnUse">
<stop stop-color="#242424"/>
<stop offset="1" stop-color="#C4C4C4" stop-opacity="0"/>
</linearGradient>
<linearGradient id="paint9_linear_913_5165" x1="631.5" y1="115" x2="703" y2="158.5" gradientUnits="userSpaceOnUse">
<stop stop-color="#242424"/>
<stop offset="1" stop-color="#C4C4C4" stop-opacity="0"/>
</linearGradient>
<linearGradient id="paint10_linear_913_5165" x1="879.5" y1="175" x2="951" y2="218.5" gradientUnits="userSpaceOnUse">
<stop stop-color="#242424"/>
<stop offset="1" stop-color="#C4C4C4" stop-opacity="0"/>
</linearGradient>
<linearGradient id="paint11_linear_913_5165" x1="255.5" y1="238" x2="308" y2="316.5" gradientUnits="userSpaceOnUse">
<stop offset="0.166667" stop-color="#242424"/>
<stop offset="1" stop-color="#C4C4C4" stop-opacity="0"/>
</linearGradient>
<clipPath id="clip0_913_5165">
<rect width="1055" height="676" fill="white"/>
</clipPath>
</defs>
</svg>
