<svg
  width="158"
  height="50"
  viewBox="0 0 158 50"
  fill="none"
  xmlns="http://www.w3.org/2000/svg"
>
<path
    d="M145.233 33.0566V35.0469C147.296 33.5499 149.179 32.8014 150.882 32.8014C151.942 32.8014 152.816 33.0566 153.504 33.567C154.203 34.066 154.66 34.684 154.874 35.4212C155.088 36.147 155.195 37.2131 155.195 38.6193V46.6487H157.952V49.5237H151.981V38.7554C151.981 37.5079 151.795 36.6971 151.423 36.3228C151.051 35.9372 150.594 35.7444 150.053 35.7444C148.632 35.7444 147.026 36.4419 145.233 37.8368V46.6487H148.057V49.5237H139.143L136.308 48.2526L137.694 46.6487H142.019V35.9315H139.143V33.0566H145.233Z"
    class="main"
  />
<path
    d="M140.504 42.1067H126.736C126.939 43.6264 127.537 44.8569 128.529 45.7982C129.521 46.7395 130.79 47.2101 132.335 47.2101C134.579 47.2101 136.355 46.3029 137.663 44.4883L142.37 46.859C141.446 48.2993 138.379 48.2592 136.902 48.9623C135.424 49.6541 133.88 50 132.267 50C129.764 50 127.621 49.2175 125.84 47.6524C124.069 46.076 123.184 43.9553 123.184 41.2902C123.184 38.7611 124.047 36.6801 125.772 35.047C127.509 33.4139 129.499 32.5973 131.743 32.5973C133.942 32.5973 135.932 33.3968 137.714 34.9959C139.506 36.5837 140.437 38.9539 140.504 42.1067ZM137.189 39.7591C136.964 38.6023 136.366 37.559 135.396 36.629C134.426 35.6877 133.237 35.2171 131.827 35.2171C130.542 35.2171 129.442 35.6424 128.529 36.4929C127.616 37.3322 127.057 38.4209 126.855 39.7591H137.189Z"
    class="main"
  />
<path
    d="M110.479 46.6488V28.7357H107.536V25.8608H113.692V39.7096L114.83 39.7169L119.815 35.7274H117.092V33.0566H126.141V35.7274H123.638L117.498 40.8649L123.266 46.6488H126.141L131.677 49.5237H121.93L114.83 42.5041L113.692 42.5181V46.6488H116.517V49.5237H107.536V46.6488H110.479Z"
    class="main"
  />
<path
    d="M111.475 46.6488V49.5237H105.859V47.5163C104.303 49.036 102.566 49.7959 100.65 49.7959C99.1611 49.7959 97.8643 49.3082 96.7592 48.3329C95.6654 47.3576 95.1185 46.1101 95.1185 44.5904C95.1185 43.0593 95.6993 41.7892 96.8607 40.7798C98.0334 39.7705 99.443 39.2658 101.089 39.2658C102.623 39.2658 104.106 39.7308 105.538 40.6607V39.0276C105.538 38.1884 105.459 37.542 105.301 37.0883C105.143 36.6347 104.771 36.2264 104.185 35.8635C103.61 35.5006 102.854 35.3191 101.918 35.3191C100.306 35.3191 99.0999 35.9853 98.3783 37.2782L95.7802 35.8846C97.1447 33.3215 99.0596 32.5973 102.409 32.5973C103.638 32.5973 104.698 32.7674 105.588 33.1077C106.491 33.4365 107.162 33.8675 107.601 34.4005C108.041 34.9222 108.334 35.4893 108.481 36.1017C108.639 36.7141 108.718 37.6894 108.718 39.0276V46.6488H111.475ZM105.538 43.3996C104.151 42.3108 102.747 41.7665 101.326 41.7665C100.435 41.7665 99.691 42.0273 99.0934 42.549C98.4958 43.0707 98.1969 43.7455 98.1969 44.5734C98.1969 45.3445 98.4563 45.991 98.975 46.5127C99.505 47.0343 100.221 47.2952 101.123 47.2952C102.679 47.2952 104.151 46.6374 105.538 45.3219V43.3996Z"
    class="main"
  />
<path
    d="M88.5811 46.6485V35.9313H85.2828V33.0564H91.152V36.7649C91.5129 35.8009 92.0147 35.0014 92.6574 34.3663C93.3001 33.7312 94.0302 33.1274 94.7406 32.9233C95.4622 32.7191 96.2392 32.5749 97.1654 32.5749C98.0916 32.5748 99.5902 33.2714 99.5902 33.2714L98.3778 37.2782C98.3778 37.2782 97.685 36.9298 96.819 36.5814C95.953 36.233 94.9747 36.2319 94.1628 36.5608C93.3622 36.8897 92.7645 37.4907 92.3699 38.364C91.9865 39.2259 91.7948 40.7796 91.7948 43.0251V46.6485H95.3637V49.5235H85.2828V46.6485H88.5811Z"
    class="main"
  />
<path
    d="M72.9142 46.6268V28.7138H69.9711V25.8388H76.1279V39.6877L77.2659 39.695L82.2509 35.7055H79.5277V33.0347H88.5769V35.7055H86.0735L79.9336 40.8429L85.7014 46.6268H88.5769L94.1129 49.5017H84.3652L77.2659 42.4821L76.1279 42.4962V46.6268H78.9526V49.5017H69.9711V46.6268H72.9142Z"
    class="main"
  />
<path
    fill-rule="evenodd"
    clip-rule="evenodd"
    d="M138.506 18.8759C138.506 18.8759 139.478 19.1896 139.964 19.3465C140.831 19.6262 142.565 20.1858 142.565 20.1858C140.862 22.8736 138.201 24.2175 134.582 24.2175C131.695 24.2175 129.442 23.452 127.824 21.9209C126.206 20.3899 125.397 18.3769 125.397 15.8819C125.397 13.3415 126.232 11.2207 127.9 9.51959C129.569 7.81844 131.695 6.96788 134.277 6.96788C136.149 6.96788 137.767 7.44419 139.132 8.39684C140.496 9.34948 141.443 10.5346 141.973 11.9522C142.503 13.3699 142.768 14.9519 142.768 16.6984H130.573C130.652 18.1954 131.123 19.2558 131.985 19.8796C132.848 20.5033 133.758 20.8152 134.717 20.8152C135.969 20.8152 137.231 20.1688 138.506 18.8759V18.8759ZM137.506 13.7724C137.382 12.8538 137.024 12.0713 136.432 11.4249C135.84 10.7784 135.031 10.4552 134.005 10.4552C132.088 10.4552 130.972 11.561 130.656 13.7724H137.506Z"
    class="accent"
  />
<path
    fill-rule="evenodd"
    clip-rule="evenodd"
    d="M153.403 18.8759L157.463 20.1858C155.76 22.8736 153.099 24.2175 149.479 24.2175C146.593 24.2175 144.34 23.452 142.722 21.9209C141.104 20.3899 140.295 18.3769 140.295 15.8819C140.295 13.3415 141.129 11.2208 142.798 9.51961C144.467 7.81846 146.593 6.9679 149.175 6.9679C151.047 6.9679 152.665 7.44421 154.029 8.39686C155.394 9.3495 156.341 10.5346 156.871 11.9522C157.401 13.3699 157.666 14.9519 157.666 16.6984H145.471C145.55 18.1954 146.02 19.2558 146.883 19.8796C147.746 20.5033 148.656 20.8152 149.615 20.8152C150.866 20.8152 152.129 20.1688 153.403 18.8759V18.8759ZM152.404 13.7725C152.28 12.8538 151.922 12.0713 151.33 11.4249C150.738 10.7785 149.929 10.4552 148.903 10.4552C146.986 10.4552 145.869 11.561 145.554 13.7725H152.404Z"
    class="accent"
  />
<path
    fill-rule="evenodd"
    clip-rule="evenodd"
    d="M126.208 20.2776V24.0712H112.579V20.2776H118.411V11.4147H116.212V7.60412H118.411V6.0901C118.411 4.35492 118.944 2.90613 120.009 1.74368C121.075 0.581224 122.662 5.72205e-06 124.77 5.72205e-06C127.33 5.72205e-06 129.151 0.771183 130.234 2.31356L126.445 5.29056C126.107 4.1111 125.622 3.52137 124.99 3.52137C124.088 3.52137 123.637 4.28121 123.637 5.8009V7.60412H126.208V11.4147H123.637V20.2776H126.208Z"
    class="accent"
  />
<path
    fill-rule="evenodd"
    clip-rule="evenodd"
    d="M116.516 20.2776V24.0712H106.351L106.343 20.3427L108.719 20.2776V11.4147H106.52V7.60412H108.719V6.0901C108.719 4.35492 109.252 2.90613 110.317 1.74368C111.383 0.581224 112.97 5.72205e-06 115.079 5.72205e-06C117.638 5.72205e-06 119.459 0.771183 120.542 2.31356L116.753 5.29056C116.415 4.1111 115.93 3.52137 115.298 3.52137C114.396 3.52137 113.945 4.28121 113.945 5.8009V7.60412H116.516V11.4147H113.945V20.2776H116.516Z"
    class="accent"
  />
<path
    fill-rule="evenodd"
    clip-rule="evenodd"
    d="M98.6739 24.2175C96.2608 24.2175 94.2226 23.4491 92.5594 21.9124C90.8961 20.3757 90.0645 18.2692 90.0645 15.5927C90.0645 12.9162 90.8961 10.8096 92.5594 9.27293C94.2226 7.73622 96.2608 6.96788 98.6739 6.96788C101.098 6.96788 103.139 7.73622 104.797 9.27293C106.454 10.8096 107.283 12.9162 107.283 15.5927C107.283 18.2351 106.463 20.3332 104.822 21.8869C103.182 23.4406 101.132 24.2175 98.6739 24.2175V24.2175ZM98.658 20.1347C99.6278 20.1347 100.414 19.7605 101.018 19.012C101.621 18.2635 101.923 17.0897 101.923 15.4906C101.923 14.0843 101.629 12.9871 101.043 12.1989C100.457 11.4107 99.6616 11.0166 98.658 11.0166C96.5043 11.0166 95.4274 12.5816 95.4274 15.7117C95.4274 16.9933 95.6952 18.0508 96.2308 18.8844C96.7665 19.7179 97.5755 20.1347 98.658 20.1347V20.1347Z"
    class="accent"
  />
<path
    fill-rule="evenodd"
    clip-rule="evenodd"
    d="M89.4228 0.374251H93.3977L93.3711 5.77187L89.4228 8.70985C89.2212 8.17466 88.9932 7.68729 88.7387 7.24777C87.5693 5.22847 85.8409 4.21883 83.5536 4.21883C81.2532 4.21883 79.5139 5.00702 78.3355 6.58342C77.1571 8.15982 76.5679 10.0481 76.5679 12.2482C76.5679 14.5505 77.1909 16.4132 78.437 17.8365C79.683 19.2598 81.2701 19.9714 83.1984 19.9714C84.777 19.9714 86.1583 19.4327 87.3424 18.3553C88.5264 17.2779 89.8099 15.5313 90.2271 13.6147L94.3787 16.0928C92.6196 21.5819 88.7463 24.3263 82.7586 24.3263C78.53 24.3263 75.3417 23.1809 73.1935 20.89C71.0454 18.5992 69.9714 15.7016 69.9714 12.1972C69.9714 9.70217 70.5295 7.51906 71.6459 5.64779C72.7622 3.77653 74.2648 2.36743 76.1535 1.42045C78.0423 0.47348 80.1143 0 82.3695 0C85.1773 0 87.5284 0.737155 89.4228 2.21149V0.374251Z"
    class="accent"
  />
<path
    fill-rule="evenodd"
    clip-rule="evenodd"
    d="M0 0.911823V49.7175H9.70686V44.776H4.86234V5.8316H9.70686V0.911823H0Z"
    class="main"
  />
<path
    fill-rule="evenodd"
    clip-rule="evenodd"
    d="M56.7186 0.909094V5.82887H61.5631V44.7733H56.7186V49.7148H66.4254V0.909094H56.7186Z"
    class="main"
  />
<path
    fill-rule="evenodd"
    clip-rule="evenodd"
    d="M35.1419 25.1058C35.0908 34.0079 30.6513 39.853 22.5359 39.853L22.5335 39.8289C19.2888 39.8048 16.7068 39.3355 14.4906 37.5958V39.8277H9.70545V29.6938H14.4906C15.8481 33.3323 18.6522 34.5581 22.0062 34.5581C24.3281 34.5581 26.2391 33.6931 27.7379 31.9631C29.2367 30.2318 29.9874 27.9686 29.9874 25.1685C29.9874 22.4951 29.2783 20.1993 27.8602 18.2811C26.4422 16.3641 24.3459 15.4062 21.5798 15.4062C18.2258 15.4062 15.8695 17.2278 14.5132 20.8664H9.72802V10.7325H14.5132V12.9656C16.7935 11.1728 19.5346 10.6734 22.9148 10.6734C28.1868 10.6734 35.1419 14.4302 35.1419 25.1058V25.1058Z"
    class="main"
  />
<path
    fill-rule="evenodd"
    clip-rule="evenodd"
    d="M56.7295 34.8832V39.8175L51.8363 39.8295L39.5082 27.15L37.0735 27.1621L37.121 34.9073H41.9429V39.8295H32.3109V10.6583L37.1685 10.6824L37.121 22.2279L39.5082 22.2399L46.0048 15.5925H42.0035V10.6704H56.7176V15.5925H52.9895L44.2708 24.6648L54.4135 34.8832H56.7295Z"
    class="main"
  />
<path
    fill-rule="evenodd"
    clip-rule="evenodd"
    d="M14.5502 49.7148H51.8764V44.795H14.5502V49.7148Z"
    class="main"
  />
<path
    fill-rule="evenodd"
    clip-rule="evenodd"
    d="M14.5502 5.82889H51.8764V0.909107H14.5502V5.82889Z"
    class="accent"
  />
</svg>
