<svg width="730" height="381" viewBox="0 0 730 381" fill="none" xmlns="http://www.w3.org/2000/svg">
<g opacity="0.2" filter="url(#filter0_f_1685_5546)">
<path d="M137 370.787L67 311L137 270L230 303L137 370.787Z" fill="url(#paint0_linear_1685_5546)"/>
</g>
<g opacity="0.2" filter="url(#filter1_f_1685_5546)">
<path d="M419 368.787L349 309L403.5 278L516.5 327L419 368.787Z" fill="url(#paint1_linear_1685_5546)"/>
</g>
<g opacity="0.2" filter="url(#filter2_f_1685_5546)">
<path d="M628 285.787L558 226L590 208.5L720 254L628 285.787Z" fill="url(#paint2_linear_1685_5546)"/>
</g>
<g opacity="0.2" filter="url(#filter3_f_1685_5546)">
<path d="M459 206.287L389 146.5L429 124L551 174.5L459 206.287Z" fill="url(#paint3_linear_1685_5546)"/>
</g>
<g opacity="0.2" filter="url(#filter4_f_1685_5546)">
<path d="M206 212.287L149.5 158L187 135L298 180.5L206 212.287Z" fill="url(#paint4_linear_1685_5546)"/>
</g>
<path opacity="0.3" d="M355.789 121.813L125.833 219.504" stroke="#888888" stroke-width="2" stroke-linecap="round"/>
<path d="M306.341 275.787L120.606 271.767" stroke="#888888" stroke-opacity="0.2" stroke-width="2" stroke-linecap="round"/>
<path opacity="0.3" d="M79.6006 209.453L149.552 155.583" stroke="#888888" stroke-width="2" stroke-linecap="round"/>
<path opacity="0.3" d="M184 136L354 123.5" stroke="#888888" stroke-width="2" stroke-linecap="round"/>
<path opacity="0.2" d="M560.016 223.122L399.609 278.199" stroke="#888888" stroke-width="2" stroke-linecap="round"/>
<path d="M390.765 141.914L337.698 225.534" stroke="#888888" stroke-opacity="0.3" stroke-width="2" stroke-linecap="round"/>
<path d="M540 201.5L413.5 129" stroke="#888888" stroke-opacity="0.3" stroke-width="2" stroke-linecap="round"/>
<path opacity="0.2" d="M344.131 287.044L185.332 135.481" stroke="#888888" stroke-width="2" stroke-linecap="round"/>
<path d="M535.896 208.649L132.266 214.278" stroke="#888888" stroke-opacity="0.2" stroke-width="2" stroke-linecap="round"/>
<path d="M137.491 213.246L68.8074 252.921V312.439L137.491 272.784V213.246Z" fill="#FFBB01"/>
<path d="M137.491 213.246L68.8074 252.921V312.439L137.491 272.784V213.246Z" fill="black" fill-opacity="0.07"/>
<path d="M0 213.087L68.8077 252.924V312.707L0 272.981V213.087Z" fill="#FFBB01"/>
<path d="M0 213.087L68.8077 252.924V312.707L0 272.981V213.087Z" fill="black" fill-opacity="0.33"/>
<path d="M68.6836 173.782L-0.000249288 213.436L68.8074 252.924L137.491 213.27L68.6836 173.782Z" fill="#FFBB01"/>
<path d="M17.9895 242.291V265.859C17.9895 266.963 18.7643 268.306 19.7208 268.859L21.9685 270.156C21.5706 271.535 21.9685 272.453 21.9685 272.453L20.3301 271.507C17.9387 270.127 16 266.769 16 264.007V241.845C16 239.084 17.9387 237.965 20.3302 239.346L22.9632 240.866C21.9685 240.981 20.9737 242.014 20.9737 242.014L19.7215 241.291C18.765 240.739 17.9895 241.187 17.9895 242.291Z" fill="white"/>
<path d="M45.4446 281.71V258.143C45.4446 257.038 44.6734 255.697 43.7168 255.145L25.9475 244.886C26.1464 243.852 27.1412 243.278 27.1412 243.278L43.104 252.494C45.4954 253.875 47.4341 257.233 47.4341 259.994V282.156C47.4341 284.917 45.4982 286.038 43.1068 284.658L30.3244 277.278C31.916 277.048 32.2201 276.075 32.2201 276.075L43.7126 282.71C44.6691 283.262 45.4446 282.814 45.4446 281.71Z" fill="white"/>
<mask id="mask0_1685_5546" style="mask-type:alpha" maskUnits="userSpaceOnUse" x="16" y="237" width="31" height="50">
<path d="M16.7969 237.305L46.2415 254.305V286.467L16.7969 269.467V237.305Z" fill="white"/>
</mask>
<g mask="url(#mask0_1685_5546)">
<mask id="mask1_1685_5546" style="mask-type:alpha" maskUnits="userSpaceOnUse" x="21" y="242" width="23" height="40">
<path d="M27.3559 255.77C28.0132 255.792 28.7593 256.123 29.3469 256.475C30.3031 257.048 31.2783 257.91 32.123 258.875C32.9677 259.84 33.6868 260.913 34.1159 261.923C34.4799 262.779 34.7546 263.918 34.2765 264.596C35.7198 265.882 36.4967 267.46 36.8379 268.58C37.2292 269.864 37.2489 271.089 36.955 272.079C36.661 273.069 36.0574 273.81 35.1938 274.116C34.5639 274.34 33.589 274.379 32.3963 273.787C32.492 274.381 32.4775 274.905 32.4014 275.334C32.1954 276.495 31.5068 277.392 30.4993 277.914C29.4918 278.436 28.2085 278.56 26.8445 278.212C26.6587 278.165 26.4623 278.106 26.2578 278.034L34.4953 278.194C35.8955 278.813 37.3993 283.887 40.1138 280.831C44.689 275.532 43.4182 271.198 40.8682 266.43C38.9519 262.848 32.5995 257.275 28.7667 253.913C27.4993 252.801 26.5073 251.931 26.0425 251.454C24.5461 249.92 22.0972 245.565 25.2689 242.14C19.0817 243.605 22.27 249.272 23.7585 251.69C24.2146 252.431 25.2712 253.553 26.5457 254.907C26.8077 255.185 27.0788 255.473 27.3559 255.77Z" fill="white"/>
</mask>
<g mask="url(#mask1_1685_5546)">
<rect width="38.7974" height="33.8864" transform="matrix(0.866025 0.5 0 1 14.6709 234.511)" fill="white"/>
</g>
</g>
<mask id="mask2_1685_5546" style="mask-type:alpha" maskUnits="userSpaceOnUse" x="17" y="240" width="29" height="47">
<path d="M17.9893 240.292L45.4444 256.143V286.467L17.9893 270.616V240.292Z" fill="white"/>
</mask>
<g mask="url(#mask2_1685_5546)">
<path d="M32.5361 263.716C32.1045 264.043 30.8349 263.283 29.7003 262.019C28.5657 260.756 27.9959 259.466 28.4275 259.139C28.8591 258.812 30.1288 259.572 31.2633 260.835C32.3979 262.099 32.9678 263.389 32.5361 263.716Z" fill="#FFBB01"/>
<path d="M31.955 271.355C30.8603 270.514 30.307 268.773 30.719 267.467C31.131 266.161 32.3524 265.784 33.447 266.625C34.5417 267.466 35.095 269.207 34.683 270.513C34.271 271.819 33.0496 272.196 31.955 271.355Z" fill="#FFBB01"/>
<path d="M25.151 269.764C23.6522 270.458 23.3334 272.155 24.4389 273.555C25.5445 274.954 27.6558 275.526 29.1545 274.832C30.6533 274.137 30.9721 272.44 29.8666 271.041C28.761 269.641 26.6498 269.07 25.151 269.764Z" fill="#FFBB01"/>
<path d="M32.5361 263.716C32.1045 264.043 30.8349 263.283 29.7003 262.019C28.5657 260.756 27.9959 259.466 28.4275 259.139C28.8591 258.812 30.1288 259.572 31.2633 260.835C32.3979 262.099 32.9678 263.389 32.5361 263.716Z" fill="white" fill-opacity="0.28"/>
<path d="M31.955 271.355C30.8603 270.514 30.307 268.773 30.719 267.467C31.131 266.161 32.3524 265.784 33.447 266.625C34.5417 267.466 35.095 269.207 34.683 270.513C34.271 271.819 33.0496 272.196 31.955 271.355Z" fill="white" fill-opacity="0.28"/>
<path d="M25.151 269.764C23.6522 270.458 23.3334 272.155 24.4389 273.555C25.5445 274.954 27.6558 275.526 29.1545 274.832C30.6533 274.137 30.9721 272.44 29.8666 271.041C28.761 269.641 26.6498 269.07 25.151 269.764Z" fill="white" fill-opacity="0.28"/>
</g>
<path d="M590 182.044L559.558 199.629V226.009L590 208.433V182.044Z" fill="#FFBB01"/>
<path d="M590 182.044L559.558 199.629V226.009L590 208.433V182.044Z" fill="black" fill-opacity="0.07"/>
<path d="M529.061 181.974L559.558 199.63V226.128L529.061 208.52V181.974Z" fill="#FFBB01"/>
<path d="M529.061 181.974L559.558 199.63V226.128L529.061 208.52V181.974Z" fill="black" fill-opacity="0.33"/>
<path d="M559.503 164.553L529.061 182.129L559.558 199.631L590 182.055L559.503 164.553Z" fill="#FFBB01"/>
<path d="M403.841 232.679L351.118 263.134V308.821L403.841 278.381V232.679Z" fill="#4900E6"/>
<path d="M403.841 232.679L351.118 263.134V308.821L403.841 278.382V232.679Z" fill="black" fill-opacity="0.07"/>
<path d="M298.301 232.557L351.118 263.137V309.027L298.301 278.533V232.557Z" fill="#4900E6"/>
<path d="M298.301 232.557L351.118 263.137V309.027L298.301 278.533V232.557Z" fill="black" fill-opacity="0.33"/>
<path d="M351.023 202.386L298.301 232.826L351.118 263.137L403.841 232.698L351.023 202.386Z" fill="#4900E6"/>
<g opacity="0.1">
<path d="M325.194 235.016L347.006 247.772C347.959 248.33 349.503 248.329 350.455 247.77L352.938 246.312C353.991 247.421 355.043 247.543 355.043 247.543L353.045 248.716C350.664 250.115 346.801 250.118 344.418 248.724L323.576 236.534C321.192 235.14 321.19 232.876 323.571 231.478L326.62 229.687C326.2 230.674 326.623 232.153 326.623 232.153L325.193 232.993C324.24 233.552 324.241 234.458 325.194 235.016Z" fill="black"/>
<path d="M376.027 230.727L354.216 217.97C353.263 217.412 351.719 217.413 350.766 217.972L331.88 229.065C331.038 228.326 331.037 227.093 331.037 227.093L348.176 217.026C350.557 215.627 354.42 215.624 356.804 217.018L377.646 229.208C380.029 230.602 380.034 232.865 377.653 234.263L363.876 242.355C364.506 240.751 363.774 239.947 363.774 239.947L376.029 232.749C376.981 232.19 376.98 231.284 376.027 230.727Z" fill="black"/>
<mask id="mask3_1685_5546" style="mask-type:alpha" maskUnits="userSpaceOnUse" x="320" y="215" width="61" height="36">
<path d="M320.102 233.516L351.226 215.235L380.7 232.473L349.576 250.754L320.102 233.516Z" fill="white"/>
</mask>
<g mask="url(#mask3_1685_5546)">
<mask id="mask4_1685_5546" style="mask-type:alpha" maskUnits="userSpaceOnUse" x="328" y="226" width="45" height="21">
<path d="M342.598 233.589C342.965 232.99 343.663 232.473 344.296 232.115C345.326 231.533 346.63 231.087 347.96 230.819C349.291 230.55 350.654 230.457 351.806 230.598C352.782 230.719 353.971 231.074 354.34 231.882C356.281 231.229 358.137 231.352 359.344 231.634C360.727 231.958 361.86 232.597 362.612 233.401C363.364 234.205 363.724 235.163 363.55 236.131C363.422 236.837 362.943 237.765 361.771 238.557C362.365 238.787 362.838 239.081 363.191 239.382C364.146 240.196 364.605 241.318 364.552 242.535C364.498 243.752 363.934 245.012 362.895 246.094C362.754 246.242 362.596 246.393 362.422 246.545L366.917 238.967C368.224 237.996 373.668 239.317 372.301 235.153C369.86 228.057 365.217 226.916 359.502 226.733C355.207 226.595 346.746 229.518 341.641 231.282C339.953 231.865 338.632 232.321 337.95 232.498C335.754 233.068 330.47 233.012 329.005 228.225C327.082 234.767 333.958 234.838 336.96 234.749C337.88 234.722 339.466 234.341 341.38 233.881C341.773 233.786 342.18 233.688 342.598 233.589Z" fill="white"/>
</mask>
<g mask="url(#mask4_1685_5546)">
<rect width="41.1899" height="35.976" transform="matrix(0.86227 -0.506449 0.863198 0.504866 316.419 233.996)" fill="black"/>
</g>
</g>
<mask id="mask5_1685_5546" style="mask-type:alpha" maskUnits="userSpaceOnUse" x="323" y="216" width="58" height="35">
<path d="M323.47 234.007L352.492 216.961L380.281 233.215L351.26 250.26L323.47 234.007Z" fill="white"/>
</mask>
<g mask="url(#mask5_1685_5546)">
<path d="M352.617 233.029C352.689 233.605 351.322 234.379 349.565 234.758C347.808 235.136 346.325 234.974 346.253 234.398C346.181 233.821 347.548 233.047 349.305 232.669C351.062 232.291 352.545 232.452 352.617 233.029Z" fill="black"/>
<path d="M359.311 237.664C357.962 238.231 356.074 237.813 355.095 236.73C354.115 235.646 354.415 234.308 355.763 233.74C357.112 233.173 359 233.591 359.979 234.675C360.959 235.758 360.659 237.096 359.311 237.664Z" fill="black"/>
<path d="M354.26 243.141C354.105 244.907 355.492 246.114 357.358 245.835C359.224 245.557 360.863 243.899 361.018 242.133C361.173 240.366 359.786 239.16 357.92 239.438C356.054 239.717 354.415 241.374 354.26 243.141Z" fill="black"/>
<path d="M352.617 233.029C352.689 233.605 351.322 234.379 349.565 234.758C347.808 235.136 346.325 234.974 346.253 234.398C346.181 233.821 347.548 233.047 349.305 232.669C351.062 232.291 352.545 232.452 352.617 233.029Z" fill="black"/>
<path d="M359.311 237.664C357.962 238.231 356.074 237.813 355.095 236.73C354.115 235.646 354.415 234.308 355.763 233.74C357.112 233.173 359 233.591 359.979 234.675C360.959 235.758 360.659 237.096 359.311 237.664Z" fill="black"/>
<path d="M354.26 243.141C354.105 244.907 355.492 246.114 357.358 245.835C359.224 245.557 360.863 243.899 361.018 242.133C361.173 240.366 359.786 239.16 357.92 239.438C356.054 239.717 354.415 241.374 354.26 243.141Z" fill="black"/>
</g>
</g>
<path d="M429.49 90.1011L390.464 112.644V146.463L429.49 123.931V90.1011Z" fill="#FFBB01"/>
<path d="M429.49 90.1011L390.464 112.644V146.463L429.49 123.931V90.1011Z" fill="black" fill-opacity="0.07"/>
<path d="M351.367 90.0105L390.464 112.646V146.615L351.367 124.043V90.0105Z" fill="#FFBB01"/>
<path d="M351.367 90.0105L390.464 112.646V146.615L351.367 124.043V90.0105Z" fill="black" fill-opacity="0.33"/>
<path d="M390.393 67.6771L351.367 90.2091L390.464 112.646L429.49 90.1145L390.393 67.6771Z" fill="#FFBB01"/>
<g opacity="0.1">
<path d="M372.75 91.7362L387.583 100.412C388.536 100.969 390.081 100.968 391.033 100.409L392.353 99.6333C393.116 100.436 393.877 100.524 393.877 100.524L393.622 100.674C391.241 102.073 387.378 102.076 384.994 100.682L372.294 93.2536C369.91 91.8594 369.909 89.5951 372.29 88.1966L373.305 87.6002C373.001 88.3146 373.307 89.3854 373.307 89.3854L372.748 89.7136C371.796 90.273 371.796 91.1785 372.75 91.7362Z" fill="black"/>
<path d="M408.588 88.074L393.755 79.3987C392.802 78.8411 391.259 78.8412 390.307 79.4006L377.112 87.1504C376.502 86.6154 376.502 85.7227 376.502 85.7227L387.716 79.136C390.097 77.7375 393.96 77.7339 396.343 79.1281L409.044 86.5566C411.428 87.9508 411.431 90.2141 409.05 91.6126L400.27 96.7696C400.726 95.6088 400.197 95.0265 400.197 95.0265L408.59 90.0966C409.542 89.5372 409.541 88.6316 408.588 88.074Z" fill="black"/>
<mask id="mask6_1685_5546" style="mask-type:alpha" maskUnits="userSpaceOnUse" x="368" y="77" width="45" height="26">
<path d="M368.588 90.3716L391.116 77.1401L412.448 89.6172L389.921 102.849L368.588 90.3716Z" fill="white"/>
</mask>
<g mask="url(#mask6_1685_5546)">
<mask id="mask7_1685_5546" style="mask-type:alpha" maskUnits="userSpaceOnUse" x="374" y="85" width="33" height="15">
<path d="M384.87 90.4251C385.136 89.9911 385.64 89.6171 386.098 89.358C386.844 88.9365 387.788 88.6141 388.751 88.4197C389.714 88.2252 390.701 88.1575 391.534 88.2601C392.241 88.3471 393.102 88.6041 393.369 89.1891C394.774 88.7164 396.117 88.8053 396.99 89.0099C397.991 89.2445 398.812 89.7067 399.356 90.2887C399.9 90.8707 400.161 91.5643 400.034 92.2649C399.942 92.7759 399.595 93.4472 398.747 94.0208C399.177 94.1867 399.519 94.3999 399.775 94.6176C400.466 95.2065 400.798 96.0185 400.759 96.8994C400.721 97.7802 400.312 98.6923 399.56 99.476C399.458 99.5827 399.344 99.692 399.218 99.8018L402.472 94.317C403.417 93.6143 407.358 94.5705 406.368 91.557C404.601 86.4204 401.241 85.5947 397.104 85.4622C393.996 85.3627 387.872 87.4783 384.177 88.7547C382.955 89.1768 381.999 89.5072 381.506 89.6353C379.916 90.0478 376.092 90.0071 375.032 86.5426C373.639 91.2773 378.616 91.3286 380.789 91.2645C381.455 91.2449 382.603 90.9688 383.988 90.6359C384.273 90.5674 384.567 90.4966 384.87 90.4251Z" fill="white"/>
</mask>
<g mask="url(#mask7_1685_5546)">
<rect width="29.8127" height="26.0389" transform="matrix(0.86227 -0.506449 0.863198 0.504866 365.921 90.7192)" fill="black"/>
</g>
</g>
<mask id="mask8_1685_5546" style="mask-type:alpha" maskUnits="userSpaceOnUse" x="371" y="78" width="42" height="25">
<path d="M371.024 90.7268L392.03 78.3893L412.144 90.1535L391.138 102.491L371.024 90.7268Z" fill="white"/>
</mask>
<g mask="url(#mask8_1685_5546)">
<path d="M392.121 90.0189C392.173 90.4364 391.184 90.9967 389.912 91.2703C388.64 91.5439 387.567 91.4273 387.515 91.0098C387.463 90.5924 388.452 90.0321 389.724 89.7585C390.995 89.4848 392.069 89.6014 392.121 90.0189Z" fill="black"/>
<path d="M396.966 93.3739C395.989 93.7846 394.623 93.4818 393.914 92.6976C393.205 91.9135 393.422 90.9448 394.398 90.5341C395.374 90.1233 396.741 90.4261 397.45 91.2103C398.159 91.9945 397.942 92.9631 396.966 93.3739Z" fill="black"/>
<path d="M393.31 97.338C393.198 98.6166 394.202 99.4896 395.552 99.2881C396.903 99.0866 398.089 97.8868 398.201 96.6082C398.314 95.3297 397.31 94.4566 395.959 94.6581C394.608 94.8597 393.422 96.0595 393.31 97.338Z" fill="black"/>
<path d="M392.121 90.0189C392.173 90.4364 391.184 90.9967 389.912 91.2703C388.64 91.5439 387.567 91.4273 387.515 91.0098C387.463 90.5924 388.452 90.0321 389.724 89.7585C390.995 89.4848 392.069 89.6014 392.121 90.0189Z" fill="black"/>
<path d="M396.966 93.3739C395.989 93.7846 394.623 93.4818 393.914 92.6976C393.205 91.9135 393.422 90.9448 394.398 90.5341C395.374 90.1233 396.741 90.4261 397.45 91.2103C398.159 91.9945 397.942 92.9631 396.966 93.3739Z" fill="black"/>
<path d="M393.31 97.338C393.198 98.6166 394.202 99.4896 395.552 99.2881C396.903 99.0866 398.089 97.8868 398.201 96.6082C398.314 95.3297 397.31 94.4566 395.959 94.6581C394.608 94.8597 393.422 96.0595 393.31 97.338Z" fill="black"/>
</g>
</g>
<path d="M187.98 102.5L149.504 124.725V158.067L187.98 135.853V102.5Z" fill="#4900E6"/>
<path d="M187.98 102.5L149.504 124.725V158.067L187.98 135.853V102.5Z" fill="black" fill-opacity="0.07"/>
<path d="M110.958 102.411L149.504 124.727V158.218L110.958 135.963V102.411Z" fill="#4900E6"/>
<path d="M110.958 102.411L149.504 124.727V158.218L110.958 135.963V102.411Z" fill="black" fill-opacity="0.33"/>
<path d="M149.435 80.3921L110.958 102.607L149.504 124.728L187.98 102.513L149.435 80.3921Z" fill="#4900E6"/>
<defs>
<filter id="filter0_f_1685_5546" x="57" y="260" width="183" height="120.787" filterUnits="userSpaceOnUse" color-interpolation-filters="sRGB">
<feFlood flood-opacity="0" result="BackgroundImageFix"/>
<feBlend mode="normal" in="SourceGraphic" in2="BackgroundImageFix" result="shape"/>
<feGaussianBlur stdDeviation="5" result="effect1_foregroundBlur_1685_5546"/>
</filter>
<filter id="filter1_f_1685_5546" x="339" y="268" width="187.5" height="110.787" filterUnits="userSpaceOnUse" color-interpolation-filters="sRGB">
<feFlood flood-opacity="0" result="BackgroundImageFix"/>
<feBlend mode="normal" in="SourceGraphic" in2="BackgroundImageFix" result="shape"/>
<feGaussianBlur stdDeviation="5" result="effect1_foregroundBlur_1685_5546"/>
</filter>
<filter id="filter2_f_1685_5546" x="548" y="198.5" width="182" height="97.2866" filterUnits="userSpaceOnUse" color-interpolation-filters="sRGB">
<feFlood flood-opacity="0" result="BackgroundImageFix"/>
<feBlend mode="normal" in="SourceGraphic" in2="BackgroundImageFix" result="shape"/>
<feGaussianBlur stdDeviation="5" result="effect1_foregroundBlur_1685_5546"/>
</filter>
<filter id="filter3_f_1685_5546" x="379" y="114" width="182" height="102.287" filterUnits="userSpaceOnUse" color-interpolation-filters="sRGB">
<feFlood flood-opacity="0" result="BackgroundImageFix"/>
<feBlend mode="normal" in="SourceGraphic" in2="BackgroundImageFix" result="shape"/>
<feGaussianBlur stdDeviation="5" result="effect1_foregroundBlur_1685_5546"/>
</filter>
<filter id="filter4_f_1685_5546" x="139.5" y="125" width="168.5" height="97.2866" filterUnits="userSpaceOnUse" color-interpolation-filters="sRGB">
<feFlood flood-opacity="0" result="BackgroundImageFix"/>
<feBlend mode="normal" in="SourceGraphic" in2="BackgroundImageFix" result="shape"/>
<feGaussianBlur stdDeviation="5" result="effect1_foregroundBlur_1685_5546"/>
</filter>
<linearGradient id="paint0_linear_1685_5546" x1="57.5" y1="289.5" x2="110" y2="354" gradientUnits="userSpaceOnUse">
<stop stop-color="#242424"/>
<stop offset="1" stop-color="#C4C4C4" stop-opacity="0"/>
</linearGradient>
<linearGradient id="paint1_linear_1685_5546" x1="339.5" y1="287.5" x2="392" y2="352" gradientUnits="userSpaceOnUse">
<stop stop-color="#242424"/>
<stop offset="1" stop-color="#C4C4C4" stop-opacity="0"/>
</linearGradient>
<linearGradient id="paint2_linear_1685_5546" x1="548.5" y1="204.5" x2="601" y2="269" gradientUnits="userSpaceOnUse">
<stop stop-color="#242424"/>
<stop offset="1" stop-color="#C4C4C4" stop-opacity="0"/>
</linearGradient>
<linearGradient id="paint3_linear_1685_5546" x1="379.5" y1="125" x2="432" y2="189.5" gradientUnits="userSpaceOnUse">
<stop stop-color="#242424"/>
<stop offset="1" stop-color="#C4C4C4" stop-opacity="0"/>
</linearGradient>
<linearGradient id="paint4_linear_1685_5546" x1="126.5" y1="131" x2="179" y2="195.5" gradientUnits="userSpaceOnUse">
<stop stop-color="#242424"/>
<stop offset="1" stop-color="#C4C4C4" stop-opacity="0"/>
</linearGradient>
</defs>
</svg>
