<svg width="1175" height="740" viewBox="0 0 1175 740" fill="none" xmlns="http://www.w3.org/2000/svg">
<path d="M265 576.403L282.913 586.5V564.679L265 576.403Z" fill="#363C45"/>
<path d="M300.5 576.403L282.913 586.5V564.679L300.5 576.403Z" fill="#4C5460"/>
<path d="M473 589.514L498.229 603.734V573L473 589.514Z" fill="#363C45"/>
<path d="M523 589.514L498.229 603.734V573L523 589.514Z" fill="#4C5460"/>
<path d="M724 588.826L752.762 605.037V570L724 588.826Z" fill="#363C45"/>
<path d="M781 588.826L752.761 605.037V570L781 588.826Z" fill="#4C5460"/>
<path d="M847 533.492L867.613 545.11V520L847 533.492Z" fill="#363C45"/>
<path d="M887.851 533.492L867.613 545.11V520L887.851 533.492Z" fill="#4C5460"/>
<path d="M985 503.453L957.436 519.375V543.261L985 527.347V503.453Z" fill="#4900E6"/>
<path d="M985 503.453L957.436 519.375V543.261L985 527.347V503.453Z" fill="black" fill-opacity="0.07"/>
<path d="M929.821 503.389L957.435 519.376V543.369L929.821 527.426V503.389Z" fill="#4900E6"/>
<path d="M929.821 503.388L957.435 519.376V543.368L929.821 527.425V503.388Z" fill="black" fill-opacity="0.33"/>
<path d="M957.386 487.614L929.821 503.529L957.436 519.376L985 503.462L957.386 487.614Z" fill="#4900E6"/>
<path d="M937 492.583L893.055 517.967V556.048L937 530.677V492.583Z" fill="#4900E6"/>
<path d="M937 492.583L893.055 517.967V556.048L937 530.677V492.583Z" fill="black" fill-opacity="0.07"/>
<path d="M849.03 492.48L893.055 517.969V556.219L849.03 530.802V492.48Z" fill="#4900E6"/>
<path d="M849.03 492.48L893.055 517.969V556.219L849.03 530.802V492.48Z" fill="black" fill-opacity="0.33"/>
<path d="M892.976 467.333L849.03 492.704L893.055 517.97L937 492.598L892.976 467.333Z" fill="#4900E6"/>
<path d="M892.976 467.333L849.03 492.704L893.055 517.97L937 492.598L892.976 467.333Z" fill="white" fill-opacity="0.14"/>
<path d="M865.775 466.31L779.466 516.166V590.958L865.775 541.127V466.31Z" fill="#4900E6"/>
<path d="M865.775 466.31L779.466 516.166V590.958L865.775 541.127V466.31Z" fill="black" fill-opacity="0.15"/>
<path d="M693.001 466.11L779.466 516.17V591.295L693.001 541.374V466.11Z" fill="#4900E6"/>
<path d="M693.001 466.109L779.466 516.169V591.294L693.001 541.373V466.109Z" fill="black" fill-opacity="0.33"/>
<path d="M779.31 416.718L693.001 466.549L779.466 516.171L865.775 466.34L779.31 416.718Z" fill="#4900E6"/>
<path d="M779.31 416.718L693.001 466.549L779.466 516.171L865.775 466.34L779.31 416.718Z" fill="white" fill-opacity="0.15"/>
<path d="M606 462.563L519.119 512.749V588.037L606 537.876V462.563Z" fill="#4900E6"/>
<path d="M606 462.563L519.119 512.749V588.037L606 537.876V462.563Z" fill="black" fill-opacity="0.07"/>
<path d="M432.081 462.362L519.119 512.754V588.376L432.081 538.125V462.362Z" fill="#4900E6"/>
<path d="M432.081 462.361L519.119 512.753V588.375L432.081 538.124V462.361Z" fill="black" fill-opacity="0.33"/>
<path d="M518.962 412.643L432.081 462.804L519.119 512.755L606 462.594L518.962 412.643Z" fill="#4900E6"/>
<path d="M684.833 501.132L628.467 533.691V582.535L684.833 549.992V501.132Z" fill="#4900E6"/>
<path d="M684.833 501.132L628.467 533.691V582.535L684.833 549.992V501.132Z" fill="black" fill-opacity="0.07"/>
<path d="M572 501.001L628.467 533.693V582.755L572 550.153V501.001Z" fill="#4900E6"/>
<path d="M572 501L628.467 533.693V582.754L572 550.153V501Z" fill="black" fill-opacity="0.33"/>
<path d="M628.366 468.745L572 501.288L628.467 533.694L684.833 501.151L628.366 468.745Z" fill="#4900E6"/>
<path d="M621.833 551.132L565.467 583.691V632.535L621.833 599.992V551.132Z" fill="#4900E6"/>
<path d="M621.833 551.132L565.467 583.691V632.535L621.833 599.992V551.132Z" fill="black" fill-opacity="0.07"/>
<path d="M509 551.001L565.467 583.693V632.755L509 600.153V551.001Z" fill="#4900E6"/>
<path d="M509 551L565.467 583.693V632.754L509 600.153V551Z" fill="black" fill-opacity="0.33"/>
<path d="M565.366 518.745L509 551.288L565.467 583.694L621.833 551.151L565.366 518.745Z" fill="#4900E6"/>
<path d="M565.366 518.745L509 551.288L565.467 583.694L621.833 551.151L565.366 518.745Z" fill="white" fill-opacity="0.13"/>
<path d="M762.246 540.654L676.201 590.357V664.92L762.246 615.241V540.654Z" fill="#4900E6"/>
<path d="M762.246 540.654L676.201 590.357V664.92L762.246 615.241V540.654Z" fill="black" fill-opacity="0.19"/>
<path d="M590 540.454L676.2 590.361V665.256L590 615.488V540.454Z" fill="#4900E6"/>
<path d="M590 540.454L676.2 590.36V665.255L590 615.487V540.454Z" fill="black" fill-opacity="0.33"/>
<path d="M676.046 491.214L590 540.892L676.201 590.361L762.246 540.683L676.046 491.214Z" fill="#4900E6"/>
<path d="M676.046 491.214L590 540.892L676.201 590.361L762.246 540.683L676.046 491.214Z" fill="white" fill-opacity="0.19"/>
<g opacity="0.2" filter="url(#filter0_f_1688_5905)">
<path d="M545.5 563.806L518 545L566.5 516.593L600 527.899L545.5 563.806Z" fill="url(#paint0_linear_1688_5905)"/>
</g>
<g opacity="0.2" filter="url(#filter1_f_1688_5905)">
<path d="M756.5 518.806L729 500L799 459L832.5 470.306L756.5 518.806Z" fill="url(#paint1_linear_1688_5905)"/>
</g>
<path d="M800.18 381.957L709.672 434.238V512.668L800.18 460.413V381.957Z" fill="#4900E6"/>
<path d="M800.18 381.957L709.672 434.238V512.668L800.18 460.413V381.957Z" fill="black" fill-opacity="0.19"/>
<path d="M619.001 381.747L709.672 434.242V513.021L619.001 460.672V381.747Z" fill="#4900E6"/>
<path d="M619.001 381.746L709.672 434.241V513.02L619.001 460.671V381.746Z" fill="black" fill-opacity="0.33"/>
<path d="M709.509 329.952L619.001 382.207L709.672 434.242L800.18 381.988L709.509 329.952Z" fill="#4900E6"/>
<path d="M639.179 392.711L558.513 439.306V509.207L639.179 462.635V392.711Z" fill="#FFBB01"/>
<path d="M639.179 392.711L558.513 439.306V509.207L639.179 462.635V392.711Z" fill="black" fill-opacity="0.07"/>
<path d="M477.702 392.523L558.513 439.31V509.522L477.702 462.866V392.523Z" fill="#FFBB01"/>
<path d="M477.702 392.523L558.513 439.309V509.522L477.702 462.865V392.523Z" fill="black" fill-opacity="0.33"/>
<path d="M502.989 431.446V455.014C502.989 456.118 503.764 457.461 504.721 458.013L506.968 459.311C506.571 460.689 506.968 461.608 506.968 461.608L505.33 460.662C502.939 459.281 501 455.923 501 453.162V431C501 428.239 502.939 427.119 505.33 428.5L507.963 430.02C506.968 430.135 505.974 431.169 505.974 431.169L504.722 430.446C503.765 429.894 502.989 430.341 502.989 431.446Z" fill="white"/>
<path d="M530.445 470.864V447.297C530.445 446.193 529.673 444.852 528.717 444.3L510.947 434.04C511.146 433.007 512.141 432.432 512.141 432.432L528.104 441.648C530.495 443.029 532.434 446.387 532.434 449.148V471.31C532.434 474.072 530.498 475.193 528.107 473.812L515.324 466.433C516.916 466.203 517.22 465.229 517.22 465.229L528.713 471.864C529.669 472.417 530.445 471.969 530.445 470.864Z" fill="white"/>
<mask id="mask0_1688_5905" style="mask-type:alpha" maskUnits="userSpaceOnUse" x="501" y="426" width="31" height="50">
<path d="M501.797 426.46L531.241 443.46V475.622L501.797 458.622V426.46Z" fill="white"/>
</mask>
<g mask="url(#mask0_1688_5905)">
<mask id="mask1_1688_5905" style="mask-type:alpha" maskUnits="userSpaceOnUse" x="506" y="431" width="23" height="40">
<path d="M512.356 444.924C513.013 444.947 513.759 445.277 514.347 445.63C515.303 446.203 516.278 447.064 517.123 448.029C517.968 448.994 518.687 450.068 519.116 451.077C519.48 451.933 519.755 453.072 519.277 453.75C520.72 455.037 521.497 456.615 521.838 457.734C522.229 459.018 522.249 460.244 521.955 461.234C521.661 462.224 521.057 462.964 520.194 463.271C519.564 463.495 518.589 463.533 517.396 462.942C517.492 463.535 517.477 464.06 517.401 464.489C517.195 465.649 516.507 466.547 515.499 467.069C514.492 467.591 513.208 467.714 511.844 467.367C511.659 467.32 511.462 467.261 511.258 467.188L519.495 467.348C520.896 467.967 522.399 473.042 525.114 469.986C529.689 464.686 528.418 460.352 525.868 455.585C523.952 452.002 517.599 446.43 513.767 443.068C512.499 441.956 511.507 441.086 511.043 440.609C509.546 439.075 507.097 434.72 510.269 431.295C504.082 432.76 507.27 438.426 508.759 440.844C509.215 441.585 510.271 442.708 511.546 444.062C511.808 444.34 512.079 444.628 512.356 444.924Z" fill="white"/>
</mask>
<g mask="url(#mask1_1688_5905)">
<rect width="38.7974" height="33.8864" transform="matrix(0.866025 0.5 0 1 499.671 423.666)" fill="white"/>
</g>
</g>
<mask id="mask2_1688_5905" style="mask-type:alpha" maskUnits="userSpaceOnUse" x="502" y="429" width="29" height="47">
<path d="M502.989 429.447L530.444 445.298V475.622L502.989 459.771V429.447Z" fill="white"/>
</mask>
<g mask="url(#mask2_1688_5905)">
<path d="M517.536 452.871C517.105 453.198 515.835 452.438 514.7 451.174C513.566 449.91 512.996 448.621 513.427 448.294C513.859 447.967 515.129 448.726 516.263 449.99C517.398 451.254 517.968 452.544 517.536 452.871Z" fill="#4900E6"/>
<path d="M516.955 460.51C515.86 459.669 515.307 457.928 515.719 456.622C516.131 455.315 517.352 454.938 518.447 455.78C519.542 456.621 520.095 458.362 519.683 459.668C519.271 460.974 518.05 461.351 516.955 460.51Z" fill="#4900E6"/>
<path d="M510.151 458.919C508.652 459.613 508.333 461.31 509.439 462.71C510.545 464.109 512.656 464.681 514.155 463.986C515.653 463.292 515.972 461.595 514.867 460.196C513.761 458.796 511.65 458.225 510.151 458.919Z" fill="#4900E6"/>
<path d="M517.536 452.871C517.105 453.198 515.835 452.438 514.7 451.174C513.566 449.91 512.996 448.621 513.427 448.294C513.859 447.967 515.129 448.726 516.263 449.99C517.398 451.254 517.968 452.544 517.536 452.871Z" fill="white" fill-opacity="0.28"/>
<path d="M516.955 460.51C515.86 459.669 515.307 457.928 515.719 456.622C516.131 455.315 517.352 454.938 518.447 455.78C519.542 456.621 520.095 458.362 519.683 459.668C519.271 460.974 518.05 461.351 516.955 460.51Z" fill="white" fill-opacity="0.28"/>
<path d="M510.151 458.919C508.652 459.613 508.333 461.31 509.439 462.71C510.545 464.109 512.656 464.681 514.155 463.986C515.653 463.292 515.972 461.595 514.867 460.196C513.761 458.796 511.65 458.225 510.151 458.919Z" fill="white" fill-opacity="0.28"/>
</g>
<path d="M558.368 346.362L477.702 392.934L558.513 439.311L639.179 392.738L558.368 346.362Z" fill="#FFBB01"/>
<g opacity="0.2" filter="url(#filter2_f_1688_5905)">
<path d="M686.5 572.806L659 554L729 513L762.5 524.306L686.5 572.806Z" fill="url(#paint2_linear_1688_5905)"/>
</g>
<path d="M753.18 423.957L662.672 476.238V554.668L753.18 502.413V423.957Z" fill="#4900E6"/>
<path d="M753.18 423.957L662.672 476.238V554.668L753.18 502.413V423.957Z" fill="black" fill-opacity="0.16"/>
<path d="M690.725 489.171V513.555C690.725 514.66 691.488 515.087 692.43 514.51L694.758 513.084C694.355 514.986 694.758 515.448 694.758 515.448L692.971 516.544C690.617 517.986 688.708 516.917 688.708 514.156V491.042C688.708 488.281 690.617 484.872 692.971 483.429L695.767 481.716C694.758 483.044 693.75 485.318 693.75 485.318L692.43 486.126C691.488 486.704 690.725 488.067 690.725 489.171Z" fill="white"/>
<path d="M718.556 496.5V472.117C718.556 471.012 717.794 470.583 716.853 471.16L698.792 482.228C698.993 480.922 700.002 479.121 700.002 479.121L716.309 469.128C718.664 467.685 720.572 468.754 720.572 471.515V494.63C720.572 497.391 718.665 500.799 716.31 502.241L703.229 510.258C704.842 508.087 705.15 506.715 705.15 506.715L716.85 499.545C717.792 498.968 718.556 497.605 718.556 496.5Z" fill="white"/>
<mask id="mask3_1688_5905" style="mask-type:alpha" maskUnits="userSpaceOnUse" x="689" y="467" width="31" height="52">
<path d="M689.515 485.547L719.362 467.257V500.371L689.515 518.661V485.547Z" fill="white"/>
</mask>
<g mask="url(#mask3_1688_5905)">
<mask id="mask4_1688_5905" style="mask-type:alpha" maskUnits="userSpaceOnUse" x="694" y="480" width="23" height="36">
<path d="M700.219 491.724C700.885 490.948 701.641 490.382 702.237 490.03C703.206 489.458 704.195 489.159 705.051 489.126C705.907 489.093 706.636 489.324 707.071 489.841C707.44 490.28 707.719 491.119 707.234 492.399C708.697 491.969 709.485 492.649 709.831 493.387C710.227 494.233 710.247 495.471 709.949 496.847C709.651 498.224 709.04 499.72 708.164 501.086C707.525 502.082 706.537 503.307 705.328 504.148C705.425 504.642 705.411 505.2 705.333 505.734C705.125 507.18 704.427 508.941 703.405 510.703C702.384 512.465 701.083 514.152 699.7 515.453C699.512 515.63 699.313 515.808 699.106 515.982L707.456 506.133C708.875 505.068 710.4 508.465 713.151 502.018C717.789 491.001 716.501 488.083 713.916 486.274C711.974 484.915 705.534 486.9 701.649 488.097C700.364 488.493 699.359 488.803 698.887 488.878C697.371 489.117 694.888 487.61 698.103 480.228C691.831 489.258 695.063 491.216 696.572 491.897C697.035 492.105 698.106 491.976 699.398 491.821C699.663 491.789 699.938 491.756 700.219 491.724Z" fill="white"/>
</mask>
<g mask="url(#mask4_1688_5905)">
<rect width="39.946" height="34.8896" transform="matrix(0.85264 -0.522498 0 1 687.358 485.257)" fill="white"/>
</g>
</g>
<mask id="mask5_1688_5905" style="mask-type:alpha" maskUnits="userSpaceOnUse" x="690" y="470" width="29" height="49">
<path d="M690.726 487.172L718.557 470.117V501.339L690.726 518.394V487.172Z" fill="white"/>
</mask>
<g mask="url(#mask5_1688_5905)">
<path d="M705.472 493.605C705.035 494.467 703.748 495.228 702.598 495.306C701.448 495.384 700.87 494.749 701.308 493.888C701.745 493.026 703.032 492.265 704.182 492.187C705.332 492.109 705.91 492.744 705.472 493.605Z" fill="#FFBB01"/>
<path d="M704.883 502.177C703.774 502.642 703.213 501.522 703.63 499.676C704.048 497.831 705.286 495.958 706.396 495.493C707.505 495.029 708.066 496.148 707.649 497.994C707.231 499.84 705.993 501.713 704.883 502.177Z" fill="#FFBB01"/>
<path d="M697.986 508.81C696.467 511.347 696.144 513.482 697.264 513.579C698.385 513.676 700.525 511.698 702.045 509.161C703.564 506.624 703.887 504.489 702.766 504.392C701.646 504.295 699.505 506.273 697.986 508.81Z" fill="#FFBB01"/>
</g>
<path d="M572.001 423.747L662.672 476.242V555.021L572.001 502.672V423.747Z" fill="#4900E6"/>
<path d="M572.001 423.746L662.672 476.241V555.02L572.001 502.671V423.746Z" fill="black" fill-opacity="0.33"/>
<path d="M662.509 371.952L572.001 424.207L662.672 476.242L753.18 423.988L662.509 371.952Z" fill="#4900E6"/>
<path d="M800.007 363.881L753.046 391.008V431.702L800.007 404.589V363.881Z" fill="#4900E6"/>
<path d="M800.007 363.881L753.046 391.008V431.702L800.007 404.589V363.881Z" fill="black" fill-opacity="0.11"/>
<path d="M706 363.772L753.046 391.01V431.885L706 404.723V363.772Z" fill="#4900E6"/>
<path d="M706 363.772L753.046 391.01V431.885L706 404.723V363.772Z" fill="black" fill-opacity="0.33"/>
<path d="M752.961 336.898L706 364.011L753.046 391.01L800.007 363.897L752.961 336.898Z" fill="#4900E6"/>
<g opacity="0.2" filter="url(#filter3_f_1688_5905)">
<path d="M610.5 448.806L583 430L653 389L686.5 400.306L610.5 448.806Z" fill="url(#paint3_linear_1688_5905)"/>
</g>
<path d="M651.139 333.705L584.13 372.411V430.478L651.139 391.791V333.705Z" fill="#FFBB01"/>
<path d="M651.139 333.705L584.13 372.411V430.478L651.139 391.791V333.705Z" fill="black" fill-opacity="0.07"/>
<path d="M517 333.549L584.13 372.414V430.74L517 391.982V333.549Z" fill="#FFBB01"/>
<path d="M517 333.548L584.13 372.414V430.739L517 391.982V333.548Z" fill="black" fill-opacity="0.33"/>
<path d="M584.009 295.202L517 333.89L584.13 372.415L651.139 333.727L584.009 295.202Z" fill="#FFBB01"/>
<g opacity="0.2" filter="url(#filter4_f_1688_5905)">
<path d="M673.5 473.5L657.663 460.754L726.2 420.611L749 430L673.5 473.5Z" fill="url(#paint4_linear_1688_5905)"/>
</g>
<path d="M726.336 366.472L660.728 404.37V461.223L726.336 423.344V366.472Z" fill="#4900E6"/>
<path d="M726.336 366.472L660.728 404.37V461.223L726.336 423.344V366.472Z" fill="black" fill-opacity="0.07"/>
<path d="M595 366.319L660.727 404.372V461.479L595 423.531V366.319Z" fill="#4900E6"/>
<path d="M595 366.318L660.727 404.372V461.478L595 423.531V366.318Z" fill="black" fill-opacity="0.33"/>
<path d="M660.609 328.773L595.001 366.653L660.728 404.372L726.336 366.493L660.609 328.773Z" fill="#4900E6"/>
<path d="M743.139 264.705L676.13 303.411V361.478L743.139 322.791V264.705Z" fill="#4900E6"/>
<path d="M743.139 264.705L676.13 303.411V361.478L743.139 322.791V264.705Z" fill="black" fill-opacity="0.07"/>
<path d="M609 264.549L676.13 303.414V361.74L609 322.982V264.549Z" fill="#4900E6"/>
<path d="M609 264.548L676.13 303.414V361.739L609 322.982V264.548Z" fill="black" fill-opacity="0.33"/>
<path d="M676.009 226.202L609 264.89L676.13 303.415L743.139 264.727L676.009 226.202Z" fill="#4900E6"/>
<path d="M613.885 288.517L575.692 310.578V343.675L613.885 321.624V288.517Z" fill="#FFBB01"/>
<path d="M613.885 288.517L575.692 310.578V343.675L613.885 321.624V288.517Z" fill="black" fill-opacity="0.07"/>
<path d="M537.43 288.428L575.692 310.58V343.824L537.43 321.733V288.428Z" fill="#FFBB01"/>
<path d="M537.43 288.428L575.692 310.58V343.824L537.43 321.733V288.428Z" fill="black" fill-opacity="0.33"/>
<path d="M575.623 266.572L537.43 288.622L575.692 310.581L613.885 288.53L575.623 266.572Z" fill="#FFBB01"/>
<path d="M699.676 287.142L646.886 317.636V363.381L699.676 332.903V287.142Z" fill="#FFBB01"/>
<path d="M699.676 287.142L646.886 317.636V363.381L699.676 332.903V287.142Z" fill="black" fill-opacity="0.07"/>
<path d="M594 287.02L646.885 317.638V363.587L594 333.054V287.02Z" fill="#FFBB01"/>
<path d="M594 287.019L646.885 317.638V363.587L594 333.053V287.019Z" fill="black" fill-opacity="0.33"/>
<path d="M646.791 256.81L594 287.288L646.886 317.638L699.676 287.16L646.791 256.81Z" fill="#FFBB01"/>
<g opacity="0.2" filter="url(#filter5_f_1688_5905)">
<path d="M714.5 417.806L687 399L757 358L790.5 369.306L714.5 417.806Z" fill="url(#paint5_linear_1688_5905)"/>
</g>
<path d="M757.139 302.705L690.13 341.411V399.478L757.139 360.791V302.705Z" fill="#4900E6"/>
<path d="M757.139 302.705L690.13 341.411V399.478L757.139 360.791V302.705Z" fill="black" fill-opacity="0.07"/>
<path d="M623 302.549L690.13 341.414V399.74L623 360.982V302.549Z" fill="#4900E6"/>
<path d="M623 302.548L690.13 341.414V399.739L623 360.982V302.548Z" fill="black" fill-opacity="0.33"/>
<path d="M690.009 264.202L623 302.89L690.13 341.415L757.139 302.727L690.009 264.202Z" fill="#4900E6"/>
<path d="M690.009 264.202L623 302.89L690.13 341.415L757.139 302.727L690.009 264.202Z" fill="white" fill-opacity="0.08"/>
<path d="M663.139 206.705L596.13 245.411V303.478L663.139 264.791V206.705Z" fill="#4900E6"/>
<path d="M663.139 206.705L596.13 245.411V303.478L663.139 264.791V206.705Z" fill="black" fill-opacity="0.07"/>
<path d="M529 206.549L596.13 245.414V303.74L529 264.982V206.549Z" fill="#4900E6"/>
<path d="M529 206.548L596.13 245.414V303.739L529 264.982V206.548Z" fill="black" fill-opacity="0.33"/>
<path d="M596.009 168.202L529 206.89L596.13 245.415L663.139 206.727L596.009 168.202Z" fill="#4900E6"/>
<path d="M616.139 209.705L549.13 248.411V306.478L616.139 267.791V209.705Z" fill="#4900E6"/>
<path d="M616.139 209.705L549.13 248.411V306.478L616.139 267.791V209.705Z" fill="black" fill-opacity="0.07"/>
<path d="M482 209.549L549.13 248.414V306.74L482 267.982V209.549Z" fill="#4900E6"/>
<path d="M482 209.548L549.13 248.414V306.739L482 267.982V209.548Z" fill="black" fill-opacity="0.33"/>
<path d="M549.009 171.202L482 209.89L549.13 248.415L616.139 209.727L549.009 171.202Z" fill="#4900E6"/>
<g opacity="0.2" filter="url(#filter6_f_1688_5905)">
<path d="M658.5 351.806L631 333L701 292L734.5 303.306L658.5 351.806Z" fill="url(#paint6_linear_1688_5905)"/>
</g>
<path d="M701.139 236.705L634.13 275.411V333.478L701.139 294.791V236.705Z" fill="#4900E6"/>
<path d="M701.139 236.705L634.13 275.411V333.478L701.139 294.791V236.705Z" fill="black" fill-opacity="0.07"/>
<path d="M567 236.549L634.13 275.414V333.74L567 294.982V236.549Z" fill="#4900E6"/>
<path d="M567 236.548L634.13 275.414V333.739L567 294.982V236.548Z" fill="black" fill-opacity="0.33"/>
<path d="M634.009 198.202L567 236.89L634.13 275.415L701.139 236.727L634.009 198.202Z" fill="#4900E6"/>
<path d="M634.009 198.202L567 236.89L634.13 275.415L701.139 236.727L634.009 198.202Z" fill="white" fill-opacity="0.16"/>
<g opacity="0.2" filter="url(#filter7_f_1688_5905)">
<path d="M610.5 267.596L583 248.789L637 218L670.5 229.306L610.5 267.596Z" fill="url(#paint7_linear_1688_5905)"/>
</g>
<path d="M637.053 178.473L588.07 206.767V249.213L637.053 220.933V178.473Z" fill="#4900E6"/>
<path d="M637.053 178.473L588.07 206.767V249.213L637.053 220.933V178.473Z" fill="black" fill-opacity="0.07"/>
<path d="M538.999 178.359L588.07 206.769V249.404L538.999 221.073V178.359Z" fill="#4900E6"/>
<path d="M538.999 178.358L588.07 206.769V249.403L538.999 221.072V178.358Z" fill="black" fill-opacity="0.33"/>
<path d="M587.982 150.328L539 178.608L588.07 206.769L637.053 178.489L587.982 150.328Z" fill="#4900E6"/>
<path d="M587.982 150.328L539 178.608L588.07 206.769L637.053 178.489L587.982 150.328Z" fill="white" fill-opacity="0.22"/>
<g opacity="0.1">
<path d="M566.951 180.237L584.389 190.436C585.342 190.993 586.887 190.992 587.839 190.433L589.593 189.403C590.464 190.32 591.334 190.421 591.334 190.421L590.428 190.953C588.047 192.351 584.185 192.355 581.801 190.961L566.061 181.755C563.677 180.361 563.675 178.097 566.057 176.698L567.831 175.656C567.484 176.472 567.833 177.695 567.833 177.695L566.949 178.214C565.997 178.774 565.998 179.679 566.951 180.237Z" fill="black"/>
<path d="M608.386 176.341L590.949 166.142C589.996 165.584 588.457 165.582 587.505 166.141L572.181 175.142C571.484 174.531 571.483 173.511 571.483 173.511L584.909 165.625C587.291 164.227 591.153 164.223 593.537 165.617L609.277 174.823C611.66 176.217 611.664 178.48 609.283 179.879L598.638 186.131C599.158 184.805 598.554 184.14 598.554 184.14L608.388 178.363C609.341 177.804 609.34 176.898 608.386 176.341Z" fill="black"/>
<mask id="mask6_1688_5905" style="mask-type:alpha" maskUnits="userSpaceOnUse" x="562" y="163" width="51" height="31">
<path d="M562.442 178.822L588.179 163.706L612.551 177.96L586.814 193.076L562.442 178.822Z" fill="white"/>
</mask>
<g mask="url(#mask6_1688_5905)">
<mask id="mask7_1688_5905" style="mask-type:alpha" maskUnits="userSpaceOnUse" x="569" y="173" width="37" height="17">
<path d="M581.043 178.882C581.347 178.387 581.923 177.959 582.447 177.663C583.298 177.182 584.377 176.813 585.477 176.591C586.577 176.369 587.704 176.292 588.657 176.409C589.464 176.508 590.447 176.802 590.752 177.47C592.357 176.93 593.892 177.032 594.889 177.266C596.033 177.534 596.971 178.062 597.592 178.727C598.214 179.391 598.512 180.184 598.367 180.984C598.262 181.568 597.865 182.335 596.897 182.99C597.388 183.18 597.779 183.423 598.071 183.672C598.861 184.345 599.24 185.273 599.196 186.279C599.152 187.285 598.685 188.327 597.826 189.223C597.709 189.344 597.579 189.469 597.435 189.595L601.152 183.329C602.232 182.526 606.735 183.618 605.604 180.175C603.585 174.307 599.746 173.364 595.02 173.213C591.469 173.099 584.473 175.516 580.252 176.974C578.856 177.456 577.763 177.834 577.199 177.98C575.384 178.451 571.014 178.405 569.803 174.447C568.213 179.856 573.898 179.915 576.381 179.841C577.141 179.819 578.453 179.504 580.035 179.123C580.361 179.045 580.697 178.964 581.043 178.882Z" fill="white"/>
</mask>
<g mask="url(#mask7_1688_5905)">
<rect width="34.0594" height="29.7481" transform="matrix(0.86227 -0.506449 0.863198 0.504866 559.396 179.219)" fill="black"/>
</g>
</g>
<mask id="mask8_1688_5905" style="mask-type:alpha" maskUnits="userSpaceOnUse" x="565" y="165" width="48" height="28">
<path d="M565.227 179.228L589.224 165.133L612.203 178.573L588.206 192.667L565.227 179.228Z" fill="white"/>
</mask>
<g mask="url(#mask8_1688_5905)">
<path d="M589.328 178.419C589.388 178.896 588.258 179.536 586.805 179.849C585.352 180.161 584.126 180.028 584.066 179.551C584.007 179.074 585.137 178.434 586.59 178.122C588.043 177.809 589.269 177.942 589.328 178.419Z" fill="black"/>
<path d="M594.863 182.252C593.748 182.721 592.187 182.375 591.377 181.479C590.567 180.584 590.815 179.477 591.93 179.008C593.046 178.538 594.606 178.884 595.416 179.78C596.226 180.676 595.979 181.783 594.863 182.252Z" fill="black"/>
<path d="M590.687 186.781C590.559 188.242 591.706 189.239 593.249 189.009C594.792 188.778 596.147 187.408 596.275 185.947C596.404 184.486 595.257 183.489 593.713 183.719C592.17 183.949 590.815 185.32 590.687 186.781Z" fill="black"/>
<path d="M589.328 178.419C589.388 178.896 588.258 179.536 586.805 179.849C585.352 180.161 584.126 180.028 584.066 179.551C584.007 179.074 585.137 178.434 586.59 178.122C588.043 177.809 589.269 177.942 589.328 178.419Z" fill="black"/>
<path d="M594.863 182.252C593.748 182.721 592.187 182.375 591.377 181.479C590.567 180.584 590.815 179.477 591.93 179.008C593.046 178.538 594.606 178.884 595.416 179.78C596.226 180.676 595.979 181.783 594.863 182.252Z" fill="black"/>
<path d="M590.687 186.781C590.559 188.242 591.706 189.239 593.249 189.009C594.792 188.778 596.147 187.408 596.275 185.947C596.404 184.486 595.257 183.489 593.713 183.719C592.17 183.949 590.815 185.32 590.687 186.781Z" fill="black"/>
</g>
</g>
<g opacity="0.2" filter="url(#filter8_f_1688_5905)">
<path d="M509.5 286.806L482 268L552 227L585.5 238.306L509.5 286.806Z" fill="url(#paint8_linear_1688_5905)"/>
</g>
<path d="M556.137 180.894L496.563 215.305V266.929L556.137 232.534V180.894Z" fill="#4900E6"/>
<path d="M556.137 180.894L496.563 215.305V266.929L556.137 232.534V180.894Z" fill="black" fill-opacity="0.07"/>
<path d="M436.883 180.755L496.564 215.308V267.162L436.883 232.705V180.755Z" fill="#4900E6"/>
<path d="M436.883 180.755L496.564 215.308V267.161L436.883 232.704V180.755Z" fill="black" fill-opacity="0.33"/>
<path d="M496.456 146.664L436.883 181.058L496.563 215.309L556.137 180.914L496.456 146.664Z" fill="#4900E6"/>
<path d="M496.456 146.664L436.883 181.058L496.563 215.309L556.137 180.914L496.456 146.664Z" fill="white" fill-opacity="0.24"/>
<g opacity="0.1">
<path d="M471.786 180.833L492.704 193.067C493.658 193.625 495.203 193.624 496.155 193.064L498.488 191.694C499.504 192.764 500.519 192.882 500.519 192.882L498.744 193.924C496.363 195.323 492.5 195.326 490.117 193.932L470.316 182.351C467.932 180.957 467.93 178.693 470.311 177.294L473.101 175.656C472.695 176.608 473.103 178.036 473.103 178.036L471.784 178.81C470.832 179.369 470.833 180.275 471.786 180.833Z" fill="black"/>
<path d="M520.701 176.624L499.782 164.389C498.829 163.832 497.286 163.831 496.334 164.391L478.175 175.057C477.362 174.344 477.361 173.154 477.361 173.154L493.742 163.532C496.124 162.134 499.986 162.13 502.37 163.524L522.171 175.105C524.554 176.5 524.558 178.763 522.177 180.161L509.04 187.877C509.647 186.33 508.942 185.554 508.942 185.554L520.702 178.646C521.655 178.087 521.654 177.181 520.701 176.624Z" fill="black"/>
<mask id="mask9_1688_5905" style="mask-type:alpha" maskUnits="userSpaceOnUse" x="466" y="161" width="60" height="35">
<path d="M466.813 179.35L496.839 161.715L525.271 178.344L495.246 195.979L466.813 179.35Z" fill="white"/>
</mask>
<g mask="url(#mask9_1688_5905)">
<mask id="mask10_1688_5905" style="mask-type:alpha" maskUnits="userSpaceOnUse" x="475" y="172" width="43" height="20">
<path d="M488.513 179.421C488.868 178.842 489.54 178.344 490.151 177.998C491.144 177.437 492.403 177.007 493.686 176.748C494.969 176.489 496.284 176.398 497.395 176.535C498.338 176.651 499.485 176.994 499.841 177.773C501.713 177.143 503.503 177.262 504.667 177.534C506.001 177.847 507.095 178.463 507.82 179.239C508.546 180.014 508.893 180.939 508.724 181.873C508.601 182.554 508.139 183.449 507.008 184.213C507.582 184.434 508.038 184.718 508.379 185.008C509.3 185.793 509.743 186.876 509.691 188.05C509.639 189.224 509.095 190.439 508.093 191.484C507.957 191.626 507.804 191.772 507.636 191.918L511.973 184.608C513.233 183.671 518.486 184.946 517.166 180.929C514.812 174.083 510.333 172.983 504.82 172.806C500.676 172.673 492.515 175.493 487.59 177.194C485.962 177.757 484.687 178.197 484.029 178.368C481.911 178.918 476.813 178.863 475.401 174.246C473.545 180.556 480.178 180.625 483.074 180.539C483.961 180.513 485.492 180.145 487.338 179.702C487.717 179.61 488.11 179.516 488.513 179.421Z" fill="white"/>
</mask>
<g mask="url(#mask10_1688_5905)">
<rect width="39.7346" height="34.7049" transform="matrix(0.86227 -0.506449 0.863198 0.504866 463.259 179.813)" fill="black"/>
</g>
</g>
<mask id="mask11_1688_5905" style="mask-type:alpha" maskUnits="userSpaceOnUse" x="470" y="163" width="55" height="33">
<path d="M470.062 179.823L498.058 163.379L524.866 179.059L496.869 195.502L470.062 179.823Z" fill="white"/>
</mask>
<g mask="url(#mask11_1688_5905)">
<path d="M498.179 178.88C498.249 179.436 496.931 180.183 495.235 180.548C493.54 180.912 492.11 180.757 492.041 180.2C491.971 179.644 493.289 178.897 494.985 178.533C496.68 178.168 498.11 178.323 498.179 178.88Z" fill="black"/>
<path d="M504.637 183.351C503.336 183.899 501.515 183.495 500.57 182.45C499.625 181.405 499.914 180.114 501.215 179.566C502.516 179.019 504.337 179.422 505.282 180.468C506.227 181.513 505.938 182.804 504.637 183.351Z" fill="black"/>
<path d="M499.765 188.635C499.615 190.339 500.953 191.502 502.753 191.234C504.554 190.965 506.134 189.366 506.284 187.662C506.434 185.958 505.096 184.794 503.295 185.063C501.495 185.332 499.914 186.931 499.765 188.635Z" fill="black"/>
<path d="M498.179 178.88C498.249 179.436 496.931 180.183 495.235 180.548C493.54 180.912 492.11 180.757 492.041 180.2C491.971 179.644 493.289 178.897 494.985 178.533C496.68 178.168 498.11 178.323 498.179 178.88Z" fill="black"/>
<path d="M504.637 183.351C503.336 183.899 501.515 183.495 500.57 182.45C499.625 181.405 499.914 180.114 501.215 179.566C502.516 179.019 504.337 179.422 505.282 180.468C506.227 181.513 505.938 182.804 504.637 183.351Z" fill="black"/>
<path d="M499.765 188.635C499.615 190.339 500.953 191.502 502.753 191.234C504.554 190.965 506.134 189.366 506.284 187.662C506.434 185.958 505.096 184.794 503.295 185.063C501.495 185.332 499.914 186.931 499.765 188.635Z" fill="black"/>
</g>
</g>
<path d="M473.253 171.538L413.68 205.95V257.573L473.253 223.179V171.538Z" fill="#4900E6"/>
<path d="M473.253 171.538L413.68 205.95V257.573L473.253 223.179V171.538Z" fill="black" fill-opacity="0.07"/>
<path d="M353.999 171.4L413.68 205.953V257.806L353.999 223.349V171.4Z" fill="#4900E6"/>
<path d="M353.999 171.399L413.68 205.952V257.806L353.999 223.349V171.399Z" fill="black" fill-opacity="0.33"/>
<path d="M413.572 137.308L353.999 171.703L413.68 205.953L473.253 171.558L413.572 137.308Z" fill="#4900E6"/>
<path d="M413.572 137.308L353.999 171.703L413.68 205.953L473.253 171.558L413.572 137.308Z" fill="white" fill-opacity="0.13"/>
<g opacity="0.1">
<path d="M396.292 172.067L411.803 181.14C412.757 181.697 414.301 181.696 415.254 181.137L416.687 180.295C417.477 181.128 418.267 181.219 418.267 181.219L417.842 181.469C415.461 182.867 411.599 182.871 409.215 181.476L395.722 173.585C393.339 172.191 393.337 169.927 395.718 168.528L396.931 167.815C396.616 168.556 396.933 169.667 396.933 169.667L396.29 170.045C395.337 170.604 395.338 171.51 396.292 172.067Z" fill="black"/>
<path d="M433.588 168.344L418.077 159.272C417.123 158.714 415.579 158.715 414.627 159.275L400.88 167.349C400.247 166.794 400.247 165.868 400.247 165.868L412.037 158.943C414.418 157.544 418.281 157.541 420.665 158.935L434.158 166.827C436.541 168.221 436.544 170.484 434.163 171.883L424.897 177.325C425.37 176.121 424.821 175.517 424.821 175.517L433.59 170.367C434.542 169.807 434.542 168.902 433.588 168.344Z" fill="black"/>
<mask id="mask12_1688_5905" style="mask-type:alpha" maskUnits="userSpaceOnUse" x="392" y="156" width="46" height="28">
<path d="M392.039 170.689L415.403 156.967L437.528 169.907L414.164 183.63L392.039 170.689Z" fill="white"/>
</mask>
<g mask="url(#mask12_1688_5905)">
<mask id="mask13_1688_5905" style="mask-type:alpha" maskUnits="userSpaceOnUse" x="398" y="165" width="34" height="16">
<path d="M408.924 170.745C409.2 170.294 409.723 169.907 410.198 169.638C410.972 169.201 411.951 168.866 412.949 168.665C413.948 168.463 414.971 168.393 415.836 168.499C416.569 168.59 417.461 168.856 417.738 169.463C419.195 168.972 420.589 169.065 421.494 169.277C422.532 169.52 423.383 170 423.948 170.603C424.512 171.207 424.782 171.926 424.651 172.653C424.556 173.183 424.196 173.879 423.316 174.474C423.762 174.646 424.117 174.867 424.382 175.093C425.099 175.703 425.444 176.546 425.403 177.459C425.363 178.373 424.939 179.319 424.16 180.131C424.054 180.242 423.935 180.355 423.805 180.469L427.179 174.781C428.16 174.052 432.247 175.044 431.22 171.918C429.388 166.591 425.903 165.735 421.613 165.598C418.389 165.494 412.038 167.688 408.206 169.012C406.939 169.45 405.947 169.793 405.435 169.925C403.787 170.353 399.82 170.311 398.721 166.718C397.277 171.628 402.438 171.682 404.692 171.615C405.382 171.595 406.573 171.309 408.009 170.963C408.305 170.892 408.61 170.819 408.924 170.745Z" fill="white"/>
</mask>
<g mask="url(#mask13_1688_5905)">
<rect width="30.9192" height="27.0054" transform="matrix(0.86227 -0.506449 0.863198 0.504866 389.272 171.05)" fill="black"/>
</g>
</g>
<mask id="mask14_1688_5905" style="mask-type:alpha" maskUnits="userSpaceOnUse" x="394" y="158" width="44" height="26">
<path d="M394.566 171.058L416.352 158.263L437.212 170.464L415.427 183.259L394.566 171.058Z" fill="white"/>
</mask>
<g mask="url(#mask14_1688_5905)">
<path d="M416.446 170.324C416.5 170.757 415.475 171.338 414.156 171.622C412.836 171.906 411.723 171.785 411.67 171.352C411.616 170.919 412.641 170.338 413.96 170.054C415.28 169.77 416.393 169.891 416.446 170.324Z" fill="black"/>
<path d="M421.471 173.804C420.459 174.23 419.042 173.916 418.307 173.102C417.571 172.289 417.796 171.284 418.809 170.858C419.821 170.432 421.238 170.746 421.973 171.56C422.708 172.373 422.484 173.378 421.471 173.804Z" fill="black"/>
<path d="M417.68 177.915C417.564 179.241 418.605 180.146 420.006 179.937C421.406 179.728 422.636 178.484 422.753 177.158C422.869 175.832 421.828 174.927 420.427 175.136C419.027 175.345 417.797 176.589 417.68 177.915Z" fill="black"/>
<path d="M416.446 170.324C416.5 170.757 415.475 171.338 414.156 171.622C412.836 171.906 411.723 171.785 411.67 171.352C411.616 170.919 412.641 170.338 413.96 170.054C415.28 169.77 416.393 169.891 416.446 170.324Z" fill="black"/>
<path d="M421.471 173.804C420.459 174.23 419.042 173.916 418.307 173.102C417.571 172.289 417.796 171.284 418.809 170.858C419.821 170.432 421.238 170.746 421.973 171.56C422.708 172.373 422.484 173.378 421.471 173.804Z" fill="black"/>
<path d="M417.68 177.915C417.564 179.241 418.605 180.146 420.006 179.937C421.406 179.728 422.636 178.484 422.753 177.158C422.869 175.832 421.828 174.927 420.427 175.136C419.027 175.345 417.797 176.589 417.68 177.915Z" fill="black"/>
</g>
</g>
<path d="M400.167 177.451L353.626 204.335V244.666L400.167 217.795V177.451Z" fill="#4900E6"/>
<path d="M400.167 177.451L353.626 204.335V244.666L400.167 217.795V177.451Z" fill="black" fill-opacity="0.07"/>
<path d="M307 177.343L353.625 204.338V244.848L307 217.929V177.343Z" fill="#4900E6"/>
<path d="M307 177.343L353.625 204.337V244.847L307 217.928V177.343Z" fill="black" fill-opacity="0.33"/>
<path d="M353.542 150.709L307 177.58L353.626 204.338L400.167 177.467L353.542 150.709Z" fill="#4900E6"/>
<path d="M353.542 150.709L307 177.58L353.626 204.338L400.167 177.467L353.542 150.709Z" fill="black" fill-opacity="0.15"/>
<g opacity="0.2" filter="url(#filter9_f_1688_5905)">
<path d="M332.5 218.806L305 200L353 173.039L386.5 184.346L332.5 218.806Z" fill="url(#paint9_linear_1688_5905)"/>
</g>
<path d="M354.167 132.451L307.626 159.335V199.666L354.167 172.795V132.451Z" fill="#4900E6"/>
<path d="M354.167 132.451L307.626 159.335V199.666L354.167 172.795V132.451Z" fill="black" fill-opacity="0.07"/>
<path d="M261 132.343L307.625 159.338V199.848L261 172.929V132.343Z" fill="#4900E6"/>
<path d="M261 132.343L307.625 159.337V199.847L261 172.928V132.343Z" fill="black" fill-opacity="0.33"/>
<path d="M307.542 105.709L261 132.58L307.626 159.338L354.167 132.467L307.542 105.709Z" fill="#4900E6"/>
<path d="M307.542 105.709L261 132.58L307.626 159.338L354.167 132.467L307.542 105.709Z" fill="black" fill-opacity="0.25"/>
<g opacity="0.2" filter="url(#filter10_f_1688_5905)">
<path d="M330 163L302.5 144.194L343 127L376.5 138.306L330 163Z" fill="url(#paint10_linear_1688_5905)"/>
</g>
<path d="M352.607 91.7392L316.337 112.691V144.121L352.607 123.18V91.7392Z" fill="#4900E6"/>
<path d="M352.607 91.7392L316.337 112.691V144.121L352.607 123.18V91.7392Z" fill="black" fill-opacity="0.07"/>
<path d="M280 91.6553L316.336 112.693V144.263L280 123.284V91.6553Z" fill="#4900E6"/>
<path d="M280 91.6548L316.336 112.692V144.263L280 123.284V91.6548Z" fill="black" fill-opacity="0.33"/>
<path d="M316.271 70.8987L280 91.8397L316.337 112.693L352.607 91.7517L316.271 70.8987Z" fill="#4900E6"/>
<path d="M316.271 70.8987L280 91.8397L316.337 112.693L352.607 91.7517L316.271 70.8987Z" fill="white" fill-opacity="0.08"/>
<path d="M364.576 69.2646L334.815 86.4558V112.245L364.576 95.0628V69.2646Z" fill="#4900E6"/>
<path d="M364.576 69.2646L334.815 86.4558V112.245L364.576 95.0628V69.2646Z" fill="black" fill-opacity="0.07"/>
<path d="M305 69.1953L334.815 86.457V112.361L305 95.1478V69.1953Z" fill="#4900E6"/>
<path d="M305 69.1953L334.815 86.457V112.361L305 95.1478V69.1953Z" fill="black" fill-opacity="0.33"/>
<path d="M334.761 52.1642L305 69.3468L334.815 86.4572L364.576 69.2746L334.761 52.1642Z" fill="#4900E6"/>
<path d="M334.761 52.1642L305 69.3468L334.815 86.4572L364.576 69.2746L334.761 52.1642Z" fill="white" fill-opacity="0.18"/>
<path d="M376.372 46.9326L356.704 58.2937V75.3372L376.372 63.9818V46.9326Z" fill="#4900E6"/>
<path d="M376.372 46.9326L356.704 58.2937V75.3372L376.372 63.9818V46.9326Z" fill="black" fill-opacity="0.07"/>
<path d="M337 46.8872L356.704 58.2949V75.4142L337 64.0383V46.8872Z" fill="#4900E6"/>
<path d="M337 46.8867L356.704 58.2944V75.4137L337 64.0379V46.8867Z" fill="black" fill-opacity="0.33"/>
<path d="M356.668 35.6317L337 46.9871L356.704 58.2948L376.372 46.9394L356.668 35.6317Z" fill="#4900E6"/>
<path d="M356.668 35.6317L337 46.9871L356.704 58.2948L376.372 46.9394L356.668 35.6317Z" fill="white" fill-opacity="0.24"/>
<path d="M467 509.242L420.542 536.078V576.336L467 549.514V509.242Z" fill="#4900E6"/>
<path d="M467 509.242L420.542 536.078V576.336L467 549.514V509.242Z" fill="black" fill-opacity="0.07"/>
<path d="M374 509.135L420.541 536.081V576.518L374 549.647V509.135Z" fill="#4900E6"/>
<path d="M374 509.134L420.541 536.08V576.517L374 549.646V509.134Z" fill="black" fill-opacity="0.33"/>
<path d="M420.459 482.548L374.001 509.371L420.542 536.081L467 509.258L420.459 482.548Z" fill="#4900E6"/>
<path d="M420.459 482.548L374.001 509.371L420.542 536.081L467 509.258L420.459 482.548Z" fill="white" fill-opacity="0.18"/>
<path d="M405 542.103L370.531 562.013V591.882L405 571.981V542.103Z" fill="#4900E6"/>
<path d="M405 542.103L370.531 562.013V591.882L405 571.981V542.103Z" fill="black" fill-opacity="0.07"/>
<path d="M336 542.023L370.531 562.015V592.017L336 572.081V542.023Z" fill="#4900E6"/>
<path d="M336 542.022L370.531 562.014V592.016L336 572.08V542.022Z" fill="black" fill-opacity="0.33"/>
<path d="M370.469 522.298L336.001 542.198L370.531 562.015L405 542.115L370.469 522.298Z" fill="#4900E6"/>
<path d="M370.469 522.298L336.001 542.198L370.531 562.015L405 542.115L370.469 522.298Z" fill="white" fill-opacity="0.15"/>
<path d="M344.026 557.172L316.538 573.051V596.871L344.026 581V557.172Z" fill="#4900E6"/>
<path d="M344.026 557.172L316.538 573.051V596.871L344.026 581V557.172Z" fill="black" fill-opacity="0.07"/>
<path d="M289 557.109L316.538 573.052V596.978L289 581.079V557.109Z" fill="#4900E6"/>
<path d="M289 557.108L316.538 573.052V596.978L289 581.079V557.108Z" fill="black" fill-opacity="0.33"/>
<path d="M316.489 541.378L289 557.249L316.538 573.052L344.026 557.182L316.489 541.378Z" fill="#4900E6"/>
<path d="M488 609.789L509.193 621.734V595.917L488 609.789Z" fill="#363C45"/>
<path d="M530 609.789L509.193 621.734V595.917L530 609.789Z" fill="#4C5460"/>
<path d="M485.97 632.597L526.604 655.5V606L485.97 632.597Z" fill="#363C45"/>
<path d="M566.5 632.597L526.604 655.5V606L566.5 632.597Z" fill="#4C5460"/>
<path d="M566.5 632.597L526.604 655.5V606L566.5 632.597Z" fill="white" fill-opacity="0.21"/>
<path d="M317 597L344.5 612.5V579L317 597Z" fill="#363C45"/>
<path d="M371.5 597L344.5 612.5V579L371.5 597Z" fill="#4C5460"/>
<path d="M262 597L289.5 612.5V579L262 597Z" fill="#363C45"/>
<path d="M316.5 597L289.5 612.5V579L316.5 597Z" fill="#4C5460"/>
<path d="M413 575.94L455.687 600V548L413 575.94Z" fill="#363C45"/>
<path d="M497.597 575.94L455.686 600V548L497.597 575.94Z" fill="#4C5460"/>
<path d="M372 590.977L408.632 611.624V567L372 590.977Z" fill="#363C45"/>
<path d="M444.597 590.977L408.631 611.624V567L444.597 590.977Z" fill="#4C5460"/>
<path d="M444.597 590.977L408.631 611.624V567L444.597 590.977Z" fill="white" fill-opacity="0.4"/>
<path d="M351 608.473L376.531 622.862V591.762L351 608.473Z" fill="#363C45"/>
<path d="M401.597 608.473L376.53 622.863V591.762L401.597 608.473Z" fill="#4C5460"/>
<path d="M549 640.94L591.687 665V613L549 640.94Z" fill="#363C45"/>
<path d="M633.597 640.94L591.686 665V613L633.597 640.94Z" fill="#4C5460"/>
<path d="M736 630.826L764.762 647.037V612L736 630.826Z" fill="#363C45"/>
<path d="M793 630.826L764.761 647.037V612L793 630.826Z" fill="#4C5460"/>
<path d="M699 649.642L735.119 670V626L699 649.642Z" fill="#363C45"/>
<path d="M770.582 649.642L735.119 670V626L770.582 649.642Z" fill="#4C5460"/>
<path d="M770.582 649.642L735.119 670V626L770.582 649.642Z" fill="white" fill-opacity="0.21"/>
<path d="M839 552.477L870.284 570.11V532L839 552.477Z" fill="#363C45"/>
<path d="M901 552.477L870.284 570.11V532L901 552.477Z" fill="#4C5460"/>
<path d="M799 576.94L841.687 601V549L799 576.94Z" fill="#363C45"/>
<path d="M883.597 576.94L841.686 601V549L883.597 576.94Z" fill="#4C5460"/>
<path d="M883.597 576.94L841.686 601V549L883.597 576.94Z" fill="white" fill-opacity="0.39"/>
<path d="M885 542.986L920.118 562.78V520L885 542.986Z" fill="#363C45"/>
<path d="M954.597 542.986L920.117 562.78V520L954.597 542.986Z" fill="#4C5460"/>
<path d="M954.597 542.986L920.117 562.78V520L954.597 542.986Z" fill="white" fill-opacity="0.39"/>
<path d="M591 664.94L633.687 689V637L591 664.94Z" fill="#363C45"/>
<path d="M675.597 664.94L633.686 689V637L675.597 664.94Z" fill="#4C5460"/>
<path d="M675.597 664.94L633.686 689V637L675.597 664.94Z" fill="white" fill-opacity="0.36"/>
<path d="M432 697.642L468.119 718V674L432 697.642Z" fill="#363C45"/>
<path d="M503.582 697.642L468.119 718V674L503.582 697.642Z" fill="#4C5460"/>
<path d="M503.582 697.642L468.119 718V674L503.582 697.642Z" fill="white" fill-opacity="0.08"/>
<path d="M155.149 540.955L187.164 559V520L155.149 540.955Z" fill="#363C45"/>
<path d="M218.597 540.955L187.164 559V520L218.597 540.955Z" fill="#4C5460"/>
<path d="M276 662.17L305.063 678.55V643.147L276 662.17Z" fill="#363C45"/>
<path d="M333.597 662.17L305.062 678.551V643.147L333.597 662.17Z" fill="#4C5460"/>
<path d="M110.269 627.955L142.283 646V607L110.269 627.955Z" fill="#363C45"/>
<path d="M173.717 627.955L142.284 646V607L173.717 627.955Z" fill="#4C5460"/>
<path d="M173.717 627.955L142.284 646V607L173.717 627.955Z" fill="white" fill-opacity="0.23"/>
<path d="M0.134766 574.806L28.8661 591V556L0.134766 574.806Z" fill="#363C45"/>
<path d="M57.0752 574.806L28.8662 591V556L57.0752 574.806Z" fill="#4C5460"/>
<path d="M859.762 645.731L886.851 661V628L859.762 645.731Z" fill="#363C45"/>
<path d="M913.448 645.731L886.851 661V628L913.448 645.731Z" fill="#4C5460"/>
<path d="M944 549.179L980.94 570V525L944 549.179Z" fill="#363C45"/>
<path d="M1017.21 549.179L980.94 570V525L1017.21 549.179Z" fill="#4C5460"/>
<path d="M1005 634.468L1037.8 652.954V613L1005 634.468Z" fill="#363C45"/>
<path d="M1070 634.468L1037.8 652.954V613L1070 634.468Z" fill="#4C5460"/>
<path d="M1070 634.468L1037.8 652.954V613L1070 634.468Z" fill="white" fill-opacity="0.34"/>
<path d="M1118 581.781L1146.69 597.954V563L1118 581.781Z" fill="#363C45"/>
<path d="M1174.87 581.781L1146.69 597.954V563L1174.87 581.781Z" fill="#4C5460"/>
<path d="M658 674.94L700.687 699V647L658 674.94Z" fill="#363C45"/>
<path d="M742.597 674.94L700.686 699V647L742.597 674.94Z" fill="#4C5460"/>
<path d="M771 594.826L799.762 611.037V576L771 594.826Z" fill="#363C45"/>
<path d="M828 594.826L799.761 611.037V576L828 594.826Z" fill="#4C5460"/>
<path d="M811 603.895L830.701 615V591L811 603.895Z" fill="#363C45"/>
<path d="M850.045 603.896L830.702 615V591L850.045 603.896Z" fill="#4C5460"/>
<defs>
<filter id="filter0_f_1688_5905" x="508" y="506.593" width="102" height="67.2134" filterUnits="userSpaceOnUse" color-interpolation-filters="sRGB">
<feFlood flood-opacity="0" result="BackgroundImageFix"/>
<feBlend mode="normal" in="SourceGraphic" in2="BackgroundImageFix" result="shape"/>
<feGaussianBlur stdDeviation="5" result="effect1_foregroundBlur_1688_5905"/>
</filter>
<filter id="filter1_f_1688_5905" x="719" y="449" width="123.5" height="79.8066" filterUnits="userSpaceOnUse" color-interpolation-filters="sRGB">
<feFlood flood-opacity="0" result="BackgroundImageFix"/>
<feBlend mode="normal" in="SourceGraphic" in2="BackgroundImageFix" result="shape"/>
<feGaussianBlur stdDeviation="5" result="effect1_foregroundBlur_1688_5905"/>
</filter>
<filter id="filter2_f_1688_5905" x="649" y="503" width="123.5" height="79.8066" filterUnits="userSpaceOnUse" color-interpolation-filters="sRGB">
<feFlood flood-opacity="0" result="BackgroundImageFix"/>
<feBlend mode="normal" in="SourceGraphic" in2="BackgroundImageFix" result="shape"/>
<feGaussianBlur stdDeviation="5" result="effect1_foregroundBlur_1688_5905"/>
</filter>
<filter id="filter3_f_1688_5905" x="573" y="379" width="123.5" height="79.8066" filterUnits="userSpaceOnUse" color-interpolation-filters="sRGB">
<feFlood flood-opacity="0" result="BackgroundImageFix"/>
<feBlend mode="normal" in="SourceGraphic" in2="BackgroundImageFix" result="shape"/>
<feGaussianBlur stdDeviation="5" result="effect1_foregroundBlur_1688_5905"/>
</filter>
<filter id="filter4_f_1688_5905" x="647.663" y="410.611" width="111.337" height="72.8887" filterUnits="userSpaceOnUse" color-interpolation-filters="sRGB">
<feFlood flood-opacity="0" result="BackgroundImageFix"/>
<feBlend mode="normal" in="SourceGraphic" in2="BackgroundImageFix" result="shape"/>
<feGaussianBlur stdDeviation="5" result="effect1_foregroundBlur_1688_5905"/>
</filter>
<filter id="filter5_f_1688_5905" x="677" y="348" width="123.5" height="79.8066" filterUnits="userSpaceOnUse" color-interpolation-filters="sRGB">
<feFlood flood-opacity="0" result="BackgroundImageFix"/>
<feBlend mode="normal" in="SourceGraphic" in2="BackgroundImageFix" result="shape"/>
<feGaussianBlur stdDeviation="5" result="effect1_foregroundBlur_1688_5905"/>
</filter>
<filter id="filter6_f_1688_5905" x="621" y="282" width="123.5" height="79.8066" filterUnits="userSpaceOnUse" color-interpolation-filters="sRGB">
<feFlood flood-opacity="0" result="BackgroundImageFix"/>
<feBlend mode="normal" in="SourceGraphic" in2="BackgroundImageFix" result="shape"/>
<feGaussianBlur stdDeviation="5" result="effect1_foregroundBlur_1688_5905"/>
</filter>
<filter id="filter7_f_1688_5905" x="573" y="208" width="107.5" height="69.5957" filterUnits="userSpaceOnUse" color-interpolation-filters="sRGB">
<feFlood flood-opacity="0" result="BackgroundImageFix"/>
<feBlend mode="normal" in="SourceGraphic" in2="BackgroundImageFix" result="shape"/>
<feGaussianBlur stdDeviation="5" result="effect1_foregroundBlur_1688_5905"/>
</filter>
<filter id="filter8_f_1688_5905" x="472" y="217" width="123.5" height="79.8066" filterUnits="userSpaceOnUse" color-interpolation-filters="sRGB">
<feFlood flood-opacity="0" result="BackgroundImageFix"/>
<feBlend mode="normal" in="SourceGraphic" in2="BackgroundImageFix" result="shape"/>
<feGaussianBlur stdDeviation="5" result="effect1_foregroundBlur_1688_5905"/>
</filter>
<filter id="filter9_f_1688_5905" x="295" y="163.04" width="101.5" height="65.7666" filterUnits="userSpaceOnUse" color-interpolation-filters="sRGB">
<feFlood flood-opacity="0" result="BackgroundImageFix"/>
<feBlend mode="normal" in="SourceGraphic" in2="BackgroundImageFix" result="shape"/>
<feGaussianBlur stdDeviation="5" result="effect1_foregroundBlur_1688_5905"/>
</filter>
<filter id="filter10_f_1688_5905" x="292.5" y="117" width="94" height="56" filterUnits="userSpaceOnUse" color-interpolation-filters="sRGB">
<feFlood flood-opacity="0" result="BackgroundImageFix"/>
<feBlend mode="normal" in="SourceGraphic" in2="BackgroundImageFix" result="shape"/>
<feGaussianBlur stdDeviation="5" result="effect1_foregroundBlur_1688_5905"/>
</filter>
<linearGradient id="paint0_linear_1688_5905" x1="506.5" y1="535" x2="571" y2="597.5" gradientUnits="userSpaceOnUse">
<stop/>
<stop offset="1" stop-opacity="0"/>
</linearGradient>
<linearGradient id="paint1_linear_1688_5905" x1="717.5" y1="490" x2="782" y2="552.5" gradientUnits="userSpaceOnUse">
<stop/>
<stop offset="1" stop-opacity="0"/>
</linearGradient>
<linearGradient id="paint2_linear_1688_5905" x1="647.5" y1="544" x2="712" y2="606.5" gradientUnits="userSpaceOnUse">
<stop/>
<stop offset="1" stop-opacity="0"/>
</linearGradient>
<linearGradient id="paint3_linear_1688_5905" x1="571.5" y1="420" x2="636" y2="482.5" gradientUnits="userSpaceOnUse">
<stop/>
<stop offset="1" stop-opacity="0"/>
</linearGradient>
<linearGradient id="paint4_linear_1688_5905" x1="646.403" y1="450.963" x2="709.556" y2="512.157" gradientUnits="userSpaceOnUse">
<stop/>
<stop offset="1" stop-opacity="0"/>
</linearGradient>
<linearGradient id="paint5_linear_1688_5905" x1="675.5" y1="389" x2="740" y2="451.5" gradientUnits="userSpaceOnUse">
<stop/>
<stop offset="1" stop-opacity="0"/>
</linearGradient>
<linearGradient id="paint6_linear_1688_5905" x1="619.5" y1="323" x2="684" y2="385.5" gradientUnits="userSpaceOnUse">
<stop/>
<stop offset="1" stop-opacity="0"/>
</linearGradient>
<linearGradient id="paint7_linear_1688_5905" x1="555.5" y1="249" x2="620" y2="311.5" gradientUnits="userSpaceOnUse">
<stop/>
<stop offset="1" stop-opacity="0"/>
</linearGradient>
<linearGradient id="paint8_linear_1688_5905" x1="470.5" y1="258" x2="535" y2="320.5" gradientUnits="userSpaceOnUse">
<stop/>
<stop offset="1" stop-opacity="0"/>
</linearGradient>
<linearGradient id="paint9_linear_1688_5905" x1="293.5" y1="190" x2="358" y2="252.5" gradientUnits="userSpaceOnUse">
<stop/>
<stop offset="1" stop-opacity="0"/>
</linearGradient>
<linearGradient id="paint10_linear_1688_5905" x1="261.5" y1="158" x2="326" y2="220.5" gradientUnits="userSpaceOnUse">
<stop/>
<stop offset="1" stop-opacity="0"/>
</linearGradient>
</defs>
</svg>
