<?xml version="1.0" encoding="utf-8"?>
<!-- Generator: Adobe Illustrator 22.1.0, SVG Export Plug-In . SVG Version: 6.00 Build 0)  -->
<svg version="1.1" id="Layer_1" xmlns="http://www.w3.org/2000/svg" xmlns:xlink="http://www.w3.org/1999/xlink" x="0px" y="0px"
	 viewBox="0 0 2211.1 2283.7" style="enable-background:new 0 0 2211.1 2283.7;" xml:space="preserve">
<style type="text/css">
	.st0{fill:#FFFFFF;}
</style>
<path class="st0" d="M2020.2,1281.8c-11.3-22.7-22.7-45.3-36.8-65.1c-22.7-31.1-48.1-62.3-76.4-87.8c17-14.2,31.1-31.1,45.3-48.1
	c76.4-90.6,121.7-209.5,121.7-336.9c0-291.6-237.8-529.4-529.4-529.4H245v96.3v90.6v48.1v48.1h1296.7
	c133.1,0,240.7,107.6,240.7,240.7c0,133.1-107.6,240.7-240.7,240.7H245v48.1v48.1v93.4v48.1v48.1h1296.7
	c133.1,0,240.7,107.6,240.7,240.7s-107.6,240.7-240.7,240.7H245v48.1v48.1v96.3v96.3h1296.7c90.6,0,178.4-22.7,252-65.1
	c31.1-17,59.5-34,84.9-56.6c25.5-22.7,51-45.3,70.8-70.8c11.3-14.2,19.8-25.5,31.1-39.6c36.8-53.8,62.3-113.3,76.4-175.5
	c5.7-19.8,8.5-39.6,11.3-59.5c2.8-19.8,2.8-39.6,2.8-59.5c0-28.3-2.8-53.8-5.7-79.3C2057,1375.3,2042.9,1327.1,2020.2,1281.8z"/>
</svg>
