<svg width="271" height="261" viewBox="0 0 271 261" fill="none" xmlns="http://www.w3.org/2000/svg">
<path d="M82.557 98.2905C108.129 86.1744 116.476 74.7549 129.671 55.8576C143.06 36.7632 160.906 10.3894 182.788 3C204.867 -4.19462 230.786 7.59644 248.723 26.4931C266.462 45.1951 276.218 70.8068 267.738 92.222C259.258 113.637 232.349 131.053 223.473 151.687C214.595 172.125 223.557 195.978 218.372 212.081C213.187 228.184 194.052 236.536 171.201 245.499C148.546 254.461 122.173 263.838 98.8439 259.086C75.3189 254.335 54.6391 235.064 33.7412 212.266C13.0379 189.272 -7.68773 162.749 3.15123 142.887C14.1872 123.219 56.9848 110.407 82.557 98.2905Z" fill="#4D1AF9"/>
<path d="M184.655 69.2884C182.358 70.7603 180.037 71.2341 177.693 70.7097C175.355 70.1946 173.295 68.746 171.512 66.3639C169.562 63.7585 168.898 61.0547 169.52 58.2524C170.158 55.4526 172.001 52.9115 175.051 50.6293L176.288 49.7032C178.235 48.2465 180.207 47.3075 182.206 46.8862C184.204 46.4649 186.074 46.5968 187.816 47.2819C189.574 47.9695 191.087 49.16 192.354 50.8535C194.109 53.1984 194.897 55.5555 194.718 57.925C194.539 60.2944 193.402 62.4371 191.308 64.353L188.174 60.1657C189.405 59.0853 190.075 58.0102 190.185 56.9404C190.312 55.873 189.895 54.6973 188.934 53.4132C187.89 52.0174 186.606 51.3452 185.082 51.3965C183.575 51.4502 181.767 52.2516 179.658 53.8007L178.129 54.9452C175.941 56.5823 174.59 58.1093 174.074 59.526C173.565 60.9521 173.846 62.3816 174.919 63.8146C175.887 65.108 176.899 65.8526 177.957 66.0483C179.03 66.2464 180.219 65.9307 181.521 65.1011L184.655 69.2884Z" fill="white" style="mix-blend-mode:multiply"/>
<path d="M193.166 83.6477C193.954 83.0581 194.348 82.328 194.347 81.4576C194.356 80.5802 194.049 79.2423 193.426 77.4438C192.812 75.6385 192.416 74.1425 192.236 72.9558C191.751 69.7186 192.561 67.3127 194.665 65.738C195.759 64.9195 196.962 64.4982 198.274 64.4741C199.603 64.4525 200.94 64.8382 202.286 65.6313C203.638 66.4337 204.854 67.556 205.933 68.9983C207.02 70.4499 207.723 71.941 208.044 73.4716C208.375 74.9953 208.296 76.4261 207.808 77.764C207.327 79.1113 206.479 80.2392 205.265 81.148L202.131 76.9607C203.058 76.267 203.557 75.4363 203.628 74.4686C203.708 73.4939 203.352 72.4762 202.558 71.4154C201.792 70.3918 200.979 69.7593 200.118 69.5177C199.267 69.2692 198.489 69.4085 197.785 69.9357C197.127 70.4282 196.822 71.1713 196.872 72.1649C196.928 73.1678 197.246 74.4617 197.824 76.0464C198.893 78.9627 199.307 81.3605 199.065 83.24C198.823 85.1195 197.914 86.6489 196.338 87.8281C194.586 89.1392 192.712 89.504 190.715 88.9225C188.727 88.3342 186.891 86.9141 185.206 84.6622C184.036 83.099 183.253 81.4638 182.858 79.7565C182.471 78.0423 182.52 76.4745 183.004 75.053C183.494 73.6408 184.393 72.4456 185.7 71.4675L188.844 75.6688C186.61 77.3405 186.496 79.5164 188.501 82.1962C189.246 83.1918 190.027 83.8197 190.843 84.0797C191.669 84.3328 192.443 84.1888 193.166 83.6477Z" fill="white" style="mix-blend-mode:multiply"/>
<path d="M206.327 101.234C207.115 100.645 207.509 99.9145 207.508 99.0441C207.517 98.1667 207.209 96.8288 206.587 95.0304C205.973 93.225 205.577 91.729 205.397 90.5423C204.912 87.3051 205.722 84.8992 207.826 83.3246C208.92 82.506 210.123 82.0847 211.435 82.0607C212.764 82.039 214.101 82.4247 215.446 83.2178C216.799 84.0202 218.015 85.1426 219.094 86.5848C220.18 88.0364 220.884 89.5275 221.205 91.0581C221.536 92.5818 221.457 94.0126 220.969 95.3505C220.488 96.6978 219.64 97.8257 218.425 98.7345L215.292 94.5472C216.219 93.8535 216.718 93.0228 216.789 92.0551C216.869 91.0804 216.513 90.0627 215.719 89.0019C214.953 87.9783 214.14 87.3458 213.279 87.1042C212.428 86.8557 211.65 86.995 210.946 87.5222C210.288 88.0147 209.983 88.7578 210.033 89.7514C210.089 90.7544 210.407 92.0482 210.985 93.6329C212.054 96.5492 212.468 98.947 212.226 100.827C211.984 102.706 211.075 104.235 209.499 105.415C207.747 106.726 205.873 107.09 203.876 106.509C201.888 105.921 200.052 104.501 198.367 102.249C197.197 100.686 196.414 99.0503 196.019 97.343C195.632 95.6288 195.681 94.061 196.164 92.6395C196.655 91.2273 197.554 90.0321 198.861 89.0541L202.005 93.2553C199.771 94.9271 199.656 97.1029 201.662 99.7827C202.407 100.778 203.188 101.406 204.004 101.666C204.83 101.919 205.604 101.775 206.327 101.234Z" fill="white" style="mix-blend-mode:multiply"/>
</svg>
