<svg width="2676" height="304" viewBox="0 0 2676 304" fill="none" xmlns="http://www.w3.org/2000/svg">
<path d="M246.06 137.34L255.32 127C265.131 116.037 271.559 102.468 273.826 87.9319C276.093 73.3957 274.104 58.5138 268.097 45.0838C262.091 31.6537 252.324 20.25 239.978 12.2497C227.631 4.24945 213.232 -0.00506282 198.52 4.52132e-06H0V30.18H192.42C198.534 30.09 204.606 31.2165 210.281 33.4941C215.956 35.7717 221.121 39.1549 225.477 43.4469C229.833 47.7389 233.292 52.8542 235.652 58.4951C238.013 64.136 239.229 70.19 239.229 76.305C239.229 82.42 238.013 88.474 235.652 94.1149C233.292 99.7558 229.833 104.871 225.477 109.163C221.121 113.455 215.956 116.838 210.281 119.116C204.606 121.393 198.534 122.52 192.42 122.43H0V152.63H192.42C198.534 152.54 204.606 153.667 210.281 155.944C215.956 158.222 221.121 161.605 225.477 165.897C229.833 170.189 233.292 175.304 235.652 180.945C238.013 186.586 239.229 192.64 239.229 198.755C239.229 204.87 238.013 210.924 235.652 216.565C233.292 222.206 229.833 227.321 225.477 231.613C221.121 235.905 215.956 239.288 210.281 241.566C204.606 243.844 198.534 244.97 192.42 244.88H0V274.74H198.52C213.232 274.745 227.631 270.491 239.978 262.49C252.324 254.49 262.091 243.086 268.097 229.656C274.104 216.226 276.093 201.344 273.826 186.808C271.559 172.272 265.131 158.703 255.32 147.74L246.06 137.34Z" fill="black"/>
<path d="M207.44 76.3007C207.435 72.3029 205.844 68.4703 203.017 65.6434C200.19 62.8165 196.358 61.226 192.36 61.2207H0V91.3907H192.36C196.359 91.3828 200.191 89.7901 203.018 86.9616C205.845 84.1331 207.435 80.2995 207.44 76.3007Z" fill="black"/>
<path d="M207.44 198.721C207.435 194.722 205.845 190.888 203.018 188.06C200.191 185.232 196.359 183.639 192.36 183.631H0V213.801H192.36C196.358 213.796 200.19 212.205 203.017 209.378C205.844 206.551 207.435 202.719 207.44 198.721Z" fill="black"/>
<path d="M370.342 164.631H327.94V71.0664H373.389C384.857 71.2357 392.982 74.5576 397.764 81.0322C400.642 85.0101 402.081 89.7708 402.081 95.3145C402.081 101.027 400.642 105.619 397.764 109.089C396.156 111.035 393.786 112.813 390.655 114.421C395.437 116.156 399.034 118.907 401.446 122.673C403.9 126.439 405.127 131.009 405.127 136.384C405.127 141.927 403.731 146.9 400.938 151.301C399.161 154.221 396.939 156.675 394.273 158.664C391.268 160.949 387.714 162.515 383.609 163.361C379.546 164.208 375.124 164.631 370.342 164.631ZM369.898 123.435H346.602V148.381H369.581C373.685 148.381 376.88 147.831 379.166 146.73C383.313 144.699 385.386 140.806 385.386 135.051C385.386 130.184 383.376 126.841 379.356 125.021C377.113 124.006 373.96 123.477 369.898 123.435ZM379.61 105.598C382.149 104.074 383.418 101.345 383.418 97.4092C383.418 93.0505 381.726 90.1729 378.34 88.7764C375.42 87.8031 371.696 87.3164 367.168 87.3164H346.602V107.946H369.581C373.685 107.946 377.028 107.163 379.61 105.598ZM470.978 154.855C470.809 155.067 470.386 155.702 469.708 156.76C469.031 157.818 468.227 158.749 467.296 159.553C464.461 162.092 461.71 163.827 459.044 164.758C456.421 165.689 453.332 166.154 449.777 166.154C439.536 166.154 432.638 162.473 429.083 155.109C427.095 151.047 426.1 145.059 426.1 137.146V95.4414H444.635V137.146C444.635 141.081 445.101 144.043 446.032 146.032C447.682 149.545 450.919 151.301 455.744 151.301C461.922 151.301 466.154 148.804 468.439 143.811C469.624 141.102 470.216 137.526 470.216 133.083V95.4414H488.561V164.631H470.978V154.855ZM565.964 164.631H506.233V150.539L541.716 110.168H508.645V95.4414H564.758V110.485L529.656 149.777H565.964V164.631ZM637.464 164.631H577.733V150.539L613.216 110.168H580.145V95.4414H636.258V110.485L601.156 149.777H637.464V164.631ZM370.342 274.631H327.94V181.066H373.389C384.857 181.236 392.982 184.558 397.764 191.032C400.642 195.01 402.081 199.771 402.081 205.314C402.081 211.027 400.642 215.619 397.764 219.089C396.156 221.035 393.786 222.813 390.655 224.421C395.437 226.156 399.034 228.907 401.446 232.673C403.9 236.439 405.127 241.009 405.127 246.384C405.127 251.927 403.731 256.9 400.938 261.301C399.161 264.221 396.939 266.675 394.273 268.664C391.268 270.949 387.714 272.515 383.609 273.361C379.546 274.208 375.124 274.631 370.342 274.631ZM369.898 233.435H346.602V258.381H369.581C373.685 258.381 376.88 257.831 379.166 256.73C383.313 254.699 385.386 250.806 385.386 245.051C385.386 240.184 383.376 236.841 379.356 235.021C377.113 234.006 373.96 233.477 369.898 233.435ZM379.61 215.598C382.149 214.074 383.418 211.345 383.418 207.409C383.418 203.05 381.726 200.173 378.34 198.776C375.42 197.803 371.696 197.316 367.168 197.316H346.602V217.946H369.581C373.685 217.946 377.028 217.163 379.61 215.598ZM461.393 222.136C454.114 222.136 449.227 224.506 446.73 229.245C445.333 231.911 444.635 236.016 444.635 241.56V274.631H426.417V205.441H443.683V217.502C446.476 212.889 448.909 209.737 450.983 208.044C454.368 205.209 458.769 203.791 464.186 203.791C464.525 203.791 464.8 203.812 465.011 203.854C465.265 203.854 465.794 203.876 466.598 203.918V222.453C465.456 222.326 464.44 222.242 463.551 222.199C462.663 222.157 461.943 222.136 461.393 222.136ZM541.462 214.201C547.302 221.522 550.222 230.176 550.222 240.163C550.222 250.319 547.302 259.016 541.462 266.252C535.623 273.446 526.757 277.043 514.866 277.043C502.974 277.043 494.109 273.446 488.269 266.252C482.429 259.016 479.509 250.319 479.509 240.163C479.509 230.176 482.429 221.522 488.269 214.201C494.109 206.88 502.974 203.22 514.866 203.22C526.757 203.22 535.623 206.88 541.462 214.201ZM514.802 218.518C509.513 218.518 505.429 220.401 502.551 224.167C499.716 227.891 498.298 233.223 498.298 240.163C498.298 247.103 499.716 252.456 502.551 256.223C505.429 259.989 509.513 261.872 514.802 261.872C520.092 261.872 524.154 259.989 526.99 256.223C529.825 252.456 531.243 247.103 531.243 240.163C531.243 233.223 529.825 227.891 526.99 224.167C524.154 220.401 520.092 218.518 514.802 218.518ZM601.41 261.745V275.266L592.84 275.583C584.292 275.879 578.452 274.398 575.321 271.14C573.29 269.066 572.274 265.871 572.274 261.555V218.962H562.625V206.076H572.274V186.779H590.174V206.076H601.41V218.962H590.174V255.524C590.174 258.36 590.534 260.137 591.253 260.856C591.973 261.534 594.173 261.872 597.855 261.872C598.405 261.872 598.976 261.872 599.569 261.872C600.204 261.83 600.817 261.787 601.41 261.745ZM682.05 234.006V274.631H663.579V232.546C663.579 228.822 662.944 225.817 661.674 223.532C660.024 220.316 656.892 218.708 652.28 218.708C647.498 218.708 643.859 220.316 641.362 223.532C638.907 226.706 637.68 231.255 637.68 237.18V274.631H619.653V181.384H637.68V214.455C640.304 210.435 643.33 207.642 646.757 206.076C650.227 204.468 653.867 203.664 657.675 203.664C661.949 203.664 665.821 204.405 669.292 205.886C672.804 207.367 675.681 209.631 677.924 212.678C679.829 215.259 680.992 217.925 681.416 220.676C681.839 223.384 682.05 227.827 682.05 234.006ZM764.722 254.318C764.257 258.423 762.12 262.591 758.311 266.823C752.387 273.552 744.092 276.916 733.428 276.916C724.626 276.916 716.861 274.081 710.132 268.41C703.404 262.74 700.04 253.514 700.04 240.734C700.04 228.758 703.065 219.576 709.117 213.186C715.21 206.796 723.103 203.601 732.793 203.601C738.549 203.601 743.733 204.68 748.345 206.838C752.958 208.996 756.766 212.403 759.771 217.058C762.479 221.162 764.236 225.923 765.04 231.34C765.505 234.514 765.695 239.084 765.611 245.051H718.257C718.511 251.991 720.691 256.857 724.795 259.65C727.292 261.385 730.297 262.253 733.809 262.253C737.533 262.253 740.559 261.195 742.886 259.079C744.156 257.937 745.277 256.35 746.25 254.318H764.722ZM746.822 233.117C746.526 228.335 745.066 224.717 742.442 222.263C739.861 219.766 736.644 218.518 732.793 218.518C728.604 218.518 725.346 219.829 723.018 222.453C720.733 225.077 719.294 228.632 718.702 233.117H746.822ZM819.147 222.136C811.868 222.136 806.981 224.506 804.484 229.245C803.087 231.911 802.389 236.016 802.389 241.56V274.631H784.171V205.441H801.437V217.502C804.23 212.889 806.663 209.737 808.737 208.044C812.122 205.209 816.523 203.791 821.94 203.791C822.278 203.791 822.554 203.812 822.765 203.854C823.019 203.854 823.548 203.876 824.352 203.918V222.453C823.209 222.326 822.194 222.242 821.305 222.199C820.417 222.157 819.697 222.136 819.147 222.136ZM889.187 208.615C894.604 212.085 897.714 218.052 898.518 226.516H880.427C880.173 224.188 879.517 222.347 878.459 220.993C876.471 218.539 873.085 217.312 868.303 217.312C864.368 217.312 861.554 217.925 859.861 219.152C858.21 220.38 857.385 221.818 857.385 223.469C857.385 225.542 858.274 227.045 860.051 227.976C861.829 228.949 868.113 230.62 878.904 232.99C886.098 234.683 891.493 237.243 895.09 240.671C898.645 244.141 900.422 248.479 900.422 253.684C900.422 260.539 897.862 266.146 892.742 270.505C887.664 274.821 879.792 276.979 869.128 276.979C858.253 276.979 850.212 274.694 845.007 270.124C839.845 265.511 837.263 259.65 837.263 252.541H855.608C855.989 255.757 856.814 258.042 858.083 259.396C860.326 261.809 864.473 263.015 870.525 263.015C874.08 263.015 876.894 262.486 878.967 261.428C881.083 260.37 882.141 258.783 882.141 256.667C882.141 254.636 881.295 253.091 879.602 252.033C877.909 250.975 871.625 249.156 860.75 246.574C852.921 244.628 847.398 242.194 844.182 239.274C840.966 236.397 839.358 232.25 839.358 226.833C839.358 220.443 841.855 214.963 846.848 210.393C851.884 205.78 858.951 203.474 868.049 203.474C876.682 203.474 883.728 205.188 889.187 208.615Z" fill="black"/>
<path d="M1110.42 263.84C1114.7 263.84 1118.21 263.396 1120.96 262.507C1125.87 260.856 1129.89 257.683 1133.02 252.985C1135.52 249.219 1137.32 244.395 1138.42 238.513C1139.05 235 1139.37 231.742 1139.37 228.737C1139.37 217.185 1137.06 208.213 1132.45 201.823C1127.88 195.433 1120.49 192.238 1110.3 192.238H1087.89V263.84H1110.42ZM1075.19 181.384H1112.96C1125.78 181.384 1135.73 185.933 1142.8 195.031C1149.1 203.241 1152.25 213.757 1152.25 226.579C1152.25 236.481 1150.39 245.432 1146.67 253.43C1140.11 267.564 1128.83 274.631 1112.84 274.631H1075.19V181.384ZM1201.85 205.124C1206.68 205.124 1211.36 206.267 1215.88 208.552C1220.41 210.795 1223.86 213.715 1226.23 217.312C1228.52 220.739 1230.04 224.738 1230.8 229.309C1231.48 232.44 1231.82 237.434 1231.82 244.289H1181.99C1182.2 251.187 1183.83 256.73 1186.87 260.92C1189.92 265.067 1194.64 267.141 1201.03 267.141C1207 267.141 1211.76 265.173 1215.31 261.237C1217.34 258.952 1218.78 256.307 1219.63 253.303H1230.86C1230.57 255.799 1229.57 258.592 1227.88 261.682C1226.23 264.729 1224.37 267.225 1222.29 269.172C1218.82 272.557 1214.53 274.842 1209.41 276.027C1206.66 276.704 1203.55 277.043 1200.08 277.043C1191.61 277.043 1184.44 273.975 1178.56 267.839C1172.68 261.66 1169.74 253.028 1169.74 241.94C1169.74 231.022 1172.7 222.157 1178.62 215.344C1184.55 208.531 1192.29 205.124 1201.85 205.124ZM1220.07 235.212C1219.61 230.261 1218.53 226.304 1216.84 223.342C1213.7 217.84 1208.48 215.09 1201.16 215.09C1195.91 215.09 1191.51 216.994 1187.95 220.803C1184.4 224.569 1182.52 229.372 1182.3 235.212H1220.07ZM1259.2 253.303C1259.54 257.111 1260.49 260.031 1262.06 262.062C1264.93 265.744 1269.93 267.585 1277.04 267.585C1281.27 267.585 1284.99 266.675 1288.21 264.855C1291.42 262.993 1293.03 260.137 1293.03 256.286C1293.03 253.366 1291.74 251.145 1289.16 249.621C1287.51 248.69 1284.25 247.611 1279.39 246.384L1270.31 244.099C1264.51 242.66 1260.24 241.052 1257.49 239.274C1252.58 236.185 1250.12 231.911 1250.12 226.452C1250.12 220.02 1252.43 214.815 1257.04 210.837C1261.7 206.859 1267.94 204.87 1275.77 204.87C1286.01 204.87 1293.39 207.875 1297.92 213.884C1300.76 217.692 1302.13 221.797 1302.05 226.198H1291.26C1291.04 223.617 1290.13 221.268 1288.53 219.152C1285.9 216.148 1281.35 214.646 1274.88 214.646C1270.56 214.646 1267.28 215.471 1265.04 217.121C1262.84 218.771 1261.74 220.951 1261.74 223.659C1261.74 226.621 1263.2 228.991 1266.12 230.769C1267.81 231.826 1270.31 232.757 1273.61 233.562L1281.16 235.402C1289.37 237.391 1294.87 239.317 1297.67 241.179C1302.11 244.099 1304.33 248.69 1304.33 254.953C1304.33 261.005 1302.03 266.231 1297.41 270.632C1292.84 275.033 1285.86 277.233 1276.47 277.233C1266.35 277.233 1259.18 274.948 1254.95 270.378C1250.76 265.765 1248.51 260.074 1248.22 253.303H1259.2ZM1323.91 206.965H1335.52V274.631H1323.91V206.965ZM1323.91 181.384H1335.52V194.333H1323.91V181.384ZM1383.35 205.441C1388.68 205.441 1393.33 206.753 1397.31 209.377C1399.47 210.858 1401.67 213.016 1403.91 215.852V207.282H1414.45V269.108C1414.45 277.741 1413.18 284.554 1410.64 289.548C1405.9 298.773 1396.95 303.386 1383.79 303.386C1376.47 303.386 1370.31 301.735 1365.32 298.435C1360.33 295.176 1357.53 290.056 1356.94 283.073H1368.56C1369.11 286.12 1370.21 288.469 1371.86 290.119C1374.44 292.658 1378.5 293.928 1384.05 293.928C1392.81 293.928 1398.54 290.839 1401.25 284.66C1402.86 281.021 1403.6 274.525 1403.47 265.173C1401.18 268.643 1398.43 271.224 1395.22 272.917C1392 274.61 1387.75 275.456 1382.46 275.456C1375.1 275.456 1368.64 272.854 1363.1 267.648C1357.6 262.401 1354.85 253.747 1354.85 241.687C1354.85 230.303 1357.62 221.416 1363.16 215.026C1368.75 208.636 1375.48 205.441 1383.35 205.441ZM1403.91 240.354C1403.91 231.932 1402.18 225.69 1398.71 221.628C1395.24 217.565 1390.82 215.534 1385.44 215.534C1377.4 215.534 1371.9 219.3 1368.94 226.833C1367.37 230.853 1366.59 236.122 1366.59 242.639C1366.59 250.298 1368.13 256.138 1371.22 260.158C1374.35 264.136 1378.54 266.125 1383.79 266.125C1392 266.125 1397.78 262.422 1401.12 255.017C1402.98 250.827 1403.91 245.939 1403.91 240.354ZM1438.22 206.647H1449.07V216.296C1452.29 212.318 1455.69 209.462 1459.29 207.727C1462.89 205.992 1466.89 205.124 1471.29 205.124C1480.94 205.124 1487.45 208.488 1490.84 215.217C1492.7 218.898 1493.63 224.167 1493.63 231.022V274.631H1482.02V231.784C1482.02 227.637 1481.4 224.294 1480.17 221.755C1478.14 217.523 1474.46 215.407 1469.13 215.407C1466.42 215.407 1464.2 215.682 1462.46 216.232C1459.33 217.163 1456.58 219.025 1454.21 221.818C1452.31 224.061 1451.06 226.389 1450.47 228.801C1449.92 231.171 1449.64 234.577 1449.64 239.021V274.631H1438.22V206.647ZM1566.55 253.303C1566.89 257.111 1567.84 260.031 1569.41 262.062C1572.29 265.744 1577.28 267.585 1584.39 267.585C1588.62 267.585 1592.35 266.675 1595.56 264.855C1598.78 262.993 1600.39 260.137 1600.39 256.286C1600.39 253.366 1599.1 251.145 1596.51 249.621C1594.86 248.69 1591.61 247.611 1586.74 246.384L1577.66 244.099C1571.86 242.66 1567.59 241.052 1564.84 239.274C1559.93 236.185 1557.48 231.911 1557.48 226.452C1557.48 220.02 1559.78 214.815 1564.4 210.837C1569.05 206.859 1575.29 204.87 1583.12 204.87C1593.36 204.87 1600.75 207.875 1605.27 213.884C1608.11 217.692 1609.48 221.797 1609.4 226.198H1598.61C1598.4 223.617 1597.49 221.268 1595.88 219.152C1593.26 216.148 1588.71 214.646 1582.23 214.646C1577.92 214.646 1574.64 215.471 1572.39 217.121C1570.19 218.771 1569.09 220.951 1569.09 223.659C1569.09 226.621 1570.55 228.991 1573.47 230.769C1575.16 231.826 1577.66 232.757 1580.96 233.562L1588.52 235.402C1596.73 237.391 1602.23 239.317 1605.02 241.179C1609.46 244.099 1611.69 248.69 1611.69 254.953C1611.69 261.005 1609.38 266.231 1604.77 270.632C1600.2 275.033 1593.21 277.233 1583.82 277.233C1573.7 277.233 1566.53 274.948 1562.3 270.378C1558.11 265.765 1555.87 260.074 1555.57 253.303H1566.55ZM1673.73 206.647H1686.36C1684.75 211.006 1681.17 220.951 1675.63 236.481C1671.48 248.161 1668.01 257.683 1665.22 265.046C1658.62 282.396 1653.96 292.976 1651.26 296.784C1648.55 300.593 1643.89 302.497 1637.29 302.497C1635.68 302.497 1634.44 302.434 1633.55 302.307C1632.7 302.18 1631.64 301.947 1630.37 301.608V291.198C1632.36 291.748 1633.8 292.087 1634.69 292.214C1635.58 292.341 1636.36 292.404 1637.04 292.404C1639.15 292.404 1640.7 292.045 1641.67 291.325C1642.69 290.648 1643.53 289.802 1644.21 288.786C1644.42 288.448 1645.18 286.713 1646.5 283.581C1647.81 280.45 1648.76 278.122 1649.35 276.599L1624.22 206.647H1637.16L1655.38 261.999L1673.73 206.647ZM1709.55 253.303C1709.89 257.111 1710.84 260.031 1712.41 262.062C1715.29 265.744 1720.28 267.585 1727.39 267.585C1731.62 267.585 1735.35 266.675 1738.56 264.855C1741.78 262.993 1743.39 260.137 1743.39 256.286C1743.39 253.366 1742.1 251.145 1739.51 249.621C1737.86 248.69 1734.61 247.611 1729.74 246.384L1720.66 244.099C1714.86 242.66 1710.59 241.052 1707.84 239.274C1702.93 236.185 1700.48 231.911 1700.48 226.452C1700.48 220.02 1702.78 214.815 1707.4 210.837C1712.05 206.859 1718.29 204.87 1726.12 204.87C1736.36 204.87 1743.75 207.875 1748.27 213.884C1751.11 217.692 1752.48 221.797 1752.4 226.198H1741.61C1741.4 223.617 1740.49 221.268 1738.88 219.152C1736.26 216.148 1731.71 214.646 1725.23 214.646C1720.92 214.646 1717.64 215.471 1715.39 217.121C1713.19 218.771 1712.09 220.951 1712.09 223.659C1712.09 226.621 1713.55 228.991 1716.47 230.769C1718.16 231.826 1720.66 232.757 1723.96 233.562L1731.52 235.402C1739.73 237.391 1745.23 239.317 1748.02 241.179C1752.46 244.099 1754.69 248.69 1754.69 254.953C1754.69 261.005 1752.38 266.231 1747.77 270.632C1743.2 275.033 1736.21 277.233 1726.82 277.233C1716.7 277.233 1709.53 274.948 1705.3 270.378C1701.11 265.765 1698.87 260.074 1698.57 253.303H1709.55ZM1776.55 187.668H1788.1V206.647H1798.95V215.979H1788.1V260.349C1788.1 262.718 1788.9 264.305 1790.51 265.109C1791.4 265.575 1792.88 265.808 1794.95 265.808C1795.5 265.808 1796.1 265.808 1796.73 265.808C1797.37 265.765 1798.11 265.702 1798.95 265.617V274.631C1797.64 275.012 1796.27 275.287 1794.83 275.456C1793.43 275.625 1791.91 275.71 1790.26 275.71C1784.93 275.71 1781.31 274.356 1779.4 271.647C1777.5 268.897 1776.55 265.342 1776.55 260.983V215.979H1767.34V206.647H1776.55V187.668ZM1845.25 205.124C1850.08 205.124 1854.75 206.267 1859.28 208.552C1863.81 210.795 1867.26 213.715 1869.63 217.312C1871.91 220.739 1873.44 224.738 1874.2 229.309C1874.88 232.44 1875.21 237.434 1875.21 244.289H1825.39C1825.6 251.187 1827.23 256.73 1830.27 260.92C1833.32 265.067 1838.04 267.141 1844.43 267.141C1850.4 267.141 1855.16 265.173 1858.71 261.237C1860.74 258.952 1862.18 256.307 1863.03 253.303H1874.26C1873.97 255.799 1872.97 258.592 1871.28 261.682C1869.63 264.729 1867.77 267.225 1865.69 269.172C1862.22 272.557 1857.93 274.842 1852.81 276.027C1850.06 276.704 1846.95 277.043 1843.48 277.043C1835.01 277.043 1827.84 273.975 1821.96 267.839C1816.08 261.66 1813.13 253.028 1813.13 241.94C1813.13 231.022 1816.1 222.157 1822.02 215.344C1827.95 208.531 1835.69 205.124 1845.25 205.124ZM1863.47 235.212C1863.01 230.261 1861.93 226.304 1860.23 223.342C1857.1 217.84 1851.88 215.09 1844.56 215.09C1839.31 215.09 1834.91 216.994 1831.35 220.803C1827.8 224.569 1825.91 229.372 1825.7 235.212H1863.47ZM1895.81 206.647H1907.1V216.296C1909.81 212.953 1912.27 210.52 1914.47 208.996C1918.23 206.415 1922.51 205.124 1927.29 205.124C1932.71 205.124 1937.07 206.457 1940.37 209.123C1942.23 210.646 1943.92 212.889 1945.44 215.852C1947.98 212.212 1950.97 209.525 1954.4 207.79C1957.82 206.013 1961.67 205.124 1965.95 205.124C1975.09 205.124 1981.31 208.425 1984.61 215.026C1986.39 218.581 1987.28 223.363 1987.28 229.372V274.631H1975.41V227.404C1975.41 222.876 1974.26 219.766 1971.98 218.073C1969.74 216.381 1966.98 215.534 1963.73 215.534C1959.24 215.534 1955.37 217.036 1952.11 220.041C1948.89 223.046 1947.29 228.06 1947.29 235.085V274.631H1935.67V230.261C1935.67 225.648 1935.12 222.284 1934.02 220.168C1932.28 216.994 1929.05 215.407 1924.31 215.407C1919.99 215.407 1916.06 217.079 1912.5 220.422C1908.99 223.765 1907.23 229.816 1907.23 238.576V274.631H1895.81V206.647ZM2017.39 253.303C2017.73 257.111 2018.68 260.031 2020.25 262.062C2023.12 265.744 2028.12 267.585 2035.23 267.585C2039.46 267.585 2043.18 266.675 2046.4 264.855C2049.61 262.993 2051.22 260.137 2051.22 256.286C2051.22 253.366 2049.93 251.145 2047.35 249.621C2045.7 248.69 2042.44 247.611 2037.57 246.384L2028.5 244.099C2022.7 242.66 2018.43 241.052 2015.68 239.274C2010.77 236.185 2008.31 231.911 2008.31 226.452C2008.31 220.02 2010.62 214.815 2015.23 210.837C2019.89 206.859 2026.13 204.87 2033.96 204.87C2044.2 204.87 2051.58 207.875 2056.11 213.884C2058.95 217.692 2060.32 221.797 2060.24 226.198H2049.44C2049.23 223.617 2048.32 221.268 2046.72 219.152C2044.09 216.148 2039.54 214.646 2033.07 214.646C2028.75 214.646 2025.47 215.471 2023.23 217.121C2021.03 218.771 2019.93 220.951 2019.93 223.659C2019.93 226.621 2021.39 228.991 2024.31 230.769C2026 231.826 2028.5 232.757 2031.8 233.562L2039.35 235.402C2047.56 237.391 2053.06 239.317 2055.86 241.179C2060.3 244.099 2062.52 248.69 2062.52 254.953C2062.52 261.005 2060.21 266.231 2055.6 270.632C2051.03 275.033 2044.05 277.233 2034.65 277.233C2024.54 277.233 2017.37 274.948 2013.14 270.378C2008.95 265.765 2006.7 260.074 2006.41 253.303H2017.39Z" fill="#944CAA"/>
<path d="M2151.76 267.268C2159.33 267.268 2164.52 264.411 2167.31 258.698C2170.14 252.943 2171.56 246.553 2171.56 239.528C2171.56 233.181 2170.55 228.018 2168.51 224.04C2165.3 217.777 2159.75 214.646 2151.88 214.646C2144.9 214.646 2139.82 217.312 2136.65 222.644C2133.48 227.976 2131.89 234.408 2131.89 241.94C2131.89 249.177 2133.48 255.207 2136.65 260.031C2139.82 264.855 2144.86 267.268 2151.76 267.268ZM2152.2 204.68C2160.96 204.68 2168.37 207.6 2174.42 213.439C2180.47 219.279 2183.49 227.87 2183.49 239.211C2183.49 250.171 2180.83 259.227 2175.5 266.379C2170.16 273.531 2161.89 277.106 2150.68 277.106C2141.33 277.106 2133.9 273.954 2128.4 267.648C2122.9 261.301 2120.15 252.795 2120.15 242.131C2120.15 230.705 2123.04 221.607 2128.84 214.836C2134.64 208.065 2142.43 204.68 2152.2 204.68ZM2209.23 206.647L2227.38 261.999L2246.36 206.647H2258.87L2233.22 274.631H2221.03L2195.96 206.647H2209.23ZM2303.45 205.124C2308.28 205.124 2312.95 206.267 2317.48 208.552C2322.01 210.795 2325.46 213.715 2327.83 217.312C2330.11 220.739 2331.64 224.738 2332.4 229.309C2333.08 232.44 2333.41 237.434 2333.41 244.289H2283.58C2283.8 251.187 2285.43 256.73 2288.47 260.92C2291.52 265.067 2296.24 267.141 2302.63 267.141C2308.59 267.141 2313.35 265.173 2316.91 261.237C2318.94 258.952 2320.38 256.307 2321.23 253.303H2332.46C2332.17 255.799 2331.17 258.592 2329.48 261.682C2327.83 264.729 2325.97 267.225 2323.89 269.172C2320.42 272.557 2316.13 274.842 2311.01 276.027C2308.26 276.704 2305.15 277.043 2301.68 277.043C2293.21 277.043 2286.04 273.975 2280.16 267.839C2274.27 261.66 2271.33 253.028 2271.33 241.94C2271.33 231.022 2274.3 222.157 2280.22 215.344C2286.14 208.531 2293.89 205.124 2303.45 205.124ZM2321.67 235.212C2321.2 230.261 2320.13 226.304 2318.43 223.342C2315.3 217.84 2310.08 215.09 2302.75 215.09C2297.51 215.09 2293.11 216.994 2289.55 220.803C2286 224.569 2284.11 229.372 2283.9 235.212H2321.67ZM2354.32 206.647H2365.18V218.391C2366.07 216.105 2368.25 213.334 2371.72 210.075C2375.19 206.774 2379.18 205.124 2383.71 205.124C2383.92 205.124 2384.28 205.145 2384.79 205.188C2385.3 205.23 2386.17 205.314 2387.39 205.441V217.502C2386.72 217.375 2386.08 217.29 2385.49 217.248C2384.94 217.206 2384.33 217.185 2383.65 217.185C2377.89 217.185 2373.47 219.047 2370.38 222.771C2367.29 226.452 2365.75 230.705 2365.75 235.529V274.631H2354.32V206.647ZM2409.38 206.647L2427.54 261.999L2446.52 206.647H2459.02L2433.38 274.631H2421.19L2396.12 206.647H2409.38ZM2475.3 206.965H2486.91V274.631H2475.3V206.965ZM2475.3 181.384H2486.91V194.333H2475.3V181.384ZM2539.05 205.124C2543.88 205.124 2548.55 206.267 2553.08 208.552C2557.61 210.795 2561.06 213.715 2563.43 217.312C2565.71 220.739 2567.24 224.738 2568 229.309C2568.67 232.44 2569.01 237.434 2569.01 244.289H2519.18C2519.4 251.187 2521.02 256.73 2524.07 260.92C2527.12 265.067 2531.84 267.141 2538.23 267.141C2544.19 267.141 2548.95 265.173 2552.51 261.237C2554.54 258.952 2555.98 256.307 2556.83 253.303H2568.06C2567.76 255.799 2566.77 258.592 2565.08 261.682C2563.43 264.729 2561.57 267.225 2559.49 269.172C2556.02 272.557 2551.73 274.842 2546.61 276.027C2543.86 276.704 2540.74 277.043 2537.27 277.043C2528.81 277.043 2521.64 273.975 2515.76 267.839C2509.87 261.66 2506.93 253.028 2506.93 241.94C2506.93 231.022 2509.9 222.157 2515.82 215.344C2521.74 208.531 2529.49 205.124 2539.05 205.124ZM2557.27 235.212C2556.8 230.261 2555.73 226.304 2554.03 223.342C2550.9 217.84 2545.67 215.09 2538.35 215.09C2533.11 215.09 2528.71 216.994 2525.15 220.803C2521.6 224.569 2519.71 229.372 2519.5 235.212H2557.27ZM2594.87 206.647L2607.95 260.222L2621.22 206.647H2634.04L2647.37 259.904L2661.27 206.647H2672.7L2652.95 274.631H2641.08L2627.25 222.009L2613.85 274.631H2601.98L2582.37 206.647H2594.87Z" fill="black"/>
<path d="M987.715 283.631H976.861V189.051H987.715V283.631Z" fill="black"/>
</svg>
