<svg width="673" height="307" viewBox="0 0 673 307" fill="none" xmlns="http://www.w3.org/2000/svg">
<g clip-path="url(#clip0)">
<path d="M520.592 187.936C512.435 174.374 494.731 169.381 481.278 176.695L457.555 189.709C451.09 193.176 446.364 199.246 444.644 206.346C443.167 212.3 443.665 218.553 446.204 224.111C444.02 226.951 442.477 230.165 441.667 233.594C439.853 240.853 441.085 248.564 444.987 254.877C453.227 268.444 470.848 273.431 484.301 266.118L508.019 253.186C514.484 249.719 519.21 243.649 520.93 236.549C522.407 230.595 521.909 224.342 519.37 218.784C521.554 215.944 523.097 212.73 523.907 209.301C525.809 201.965 524.577 194.254 520.592 187.936Z" fill="#FF3E00"/>
<path d="M473.62 258.027C466.129 259.435 458.625 256.033 454.734 249.555C452.328 245.747 451.637 241.14 452.679 236.732C452.894 236 453.103 235.35 453.318 234.619L453.82 233.325L454.924 234.228C457.522 236.391 460.403 238.075 463.564 239.281L464.375 239.584L464.237 240.404C464.077 241.554 464.326 242.814 464.922 243.849C466.12 245.836 468.376 246.898 470.649 246.469C471.156 246.337 471.664 246.205 472.094 245.985L495.73 233.047C496.938 232.382 497.754 231.358 498.09 230.054C498.426 228.749 498.189 227.324 497.515 226.201C496.318 224.214 494.056 223.234 491.783 223.663C491.275 223.796 490.768 223.928 490.338 224.148L481.281 229.1C479.813 229.915 478.197 230.471 476.515 230.773C469.024 232.181 461.52 228.78 457.629 222.302C455.306 218.499 454.532 213.886 455.657 209.484C456.687 205.24 459.594 201.537 463.471 199.473L487.19 186.541C488.657 185.727 490.273 185.171 491.961 184.786C499.452 183.377 506.956 186.779 510.846 193.257C513.253 197.066 513.943 201.673 512.902 206.081C512.687 206.813 512.477 207.462 512.18 208.189L511.678 209.482L510.574 208.579C507.975 206.416 505.095 204.732 501.934 203.526L501.123 203.224L501.261 202.404C501.42 201.253 501.172 199.993 500.576 198.958C499.378 196.971 497.116 195.992 494.843 196.421C494.336 196.553 493.828 196.685 493.398 196.905L469.763 209.842C468.555 210.508 467.739 211.532 467.402 212.836C467.066 214.14 467.304 215.566 467.977 216.689C469.175 218.676 471.437 219.655 473.709 219.226C474.217 219.094 474.724 218.962 475.155 218.742L484.212 213.789C485.679 212.975 487.295 212.419 488.983 212.034C496.474 210.626 503.978 214.027 507.869 220.506C510.275 224.314 510.965 228.921 509.924 233.329C508.893 237.572 505.987 241.276 502.109 243.34L478.391 256.272C476.924 257.086 475.308 257.642 473.62 258.027Z" fill="white"/>
</g>
<path d="M245.659 215.722C245.659 207.86 235.846 200.41 220.8 195.79C224.272 180.405 222.729 168.165 215.929 164.247C214.362 163.327 212.529 162.892 210.528 162.892V168.286C211.637 168.286 212.529 168.504 213.277 168.915C216.556 170.802 217.979 177.986 216.869 187.227C216.604 189.5 216.17 191.895 215.64 194.338C210.914 193.177 205.754 192.282 200.329 191.702C197.073 187.227 193.698 183.163 190.298 179.607C198.158 172.278 205.537 168.262 210.552 168.262V162.868C203.921 162.868 195.241 167.609 186.464 175.833C177.687 167.657 169.007 162.965 162.376 162.965V168.359C167.367 168.359 174.77 172.35 182.63 179.631C179.255 183.187 175.879 187.227 172.672 191.702C167.223 192.282 162.063 193.177 157.337 194.363C156.782 191.944 156.372 189.597 156.083 187.348C154.95 178.107 156.348 170.923 159.603 169.012C160.327 168.577 161.267 168.383 162.376 168.383V162.989C160.351 162.989 158.518 163.424 156.927 164.343C150.151 168.262 148.632 180.478 152.128 195.814C137.131 200.458 127.365 207.884 127.365 215.722C127.365 223.583 137.179 231.034 152.225 235.654C148.753 251.038 150.296 263.278 157.095 267.197C158.663 268.116 160.495 268.552 162.521 268.552C169.152 268.552 177.832 263.811 186.609 255.586C195.386 263.762 204.066 268.455 210.697 268.455C212.722 268.455 214.555 268.019 216.146 267.1C222.922 263.182 224.441 250.966 220.944 235.63C235.894 231.01 245.659 223.559 245.659 215.722ZM214.265 199.587C213.373 202.708 212.264 205.925 211.01 209.142C210.022 207.207 208.985 205.272 207.852 203.337C206.742 201.402 205.561 199.515 204.379 197.676C207.803 198.184 211.107 198.813 214.265 199.587ZM203.222 225.349C201.341 228.615 199.412 231.711 197.411 234.59C193.818 234.904 190.177 235.073 186.512 235.073C182.871 235.073 179.23 234.904 175.662 234.614C173.661 231.735 171.707 228.663 169.827 225.422C167.994 222.253 166.33 219.036 164.811 215.794C166.306 212.553 167.994 209.312 169.803 206.143C171.683 202.877 173.612 199.781 175.614 196.902C179.206 196.588 182.847 196.419 186.512 196.419C190.153 196.419 193.794 196.588 197.363 196.878C199.364 199.757 201.317 202.829 203.198 206.07C205.03 209.239 206.694 212.456 208.213 215.698C206.694 218.939 205.03 222.18 203.222 225.349ZM211.01 222.205C212.312 225.446 213.421 228.687 214.338 231.832C211.179 232.606 207.852 233.259 204.403 233.767C205.585 231.905 206.766 229.994 207.876 228.034C208.985 226.099 210.022 224.14 211.01 222.205ZM186.561 248.015C184.318 245.693 182.076 243.104 179.857 240.274C182.027 240.371 184.246 240.443 186.488 240.443C188.755 240.443 190.997 240.395 193.191 240.274C191.021 243.104 188.779 245.693 186.561 248.015ZM168.621 233.767C165.197 233.259 161.894 232.63 158.735 231.856C159.627 228.736 160.736 225.519 161.99 222.301C162.979 224.237 164.016 226.172 165.149 228.107C166.282 230.042 167.44 231.929 168.621 233.767ZM186.44 183.429C188.682 185.751 190.925 188.339 193.143 191.169C190.973 191.073 188.755 191 186.512 191C184.246 191 182.003 191.049 179.809 191.169C181.979 188.339 184.222 185.751 186.44 183.429ZM168.597 197.676C167.415 199.539 166.234 201.45 165.125 203.409C164.016 205.345 162.979 207.28 161.99 209.215C160.688 205.973 159.579 202.732 158.663 199.587C161.821 198.838 165.149 198.184 168.597 197.676ZM146.775 227.962C138.24 224.309 132.718 219.52 132.718 215.722C132.718 211.924 138.24 207.11 146.775 203.482C148.849 202.587 151.116 201.789 153.455 201.039C154.829 205.78 156.637 210.715 158.88 215.77C156.661 220.802 154.877 225.712 153.527 230.429C151.14 229.679 148.873 228.857 146.775 227.962ZM159.748 262.528C156.469 260.642 155.046 253.457 156.155 244.217C156.42 241.943 156.854 239.548 157.385 237.105C162.111 238.266 167.271 239.161 172.696 239.742C175.951 244.217 179.327 248.281 182.727 251.837C174.866 259.166 167.488 263.182 162.472 263.182C161.387 263.157 160.471 262.94 159.748 262.528ZM216.942 244.096C218.075 253.336 216.677 260.521 213.421 262.432C212.698 262.867 211.758 263.061 210.649 263.061C205.657 263.061 198.255 259.069 190.394 251.788C193.77 248.232 197.146 244.193 200.353 239.718C205.802 239.137 210.962 238.242 215.688 237.057C216.243 239.5 216.677 241.846 216.942 244.096ZM226.225 227.962C224.151 228.857 221.885 229.655 219.546 230.405C218.172 225.664 216.363 220.729 214.121 215.673C216.339 210.642 218.123 205.732 219.474 201.015C221.861 201.764 224.127 202.587 226.249 203.482C234.785 207.135 240.306 211.924 240.306 215.722C240.282 219.52 234.761 224.333 226.225 227.962Z" fill="#61DAFB"/>
<path d="M186.488 226.776C192.574 226.776 197.507 221.827 197.507 215.722C197.507 209.617 192.574 204.667 186.488 204.667C180.402 204.667 175.469 209.617 175.469 215.722C175.469 221.827 180.402 226.776 186.488 226.776Z" fill="#61DAFB"/>
<g clip-path="url(#clip1)">
<path d="M0.425092 83.6126C0.190321 83.2524 0.290597 82.771 0.649067 82.5374L48.8888 51.0945C61.6786 42.758 78.1879 46.8408 86.5643 59.6919L88.2386 62.2606C89.1745 63.6965 88.7708 65.6182 87.337 66.5528L76.4419 73.6542C75.7249 74.1216 74.765 73.9194 74.2971 73.2015C73.4114 71.8427 72.1048 69.838 71.7748 69.3317C68.9827 65.048 63.2632 63.8281 58.9999 66.6069L26.1988 87.9869C25.8403 88.2206 25.74 88.702 25.9748 89.0622L60.5135 142.051C60.7482 142.412 60.6483 142.895 60.2804 143.114C51.8323 148.133 40.8307 145.603 35.389 137.254L0.425092 83.6126Z" fill="#ED1846"/>
<path d="M49.1752 95.1137C48.8168 95.3473 48.7157 95.8304 48.965 96.1807C54.6924 104.223 65.767 106.402 74.0758 100.986L84.3683 94.2776C85.7893 93.3513 87.6959 93.758 88.6266 95.1859L101.683 115.217C101.918 115.577 102.401 115.681 102.749 115.432C110.751 109.729 112.877 98.6424 107.435 90.2937L104.065 85.1229C97.5502 75.1277 84.2047 72.2812 74.2571 78.7651L49.1752 95.1137Z" fill="#ED1846"/>
</g>
<path d="M443.568 31.2356L347.081 203.89C345.089 207.455 339.971 207.476 337.949 203.928L239.549 31.2522C237.346 27.3865 240.65 22.7041 245.027 23.4871L341.617 40.764C342.233 40.8742 342.864 40.8731 343.48 40.7607L438.051 23.5119C442.413 22.7161 445.732 27.3623 443.568 31.2356Z" fill="url(#paint0_linear)"/>
<path d="M387.628 0.826179L316.225 14.827C315.052 15.0571 314.183 16.0523 314.112 17.2467L309.72 91.4801C309.616 93.2286 311.221 94.5856 312.926 94.192L332.806 89.601C334.666 89.1717 336.347 90.811 335.964 92.6828L330.058 121.625C329.661 123.572 331.488 125.238 333.389 124.66L345.668 120.927C347.571 120.349 349.4 122.019 348.997 123.969L339.611 169.429C339.024 172.273 342.804 173.824 344.38 171.386L345.433 169.757L403.616 53.5625C404.591 51.617 402.911 49.3986 400.775 49.811L380.312 53.763C378.39 54.134 376.753 52.342 377.296 50.4593L390.652 4.12818C391.195 2.24235 389.553 0.448767 387.628 0.826179Z" fill="url(#paint1_linear)"/>
<g clip-path="url(#clip2)">
<path d="M632.983 71.2609L609.596 85.2459L609.134 58.0004L569.424 35.9207L571.424 153.898L672.693 93.3406L632.983 71.2609Z" fill="#41B883"/>
<path d="M632.982 71.2607L609.595 85.2457L609.134 58.0002L590.077 47.4045L591.278 118.19L652.039 81.8564L632.982 71.2607Z" fill="#34495E"/>
</g>
<path d="M319.18 272.053C319.262 272.115 319.403 272.155 319.262 272.276C319.16 272.418 319.038 272.539 318.958 272.702C318.877 272.844 318.816 272.884 318.694 272.783C318.847 272.534 319.008 272.29 319.179 272.052L319.18 272.053ZM359.894 293.31C359.894 293.37 359.914 293.41 359.914 293.472C359.955 293.391 359.955 293.35 359.975 293.31L359.894 293.31ZM359.894 293.492V293.472V293.492ZM355.762 301.402L352.237 281.85C352.177 281.831 352.096 281.791 351.953 281.75C351.994 281.831 352.015 281.891 352.035 281.952C352.135 281.932 352.177 281.932 352.217 281.912C352.217 281.892 352.217 281.872 352.238 281.851L355.763 301.404L355.762 301.402ZM352.116 277.449C352.096 277.509 352.096 277.57 352.096 277.631C352.096 277.569 352.096 277.508 352.117 277.448L352.116 277.449ZM352.136 277.854C352.116 277.854 352.116 277.854 352.096 277.832V277.852C352.117 277.872 352.117 277.872 352.137 277.852L352.136 277.854ZM352.096 278.015V277.873C352.037 277.893 351.976 277.893 351.894 277.914C351.996 277.952 352.097 277.974 352.097 278.014L352.096 278.015Z" fill="#DD3735"/>
<path d="M367.874 273.087C367.834 272.296 367.814 271.505 367.733 270.714C367.591 269.639 367.45 268.544 367.206 267.489C367.024 266.617 366.721 265.785 366.417 264.954C366.032 263.98 365.647 262.986 365.16 262.054C364.371 260.553 363.338 259.213 362.386 257.814C361.756 256.921 360.946 256.192 360.338 255.279C359.994 254.751 359.488 254.306 358.981 253.901C358.171 253.25 357.32 252.662 356.47 252.094C355.822 251.648 355.173 251.222 354.484 250.837C353.937 250.531 353.35 250.288 352.783 250.024C352.135 249.72 351.507 249.354 350.778 249.213C350.595 249.174 350.433 249.112 350.25 249.051C349.785 248.889 349.339 248.707 348.873 248.564C348.164 248.341 347.476 248.078 346.746 247.895C346.039 247.712 345.31 247.591 344.58 247.489C343.77 247.37 342.941 247.328 342.129 247.248C341.603 247.187 341.076 247.127 340.57 247.107C339.8 247.067 339.01 247.067 338.241 247.047C337.856 247.026 337.451 246.985 337.066 247.006C336.479 247.026 335.892 247.086 335.303 247.167C334.737 247.229 334.17 247.329 333.623 247.411C332.956 247.492 332.288 247.533 331.619 247.615C330.991 247.696 330.343 247.818 329.715 247.919C329.492 247.96 329.269 248.041 329.046 248.081C328.561 248.183 328.054 248.224 327.568 248.386C326.698 248.651 325.826 248.955 324.975 249.279C324.185 249.604 323.415 249.948 322.666 250.354C321.897 250.779 321.167 251.285 320.438 251.773C319.748 252.24 319.06 252.726 318.391 253.254C317.744 253.761 317.136 254.329 316.548 254.897C316.225 255.22 315.961 255.606 315.657 255.971C315.151 256.56 314.644 257.127 314.158 257.736C313.755 258.244 313.388 258.771 313.003 259.299C312.316 260.23 311.729 261.225 311.182 262.219C310.959 262.625 310.757 263.03 310.554 263.435C310.25 264.043 309.926 264.632 309.643 265.261C309.44 265.687 309.278 266.154 309.156 266.62C308.874 267.615 308.59 268.629 308.327 269.622C308.083 270.515 308.023 271.448 308.003 272.361C307.983 273.172 308.063 273.963 308.144 274.775C308.165 274.978 308.044 275.221 308.286 275.383C308.205 275.606 308.266 275.729 308.386 275.767C308.246 275.991 308.447 276.134 308.367 276.337C308.347 276.377 308.429 276.458 308.467 276.519C308.467 276.58 308.448 276.661 308.467 276.722C308.489 276.904 308.57 277.087 308.57 277.29C308.57 277.432 308.691 277.594 308.731 277.736C308.752 277.796 308.731 277.898 308.691 277.939C308.569 278.081 308.589 278.202 308.771 278.284C308.874 278.547 308.833 278.669 308.813 278.792C308.853 278.973 308.792 279.034 308.813 279.075C308.975 279.4 309.036 279.765 309.056 280.13C309.056 280.211 309.096 280.293 309.137 280.393C309.157 280.393 309.137 280.778 309.137 280.778C309.237 280.718 309.32 280.698 309.42 280.657C309.482 280.921 309.542 281.166 309.623 281.389C309.724 281.55 309.724 281.63 309.684 281.65C309.765 282.015 309.805 282.36 309.946 282.705C309.946 282.32 309.908 281.935 309.846 281.57C310.129 281.671 310.373 281.772 310.535 281.772C310.556 281.71 310.576 281.63 310.597 281.59C310.475 281.469 310.373 281.286 310.252 281.165C310.292 281.326 310.252 281.388 310.252 281.449C310.171 281.408 310.069 281.367 309.968 281.326C310.049 281.226 310.13 281.124 310.252 281.003C310.252 280.82 310.152 280.657 309.867 280.678C309.988 280.638 310.11 280.577 310.252 280.536C310.475 280.415 310.232 280.192 310.232 279.908C310.252 279.564 310.049 279.219 309.988 278.853C309.887 278.286 309.908 277.434 309.847 276.866C309.725 276.764 309.623 277.027 309.604 277.048C309.665 277.535 309.725 278.021 309.765 278.508C309.644 278.103 309.563 277.656 309.462 277.169C309.441 277.312 309.421 277.372 309.421 277.454C309.321 277.554 309.401 277.677 309.462 277.819C309.32 277.757 309.158 277.779 309.158 277.779V278.347C308.956 278.144 308.896 277.982 308.794 277.839C308.754 277.677 308.732 277.516 308.694 277.354C308.732 277.252 308.694 277.191 308.694 277.131C308.672 276.988 308.652 276.826 308.632 276.643C308.652 276.623 308.612 276.319 308.612 276.319C308.774 276.339 308.876 276.358 308.977 276.358C308.775 276.096 308.915 275.933 308.998 275.771C309.039 275.689 309.18 275.671 309.221 275.587C309.383 275.283 309.647 275.041 309.647 274.655C309.647 274.472 309.708 274.27 309.727 274.086C309.768 273.742 309.808 273.397 309.828 273.052C309.869 272.606 309.828 272.159 309.93 271.733C310.093 271.025 310.296 270.315 310.518 269.604C310.68 269.097 310.863 268.612 311.064 268.104C311.368 267.312 311.653 266.521 312.037 265.771C312.584 264.675 313.212 263.621 313.82 262.546C314.205 261.877 314.61 261.248 315.036 260.599C315.44 259.97 315.844 259.321 316.312 258.732C316.96 257.901 317.669 257.13 318.459 256.44C319.27 255.71 320.039 254.96 320.91 254.29C322.042 253.416 323.247 252.642 324.514 251.977C325.547 251.43 326.62 251.002 327.694 250.597C328.383 250.333 329.132 250.212 329.842 249.988C330.651 249.724 331.462 249.604 332.312 249.583C332.859 249.562 333.386 249.501 333.933 249.44C334.419 249.402 334.905 249.36 335.432 249.3C335.37 249.38 335.35 249.421 335.33 249.461C335.109 249.786 334.865 250.111 334.642 250.435C334.46 250.699 334.257 250.983 334.075 251.246C333.75 251.673 333.405 252.099 333.102 252.545C332.636 253.215 332.211 253.905 331.724 254.574C331.239 255.222 330.712 255.831 330.206 256.459C329.538 257.332 328.909 258.224 328.241 259.096C327.633 259.928 326.987 260.72 326.399 261.552C325.872 262.281 325.406 263.053 324.899 263.802C324.15 264.918 323.401 266.012 322.652 267.128C322.064 267.978 321.47 268.823 320.869 269.664C320.828 269.725 320.767 269.744 320.707 269.785C320.546 270.048 320.546 270.19 320.484 270.312C320.323 270.616 320.161 270.92 319.978 271.205C319.876 271.366 319.735 271.508 319.613 271.67C319.593 271.427 319.936 271.306 319.774 271.001C319.674 271.164 319.572 271.306 319.471 271.468L319.228 271.953C319.309 272.014 319.451 272.055 319.309 272.176C319.247 272.278 319.187 272.399 319.126 272.502C319.228 272.44 319.288 272.38 319.35 272.299C319.35 272.522 319.228 272.703 319.126 272.886C319.046 273.047 318.843 273.171 318.702 273.291C318.722 273.312 318.863 273.373 318.884 273.393C319.066 273.331 319.127 273.231 319.148 273.291C319.21 273.211 319.27 273.15 319.29 273.089C319.37 272.886 319.491 272.724 319.694 272.642C319.775 272.602 319.835 272.541 319.896 272.481C320.504 271.851 321.132 271.243 321.679 270.574C322.53 269.538 323.3 268.465 324.111 267.41C324.454 266.964 324.86 266.517 325.224 266.091C325.284 266.557 325.244 267.003 325.224 267.43C325.163 268.18 325.123 268.931 325.063 269.701C325.042 270.005 325.063 270.309 325.042 270.614C325.042 270.694 324.98 270.755 324.98 270.837C324.98 271.039 325.042 271.262 325.042 271.466C324.98 272.216 324.899 272.946 324.838 273.696C324.817 273.858 324.898 274.021 324.938 274.163C324.838 275.258 325.061 276.415 324.878 277.571C325.019 277.348 325.06 277.206 325.06 277.065C325.079 276.943 325.06 276.821 325.06 276.68V276.476C325.079 276.111 325.16 275.726 325.12 275.36C325.079 274.955 325.079 274.57 325.161 274.184C325.202 274.023 325.141 273.819 325.243 273.616V273.92C325.223 275.075 325.263 276.232 325.102 277.388C325.081 277.489 325.163 277.673 324.94 277.652C324.757 278.017 324.98 278.281 324.778 278.483C324.737 278.524 324.817 278.706 324.838 278.828C324.756 279.072 324.756 279.072 324.878 279.092C324.898 279.538 324.939 279.943 324.959 280.37C325.282 279.6 325.12 278.807 325.263 278.016C325.283 278.341 325.304 278.665 325.283 279.009C325.283 279.538 325.263 280.044 325.243 280.571C325.243 280.673 325.223 280.774 325.203 280.876C325.141 281.161 325.122 281.444 325.02 281.707C324.939 281.911 324.98 282.215 324.98 282.458V283.23C325.061 283.575 324.959 283.757 325.02 283.96C324.959 284.163 324.939 284.224 324.959 284.285L325.02 284.589C325.426 284.548 325.243 284.853 325.405 285.015C325.283 285.178 325.324 285.238 325.324 285.32C325.324 285.503 325.305 285.665 325.284 285.848C325.284 286.314 325.264 286.781 325.264 287.227C325.264 287.289 325.284 287.348 325.284 287.409C325.284 287.45 325.264 287.978 325.264 287.978C325.305 288.038 325.264 288.099 325.203 288.16C325.183 288.16 325.123 285.584 325.123 285.584H324.818C324.778 286.8 324.88 287.895 324.657 289.032C324.414 289.051 324.334 289.092 324.069 289.092C323.441 289.092 322.813 289.092 322.185 289.112C321.435 289.112 320.707 289.132 319.956 289.132C319.593 289.132 319.208 289.174 318.843 289.174C318.357 289.174 317.85 289.112 317.365 289.112C316.615 289.112 315.886 289.174 315.136 289.194C314.59 289.214 314.043 289.214 313.497 289.234C313.131 289.254 312.765 289.273 312.402 289.314C312.241 289.334 312.098 289.395 311.896 289.456C311.834 289.456 311.693 289.436 311.573 289.456C311.368 289.497 311.188 289.618 310.984 289.659C310.68 289.721 310.599 289.801 310.639 290.106V290.308C310.619 290.348 311.085 290.247 311.085 290.247C311.044 290.247 311.024 290.368 310.962 290.47C311.125 290.408 311.226 290.368 311.328 290.328C311.632 290.471 311.895 290.39 312.137 290.451C312.927 290.653 313.737 290.736 314.547 290.815C315.074 290.856 315.58 290.877 316.107 290.896C316.856 290.937 317.605 290.978 318.354 290.978C318.983 290.978 319.591 290.916 320.217 290.916C321.087 290.916 321.96 290.956 322.83 290.978C323.013 290.978 323.215 290.956 323.418 290.956H324.895C326.213 290.916 327.529 290.895 328.846 290.856C329.597 290.835 330.367 290.795 331.115 290.774L333.425 290.712C334.316 290.692 335.207 290.692 336.078 290.674C336.747 290.674 337.395 290.651 338.064 290.631C338.813 290.611 339.582 290.551 340.332 290.511C340.738 290.49 341.143 290.449 341.548 290.409C342.034 290.369 342.541 290.309 343.026 290.288C343.756 290.247 344.505 290.227 345.235 290.186C346.146 290.126 347.058 290.045 347.989 290.024C348.84 289.984 349.711 290.004 350.562 289.984C351.312 289.963 352.062 289.922 352.831 289.903L354.109 289.841C354.109 289.841 354.959 289.821 355.384 289.779C356.113 289.739 356.842 289.658 357.572 289.639C358.037 289.618 358.503 289.639 358.969 289.618C359.718 289.598 360.488 289.556 361.237 289.556C361.52 289.556 361.824 289.598 362.189 289.618C362.027 289.76 361.925 289.841 361.804 289.943C361.885 289.962 361.965 290.004 362.047 290.044C361.925 290.125 361.824 290.144 361.724 290.144C361.682 290.247 361.641 290.287 361.601 290.491H361.965C361.824 290.491 361.702 290.673 361.56 290.795C361.399 290.753 361.256 290.795 361.176 291.018C361.317 291.098 361.297 291.159 361.277 291.241C361.034 291.321 360.852 291.403 360.954 291.666C360.872 291.706 360.771 291.747 360.669 291.807C360.569 291.969 360.386 292.01 360.426 292.233C360.508 292.252 360.588 292.295 360.649 292.313C360.548 292.354 360.447 292.415 360.345 292.455C359.981 292.678 360.143 292.78 360.224 292.881C360.163 292.922 360.103 292.962 360.042 292.983C360.082 293.165 360.142 293.206 360.163 293.206C360.059 293.284 359.958 293.365 359.859 293.449C359.797 293.632 359.716 293.713 359.635 293.834C359.555 293.956 359.514 294.119 359.412 294.24C358.987 294.707 358.683 295.256 358.137 295.62C357.934 295.762 357.752 295.945 357.57 296.128C357.205 296.472 356.881 296.858 356.496 297.183C355.99 297.608 355.464 297.993 354.916 298.378C354.249 298.845 353.581 299.311 352.912 299.758C352.547 300 352.142 300.183 351.758 300.406C351.373 300.629 351.008 300.832 350.623 301.055C350.38 301.216 350.157 301.44 349.893 301.563C349.225 301.848 348.516 302.09 347.827 302.354C347.158 302.639 346.673 302.881 346.166 303.064C345.701 303.225 345.214 303.349 344.729 303.449C344.567 303.49 344.384 303.449 344.201 303.469C343.856 303.531 343.512 303.613 343.167 303.653C342.276 303.774 341.385 303.856 340.494 303.977C339.967 304.039 339.461 304.139 338.934 304.201C338.57 304.221 338.185 304.181 337.82 304.181C337.557 304.181 337.274 304.242 337.01 304.201C336.585 304.14 336.159 304.04 335.734 303.958C335.634 303.938 335.49 303.897 335.41 303.938C335.249 304.02 335.106 303.898 334.943 303.938C334.843 303.959 334.742 303.877 334.64 303.877C334.558 303.857 334.457 303.898 334.355 303.877C334.132 303.817 333.93 303.736 333.686 303.756C333.445 303.776 333.201 303.654 332.939 303.594C332.573 303.512 332.231 303.432 331.864 303.35C331.724 303.309 331.603 303.248 331.46 303.168C330.933 303.168 330.588 303.148 330.264 303.025C329.981 302.925 329.718 302.783 329.414 302.824C329.334 302.844 329.273 302.804 329.19 302.804C329.129 302.722 329.07 302.56 329.01 302.56C328.605 302.58 328.361 302.236 328.017 302.134C327.835 302.072 327.693 301.87 327.511 301.809C327.064 301.627 326.701 301.242 326.195 301.181C326.033 301.16 325.871 301.079 325.688 301.019C325.75 301.099 325.788 301.16 325.85 301.221C325.263 300.936 324.716 300.613 324.169 300.308C324.089 300.288 324.028 300.208 323.967 300.167L323.421 299.802C323.117 299.863 322.995 299.74 322.913 299.7C322.366 299.315 321.739 299.071 321.212 298.646C320.988 298.462 320.727 298.341 320.565 298.118C320.28 297.773 319.936 297.53 319.551 297.327C319.248 297.166 318.965 296.982 318.682 296.8C318.539 296.698 318.397 296.577 318.397 296.353C318.397 296.211 318.337 296.069 318.154 296.15C318.074 296.029 317.993 295.887 317.891 295.846C317.648 295.746 317.486 295.561 317.304 295.4C317.121 295.238 316.98 295.015 316.757 294.934C316.352 294.772 316.108 294.428 315.866 294.144C315.298 293.474 314.791 292.743 314.265 292.035C314.224 291.973 314.143 291.932 314.082 291.871C314.163 292.095 314.265 292.277 314.366 292.479C314.164 292.399 314.022 292.256 313.901 292.115C313.88 292.135 315.298 294.468 315.298 294.468C315.421 294.65 315.521 294.833 315.643 295.016C315.339 295.036 315.136 294.873 315.035 294.691C314.853 294.368 314.65 294.164 314.245 294.206C314.205 294.063 314.164 293.9 314.145 293.759C314.063 293.759 314.002 293.759 313.86 293.739C314.145 294.185 314.387 294.57 314.651 295.016C314.548 294.955 314.489 294.915 314.447 294.895C314.811 295.28 315.074 295.767 315.54 296.011C315.641 296.477 316.168 296.7 316.289 297.146C316.189 297.125 316.106 297.105 316.005 297.085C315.843 296.882 315.66 296.68 315.479 296.457C315.519 296.598 315.579 296.72 315.66 296.821C315.904 297.125 316.127 297.43 316.41 297.694C316.512 297.797 316.653 297.837 316.653 298.02C316.815 298.101 316.877 298.12 316.937 298.12C316.978 298.243 316.917 298.425 317.16 298.385C317.321 298.689 317.483 298.689 317.706 298.588C317.97 298.852 318.113 298.873 318.294 298.711C318.294 298.811 318.314 298.913 318.314 298.994C318.395 298.954 318.376 298.893 318.376 298.791C318.476 298.872 318.538 298.913 318.578 298.953C318.78 299.237 318.962 299.501 319.246 299.724C319.631 300.049 319.975 300.394 320.339 300.698C321.048 301.287 321.84 301.774 322.629 302.219C323.602 302.767 324.534 303.355 325.526 303.882C326.72 304.512 327.997 304.938 329.313 305.242C329.799 305.344 330.265 305.444 330.752 305.565C331.175 305.688 331.602 305.871 332.028 305.972C332.676 306.114 333.344 306.236 333.992 306.357C334.133 306.377 334.277 306.398 334.438 306.418C334.619 306.459 334.842 306.377 334.882 306.439C334.984 306.6 335.065 306.519 335.186 306.499C335.328 306.458 335.49 306.458 335.652 306.458C336.219 306.478 336.766 306.6 337.333 306.56C337.456 306.56 337.638 306.457 337.74 306.66C337.921 306.579 338.023 306.579 338.104 306.56C338.125 306.741 338.104 306.741 338.065 306.761C338.024 306.781 337.963 306.802 337.882 306.863C338.611 307.005 339.3 307.025 339.906 306.863C340.961 306.944 341.872 306.822 342.744 306.518C342.824 306.62 342.885 306.761 343.007 306.559C343.047 306.497 343.148 306.477 343.23 306.457C343.412 306.416 343.635 306.335 343.796 306.395C343.98 306.457 344.04 306.295 344.181 306.295C344.425 306.295 344.648 306.274 344.871 306.233C344.993 306.213 345.114 306.153 345.256 306.112C345.094 306.029 344.932 306.009 344.809 306.009C345.037 305.897 345.267 305.789 345.499 305.686C345.458 305.746 345.417 305.827 345.337 305.827H345.62C345.558 305.827 345.477 306.009 345.377 306.131C346.105 305.949 346.773 305.786 347.422 305.623C347.198 305.198 347.664 305.341 347.827 305.097C347.624 305.158 347.422 305.218 347.219 305.258C347.907 304.914 348.616 304.61 349.304 304.306C349.204 304.428 349.081 304.488 348.9 304.591C349.022 304.61 349.103 304.61 349.164 304.629C349.487 304.732 349.407 304.428 349.508 304.245C349.892 304.245 350.054 304.184 350.237 304.123C350.439 304.061 350.642 304.001 350.845 303.92C351.168 303.779 351.472 303.597 351.796 303.436C351.858 303.414 351.958 303.436 352.039 303.436C352.263 303.292 352.342 303.171 352.403 303.191C352.688 303.231 352.888 303.129 352.97 302.867C353.111 302.765 353.213 302.684 353.314 302.623C353.759 302.379 354.184 302.136 354.63 301.893C354.792 301.893 354.873 301.893 354.913 301.872C355.178 301.749 355.421 301.609 355.664 301.467C355.602 301.447 355.461 301.367 355.461 301.367C355.663 301.325 355.723 301.305 355.846 301.264C356.331 300.695 357.001 300.31 357.506 299.863C357.73 299.843 357.73 299.782 357.73 299.742C357.81 299.641 357.891 299.519 357.991 299.438C358.438 299.032 358.923 298.687 359.328 298.262C359.916 297.672 360.483 297.063 361.009 296.434C361.494 295.866 361.982 295.299 362.387 294.67C362.954 293.798 363.44 292.905 363.947 291.991C364.311 291.343 364.635 290.695 365.001 290.046C365.04 289.984 365.122 289.903 365.183 289.903C365.729 289.842 366.277 289.803 366.804 289.742C366.925 289.722 367.067 289.642 367.189 289.58C367.127 289.478 367.087 289.357 367.027 289.255C366.945 289.132 366.824 289.032 366.742 288.909C366.662 288.809 366.601 288.686 366.541 288.565C366.479 288.465 366.419 288.383 366.358 288.28C366.235 288.057 366.114 287.833 366.012 287.592C365.992 287.53 365.95 287.43 365.972 287.369C366.337 286.578 366.478 285.726 366.822 284.935C367.166 284.124 367.269 283.211 367.43 282.339C367.572 281.507 367.654 280.676 367.754 279.845C367.815 279.257 367.896 278.689 367.915 278.1C368.038 277.168 367.997 276.295 367.977 275.422C367.957 274.652 367.915 273.861 367.877 273.09L367.874 273.087ZM317.055 298.055C316.913 297.894 316.791 297.711 316.65 297.549L316.711 297.487C316.932 297.731 317.155 297.975 317.378 298.239C317.256 298.177 317.115 298.137 317.055 298.055ZM317.378 298.239C317.439 298.218 317.501 298.218 317.561 298.198C317.623 298.299 317.663 298.421 317.723 298.543C317.439 298.522 317.298 298.4 317.379 298.239H317.378ZM338.445 306.615V306.554C338.83 306.514 339.194 306.473 339.579 306.433V306.492C339.194 306.554 338.83 306.592 338.445 306.614V306.615ZM343.548 306.088C343.265 306.15 342.961 306.19 342.678 306.231C342.577 306.251 342.455 306.353 342.415 306.17C342.374 306.19 342.333 306.19 342.293 306.211C342.393 306.514 342.637 306.271 342.84 306.393C342.393 306.454 341.97 306.494 341.544 306.555V306.514C341.667 306.494 341.808 306.474 341.928 306.453V306.393C341.727 306.372 341.524 306.352 341.32 306.352C341.261 306.352 341.18 306.434 341.119 306.454C341.038 306.474 340.957 306.494 340.856 306.494C340.511 306.514 340.167 306.514 339.842 306.534C339.822 306.534 339.781 306.514 339.761 306.514V306.453C341.118 306.271 342.455 306.089 343.812 305.906C343.833 305.946 343.833 305.987 343.853 306.027C343.731 306.027 343.65 306.07 343.549 306.089L343.548 306.088ZM343.853 305.886C344.319 305.825 344.746 305.785 345.191 305.725C344.259 305.988 343.955 306.028 343.853 305.886H343.853ZM326.21 264.934C326.857 264.041 327.526 263.148 328.174 262.236C328.377 261.97 328.538 261.686 328.741 261.423C328.802 261.342 328.883 261.302 328.984 261.22L328.964 261.182C329.045 261.079 329.126 260.997 329.167 260.917C329.27 260.755 329.33 260.572 329.411 260.389C329.431 260.351 329.492 260.31 329.492 260.31C329.777 260.452 329.777 260.149 329.877 260.046C330.059 259.843 330.242 259.621 330.403 259.417C330.525 259.256 330.647 259.113 330.748 258.931C330.768 258.869 330.708 258.769 330.687 258.687H330.627C330.688 258.647 330.748 258.587 330.809 258.545C330.829 258.545 330.829 258.545 330.849 258.525C330.971 258.342 331.092 258.16 331.214 257.997C331.456 257.674 331.72 257.349 332.003 257.066C331.963 257.166 331.922 257.268 331.881 257.349C331.902 257.349 331.902 257.37 331.922 257.37C332.165 257.045 332.429 256.741 332.672 256.416C332.651 256.396 332.631 256.375 332.61 256.375C332.51 256.477 332.429 256.579 332.327 256.68C332.307 256.659 332.287 256.639 332.265 256.639C332.469 256.375 332.672 256.112 332.873 255.808C332.914 255.87 332.955 255.95 333.035 256.112C333.117 255.91 333.198 255.768 333.258 255.626C333.198 255.687 333.117 255.747 333.057 255.809L332.995 255.747L333.36 255.201C333.745 254.653 334.13 254.085 334.514 253.537C334.657 253.334 334.838 253.172 334.961 252.969C335.346 252.199 335.954 251.589 336.419 250.88C336.52 250.738 336.662 250.617 336.784 250.495C336.884 250.372 336.966 250.413 337.047 250.515C337.593 251.205 338.14 251.914 338.686 252.604C339.093 253.112 339.498 253.597 339.882 254.125C340.348 254.774 340.794 255.423 341.26 256.072C341.787 256.823 342.313 257.573 342.82 258.343C343.589 259.48 344.318 260.616 345.088 261.751C345.655 262.582 346.223 263.394 346.769 264.226H345.735C344.783 264.207 343.81 264.126 342.859 264.166C341.563 264.227 340.246 264.369 338.95 264.471C337.309 264.613 335.648 264.632 334.009 264.632C333.42 264.632 332.833 264.714 332.246 264.755C331.536 264.795 330.848 264.836 330.139 264.855C329.307 264.897 328.499 264.917 327.668 264.938C327.201 264.958 326.716 264.938 326.209 264.938L326.21 264.934ZM349.442 274.263V274.446C349.422 274.446 349.402 274.467 349.361 274.467C349.281 274.182 349.2 273.877 349.098 273.593C348.896 273.004 348.673 272.415 348.308 271.889C347.901 271.322 347.538 270.735 347.132 270.146C347.031 270.003 346.888 269.882 346.767 269.761C346.341 269.294 345.915 268.806 345.369 268.462C344.564 267.957 343.716 267.522 342.837 267.163C342.593 267.063 342.371 266.94 342.128 266.798H342.613L346.077 266.737C346.827 266.717 347.556 266.717 348.305 266.676C348.487 266.676 348.589 266.738 348.69 266.9C348.872 267.204 349.054 267.508 349.257 267.813C349.278 267.853 349.318 267.913 349.318 267.974C349.318 268.421 349.318 268.887 349.338 269.334C349.358 269.8 349.4 270.246 349.418 270.713C349.418 271.179 349.378 271.666 349.398 272.152C349.419 272.843 349.439 273.553 349.439 274.261L349.442 274.263ZM327.647 267.471C328.599 267.43 329.51 267.369 330.443 267.328C331.17 267.288 331.921 267.267 332.649 267.227C332.953 267.208 333.237 267.188 333.54 267.227C333.217 267.39 332.892 267.553 332.609 267.755C332.244 267.998 331.9 268.322 331.535 268.586C331.169 268.849 330.845 269.174 330.542 269.519C330.157 269.985 329.732 270.39 329.326 270.837C329.041 271.162 328.718 271.466 328.475 271.811C328.131 272.257 327.827 272.742 327.503 273.25C327.605 271.323 327.726 269.417 327.645 267.469L327.647 267.471ZM340.875 286.983C340.226 287.145 339.558 287.328 338.889 287.409C338.322 287.49 337.734 287.47 337.147 287.47C336.619 287.47 336.112 287.45 335.586 287.409C334.999 287.349 334.411 287.288 333.844 287.024C333.357 286.801 332.851 286.598 332.366 286.354C331.878 286.111 331.393 285.828 331.027 285.381C330.765 285.056 330.4 284.792 330.076 284.508C330.137 284.752 330.278 284.955 330.501 285.096C330.4 285.218 330.258 285.158 330.055 284.832C329.995 284.873 329.934 284.894 329.893 284.914C329.955 284.772 330.015 284.629 330.076 284.508C329.995 284.347 329.893 284.163 329.812 284C329.65 283.734 329.494 283.464 329.347 283.19C329.306 283.128 329.306 283.068 329.266 283.007C329.164 282.886 329.063 282.763 328.981 282.642C328.819 282.399 328.678 282.136 328.475 281.892C328.475 281.954 328.496 282.014 328.496 282.095C328.475 282.095 328.455 282.115 328.455 282.115L328.029 281.081C328.009 281.081 328.009 281.081 327.989 281.101L328.353 282.44C328.333 282.44 328.313 282.459 328.291 282.459C328.232 282.379 328.171 282.298 328.13 282.198C328.09 282.035 327.968 282.035 327.868 282.095C327.806 282.136 327.766 282.278 327.786 282.339C327.929 282.683 328.09 283.028 328.253 283.373C328.293 283.495 328.334 283.596 328.394 283.718C328.415 283.759 328.476 283.799 328.476 283.859C328.558 284.021 328.619 284.183 328.719 284.326C328.902 284.569 329.104 284.812 329.287 285.056C329.467 285.299 329.629 285.564 329.791 285.806C329.812 285.847 329.872 285.847 329.892 285.868C329.994 286.172 330.338 286.394 330.581 286.273C330.643 286.739 331.148 286.901 331.351 287.348C331.108 287.246 330.926 287.165 330.764 287.084C330.743 287.104 330.743 287.124 330.722 287.165C330.965 287.286 331.209 287.408 331.43 287.549C331.634 287.673 331.837 287.794 332.019 287.934C332.262 288.158 332.546 288.281 332.889 288.361C332.87 288.299 332.85 288.278 332.85 288.278C333.387 288.528 333.92 288.785 334.45 289.048C332.343 289.09 330.095 289.13 327.765 289.171C327.765 288.786 327.745 288.421 327.745 288.035C327.745 287.874 327.785 287.731 327.764 287.569C327.703 286.637 327.703 285.703 327.582 284.79C327.461 283.817 327.461 282.863 327.482 281.888C327.501 281.363 327.461 280.815 327.44 280.287C327.44 279.578 327.44 278.886 327.462 278.178C327.462 278.077 327.502 277.996 327.543 277.893H327.605C327.624 277.935 327.605 277.996 327.643 278.017C327.705 278.078 327.806 278.178 327.847 278.158C327.968 278.077 328.151 277.997 328.191 277.873C328.291 277.631 328.333 277.367 328.333 277.124C328.333 276.942 328.415 276.82 328.494 276.698C328.536 276.637 328.556 276.576 328.597 276.496C328.516 276.434 328.435 276.394 328.334 276.313C328.415 276.09 328.395 275.826 328.699 275.705C328.739 275.684 328.739 275.582 328.761 275.522C328.78 275.358 328.799 275.176 328.821 275.014C328.861 275.076 328.882 275.095 328.921 275.135C328.943 275.095 328.963 275.073 328.963 275.073C328.963 274.993 328.943 274.831 328.963 274.831C329.206 274.79 329.104 274.527 329.226 274.405C329.245 274.384 329.205 274.323 329.205 274.282C329.205 274.242 329.205 274.182 329.225 274.182C329.508 274.12 329.467 273.816 329.65 273.674C329.711 273.633 329.731 273.574 329.811 273.472C329.973 273.755 329.69 273.897 329.67 274.1C330.013 273.897 330.115 273.411 329.912 273.268C329.996 273.204 330.071 273.129 330.136 273.045C330.359 272.802 330.6 272.579 330.804 272.335C330.946 272.154 331.027 271.93 331.169 271.748C331.25 271.646 331.412 271.566 331.533 271.504C331.898 271.302 332.242 271.079 332.465 270.735C332.505 270.694 332.566 270.654 332.626 270.613C332.688 270.572 332.81 270.572 332.83 270.511C332.85 270.471 332.79 270.37 332.749 270.309C332.829 270.268 332.91 270.187 333.072 270.106C333.01 270.227 332.991 270.309 332.95 270.39L333.05 270.49C333.234 270.349 333.517 270.187 333.699 270.066C333.699 270.046 333.598 269.966 333.598 269.966C333.477 270.027 333.295 270.127 333.113 270.209C333.151 270.147 333.151 270.107 333.174 270.087C333.457 269.905 333.74 269.722 334.044 269.579C334.752 269.256 335.462 268.931 336.171 268.627C336.292 268.565 336.456 268.607 336.597 268.607C336.657 268.607 336.697 268.607 336.758 268.587C337.081 268.485 337.406 268.384 337.73 268.302C337.871 268.262 338.033 268.242 338.177 268.242C338.782 268.261 339.391 268.261 339.998 268.302C340.261 268.322 340.504 268.383 340.748 268.464C341.051 268.566 341.375 268.708 341.659 268.849C342.003 269.033 342.327 269.235 342.652 269.458C343.239 269.843 343.786 270.269 344.373 270.614C344.94 270.959 345.386 271.426 345.751 271.954C346.197 272.582 346.703 273.15 346.905 273.92L347.209 275.26C347.27 275.503 347.412 275.746 347.351 276.029C347.249 276.537 347.168 277.064 347.087 277.572C347.047 277.776 347.006 277.98 347.027 278.18C347.065 278.811 346.823 279.357 346.58 279.926C346.499 280.108 346.377 280.291 346.276 280.494C346.296 280.514 346.418 280.575 346.438 280.575L346.62 280.21C346.641 280.21 346.641 280.21 346.661 280.231C346.56 280.514 346.479 280.819 346.376 281.103C346.135 281.732 345.892 282.381 345.588 282.989C345.426 283.334 345.141 283.618 344.939 283.943C344.738 284.227 344.575 284.531 344.373 284.795C344.191 285.018 344.009 285.241 343.765 285.403C343.218 285.808 342.651 286.214 342.064 286.539C341.7 286.762 341.274 286.884 340.869 286.985L340.875 286.983ZM330.078 285.905L330.058 285.926C330.015 285.906 329.955 285.886 329.915 285.845L329.428 285.114C329.388 285.054 329.367 284.993 329.388 284.912C329.611 285.257 329.835 285.582 330.077 285.905L330.078 285.905ZM342.678 288.684C343.589 288.299 344.338 287.753 345.026 287.123C345.128 287.021 345.229 286.921 345.35 286.838C346.202 286.312 346.828 285.581 347.396 284.77C348.044 283.837 348.47 282.783 348.997 281.789C349.037 281.707 349.077 281.627 349.118 281.566C349.077 283.878 349.341 286.149 349.645 288.442C347.356 288.522 345.026 288.603 342.677 288.685L342.678 288.684ZM363.216 288.076C363.196 288.117 363.155 288.158 363.135 288.199C363.115 288.158 363.115 288.097 363.095 288.014C362.973 288.34 362.71 288.178 362.527 288.178C361.434 288.198 360.32 288.198 359.225 288.198C358.172 288.198 357.099 288.198 356.046 288.217C355.701 288.217 355.337 288.298 354.992 288.318C354.162 288.358 353.332 288.38 352.501 288.399C352.44 288.399 352.379 288.299 352.278 288.217C352.258 288.258 352.216 288.319 352.156 288.4C352.135 288.36 352.095 288.32 352.054 288.259C352.034 288.321 352.013 288.381 351.992 288.421H351.934C351.893 288.138 351.812 287.874 351.812 287.589C351.812 286.981 351.874 286.373 351.893 285.764C351.914 285.48 351.893 285.217 351.893 284.953C351.975 285.014 352.035 285.055 352.116 285.114C352.156 285.035 352.197 284.974 352.238 284.914C352.238 284.914 352.197 284.892 352.156 284.852C352.195 284.832 352.236 284.791 352.236 284.771C352.256 284.709 352.298 284.649 352.298 284.609C352.298 284.467 352.256 284.345 352.236 284.224C352.256 284.224 352.276 284.224 352.298 284.203L352.419 284.811H352.48C352.399 284.67 352.662 284.548 352.44 284.386C352.419 284.365 352.459 284.244 352.459 284.183C352.398 284.062 352.359 283.94 352.298 283.778C352.318 283.758 352.379 283.737 352.44 283.716C352.359 283.676 352.298 283.636 352.237 283.616C352.44 283.433 352.44 283.331 352.257 283.129C352.299 283.11 352.339 283.11 352.339 283.091C352.339 282.907 352.339 282.725 352.299 282.544C352.258 282.339 352.36 282.098 352.055 281.974C352.075 282.036 352.096 282.076 352.136 282.136C352.136 282.136 352.075 282.157 352.015 282.198C351.751 281.954 351.915 281.628 351.853 281.264C351.995 281.305 352.096 281.346 352.197 281.387C352.156 281.244 352.055 281.082 351.995 280.899H351.912V279.56C351.912 279.581 352.054 279.581 352.135 279.602C352.135 279.581 352.155 279.561 352.155 279.54C352.093 279.459 352.012 279.378 351.931 279.277L351.972 279.236C351.811 279.034 351.892 278.751 351.892 278.689V277.269C352.095 277.472 351.791 277.736 352.095 277.857V277.655H352.074C352.054 277.351 352.054 277.047 352.034 276.742H351.994C351.973 276.784 351.973 276.804 351.952 276.844H351.912L352.034 271.997C352.236 272.26 352.459 272.505 352.6 272.767C353.067 273.619 353.674 274.35 354.241 275.12C354.728 275.79 355.173 276.52 355.619 277.209C356.166 278.041 356.692 278.872 357.239 279.703C357.644 280.333 358.071 280.962 358.494 281.571C358.879 282.117 359.285 282.645 359.69 283.173C360.033 283.64 360.398 284.106 360.742 284.572C361.148 285.14 361.553 285.708 361.959 286.256C362.16 286.539 362.383 286.823 362.605 287.107C362.728 287.269 362.91 287.392 363.031 287.492C363.012 287.492 362.991 287.492 362.951 287.472C363.013 287.553 363.051 287.613 363.093 287.654C363.316 287.776 363.336 287.898 363.215 288.081L363.216 288.076ZM364.249 283.007V282.864C364.249 282.904 364.269 282.964 364.249 283.006V283.007ZM364.938 274.063C364.917 274.063 364.796 273.939 364.776 273.92C364.756 273.981 364.776 274.041 364.736 274.123C364.715 274.063 364.574 274.083 364.574 274.023C364.553 274.306 364.695 274.59 364.674 274.874C364.736 274.833 364.978 274.812 365.039 274.752C365.06 274.772 365.1 274.792 365.12 274.792C364.715 275.097 364.816 275.4 364.999 275.747C365.039 275.827 365.16 275.989 365.039 276.152C364.999 276.192 365.06 276.313 365.08 276.416H365.139V276.454L364.956 276.516C364.916 276.454 364.674 276.334 364.674 276.231V277.267C364.876 277.329 364.876 277.612 364.957 277.754C365 277.693 365.019 277.652 365.04 277.593L365.06 277.611C365.04 277.733 365.02 277.854 364.979 277.977C364.939 278.158 364.898 278.321 364.879 278.503C364.879 278.523 364.917 278.565 364.917 278.584C364.696 279.092 364.817 279.658 364.736 280.185C364.675 280.57 364.736 280.978 364.696 281.383C364.654 281.727 364.572 282.092 364.492 282.437C364.472 282.499 364.431 282.518 364.331 282.559C364.371 282.315 364.351 282.153 364.31 281.93C364.288 281.93 364.025 281.788 364.004 281.788C364.004 282.073 364.166 282.458 364.228 282.781C364.166 282.761 363.924 282.62 363.904 282.62C363.863 282.863 363.863 283.187 363.843 283.451C363.822 283.654 363.64 283.836 363.619 284.059C363.619 284.182 363.761 284.262 363.741 284.465H363.903C363.903 284.06 364.086 283.696 364.086 283.269H364.146C364.167 283.31 364.228 283.351 364.208 283.371C364.167 283.594 364.084 283.837 364.106 284.06C364.106 284.182 364.206 284.304 364.168 284.445C364.126 284.568 364.106 284.689 364.085 284.872C364.064 284.77 364.044 284.73 364.044 284.669C364.024 284.669 363.842 284.648 363.821 284.648C363.801 284.77 363.964 284.892 363.943 284.993C363.923 285.013 363.903 285.013 363.862 285.034L363.194 284.06C362.666 283.29 362.139 282.518 361.613 281.727C361.476 281.534 361.354 281.331 361.247 281.119C360.62 280.043 359.931 279.009 359.161 278.015C358.575 277.265 358.107 276.453 357.56 275.664C357.055 274.913 356.549 274.183 356.043 273.432C355.86 273.189 355.638 272.966 355.475 272.702C354.949 271.87 354.482 271.018 353.957 270.187C353.511 269.497 353.026 268.827 352.56 268.158C352.398 267.935 352.236 267.691 352.073 267.448C352.053 267.409 352.033 267.369 352.033 267.308C351.992 266.861 351.952 266.415 351.931 265.989C351.931 265.583 351.972 265.178 351.972 264.751V264.387C351.972 264.285 351.992 264.204 351.992 264.102C352.011 264.083 352.032 264.042 352.052 264.022C351.464 264.022 350.856 264 350.269 264.022C349.884 264.041 349.682 263.879 349.418 263.595C348.649 262.722 348.081 261.729 347.413 260.796C346.785 259.903 346.137 259.03 345.489 258.158C344.962 257.448 344.434 256.759 343.909 256.049C343.321 255.238 342.754 254.427 342.146 253.615C341.416 252.642 340.667 251.668 339.918 250.695C339.571 250.249 339.187 249.823 338.802 249.356C339.066 249.397 339.31 249.437 339.552 249.458L340.525 249.52C341.254 249.579 341.983 249.62 342.711 249.72C343.319 249.802 343.927 249.924 344.555 250.025C345.893 250.248 347.209 250.613 348.486 251.039C349.235 251.282 349.963 251.607 350.695 251.911C352.334 252.581 353.894 253.392 355.434 254.243C355.919 254.507 356.203 254.933 356.567 255.319C357.094 255.867 357.621 256.414 358.127 256.981C358.713 257.651 359.26 258.341 359.828 259.03C360.334 259.638 360.859 260.246 361.367 260.856C361.529 261.038 361.652 261.262 361.792 261.464C362.116 261.951 362.481 262.418 362.764 262.945C362.966 263.331 363.088 263.778 363.229 264.203C363.431 264.832 363.634 265.44 363.837 266.069C363.978 266.536 364.099 267.024 364.201 267.509C364.282 267.834 364.262 268.178 364.362 268.502C364.485 268.929 364.362 269.394 364.485 269.822C364.505 269.862 364.524 269.923 364.545 269.964C364.626 270.044 364.687 270.125 364.566 270.247C364.546 270.267 364.546 270.347 364.566 270.409C364.607 270.369 364.627 270.328 364.668 270.267C364.668 270.308 364.687 270.329 364.687 270.348C364.687 270.428 364.666 270.51 364.687 270.59C364.687 270.63 364.727 270.691 364.747 270.732C364.788 270.691 364.828 270.67 364.909 270.609C365.091 271.299 365.112 271.989 365.112 272.699C365.112 273.368 365.233 274.038 364.95 274.687C365.01 274.464 364.869 274.26 364.93 274.057L364.938 274.063Z" fill="#DD3A0A"/>
<path d="M351.995 281.951C352.015 281.951 352.035 281.971 352.035 281.971L352.015 281.948C352.015 281.929 352.015 281.929 351.995 281.948L351.995 281.951ZM355.195 301.991C354.972 302.152 354.749 302.295 354.465 302.356C354.444 302.336 354.444 302.315 354.424 302.294C354.647 302.152 354.889 302.011 355.113 301.868C355.133 301.907 355.174 301.948 355.194 301.989L355.195 301.991ZM317.216 274.506C317.439 274.223 317.663 273.939 317.904 273.655C317.923 273.675 318.085 273.717 318.106 273.736C317.883 274.021 317.579 274.406 317.356 274.71C317.315 274.669 317.254 274.527 317.214 274.507L317.216 274.506ZM311.462 284.447C311.301 284.102 311.139 283.736 310.978 283.392C310.998 283.371 311.139 283.31 311.159 283.31C311.383 283.634 311.483 284.019 311.646 284.365C311.646 284.365 311.484 284.446 311.463 284.446L311.462 284.447ZM316.629 274.71C316.507 274.893 316.386 275.096 316.264 275.279C316.244 275.258 316.021 275.359 316.001 275.339C316.122 275.157 316.426 274.831 316.547 274.65C316.568 274.67 316.588 274.691 316.629 274.711L316.629 274.71ZM353.028 302.823C353.048 302.823 353.048 302.803 353.068 302.803C353.21 302.823 353.372 302.843 353.534 302.843C353.269 303.026 353.107 303.005 353.026 302.823H353.028ZM316.667 275.562C316.689 275.5 316.729 275.44 316.77 275.379C316.81 275.379 316.87 275.359 316.87 275.359C316.952 275.217 316.952 275.115 317.033 274.994C317.013 274.974 316.992 274.974 316.971 274.953C316.85 275.036 316.729 275.138 316.607 275.219C316.648 275.259 316.648 275.28 316.648 275.32C316.486 275.299 316.425 275.382 316.344 275.603C316.324 275.665 316.222 275.685 316.121 275.765C316.101 275.807 316.081 275.908 316.04 276.009L316.061 276.031C316.02 276.071 315.959 276.092 315.959 276.092C315.837 276.213 315.696 276.315 315.574 276.436C315.554 276.498 315.534 276.558 315.534 276.619C315.677 276.477 315.919 276.213 316.101 276.051L316.122 276.071C316.203 275.95 316.264 275.828 316.346 275.707C316.365 275.727 316.365 275.747 316.386 275.768C316.324 275.93 316.264 276.111 316.203 276.274C316.161 276.294 316.1 276.335 316.1 276.315C316.019 276.376 315.958 276.456 315.877 276.517L315.513 276.76C315.31 276.943 315.108 277.104 314.885 277.288C314.743 277.511 314.601 277.713 314.438 277.977C314.682 277.916 314.743 278.018 314.723 278.221C315.006 278.261 315.027 278.039 315.108 277.876C315.128 277.835 315.149 277.753 315.189 277.733C315.371 277.572 315.573 277.43 315.776 277.268C315.817 277.227 315.817 277.144 315.817 277.084C315.817 277.064 315.714 277.064 315.654 277.044C315.836 276.84 316.1 276.497 316.282 276.274C316.383 276.212 316.484 276.131 316.484 276.07C316.464 275.847 316.606 275.787 316.769 275.705C316.687 275.643 316.666 275.584 316.666 275.564L316.667 275.562Z" fill="#DD3735"/>
<path d="M317.074 275.339C316.993 275.48 316.912 275.602 316.831 275.744L316.709 275.683C316.629 276.148 316.345 276.554 316.061 276.635C316.142 276.676 316.223 276.717 316.285 276.697C316.345 276.676 316.385 276.573 316.426 276.513L316.972 275.722L317.155 275.417L317.074 275.337L317.074 275.339ZM310.329 284.243C310.431 284.243 310.533 284.263 310.653 284.263C310.653 284.182 310.755 284.201 310.755 284.121H310.817C310.817 284.223 310.837 284.304 310.837 284.406H310.412C310.391 284.385 310.31 284.263 310.33 284.243H310.329ZM310.168 283.31C310.106 283.248 310.006 283.188 310.006 283.128C309.985 283.047 310.046 282.947 310.106 282.845C310.148 282.987 310.168 283.108 310.208 283.251C310.187 283.27 310.167 283.291 310.167 283.311L310.168 283.31ZM310.674 282.011C310.755 282.216 310.836 282.439 310.918 282.643C310.897 282.643 310.776 282.704 310.756 282.723C310.675 282.52 310.573 282.297 310.493 282.094C310.513 282.075 310.634 282.013 310.675 282.013L310.674 282.011ZM355.764 301.403C355.864 301.363 355.986 301.342 356.149 301.303C355.965 301.444 355.824 301.546 355.702 301.667C355.681 301.648 355.661 301.627 355.641 301.627C355.681 301.546 355.722 301.485 355.764 301.403ZM330.867 258.545C330.988 258.464 331.09 258.403 331.211 258.322L331.251 258.362C331.128 258.524 331.028 258.685 330.885 258.889C330.865 258.749 330.865 258.666 330.844 258.566C330.824 258.566 330.844 258.566 330.865 258.546L330.867 258.545ZM336.801 268.808C336.984 268.726 337.166 268.646 337.389 268.544C337.369 268.665 337.369 268.747 337.369 268.829C337.307 268.808 337.226 268.787 337.165 268.787C337.044 268.808 336.82 268.97 336.719 268.99C336.7 268.99 336.801 268.829 336.801 268.808H336.801ZM351.995 286.008C352.035 286.21 352.42 286.312 352.035 286.514C352.097 286.557 352.156 286.576 352.217 286.617C352.217 286.638 352.197 286.679 352.177 286.699C352.136 286.718 352.055 286.759 352.015 286.737C351.995 286.737 351.954 286.657 351.954 286.617C351.954 286.434 351.975 286.252 351.995 286.008L351.995 286.008Z" fill="#DD3735"/>
<g clip-path="url(#clip3)">
<path d="M467.609 88.9463L475.218 62L529.11 77.2181L513.892 131.111L460 115.893" fill="#007ACC"/>
<path d="M479.398 92.3772L478.778 94.5734L485.784 96.5517L480.153 116.492L485.125 117.896L490.755 97.9556L497.762 99.9339L498.37 97.7782C498.713 96.5657 498.99 95.5821 498.944 95.5399C498.956 95.4995 494.688 94.28 489.501 92.8153L480.059 90.1925L479.435 92.4021L479.398 92.3772ZM511.52 99.0184C512.803 99.7298 513.679 100.646 514.344 101.896C514.691 102.576 515.165 103.728 515.151 103.986C515.128 104.067 512.352 104.985 510.69 105.461C510.625 105.487 510.474 105.197 510.357 104.785C509.938 103.591 509.346 102.958 508.25 102.561C506.664 101.997 505.346 102.541 504.947 103.956C504.825 104.387 504.838 104.652 504.9 105.048C505.055 105.892 505.603 106.527 507.433 108.033C510.818 110.778 512.18 112.341 512.75 114.189C513.4 116.264 512.88 119.085 511.53 120.93C510.032 122.936 507.501 123.865 504.355 123.515C503.367 123.411 501.219 122.775 500.257 122.315C498.216 121.302 496.459 119.642 495.584 117.896C495.238 117.217 494.688 115.505 494.769 115.426L495.372 115.247L497.724 114.645L499.498 114.186L499.715 114.757C499.962 115.583 500.692 116.807 501.18 117.294C502.677 118.692 505.056 119.232 506.511 118.509C507.139 118.191 507.491 117.767 507.682 117.094C507.857 116.474 507.842 116.164 507.666 115.605C507.402 114.891 506.677 114.162 504.556 112.399C502.102 110.426 501.129 109.337 500.351 107.866C499.916 106.987 499.645 105.732 499.63 104.753C499.649 103.915 500.122 101.982 500.527 101.268C501.867 98.7367 504.434 97.4249 507.497 97.7078C508.493 97.7855 510.693 98.494 511.555 98.9991L511.52 99.0184Z" fill="white"/>
</g>
<g clip-path="url(#clip4)">
<path d="M197.001 70L150 89.2125L169.213 136.214L216.214 117.001L197.001 70Z" fill="#F7DF1E"/>
<path d="M196.583 113.027C198.161 114.185 199.857 114.818 202.036 113.928C203.866 113.18 204.661 111.787 204.145 110.523C203.525 109.009 202.105 108.963 199.731 108.906L198.433 108.883C194.691 108.828 191.878 107.993 190.408 104.397C189.054 101.084 190.547 97.5309 194.492 95.9186C197.3 94.7707 199.718 94.9229 202.219 96.8871L199.682 100.501C198.37 99.4531 197.334 99.2521 196.066 99.7705C194.772 100.299 194.288 101.455 194.726 102.527C195.268 103.852 196.308 104.053 198.538 104.099L199.836 104.121C204.246 104.196 207.035 104.971 208.543 108.659C210.169 112.636 207.935 116.091 203.74 117.806C199.639 119.482 196.19 118.611 193.846 116.579L196.583 113.027ZM181.137 119.787C182.334 120.734 183.39 121.517 184.908 120.897C186.359 120.304 187.042 119.362 186.14 117.154L180.001 102.136L184.418 100.331L190.581 115.409C192.45 119.982 190.62 123.159 186.706 124.759C183.17 126.205 180.374 125.212 178.431 123.433L181.137 119.787Z" fill="black"/>
</g>
<defs>
<linearGradient id="paint0_linear" x1="237.147" y1="17.3167" x2="357.34" y2="180.436" gradientUnits="userSpaceOnUse">
<stop stop-color="#41D1FF"/>
<stop offset="1" stop-color="#BD34FE"/>
</linearGradient>
<linearGradient id="paint1_linear" x1="336.073" y1="4.62737" x2="357.826" y2="153.742" gradientUnits="userSpaceOnUse">
<stop stop-color="#FFEA83"/>
<stop offset="0.0833333" stop-color="#FFDD35"/>
<stop offset="1" stop-color="#FFA800"/>
</linearGradient>
<clipPath id="clip0">
<rect width="81.3578" height="97.6293" fill="white" transform="translate(445.485 170) rotate(3.80904)"/>
</clipPath>
<clipPath id="clip1">
<rect width="86" height="90" fill="white" transform="translate(0 82.9604) rotate(-33.0965)"/>
</clipPath>
<clipPath id="clip2">
<rect width="118" height="102" fill="white" transform="translate(569.567 36) rotate(29.0751)"/>
</clipPath>
<clipPath id="clip3">
<rect width="56" height="56" fill="white" transform="translate(475.218 62) rotate(15.7685)"/>
</clipPath>
<clipPath id="clip4">
<rect width="50.7765" height="50.7765" fill="white" transform="translate(150 89.2125) rotate(-22.233)"/>
</clipPath>
</defs>
</svg>
