<svg width="1473" height="522" viewBox="0 0 1473 522" fill="none" xmlns="http://www.w3.org/2000/svg">
<g id="header-illustration">
<g id="banner-illustration" filter="url(#filter0_d)">
<path id="Rectangle 4" d="M957.944 338.145C953.16 327.632 960.845 315.692 972.396 315.692H1148.05C1155.35 315.692 1161.71 320.671 1163.47 327.759L1190.55 437.313C1193.02 447.323 1185.45 457 1175.13 457H1022.25C1016.03 457 1010.38 453.364 1007.8 447.699L957.944 338.145Z" fill="url(#paint0_linear)"/>
<g id="cup">
<path id="Rectangle 3" d="M984.109 292.664C984.692 288.116 988.996 285.006 993.497 285.88L1126.54 311.713C1131.23 312.625 1134.06 317.458 1132.56 322.003L1098.87 423.684C1097.13 428.924 1090.71 430.837 1086.39 427.402L981.397 343.927C979.222 342.199 978.11 339.459 978.463 336.704L984.109 292.664Z" fill="url(#paint1_radial)"/>
<path id="Vector 2" d="M1013.43 448.554L1025.51 260.008C1025.79 255.638 1029.56 252.32 1033.93 252.592L1147.48 259.658C1151.66 259.918 1154.92 263.388 1154.92 267.581V449.061C1154.92 453.446 1151.37 457 1146.99 457H1021.36C1016.77 457 1013.14 453.129 1013.43 448.554Z" fill="url(#paint2_radial)"/>
<g id="logo">
<mask id="mask0" mask-type="alpha" maskUnits="userSpaceOnUse" x="1061" y="306" width="70" height="54">
<g id="logo_2">
<path id="Fill 1" fill-rule="evenodd" clip-rule="evenodd" d="M1064.5 306.003L1061 354.683L1070.68 355.378L1071.04 350.45L1066.2 350.103L1068.99 311.258L1073.83 311.605L1074.18 306.698L1064.5 306.003Z" fill="white"/>
<path id="Fill 2" fill-rule="evenodd" clip-rule="evenodd" d="M1121.07 310.064L1120.72 314.971L1125.55 315.318L1122.76 354.163L1117.93 353.815L1117.57 358.744L1127.26 359.44L1130.75 310.76L1121.07 310.064Z" fill="white"/>
<g id="Group 10">
<path id="Fill 3" fill-rule="evenodd" clip-rule="evenodd" d="M1097.82 332.652C1097.13 341.528 1092.28 347.04 1084.19 346.459L1084.18 346.434C1080.95 346.178 1078.41 345.525 1076.32 343.631L1076.16 345.857L1071.39 345.514L1072.12 335.406L1076.89 335.749C1077.98 339.475 1080.69 340.899 1084.04 341.139C1086.35 341.306 1088.32 340.58 1089.94 338.962C1091.56 337.342 1092.47 335.139 1092.67 332.346C1092.86 329.679 1092.32 327.338 1091.04 325.324C1089.76 323.31 1087.74 322.204 1084.98 322.006C1081.64 321.766 1079.16 323.414 1077.54 326.946L1072.77 326.603L1073.5 316.495L1078.27 316.838L1078.11 319.065C1080.51 317.441 1083.28 317.139 1086.65 317.381C1091.91 317.759 1098.58 322.004 1097.82 332.652Z" fill="white"/>
<path id="Fill 5" fill-rule="evenodd" clip-rule="evenodd" d="M1118.65 343.952L1118.29 348.873L1113.41 348.535L1102.02 335.004L1099.59 334.842L1099.09 342.571L1103.9 342.916L1103.54 347.826L1093.94 347.136L1096.03 318.039L1100.87 318.411L1100 329.924L1102.38 330.107L1109.33 323.942L1105.34 323.655L1105.69 318.746L1120.37 319.8L1120.02 324.71L1116.3 324.443L1106.95 332.867L1116.34 343.786L1118.65 343.952Z" fill="white"/>
<mask id="mask1" maskUnits="userSpaceOnUse" x="1061" y="306" width="70" height="54">
<path id="Clip 8" fill-rule="evenodd" clip-rule="evenodd" d="M1061 354.683L1127.26 359.443L1130.75 310.762L1064.5 306.003L1061 354.683Z" fill="white"/>
</mask>
<g mask="url(#mask1)">
<path id="Fill 7" fill-rule="evenodd" clip-rule="evenodd" d="M1075.51 355.723L1112.74 358.397L1113.1 353.49L1075.87 350.816L1075.51 355.723Z" fill="white"/>
<path id="Fill 9" fill-rule="evenodd" clip-rule="evenodd" d="M1078.66 311.95L1115.89 314.624L1116.24 309.717L1079.01 307.043L1078.66 311.95Z" fill="#F2BC2B"/>
</g>
</g>
</g>
</mask>
<g mask="url(#mask0)">
<rect id="Rectangle 13" x="1061.72" y="302.793" width="72" height="55" transform="rotate(4.10886 1061.72 302.793)" fill="url(#paint3_linear)"/>
</g>
</g>
</g>
<g id="kraken">
<path id="dark" d="M1131.04 320.95C1116.76 373.66 1057.96 406.874 992 426L1010.68 457H1105.14C1150.42 432.019 1168.76 400.794 1180.47 362.933C1192.18 325.071 1184.38 276.789 1162.13 256.765C1142.61 239.201 1114.12 237.639 1099.29 256.765C1127.78 248.959 1141.19 283.479 1131.04 320.95Z" fill="url(#paint4_linear)"/>
<g id="light">
<path id="inner" d="M1099.29 256.765C1127.78 248.958 1140.52 288.44 1126.61 324.681C1117.63 348.062 1098.48 375.747 1045 394.5C1006.5 408 980 407.5 881.5 457L1010.68 456.999C1028.38 456.999 1059.08 438.941 1091.48 426.06C1132.07 396.89 1145.02 381.392 1157.44 342.141C1167.2 311.306 1165.25 279.3 1148.08 260.564C1130.33 241.209 1115.29 245.732 1099.29 256.765Z" fill="white"/>
<path id="Ellipse 2 (Stroke)" fill-rule="evenodd" clip-rule="evenodd" d="M1099.57 435.866C1090.22 442.06 1075.87 442.5 1068.84 431.873C1061.8 421.247 1067.8 408.214 1077.16 402.02C1086.51 395.826 1100.85 395.386 1107.89 406.013C1114.93 416.639 1108.92 429.672 1099.57 435.866ZM1075.35 427.563C1079.15 433.315 1088.07 434.118 1095.26 429.357C1102.45 424.596 1105.19 416.074 1101.38 410.323C1097.57 404.572 1088.66 403.768 1081.47 408.529C1074.28 413.29 1071.54 421.812 1075.35 427.563Z" fill="white"/>
<path id="Ellipse 3 (Stroke)" fill-rule="evenodd" clip-rule="evenodd" d="M1145.01 391.392C1139.82 398.973 1128.71 404.158 1119.54 397.874C1110.36 391.59 1111.18 379.359 1116.37 371.778C1121.57 364.198 1132.67 359.013 1141.85 365.297C1151.02 371.581 1150.2 383.812 1145.01 391.392ZM1123.95 391.433C1128.3 394.413 1134.85 392.42 1138.57 386.981C1142.3 381.542 1141.79 374.717 1137.44 371.737C1133.09 368.757 1126.54 370.75 1122.81 376.189C1119.09 381.628 1119.6 388.453 1123.95 391.433Z" fill="white"/>
<path id="Ellipse 4 (Stroke)" fill-rule="evenodd" clip-rule="evenodd" d="M1168.46 344.509C1166.28 353.435 1157.72 362.208 1146.91 359.569C1136.11 356.93 1132.56 345.197 1134.74 336.271C1136.92 327.346 1145.48 318.572 1156.28 321.211C1167.09 323.851 1170.64 335.584 1168.46 344.509ZM1148.77 351.986C1153.89 353.237 1159.31 349.06 1160.88 342.656C1162.44 336.253 1159.56 330.046 1154.43 328.795C1149.31 327.543 1143.89 331.72 1142.32 338.124C1140.76 344.528 1143.64 350.734 1148.77 351.986Z" fill="white"/>
<path id="Ellipse 5 (Stroke)" fill-rule="evenodd" clip-rule="evenodd" d="M1170.4 290.646C1172.82 298.312 1170.47 309.14 1160.74 312.206C1151.01 315.272 1142.89 307.744 1140.47 300.078C1138.05 292.411 1140.4 281.584 1150.13 278.517C1159.86 275.451 1167.98 282.979 1170.4 290.646ZM1158.4 304.76C1162.55 303.452 1164.59 298.183 1162.95 292.992C1161.32 287.801 1156.63 284.654 1152.47 285.963C1148.32 287.272 1146.28 292.54 1147.92 297.731C1149.55 302.922 1154.24 306.069 1158.4 304.76Z" fill="white"/>
</g>
<g id="points">
<path id="Ellipse 2" d="M1095.26 429.357C1088.07 434.118 1079.16 433.315 1075.35 427.564C1071.54 421.812 1074.28 413.29 1081.47 408.529C1088.66 403.769 1097.57 404.572 1101.38 410.323C1105.19 416.075 1102.45 424.597 1095.26 429.357Z" fill="url(#paint5_linear)"/>
<path id="Ellipse 3" d="M1138.57 386.981C1134.85 392.42 1128.3 394.414 1123.95 391.434C1119.6 388.453 1119.09 381.628 1122.81 376.19C1126.54 370.751 1133.09 368.757 1137.44 371.738C1141.79 374.718 1142.3 381.543 1138.57 386.981Z" fill="url(#paint6_linear)"/>
<path id="Ellipse 4" d="M1160.88 342.657C1159.31 349.061 1153.89 353.237 1148.77 351.986C1143.64 350.734 1140.76 344.528 1142.32 338.124C1143.89 331.72 1149.31 327.543 1154.43 328.795C1159.56 330.047 1162.44 336.253 1160.88 342.657Z" fill="url(#paint7_linear)"/>
<path id="Ellipse 5" d="M1162.95 292.992C1164.59 298.183 1162.55 303.452 1158.4 304.76C1154.24 306.069 1149.55 302.922 1147.92 297.731C1146.28 292.541 1148.32 287.272 1152.47 285.963C1156.63 284.654 1161.32 287.801 1162.95 292.992Z" fill="url(#paint8_linear)"/>
</g>
</g>
<ellipse id="Ellipse 6" cx="1021.26" cy="326.867" rx="14.3045" ry="19.7539" transform="rotate(155.851 1021.26 326.867)" fill="#FFD701"/>
<g id="Vector 3" filter="url(#filter1_d)">
<path d="M885.5 432C857 432 839 440.5 799 458H1159C1112.5 458 1087.5 432 1047 432C1006.5 432 979 449.5 951 449.5C923 449.5 914 432 885.5 432Z" fill="url(#paint9_linear)"/>
</g>
<g id="Vector 4" filter="url(#filter2_d)">
<path d="M975 438C946.5 438 928.5 444.538 888.5 458H1248.5C1202 458 1177 438 1136.5 438C1096 438 1068.5 451.462 1040.5 451.462C1012.5 451.462 1003.5 438 975 438Z" fill="url(#paint10_linear)"/>
</g>
<g id="Vector 5" filter="url(#filter3_d)">
<path d="M1080.06 444C1058.13 444 1044.28 448.577 1013.5 458H1290.5C1254.72 458 1235.48 444 1204.32 444C1173.16 444 1152 453.423 1130.46 453.423C1108.91 453.423 1101.99 444 1080.06 444Z" fill="url(#paint11_linear)"/>
</g>
<g id="Group 11">
<path id="Vector 6" d="M1041.1 203.815C1043.47 218.448 1056.18 223.1 1058.75 238.978C1056.13 222.788 1048.38 217.654 1046.01 203.021C1043.64 188.388 1050.21 176.463 1045.66 158.031C1048.63 176.399 1038.74 189.182 1041.1 203.815Z" fill="url(#paint12_linear)"/>
<path id="Vector 8" d="M1075.59 201.135C1073.78 215.847 1082.73 223.624 1080.77 239.588C1082.77 223.311 1077.89 216.354 1079.7 201.642C1081.52 186.93 1089.77 177.143 1090.8 158.204C1088.52 176.672 1077.4 186.424 1075.59 201.135Z" fill="url(#paint13_linear)"/>
<path id="Vector 7" d="M1060 207.046C1060 220.062 1066.89 225.877 1066.89 240C1066.89 225.6 1062.9 220.062 1062.9 207.046C1062.9 194.031 1067.8 184.615 1066.89 168C1066.89 184.338 1060 194.031 1060 207.046Z" fill="url(#paint14_linear)"/>
</g>
</g>
<g id="brackets">
<g id="bracket-6">
<path id="{" d="M1430.31 394.335L1433.86 388.679C1435.2 386.794 1436.49 385.655 1437.75 385.262C1438.98 384.849 1440.7 385.028 1442.91 385.799C1441.48 383.988 1440.77 382.395 1440.77 381.02C1440.74 379.675 1441.39 378.074 1442.71 376.218L1446.66 371.313C1447.83 369.663 1448.36 368.174 1448.24 366.845C1448.1 365.466 1447.11 364.025 1445.24 362.522L1447.37 359.713C1450.27 361.951 1451.92 364.125 1452.34 366.235C1452.74 368.295 1452 370.651 1450.12 373.302L1445.98 378.472C1445.08 379.739 1444.72 381.018 1444.92 382.308C1445.09 383.629 1445.85 385.123 1447.2 386.79L1445.29 389.486C1443.33 388.672 1441.71 388.386 1440.43 388.627C1439.13 388.898 1438.02 389.667 1437.12 390.933L1433.42 396.81C1431.49 399.52 1429.49 401.023 1427.41 401.32C1425.3 401.596 1422.7 400.722 1419.6 398.699L1421.6 395.795C1423.63 397.063 1425.31 397.547 1426.64 397.247C1427.91 396.955 1429.13 395.984 1430.31 394.335Z" fill="url(#paint15_linear)"/>
<path id="{_2" d="M1431.65 395.318L1436.5 387.601C1438.33 385.029 1440.1 383.474 1441.81 382.937C1443.48 382.372 1445.82 382.614 1448.83 383.663C1446.89 381.195 1445.92 379.024 1445.92 377.149C1445.89 375.314 1446.78 373.131 1448.58 370.599L1453.97 363.905C1455.57 361.654 1456.29 359.622 1456.12 357.811C1455.94 355.931 1454.58 353.967 1452.04 351.919L1454.95 348.086C1458.9 351.134 1461.15 354.096 1461.71 356.974C1462.26 359.782 1461.25 362.995 1458.68 366.613L1453.03 373.669C1451.8 375.397 1451.32 377.141 1451.58 378.901C1451.81 380.701 1452.85 382.737 1454.69 385.01L1452.07 388.687C1449.41 387.581 1447.2 387.192 1445.45 387.523C1443.68 387.893 1442.17 388.943 1440.95 390.671L1435.89 398.689C1433.26 402.387 1430.53 404.44 1427.7 404.847C1424.82 405.226 1421.28 404.037 1417.06 401.282L1419.78 397.32C1422.55 399.046 1424.84 399.704 1426.65 399.293C1428.38 398.894 1430.05 397.569 1431.65 395.318Z" fill="url(#paint16_linear)"/>
<path id="{_3" d="M1436.65 393.433L1439.58 388.767C1440.69 387.211 1441.76 386.27 1442.79 385.945C1443.8 385.603 1445.22 385.748 1447.04 386.382C1445.86 384.891 1445.28 383.578 1445.28 382.445C1445.26 381.335 1445.8 380.015 1446.89 378.483L1450.15 374.435C1451.11 373.073 1451.55 371.845 1451.45 370.75C1451.34 369.613 1450.52 368.426 1448.98 367.189L1450.74 364.87C1453.13 366.712 1454.49 368.503 1454.83 370.242C1455.16 371.94 1454.54 373.883 1452.99 376.071L1449.57 380.338C1448.83 381.383 1448.54 382.438 1448.7 383.502C1448.84 384.59 1449.46 385.821 1450.57 387.194L1448.99 389.419C1447.38 388.75 1446.05 388.516 1444.99 388.716C1443.92 388.941 1443.01 389.576 1442.27 390.621L1439.21 395.47C1437.62 397.707 1435.97 398.949 1434.26 399.196C1432.52 399.425 1430.38 398.708 1427.83 397.043L1429.48 394.647C1431.15 395.69 1432.53 396.087 1433.62 395.838C1434.67 395.596 1435.68 394.795 1436.65 393.433Z" fill="url(#paint17_linear)"/>
<path id="{_4" d="M1438.36 383.306L1441.29 378.64C1442.39 377.084 1443.46 376.143 1444.5 375.818C1445.51 375.476 1446.93 375.622 1448.74 376.255C1447.57 374.764 1446.99 373.451 1446.99 372.318C1446.97 371.208 1447.51 369.888 1448.59 368.356L1451.85 364.308C1452.82 362.946 1453.25 361.718 1453.15 360.623C1453.05 359.486 1452.23 358.299 1450.69 357.062L1452.45 354.744C1454.83 356.585 1456.2 358.376 1456.53 360.115C1456.86 361.813 1456.25 363.756 1454.7 365.944L1451.28 370.211C1450.54 371.257 1450.25 372.311 1450.41 373.375C1450.55 374.463 1451.17 375.694 1452.28 377.068L1450.7 379.292C1449.09 378.623 1447.76 378.389 1446.7 378.59C1445.63 378.814 1444.72 379.449 1443.98 380.494L1440.91 385.343C1439.33 387.58 1437.67 388.822 1435.96 389.069C1434.23 389.298 1432.08 388.581 1429.54 386.917L1431.18 384.52C1432.86 385.563 1434.24 385.96 1435.33 385.711C1436.38 385.469 1437.39 384.668 1438.36 383.306Z" fill="url(#paint18_linear)"/>
</g>
<g id="bracket-5">
<path id="{_5" d="M1327.83 258.25L1331.07 231.826C1332.71 222.754 1335.47 216.445 1339.34 212.901C1343.07 209.33 1349.57 207.066 1358.85 206.11C1350.64 201.989 1345.36 197.448 1343.03 192.488C1340.67 187.669 1340.3 180.795 1341.92 171.864L1347.88 147.469C1349.31 139.531 1348.68 133.268 1345.99 128.682C1343.18 123.928 1337.13 120.418 1327.85 118.153L1330.78 104.409C1345.04 107.575 1354.7 112.616 1359.76 119.535C1364.7 126.285 1366.02 136.04 1363.71 148.798L1357.52 174.469C1356.42 180.564 1357.31 185.776 1360.2 190.105C1363.06 194.576 1368.34 198.678 1376.03 202.413L1373.68 215.383C1365.25 215.76 1358.92 217.469 1354.7 220.512C1350.45 223.696 1347.78 228.336 1346.67 234.431L1343.24 261.918C1340.88 274.959 1336.2 283.775 1329.2 288.365C1322.06 292.928 1311.19 294.182 1296.59 292.125L1298.88 278.265C1308.36 279.396 1315.24 278.298 1319.52 274.973C1323.62 271.763 1326.39 266.189 1327.83 258.25Z" fill="url(#paint19_linear)"/>
<path id="{_6" d="M1334.35 259.52L1338.77 223.466C1341.01 211.087 1344.77 202.478 1350.04 197.64C1355.13 192.767 1363.98 189.675 1376.62 188.366C1365.44 182.747 1358.26 176.554 1355.09 169.787C1351.88 163.214 1351.37 153.834 1353.58 141.648L1361.7 108.361C1363.66 97.5292 1362.81 88.985 1359.14 82.7282C1355.32 76.243 1347.09 71.4572 1334.45 68.3709L1338.44 49.6174C1357.86 53.93 1371.01 60.8049 1377.9 70.2419C1384.63 79.4504 1386.42 92.7587 1383.27 110.167L1374.83 145.195C1373.33 153.512 1374.54 160.623 1378.47 166.528C1382.37 172.627 1389.55 178.222 1400.03 183.314L1396.82 201.012C1385.33 201.529 1376.71 203.864 1370.96 208.017C1365.18 212.364 1361.53 218.696 1360.03 227.013L1355.34 264.518C1352.12 282.313 1345.74 294.343 1336.21 300.608C1326.48 306.838 1311.68 308.553 1291.79 305.753L1294.91 286.842C1307.83 288.38 1317.2 286.88 1323.02 282.34C1328.61 277.959 1332.39 270.352 1334.35 259.52Z" fill="url(#paint20_linear)"/>
<path id="{_7" d="M1349.19 244.258L1351.87 222.453C1353.22 214.966 1355.49 209.759 1358.68 206.832C1361.75 203.885 1367.1 202.014 1374.74 201.221C1367.98 197.824 1363.65 194.079 1361.73 189.987C1359.79 186.012 1359.49 180.34 1360.82 172.97L1365.73 152.837C1366.92 146.286 1366.41 141.119 1364.19 137.336C1361.88 133.414 1356.91 130.521 1349.27 128.655L1351.69 117.313C1363.42 119.919 1371.36 124.076 1375.52 129.782C1379.59 135.351 1380.67 143.399 1378.77 153.927L1373.66 175.112C1372.75 180.143 1373.49 184.443 1375.86 188.014C1378.21 191.702 1382.55 195.085 1388.88 198.163L1386.95 208.867C1380 209.181 1374.79 210.594 1371.32 213.106C1367.82 215.735 1365.62 219.565 1364.71 224.595L1361.87 247.278C1359.92 258.04 1356.07 265.316 1350.31 269.106C1344.43 272.875 1335.49 273.914 1323.47 272.223L1325.36 260.785C1333.16 261.714 1338.83 260.806 1342.34 258.06C1345.72 255.409 1348 250.809 1349.19 244.258Z" fill="url(#paint21_linear)"/>
<path id="{_8" d="M1338.21 204.818L1340.88 183.013C1342.24 175.526 1344.51 170.32 1347.7 167.393C1350.77 164.445 1356.12 162.574 1363.75 161.781C1357 158.384 1352.66 154.64 1350.75 150.548C1348.81 146.572 1348.51 140.9 1349.84 133.53L1354.75 113.398C1355.94 106.847 1355.42 101.68 1353.21 97.896C1350.9 93.9743 1345.92 91.0809 1338.29 89.2157L1340.7 77.8736C1352.43 80.4797 1360.38 84.6361 1364.54 90.3426C1368.61 95.911 1369.69 103.959 1367.78 114.488L1362.68 135.673C1361.77 140.703 1362.5 145.003 1364.88 148.574C1367.23 152.262 1371.57 155.645 1377.9 158.724L1375.96 169.427C1369.02 169.741 1363.81 171.154 1360.33 173.667C1356.84 176.296 1354.64 180.126 1353.73 185.156L1350.89 207.838C1348.94 218.601 1345.09 225.877 1339.33 229.667C1333.45 233.436 1324.5 234.474 1312.49 232.783L1314.38 221.346C1322.18 222.275 1327.84 221.366 1331.36 218.62C1334.74 215.97 1337.02 211.369 1338.21 204.818Z" fill="url(#paint22_linear)"/>
</g>
<g id="bracket-4">
<path id="{_9" d="M1247.79 74.972L1241.56 67.9427C1239.55 65.3894 1238.53 63.1875 1238.5 61.3367C1238.43 59.5176 1239.35 57.2713 1241.26 54.5979C1238.26 55.8036 1235.83 56.1349 1233.97 55.592C1232.15 55.089 1230.24 53.5808 1228.26 51.0675L1223.21 43.7948C1221.45 41.5607 1219.65 40.2636 1217.81 39.9034C1215.9 39.5349 1213.56 40.3115 1210.79 42.2333L1207.85 38.2491C1212.01 35.2235 1215.6 33.8505 1218.61 34.1301C1221.55 34.4013 1224.43 36.3322 1227.26 39.9227L1232.6 47.5544C1233.95 49.2698 1235.53 50.252 1237.35 50.5008C1239.2 50.7896 1241.52 50.3543 1244.3 49.195L1247.18 52.8454C1245.31 55.1615 1244.28 57.2325 1244.1 59.0581C1243.95 60.9237 1244.55 62.7142 1245.9 64.4296L1252.36 71.7581C1255.25 75.4284 1256.48 78.7237 1256.06 81.644C1255.6 84.5958 1253.39 87.7598 1249.44 91.1361L1246.31 87.2937C1248.82 85.0528 1250.14 82.9796 1250.26 81.0741C1250.37 79.2401 1249.55 77.2061 1247.79 74.972Z" fill="url(#paint23_linear)"/>
<path id="{_10" d="M1249.64 73.547L1241.16 63.9547C1238.41 60.4709 1237.01 57.4672 1236.97 54.9437C1236.87 52.4632 1238.12 49.4015 1240.73 45.7589C1236.63 47.3989 1233.32 47.8477 1230.79 47.1051C1228.3 46.4169 1225.71 44.3581 1223.01 40.9287L1216.11 31.0061C1213.71 27.9577 1211.25 26.1869 1208.74 25.6935C1206.14 25.1886 1202.95 26.2446 1199.18 28.8615L1195.16 23.4253C1200.84 19.3051 1205.73 17.4375 1209.83 17.8226C1213.83 18.1961 1217.77 20.8324 1221.63 25.7316L1228.91 36.1441C1230.75 38.4848 1232.91 39.826 1235.39 40.1675C1237.91 40.5636 1241.07 39.973 1244.86 38.3958L1248.79 43.3766C1246.24 46.5324 1244.84 49.3548 1244.6 51.8438C1244.39 54.3873 1245.21 56.8294 1247.06 59.1701L1255.87 69.1707C1259.82 74.1787 1261.5 78.6733 1260.93 82.6546C1260.3 86.6788 1257.3 90.9902 1251.91 95.5888L1247.65 90.3458C1251.07 87.2934 1252.86 84.4682 1253.02 81.8703C1253.17 79.3698 1252.05 76.5953 1249.64 73.547Z" fill="url(#paint24_linear)"/>
<path id="{_11" d="M1249.08 66.0609L1243.95 60.2593C1242.29 58.1523 1241.44 56.336 1241.41 54.8103C1241.35 53.3106 1242.11 51.4601 1243.68 49.2586C1241.21 50.2489 1239.21 50.5192 1237.68 50.0696C1236.17 49.6528 1234.61 48.4074 1232.97 46.3333L1228.8 40.3324C1227.35 38.4888 1225.86 37.4174 1224.35 37.1184C1222.77 36.8124 1220.84 37.4499 1218.57 39.0309L1216.14 35.7432C1219.57 33.254 1222.52 32.1263 1225 32.3603C1227.42 32.5873 1229.8 34.1822 1232.13 37.1452L1236.54 43.4424C1237.65 44.8581 1238.96 45.6695 1240.46 45.8767C1241.98 46.1169 1243.89 45.7607 1246.18 44.8084L1248.55 47.8207C1247.02 49.7278 1246.17 51.4338 1246.02 52.9385C1245.9 54.4761 1246.4 55.9528 1247.51 57.3684L1252.84 63.4169C1255.23 66.4458 1256.25 69.1636 1255.91 71.5703C1255.53 74.003 1253.71 76.6087 1250.46 79.3873L1247.88 76.2163C1249.95 74.3719 1251.03 72.6644 1251.13 71.0939C1251.22 69.5822 1250.53 67.9045 1249.08 66.0609Z" fill="url(#paint25_linear)"/>
<path id="{_12" d="M1236.1 59.7473L1230.97 53.9456C1229.3 51.8386 1228.46 50.0223 1228.43 48.4967C1228.37 46.997 1229.13 45.1464 1230.7 42.9449C1228.23 43.9353 1226.22 44.2056 1224.69 43.7559C1223.19 43.3391 1221.62 42.0937 1219.99 40.0196L1215.82 34.0187C1214.37 32.1751 1212.88 31.1038 1211.36 30.8048C1209.79 30.4988 1207.86 31.1363 1205.59 32.7173L1203.15 29.4295C1206.58 26.9403 1209.54 25.8127 1212.02 26.0466C1214.44 26.2736 1216.82 27.8686 1219.15 30.8316L1223.55 37.1288C1224.67 38.5444 1225.98 39.3558 1227.47 39.5631C1229 39.8032 1230.91 39.4471 1233.2 38.4947L1235.57 41.5071C1234.03 43.4142 1233.19 45.1201 1233.04 46.6248C1232.92 48.1625 1233.42 49.6391 1234.53 51.0547L1239.86 57.1033C1242.25 60.1321 1243.27 62.8499 1242.92 65.2567C1242.55 67.6894 1240.73 70.295 1237.48 73.0736L1234.9 69.9026C1236.97 68.0583 1238.05 66.3508 1238.14 64.7802C1238.23 63.2685 1237.55 61.5909 1236.1 59.7473Z" fill="url(#paint26_linear)"/>
</g>
<g id="bracket-3">
<path id="{_13" d="M157.435 202.939L161.818 230.819C162.783 240.545 161.807 247.778 158.892 252.518C156.128 257.243 150.158 261.442 140.98 265.115C150.548 266.928 157.242 270.023 161.063 274.402C164.868 278.628 167.246 285.528 168.196 295.103L169.219 321.704C170.064 330.215 172.526 336.416 176.606 340.308C180.854 344.337 188.037 346.157 198.156 345.767L199.169 360.629C183.716 361.549 172.403 359.218 165.231 353.638C158.227 348.194 154.046 338.633 152.689 324.956L151.53 296.987C150.881 290.452 148.456 285.398 144.254 281.825C140.036 278.099 133.463 275.452 124.535 273.883L123.155 259.977C131.646 257.14 137.601 253.556 141.019 249.227C144.422 244.746 145.8 239.238 145.151 232.703L140.656 203.683C139.269 189.702 141.474 179.354 147.272 172.64C153.222 165.911 163.94 161.471 179.426 159.321L181.125 174.115C171.126 175.721 164.433 178.841 161.045 183.474C157.794 187.94 156.591 194.429 157.435 202.939Z" fill="url(#paint27_linear)"/>
<path id="{_14" d="M150.419 203.541L156.395 241.583C157.711 254.854 156.385 264.723 152.415 271.189C148.653 277.635 140.522 283.363 128.023 288.372C141.055 290.849 150.174 295.074 155.378 301.049C160.562 306.817 163.802 316.233 165.098 329.297L166.498 365.594C167.651 377.206 171.006 385.668 176.563 390.98C182.349 396.479 192.133 398.963 205.915 398.433L207.298 418.713C186.252 419.964 170.844 416.781 161.075 409.165C151.534 401.735 145.838 388.689 143.986 370.027L142.4 331.863C141.515 322.947 138.211 316.05 132.487 311.173C126.742 306.09 117.789 302.476 105.629 300.332L103.746 281.358C115.31 277.489 123.419 272.601 128.073 266.694C132.707 260.581 134.582 253.065 133.697 244.149L127.567 204.552C125.674 185.474 128.675 171.356 136.57 162.196C144.672 153.016 159.268 146.961 180.358 144.031L182.675 164.218C169.058 166.407 159.943 170.661 155.33 176.982C150.904 183.076 149.267 191.928 150.419 203.541Z" fill="url(#paint28_linear)"/>
<path id="{_15" d="M139.727 223.417L143.34 246.425C144.136 254.451 143.336 260.42 140.937 264.33C138.665 268.228 133.752 271.692 126.201 274.721C134.075 276.219 139.584 278.776 142.729 282.39C145.862 285.878 147.82 291.573 148.604 299.474L149.452 321.426C150.149 328.449 152.176 333.567 155.535 336.78C159.031 340.106 164.942 341.609 173.269 341.289L174.106 353.554C161.39 354.309 152.08 352.384 146.178 347.777C140.413 343.283 136.97 335.393 135.85 324.105L134.89 301.024C134.355 295.632 132.358 291.461 128.899 288.511C125.428 285.436 120.018 283.25 112.671 281.953L111.532 270.477C118.519 268.138 123.418 265.182 126.23 261.61C129.029 257.913 130.161 253.368 129.626 247.975L125.92 224.027C124.775 212.489 126.588 203.951 131.357 198.412C136.252 192.86 145.071 189.199 157.813 187.428L159.214 199.637C150.987 200.96 145.48 203.533 142.693 207.355C140.019 211.04 139.03 216.394 139.727 223.417Z" fill="url(#paint29_linear)"/>
<path id="{_16" d="M162.396 260.428L166.009 283.436C166.805 291.462 166.004 297.431 163.606 301.341C161.333 305.24 156.421 308.703 148.87 311.732C156.744 313.23 162.253 315.787 165.398 319.401C168.531 322.889 170.489 328.584 171.273 336.485L172.121 358.437C172.818 365.46 174.845 370.578 178.204 373.791C181.7 377.117 187.611 378.62 195.938 378.3L196.775 390.565C184.059 391.32 174.749 389.395 168.847 384.788C163.081 380.294 159.639 372.404 158.519 361.117L157.559 338.036C157.024 332.643 155.027 328.472 151.568 325.522C148.097 322.447 142.687 320.261 135.34 318.964L134.201 307.488C141.188 305.149 146.087 302.193 148.899 298.621C151.698 294.924 152.83 290.379 152.295 284.986L148.589 261.038C147.444 249.5 149.257 240.962 154.026 235.423C158.921 229.871 167.74 226.21 180.482 224.439L181.883 236.648C173.656 237.971 168.149 240.544 165.362 244.366C162.688 248.051 161.699 253.405 162.396 260.428Z" fill="url(#paint30_linear)"/>
</g>
<g id="bracket-2">
<path id="{_17" d="M267.229 28.3346L263.553 37.9328C262.093 41.1789 260.472 43.2857 258.691 44.2531C256.961 45.2434 254.314 45.4857 250.75 44.9798C253.442 47.2887 254.994 49.4811 255.405 51.5569C255.84 53.582 255.338 56.1922 253.901 59.3876L249.396 67.9727C248.118 70.813 247.77 73.2179 248.352 75.1873C248.962 77.2303 250.9 79.1085 254.166 80.8218L251.789 85.6984C246.742 83.1841 243.593 80.3952 242.342 77.3316C241.118 74.3416 241.533 70.5642 243.587 65.9993L248.297 56.9578C249.278 54.7768 249.429 52.7409 248.751 50.85C248.095 48.9084 246.5 46.8797 243.966 44.7637L246.054 40.1228C249.25 40.7679 251.781 40.7171 253.646 39.9705C255.533 39.1732 256.968 37.684 257.949 35.503L261.796 25.5244C263.896 20.8581 266.47 17.9911 269.519 16.9235C272.619 15.8787 276.809 16.422 282.089 18.5534L279.94 23.533C276.492 22.2254 273.812 21.9957 271.901 22.8438C270.065 23.664 268.507 25.4943 267.229 28.3346Z" fill="url(#paint31_linear)"/>
<path id="{_18" d="M264.904 27.2511L259.887 40.3471C257.894 44.7764 255.684 47.6517 253.257 48.973C250.9 50.3255 247.293 50.6585 242.437 49.9719C246.103 53.1188 248.215 56.1078 248.774 58.9389C249.364 61.7008 248.678 65.2618 246.716 69.6219L240.571 81.3367C238.828 85.2123 238.351 88.493 239.142 91.1788C239.971 93.965 242.609 96.5251 247.057 98.8589L243.813 105.513C236.941 102.088 232.654 98.2872 230.951 94.1095C229.287 90.0322 229.856 84.8792 232.659 78.6506L239.084 66.3129C240.423 63.3369 240.631 60.5597 239.709 57.9811C238.818 55.3333 236.647 52.5675 233.196 49.6837L236.045 43.3512C240.399 44.2281 243.846 44.1564 246.387 43.1361C248.96 42.0467 250.916 40.014 252.255 37.0381L257.505 23.4231C260.37 17.056 263.88 13.1428 268.035 11.6835C272.259 10.2554 277.967 10.9925 285.157 13.8947L282.225 20.6891C277.529 18.9089 273.878 18.5982 271.275 19.7568C268.771 20.8774 266.648 23.3755 264.904 27.2511Z" fill="url(#paint32_linear)"/>
<path id="{_19" d="M257.921 31.5867L254.886 39.5069C253.681 42.1857 252.345 43.9249 250.878 44.7244C249.453 45.5428 247.273 45.7449 244.339 45.3308C246.553 47.2329 247.829 49.0399 248.166 50.7517C248.522 52.4217 248.107 54.5752 246.921 57.2121L243.204 64.2974C242.15 66.6413 241.861 68.6253 242.339 70.2492C242.839 71.9338 244.433 73.4812 247.12 74.8915L245.158 78.916C241.006 76.8466 238.416 74.549 237.388 72.0232C236.384 69.558 236.729 66.4419 238.423 62.6749L242.309 55.2129C243.119 53.4131 243.245 51.7336 242.688 50.1746C242.15 48.5737 240.839 46.9017 238.755 45.1587L240.478 41.3288C243.108 41.858 245.192 41.8139 246.728 41.1964C248.283 40.5371 249.465 39.3075 250.275 37.5077L253.451 29.2736C255.183 25.4228 257.305 23.0557 259.816 22.1724C262.369 21.3079 265.818 21.7523 270.163 23.5056L268.389 27.6148C265.552 26.5394 263.346 26.3523 261.772 27.0535C260.259 27.7317 258.975 29.2427 257.921 31.5867Z" fill="url(#paint33_linear)"/>
<path id="{_20" d="M258.362 47.3867L255.327 55.3069C254.122 57.9857 252.786 59.7249 251.319 60.5245C249.894 61.3428 247.715 61.545 244.781 61.1309C246.995 63.033 248.271 64.8399 248.608 66.5518C248.963 68.2217 248.548 70.3752 247.362 73.0121L243.646 80.0974C242.591 82.4413 242.303 84.4253 242.78 86.0492C243.28 87.7338 244.874 89.2813 247.561 90.6915L245.6 94.716C241.447 92.6467 238.857 90.3491 237.83 87.8232C236.825 85.3581 237.17 82.242 238.865 78.4749L242.75 71.0129C243.56 69.2131 243.687 67.5337 243.13 65.9746C242.592 64.3737 241.281 62.7018 239.196 60.9587L240.919 57.1288C243.55 57.6581 245.633 57.614 247.169 56.9965C248.724 56.3371 249.906 55.1075 250.716 53.3077L253.892 45.0736C255.624 41.2228 257.746 38.8558 260.257 37.9724C262.811 37.1079 266.259 37.5523 270.604 39.3056L268.831 43.4149C265.993 42.3395 263.787 42.1523 262.214 42.8535C260.701 43.5317 259.417 45.0428 258.362 47.3867Z" fill="url(#paint34_linear)"/>
</g>
<g id="bracket-1">
<path id="{_21" d="M21.0484 87.5725L26.0379 92.6864C27.6622 94.5531 28.5206 96.1893 28.6131 97.5951C28.7348 98.9754 28.1173 100.717 26.7606 102.82C29.0017 101.793 30.8374 101.451 32.2677 101.795C33.6725 102.11 35.1744 103.186 36.7733 105.024L40.8821 110.366C42.3034 111.999 43.7203 112.919 45.1329 113.125C46.6002 113.334 48.3499 112.657 50.3819 111.094L52.7686 114.014C49.7128 116.468 47.0357 117.645 44.7374 117.543C42.4937 117.446 40.2298 116.084 37.9457 113.459L33.6084 107.855C32.5171 106.6 31.2759 105.912 29.8848 105.79C28.4683 105.639 26.7234 106.056 24.65 107.04L22.3278 104.371C23.6652 102.541 24.3696 100.929 24.441 99.5341C24.487 98.1103 23.9644 96.7714 22.8731 95.5172L17.6931 90.1845C15.3583 87.5012 14.2975 85.0417 14.5109 82.8061C14.7535 80.545 16.3158 78.058 19.1978 75.3452L21.7162 78.1507C19.8872 79.9473 18.9623 81.572 18.9417 83.025C18.9249 84.4233 19.6271 85.9392 21.0484 87.5725Z" fill="url(#paint35_linear)"/>
<path id="{_22" d="M19.6875 88.7247L26.4949 95.7033C28.7112 98.2503 29.8833 100.482 30.0112 102.399C30.1788 104.281 29.3394 106.655 27.4929 109.52C30.5462 108.122 33.0479 107.659 34.9978 108.13C36.9131 108.561 38.9616 110.03 41.1432 112.537L46.7505 119.826C48.6897 122.055 50.6222 123.31 52.5479 123.593C54.548 123.88 56.932 122.96 59.6997 120.831L62.9566 124.815C58.7946 128.157 55.1472 129.757 52.0144 129.616C48.9561 129.48 45.8686 127.621 42.752 124.04L36.8331 116.393C35.344 114.682 33.6513 113.742 31.755 113.574C29.8241 113.366 27.4463 113.931 24.6216 115.27L21.453 111.629C23.2735 109.136 24.2315 106.939 24.327 105.037C24.3879 103.096 23.6739 101.27 22.1848 99.5587L15.1177 92.2816C11.9317 88.6203 10.4828 85.2657 10.7707 82.218C11.0985 79.1355 13.2248 75.7469 17.1496 72.052L20.5857 75.8802C18.095 78.3272 16.8366 80.5412 16.8103 82.5221C16.7892 84.4285 17.7483 86.4961 19.6875 88.7247Z" fill="url(#paint36_linear)"/>
<path id="{_23" d="M20.3929 94.3948L24.5097 98.6156C25.8501 100.156 26.5593 101.506 26.6371 102.664C26.739 103.802 26.2323 105.237 25.1171 106.969C26.9623 106.124 28.4742 105.845 29.653 106.13C30.8108 106.392 32.0495 107.28 33.3689 108.797L36.7604 113.205C37.9333 114.553 39.1017 115.312 40.2658 115.483C41.4749 115.658 42.9156 115.102 44.588 113.816L46.5578 116.226C44.043 118.245 41.8388 119.211 39.9451 119.125C38.0965 119.042 36.2297 117.917 34.3448 115.751L30.7648 111.126C29.8642 110.091 28.8408 109.523 27.6945 109.42C26.5273 109.294 25.0902 109.635 23.3832 110.444L21.4668 108.242C22.5665 106.735 23.1449 105.407 23.2021 104.258C23.2383 103.084 22.8062 101.98 21.9056 100.945L17.6317 96.5437C15.7049 94.3293 14.828 92.301 15.0012 90.4586C15.1984 88.5952 16.4826 86.5473 18.8539 84.3147L20.932 86.6301C19.4272 88.1086 18.6672 89.4467 18.6519 90.6442C18.6397 91.7967 19.2201 93.0469 20.3929 94.3948Z" fill="url(#paint37_linear)"/>
<path id="{_24" d="M30.4954 98.7146L34.6123 102.935C35.9527 104.476 36.6618 105.825 36.7397 106.984C36.8416 108.122 36.3349 109.557 35.2196 111.289C37.0648 110.444 38.5768 110.165 39.7556 110.45C40.9134 110.711 42.152 111.6 43.4715 113.117L46.863 117.525C48.0358 118.872 49.2043 119.632 50.3684 119.803C51.5774 119.978 53.0182 119.422 54.6905 118.136L56.6603 120.545C54.1455 122.564 51.9413 123.531 50.0477 123.445C48.199 123.361 46.3322 122.237 44.4473 120.071L40.8673 115.446C39.9668 114.411 38.9433 113.842 37.7971 113.74C36.6299 113.614 35.1927 113.955 33.4857 114.764L31.5694 112.562C32.669 111.055 33.2475 109.727 33.3046 108.577C33.3409 107.404 32.9087 106.3 32.0081 105.265L27.7342 100.863C25.8074 98.6491 24.9306 96.6207 25.1037 94.7783C25.3009 92.915 26.5852 90.8671 28.9564 88.6345L31.0346 90.9499C29.5298 92.4284 28.7697 93.7665 28.7544 94.964C28.7423 96.1165 29.3226 97.3667 30.4954 98.7146Z" fill="url(#paint38_linear)"/>
</g>
</g>
</g>
<defs>
<filter id="filter0_d" x="739" y="101" width="611.5" height="421" filterUnits="userSpaceOnUse" color-interpolation-filters="sRGB">
<feFlood flood-opacity="0" result="BackgroundImageFix"/>
<feColorMatrix in="SourceAlpha" type="matrix" values="0 0 0 0 0 0 0 0 0 0 0 0 0 0 0 0 0 0 127 0"/>
<feOffset dy="4"/>
<feGaussianBlur stdDeviation="30"/>
<feColorMatrix type="matrix" values="0 0 0 0 0 0 0 0 0 0 0 0 0 0 0 0 0 0 0.1 0"/>
<feBlend mode="normal" in2="BackgroundImageFix" result="effect1_dropShadow"/>
<feBlend mode="normal" in="SourceGraphic" in2="effect1_dropShadow" result="shape"/>
</filter>
<filter id="filter1_d" x="789" y="422" width="380" height="46" filterUnits="userSpaceOnUse" color-interpolation-filters="sRGB">
<feFlood flood-opacity="0" result="BackgroundImageFix"/>
<feColorMatrix in="SourceAlpha" type="matrix" values="0 0 0 0 0 0 0 0 0 0 0 0 0 0 0 0 0 0 127 0"/>
<feOffset/>
<feGaussianBlur stdDeviation="5"/>
<feColorMatrix type="matrix" values="0 0 0 0 0 0 0 0 0 0 0 0 0 0 0 0 0 0 0.2 0"/>
<feBlend mode="normal" in2="BackgroundImageFix" result="effect1_dropShadow"/>
<feBlend mode="normal" in="SourceGraphic" in2="effect1_dropShadow" result="shape"/>
</filter>
<filter id="filter2_d" x="868.5" y="418" width="400" height="60" filterUnits="userSpaceOnUse" color-interpolation-filters="sRGB">
<feFlood flood-opacity="0" result="BackgroundImageFix"/>
<feColorMatrix in="SourceAlpha" type="matrix" values="0 0 0 0 0 0 0 0 0 0 0 0 0 0 0 0 0 0 127 0"/>
<feOffset/>
<feGaussianBlur stdDeviation="10"/>
<feColorMatrix type="matrix" values="0 0 0 0 0 0 0 0 0 0 0 0 0 0 0 0 0 0 0.1 0"/>
<feBlend mode="normal" in2="BackgroundImageFix" result="effect1_dropShadow"/>
<feBlend mode="normal" in="SourceGraphic" in2="effect1_dropShadow" result="shape"/>
</filter>
<filter id="filter3_d" x="1003.5" y="434" width="297" height="34" filterUnits="userSpaceOnUse" color-interpolation-filters="sRGB">
<feFlood flood-opacity="0" result="BackgroundImageFix"/>
<feColorMatrix in="SourceAlpha" type="matrix" values="0 0 0 0 0 0 0 0 0 0 0 0 0 0 0 0 0 0 127 0"/>
<feOffset/>
<feGaussianBlur stdDeviation="5"/>
<feColorMatrix type="matrix" values="0 0 0 0 0 0 0 0 0 0 0 0 0 0 0 0 0 0 0.2 0"/>
<feBlend mode="normal" in2="BackgroundImageFix" result="effect1_dropShadow"/>
<feBlend mode="normal" in="SourceGraphic" in2="effect1_dropShadow" result="shape"/>
</filter>
<linearGradient id="paint0_linear" x1="1182.71" y1="444.298" x2="967.574" y2="348.24" gradientUnits="userSpaceOnUse">
<stop stop-color="#EA9100"/>
<stop offset="1" stop-color="#FFD600"/>
</linearGradient>
<radialGradient id="paint1_radial" cx="0" cy="0" r="1" gradientUnits="userSpaceOnUse" gradientTransform="translate(990.291 296.662) rotate(19.9831) scale(42.6743 256.046)">
<stop stop-color="#7F43FF"/>
<stop offset="1" stop-color="#2C155E"/>
</radialGradient>
<radialGradient id="paint2_radial" cx="0" cy="0" r="1" gradientUnits="userSpaceOnUse" gradientTransform="translate(1041.33 241.162) rotate(65.7598) scale(152.74 138.067)">
<stop offset="0.115772" stop-color="#7F43FF"/>
<stop offset="0.849393" stop-color="#241642"/>
<stop offset="1" stop-color="#171D1E"/>
</radialGradient>
<linearGradient id="paint3_linear" x1="1097.72" y1="302.793" x2="1097.72" y2="357.793" gradientUnits="userSpaceOnUse">
<stop stop-color="#FFD501"/>
<stop offset="1" stop-color="#D27F01"/>
</linearGradient>
<linearGradient id="paint4_linear" x1="1098.29" y1="243" x2="1098.29" y2="457" gradientUnits="userSpaceOnUse">
<stop stop-color="#D07D00"/>
<stop offset="1" stop-color="#FFD600"/>
</linearGradient>
<linearGradient id="paint5_linear" x1="1101.38" y1="410.323" x2="1075.35" y2="427.564" gradientUnits="userSpaceOnUse">
<stop stop-color="#FFD501"/>
<stop offset="1" stop-color="#D27F01"/>
</linearGradient>
<linearGradient id="paint6_linear" x1="1137.44" y1="371.738" x2="1123.95" y2="391.434" gradientUnits="userSpaceOnUse">
<stop stop-color="#FFD501"/>
<stop offset="1" stop-color="#D27F01"/>
</linearGradient>
<linearGradient id="paint7_linear" x1="1154.43" y1="328.795" x2="1148.77" y2="351.986" gradientUnits="userSpaceOnUse">
<stop stop-color="#FFD501"/>
<stop offset="1" stop-color="#D27F01"/>
</linearGradient>
<linearGradient id="paint8_linear" x1="1152.47" y1="285.963" x2="1158.4" y2="304.76" gradientUnits="userSpaceOnUse">
<stop stop-color="#FFD501"/>
<stop offset="1" stop-color="#D27F01"/>
</linearGradient>
<linearGradient id="paint9_linear" x1="979" y1="432" x2="979" y2="458" gradientUnits="userSpaceOnUse">
<stop stop-color="#FFD501"/>
<stop offset="1" stop-color="#D27F01"/>
</linearGradient>
<linearGradient id="paint10_linear" x1="1068.5" y1="438" x2="1068.5" y2="458" gradientUnits="userSpaceOnUse">
<stop stop-color="#7F43FF"/>
<stop offset="1" stop-color="#310B82"/>
</linearGradient>
<linearGradient id="paint11_linear" x1="1152" y1="444" x2="1152" y2="458" gradientUnits="userSpaceOnUse">
<stop stop-color="#FFD501"/>
<stop offset="1" stop-color="#D27F01"/>
</linearGradient>
<linearGradient id="paint12_linear" x1="1039.92" y1="158.958" x2="1053.02" y2="239.906" gradientUnits="userSpaceOnUse">
<stop stop-color="#FFD501"/>
<stop offset="1" stop-color="#7F43FF"/>
</linearGradient>
<linearGradient id="paint13_linear" x1="1085.99" y1="157.612" x2="1075.96" y2="238.996" gradientUnits="userSpaceOnUse">
<stop stop-color="#FFD501"/>
<stop offset="1" stop-color="#7F43FF"/>
</linearGradient>
<linearGradient id="paint14_linear" x1="1063.5" y1="168" x2="1063.5" y2="240" gradientUnits="userSpaceOnUse">
<stop stop-color="#7F43FF"/>
<stop offset="1" stop-color="#FFD501"/>
</linearGradient>
<linearGradient id="paint15_linear" x1="1425.94" y1="403.202" x2="1453.66" y2="364.184" gradientUnits="userSpaceOnUse">
<stop stop-color="#7F43FF"/>
<stop offset="0.494792" stop-color="#5B2DBB"/>
<stop offset="1" stop-color="#351775"/>
</linearGradient>
<linearGradient id="paint16_linear" x1="1425.69" y1="407.414" x2="1463.52" y2="354.175" gradientUnits="userSpaceOnUse">
<stop stop-color="#5B2DBB"/>
<stop offset="1" stop-color="#FFD501"/>
</linearGradient>
<linearGradient id="paint17_linear" x1="1430.69" y1="402.098" x2="1460.06" y2="362.053" gradientUnits="userSpaceOnUse">
<stop stop-color="#15034A"/>
<stop offset="1" stop-color="#1A181E" stop-opacity="0"/>
</linearGradient>
<linearGradient id="paint18_linear" x1="1432.4" y1="391.971" x2="1461.77" y2="351.926" gradientUnits="userSpaceOnUse">
<stop stop-color="#15034A"/>
<stop offset="1" stop-color="#1A181E" stop-opacity="0"/>
</linearGradient>
<linearGradient id="paint19_linear" x1="1327.08" y1="297.643" x2="1361.06" y2="109.889" gradientUnits="userSpaceOnUse">
<stop stop-color="#7F43FF"/>
<stop offset="0.494792" stop-color="#5B2DBB"/>
<stop offset="1" stop-color="#351775"/>
</linearGradient>
<linearGradient id="paint20_linear" x1="1333.32" y1="313.269" x2="1379.68" y2="57.0808" gradientUnits="userSpaceOnUse">
<stop stop-color="#5B2DBB"/>
<stop offset="1" stop-color="#FFD501"/>
</linearGradient>
<linearGradient id="paint21_linear" x1="1342.37" y1="285.61" x2="1380.54" y2="91.3663" gradientUnits="userSpaceOnUse">
<stop stop-color="#15034A"/>
<stop offset="1" stop-color="#1A181E" stop-opacity="0"/>
</linearGradient>
<linearGradient id="paint22_linear" x1="1331.39" y1="246.17" x2="1369.56" y2="51.9267" gradientUnits="userSpaceOnUse">
<stop stop-color="#15034A"/>
<stop offset="1" stop-color="#1A181E" stop-opacity="0"/>
</linearGradient>
<linearGradient id="paint23_linear" x1="1258.02" y1="84.3716" x2="1216.37" y2="31.5318" gradientUnits="userSpaceOnUse">
<stop stop-color="#7F43FF"/>
<stop offset="0.494792" stop-color="#5B2DBB"/>
<stop offset="1" stop-color="#351775"/>
</linearGradient>
<linearGradient id="paint24_linear" x1="1263.6" y1="86.3761" x2="1206.77" y2="14.277" gradientUnits="userSpaceOnUse">
<stop stop-color="#5B2DBB"/>
<stop offset="1" stop-color="#FFD501"/>
</linearGradient>
<linearGradient id="paint25_linear" x1="1258.41" y1="77.5231" x2="1216.03" y2="22.0593" gradientUnits="userSpaceOnUse">
<stop stop-color="#15034A"/>
<stop offset="1" stop-color="#1A181E" stop-opacity="0"/>
</linearGradient>
<linearGradient id="paint26_linear" x1="1245.43" y1="71.2095" x2="1203.04" y2="15.7457" gradientUnits="userSpaceOnUse">
<stop stop-color="#15034A"/>
<stop offset="1" stop-color="#1A181E" stop-opacity="0"/>
</linearGradient>
<linearGradient id="paint27_linear" x1="146.734" y1="162.565" x2="166.706" y2="363.85" gradientUnits="userSpaceOnUse">
<stop stop-color="#7F43FF"/>
<stop offset="0.494792" stop-color="#5B2DBB"/>
<stop offset="1" stop-color="#351775"/>
</linearGradient>
<linearGradient id="paint28_linear" x1="135.835" y1="148.449" x2="163.086" y2="423.1" gradientUnits="userSpaceOnUse">
<stop stop-color="#FFD501"/>
<stop offset="0.848958" stop-color="#5B2DBB"/>
</linearGradient>
<linearGradient id="paint29_linear" x1="134.651" y1="179.278" x2="152.234" y2="388.399" gradientUnits="userSpaceOnUse">
<stop stop-color="#15034A"/>
<stop offset="1" stop-color="#1A181E" stop-opacity="0"/>
</linearGradient>
<linearGradient id="paint30_linear" x1="157.32" y1="216.289" x2="174.903" y2="425.41" gradientUnits="userSpaceOnUse">
<stop stop-color="#15034A"/>
<stop offset="1" stop-color="#1A181E" stop-opacity="0"/>
</linearGradient>
<linearGradient id="paint31_linear" x1="271.178" y1="13.6446" x2="240.954" y2="80.8239" gradientUnits="userSpaceOnUse">
<stop stop-color="#7F43FF"/>
<stop offset="0.494792" stop-color="#5B2DBB"/>
<stop offset="1" stop-color="#351775"/>
</linearGradient>
<linearGradient id="paint32_linear" x1="270.298" y1="7.20933" x2="229.058" y2="98.8745" gradientUnits="userSpaceOnUse">
<stop stop-color="#FFD501"/>
<stop offset="0.848958" stop-color="#5B2DBB"/>
</linearGradient>
<linearGradient id="paint33_linear" x1="264.329" y1="16.7288" x2="231.928" y2="85.9487" gradientUnits="userSpaceOnUse">
<stop stop-color="#15034A"/>
<stop offset="1" stop-color="#1A181E" stop-opacity="0"/>
</linearGradient>
<linearGradient id="paint34_linear" x1="264.77" y1="32.5288" x2="232.37" y2="101.749" gradientUnits="userSpaceOnUse">
<stop stop-color="#15034A"/>
<stop offset="1" stop-color="#1A181E" stop-opacity="0"/>
</linearGradient>
<linearGradient id="paint35_linear" x1="12.9236" y1="80.8048" x2="46.5382" y2="119.436" gradientUnits="userSpaceOnUse">
<stop stop-color="#7F43FF"/>
<stop offset="0.494792" stop-color="#5B2DBB"/>
<stop offset="1" stop-color="#351775"/>
</linearGradient>
<linearGradient id="paint36_linear" x1="8.60468" y1="79.4874" x2="54.4714" y2="132.199" gradientUnits="userSpaceOnUse">
<stop stop-color="#FFD501"/>
<stop offset="0.848958" stop-color="#5B2DBB"/>
</linearGradient>
<linearGradient id="paint37_linear" x1="12.8778" y1="86.0256" x2="47.1474" y2="126.624" gradientUnits="userSpaceOnUse">
<stop stop-color="#15034A"/>
<stop offset="1" stop-color="#1A181E" stop-opacity="0"/>
</linearGradient>
<linearGradient id="paint38_linear" x1="22.9804" y1="90.3454" x2="57.2499" y2="130.944" gradientUnits="userSpaceOnUse">
<stop stop-color="#15034A"/>
<stop offset="1" stop-color="#1A181E" stop-opacity="0"/>
</linearGradient>
</defs>
</svg>
