<svg width="64" height="64" viewBox="0 0 64 64" fill="none" xmlns="http://www.w3.org/2000/svg">
<rect width="64" height="64" fill="white"/>
<path fill-rule="evenodd" clip-rule="evenodd" d="M39.0854 52.1208C38.2092 51.2554 36.7981 51.262 35.93 52.1355L33.557 54.523C26.9474 61.1729 16.1858 61.2203 9.51755 54.6291C2.84648 48.035 2.79876 37.2942 9.41111 30.6414L11.7557 28.2826C12.6277 27.4052 12.6211 25.9862 11.7409 25.1169V25.1169C10.8647 24.2516 9.4536 24.2582 8.58548 25.1316L6.22502 27.5065C-2.1246 35.9072 -2.06446 49.4653 6.35947 57.792C14.7863 66.1215 28.3906 66.0614 36.743 57.6579L39.1001 55.2864C39.9722 54.409 39.9656 52.99 39.0854 52.1208V52.1208ZM52.7062 38.4371C53.5824 39.3024 54.9935 39.2958 55.8617 38.4224L57.7771 36.4953C66.1267 28.0946 66.0665 14.5366 57.6426 6.20988C49.2158 -2.11963 35.6115 -2.05954 27.259 6.34395L25.347 8.26768C24.4749 9.1451 24.4815 10.564 25.3617 11.4333V11.4333C26.238 12.2986 27.6491 12.292 28.5172 11.4186L30.4451 9.47887C37.0547 2.82894 47.8163 2.78148 54.4845 9.37274C61.1556 15.9668 61.2033 26.7076 54.591 33.3604L52.6915 35.2715C51.8194 36.1489 51.826 37.5679 52.7062 38.4371V38.4371Z" fill="black"/>
<rect x="27.7295" y="33.237" width="4.27943" height="14.9583" rx="2.13972" transform="rotate(45 27.7295 33.237)" fill="black"/>
<rect x="44.3486" y="16.7674" width="4.27943" height="14.9532" rx="2.13972" transform="rotate(45 44.3486 16.7674)" fill="black"/>
<rect x="42.9678" y="46.1522" width="5.73652" height="15.5625" rx="2.86826" transform="rotate(-45.5769 42.9678 46.1522)" fill="black"/>
<rect x="7.25488" y="10.1145" width="5.73652" height="15.5625" rx="2.86826" transform="rotate(-45.5769 7.25488 10.1145)" fill="black"/>
</svg>
