<svg width="122" height="80" viewBox="0 0 122 80" fill="none" xmlns="http://www.w3.org/2000/svg">
<path d="M112 79.5C117.523 79.5 122 75.0228 122 69.5L122 10C122 4.47715 117.523 1.95703e-07 112 4.37114e-07L58.3025 2.78431e-06C53.6314 2.98849e-06 49.8447 3.78669 49.8447 8.45781V8.45781C49.8447 12.9644 46.3111 16.6795 41.8101 16.905L13.65 18.316C8.99596 18.5492 7.16305 24.4609 10.8688 27.286L45.9074 53.9984C48.3885 55.8899 49.8447 58.831 49.8447 61.9509L49.8447 69.5C49.8447 75.0229 54.3218 79.5 59.8447 79.5L112 79.5Z" fill="#1C1F21"/>
<path d="M82.9023 37.3867V40.1289H73.9961V37.3867H82.9023ZM75.0391 30.4375V47.5H71.5234V30.4375H75.0391ZM85.4102 30.4375V47.5H81.9062V30.4375H85.4102Z" fill="white"/>
<path d="M91.8203 34.8203V47.5H88.4336V34.8203H91.8203ZM88.2227 31.5156C88.2227 31.0234 88.3945 30.6172 88.7383 30.2969C89.082 29.9766 89.543 29.8164 90.1211 29.8164C90.6914 29.8164 91.1484 29.9766 91.4922 30.2969C91.8438 30.6172 92.0195 31.0234 92.0195 31.5156C92.0195 32.0078 91.8438 32.4141 91.4922 32.7344C91.1484 33.0547 90.6914 33.2148 90.1211 33.2148C89.543 33.2148 89.082 33.0547 88.7383 32.7344C88.3945 32.4141 88.2227 32.0078 88.2227 31.5156Z" fill="white"/>
<path d="M98.418 30.4375L98.0312 42.2852H95.2188L94.8203 30.4375H98.418ZM94.7266 45.9531C94.7266 45.4531 94.8984 45.0391 95.2422 44.7109C95.5938 44.375 96.0547 44.207 96.625 44.207C97.2031 44.207 97.6641 44.375 98.0078 44.7109C98.3516 45.0391 98.5234 45.4531 98.5234 45.9531C98.5234 46.4375 98.3516 46.8477 98.0078 47.1836C97.6641 47.5195 97.2031 47.6875 96.625 47.6875C96.0547 47.6875 95.5938 47.5195 95.2422 47.1836C94.8984 46.8477 94.7266 46.4375 94.7266 45.9531Z" fill="white"/>
</svg>
