<svg width="259" height="59" viewBox="0 0 259 59" fill="none" xmlns="http://www.w3.org/2000/svg">
<g opacity="0.5">
<path d="M34.6797 5.5957V0.732422H40.3047V14.8828H34.5625C33.1172 12.0508 32.1348 9.84375 29.6152 8.26172C27.0957 6.67969 25.332 5.88867 22.3242 5.88867C19.4141 5.88867 16.8164 6.66016 14.5312 8.20312C12.2461 9.72656 10.459 11.7773 9.16992 14.3555C7.90039 16.9141 7.26562 19.668 7.26562 22.6172C7.26562 25.6641 7.92969 28.4766 9.25781 31.0547C10.6055 33.6328 12.4512 35.6934 14.7949 37.2363C17.1387 38.7793 19.7461 39.5508 22.6172 39.5508C26.1523 39.5508 29.2773 38.4766 31.9922 36.3281C34.707 34.1602 36.6895 31.0938 37.9395 27.1289L43.5645 30.1172C42.041 35.0391 39.3457 38.8574 35.4785 41.5723C31.6309 44.2676 27.1094 45.6152 21.9141 45.6152C17.6367 45.6152 13.8379 44.5996 10.5176 42.5684C7.19727 40.5176 4.60938 37.7734 2.75391 34.3359C0.917969 30.8789 0 27.0898 0 22.9688C0 18.4961 0.9375 14.5117 2.8125 11.0156C4.70703 7.51953 7.31445 4.81445 10.6348 2.90039C13.9551 0.966797 17.7539 0 22.0312 0C24.9023 0 26.5488 0.478516 28.9707 1.43555C31.3926 2.39258 32.6289 3.7793 34.6797 5.5957Z" fill="black"/>
<path d="M65.459 24.9609V39.4922H70.6152V44.8828H60.127V41.1035C57.1973 43.9746 53.9355 45.4102 50.3418 45.4102C48.4473 45.4102 46.709 44.9707 45.127 44.0918C43.5645 43.2129 42.3047 42.041 41.3477 40.5762C40.4102 39.0918 39.9414 37.4512 39.9414 35.6543C39.9414 33.7207 40.459 32.002 41.4941 30.498C42.5488 28.9746 43.9648 27.8027 45.7422 26.9824C47.5195 26.1621 49.3066 25.752 51.1035 25.752C54.1113 25.752 56.9141 26.6309 59.5117 28.3887V25.0781C59.5117 22.6758 59.0039 20.957 57.9883 19.9219C56.9727 18.8867 55.3027 18.3691 52.9785 18.3691C51.3379 18.3691 49.9609 18.6719 48.8477 19.2773C47.7539 19.8633 46.8457 20.7617 46.123 21.9727L40.3223 20.5371C41.6309 18.0957 43.3984 16.2793 45.625 15.0879C47.8516 13.877 50.498 13.2715 53.5645 13.2715C57.6855 13.2715 60.6934 14.209 62.5879 16.084C64.502 17.959 65.459 20.918 65.459 24.9609ZM51.1621 40.752C54.1309 40.752 56.9141 39.5117 59.5117 37.0312V33.4277C56.875 31.377 54.2383 30.3516 51.6016 30.3516C50 30.3516 48.6133 30.8594 47.4414 31.875C46.2891 32.8711 45.7129 34.1309 45.7129 35.6543C45.7129 37.1191 46.2207 38.3398 47.2363 39.3164C48.252 40.2734 49.5605 40.752 51.1621 40.752Z" fill="black"/>
<path d="M80.4023 32.5195V39.4922H87.1113V44.8828H68.2148V39.4922H74.3965V19.5117H68.2148V14.0918H79.2012V21.0645C80.4316 18.3105 81.9551 16.3965 83.7715 15.3223C85.6074 14.2285 88.2246 13.6816 91.623 13.6816H93V19.8047H91.6816C88.4004 19.8047 85.959 20.2344 84.3574 21.0938C82.7559 21.9531 81.6914 23.252 81.1641 24.9902C80.6562 26.7285 80.4023 29.2383 80.4023 32.5195Z" fill="black"/>
<path d="M124 29.6484C124 32.5195 123.336 35.2051 122.008 37.7051C120.68 40.2051 118.863 42.1777 116.559 43.623C114.273 45.0684 111.734 45.791 108.941 45.791C104.82 45.791 101.217 44.209 98.1309 41.0449V53.291H104.137V58.6816H86.5V53.291H92.0664V19.5117L87 19.8828L91.6816 13.6816H98.1309V19.0137C99.6543 17.2168 101.334 15.8789 103.17 15C105.006 14.1211 106.969 13.6816 109.059 13.6816C111.969 13.6816 114.557 14.4043 116.822 15.8496C119.088 17.2754 120.846 19.209 122.096 21.6504C123.365 24.0918 124 26.7578 124 29.6484ZM108.854 40.2539C110.533 40.2539 112.047 39.7656 113.395 38.7891C114.742 37.8125 115.797 36.4844 116.559 34.8047C117.32 33.125 117.701 31.3477 117.701 29.4727C117.701 27.5781 117.281 25.8398 116.441 24.2578C115.602 22.6562 114.449 21.3867 112.984 20.4492C111.52 19.4922 109.869 19.0137 108.033 19.0137C106.119 19.0137 104.4 19.5215 102.877 20.5371C101.354 21.5332 100.172 22.8613 99.332 24.5215C98.4922 26.1816 98.0723 28.0078 98.0723 30C98.0723 33.2031 99.0781 35.7129 101.09 37.5293C103.121 39.3457 105.709 40.2539 108.854 40.2539Z" fill="black"/>
<path d="M153.5 31.0254H127.689C128.061 33.9746 129.203 36.3086 131.117 38.0273C133.031 39.7266 135.375 40.5762 138.148 40.5762C140.18 40.5762 142.064 40.1562 143.803 39.3164C145.541 38.4766 145 38.9355 146.879 37.5293L153.5 39.4922C151.82 42.1094 149.613 42.4512 146.879 43.7988C144.164 45.127 141.205 45.791 138.002 45.791C134.682 45.791 131.732 45.0977 129.154 43.7109C126.576 42.3242 124.564 40.3906 123.119 37.9102C121.693 35.4297 120.98 32.6367 120.98 29.5312C120.98 26.4453 121.684 23.6621 123.09 21.1816C124.516 18.7012 126.459 16.7676 128.92 15.3809C131.381 13.9746 134.096 13.2715 137.064 13.2715C140.307 13.2715 143.129 13.9941 145.531 15.4395C147.953 16.8652 149.857 18.916 151.244 21.5918C152.631 24.248 153.383 27.3926 153.5 31.0254ZM137.182 18.3105C134.896 18.3105 132.895 19.082 131.176 20.625C129.457 22.1484 128.354 24.1699 127.865 26.6895H147.143C146.576 24.1699 145.375 22.1484 143.539 20.625C141.703 19.082 139.584 18.3105 137.182 18.3105Z" fill="black"/>
<path d="M181.844 24.1699V39.4922H187V44.8828H175.779V24.5508C175.779 22.6172 175.496 21.2305 174.93 20.3906C174.383 19.5508 173.475 19.1309 172.205 19.1309C169.51 19.1309 166.482 20.459 163.123 23.1152V39.4922H168.426V44.8828L138.148 45.7906L151.727 39.4922H157.146V19.5117H151.727V14.0918H163.123V17.8125C166.893 15.0586 170.438 13.6816 173.758 13.6816C176.512 13.6816 178.543 14.5312 179.852 16.2305C181.18 17.9297 181.844 20.5762 181.844 24.1699Z" fill="black"/>
<path d="M201.203 14.0918V19.5117H195.578V35.6543C195.578 37.334 195.754 38.4277 196.105 38.9355C196.477 39.4238 197.102 39.668 197.98 39.668C199.055 39.668 204.426 39.8633 205.5 39.4922L218.021 45.791C215.4 45.791 197.814 45.4102 196.662 45.4102C194.123 45.4102 192.297 44.7754 191.184 43.5059C190.07 42.2168 189.514 40.0195 189.514 36.9141V19.5117H180L173.758 13.6816L189.514 14.0918V9.43359L195.578 3.89648V14.0918H201.203Z" fill="black"/>
<path d="M233.52 31.0254H207.709C208.08 33.9746 209.223 36.3086 211.137 38.0273C213.051 39.7266 215.395 40.5762 218.168 40.5762C220.199 40.5762 222.084 40.1562 223.822 39.3164C225.561 38.4766 227.016 37.1875 228.188 35.4492L233.52 37.8516C231.84 40.4688 229.633 42.4512 226.898 43.7988C224.184 45.127 221.225 45.791 218.021 45.791C214.701 45.791 211.752 45.0977 209.174 43.7109C206.596 42.3242 204.584 40.3906 203.139 37.9102C201.713 35.4297 201 32.6367 201 29.5312C201 26.4453 201.703 23.6621 203.109 21.1816C204.535 18.7012 206.479 16.7676 208.939 15.3809C211.4 13.9746 214.115 13.2715 217.084 13.2715C220.326 13.2715 223.148 13.9941 225.551 15.4395C227.973 16.8652 229.877 18.916 231.264 21.5918C232.65 24.248 233.402 27.3926 233.52 31.0254ZM217.201 18.3105C214.916 18.3105 212.914 19.082 211.195 20.625C209.477 22.1484 208.373 24.1699 207.885 26.6895H227.162C226.596 24.1699 225.395 22.1484 223.559 20.625C221.723 19.082 219.604 18.3105 217.201 18.3105Z" fill="black"/>
<path d="M246.402 32.5195V39.4922H253.111V44.8828H234.215V39.4922H240.396V19.5117H228L217.201 13.2718L245.201 14.0918V21.0645C246.432 18.3105 247.955 16.3965 249.771 15.3223C251.607 14.2285 254.225 13.6816 257.623 13.6816H259V19.8047H257.682C254.4 19.8047 251.959 20.2344 250.357 21.0938C248.756 21.9531 247.691 23.252 247.164 24.9902C246.656 26.7285 246.402 29.2383 246.402 32.5195Z" fill="black"/>
</g>
</svg>
