<svg class="s-logo s-logo--coffeekraken-picto" viewBox="0 0 228 229" fill="none" xmlns="http://www.w3.org/2000/svg">
<path d="M31.5 55.3151V202.802H120V229H0V29H71V55.3151H31.5Z" fill="white"/>
<path d="M194.5 26.3151V202.802H156.5V229H227.5V0H156.5V26.3151H194.5Z" fill="white"/>
<path d="M98.298 167.658L98.298 164.62L101.954 164.62L101.954 154.899L105 154.899L105 139.101L101.954 139.101L101.954 129.684L98.298 129.684L98.298 126.038L95.5563 126.038L95.5563 123L72.0993 123L72.0993 126.038L65.702 126.038L65.702 129.684L62.6556 129.684L62.6556 139.101L59 139.101L59 154.899L62.6556 154.899L62.6556 164.62L69.053 164.62L69.053 167.658L72.0993 167.658L72.0993 171L95.5563 171L95.5563 167.658L98.298 167.658Z" fill="#FEBD0F"/>
<path d="M163.298 126.342L163.298 129.38L166.954 129.38L166.954 139.101L170 139.101L170 154.899L166.954 154.899L166.954 164.316L163.298 164.316L163.298 167.962L160.556 167.962L160.556 171L137.099 171L137.099 167.962L130.702 167.962L130.702 164.316L127.656 164.316L127.656 154.899L124 154.899L124 139.101L127.656 139.101L127.656 129.38L134.053 129.38L134.053 126.342L137.099 126.342L137.099 123L160.556 123L160.556 126.342L163.298 126.342Z" fill="#FEBD0F"/>
</svg>
