<svg width="521" height="165" viewBox="0 0 521 165" fill="none" xmlns="http://www.w3.org/2000/svg">
<path fill-rule="evenodd" clip-rule="evenodd" d="M230 71.2127L180.5 42.4219L131 71.2127V113.949L180.496 143.078L230 114.79V71.2127ZM228.886 71.7214L228.885 71.7208L228.728 71.8111L228.886 71.7214ZM180.499 98.4239L133.506 71.5005L180.499 44.5772L227.226 71.5219L180.499 98.4239ZM132.5 113.096L132.5 73.2115L179.5 99.7924V140.628L132.5 113.096ZM181.5 99.7907V140.64L228.227 114.036V73.2455L181.5 99.7907Z" fill="white" fill-opacity="0.3"/>
<path fill-rule="evenodd" clip-rule="evenodd" d="M131 79.4571L92 56.7734L53 79.4571V113.128L91.9971 136.078L131 113.791V79.4571ZM92 135.166V101.805L92 101.805L92 135.166ZM130.122 79.858L130.121 79.8576L129.998 79.9288L130.122 79.858ZM91.9997 100.896L54.9744 79.6841L91.9995 58.4718L128.814 79.7009L91.9997 100.896ZM54.1818 112.457L54.182 81.0323L91.2121 101.975V134.149L54.1818 112.457ZM92.7879 101.973V134.157L129.603 113.197V81.059L92.7879 101.973Z" fill="white" fill-opacity="0.2"/>
<path fill-rule="evenodd" clip-rule="evenodd" d="M53 89.5881L26.5 74.1748L0 89.5881V112.467L26.498 128.062L53 112.918V89.5881ZM26.4997 127.441L26.5 127.442V104.773L26.4997 104.773V127.441ZM52.4036 89.8605L52.4031 89.8602L52.3272 89.9039L52.4036 89.8605ZM26.4996 104.156L1.34147 89.7425L26.4995 75.329L51.5148 89.7539L26.4996 104.156ZM0.80277 112.011L0.802873 90.6583L25.9644 104.888V126.75L0.80277 112.011ZM27.0354 104.888V126.756L52.0509 112.514V90.6766L27.0354 104.888Z" fill="white" fill-opacity="0.1"/>
<path fill-rule="evenodd" clip-rule="evenodd" d="M521 47.1123L440 0L359 47.1123V117.045L439.994 164.71L521 118.421V47.1123ZM440 162.815L440 162.815V93.5266L440 93.5265V162.815ZM519.177 47.945L519.175 47.9436L518.824 48.1454L519.177 47.945ZM439.999 91.6399L363.1 47.5834L439.998 3.52708L516.46 47.6183L439.999 91.6399ZM361.454 115.649L361.455 50.3828L438.363 93.8789V160.701L361.454 115.649ZM441.636 93.8769V160.721L518.099 117.188V50.4393L441.636 93.8769Z" fill="white" fill-opacity="0.4"/>
<path d="M294.514 96.465L227.541 58.4961V115.449L294.514 155V96.465Z" fill="#F2BC2B"/>
<path d="M294.514 96.465L227.541 58.4961V115.449L294.514 155V96.465Z" fill="black" fill-opacity="0.25"/>
<path d="M360.959 58.4961L294.514 96.465V155L360.959 117.031V58.4961Z" fill="#F2BC2B"/>
<path d="M360.959 58.4961L294.514 96.465V155L360.959 117.031V58.4961Z" fill="black" fill-opacity="0.1"/>
<path d="M360.959 58.4962L294.514 96.4651L227.541 58.4962L294.514 20L360.959 58.4962Z" fill="#F2BC2B"/>
<path d="M74.2676 98.7473V95.5476H77.5168V73.4445H74.3646V70.2939H82.2694V88.3604L89.8833 82.4531H86.6825V79.2533H97.1092V82.4531H94.5389L87.119 88.4096L94.0539 95.5476H97.2547V98.7473H91.2897L82.2694 89.1972V95.5476H85.1307V98.7473H74.2676Z" fill="white"/>
<path d="M95.0718 98.7473V95.5476H98.3696V82.4531H95.0718V79.2533H103.122V85.1114H102.395C102.815 83.5361 103.316 82.3054 103.898 81.4193C104.512 80.5332 105.191 79.9097 105.935 79.5487C106.679 79.1549 107.422 78.958 108.166 78.958C108.845 78.958 109.491 79.04 110.106 79.2041C110.752 79.3682 111.383 79.5979 111.997 79.8933L110.93 84.1268C110.38 83.7658 109.798 83.5033 109.184 83.3392C108.602 83.1423 107.988 83.0438 107.341 83.0438C106.274 83.0438 105.304 83.4705 104.432 84.3237C103.591 85.177 103.171 86.4405 103.171 88.1142L103.122 95.5476H106.323V98.7473H95.0718Z" fill="white"/>
<path d="M115.149 99.2888C113.177 99.2888 111.593 98.7473 110.397 97.6643C109.233 96.5485 108.651 95.1702 108.651 93.5293C108.651 92.0196 109.006 90.8217 109.718 89.9357C110.429 89.0496 111.366 88.4096 112.53 88.0158C113.694 87.622 114.955 87.4251 116.313 87.4251C117.445 87.4251 118.544 87.5235 119.611 87.7204C120.678 87.9173 121.68 88.1635 122.618 88.4588L121.26 88.6557V86.4405C121.26 84.9965 120.888 83.9299 120.144 83.2407C119.401 82.5516 118.366 82.207 117.041 82.207C116.135 82.207 115.101 82.3546 113.937 82.65C112.805 82.9454 111.647 83.4511 110.93 84.1268L109.281 80.9763C110.574 80.2215 111.965 79.6635 113.452 79.3025C114.971 78.9415 116.378 78.761 117.671 78.761C119.449 78.761 120.953 79.0564 122.181 79.6471C123.442 80.2379 124.396 81.0911 125.042 82.207C125.689 83.29 126.012 84.5699 126.012 86.0467V95.5476H128.777V98.7473H121.939L121.405 95.8922L123.012 98.3043C121.848 99.4529 120.5 97.8941 119.271 98.452C118.075 99.0099 116.701 99.2888 115.149 99.2888ZM116.362 96.3352C117.396 96.3352 118.415 96.1055 119.417 95.646C120.451 95.1866 121.502 94.4646 122.569 93.48L121.26 95.3014V89.8864L122.327 90.8217C121.615 90.5592 120.807 90.3459 119.902 90.1818C118.997 90.0177 118.059 89.9357 117.089 89.9357C116.054 89.9357 115.117 90.1654 114.276 90.6248C113.468 91.0843 113.064 91.954 113.064 93.2339C113.064 94.12 113.355 94.8584 113.937 95.4491C114.519 96.0398 115.327 96.3352 116.362 96.3352Z" fill="white"/>
<path d="M126.109 98.7473V95.5476H129.358V73.4445H126.206V70.2939H134.111V88.3604L141.725 82.4531H138.524V79.2533H148.951V82.4531H146.38L138.961 88.4096L145.896 95.5476H154.964L158.02 99.2888L143.131 98.7473L134.111 89.1972V95.5476H136.972V98.7473H126.109Z" fill="white"/>
<path d="M158.02 99.2888C155.918 99.2888 154.043 98.8786 152.394 98.0582C150.745 97.2049 149.452 96.007 148.514 94.4646C147.577 92.9221 147.108 91.1007 147.108 89.0003C147.108 86.9328 147.561 85.1278 148.466 83.5853C149.371 82.0429 150.583 80.8614 152.103 80.041C153.655 79.1877 155.401 78.761 157.341 78.761C159.313 78.761 161.01 79.1877 162.433 80.041C163.855 80.8614 164.938 82.0265 165.682 83.5361C166.458 85.0457 166.846 86.8015 166.846 88.8034V89.9357H150.551L150.6 87.3266H162.239C162.239 86.2436 162.028 85.3083 161.608 84.5206C161.188 83.733 160.606 83.1423 159.862 82.7485C159.119 82.3218 158.262 82.1085 157.292 82.1085C156.225 82.1085 155.271 82.371 154.431 82.8961C153.623 83.4212 152.976 84.1596 152.491 85.1114C152.038 86.0631 151.812 87.2281 151.812 88.6065C151.812 90.0505 152.071 91.2976 152.588 92.3478C153.138 93.398 153.897 94.202 154.867 94.7599C155.837 95.3178 156.953 95.5968 158.213 95.5968C159.571 95.5968 160.832 95.3343 161.996 94.8092C163.16 94.2841 164.178 93.6277 165.051 92.8401L166.555 95.7937C165.617 96.7783 164.421 97.6151 162.966 98.3043C161.544 98.9607 159.895 99.2888 158.02 99.2888Z" fill="white"/>
<path d="M158.02 99.2888L158.213 95.5968L169.804 95.5476V82.4531H166.506V79.2533H174.411L174.46 81.8624L172.956 82.1577C174.314 81.1732 175.672 80.3691 177.03 79.7456C178.388 79.0892 179.794 78.761 181.249 78.761C183.124 78.761 184.66 79.3518 185.856 80.5332C187.052 81.7147 187.651 83.3392 187.651 85.4067V95.5476H190.851V98.7473H180.085V95.5476H182.849V86.2436C182.849 85.0293 182.558 84.0776 181.977 83.3884C181.395 82.6992 180.586 82.3546 179.552 82.3546C178.549 82.3546 177.515 82.5844 176.448 83.0438C175.413 83.5033 174.314 84.1432 173.15 84.9637L174.605 82.8961V95.5476H177.563V98.7473L158.02 99.2888Z" fill="white"/>
<mask id="mask0_2255_4814" style="mask-type:alpha" maskUnits="userSpaceOnUse" x="54" y="66" width="17" height="17">
<path d="M54.0273 66.165H70.7646V82.1746H54.0273V66.165Z" fill="white"/>
</mask>
<g mask="url(#mask0_2255_4814)">
<path d="M62.8964 74.0972C62.6333 74.4014 61.8592 74.3874 61.1676 74.066C60.4759 73.7445 60.1285 73.2373 60.3916 72.9332C60.6548 72.629 61.4288 72.643 62.1205 72.9644C62.8121 73.2859 63.1595 73.793 62.8964 74.0972Z" fill="#F2BC2B"/>
<path d="M62.5421 78.3075C61.8748 78.197 61.5374 77.4466 61.7886 76.6314C62.0398 75.8162 62.7844 75.2449 63.4517 75.3553C64.119 75.4658 64.4563 76.2162 64.2052 77.0314C63.954 77.8466 63.2094 78.4179 62.5421 78.3075Z" fill="#F2BC2B"/>
<path d="M58.3942 79.5413C57.4805 80.3647 57.2862 81.3579 57.9601 81.7597C58.6341 82.1616 59.9212 81.8199 60.8349 80.9965C61.7486 80.1732 61.9429 79.1799 61.2689 78.7781C60.595 78.3763 59.3079 78.718 58.3942 79.5413Z" fill="#F2BC2B"/>
</g>
<path d="M56.4346 80.8483C56.4833 80.486 56.4512 79.5725 57.2593 79.1107C58.4463 78.4325 58.7168 78.0277 58.7037 77.9102C58.6711 78.0741 58.3158 78.4514 57.1556 78.6498C57.0263 78.672 56.9066 78.6918 56.7955 78.7102C55.963 78.8482 55.6087 78.907 55.2651 79.249C55.3784 78.5189 55.4005 77.7681 55.1655 77.4134C54.6257 76.5987 54.3799 76.5572 53.2451 76.3656C53.1341 76.3469 53.0144 76.3267 52.8851 76.3042C51.7256 76.1023 51.3714 75.7239 51.3393 75.5599C51.3258 75.6774 51.5951 76.0829 52.7801 76.7647C54.2612 77.617 54.1551 78.0268 53.592 78.9893C53.2928 79.2884 52.94 79.1642 52.443 79.2884C52.6144 79.1632 54.2652 80.225 54.4422 80.1741C54.8618 80.0533 55.0522 80.1403 55.3729 80.262C55.8114 80.4284 56.3513 80.8179 56.4346 80.8483Z" fill="white"/>
<path d="M59.5435 71.5598C59.9442 71.3711 60.3991 71.3184 60.7573 71.3252C61.3402 71.3363 61.9347 71.494 62.4497 71.7459C62.9646 71.9978 63.403 72.3454 63.6646 72.7475C63.8865 73.0885 64.0539 73.6063 63.7625 74.11C64.6424 74.3493 65.116 74.9454 65.324 75.4325C65.5625 75.9911 65.5746 76.6321 65.3954 77.2444C65.2162 77.8566 64.8482 78.4315 64.3217 78.8567C63.9377 79.1669 63.6646 79.2266 62.3826 79.2266C62.441 79.5108 62.6658 80.1011 62.6194 80.3508C62.4938 81.0263 62.074 81.7102 61.4598 82.2928C60.8456 82.8754 60.0633 83.3318 59.2318 83.5642C59.1185 83.5958 58.9988 83.6245 58.8741 83.6488L63.8959 81.2223C64.7495 81.1222 62.6194 79.8478 69.3309 79.2887C67.6535 78.3569 70.9461 76.1825 68.3369 72.5171C66.0383 69.97 62.7401 70.7562 60.4036 70.1494C59.6309 69.9487 59.0262 69.7917 58.7429 69.6818C57.8306 69.328 56.3377 67.7751 58.2713 65C54.4994 67.6596 56.4431 69.6792 57.3505 70.5022C57.6285 70.7544 58.2727 71.0249 59.0496 71.3512C59.2093 71.4183 59.3746 71.4877 59.5435 71.5598Z" fill="white"/>
<path fill-rule="evenodd" clip-rule="evenodd" d="M52.9564 79.1934H68.7597C69.8663 79.1934 70.7633 80.0904 70.7633 81.197V94.9968C70.7633 97.21 68.9692 99.0041 66.7561 99.0041H54.96C52.7469 99.0041 50.9528 97.21 50.9528 94.9968V94.0512H50.0072C47.7941 94.0512 46 92.2571 46 90.044V87.6579C46 85.4448 47.7941 83.6507 50.0072 83.6507H50.9528V81.197C50.9528 80.0904 51.8499 79.1934 52.9564 79.1934ZM68.5702 82.3265C69.1702 83.5178 68.9805 84.824 68.1465 85.244C67.3126 85.664 66.1502 85.0386 65.5502 83.8473C64.9503 82.6559 65.14 81.3497 65.9739 80.9297C66.8079 80.5098 67.9703 81.1351 68.5702 82.3265ZM48.8357 88.1839C48.8357 87.0773 49.7327 86.1803 50.8393 86.1803H51.6408C52.7473 86.1803 53.6444 87.0773 53.6444 88.1839V88.9853C53.6444 90.0919 52.7473 90.9889 51.6408 90.9889H50.8393C49.7327 90.9889 48.8357 90.0919 48.8357 88.9853V88.1839ZM69.0748 88.3535C69.1443 89.3324 68.6453 90.1653 67.9601 90.214C67.2749 90.2627 66.663 89.5087 66.5935 88.5298C66.5239 87.551 66.948 87.3328 67.6332 87.2841C68.3184 87.2355 69.0052 87.3747 69.0748 88.3535Z" fill="#F2BC2B"/>
<mask id="mask1_2255_4814" style="mask-type:alpha" maskUnits="userSpaceOnUse" x="50" y="76" width="22" height="24">
<rect x="50.9521" y="76.8037" width="20.2527" height="22.2407" fill="#D9D9D9"/>
</mask>
<g mask="url(#mask1_2255_4814)">
<path fill-rule="evenodd" clip-rule="evenodd" d="M52.9753 79.1641H67.1687C68.1626 79.1641 68.9683 79.9686 68.9683 80.9611V94.456C68.9683 96.4409 67.3569 98.05 65.3692 98.05H54.5263C52.5387 98.05 50.9273 97.4349 50.9273 95.45V93.4837H50.0781C48.0904 93.4837 46.7275 91.8746 46.7275 89.8897V87.7497C46.7275 85.7648 48.0904 84.1557 50.0781 84.1557H50.9273V81.2096C50.9273 80.2171 51.7937 79.1641 52.9753 79.1641ZM66.9986 81.9741C67.5374 83.0425 67.367 84.2141 66.618 84.5907C65.869 84.9674 64.825 84.4065 64.2862 83.338C63.7474 82.2695 63.9178 81.098 64.6667 80.7214C65.4157 80.3447 66.4597 80.9056 66.9986 81.9741ZM49.2744 88.2214C49.2744 87.229 47.2867 86.1759 51.5709 86.1759L51.946 86.1842L52.2907 86.3084C53.0643 86.619 53.6234 87.229 53.6234 88.2214V88.9402C53.6234 89.9327 53.0643 90.5329 52.2907 90.8758L51.8839 90.9857H51.5709C48.5292 90.9857 49.2744 89.9327 49.2744 88.9402V88.2214ZM67.4517 87.3796C67.5142 88.2575 67.066 89.0045 66.4506 89.0482C65.8352 89.0919 65.2857 88.4156 65.2232 87.5377C65.1607 86.6598 65.5416 86.4641 66.157 86.4205C66.7724 86.3768 67.3893 86.5017 67.4517 87.3796Z" fill="url(#paint0_linear_2255_4814)"/>
</g>
<path d="M99.8197 73.0214C100.002 73.2325 100.539 73.2228 101.019 72.9997C101.499 72.7767 101.74 72.4248 101.558 72.2137C101.375 72.0026 100.838 72.0123 100.358 72.2354C99.8781 72.4584 99.6371 72.8103 99.8197 73.0214Z" fill="#F2BC2B"/>
<path d="M100.066 75.9428C100.529 75.8662 100.763 75.3455 100.588 74.7798C100.414 74.2141 99.8974 73.8177 99.4344 73.8944C98.9713 73.971 98.7373 74.4917 98.9115 75.0574C99.0858 75.623 99.6025 76.0194 100.066 75.9428Z" fill="#F2BC2B"/>
<path d="M102.944 76.7989C103.578 77.3702 103.712 78.0594 103.245 78.3382C102.777 78.6171 101.884 78.38 101.25 77.8087C100.616 77.2374 100.481 76.5482 100.949 76.2694C101.417 75.9905 102.31 76.2276 102.944 76.7989Z" fill="#F2BC2B"/>
<path d="M102.042 71.2403C101.748 71.153 101.456 71.1047 101.207 71.1094C100.803 71.1171 100.39 71.2265 100.033 71.4013C99.6756 71.5761 99.3714 71.8173 99.1898 72.0963C99.0359 72.3329 98.9197 72.6922 99.1219 73.0417C98.5114 73.2077 98.1828 73.6214 98.0384 73.9593C97.8729 74.3469 97.8646 74.7918 97.9889 75.2166C98.1133 75.6414 98.3686 76.0403 98.7339 76.3353C99.0004 76.5506 99.4127 76.7708 99.9172 76.8064C99.8768 77.0036 99.8829 77.1988 99.9151 77.372C100.002 77.8407 100.294 78.3153 100.72 78.7196C101.146 79.1238 101.319 79.2524 102.963 79.4579C103.168 79.4579 99.0354 79.441 99.1219 79.4579L87.3492 79.4579C86.7569 79.3884 96.9206 79.5081 95.7723 77.8143C93.837 74.9054 94.9747 73.4133 96.0533 72.2062C96.8639 71.2991 98.0545 70.6342 99.6758 70.2131C100.212 70.0739 101.73 69.8021 103.168 69.9919C104.407 70.1555 106.6 71.1095 106.866 72.6781C105.634 72.0621 105.223 71.2403 103.785 71.2403C102.963 71.2558 102.783 71.6711 102.757 71.6509C102.514 71.4606 102.259 71.3045 102.042 71.2403Z" fill="white"/>
<path d="M111.709 79.9094C114.851 79.2556 115.357 77.503 114.353 76.4995C112.878 75.0256 112.645 74.318 112.712 74.1485C112.693 74.4048 113.063 75.1051 114.695 75.8554C114.877 75.9391 115.046 76.0155 115.202 76.0866C116.375 76.6185 116.875 76.8449 117.242 77.488C117.374 76.3586 118.045 75.3273 118.537 74.8926C119.447 74.0896 120.422 73.9061 121.409 73.9965C121.581 74.0122 121.766 74.0292 121.966 74.0465C123.762 74.2018 124.44 73.7785 124.555 73.5474C124.527 73.7274 124.146 74.5876 121.051 75.2067C119.48 75.5209 119.438 76.6279 119.438 77.488C119.438 78.3481 120.422 78.9764 123.564 80.5471C123.362 80.2937 118.778 79.7499 118.537 79.6047C117.967 79.2604 116.862 79.5498 116.338 79.6047C115.622 79.6798 111.845 79.8969 111.709 79.9094Z" fill="white"/>
<path d="M172.277 76.814C172.053 76.8219 171.765 76.5004 171.634 76.0958C171.503 75.6913 171.579 75.3569 171.803 75.349C172.027 75.3411 172.315 75.6626 172.446 76.0672C172.577 76.4717 172.502 76.8061 172.277 76.814Z" fill="#F2BC2B"/>
<path d="M170.423 78.2667C170.215 77.9521 170.393 77.5296 170.822 77.3229C171.25 77.1162 171.766 77.2036 171.974 77.5182C172.182 77.8327 172.004 78.2553 171.575 78.4619C171.147 78.6686 170.631 78.5812 170.423 78.2667Z" fill="#F2BC2B"/>
<path d="M172.076 74.419C172.307 74.5119 172.502 74.6789 172.636 74.829C172.855 75.0732 173.017 75.3783 173.11 75.6866C173.203 75.9949 173.228 76.3082 173.162 76.5696C173.107 76.7914 172.958 77.0582 172.639 77.1308C172.877 77.5845 172.812 78.0074 172.691 78.2793C172.553 78.591 172.293 78.8411 171.973 79.0013C171.652 79.1616 171.275 79.2299 170.899 79.1758C170.624 79.1363 170.266 79.013 169.967 78.7333C169.872 78.8659 169.753 78.9698 169.633 79.0462C169.307 79.2527 168.865 79.3414 168.39 79.3113C167.915 79.2812 167.808 79.3511 166.566 79.4132C166.509 79.3787 168.239 80.3872 168.181 80.3451L169.762 79.9049C170.129 80.218 173.151 83.5756 177.935 79.4754C176.009 80.5315 174.518 78.7333 175.201 77.2389C176.009 75.6866 175.201 74.5675 174.518 74.319C173.902 74.0951 172.896 73.7168 172.592 72.9523C172.389 72.4415 172.574 70.9808 174.456 70.7158C171.919 70.1799 171.465 72.3262 171.474 73.0144C171.474 73.5735 171.497 73.5638 171.66 74.0084C171.693 74.0998 172.041 74.3219 172.076 74.419Z" fill="white"/>
<defs>
<linearGradient id="paint0_linear_2255_4814" x1="51.3028" y1="88.079" x2="62.6853" y2="88.079" gradientUnits="userSpaceOnUse">
<stop stop-opacity="0.1"/>
<stop offset="1" stop-opacity="0"/>
</linearGradient>
</defs>
</svg>
