<svg width="54" height="64" viewBox="0 0 54 64" fill="none" xmlns="http://www.w3.org/2000/svg">
<path d="M35.1 5.33333V18.6667H48.6V58.6667H5.4V5.33333H35.1ZM37.8 0H0V64H54V16L37.8 0Z" fill="black"/>
<path d="M12.7027 50.4196V55H10V42H15.1171C16.1021 42 16.967 42.1786 17.7117 42.5357C18.4625 42.8929 19.039 43.4018 19.4414 44.0625C19.8438 44.7173 20.045 45.4643 20.045 46.3036C20.045 47.5774 19.6036 48.5833 18.7207 49.3214C17.8438 50.0536 16.6276 50.4196 15.0721 50.4196H12.7027ZM12.7027 48.25H15.1171C15.8318 48.25 16.3754 48.0833 16.7477 47.75C17.1261 47.4167 17.3153 46.9405 17.3153 46.3214C17.3153 45.6845 17.1261 45.1696 16.7477 44.7768C16.3694 44.3839 15.8468 44.1815 15.1802 44.1696H12.7027V48.25Z" fill="black"/>
<path d="M32.5856 55H29.8829V49.4286H24.6126V55H21.9099V42H24.6126V47.2679H29.8829V42H32.5856V55Z" fill="black"/>
<path d="M37.6577 50.4196V55H34.955V42H40.0721C41.0571 42 41.9219 42.1786 42.6667 42.5357C43.4174 42.8929 43.994 43.4018 44.3964 44.0625C44.7988 44.7173 45 45.4643 45 46.3036C45 47.5774 44.5586 48.5833 43.6757 49.3214C42.7988 50.0536 41.5826 50.4196 40.027 50.4196H37.6577ZM37.6577 48.25H40.0721C40.7868 48.25 41.3303 48.0833 41.7027 47.75C42.0811 47.4167 42.2703 46.9405 42.2703 46.3214C42.2703 45.6845 42.0811 45.1696 41.7027 44.7768C41.3243 44.3839 40.8018 44.1815 40.1351 44.1696H37.6577V48.25Z" fill="black"/>
</svg>
