<svg width="54" height="64" viewBox="0 0 54 64" fill="none" xmlns="http://www.w3.org/2000/svg">
<path fill-rule="evenodd" clip-rule="evenodd" d="M35.1 18.6667V5.33333H5.4V58.6667H48.6V18.6667H35.1ZM0 0H37.8L54 16V64H0V0ZM39.6279 47.5C40.2139 47.9395 40.5068 48.5742 40.5068 49.4043C40.5068 50.166 40.2139 50.7617 39.6279 51.1914C39.042 51.6113 38.2266 51.8213 37.1816 51.8213C34.3691 51.8213 32.9629 50.6445 32.9629 48.291H28.5537C28.5537 49.668 28.9053 50.8789 29.6084 51.9238C30.3213 52.9688 31.3516 53.7939 32.6992 54.3994C34.0469 54.9951 35.541 55.293 37.1816 55.293C39.5449 55.293 41.4248 54.7705 42.8213 53.7256C44.2178 52.6709 44.916 51.2207 44.916 49.375C44.916 47.7148 44.3447 46.3281 43.2021 45.2148C42.0596 44.1016 40.2383 43.1689 37.7383 42.417C36.3809 42.0068 35.3506 41.5674 34.6475 41.0986C33.9541 40.6299 33.6074 40.0488 33.6074 39.3555C33.6074 38.6133 33.9053 38.0176 34.501 37.5684C35.0967 37.1094 35.9316 36.8799 37.0059 36.8799C38.1191 36.8799 38.9834 37.1533 39.5986 37.7002C40.2139 38.2373 40.5215 38.9941 40.5215 39.9707H44.916C44.916 38.6914 44.584 37.5488 43.9199 36.543C43.2656 35.5371 42.3428 34.7607 41.1514 34.2139C39.96 33.6572 38.6025 33.3789 37.0791 33.3789C35.5654 33.3789 34.1982 33.6328 32.9775 34.1406C31.7666 34.6484 30.834 35.3564 30.1797 36.2646C29.5352 37.1631 29.2129 38.1885 29.2129 39.3408C29.2129 41.5576 30.4238 43.3203 32.8457 44.6289C33.7344 45.1074 34.9404 45.5957 36.4639 46.0938C37.9873 46.582 39.042 47.0508 39.6279 47.5ZM25.6826 33.6719H21.2881V48.4375C21.2881 49.502 21.0391 50.3223 20.541 50.8984C20.043 51.4746 19.374 51.7627 18.5342 51.7627C17.5869 51.7627 16.8936 51.5137 16.4541 51.0156C16.0146 50.5176 15.7949 49.7461 15.7949 48.7012H11.3711C11.3711 50.8008 12.001 52.4268 13.2607 53.5791C14.5205 54.7217 16.2783 55.293 18.5342 55.293C19.9111 55.293 21.1465 55.0098 22.2402 54.4434C23.334 53.877 24.1787 53.0762 24.7744 52.041C25.3799 50.9961 25.6826 49.7949 25.6826 48.4375V33.6719Z" fill="black"/>
</svg>
