<svg width="54" height="64" viewBox="0 0 54 64" fill="none" xmlns="http://www.w3.org/2000/svg">
<path d="M35.1 5.33333V18.6667H48.6V58.6667H5.4V5.33333H35.1ZM37.8 0H0V64H54V16L37.8 0Z" fill="black"/>
<path d="M21.2284 50.2741C21.1212 51.7402 20.5725 52.8944 19.5824 53.7366C18.5986 54.5789 17.2995 55 15.6851 55C13.9194 55 12.5288 54.4135 11.5135 53.2406C10.5045 52.0615 10 50.4456 10 48.393V47.5602C10 46.25 10.2333 45.0958 10.7 44.0976C11.1667 43.0994 11.832 42.3351 12.6959 41.8048C13.5662 41.2683 14.5752 41 15.723 41C17.3122 41 18.5923 41.4211 19.5635 42.2634C20.5347 43.1056 21.0959 44.2879 21.2473 45.8102H18.4095C18.3401 44.9305 18.091 44.2941 17.6622 43.9011C17.2396 43.5018 16.5932 43.3021 15.723 43.3021C14.777 43.3021 14.0676 43.639 13.5946 44.3128C13.1279 44.9804 12.8883 46.0192 12.8757 47.4291V48.4586C12.8757 49.9309 13.0995 51.0071 13.5473 51.6872C14.0014 52.3672 14.714 52.7072 15.6851 52.7072C16.5617 52.7072 17.2144 52.5107 17.6432 52.1176C18.0784 51.7184 18.3275 51.1038 18.3905 50.2741H21.2284Z" fill="black"/>
<path d="M30.2338 51.238C30.2338 50.7077 30.0446 50.3021 29.6662 50.0214C29.2878 49.7344 28.6068 49.4349 27.623 49.123C26.6392 48.8048 25.8604 48.4929 25.2865 48.1872C23.7225 47.3512 22.9405 46.225 22.9405 44.8088C22.9405 44.0726 23.1486 43.4176 23.5649 42.8436C23.9874 42.2634 24.5896 41.8111 25.3716 41.4866C26.1599 41.1622 27.0428 41 28.0203 41C29.0041 41 29.8806 41.1778 30.65 41.5334C31.4194 41.8828 32.0153 42.3788 32.4378 43.0214C32.8667 43.664 33.0811 44.3939 33.0811 45.2112H30.2432C30.2432 44.5873 30.0446 44.1038 29.6473 43.7607C29.25 43.4113 28.6919 43.2366 27.973 43.2366C27.2793 43.2366 26.7401 43.3832 26.3554 43.6765C25.9707 43.9635 25.7784 44.344 25.7784 44.8182C25.7784 45.2611 26.0023 45.6324 26.45 45.9318C26.9041 46.2313 27.5694 46.512 28.4459 46.7741C30.0604 47.2545 31.2365 47.8503 31.9743 48.5615C32.7122 49.2727 33.0811 50.1586 33.0811 51.2193C33.0811 52.3984 32.6302 53.3249 31.7284 53.9987C30.8266 54.6662 29.6126 55 28.0865 55C27.027 55 26.0622 54.8097 25.1919 54.4291C24.3216 54.0423 23.6563 53.5152 23.1959 52.8476C22.7419 52.18 22.5149 51.4064 22.5149 50.5267H25.3622C25.3622 52.0303 26.2703 52.7821 28.0865 52.7821C28.7613 52.7821 29.2878 52.6479 29.6662 52.3797C30.0446 52.1052 30.2338 51.7246 30.2338 51.238Z" fill="black"/>
<path d="M42.1527 51.238C42.1527 50.7077 41.9635 50.3021 41.5851 50.0214C41.2068 49.7344 40.5257 49.4349 39.5419 49.123C38.5581 48.8048 37.7793 48.4929 37.2054 48.1872C35.6414 47.3512 34.8595 46.225 34.8595 44.8088C34.8595 44.0726 35.0676 43.4176 35.4838 42.8436C35.9063 42.2634 36.5086 41.8111 37.2905 41.4866C38.0788 41.1622 38.9617 41 39.9392 41C40.923 41 41.7996 41.1778 42.5689 41.5334C43.3383 41.8828 43.9342 42.3788 44.3568 43.0214C44.7856 43.664 45 44.3939 45 45.2112H42.1622C42.1622 44.5873 41.9635 44.1038 41.5662 43.7607C41.1689 43.4113 40.6108 43.2366 39.8919 43.2366C39.1982 43.2366 38.659 43.3832 38.2743 43.6765C37.8896 43.9635 37.6973 44.344 37.6973 44.8182C37.6973 45.2611 37.9212 45.6324 38.3689 45.9318C38.823 46.2313 39.4883 46.512 40.3649 46.7741C41.9793 47.2545 43.1554 47.8503 43.8932 48.5615C44.6311 49.2727 45 50.1586 45 51.2193C45 52.3984 44.5491 53.3249 43.6473 53.9987C42.7455 54.6662 41.5315 55 40.0054 55C38.9459 55 37.9811 54.8097 37.1108 54.4291C36.2405 54.0423 35.5752 53.5152 35.1149 52.8476C34.6608 52.18 34.4338 51.4064 34.4338 50.5267H37.2811C37.2811 52.0303 38.1892 52.7821 40.0054 52.7821C40.6802 52.7821 41.2068 52.6479 41.5851 52.3797C41.9635 52.1052 42.1527 51.7246 42.1527 51.238Z" fill="black"/>
</svg>
