<svg width="54" height="64" viewBox="0 0 54 64" fill="none" xmlns="http://www.w3.org/2000/svg">
<path d="M35.1 5.33333V18.6667H48.6V58.6667H5.4V5.33333H35.1ZM37.8 0H0V64H54V16L37.8 0Z" fill="black"/>
<path d="M27.1621 37.2314H20.6289V55H16.2344V37.2314H9.78906V33.6719H27.1621V37.2314Z" fill="black"/>
<path d="M40.5068 49.4043C40.5068 48.5742 40.2139 47.9395 39.6279 47.5C39.042 47.0508 37.9873 46.582 36.4639 46.0938C34.9404 45.5957 33.7344 45.1074 32.8457 44.6289C30.4238 43.3203 29.2129 41.5576 29.2129 39.3408C29.2129 38.1885 29.5352 37.1631 30.1797 36.2646C30.834 35.3564 31.7666 34.6484 32.9775 34.1406C34.1982 33.6328 35.5654 33.3789 37.0791 33.3789C38.6025 33.3789 39.96 33.6572 41.1514 34.2139C42.3428 34.7607 43.2656 35.5371 43.9199 36.543C44.584 37.5488 44.916 38.6914 44.916 39.9707H40.5215C40.5215 38.9941 40.2139 38.2373 39.5986 37.7002C38.9834 37.1533 38.1191 36.8799 37.0059 36.8799C35.9316 36.8799 35.0967 37.1094 34.501 37.5684C33.9053 38.0176 33.6074 38.6133 33.6074 39.3555C33.6074 40.0488 33.9541 40.6299 34.6475 41.0986C35.3506 41.5674 36.3809 42.0068 37.7383 42.417C40.2383 43.1689 42.0596 44.1016 43.2021 45.2148C44.3447 46.3281 44.916 47.7148 44.916 49.375C44.916 51.2207 44.2178 52.6709 42.8213 53.7256C41.4248 54.7705 39.5449 55.293 37.1816 55.293C35.541 55.293 34.0469 54.9951 32.6992 54.3994C31.3516 53.7939 30.3213 52.9688 29.6084 51.9238C28.9053 50.8789 28.5537 49.668 28.5537 48.291H32.9629C32.9629 50.6445 34.3691 51.8213 37.1816 51.8213C38.2266 51.8213 39.042 51.6113 39.6279 51.1914C40.2139 50.7617 40.5068 50.166 40.5068 49.4043Z" fill="black"/>
</svg>
