<svg width="54" height="64" viewBox="0 0 54 64" fill="none" xmlns="http://www.w3.org/2000/svg">
<path d="M35.1 5.33333V18.6667H48.6V58.6667H5.4V5.33333H35.1ZM37.8 0H0V64H54V16L37.8 0Z" fill="black"/>
<path d="M13.8545 37L18.4861 50.0549L23.0929 37H27.9721V55H24.2446V50.0797L24.6161 41.5865L19.7492 55H17.1981L12.3437 41.5989L12.7152 50.0797V55H9V37H13.8545Z" fill="black"/>
<path d="M31.2167 55V37H36.7647C38.3498 37 39.7657 37.3585 41.0124 38.0755C42.2673 38.7843 43.2456 39.7981 43.9474 41.1168C44.6491 42.4272 45 43.919 45 45.592V46.4203C45 48.0934 44.6533 49.581 43.9598 50.8832C43.2745 52.1854 42.3044 53.1951 41.0495 53.9121C39.7946 54.6291 38.3787 54.9918 36.8019 55H31.2167ZM34.9319 40.0041V52.0206H36.7276C38.1806 52.0206 39.291 51.5467 40.0588 50.5989C40.8266 49.6511 41.2188 48.2953 41.2353 46.5316V45.5797C41.2353 43.75 40.8555 42.3654 40.096 41.4258C39.3364 40.478 38.226 40.0041 36.7647 40.0041H34.9319Z" fill="black"/>
</svg>
