<svg width="61" height="53" viewBox="0 0 61 53" fill="none" xmlns="http://www.w3.org/2000/svg">
<path d="M35.6296 0.967619C39.574 1.6167 42.9471 5.91697 46.1095 9.67256C49.2531 13.4798 52.1696 16.7071 55.0405 20.9412C57.8762 25.1916 60.6476 30.5005 60.2299 35.4942C59.7605 40.4691 56.0833 45.1805 51.5838 48.2178C47.0656 51.3068 41.6735 52.7028 36.9524 51.8582C32.2313 51.0136 28.1812 47.9284 24.4826 45.3222C20.8357 42.7349 17.5403 40.6267 13.0864 37.6866C8.61608 34.7113 3.0388 30.9229 1.28331 25.9553C-0.455787 21.0229 1.69492 14.9653 5.87556 11.5194C10.0914 8.05701 16.3536 7.24148 21.7438 5.28925C27.1505 3.37224 31.6851 0.318534 35.6296 0.967619Z" fill="#4D1AF9"/>
</svg>
