<svg width="218" height="217" viewBox="0 0 218 217" fill="none" xmlns="http://www.w3.org/2000/svg">
<path d="M191.492 102.546C192.411 114.256 182.509 126.901 174.014 138.562C165.359 150.206 158.198 160.794 148.133 171.96C137.997 183.036 124.795 194.672 110.253 196.987C95.7277 199.142 79.7018 191.958 67.8753 181.253C55.8883 170.53 48.118 156.125 47.2123 142.061C46.3066 127.997 52.2654 114.274 57.1041 101.89C61.9254 89.6669 65.6266 78.7835 70.8877 64.0099C76.2378 49.1649 83.1304 30.5903 96.0718 22.0925C108.924 13.6662 127.719 15.5486 140.488 25.0574C153.328 34.6551 160.053 51.9506 169.409 65.9598C178.676 80.0405 190.574 90.8348 191.492 102.546Z" fill="#5929FB"/>
<path d="M94.2545 110.935L92.1401 119.112L87.4462 117.898L93.4473 94.6892L102.334 96.9871C104.045 97.4294 105.465 98.1366 106.593 99.1086C107.732 100.083 108.499 101.251 108.892 102.611C109.289 103.961 109.294 105.385 108.906 106.883C108.318 109.157 107.087 110.755 105.213 111.676C103.352 112.59 101.071 112.697 98.3694 111.999L94.2545 110.935ZM95.256 107.061L99.4492 108.145C100.69 108.466 101.711 108.413 102.512 107.985C103.323 107.56 103.871 106.795 104.157 105.689C104.451 104.552 104.36 103.548 103.884 102.677C103.409 101.805 102.595 101.21 101.442 100.889L97.1396 99.7764L95.256 107.061Z" fill="white" style="mix-blend-mode:multiply"/>
<path d="M126.671 128.041L121.977 126.827L124.549 116.88L115.396 114.513L112.824 124.46L108.131 123.247L114.132 100.037L118.825 101.251L116.394 110.656L125.547 113.023L127.978 103.618L132.672 104.831L126.671 128.041Z" fill="white" style="mix-blend-mode:multiply"/>
<path d="M137.595 122.141L135.48 130.318L130.786 129.104L136.787 105.895L145.674 108.193C147.385 108.636 148.805 109.343 149.933 110.315C151.072 111.29 151.839 112.457 152.232 113.817C152.629 115.167 152.634 116.591 152.246 118.089C151.658 120.364 150.427 121.961 148.553 122.883C146.692 123.796 144.411 123.903 141.709 123.205L137.595 122.141ZM138.596 118.267L142.789 119.352C144.031 119.672 145.051 119.619 145.852 119.191C146.663 118.766 147.211 118.001 147.497 116.896C147.791 115.758 147.7 114.754 147.225 113.883C146.749 113.012 145.935 112.416 144.782 112.095L140.48 110.983L138.596 118.267Z" fill="white" style="mix-blend-mode:multiply"/>
</svg>
