<svg width="367" height="121" viewBox="0 0 367 121" fill="none" xmlns="http://www.w3.org/2000/svg">
<path d="M146.141 119.977V113.931H152.281V72.1617H146.324V66.208H161.262V100.349L175.65 89.1855H169.602V83.1388H189.305V89.1855H184.448L170.427 100.442L183.532 113.931H189.58V119.977H178.308L161.262 101.93V113.931H166.669V119.977H146.141Z" fill="white"/>
<path d="M185.455 119.977V113.931H191.687V89.1855H185.455V83.1388H200.668V94.2089H199.294C200.088 91.2321 201.035 88.9064 202.135 87.232C203.296 85.5575 204.579 84.3792 205.984 83.697C207.389 82.9528 208.794 82.5806 210.199 82.5806C211.482 82.5806 212.704 82.7357 213.865 83.0458C215.087 83.3559 216.278 83.79 217.439 84.3481L215.423 92.3484C214.385 91.6662 213.285 91.1701 212.124 90.86C211.024 90.4879 209.863 90.3018 208.641 90.3018C206.625 90.3018 204.792 91.1081 203.143 92.7205C201.554 94.333 200.76 96.7206 200.76 99.8835L200.668 113.931H206.717V119.977H185.455Z" fill="white"/>
<path d="M223.396 121.001C219.669 121.001 216.676 119.977 214.415 117.931C212.216 115.822 211.116 113.217 211.116 110.116C211.116 107.264 211.788 105 213.132 103.326C214.476 101.651 216.248 100.442 218.447 99.6975C220.647 98.9533 223.03 98.5812 225.596 98.5812C227.734 98.5812 229.811 98.7672 231.827 99.1393C233.844 99.5114 235.738 99.9766 237.509 100.535L234.943 100.907V96.7207C234.943 93.9919 234.241 91.9763 232.836 90.6739C231.43 89.3716 229.475 88.7204 226.97 88.7204C225.26 88.7204 223.305 88.9995 221.105 89.5576C218.967 90.1158 216.828 90.922 214.69 91.9763L212.307 86.3947C214.751 84.9683 217.378 83.914 220.189 83.2318C223.06 82.5496 225.718 82.2085 228.162 82.2085C231.522 82.2085 234.363 82.7667 236.685 83.883C239.067 84.9993 240.87 86.6118 242.092 88.7204C243.314 90.767 243.924 93.1856 243.924 95.9764V113.931H249.148V119.977H236.226L235.218 114.582H237.968C235.768 116.752 233.508 118.365 231.186 119.419C228.925 120.473 226.329 121.001 223.396 121.001ZM225.687 115.419C227.642 115.419 229.567 114.985 231.461 114.117C233.416 113.248 235.402 111.884 237.418 110.023L234.943 113.465V103.232L236.96 105C235.615 104.504 234.088 104.101 232.377 103.791C230.667 103.481 228.895 103.326 227.062 103.326C225.107 103.326 223.335 103.76 221.747 104.628C220.219 105.496 219.455 107.14 219.455 109.558C219.455 111.233 220.005 112.628 221.105 113.744C222.205 114.861 223.732 115.419 225.687 115.419Z" fill="white"/>
<path d="M244.108 119.977V113.931H250.248V72.1617H244.291V66.208H259.229V100.349L273.617 89.1855H267.569V83.1388H287.272V89.1855H282.415L268.393 100.442L281.498 113.931H298.636V119.977H276.275L259.229 101.93V113.931H264.636V119.977H244.108Z" fill="white"/>
<path d="M304.41 121.001C300.438 121.001 296.895 120.225 293.779 118.675C290.663 117.062 288.219 114.799 286.447 111.884C284.675 108.969 283.79 105.527 283.79 101.558C283.79 97.6509 284.645 94.2399 286.356 91.3251C288.066 88.4103 290.357 86.1777 293.229 84.6272C296.162 83.0148 299.461 82.2085 303.127 82.2085C306.853 82.2085 310.061 83.0148 312.749 84.6272C315.437 86.1777 317.484 88.3793 318.889 91.2321C320.356 94.0849 321.089 97.4028 321.089 101.186V103.326H290.296L290.388 98.3951H312.383C312.383 96.3485 311.985 94.581 311.191 93.0926C310.397 91.6042 309.297 90.4879 307.892 89.7437C306.487 88.9374 304.868 88.5343 303.035 88.5343C301.019 88.5343 299.216 89.0305 297.628 90.0227C296.1 91.015 294.879 92.4104 293.962 94.2089C293.107 96.0074 292.679 98.2091 292.679 100.814C292.679 103.543 293.168 105.899 294.145 107.884C295.184 109.868 296.62 111.388 298.453 112.442C300.286 113.496 302.393 114.024 304.776 114.024C307.342 114.024 309.725 113.527 311.924 112.535C314.124 111.543 316.048 110.302 317.698 108.814L320.539 114.396C318.767 116.256 316.507 117.838 313.757 119.14C311.069 120.38 307.953 121.001 304.41 121.001Z" fill="white"/>
<path d="M305.051 119.977V113.931H326.679V89.1855H320.447V83.1388H335.385L335.477 88.0692L332.636 88.6274C335.202 86.7668 337.768 85.2474 340.334 84.0691C342.9 82.8287 345.558 82.2085 348.307 82.2085C351.851 82.2085 354.753 83.3249 357.013 85.5575C359.274 87.7901 360.404 90.86 360.404 94.7671V113.931H366.453V119.977H346.108V113.931H351.331V96.3485C351.331 94.0539 350.782 92.2554 349.682 90.953C348.582 89.6506 347.055 88.9995 345.1 88.9995C343.206 88.9995 341.251 89.4336 339.234 90.3018C337.279 91.1701 335.202 92.3794 333.003 93.9299L335.752 90.0227V113.931H341.342V119.977H305.051Z" fill="white"/>
<path d="M177.665 62.683C172.965 62.683 168.63 62.0154 164.658 60.6803C160.687 59.2785 157.212 57.3092 154.233 54.7725C151.321 52.169 149.038 49.0316 147.383 45.36C145.794 41.6885 145 37.5163 145 32.8435C145 26.702 146.324 21.395 148.971 16.9224C151.685 12.3831 155.326 8.9118 159.893 6.50862C164.526 4.03868 169.821 2.80372 175.778 2.80372C179.948 2.80372 183.588 3.43789 186.699 4.70623C189.876 5.97458 192.458 7.71021 194.444 9.91312C196.495 12.116 197.885 14.7195 198.613 17.7235L194.642 14.8196V3.80504H205.762V24.4323H196.231C194.51 21.1613 192.325 18.6914 189.678 17.0225C187.097 15.2869 183.853 14.4191 179.948 14.4191C176.308 14.4191 173.164 15.1868 170.516 16.7221C167.935 18.2575 165.916 20.3937 164.46 23.1306C163.07 25.8008 162.375 28.9717 162.375 32.6432C162.375 35.4469 162.772 37.9836 163.566 40.2533C164.36 42.4562 165.453 44.3921 166.843 46.061C168.299 47.6631 170.02 48.898 172.005 49.7659C173.991 50.6337 176.208 51.0676 178.657 51.0676C181.371 51.0676 183.754 50.5669 185.806 49.5656C187.858 48.5643 189.579 47.0957 190.969 45.1598C192.359 43.1571 193.385 40.7206 194.046 37.8501L207.251 42.4562C206.325 46.5282 204.537 50.0996 201.89 53.1704C199.308 56.1743 195.966 58.5108 191.862 60.1796C187.825 61.8485 183.092 62.683 177.665 62.683Z" fill="#F2BC2B"/>
<path d="M215.69 62.7831C211.256 62.7831 207.383 61.9153 204.074 60.1796C200.765 58.3773 198.183 55.8739 196.33 52.6697C194.477 49.4655 193.55 45.7606 193.55 41.555C193.55 37.3494 194.477 33.6779 196.33 30.5404C198.183 27.4029 200.765 24.9664 204.074 23.2307C207.383 21.4284 211.256 20.5272 215.69 20.5272C220.125 20.5272 223.997 21.4284 227.307 23.2307C230.616 24.9664 233.197 27.4029 235.051 30.5404C236.904 33.6779 237.831 37.3494 237.831 41.555C237.831 45.7606 236.904 49.4655 235.051 52.6697C233.197 55.8739 230.616 58.3773 227.307 60.1796C223.997 61.9153 220.125 62.7831 215.69 62.7831ZM215.69 51.5683C217.411 51.5683 218.9 51.1677 220.158 50.3667C221.482 49.5656 222.475 48.4308 223.137 46.9622C223.798 45.4268 224.129 43.6244 224.129 41.555C224.129 39.4856 223.798 37.7166 223.137 36.248C222.475 34.7794 221.482 33.6445 220.158 32.8435C218.9 32.0424 217.411 31.6419 215.69 31.6419C213.903 31.6419 212.381 32.0424 211.123 32.8435C209.932 33.6445 208.972 34.7794 208.244 36.248C207.582 37.7166 207.251 39.4856 207.251 41.555C207.251 43.6244 207.582 45.4268 208.244 46.9622C208.972 48.4308 209.932 49.5656 211.123 50.3667C212.381 51.1677 213.903 51.5683 215.69 51.5683Z" fill="#F2BC2B"/>
<path d="M235.349 61.6816V52.87H240.511V30.3402H235.249V21.6286H240.511V17.9237C240.511 12.8503 241.967 8.84504 244.88 5.90782C247.792 2.9706 251.929 1.50199 257.29 1.50199C262.453 1.50199 266.358 2.6702 269.006 5.00663C271.72 7.2763 273.308 10.3804 273.772 14.319L263.545 16.0212C263.479 14.2188 263.115 12.817 262.453 11.8156C261.857 10.7476 260.865 10.2135 259.475 10.2135C258.085 10.2135 257.026 10.7809 256.297 11.9158C255.569 12.9839 255.205 14.7529 255.205 17.2228V21.6286H268.807V16.5219C268.807 13.3844 269.469 10.5807 270.793 8.11074C272.117 5.6408 274.102 3.67153 276.75 2.20292C279.464 0.734307 282.906 0 287.076 0C290.517 0 293.364 0.500665 295.614 1.50199C297.931 2.43656 299.751 3.83842 301.075 5.70756C302.398 7.50994 303.226 9.77961 303.557 12.5166L292.338 14.5192C292.271 12.7168 291.907 11.315 291.246 10.3137C290.584 9.31233 289.525 8.81167 288.068 8.81167C286.612 8.81167 285.487 9.34571 284.693 10.4138C283.965 11.4819 283.601 13.4178 283.601 16.2215V21.6286H290.451V30.3402H283.601V52.87H290.352V61.6816H263.347V52.87H268.807V30.3402H255.205V52.87H264.042V61.6816H235.349Z" fill="#F2BC2B"/>
<path d="M310.407 62.7831C305.84 62.7831 301.836 61.9487 298.394 60.2798C295.018 58.6109 292.371 56.2077 290.451 53.0702C288.532 49.866 287.572 46.061 287.572 41.6551C287.572 37.4496 288.499 33.778 290.352 30.6406C292.205 27.5031 294.754 25.0331 297.997 23.2307C301.306 21.4284 305.079 20.5272 309.315 20.5272C313.485 20.5272 317.026 21.4284 319.939 23.2307C322.917 24.9664 325.168 27.4029 326.69 30.5404C328.279 33.6112 329.073 37.1825 329.073 41.2546V43.9582H295.713L295.813 37.6498H315.471C315.471 36.0477 315.206 34.7126 314.677 33.6445C314.213 32.5097 313.485 31.6419 312.492 31.0411C311.5 30.4403 310.275 30.1399 308.819 30.1399C307.164 30.1399 305.774 30.5738 304.649 31.4416C303.524 32.2427 302.663 33.4443 302.068 35.0464C301.538 36.5818 301.273 38.4175 301.273 40.5537C301.273 43.0236 301.737 45.093 302.663 46.7619C303.656 48.364 304.98 49.599 306.635 50.4668C308.289 51.2679 310.209 51.6684 312.393 51.6684C314.776 51.6684 317.026 51.2679 319.144 50.4668C321.262 49.6657 323.116 48.631 324.704 47.3627L328.775 56.1743C326.525 58.177 323.844 59.7791 320.733 60.9807C317.622 62.1823 314.18 62.7831 310.407 62.7831Z" fill="#F2BC2B"/>
<path d="M346.646 62.7831C342.079 62.7831 338.075 61.9487 334.633 60.2798C331.257 58.6109 328.61 56.2077 326.69 53.0702C324.771 49.866 323.811 46.061 323.811 41.6551C323.811 37.4496 324.737 33.778 326.591 30.6406C328.444 27.5031 330.992 25.0331 334.236 23.2307C337.545 21.4284 341.318 20.5272 345.554 20.5272C349.724 20.5272 353.265 21.4284 356.177 23.2307C359.156 24.9664 361.406 27.4029 362.929 30.5404C364.517 33.6112 365.312 37.1825 365.312 41.2546V43.9582H331.952L332.051 37.6498H351.71C351.71 36.0477 351.445 34.7126 350.915 33.6445C350.452 32.5097 349.724 31.6419 348.731 31.0411C347.738 30.4403 346.514 30.1399 345.058 30.1399C343.403 30.1399 342.013 30.5738 340.888 31.4416C339.762 32.2427 338.902 33.4443 338.306 35.0464C337.777 36.5818 337.512 38.4175 337.512 40.5537C337.512 43.0236 337.975 45.093 338.902 46.7619C339.895 48.364 341.219 49.599 342.873 50.4668C344.528 51.2679 346.448 51.6684 348.632 51.6684C351.015 51.6684 353.265 51.2679 355.383 50.4668C357.501 49.6657 359.355 48.631 360.943 47.3627L365.014 56.1743C362.763 58.177 360.083 59.7791 356.972 60.9807C353.861 62.1823 350.419 62.7831 346.646 62.7831Z" fill="#F2BC2B"/>
<path d="M59 59H80V70C80 75.5228 75.5228 80 70 80H59V59Z" fill="white"/>
<path d="M59 40H80V61H59V40Z" fill="white"/>
<path d="M40 59H61V80H40V59Z" fill="white"/>
<path d="M40 50C40 44.4772 44.4772 40 50 40H61V61H40V50Z" fill="white"/>
<rect opacity="0.4" x="39" width="20" height="21" fill="#F2BC2B"/>
<rect opacity="0.6" x="59" width="20" height="21" fill="#F2BC2B"/>
<rect opacity="0.8" x="79" width="20" height="21" fill="#F2BC2B"/>
<path d="M99 0H100C111.046 0 120 8.95431 120 20V21H99V0Z" fill="#F2BC2B"/>
<rect opacity="0.4" x="99" y="39" width="21" height="20" fill="#F2BC2B"/>
<rect opacity="0.6" x="99" y="59" width="21" height="20" fill="#F2BC2B"/>
<rect opacity="0.8" x="99" y="79" width="21" height="20" fill="#F2BC2B"/>
<path d="M99 99H120V100C120 111.046 111.046 120 100 120H99V99Z" fill="#F2BC2B"/>
<rect opacity="0.4" x="61" y="99" width="20" height="21" fill="#F2BC2B"/>
<rect opacity="0.6" x="41" y="99" width="20" height="21" fill="#F2BC2B"/>
<rect opacity="0.8" x="21" y="99" width="20" height="21" fill="#F2BC2B"/>
<path d="M0 99H21V120H20C8.95431 120 0 111.046 0 100V99Z" fill="#F2BC2B"/>
<rect opacity="0.4" y="61" width="21" height="20" fill="#F2BC2B"/>
<rect opacity="0.6" y="41" width="21" height="20" fill="#F2BC2B"/>
<rect opacity="0.8" y="21" width="21" height="20" fill="#F2BC2B"/>
<path d="M0 20C0 8.95431 8.95431 0 20 0H21V21H0V20Z" fill="#F2BC2B"/>
</svg>
