<svg width="217" height="71" viewBox="0 0 217 71" fill="none" xmlns="http://www.w3.org/2000/svg">
<path d="M89.1606 69.9748V66.4733H92.7162V42.2864H89.2668V38.8389H97.9169V58.6085L106.249 52.1443H102.746V48.6429H114.156V52.1443H111.343L103.224 58.6624L110.812 66.4733H114.315V69.9748H107.788L97.9169 59.5243V66.4733H101.048V69.9748H89.1606Z" fill="white"/>
<path d="M111.926 69.9748V66.4733H115.535V52.1443H111.926V48.6429H120.736V55.0532H119.94C120.399 53.3294 120.948 51.9827 121.585 51.0131C122.257 50.0435 123 49.3611 123.814 48.9661C124.627 48.5352 125.441 48.3197 126.255 48.3197C126.998 48.3197 127.705 48.4095 128.377 48.589C129.085 48.7686 129.775 49.02 130.447 49.3432L129.28 53.9759C128.678 53.5808 128.041 53.2935 127.369 53.114C126.732 52.8985 126.06 52.7908 125.352 52.7908C124.185 52.7908 123.124 53.2576 122.168 54.1913C121.249 55.1251 120.789 56.5077 120.789 58.3392L120.736 66.4733H124.238V69.9748H111.926Z" fill="white"/>
<path d="M133.896 70.5673C131.738 70.5673 130.005 69.9748 128.696 68.7897C127.422 67.5686 126.785 66.0603 126.785 64.2647C126.785 62.6128 127.174 61.302 127.953 60.3323C128.731 59.3627 129.757 58.6624 131.031 58.2315C132.304 57.8005 133.684 57.585 135.17 57.585C136.408 57.585 137.611 57.6928 138.779 57.9083C139.946 58.1237 141.043 58.3931 142.069 58.7163L140.583 58.9318V56.5077C140.583 54.9275 140.176 53.7604 139.362 53.0062C138.549 52.2521 137.417 51.875 135.966 51.875C134.975 51.875 133.843 52.0366 132.57 52.3598C131.331 52.683 130.093 53.1499 128.855 53.7604L127.475 50.5283C128.89 49.7023 130.412 49.0918 132.039 48.6968C133.702 48.3017 135.241 48.1042 136.656 48.1042C138.602 48.1042 140.247 48.4274 141.591 49.0738C142.971 49.7203 144.015 50.654 144.722 51.875C145.43 53.0601 145.784 54.4607 145.784 56.0767V66.4733H148.809V69.9748H141.326L140.742 66.8504L142.5 69.4899C141.226 70.7469 139.752 69.041 138.407 69.6515C137.098 70.2621 135.595 70.5673 133.896 70.5673ZM135.223 67.3352C136.355 67.3352 137.47 67.0838 138.566 66.5811C139.699 66.0783 140.848 65.2882 142.016 64.2108L140.583 66.204V60.2785L141.75 61.302C140.972 61.0147 140.088 60.7812 139.097 60.6017C138.106 60.4221 137.08 60.3323 136.019 60.3323C134.887 60.3323 133.861 60.5837 132.941 61.0865C132.057 61.5893 131.614 62.5409 131.614 63.9415C131.614 64.9111 131.933 65.7192 132.57 66.3656C133.207 67.012 134.091 67.3352 135.223 67.3352Z" fill="white"/>
<path d="M145.89 69.9748V66.4733H149.445V42.2864H145.996V38.8389H154.646V58.6085L162.978 52.1443H159.475V48.6429H170.885V52.1443H168.072L159.953 58.6624L167.541 66.4733H177.465V69.9748H164.517L154.646 59.5243V66.4733H157.777V69.9748H145.89Z" fill="white"/>
<path d="M180.808 70.5673C178.509 70.5673 176.457 70.1184 174.653 69.2206C172.848 68.2869 171.433 66.9761 170.407 65.2882C169.381 63.6003 168.868 61.6072 168.868 59.3088C168.868 57.0464 169.363 55.0712 170.354 53.3833C171.345 51.6954 172.671 50.4026 174.334 49.5048C176.032 48.5711 177.943 48.1042 180.065 48.1042C182.224 48.1042 184.081 48.5711 185.638 49.5048C187.194 50.4026 188.379 51.6775 189.193 53.3294C190.042 54.9814 190.467 56.9027 190.467 59.0934V60.3323H172.636L172.689 57.4773H185.425C185.425 56.2922 185.195 55.2687 184.735 54.4068C184.276 53.5449 183.639 52.8985 182.825 52.4676C182.011 52.0007 181.074 51.7673 180.012 51.7673C178.845 51.7673 177.801 52.0546 176.881 52.6292C175.997 53.2037 175.289 54.0118 174.759 55.0532C174.263 56.0947 174.016 57.3696 174.016 58.8779C174.016 60.458 174.299 61.8227 174.865 62.9719C175.466 64.1211 176.298 65.0009 177.359 65.6114C178.42 66.2219 179.641 66.5272 181.021 66.5272C182.507 66.5272 183.886 66.2399 185.16 65.6653C186.434 65.0907 187.548 64.3725 188.503 63.5106L190.148 66.7427C189.122 67.82 187.813 68.7358 186.221 69.4899C184.665 70.2082 182.86 70.5673 180.808 70.5673Z" fill="white"/>
<path d="M181.18 69.9748V66.4733H193.704V52.1443H190.095V48.6429H198.745L198.798 51.4979L197.153 51.8211C198.639 50.7438 200.125 49.8639 201.611 49.1816C203.097 48.4633 204.636 48.1042 206.228 48.1042C208.28 48.1042 209.96 48.7506 211.269 50.0435C212.578 51.3363 213.233 53.114 213.233 55.3764V66.4733H216.735V69.9748H204.954V66.4733H207.979V56.2922C207.979 54.9635 207.661 53.922 207.024 53.1678C206.387 52.4137 205.503 52.0366 204.371 52.0366C203.274 52.0366 202.142 52.288 200.974 52.7908C199.842 53.2935 198.639 53.9938 197.366 54.8916L198.958 52.6292V66.4733H202.195V69.9748H181.18Z" fill="white"/>
<path d="M107.415 36.7985C104.694 36.7985 102.183 36.4119 99.8837 35.6388C97.584 34.8271 95.5718 33.6867 93.847 32.2178C92.1606 30.7103 90.8383 28.8934 89.8801 26.7674C88.9602 24.6413 88.5002 22.2254 88.5002 19.5195C88.5002 15.9632 89.2668 12.8901 90.7999 10.3001C92.3714 7.67157 94.4794 5.66149 97.124 4.26989C99.807 2.83964 102.873 2.12451 106.323 2.12451C108.737 2.12451 110.845 2.49174 112.647 3.22619C114.487 3.96065 115.981 4.96569 117.131 6.24132C118.319 7.51695 119.124 9.02452 119.546 10.764L117.246 9.0825V2.70434H123.685V14.6489H118.166C117.17 12.7548 115.905 11.3245 114.372 10.3581C112.877 9.35309 110.999 8.85056 108.737 8.85056C106.629 8.85056 104.809 9.29511 103.276 10.1842C101.781 11.0733 100.612 12.3102 99.7687 13.8951C98.9638 15.4413 98.5613 17.2775 98.5613 19.4035C98.5613 21.027 98.7913 22.496 99.2513 23.8102C99.7112 25.0859 100.344 26.2069 101.148 27.1733C101.992 28.101 102.988 28.8161 104.138 29.3187C105.288 29.8212 106.572 30.0724 107.99 30.0724C109.561 30.0724 110.941 29.7825 112.129 29.2027C113.318 28.6229 114.314 27.7724 115.119 26.6514C115.924 25.4918 116.518 24.0808 116.901 22.4186L124.548 25.0859C124.011 27.4439 122.976 29.5119 121.443 31.2901C119.948 33.0296 118.013 34.3825 115.636 35.3489C113.298 36.3153 110.558 36.7985 107.415 36.7985Z" fill="#FEBD0F"/>
<path d="M129.435 36.8565C126.867 36.8565 124.624 36.354 122.708 35.3489C120.792 34.3052 119.297 32.8556 118.224 31.0002C117.15 29.1447 116.614 26.9993 116.614 24.564C116.614 22.1287 117.15 20.0027 118.224 18.1859C119.297 16.3691 120.792 14.9581 122.708 13.9531C124.624 12.9094 126.867 12.3875 129.435 12.3875C132.002 12.3875 134.245 12.9094 136.161 13.9531C138.077 14.9581 139.572 16.3691 140.645 18.1859C141.719 20.0027 142.255 22.1287 142.255 24.564C142.255 26.9993 141.719 29.1447 140.645 31.0002C139.572 32.8556 138.077 34.3052 136.161 35.3489C134.245 36.354 132.002 36.8565 129.435 36.8565ZM129.435 30.3624C130.431 30.3624 131.293 30.1304 132.022 29.6666C132.788 29.2027 133.363 28.5455 133.746 27.6951C134.13 26.806 134.321 25.7623 134.321 24.564C134.321 23.3657 134.13 22.3413 133.746 21.4909C133.363 20.6405 132.788 19.9833 132.022 19.5195C131.293 19.0556 130.431 18.8237 129.435 18.8237C128.4 18.8237 127.518 19.0556 126.79 19.5195C126.1 19.9833 125.544 20.6405 125.123 21.4909C124.739 22.3413 124.548 23.3657 124.548 24.564C124.548 25.7623 124.739 26.806 125.123 27.6951C125.544 28.5455 126.1 29.2027 126.79 29.6666C127.518 30.1304 128.4 30.3624 129.435 30.3624Z" fill="#FEBD0F"/>
<path d="M140.818 36.2187V31.1161H143.808V18.0699H140.76V13.0254H143.808V10.88C143.808 7.94216 144.651 5.62283 146.337 3.92199C148.024 2.22115 150.419 1.37073 153.524 1.37073C156.513 1.37073 158.775 2.0472 160.308 3.40014C161.879 4.71443 162.799 6.51191 163.067 8.79258L157.146 9.7783C157.107 8.7346 156.897 7.92283 156.513 7.343C156.168 6.72451 155.593 6.41527 154.788 6.41527C153.984 6.41527 153.37 6.74384 152.949 7.40099C152.527 8.01947 152.316 9.04384 152.316 10.4741V13.0254H160.193V10.0682C160.193 8.25141 160.576 6.62788 161.343 5.19762C162.109 3.76737 163.259 2.62703 164.792 1.77661C166.364 0.926188 168.357 0.500977 170.771 0.500977C172.764 0.500977 174.412 0.790894 175.716 1.37073C177.057 1.91191 178.111 2.72367 178.878 3.80602C179.644 4.84972 180.123 6.16401 180.315 7.74889L173.818 8.90855C173.78 7.86485 173.569 7.05309 173.186 6.47325C172.803 5.89342 172.189 5.60351 171.346 5.60351C170.503 5.60351 169.851 5.91275 169.391 6.53124C168.97 7.14972 168.759 8.27073 168.759 9.89427V13.0254H172.726V18.0699H168.759V31.1161H172.669V36.2187H157.031V31.1161H160.193V18.0699H152.316V31.1161H157.433V36.2187H140.818Z" fill="#FEBD0F"/>
<path d="M184.282 36.8565C181.637 36.8565 179.318 36.3733 177.325 35.4069C175.371 34.4405 173.838 33.0489 172.726 31.2321C171.614 29.3766 171.059 27.1733 171.059 24.622C171.059 22.1867 171.595 20.0607 172.669 18.2439C173.742 16.427 175.217 14.9968 177.095 13.9531C179.012 12.9094 181.196 12.3875 183.649 12.3875C186.064 12.3875 188.115 12.9094 189.801 13.9531C191.526 14.9581 192.829 16.3691 193.711 18.1859C194.63 19.964 195.09 22.0321 195.09 24.3901V25.9556H175.773L175.831 22.3027H187.214C187.214 21.3749 187.061 20.6018 186.754 19.9834C186.486 19.3262 186.064 18.8237 185.489 18.4758C184.914 18.1279 184.205 17.9539 183.362 17.9539C182.404 17.9539 181.599 18.2052 180.947 18.7077C180.296 19.1716 179.798 19.8674 179.453 20.7951C179.146 21.6842 178.993 22.7472 178.993 23.9842C178.993 25.4144 179.261 26.6128 179.798 27.5792C180.372 28.5069 181.139 29.222 182.097 29.7245C183.055 30.1884 184.167 30.4203 185.432 30.4203C186.812 30.4203 188.115 30.1884 189.341 29.7245C190.568 29.2607 191.641 28.6615 192.561 27.9271L194.918 33.0296C193.615 34.1892 192.062 35.117 190.261 35.8128C188.46 36.5086 186.467 36.8565 184.282 36.8565Z" fill="#FEBD0F"/>
<path d="M205.266 36.8565C202.622 36.8565 200.303 36.3733 198.31 35.4069C196.355 34.4405 194.822 33.0489 193.711 31.2321C192.599 29.3766 192.043 27.1733 192.043 24.622C192.043 22.1867 192.58 20.0607 193.653 18.2439C194.726 16.427 196.202 14.9968 198.08 13.9531C199.996 12.9094 202.181 12.3875 204.634 12.3875C207.049 12.3875 209.099 12.9094 210.786 13.9531C212.51 14.9581 213.814 16.3691 214.695 18.1859C215.615 19.964 216.075 22.0321 216.075 24.3901V25.9556H196.758L196.815 22.3027H208.199C208.199 21.3749 208.045 20.6018 207.739 19.9834C207.47 19.3262 207.049 18.8237 206.474 18.4758C205.899 18.1279 205.19 17.9539 204.347 17.9539C203.388 17.9539 202.584 18.2052 201.932 18.7077C201.28 19.1716 200.782 19.8674 200.437 20.7951C200.131 21.6842 199.977 22.7472 199.977 23.9842C199.977 25.4144 200.246 26.6128 200.782 27.5792C201.357 28.5069 202.124 29.222 203.082 29.7245C204.04 30.1884 205.152 30.4203 206.416 30.4203C207.796 30.4203 209.099 30.1884 210.326 29.7245C211.552 29.2607 212.625 28.6615 213.545 27.9271L215.903 33.0296C214.599 34.1892 213.047 35.117 211.246 35.8128C209.444 36.5086 207.451 36.8565 205.266 36.8565Z" fill="#FEBD0F"/>
<path fill-rule="evenodd" clip-rule="evenodd" d="M74 5H5V65H74V5ZM0 0V70H79V0H0Z" fill="white"/>
<mask id="mask0_1158_4882" style="mask-type:alpha" maskUnits="userSpaceOnUse" x="5" y="5" width="69" height="60">
<path d="M5 5H74V65H5V5Z" fill="white"/>
</mask>
<g mask="url(#mask0_1158_4882)">
<mask id="mask1_1158_4882" style="mask-type:alpha" maskUnits="userSpaceOnUse" x="16" y="4" width="51" height="72">
<path d="M29.826 29.3743C31.3714 28.6466 33.1256 28.4433 34.5074 28.4696C36.7556 28.5123 39.0484 29.1204 41.0345 30.0921C43.0205 31.0637 44.7113 32.4044 45.7204 33.9552C46.5762 35.2704 47.2219 37.2673 46.0979 39.21C49.4914 40.133 51.318 42.4321 52.1202 44.3106C53.0402 46.465 53.0867 48.9375 52.3956 51.2988C51.7044 53.6601 50.2853 55.8772 48.2546 57.5174C46.7735 58.7137 44.4814 59.938 41.6772 60.1357C41.9022 61.2317 41.868 62.3168 41.689 63.2797C41.2047 65.8849 39.5856 68.5227 37.2168 70.7697C34.848 73.0167 31.8306 74.777 28.6235 75.6733C28.1868 75.7953 27.725 75.9059 27.2441 75.9996L46.6123 66.6409C49.9046 66.255 53.4404 74.8205 59.8227 65.406C70.58 49.2368 67.592 41.9056 61.5964 35.196C57.0909 30.1538 42.1548 26.2749 33.1431 23.9346C30.1631 23.1607 27.8309 22.555 26.7379 22.1311C23.2195 20.7667 17.4617 14.7772 24.919 4.07422C10.3714 14.3319 17.8679 22.1212 21.3678 25.2955C22.4402 26.2681 24.9245 27.3114 27.921 28.5698C28.537 28.8285 29.1746 29.0962 29.826 29.3743Z" fill="white"/>
</mask>
<g mask="url(#mask1_1158_4882)">
<rect y="1" width="79" height="69" fill="white"/>
</g>
</g>
<mask id="mask2_1158_4882" style="mask-type:alpha" maskUnits="userSpaceOnUse" x="5" y="5" width="69" height="60">
<path d="M5 5H74V65H5V5Z" fill="white"/>
</mask>
<g mask="url(#mask2_1158_4882)">
<path d="M41.5604 37.703C40.4757 38.957 37.2848 38.8993 34.4334 37.5741C31.5819 36.2489 30.1498 34.1581 31.2346 32.904C32.3193 31.65 35.5102 31.7077 38.3616 33.0329C41.213 34.3581 42.6452 36.4489 41.5604 37.703Z" fill="#FEBD0F"/>
<path d="M40.0998 55.0598C37.3488 54.6044 35.9581 51.5108 36.9936 48.1501C38.029 44.7893 41.0986 42.4341 43.8496 42.8895C46.6007 43.3449 47.9914 46.4385 46.9559 49.7992C45.9204 53.16 42.8508 55.5152 40.0998 55.0598Z" fill="#FEBD0F"/>
<path d="M22.4447 61.0706C18.678 64.4649 17.8768 68.5594 20.6553 70.216C23.4338 71.8726 28.7397 70.4639 32.5065 67.0696C36.2733 63.6753 37.0744 59.5807 34.2959 57.9241C31.5175 56.2676 26.2115 57.6763 22.4447 61.0706Z" fill="#FEBD0F"/>
</g>
</svg>
