<svg width="1095" height="234" viewBox="0 0 1095 234" fill="none" xmlns="http://www.w3.org/2000/svg">
<path fill-rule="evenodd" clip-rule="evenodd" d="M227 152.773V144.939L287.68 97.8606H261.919V72.1078H329.439H345.836H394.231V101.606C396.165 96.9563 398.247 92.9343 400.476 89.5404C405.42 82.4089 410.884 77.3904 416.869 74.4849C422.854 71.3154 428.838 69.7306 434.823 69.7306C440.288 69.7306 445.492 70.3909 450.436 71.7116C455.078 72.8895 459.616 74.4877 464.051 76.5062C468.377 74.9429 472.816 73.6088 477.367 72.504C489.597 69.5985 500.916 68.1458 511.324 68.1458C525.636 68.1458 537.735 70.523 547.623 75.2773C557.771 80.0317 565.447 86.8991 570.651 95.8796C575.855 104.596 578.458 114.897 578.458 126.783V203.249H600.705V203.899L606.5 204.041V26.149L575.019 25.3566V0H638.639V145.404L699.917 97.8606H674.157V72.1078H758.074V97.8606H737.387L677.67 145.8L733.484 203.249H759.697C757.476 200.514 755.43 197.608 753.561 194.533C746.015 182.119 742.242 167.459 742.242 150.555C742.242 133.914 745.885 119.387 753.171 106.973C760.456 94.5589 770.214 85.0502 782.444 78.4469C794.934 71.5795 808.985 68.1458 824.597 68.1458C840.47 68.1458 854.131 71.5795 865.58 78.4469C877.029 85.0502 885.746 94.4268 891.731 106.577C897.976 118.727 901.098 132.858 901.098 148.97V158.082H780.745C781.652 165.285 783.519 171.756 786.347 177.496C790.77 185.948 796.885 192.42 804.691 196.91C812.498 201.4 821.475 203.645 831.623 203.645C831.72 203.645 831.817 203.645 831.914 203.645C832.056 203.644 832.199 203.643 832.341 203.642C842.996 203.551 852.905 201.439 862.067 197.306C871.434 193.08 879.631 187.797 886.656 181.458L897.807 203.364L924.907 203.249V97.8606H898.366V72.1078H961.986L962.27 87.3709C969.201 83.0196 976.132 79.2525 983.063 76.0697C993.992 70.7871 1005.31 68.1458 1017.02 68.1458C1032.11 68.1458 1044.47 72.9002 1054.1 82.4089C1063.73 91.9176 1068.54 104.992 1068.54 121.632V203.249H1094.3V229.002H1007.65V203.249H1029.9V128.368C1029.9 118.595 1027.56 110.935 1022.87 105.388C1018.19 99.8415 1011.69 97.0682 1003.36 97.0682C995.293 97.0682 986.966 98.9171 978.38 102.615C973.607 104.735 968.663 107.332 963.548 110.406V203.249H987.357V229.002L836.963 233.169C834.707 233.296 832.406 233.36 830.062 233.36C826.947 233.36 823.894 233.248 820.902 233.024L711.236 229.002L638.639 152.139V203.249H661.667V229.002H600.705H574.238H545.672L545.657 228.924C543.007 228.856 540.305 228.07 537.594 227.281C533.084 225.969 528.551 224.651 524.204 226.625C514.577 231.115 503.518 233.36 491.028 233.36C475.155 233.36 462.405 229.002 452.778 220.285C443.41 211.305 438.726 200.211 438.726 187.005C438.726 174.855 441.589 165.214 447.313 158.082C453.038 150.951 460.584 145.8 469.951 142.631C479.319 139.461 489.467 137.876 500.396 137.876C509.503 137.876 518.35 138.669 526.937 140.254C531.508 141.097 535.931 142.053 540.207 143.121V129.952C540.207 118.331 537.215 109.746 531.23 104.2C525.245 98.6529 516.919 95.8796 506.25 95.8796C498.964 95.8796 490.638 97.0682 481.27 99.4453C472.163 101.823 462.844 105.893 457.071 111.331C452.648 108.426 447.964 106.313 443.02 104.992C438.336 103.407 433.392 102.615 428.188 102.615C419.601 102.615 411.795 106.049 404.769 112.916C398.004 119.783 394.621 129.952 394.621 143.423L394.231 203.249H419.991V229.002H347.007H329.439H298.999L227 152.773ZM864.019 137.084H780.682C781.483 130.361 783.111 124.418 785.566 119.255C789.469 111.595 794.673 105.652 801.179 101.426C807.944 97.2002 815.62 95.0872 824.207 95.0872C832.013 95.0872 838.909 96.804 844.893 100.238C850.878 103.407 855.562 108.162 858.944 114.501C862.327 120.84 864.019 128.368 864.019 137.084ZM329.439 97.8606H325.15L265.432 145.8L321.247 203.249H329.439H347.007H355.98V97.8606H345.836H329.439ZM500.786 209.588C509.113 209.588 517.309 207.739 525.375 204.041C530.274 201.866 535.218 198.959 540.207 195.32V162.498C536.784 161.575 533.141 160.763 529.279 160.063C521.993 158.743 514.447 158.082 506.641 158.082C498.314 158.082 490.768 159.931 484.003 163.629C477.497 167.327 474.245 174.326 474.245 184.628C474.245 191.759 476.587 197.702 481.27 202.457C485.954 207.211 492.459 209.588 500.786 209.588Z" fill="white"/>
<path d="M31.5 55.3151V202.802H120V229H0V29H71V55.3151H31.5Z" fill="white"/>
<path d="M194.5 26.3151V202.802H156.5V229H227.5V0H156.5V26.3151H194.5Z" fill="white"/>
<path d="M98.298 167.658L98.298 164.62L101.954 164.62L101.954 154.899L105 154.899L105 139.101L101.954 139.101L101.954 129.684L98.298 129.684L98.298 126.038L95.5563 126.038L95.5563 123L72.0993 123L72.0993 126.038L65.702 126.038L65.702 129.684L62.6556 129.684L62.6556 139.101L59 139.101L59 154.899L62.6556 154.899L62.6556 164.62L69.053 164.62L69.053 167.658L72.0993 167.658L72.0993 171L95.5563 171L95.5563 167.658L98.298 167.658Z" fill="#FFBB01"/>
<path d="M163.298 126.342L163.298 129.38L166.954 129.38L166.954 139.101L170 139.101L170 154.899L166.954 154.899L166.954 164.316L163.298 164.316L163.298 167.962L160.556 167.962L160.556 171L137.099 171L137.099 167.962L130.702 167.962L130.702 164.316L127.656 164.316L127.656 154.899L124 154.899L124 139.101L127.656 139.101L127.656 129.38L134.053 129.38L134.053 126.342L137.099 126.342L137.099 123L160.556 123L160.556 126.342L163.298 126.342Z" fill="#FFBB01"/>
</svg>
