<svg width="64" height="64" viewBox="0 0 64 64" fill="none" xmlns="http://www.w3.org/2000/svg">
<g clip-path="url(#clip0_867_4939)">
<rect width="64" height="64" fill="white"/>
<path d="M53.065 4H24.1294C23.942 4 23.7583 4.05267 23.5994 4.152L19.7172 6.57836C19.5583 6.67769 19.3746 6.73036 19.1872 6.73036H13.7033C13.548 6.73036 13.3949 6.76651 13.2561 6.83594L10.2042 8.36187C9.52664 8.70065 9.09863 9.39318 9.09863 10.1507V17.0372C9.09863 17.755 9.4832 18.4176 10.1064 18.7737L12.6906 20.2504C12.8417 20.3368 13.0127 20.3822 13.1867 20.3822H19.0598C19.325 20.3822 19.5794 20.4875 19.7669 20.6751L23.5497 24.4579C23.7372 24.6454 23.9916 24.7508 24.2568 24.7508H33.218C33.7703 24.7508 34.218 25.1985 34.218 25.7508V30.8497C34.218 31.402 34.6657 31.8497 35.218 31.8497H38.7837C39.2932 31.8497 39.7213 32.2328 39.7775 32.7393L41.1935 45.4832C41.2594 46.0756 40.7957 46.5937 40.1997 46.5937H32.3167C32.1317 46.5937 31.9502 46.645 31.7926 46.742L25.4106 50.6694C25.1149 50.8514 24.9347 51.1738 24.9347 51.521V54.2455C24.9347 57.5592 27.621 60.2455 30.9347 60.2455H48.9687C52.2824 60.2455 54.9687 57.5592 54.9687 54.2455V47.5937C54.9687 47.0414 54.521 46.5937 53.9687 46.5937H52.0342C51.5277 46.5937 51.1011 46.2149 51.0413 45.7119L48.549 24.7768C48.4782 24.1819 48.9428 23.6586 49.542 23.6586H53.1253C53.2607 23.6586 53.3947 23.6311 53.5192 23.5778L57.0036 22.0844C57.1022 22.0422 57.2083 22.0204 57.3156 22.0204C59.9401 22.0204 62.0677 19.8928 62.0677 17.2683V10.8906C62.0677 8.2914 59.9606 6.18429 57.3613 6.18429C57.2248 6.18429 57.0907 6.14867 56.9722 6.08094L53.5611 4.13176C53.41 4.04542 53.239 4 53.065 4Z" stroke="black" stroke-width="4"/>
<path d="M51.6926 11.0989H46.7779M51.6926 17.1057H46.7779M29.3036 24.2047L28.2114 29.6654" stroke="black" stroke-width="3" stroke-linecap="round"/>
<path d="M38.0406 53.1465H33.126M47.3239 53.1465H37.4946" stroke="black" stroke-width="3" stroke-linecap="round"/>
<path d="M6.91465 13.2832H2" stroke="black" stroke-width="4" stroke-linecap="round"/>
</g>
<defs>
<clipPath id="clip0_867_4939">
<rect width="64" height="64" fill="white"/>
</clipPath>
</defs>
</svg>
