<svg width="65" height="65" viewBox="0 0 65 65" fill="none" xmlns="http://www.w3.org/2000/svg">
<path fill-rule="evenodd" clip-rule="evenodd" d="M65 0H0V65H65V0ZM27.334 53.1406L21.8555 37.6719H16.1133V59H20.5078V53.1699L20.0684 43.1211L25.8105 59H28.8281L34.585 43.1064L34.1455 53.1699V59H38.5547V37.6719H32.7832L27.334 53.1406ZM42.3926 37.6719V59H48.999C50.8643 58.9902 52.5391 58.5605 54.0234 57.7109C55.5078 56.8613 56.6553 55.665 57.4658 54.1221C58.2861 52.5791 58.6963 50.8164 58.6963 48.834V47.8525C58.6963 45.8701 58.2812 44.1025 57.4512 42.5498C56.6211 40.9873 55.4639 39.7861 53.9795 38.9463C52.5049 38.0967 50.8301 37.6719 48.9551 37.6719H42.3926ZM46.7871 55.4697V41.2314H48.9551C50.6836 41.2314 51.9971 41.793 52.8955 42.916C53.7939 44.0293 54.2432 45.6699 54.2432 47.8379V48.9658C54.2236 51.0557 53.7598 52.6621 52.8516 53.7852C51.9434 54.9082 50.6299 55.4697 48.9111 55.4697H46.7871Z" fill="black"/>
</svg>
