<svg width="64" height="64" viewBox="0 0 64 64" fill="none" xmlns="http://www.w3.org/2000/svg">
<path fill-rule="evenodd" clip-rule="evenodd" d="M64 0H0V64H64V0ZM24.8748 49.493C24.7204 51.611 23.9303 53.2783 22.5044 54.495C21.0875 55.7117 19.2166 56.32 16.8916 56.32C14.3486 56.32 12.346 55.4728 10.8837 53.7785C9.43057 52.0751 8.704 49.7409 8.704 46.7758V45.5726C8.704 43.68 9.04004 42.0127 9.71212 40.5707C10.3842 39.1287 11.3424 38.0247 12.5866 37.2586C13.84 36.4835 15.2931 36.096 16.9461 36.096C19.2348 36.096 21.0785 36.7043 22.4771 37.921C23.8758 39.1377 24.6841 40.8456 24.9021 43.0446H20.8151C20.7152 41.7739 20.3564 40.8546 19.7388 40.2868C19.1303 39.71 18.1994 39.4216 16.9461 39.4216C15.5837 39.4216 14.562 39.9083 13.8808 40.8816C13.2088 41.846 12.8636 43.3465 12.8455 45.3834V46.8704C12.8455 48.9974 13.1679 50.552 13.8127 51.5344C14.4666 52.5167 15.4929 53.0079 16.8916 53.0079C18.154 53.0079 19.094 52.724 19.7116 52.1562C20.3383 51.5794 20.697 50.6917 20.7878 49.493H24.8748ZM36.4491 50.8855C36.4491 50.1194 36.1767 49.5336 35.6317 49.128C35.0868 48.7135 34.1059 48.2809 32.6891 47.8302C31.2723 47.3706 30.1506 46.92 29.3242 46.4784C27.0718 45.2707 25.9456 43.644 25.9456 41.5981C25.9456 40.5346 26.2453 39.5883 26.8447 38.7592C27.4532 37.921 28.3206 37.2676 29.4468 36.799C30.582 36.3303 31.8535 36.096 33.2613 36.096C34.6781 36.096 35.9405 36.3529 37.0485 36.8666C38.1566 37.3713 39.0148 38.0878 39.6233 39.016C40.2409 39.9443 40.5497 40.9988 40.5497 42.1794H36.4627C36.4627 41.2782 36.1767 40.5797 35.6045 40.084C35.0323 39.5793 34.2285 39.327 33.1932 39.327C32.1941 39.327 31.4176 39.5388 30.8636 39.9624C30.3096 40.3769 30.0326 40.9267 30.0326 41.6116C30.0326 42.2515 30.355 42.7878 30.9998 43.2204C31.6537 43.653 32.6119 44.0585 33.8743 44.437C36.1994 45.131 37.8932 45.9917 38.9558 47.0191C40.0184 48.0465 40.5497 49.3263 40.5497 50.8584C40.5497 52.5618 39.9003 53.9002 38.6016 54.8735C37.3028 55.8378 35.5545 56.32 33.3566 56.32C31.8308 56.32 30.4413 56.0451 29.1879 55.4954C27.9346 54.9366 26.9764 54.175 26.3134 53.2107C25.6595 52.2464 25.3325 51.1288 25.3325 49.8581H29.4331C29.4331 52.0301 30.741 53.1161 33.3566 53.1161C34.3284 53.1161 35.0868 52.9223 35.6317 52.5348C36.1767 52.1382 36.4491 51.5885 36.4491 50.8855ZM51.402 49.128C51.9469 49.5336 52.2194 50.1194 52.2194 50.8855C52.2194 51.5885 51.9469 52.1382 51.402 52.5348C50.8571 52.9223 50.0987 53.1161 49.1269 53.1161C46.5113 53.1161 45.2034 52.0301 45.2034 49.8581H41.1028C41.1028 51.1288 41.4298 52.2464 42.0837 53.2107C42.7467 54.175 43.7049 54.9366 44.9582 55.4954C46.2115 56.0451 47.6011 56.32 49.1269 56.32C51.3248 56.32 53.0731 55.8378 54.3719 54.8735C55.6706 53.9002 56.32 52.5618 56.32 50.8584C56.32 49.3263 55.7887 48.0465 54.7261 47.0191C53.6635 45.9917 51.9696 45.131 49.6446 44.437C48.3822 44.0585 47.424 43.653 46.7701 43.2204C46.1253 42.7878 45.8028 42.2515 45.8028 41.6116C45.8028 40.9267 46.0799 40.3769 46.6339 39.9624C47.1879 39.5388 47.9644 39.327 48.9634 39.327C49.9988 39.327 50.8026 39.5793 51.3748 40.084C51.9469 40.5797 52.233 41.2782 52.233 42.1794H56.32C56.32 40.9988 56.0112 39.9443 55.3936 39.016C54.7851 38.0878 53.9269 37.3713 52.8188 36.8666C51.7108 36.3529 50.4484 36.096 49.0316 36.096C47.6238 36.096 46.3523 36.3303 45.2171 36.799C44.0909 37.2676 43.2235 37.921 42.615 38.7592C42.0156 39.5883 41.7159 40.5346 41.7159 41.5981C41.7159 43.644 42.8421 45.2707 45.0944 46.4784C45.9209 46.92 47.0426 47.3706 48.4594 47.8302C49.8762 48.2809 50.8571 48.7135 51.402 49.128Z" fill="black"/>
</svg>
