<svg width="232" height="232" viewBox="0 0 232 232" fill="none" xmlns="http://www.w3.org/2000/svg">
<path d="M0.71485 114.95L1.42969 0L231.33 1.4297L229.9 231.33L0 229.9" fill="#28AAE1"/>
<path d="M88.1672 185.332C87.5641 193.605 84.4776 200.118 78.9076 204.871C73.3732 209.624 66.0649 212 56.9827 212C47.0491 212 39.2264 208.691 33.5145 202.072C27.8382 195.418 25 186.3 25 174.718V170.018C25 162.625 26.3127 156.112 28.938 150.479C31.5633 144.846 35.3061 140.534 40.1665 137.541C45.0624 134.514 50.7387 133 57.1956 133C66.1358 133 73.3377 135.376 78.8012 140.129C84.2647 144.882 87.4222 151.553 88.2736 160.143H72.3089C71.9186 155.179 70.5173 151.588 68.1048 149.37C65.7279 147.117 62.0914 145.991 57.1956 145.991C51.874 145.991 47.8828 147.892 45.222 151.694C42.5967 155.461 41.2486 161.322 41.1776 169.279V175.088C41.1776 183.396 42.4371 189.469 44.9559 193.306C47.5103 197.143 51.5192 199.062 56.9827 199.062C61.9141 199.062 65.5859 197.953 67.9984 195.735C70.4463 193.482 71.8477 190.014 72.2025 185.332H88.1672Z" fill="white"/>
<path d="M133.379 190.771C133.379 187.779 132.315 185.491 130.186 183.906C128.058 182.287 124.226 180.597 118.692 178.837C113.157 177.041 108.776 175.281 105.547 173.556C96.7491 168.839 92.35 162.484 92.35 154.493C92.35 150.338 93.5207 146.642 95.8622 143.403C98.2392 140.129 101.627 137.577 106.026 135.746C110.461 133.915 115.428 133 120.927 133C126.461 133 131.393 134.003 135.721 136.01C140.049 137.982 143.402 140.78 145.779 144.406C148.191 148.033 149.397 152.152 149.397 156.763H133.433C133.433 153.243 132.315 150.514 130.08 148.578C127.845 146.607 124.705 145.621 120.661 145.621C116.758 145.621 113.725 146.448 111.561 148.103C109.397 149.722 108.315 151.87 108.315 154.545C108.315 157.045 109.574 159.14 112.093 160.83C114.647 162.519 118.39 164.104 123.322 165.582C132.404 168.293 139.02 171.655 143.171 175.668C147.322 179.682 149.397 184.681 149.397 190.666C149.397 197.32 146.861 202.547 141.787 206.35C136.714 210.117 129.885 212 121.299 212C115.339 212 109.911 210.926 105.015 208.779C100.119 206.596 96.3766 203.621 93.7868 199.854C91.2324 196.087 89.9553 191.722 89.9553 186.758H105.973C105.973 195.242 111.082 199.485 121.299 199.485C125.095 199.485 128.058 198.728 130.186 197.214C132.315 195.665 133.379 193.517 133.379 190.771Z" fill="white"/>
<path d="M194.982 190.771C194.982 187.779 193.918 185.491 191.789 183.906C189.66 182.287 185.829 180.597 180.294 178.837C174.76 177.041 170.379 175.281 167.15 173.556C158.352 168.839 153.953 162.484 153.953 154.493C153.953 150.338 155.123 146.642 157.465 143.403C159.842 140.129 163.23 137.577 167.629 135.746C172.064 133.915 177.031 133 182.53 133C188.064 133 192.995 134.003 197.324 136.01C201.652 137.982 205.004 140.78 207.381 144.406C209.794 148.033 211 152.152 211 156.763H195.035C195.035 153.243 193.918 150.514 191.683 148.578C189.448 146.607 186.308 145.621 182.263 145.621C178.361 145.621 175.328 146.448 173.164 148.103C170.999 149.722 169.917 151.87 169.917 154.545C169.917 157.045 171.177 159.14 173.696 160.83C176.25 162.519 179.993 164.104 184.924 165.582C194.006 168.293 200.623 171.655 204.774 175.668C208.925 179.682 211 184.681 211 190.666C211 197.32 208.463 202.547 203.39 206.35C198.317 210.117 191.488 212 182.902 212C176.942 212 171.514 210.926 166.618 208.779C161.722 206.596 157.979 203.621 155.389 199.854C152.835 196.087 151.558 191.722 151.558 186.758H167.576C167.576 195.242 172.685 199.485 182.902 199.485C186.698 199.485 189.66 198.728 191.789 197.214C193.918 195.665 194.982 193.517 194.982 190.771Z" fill="white"/>
</svg>
