<svg width="219" height="160" viewBox="0 0 219 160" fill="none" xmlns="http://www.w3.org/2000/svg">
<path d="M219 10C219 4.47716 214.523 -1.85218e-07 209 -4.13696e-07L10 -8.64625e-06C4.47717 -8.87473e-06 1.44587e-05 4.47714 1.39759e-05 9.99999L7.50138e-06 84.0596C7.01856e-06 89.5824 4.47716 94.0596 10 94.0596L12.0006 94.0596C17.3289 94.0596 21.7214 98.2375 21.9881 103.559L24.0839 145.386C24.3171 150.04 30.2287 151.873 33.0539 148.167L71.3018 97.9968C73.1933 95.5157 76.1344 94.0596 79.2543 94.0596L209 94.0596C214.523 94.0596 219 89.5824 219 84.0596L219 10Z" fill="#1C1F21"/>
<path d="M49.46 51.5635H53.8398C53.752 52.999 53.3564 54.2734 52.6533 55.3867C51.96 56.5 50.9883 57.3691 49.7383 57.9941C48.498 58.6191 47.0039 58.9316 45.2559 58.9316C43.8887 58.9316 42.6631 58.6973 41.5791 58.2285C40.4951 57.75 39.5674 57.0664 38.7959 56.1777C38.0342 55.2891 37.4531 54.2148 37.0527 52.9551C36.6523 51.6953 36.4521 50.2842 36.4521 48.7217V47.2422C36.4521 45.6797 36.6572 44.2686 37.0674 43.0088C37.4873 41.7393 38.083 40.6602 38.8545 39.7715C39.6357 38.8828 40.5684 38.1992 41.6523 37.7207C42.7363 37.2422 43.9473 37.0029 45.2852 37.0029C47.0625 37.0029 48.5615 37.3252 49.7822 37.9697C51.0127 38.6143 51.9648 39.5029 52.6387 40.6357C53.3223 41.7686 53.7324 43.0576 53.8691 44.5029H49.4746C49.4258 43.6436 49.2549 42.916 48.9619 42.3203C48.6689 41.7148 48.2246 41.2607 47.6289 40.958C47.043 40.6455 46.2617 40.4893 45.2852 40.4893C44.5527 40.4893 43.9131 40.626 43.3662 40.8994C42.8193 41.1729 42.3604 41.5879 41.9893 42.1445C41.6182 42.7012 41.3398 43.4043 41.1543 44.2539C40.9785 45.0938 40.8906 46.0801 40.8906 47.2129V48.7217C40.8906 49.8252 40.9736 50.7969 41.1396 51.6367C41.3057 52.4668 41.5596 53.1699 41.9014 53.7461C42.2529 54.3125 42.7021 54.7422 43.249 55.0352C43.8057 55.3184 44.4746 55.46 45.2559 55.46C46.1738 55.46 46.9307 55.3135 47.5264 55.0205C48.1221 54.7275 48.5762 54.293 48.8887 53.7168C49.2109 53.1406 49.4014 52.4229 49.46 51.5635Z" fill="white"/>
<path d="M65.0166 55.0645V48.0039C65.0166 47.4961 64.9336 47.0615 64.7676 46.7002C64.6016 46.3291 64.3428 46.041 63.9912 45.8359C63.6494 45.6309 63.2051 45.5283 62.6582 45.5283C62.1895 45.5283 61.7842 45.6113 61.4424 45.7773C61.1006 45.9336 60.8369 46.1631 60.6514 46.4658C60.4658 46.7588 60.373 47.1055 60.373 47.5059H56.1543C56.1543 46.832 56.3105 46.1924 56.623 45.5869C56.9355 44.9814 57.3896 44.4492 57.9854 43.9902C58.5811 43.5215 59.2891 43.1553 60.1094 42.8916C60.9395 42.6279 61.8672 42.4961 62.8926 42.4961C64.123 42.4961 65.2168 42.7012 66.1738 43.1113C67.1309 43.5215 67.8828 44.1367 68.4297 44.957C68.9863 45.7773 69.2646 46.8027 69.2646 48.0332V54.8154C69.2646 55.6846 69.3184 56.3975 69.4258 56.9541C69.5332 57.501 69.6895 57.9795 69.8945 58.3896V58.6387H65.6318C65.4268 58.209 65.2705 57.6719 65.1631 57.0273C65.0654 56.373 65.0166 55.7188 65.0166 55.0645ZM65.5732 48.9854L65.6025 51.373H63.2441C62.6875 51.373 62.2041 51.4365 61.7939 51.5635C61.3838 51.6904 61.0469 51.8711 60.7832 52.1055C60.5195 52.3301 60.3242 52.5938 60.1973 52.8965C60.0801 53.1992 60.0215 53.5312 60.0215 53.8926C60.0215 54.2539 60.1045 54.5811 60.2705 54.874C60.4365 55.1572 60.6758 55.3818 60.9883 55.5479C61.3008 55.7041 61.667 55.7822 62.0869 55.7822C62.7217 55.7822 63.2734 55.6553 63.7422 55.4014C64.2109 55.1475 64.5723 54.835 64.8262 54.4639C65.0898 54.0928 65.2266 53.7412 65.2363 53.4092L66.3496 55.1963C66.1934 55.5967 65.9785 56.0117 65.7051 56.4414C65.4414 56.8711 65.1045 57.2764 64.6943 57.6572C64.2842 58.0283 63.791 58.3359 63.2148 58.5801C62.6387 58.8145 61.9551 58.9316 61.1641 58.9316C60.1582 58.9316 59.2451 58.7314 58.4248 58.3311C57.6143 57.9209 56.9697 57.3594 56.4912 56.6465C56.0225 55.9238 55.7881 55.1035 55.7881 54.1855C55.7881 53.3555 55.9443 52.6182 56.2568 51.9736C56.5693 51.3291 57.0283 50.7871 57.6338 50.3477C58.249 49.8984 59.0156 49.5615 59.9336 49.3369C60.8516 49.1025 61.916 48.9854 63.127 48.9854H65.5732Z" fill="white"/>
<path d="M76.6475 46.1729V58.6387H72.4287V42.7891H76.3838L76.6475 46.1729ZM76.0322 50.1572H74.8896C74.8896 48.9854 75.041 47.9307 75.3438 46.9932C75.6465 46.0459 76.0713 45.2402 76.6182 44.5762C77.165 43.9023 77.8145 43.3896 78.5664 43.0381C79.3281 42.6768 80.1777 42.4961 81.1152 42.4961C81.8574 42.4961 82.5361 42.6035 83.1514 42.8184C83.7666 43.0332 84.2939 43.375 84.7334 43.8438C85.1826 44.3125 85.5244 44.9326 85.7588 45.7041C86.0029 46.4756 86.125 47.418 86.125 48.5312V58.6387H81.877V48.5166C81.877 47.8135 81.7793 47.2666 81.584 46.876C81.3887 46.4854 81.1006 46.2119 80.7197 46.0557C80.3486 45.8896 79.8896 45.8066 79.3428 45.8066C78.7764 45.8066 78.2832 45.9189 77.8633 46.1436C77.4531 46.3682 77.1113 46.6807 76.8379 47.0811C76.5742 47.4717 76.374 47.9307 76.2373 48.458C76.1006 48.9854 76.0322 49.5518 76.0322 50.1572Z" fill="white"/>
<path d="M101.74 37.3105V58.6387H97.3604V37.3105H101.74Z" fill="white"/>
<path d="M117.18 36.1387V58.6387H112.961V36.1387H117.18ZM116.579 50.1572H115.422C115.432 49.0537 115.578 48.0381 115.861 47.1104C116.145 46.1729 116.55 45.3623 117.077 44.6787C117.604 43.9854 118.234 43.4482 118.967 43.0674C119.709 42.6865 120.529 42.4961 121.428 42.4961C122.209 42.4961 122.917 42.6084 123.552 42.833C124.196 43.0479 124.748 43.3994 125.207 43.8877C125.676 44.3662 126.037 44.9961 126.291 45.7773C126.545 46.5586 126.672 47.5059 126.672 48.6191V58.6387H122.424V48.5898C122.424 47.8867 122.321 47.335 122.116 46.9346C121.921 46.5244 121.633 46.2363 121.252 46.0703C120.881 45.8945 120.422 45.8066 119.875 45.8066C119.27 45.8066 118.752 45.9189 118.322 46.1436C117.902 46.3682 117.565 46.6807 117.312 47.0811C117.058 47.4717 116.872 47.9307 116.755 48.458C116.638 48.9854 116.579 49.5518 116.579 50.1572Z" fill="white"/>
<path d="M137.175 58.9316C135.944 58.9316 134.841 58.7363 133.864 58.3457C132.888 57.9453 132.058 57.3936 131.374 56.6904C130.7 55.9873 130.183 55.1719 129.821 54.2441C129.46 53.3066 129.279 52.3105 129.279 51.2559V50.6699C129.279 49.4688 129.45 48.3701 129.792 47.374C130.134 46.3779 130.622 45.5137 131.257 44.7812C131.901 44.0488 132.683 43.4873 133.601 43.0967C134.519 42.6963 135.554 42.4961 136.706 42.4961C137.829 42.4961 138.825 42.6816 139.694 43.0527C140.563 43.4238 141.291 43.9512 141.877 44.6348C142.473 45.3184 142.922 46.1387 143.225 47.0957C143.527 48.043 143.679 49.0977 143.679 50.2598V52.0176H131.081V49.2051H139.533V48.8828C139.533 48.2969 139.426 47.7744 139.211 47.3154C139.006 46.8467 138.693 46.4756 138.273 46.2021C137.854 45.9287 137.316 45.792 136.662 45.792C136.105 45.792 135.627 45.9141 135.227 46.1582C134.826 46.4023 134.499 46.7441 134.245 47.1836C134.001 47.623 133.815 48.1406 133.688 48.7363C133.571 49.3223 133.513 49.9668 133.513 50.6699V51.2559C133.513 51.8906 133.601 52.4766 133.776 53.0137C133.962 53.5508 134.221 54.0146 134.553 54.4053C134.895 54.7959 135.305 55.0986 135.783 55.3135C136.271 55.5283 136.823 55.6357 137.438 55.6357C138.2 55.6357 138.908 55.4893 139.562 55.1963C140.227 54.8936 140.798 54.4395 141.276 53.834L143.327 56.0605C142.995 56.5391 142.541 56.998 141.965 57.4375C141.398 57.877 140.715 58.2383 139.914 58.5215C139.113 58.7949 138.2 58.9316 137.175 58.9316Z" fill="white"/>
<path d="M150.534 36.1387V58.6387H146.301V36.1387H150.534Z" fill="white"/>
<path d="M158.239 45.8359V64.7324H154.021V42.7891H157.932L158.239 45.8359ZM168.273 50.5381V50.8457C168.273 51.998 168.137 53.0674 167.863 54.0537C167.6 55.04 167.209 55.8994 166.691 56.6318C166.174 57.3545 165.529 57.9209 164.758 58.3311C163.996 58.7314 163.117 58.9316 162.121 58.9316C161.154 58.9316 160.314 58.7363 159.602 58.3457C158.889 57.9551 158.288 57.4082 157.8 56.7051C157.321 55.9922 156.936 55.167 156.643 54.2295C156.35 53.292 156.125 52.2861 155.969 51.2119V50.4062C156.125 49.2539 156.35 48.1992 156.643 47.2422C156.936 46.2754 157.321 45.4404 157.8 44.7373C158.288 44.0244 158.884 43.4727 159.587 43.082C160.3 42.6914 161.135 42.4961 162.092 42.4961C163.098 42.4961 163.981 42.6865 164.743 43.0674C165.515 43.4482 166.159 43.9951 166.677 44.708C167.204 45.4209 167.6 46.2705 167.863 47.2568C168.137 48.2432 168.273 49.3369 168.273 50.5381ZM164.04 50.8457V50.5381C164.04 49.8643 163.981 49.2441 163.864 48.6777C163.757 48.1016 163.581 47.5986 163.337 47.1689C163.103 46.7393 162.79 46.4072 162.399 46.1729C162.019 45.9287 161.555 45.8066 161.008 45.8066C160.432 45.8066 159.938 45.8994 159.528 46.085C159.128 46.2705 158.801 46.5391 158.547 46.8906C158.293 47.2422 158.103 47.6621 157.976 48.1504C157.849 48.6387 157.771 49.1904 157.741 49.8057V51.8418C157.79 52.5645 157.927 53.2139 158.151 53.79C158.376 54.3564 158.723 54.8057 159.191 55.1377C159.66 55.4697 160.275 55.6357 161.037 55.6357C161.594 55.6357 162.062 55.5137 162.443 55.2695C162.824 55.0156 163.132 54.6689 163.366 54.2295C163.61 53.79 163.781 53.2822 163.879 52.7061C163.986 52.1299 164.04 51.5098 164.04 50.8457Z" fill="white"/>
<path d="M178.088 52.1201H174.353C174.362 51.2412 174.431 50.4844 174.558 49.8496C174.694 49.2051 174.924 48.624 175.246 48.1064C175.578 47.5889 176.018 47.0762 176.564 46.5684C177.023 46.1582 177.424 45.7676 177.766 45.3965C178.107 45.0254 178.376 44.6445 178.571 44.2539C178.767 43.8535 178.864 43.4092 178.864 42.9209C178.864 42.3545 178.776 41.8857 178.601 41.5146C178.435 41.1338 178.181 40.8457 177.839 40.6504C177.507 40.4551 177.087 40.3574 176.579 40.3574C176.159 40.3574 175.769 40.4502 175.407 40.6357C175.046 40.8115 174.748 41.085 174.514 41.4561C174.289 41.8271 174.172 42.3154 174.162 42.9209H169.914C169.943 41.583 170.251 40.4795 170.837 39.6104C171.433 38.7314 172.229 38.082 173.225 37.6621C174.221 37.2324 175.339 37.0176 176.579 37.0176C177.946 37.0176 179.118 37.2422 180.095 37.6914C181.071 38.1309 181.818 38.7803 182.336 39.6396C182.854 40.4893 183.112 41.5244 183.112 42.7451C183.112 43.5947 182.946 44.3516 182.614 45.0156C182.282 45.6699 181.848 46.2803 181.311 46.8467C180.773 47.4131 180.183 47.999 179.538 48.6045C178.981 49.1025 178.601 49.625 178.396 50.1719C178.2 50.7188 178.098 51.3682 178.088 52.1201ZM173.913 56.6465C173.913 56.0215 174.128 55.5039 174.558 55.0938C174.987 54.6738 175.563 54.4639 176.286 54.4639C176.999 54.4639 177.57 54.6738 178 55.0938C178.439 55.5039 178.659 56.0215 178.659 56.6465C178.659 57.252 178.439 57.7646 178 58.1846C177.57 58.6045 176.999 58.8145 176.286 58.8145C175.563 58.8145 174.987 58.6045 174.558 58.1846C174.128 57.7646 173.913 57.252 173.913 56.6465Z" fill="white"/>
</svg>
