<svg width="64" height="64" viewBox="0 0 64 64" fill="none" xmlns="http://www.w3.org/2000/svg">
<circle cx="32" cy="32" r="6" stroke="black" stroke-width="4"/>
<path fill-rule="evenodd" clip-rule="evenodd" d="M39.2949 10.2141C35.606 13.8263 34.4524 18.8613 34.1265 24.848C34.0664 25.9509 33.1236 26.7963 32.0207 26.7363C30.9178 26.6762 30.0723 25.7335 30.1324 24.6305C30.472 18.3918 31.6955 12.0571 36.4964 7.35611C41.2895 2.66269 49.228 0 62 0C63.1046 0 64 0.89543 64 2C64 3.10457 63.1046 4 62 4C49.6556 4 42.9917 6.59424 39.2949 10.2141ZM31.9791 37.2737C33.082 37.3339 33.9273 38.2768 33.8671 39.3798C33.5265 45.6168 32.3012 51.9488 27.4997 56.6477C22.7062 61.3388 14.7685 64 2 64C0.89543 64 0 63.1046 0 62C0 60.8954 0.89543 60 2 60C14.341 60 21.0047 57.4072 24.702 53.7889C28.3913 50.1784 29.5463 45.1458 29.873 39.1617C29.9332 38.0588 30.8762 37.2135 31.9791 37.2737Z" fill="black"/>
</svg>
