<svg width="64" height="64" viewBox="0 0 64 64" fill="none" xmlns="http://www.w3.org/2000/svg">
<path fill-rule="evenodd" clip-rule="evenodd" d="M0 8C0 3.58172 3.58172 0 8 0H42C54.1503 0 64 9.84974 64 22V32C64 49.6731 49.6731 64 32 64C30.8954 64 30 63.1046 30 62C30 60.8954 30.8954 60 32 60C47.464 60 60 47.464 60 32V22C60 12.0589 51.9411 4 42 4H8C5.79086 4 4 5.79086 4 8V32C4 33.1046 3.10457 34 2 34C0.89543 34 0 33.1046 0 32V8Z" fill="black"/>
<path fill-rule="evenodd" clip-rule="evenodd" d="M16 20C16 18.8954 16.8954 18 18 18C31.8071 18 43 29.1929 43 43C43 44.1046 42.1046 45 41 45C39.8954 45 39 44.1046 39 43C39 31.402 29.598 22 18 22C16.8954 22 16 21.1046 16 20Z" fill="black"/>
</svg>
