<svg width="64" height="64" viewBox="0 0 64 64" fill="none" xmlns="http://www.w3.org/2000/svg">
<path d="M40.1 5.33333V18.6667H53.6V58.6667H10.4V5.33333H40.1ZM42.8 0H5V64H59V16L42.8 0Z" fill="black"/>
<path d="M18.8545 37L23.4861 50.0549L28.0929 37H32.9721V55H29.2446V50.0797L29.6161 41.5865L24.7492 55H22.1981L17.3437 41.5989L17.7152 50.0797V55H14V37H18.8545Z" fill="black"/>
<path d="M36.2167 55V37H41.7647C43.3498 37 44.7657 37.3585 46.0124 38.0755C47.2673 38.7843 48.2456 39.7981 48.9474 41.1168C49.6491 42.4272 50 43.919 50 45.592V46.4203C50 48.0934 49.6533 49.581 48.9598 50.8832C48.2745 52.1854 47.3044 53.1951 46.0495 53.9121C44.7946 54.6291 43.3787 54.9918 41.8019 55H36.2167ZM39.9319 40.0041V52.0206H41.7276C43.1806 52.0206 44.291 51.5467 45.0588 50.5989C45.8266 49.6511 46.2188 48.2953 46.2353 46.5316V45.5797C46.2353 43.75 45.8555 42.3654 45.096 41.4258C44.3364 40.478 43.226 40.0041 41.7647 40.0041H39.9319Z" fill="black"/>
</svg>
