<svg width="64" height="64" viewBox="0 0 64 64" fill="none" xmlns="http://www.w3.org/2000/svg">
<path fill-rule="evenodd" clip-rule="evenodd" d="M40.1 18.6667V5.33333H10.4V58.6667H53.6V18.6667H40.1ZM5 0H42.8L59 16V64H5V0ZM44.6279 47.5C45.2139 47.9395 45.5068 48.5742 45.5068 49.4043C45.5068 50.166 45.2139 50.7617 44.6279 51.1914C44.042 51.6113 43.2266 51.8213 42.1816 51.8213C39.3691 51.8213 37.9629 50.6445 37.9629 48.291H33.5537C33.5537 49.668 33.9053 50.8789 34.6084 51.9238C35.3213 52.9688 36.3516 53.7939 37.6992 54.3994C39.0469 54.9951 40.541 55.293 42.1816 55.293C44.5449 55.293 46.4248 54.7705 47.8213 53.7256C49.2178 52.6709 49.916 51.2207 49.916 49.375C49.916 47.7148 49.3447 46.3281 48.2021 45.2148C47.0596 44.1016 45.2383 43.1689 42.7383 42.417C41.3809 42.0068 40.3506 41.5674 39.6475 41.0986C38.9541 40.6299 38.6074 40.0488 38.6074 39.3555C38.6074 38.6133 38.9053 38.0176 39.501 37.5684C40.0967 37.1094 40.9316 36.8799 42.0059 36.8799C43.1191 36.8799 43.9834 37.1533 44.5986 37.7002C45.2139 38.2373 45.5215 38.9941 45.5215 39.9707H49.916C49.916 38.6914 49.584 37.5488 48.9199 36.543C48.2656 35.5371 47.3428 34.7607 46.1514 34.2139C44.96 33.6572 43.6025 33.3789 42.0791 33.3789C40.5654 33.3789 39.1982 33.6328 37.9775 34.1406C36.7666 34.6484 35.834 35.3564 35.1797 36.2646C34.5352 37.1631 34.2129 38.1885 34.2129 39.3408C34.2129 41.5576 35.4238 43.3203 37.8457 44.6289C38.7344 45.1074 39.9404 45.5957 41.4639 46.0938C42.9873 46.582 44.042 47.0508 44.6279 47.5ZM30.6826 33.6719H26.2881V48.4375C26.2881 49.502 26.0391 50.3223 25.541 50.8984C25.043 51.4746 24.374 51.7627 23.5342 51.7627C22.5869 51.7627 21.8936 51.5137 21.4541 51.0156C21.0146 50.5176 20.7949 49.7461 20.7949 48.7012H16.3711C16.3711 50.8008 17.001 52.4268 18.2607 53.5791C19.5205 54.7217 21.2783 55.293 23.5342 55.293C24.9111 55.293 26.1465 55.0098 27.2402 54.4434C28.334 53.877 29.1787 53.0762 29.7744 52.041C30.3799 50.9961 30.6826 49.7949 30.6826 48.4375V33.6719Z" fill="black"/>
</svg>
