<svg width="64" height="64" viewBox="0 0 64 64" fill="none" xmlns="http://www.w3.org/2000/svg">
<path fill-rule="evenodd" clip-rule="evenodd" d="M64 0H0V64H64V0ZM31.495 58.624H36.37V34.964H31.5113V50.564L22.005 34.964H17.13V58.624H22.005V43.0565L31.495 58.624ZM40.6275 34.964V58.624H47.9563C50.0254 58.6132 51.8833 58.1365 53.53 57.194C55.1767 56.2515 56.4496 54.9244 57.3488 53.2128C58.2588 51.5011 58.7138 49.5457 58.7138 47.3465V46.2578C58.7138 44.0586 58.2533 42.0978 57.3325 40.3753C56.4117 38.6419 55.1279 37.3094 53.4813 36.3778C51.8454 35.4353 49.9875 34.964 47.9075 34.964H40.6275ZM45.5025 54.7078V38.9128H47.9075C49.825 38.9128 51.2821 39.5357 52.2788 40.7815C53.2754 42.0165 53.7738 43.8365 53.7738 46.2415V47.4928C53.7521 49.8111 53.2375 51.5932 52.23 52.839C51.2225 54.0848 49.7654 54.7078 47.8588 54.7078H45.5025Z" fill="black"/>
</svg>
