<svg width="64" height="64" viewBox="0 0 64 64" fill="none" xmlns="http://www.w3.org/2000/svg">
<g clip-path="url(#clip0_1326_4924)">
<path fill-rule="evenodd" clip-rule="evenodd" d="M27.3442 6.25951C35.7225 -2.11882 49.3065 -2.11881 57.6848 6.25952C66.0631 14.6378 66.0631 28.2218 57.6848 36.6001L53.1692 41.1157L52.5327 40.492C49.4292 37.4503 44.4476 37.5005 41.4059 40.604C38.3643 43.7075 38.4144 48.6892 41.518 51.7308L42.0412 52.2437L36.5794 57.7055C28.2011 66.0838 14.6172 66.0838 6.23883 57.7055C-2.1395 49.3272 -2.1395 35.7432 6.23883 27.3649L11.9187 21.685L12.8227 22.5709C15.9262 25.6125 20.9079 25.5624 23.9495 22.4589C26.9912 19.3553 26.941 14.3737 23.8375 11.332L23.0467 10.557L27.3442 6.25951ZM40.729 29.2681L48.2765 21.7206C49.8932 20.104 49.8932 17.4828 48.2765 15.8662C46.6599 14.2495 44.0387 14.2495 42.4221 15.8662L34.8746 23.4137C33.2579 25.0303 33.2579 27.6514 34.8746 29.2681C36.4913 30.8848 39.1124 30.8848 40.729 29.2681ZM22.107 47.7413L29.6581 40.1902C31.2747 38.5736 31.2747 35.9524 29.6581 34.3358C28.0414 32.7191 25.4203 32.7191 23.8036 34.3358L16.2525 41.8869C14.6359 43.5036 14.6359 46.1247 16.2525 47.7413C17.8692 49.358 20.4903 49.358 22.107 47.7413Z" fill="black"/>
<path d="M45.0182 48.1599C43.8869 47.0511 43.8686 45.2351 44.9774 44.1037C46.0862 42.9724 47.9021 42.9541 49.0335 44.0629L56.0511 50.9406C57.1825 52.0494 57.2008 53.8654 56.092 54.9967C54.9832 56.1281 53.1672 56.1464 52.0358 55.0376L45.0182 48.1599Z" fill="black"/>
<path d="M9.30435 12.1222C8.173 11.0134 8.15471 9.19742 9.2635 8.06608C10.3723 6.93473 12.1883 6.91644 13.3196 8.02523L20.3373 14.9029C21.4686 16.0117 21.4869 17.8277 20.3781 18.9591C19.2693 20.0904 17.4533 20.1087 16.322 18.9999L9.30435 12.1222Z" fill="black"/>
</g>
<defs>
<clipPath id="clip0_1326_4924">
<rect width="64" height="64" fill="white"/>
</clipPath>
</defs>
</svg>
