<svg width="64" height="64" viewBox="0 0 64 64" fill="none" xmlns="http://www.w3.org/2000/svg">
<path d="M33.956 9.92661C33.956 8.86257 34.8185 8 35.8826 8H40.3138C41.3778 8 42.2404 8.86257 42.2404 9.92661V11.8532H43.2037C44.2677 11.8532 45.1303 12.7158 45.1303 13.7798V25.2752C45.1303 26.3393 44.2677 27.2018 43.2037 27.2018H21.0477C19.9837 27.2018 19.1211 26.3393 19.1211 25.2752V13.7798C19.1211 12.7158 19.9837 11.8532 21.0477 11.8532H21.4972V9.92661C21.4972 8.86257 22.3598 8 23.4238 8H27.855C28.9191 8 29.7816 8.86257 29.7816 9.92661V11.8532H33.956V9.92661Z" fill="black"/>
<path fill-rule="evenodd" clip-rule="evenodd" d="M42.1742 25.9163V26.8165H42.8938L43.2018 27.2019L32.2841 27.2019C32.6061 26.9599 33.0065 26.8165 33.4403 26.8165H33.8898V24.8899C33.8898 23.8259 34.7524 22.9633 35.8164 22.9633H39.8138L42.1742 25.9163ZM31.5137 29.1285H43.2018C45.3298 29.1285 47.055 27.4034 47.055 25.2753V23.3989C47.3872 23.1267 47.8121 22.9633 48.2751 22.9633H52.7063C53.7704 22.9633 54.6329 23.8259 54.6329 24.8899V26.8165H55.5962C56.6603 26.8165 57.5228 27.6791 57.5228 28.7431V40.2385C57.5228 41.3026 56.6603 42.1652 55.5962 42.1652H33.4403C32.3763 42.1652 31.5137 41.3026 31.5137 40.2385V29.1285Z" fill="black"/>
<path fill-rule="evenodd" clip-rule="evenodd" d="M43.9339 42.1651C43.9339 42.1651 43.9339 42.1651 43.9339 42.1651H33.4402C32.5674 42.1651 31.8301 41.5847 31.5933 40.7888C31.8301 41.5847 32.5674 42.1651 33.4402 42.1651H43.9339ZM29.587 39.74V40.2385C29.587 42.3666 31.3121 44.0918 33.4402 44.0918H44.5506V55.0733C44.5506 56.1374 43.688 56.9999 42.624 56.9999H8.202C7.13796 56.9999 6.27539 56.1374 6.27539 55.0733V43.5779C6.27539 42.5139 7.13796 41.6513 8.202 41.6513H8.65154V39.7247C8.65154 38.6607 9.51411 37.7981 10.5781 37.7981H15.0093C16.0734 37.7981 16.9359 38.6607 16.9359 39.7247V41.6513H21.1103V39.7247C21.1103 38.6607 21.9728 37.7981 23.0369 37.7981H27.468C28.5321 37.7981 29.5552 38.6607 29.5552 39.7247L29.587 39.74Z" fill="black"/>
</svg>
