<svg width="64" height="64" viewBox="0 0 64 64" fill="none" xmlns="http://www.w3.org/2000/svg">
<path fill-rule="evenodd" clip-rule="evenodd" d="M7.05985 7.53119C3.71309 7.53119 1 10.2443 1 13.591V48.9402C1 52.2869 3.71309 55 7.05985 55H56.9401C60.2869 55 63 52.2869 63 48.9402V13.591C63 10.2443 60.2869 7.53119 56.9401 7.53119H7.05985ZM39.3598 24.1078C39.1655 23.9182 38.8555 23.9182 38.6613 24.1078L28.0683 34.4469C26.7594 35.7244 24.6878 35.7788 23.3137 34.5718L21.766 33.2122C21.5734 33.0431 21.2841 33.0469 21.0961 33.2212L14.4693 39.3658C14.3672 39.4604 14.3092 39.5933 14.3092 39.7325V41.8903C14.3092 42.1664 14.5331 42.3903 14.8092 42.3903H48.1783C48.4545 42.3903 48.6783 42.1664 48.6783 41.8903V33.4136C48.6783 33.2789 48.624 33.1499 48.5276 33.0558L39.3598 24.1078ZM36.5659 21.9609C37.9255 20.6338 40.0956 20.6338 41.4552 21.9609L50.623 30.9089C51.2978 31.5676 51.6783 32.4707 51.6783 33.4136V41.8903C51.6783 43.8233 50.1113 45.3903 48.1783 45.3903H14.8092C12.8763 45.3903 11.3092 43.8233 11.3092 41.8903V39.7325C11.3092 38.7584 11.7152 37.8283 12.4295 37.166L19.0563 31.0214C20.3722 29.8013 22.3977 29.774 23.7459 30.9583L25.2936 32.3179C25.4899 32.4903 25.7858 32.4825 25.9728 32.3L36.5659 21.9609ZM19.399 22.6808C19.399 24.0891 18.2574 25.2307 16.8491 25.2307C15.4409 25.2307 14.2993 24.0891 14.2993 22.6808C14.2993 21.2726 15.4409 20.1309 16.8491 20.1309C18.2574 20.1309 19.399 21.2726 19.399 22.6808ZM21.899 22.6808C21.899 25.4698 19.6381 27.7307 16.8491 27.7307C14.0602 27.7307 11.7993 25.4698 11.7993 22.6808C11.7993 19.8919 14.0602 17.6309 16.8491 17.6309C19.6381 17.6309 21.899 19.8919 21.899 22.6808Z" fill="black"/>
</svg>
