<svg width="64" height="64" viewBox="0 0 64 64" fill="none" xmlns="http://www.w3.org/2000/svg">
<g clip-path="url(#clip0_882_5034)">
<path fill-rule="evenodd" clip-rule="evenodd" d="M16.8633 21.9378C12.1715 25.2275 8.33061 29.2129 6.00927 31.8835C5.92385 31.9818 5.90863 32.0632 5.91069 32.1238C5.91279 32.1859 5.93524 32.2748 6.03457 32.3755C8.48993 34.8636 12.4867 38.5501 17.2202 41.5905C22.0133 44.6692 27.1592 46.8241 32.0002 46.8241C36.8413 46.824 41.9871 44.6691 46.7801 41.5904C51.5135 38.55 55.5102 34.8635 57.9655 32.3754C58.0648 32.2747 58.0872 32.1858 58.0893 32.1237C58.0914 32.0631 58.0762 31.9817 57.9908 31.8834C55.6694 29.2128 51.8285 25.2274 47.1366 21.9377C42.3995 18.6163 37.1742 16.2702 32 16.2702C26.8258 16.2702 21.6005 18.6163 16.8633 21.9378ZM2.99032 29.2594C1.47597 31.0016 1.56606 33.5421 3.18748 35.1851C8.32274 40.3889 20.1038 50.8241 32.0002 50.8241C43.8967 50.824 55.6775 40.3887 60.8126 35.185C62.434 33.542 62.524 31.0015 61.0097 29.2593C56.137 23.6535 44.6812 12.2702 32 12.2702C19.3188 12.2702 7.86301 23.6535 2.99032 29.2594Z" fill="black"/>
<path fill-rule="evenodd" clip-rule="evenodd" d="M32 39C35.866 39 39 35.866 39 32C39 28.134 35.866 25 32 25C28.134 25 25 28.134 25 32C25 35.866 28.134 39 32 39ZM32 43C38.0751 43 43 38.0751 43 32C43 25.9249 38.0751 21 32 21C25.9249 21 21 25.9249 21 32C21 38.0751 25.9249 43 32 43Z" fill="black"/>
</g>
<defs>
<clipPath id="clip0_882_5034">
<rect width="64" height="64" fill="white"/>
</clipPath>
</defs>
</svg>
