<svg width="64" height="64" viewBox="0 0 64 64" fill="none" xmlns="http://www.w3.org/2000/svg">
<g clip-path="url(#clip0_511_5039)">
<rect width="64" height="64" fill="white"/>
<rect x="-0.5" y="-0.5" width="65" height="65" fill="white" stroke="black"/>
<path fill-rule="evenodd" clip-rule="evenodd" d="M60 11C60 9.89543 59.1046 9 58 9H6C4.89543 9 4 9.89543 4 11V53C4 54.1046 4.89543 55 6 55H58C59.1046 55 60 54.1046 60 53V11ZM4 5C1.79086 5 0 6.79086 0 9V55C0 57.2091 1.79086 59 4 59H60C62.2091 59 64 57.2091 64 55V9C64 6.79086 62.2091 5 60 5H4Z" fill="black"/>
<path d="M32.9371 33.8224C32.9371 34.3486 32.5869 34.8182 32.0619 34.9958L25.1365 37.3385C23.9681 37.7338 23.97 39.2936 25.1393 39.6863L32.0591 42.0108C32.5855 42.1876 32.9371 42.6579 32.9371 43.1851V43.8114C32.9371 44.6899 31.9999 45.2928 31.1333 44.9717L18.7757 40.3934C18.2701 40.206 17.9375 39.7457 17.9375 39.2331V37.7716C17.9375 37.2594 18.2696 36.7993 18.7747 36.6117L31.1323 32.0223C31.999 31.7004 32.9371 32.3033 32.9371 33.1823V33.8224Z" fill="black"/>
<path d="M40.9446 44.2617C40.9446 43.7315 41.2974 43.2585 41.8263 43.0796L48.8031 40.7194C49.9802 40.3212 49.9783 38.7498 48.8003 38.3542L41.8291 36.0124C41.2987 35.8343 40.9446 35.3605 40.9446 34.8293L40.9446 34.1984C40.9446 33.3134 41.8887 32.706 42.7618 33.0295L55.2112 37.6419C55.7206 37.8306 56.0557 38.2944 56.0557 38.8108L56.0557 40.2831C56.0557 40.7992 55.7211 41.2627 55.2122 41.4517L42.7628 46.0752C41.8896 46.3995 40.9446 45.7921 40.9446 44.9066L40.9446 44.2617Z" fill="black"/>
<path d="M40.3145 28.8899C40.5115 28.4681 40.9349 28.1986 41.4005 28.1986H41.6002C42.4773 28.1986 43.0573 29.1096 42.6862 29.9043L33.6859 49.1759C33.4889 49.5977 33.0655 49.8673 32.5999 49.8673H32.4002C31.5231 49.8673 30.9431 48.9562 31.3142 48.1616L40.3145 28.8899Z" fill="black"/>
<path fill-rule="evenodd" clip-rule="evenodd" d="M41.4003 27H41.6C43.3541 27 44.5142 28.8221 43.772 30.4114L34.7716 49.6831C34.3777 50.5267 33.5308 51.0659 32.5997 51.0659H32.4C30.6459 51.0659 29.4858 49.2437 30.228 47.6544L39.2284 28.3828C39.6223 27.5392 40.4692 27 41.4003 27ZM41.4003 28.1986C40.9347 28.1986 40.5113 28.4681 40.3143 28.8899L31.314 48.1616C30.9429 48.9562 31.5229 49.8673 32.4 49.8673H32.5997C33.0653 49.8673 33.4887 49.5977 33.6857 49.1759L42.686 29.9043C43.0571 29.1096 42.4771 28.1986 41.6 28.1986H41.4003Z" fill="black"/>
</g>
<defs>
<clipPath id="clip0_511_5039">
<rect width="64" height="64" fill="white"/>
</clipPath>
</defs>
</svg>
