<svg width="64" height="64" viewBox="0 0 64 64" fill="none" xmlns="http://www.w3.org/2000/svg">
<g clip-path="url(#clip0_2050_4919)">
<path fill-rule="evenodd" clip-rule="evenodd" d="M32 64C49.6731 64 64 49.6731 64 32C64 14.3269 49.6731 0 32 0C14.3269 0 0 14.3269 0 32C0 49.6731 14.3269 64 32 64ZM27.9618 40.3313H36.1792C36.2174 38.8094 36.4369 37.5475 36.8378 36.5457C37.2386 35.5246 37.9926 34.5229 39.0997 33.5403C40.3786 32.3459 41.5334 31.2285 42.5642 30.1882C43.614 29.1286 44.4443 27.9919 45.0551 26.7782C45.685 25.5452 46 24.1004 46 22.4435C46 19.9583 45.4655 17.8681 44.3966 16.1727C43.3277 14.4581 41.7911 13.1673 39.7868 12.3004C37.7826 11.4335 35.3871 11 32.6002 11C30.0806 11 27.7996 11.4238 25.7572 12.2715C23.7338 13.0999 22.1113 14.4196 20.8897 16.2305C19.6872 18.0222 19.0573 20.3533 19 23.2238H28.7063C28.7444 22.1064 28.9449 21.2106 29.3075 20.5363C29.6702 19.8427 30.1379 19.3322 30.7105 19.0047C31.3022 18.6772 31.9321 18.5134 32.6002 18.5134C33.421 18.5134 34.0986 18.6772 34.6331 19.0047C35.1866 19.3129 35.597 19.7849 35.8643 20.4207C36.1506 21.0565 36.2937 21.8752 36.2937 22.877C36.2937 23.6862 36.122 24.4471 35.7784 25.1599C35.4348 25.8728 34.9385 26.5759 34.2895 27.2695C33.6405 27.963 32.8674 28.6855 31.9703 29.4368C30.9586 30.323 30.1569 31.2863 29.5652 32.3266C28.9735 33.3669 28.5536 34.5421 28.3054 35.8521C28.0764 37.1429 27.9618 38.636 27.9618 40.3313ZM28.2768 45.6485C27.2842 46.5733 26.7879 47.7292 26.7879 49.1163C26.7879 50.5034 27.2842 51.6689 28.2768 52.6129C29.2694 53.5376 30.5578 54 32.1421 54C33.7264 54 35.0148 53.5376 36.0074 52.6129C37 51.6689 37.4963 50.5034 37.4963 49.1163C37.4963 47.7292 37 46.5733 36.0074 45.6485C35.0148 44.7045 33.7264 44.2325 32.1421 44.2325C30.5578 44.2325 29.2694 44.7045 28.2768 45.6485Z" fill="black"/>
</g>
<defs>
<clipPath id="clip0_2050_4919">
<rect width="64" height="64" fill="white"/>
</clipPath>
</defs>
</svg>
