<svg width="64" height="64" viewBox="0 0 64 64" fill="none" xmlns="http://www.w3.org/2000/svg">
<g clip-path="url(#clip0_877_4951)">
<rect x="-0.5" y="-0.5" width="65" height="65" fill="white" stroke="black"/>
<path d="M0.421875 56L11.3816 8H30.1492L43.3692 56H31.2236L29.2896 47.3176H12.2412L10.3071 56H0.421875ZM19.0462 16.0471L14.1036 38.8471H27.4271L22.4845 16.0471H19.0462Z" fill="black"/>
<path fill-rule="evenodd" clip-rule="evenodd" d="M41.8262 37.3715L42.912 41.1035L45.7764 33.9218L50.264 44.6998C48.9918 44.7416 47.5519 44.7624 45.9442 44.7624C45.2575 44.7624 44.6006 44.7589 43.9734 44.7518L44.6511 47.081H51.2915L53.0949 51.6762C53.4164 52.47 53.5772 53.0409 53.5772 53.389C53.5772 53.6675 53.4654 53.8694 53.2417 53.9948C53.032 54.1062 52.0813 54.1967 50.3898 54.2663V56L57.7502 55.8746L63.5798 56V54.2663C63.1744 54.2245 62.8668 54.1897 62.6571 54.1619C62.0001 54.1201 61.5876 54.0713 61.4199 54.0156C61.2661 53.9599 61.1263 53.8764 61.0005 53.765C60.8747 53.6536 60.7419 53.4726 60.6021 53.2219L59.7633 51.3003L58.4632 48.4387L49.0897 26.632H46.112L44.2666 31.3735L41.8262 37.3715Z" fill="black"/>
</g>
<defs>
<clipPath id="clip0_877_4951">
<rect width="64" height="64" fill="white"/>
</clipPath>
</defs>
</svg>
