<svg width="338" height="429" viewBox="0 0 338 429" fill="none" xmlns="http://www.w3.org/2000/svg">
<path d="M302.9 166C307.733 163.026 312.238 159.55 316.34 155.63C317.14 154.86 317.89 154.09 318.65 153.32C321.521 150.399 324.168 147.267 326.57 143.95C329.014 140.578 331.115 136.97 332.84 133.18C335.244 128.011 336.72 122.46 337.2 116.78C338.69 97.39 327.2 78.11 301.58 62.56L198.42 0L78.1601 115.22L-0.129883 190.22L108.47 256.12C125.862 266.768 145.838 272.447 166.23 272.54C191.15 272.54 215.03 263.74 232.65 246.85C251.81 228.49 258.17 204.73 246.35 184.98C244.424 181.777 242.143 178.802 239.55 176.11C245.88 177.521 252.345 178.242 258.83 178.26H259C269.604 178.278 280.118 176.315 290 172.47C294.484 170.702 298.802 168.537 302.9 166ZM202.31 225.8C182.99 244.31 151.91 247.04 126.61 231.7L51.4801 186.1L118.92 121.45L195.34 167.84C222.88 184.57 221.36 207.6 202.31 225.84V225.8ZM211.25 143.59L140.6 100.74L205 39L274.37 81.11C300.31 96.84 303.68 118.16 284.92 136.11C275.19 145.314 262.689 151.043 249.364 152.403C236.04 153.763 222.639 150.679 211.25 143.63V143.59ZM241.11 333.59C221.54 352.34 194.94 362.67 166.23 362.67C143.6 362.578 121.427 356.287 102.12 344.48L-0.129883 282.51V307.18L108.47 373.09C125.862 383.738 145.838 389.417 166.23 389.51C191.15 389.51 215.03 380.7 232.65 363.82C245.53 351.48 252.65 336.69 252.33 322.33V320.54C249.03 325.275 245.272 329.672 241.11 333.67V333.59ZM241.11 294.59C221.54 313.35 194.94 323.68 166.23 323.68C143.6 323.588 121.427 317.297 102.12 305.49L-0.129883 243.52V268.2L108.47 334.11C125.862 344.755 145.839 350.43 166.23 350.52C191.15 350.52 215.03 341.72 232.65 324.84C245.53 312.49 252.65 297.71 252.33 283.34V281.55C249.036 286.289 245.277 290.687 241.11 294.68V294.59ZM241.11 255.59C221.54 274.35 194.94 284.68 166.23 284.68C143.6 284.588 121.427 278.297 102.12 266.49L-0.129883 204.54V229.22L108.47 295.13C125.862 305.775 145.839 311.45 166.23 311.54C191.15 311.54 215.03 302.74 232.65 285.85C245.53 273.51 252.65 258.73 252.33 244.36V242.54C249.036 247.288 245.277 251.696 241.11 255.7V255.59ZM324.8 281.33C308.479 296.876 287.122 306.052 264.61 307.19V334C283.963 332.924 302.301 324.994 316.34 311.63C330.34 298.25 337.49 283.52 337.34 268.99V266.79C333.667 272.085 329.466 276.994 324.8 281.44V281.33ZM241.11 372.54C221.54 391.29 194.94 401.63 166.23 401.63C143.598 401.539 121.424 395.245 102.12 383.43L-0.129883 321.49V346.16L108.47 412.07C125.862 422.718 145.838 428.397 166.23 428.49C191.15 428.49 215.03 419.68 232.65 402.8C245.53 390.46 252.65 375.67 252.33 361.31V359.52C249.033 364.257 245.275 368.655 241.11 372.65V372.54ZM326.86 162.33C326.18 163.02 325.51 163.71 324.8 164.38C318.146 170.606 310.666 175.886 302.57 180.07C294.298 184.244 285.456 187.178 276.33 188.78C271.655 189.647 266.922 190.171 262.17 190.35C262.67 191.96 263.07 193.6 263.42 195.25C264.254 199.194 264.634 203.22 264.55 207.25V217H264.6C273.301 216.478 281.869 214.613 290 211.47C299.805 207.635 308.766 201.921 316.38 194.65C317.19 193.88 317.89 193.09 318.65 192.31C321.521 189.386 324.168 186.25 326.57 182.93C329.019 179.554 331.126 175.943 332.86 172.15C335.257 166.967 336.719 161.402 337.18 155.71C337.27 154.48 337.38 153.24 337.37 152.01V150.01C336.65 151.01 335.89 152.07 335.11 153.1C332.561 156.385 329.805 159.505 326.86 162.44V162.33ZM326.86 240.25C326.18 240.95 325.56 241.66 324.86 242.35C308.541 257.898 287.182 267.071 264.67 268.2V295C284.022 293.919 302.358 285.99 316.4 272.63C323.278 266.253 328.872 258.619 332.88 250.14C335.276 244.957 336.738 239.391 337.2 233.7C337.29 232.46 337.4 231.22 337.39 229.99V227.79C336.65 228.87 335.92 229.95 335.12 231.01C332.56 234.304 329.787 237.427 326.82 240.36L326.86 240.25ZM326.86 201.25C326.18 201.95 325.56 202.66 324.86 203.35C321.539 206.493 317.99 209.384 314.24 212C310.538 214.612 306.651 216.951 302.61 219C290.804 224.982 277.885 228.449 264.67 229.18H264.62V255.85C283.972 254.771 302.309 246.842 316.35 233.48C317.16 232.71 317.86 231.92 318.62 231.14C321.491 228.216 324.138 225.08 326.54 221.76C328.987 218.386 331.094 214.779 332.83 210.99C335.227 205.804 336.689 200.235 337.15 194.54C337.24 193.31 337.35 192.07 337.34 190.84V188.64C336.6 189.72 335.87 190.8 335.07 191.86C332.527 195.207 329.771 198.387 326.82 201.38L326.86 201.25ZM302.9 166C307.733 163.026 312.238 159.55 316.34 155.63C317.14 154.86 317.89 154.09 318.65 153.32C321.521 150.399 324.168 147.267 326.57 143.95C329.014 140.578 331.115 136.97 332.84 133.18C335.244 128.011 336.72 122.46 337.2 116.78C338.69 97.39 327.2 78.11 301.58 62.56L198.42 0L78.1601 115.22L-0.129883 190.22L108.47 256.12C125.862 266.768 145.838 272.447 166.23 272.54C191.15 272.54 215.03 263.74 232.65 246.85C251.81 228.49 258.17 204.73 246.35 184.98C244.424 181.777 242.143 178.802 239.55 176.11C245.88 177.521 252.345 178.242 258.83 178.26H259C269.604 178.278 280.118 176.315 290 172.47C294.484 170.702 298.802 168.537 302.9 166ZM202.31 225.8C182.99 244.31 151.91 247.04 126.61 231.7L51.4801 186.1L118.92 121.45L195.34 167.84C222.88 184.57 221.36 207.6 202.31 225.84V225.8ZM211.25 143.59L140.6 100.74L205 39L274.37 81.11C300.31 96.84 303.68 118.16 284.92 136.11C275.19 145.314 262.689 151.043 249.364 152.403C236.04 153.763 222.639 150.679 211.25 143.63V143.59ZM241.11 333.59C221.54 352.34 194.94 362.67 166.23 362.67C143.6 362.578 121.427 356.287 102.12 344.48L-0.129883 282.51V307.18L108.47 373.09C125.862 383.738 145.838 389.417 166.23 389.51C191.15 389.51 215.03 380.7 232.65 363.82C245.53 351.48 252.65 336.69 252.33 322.33V320.54C249.03 325.275 245.272 329.672 241.11 333.67V333.59ZM241.11 294.59C221.54 313.35 194.94 323.68 166.23 323.68C143.6 323.588 121.427 317.297 102.12 305.49L-0.129883 243.52V268.2L108.47 334.11C125.862 344.755 145.839 350.43 166.23 350.52C191.15 350.52 215.03 341.72 232.65 324.84C245.53 312.49 252.65 297.71 252.33 283.34V281.55C249.036 286.289 245.277 290.687 241.11 294.68V294.59ZM241.11 255.59C221.54 274.35 194.94 284.68 166.23 284.68C143.6 284.588 121.427 278.297 102.12 266.49L-0.129883 204.54V229.22L108.47 295.13C125.862 305.775 145.839 311.45 166.23 311.54C191.15 311.54 215.03 302.74 232.65 285.85C245.53 273.51 252.65 258.73 252.33 244.36V242.54C249.036 247.288 245.277 251.696 241.11 255.7V255.59ZM324.8 281.33C308.479 296.876 287.122 306.052 264.61 307.19V334C283.963 332.924 302.301 324.994 316.34 311.63C330.34 298.25 337.49 283.52 337.34 268.99V266.79C333.667 272.085 329.466 276.994 324.8 281.44V281.33ZM241.11 372.54C221.54 391.29 194.94 401.63 166.23 401.63C143.598 401.539 121.424 395.245 102.12 383.43L-0.129883 321.49V346.16L108.47 412.07C125.862 422.718 145.838 428.397 166.23 428.49C191.15 428.49 215.03 419.68 232.65 402.8C245.53 390.46 252.65 375.67 252.33 361.31V359.52C249.033 364.257 245.275 368.655 241.11 372.65V372.54ZM326.86 162.33C326.18 163.02 325.51 163.71 324.8 164.38C318.146 170.606 310.666 175.886 302.57 180.07C294.298 184.244 285.456 187.178 276.33 188.78C271.655 189.647 266.922 190.171 262.17 190.35C262.67 191.96 263.07 193.6 263.42 195.25C264.254 199.194 264.634 203.22 264.55 207.25V217H264.6C273.301 216.478 281.869 214.613 290 211.47C299.805 207.635 308.766 201.921 316.38 194.65C317.19 193.88 317.89 193.09 318.65 192.31C321.521 189.386 324.168 186.25 326.57 182.93C329.019 179.554 331.126 175.943 332.86 172.15C335.257 166.967 336.719 161.402 337.18 155.71C337.27 154.48 337.38 153.24 337.37 152.01V150.01C336.65 151.01 335.89 152.07 335.11 153.1C332.561 156.385 329.805 159.505 326.86 162.44V162.33ZM326.86 240.25C326.18 240.95 325.56 241.66 324.86 242.35C308.541 257.898 287.182 267.071 264.67 268.2V295C284.022 293.919 302.358 285.99 316.4 272.63C323.278 266.253 328.872 258.619 332.88 250.14C335.276 244.957 336.738 239.391 337.2 233.7C337.29 232.46 337.4 231.22 337.39 229.99V227.79C336.65 228.87 335.92 229.95 335.12 231.01C332.56 234.304 329.787 237.427 326.82 240.36L326.86 240.25ZM326.86 201.25C326.18 201.95 325.56 202.66 324.86 203.35C321.539 206.493 317.99 209.384 314.24 212C310.538 214.612 306.651 216.951 302.61 219C290.804 224.982 277.885 228.449 264.67 229.18H264.62V255.85C283.972 254.771 302.309 246.842 316.35 233.48C317.16 232.71 317.86 231.92 318.62 231.14C321.491 228.216 324.138 225.08 326.54 221.76C328.987 218.386 331.094 214.779 332.83 210.99C335.227 205.804 336.689 200.235 337.15 194.54C337.24 193.31 337.35 192.07 337.34 190.84V188.64C336.6 189.72 335.87 190.8 335.07 191.86C332.527 195.207 329.771 198.387 326.82 201.38L326.86 201.25Z" fill="#7DF3E1"/>
</svg>
