<svg width="225" height="225" viewBox="0 0 225 225" fill="none" xmlns="http://www.w3.org/2000/svg">
<path fill-rule="evenodd" clip-rule="evenodd" d="M112.5 215C169.109 215 215 169.109 215 112.5C215 55.8908 169.109 10 112.5 10C55.8908 10 10 55.8908 10 112.5C10 169.109 55.8908 215 112.5 215ZM112.5 225C174.632 225 225 174.632 225 112.5C225 50.368 174.632 0 112.5 0C50.368 0 0 50.368 0 112.5C0 174.632 50.368 225 112.5 225Z" fill="white"/>
<path fill-rule="evenodd" clip-rule="evenodd" d="M181 43H44V180H181V43ZM34 33V190H191V33H34Z" fill="white"/>
<path fill-rule="evenodd" clip-rule="evenodd" d="M112.5 184L185.679 34.75L39.3209 34.75L112.5 184ZM112.5 161.285L169.639 44.75L55.3614 44.75L112.5 161.285Z" fill="white"/>
</svg>
