<svg width="64" height="64" viewBox="0 0 64 64" fill="none" xmlns="http://www.w3.org/2000/svg">
<path d="M20.0775 32.1213L13.4507 38.2659C13.0425 38.6444 12.8105 39.1758 12.8105 39.7325V41.8903C12.8105 42.9949 13.706 43.8903 14.8105 43.8903H48.1796C49.2842 43.8903 50.1796 42.9949 50.1796 41.8903V33.4136C50.1796 32.8748 49.9622 32.3587 49.5766 31.9824L40.4088 23.0343C39.6319 22.276 38.3918 22.276 37.6149 23.0343L27.0218 33.3735C26.274 34.1034 25.0901 34.1345 24.305 33.4448L22.7573 32.0853C21.9869 31.4085 20.8294 31.4241 20.0775 32.1213Z" stroke="black" stroke-width="3"/>
<circle cx="16.8507" cy="22.6808" r="3.79987" stroke="black" stroke-width="2.5"/>
<path fill-rule="evenodd" clip-rule="evenodd" d="M5 14V49C5 50.1046 5.89543 51 7 51H57C58.1046 51 59 50.1046 59 49V14C59 12.8954 58.1046 12 57 12H7C5.89543 12 5 12.8954 5 14ZM1 14C1 10.6863 3.68629 8 7 8H57C60.3137 8 63 10.6863 63 14V49C63 52.3137 60.3137 55 57 55H7C3.68629 55 1 52.3137 1 49V14Z" fill="black"/>
</svg>
