<svg width="64" height="64" viewBox="0 0 64 64" fill="none" xmlns="http://www.w3.org/2000/svg">
<g clip-path="url(#clip0_2654_4137)">
<path d="M5.63803 8.4781C4.66303 7.70935 3.2474 7.88748 2.47865 8.86248C1.7099 9.83748 1.88803 11.2531 2.86303 12.0219L58.363 55.5219C59.338 56.2906 60.7537 56.1125 61.5224 55.1375C62.2912 54.1625 62.113 52.7469 61.138 51.9781L51.2755 44.2531C54.988 40.4469 57.5005 36.1812 58.7662 33.1531C59.0755 32.4125 59.0755 31.5875 58.7662 30.8469C57.3693 27.5 54.4349 22.625 50.0474 18.5562C45.6412 14.45 39.5755 11 32.0005 11C25.6068 11 20.2818 13.4656 16.1287 16.7L5.63803 8.4781ZM19.7943 19.5687C23.188 17.1594 27.2662 15.5 32.0005 15.5C38.113 15.5 43.138 18.275 46.9912 21.8469C50.6005 25.2031 53.0943 29.1875 54.3693 32C53.188 34.625 50.938 38.2625 47.7224 41.4594L42.6787 37.5031C43.5318 35.8531 44.0099 33.9875 44.0099 32C44.0099 25.3719 38.638 20 32.0099 20C28.9912 20 26.2255 21.1156 24.1162 22.9531L19.7943 19.5687ZM39.0224 34.6437L31.3818 28.6531C31.7755 27.8562 32.0005 26.9469 32.0005 26C32.0005 25.4844 31.9349 24.9781 31.813 24.5C31.8787 24.5 31.9349 24.5 32.0005 24.5C36.1443 24.5 39.5005 27.8562 39.5005 32C39.5005 32.9281 39.3318 33.8187 39.0224 34.6437ZM39.9037 46.8594C37.513 47.8812 34.8787 48.5 32.0005 48.5C25.888 48.5 20.863 45.725 17.0099 42.1531C13.4005 38.7969 10.9068 34.8125 9.63178 32C10.4099 30.275 11.6474 28.1094 13.3255 25.925L9.79115 23.1406C7.65365 25.925 6.12553 28.7 5.2349 30.8469C4.92553 31.5875 4.92553 32.4125 5.2349 33.1531C6.63178 36.5 9.56615 41.375 13.9537 45.4437C18.3599 49.55 24.4255 53 32.0005 53C36.4818 53 40.4287 51.7906 43.8318 49.9531L39.9037 46.8594ZM20.0005 32C20.0005 38.6281 25.3724 44 32.0005 44C33.2474 44 34.4474 43.8125 35.5818 43.4562L30.313 39.3125C28.1099 38.8062 26.2724 37.325 25.2787 35.3469L20.0193 31.2031C20.0005 31.4656 19.9912 31.7281 19.9912 32H20.0005Z" fill="black"/>
</g>
<defs>
<clipPath id="clip0_2654_4137">
<rect width="60" height="48" fill="white" transform="translate(2 8)"/>
</clipPath>
</defs>
</svg>
