<svg width="64" height="64" viewBox="0 0 64 64" fill="none" xmlns="http://www.w3.org/2000/svg">
<g clip-path="url(#clip0_2654_4067)">
<rect y="23" width="58" height="4" rx="2" fill="black"/>
<rect y="30" width="53" height="4" rx="2" fill="black"/>
<rect y="37" width="64" height="4" rx="2" fill="black"/>
<rect y="44" width="57" height="4" rx="2" fill="black"/>
<rect y="51" width="14" height="4" rx="2" fill="black"/>
<rect x="17" y="51" width="22" height="4" rx="2" fill="black"/>
<path d="M7.05078 8.21289L3.18359 20H0.0683594L5.35156 5.78125H7.33398L7.05078 8.21289ZM10.2637 20L6.38672 8.21289L6.07422 5.78125H8.07617L13.3887 20H10.2637ZM10.0879 14.707V17.002H2.57812V14.707H10.0879Z" fill="black"/>
<path d="M20.2344 17.6172V12.9102C20.2344 12.5716 20.179 12.2819 20.0684 12.041C19.9577 11.7936 19.7852 11.6016 19.5508 11.4648C19.3229 11.3281 19.0267 11.2598 18.6621 11.2598C18.3496 11.2598 18.0794 11.3151 17.8516 11.4258C17.6237 11.5299 17.4479 11.6829 17.3242 11.8848C17.2005 12.0801 17.1387 12.3112 17.1387 12.5781H14.3262C14.3262 12.1289 14.4303 11.7025 14.6387 11.2988C14.847 10.8952 15.1497 10.5404 15.5469 10.2344C15.944 9.92188 16.416 9.67773 16.9629 9.50195C17.5163 9.32617 18.1348 9.23828 18.8184 9.23828C19.6387 9.23828 20.3678 9.375 21.0059 9.64844C21.6439 9.92188 22.1452 10.332 22.5098 10.8789C22.8809 11.4258 23.0664 12.1094 23.0664 12.9297V17.4512C23.0664 18.0306 23.1022 18.5059 23.1738 18.877C23.2454 19.2415 23.3496 19.5605 23.4863 19.834V20H20.6445C20.5078 19.7135 20.4036 19.3555 20.332 18.9258C20.2669 18.4896 20.2344 18.0534 20.2344 17.6172ZM20.6055 13.5645L20.625 15.1562H19.0527C18.6816 15.1562 18.3594 15.1986 18.0859 15.2832C17.8125 15.3678 17.5879 15.4883 17.4121 15.6445C17.2363 15.7943 17.1061 15.9701 17.0215 16.1719C16.9434 16.3737 16.9043 16.5951 16.9043 16.8359C16.9043 17.0768 16.9596 17.2949 17.0703 17.4902C17.181 17.679 17.3405 17.8288 17.5488 17.9395C17.7572 18.0436 18.0013 18.0957 18.2812 18.0957C18.7044 18.0957 19.0723 18.0111 19.3848 17.8418C19.6973 17.6725 19.9382 17.4642 20.1074 17.2168C20.2832 16.9694 20.3743 16.735 20.3809 16.5137L21.123 17.7051C21.0189 17.972 20.8757 18.2487 20.6934 18.5352C20.5176 18.8216 20.293 19.0918 20.0195 19.3457C19.7461 19.5931 19.4173 19.7982 19.0332 19.9609C18.6491 20.1172 18.1934 20.1953 17.666 20.1953C16.9954 20.1953 16.3867 20.0618 15.8398 19.7949C15.2995 19.5215 14.8698 19.1471 14.5508 18.6719C14.2383 18.1901 14.082 17.6432 14.082 17.0312C14.082 16.4779 14.1862 15.9863 14.3945 15.5566C14.6029 15.127 14.9089 14.7656 15.3125 14.4727C15.7227 14.1732 16.2337 13.9486 16.8457 13.7988C17.4577 13.6426 18.1673 13.5645 18.9746 13.5645H20.6055Z" fill="black"/>
</g>
<defs>
<clipPath id="clip0_2654_4067">
<rect width="64" height="64" fill="white"/>
</clipPath>
</defs>
</svg>
