<svg width="203" height="29" viewBox="0 0 203 29" fill="none" xmlns="http://www.w3.org/2000/svg">
<path d="M9.2709 28.001C7.77481 28.001 6.60981 27.8319 5.77592 27.4937C4.96655 27.1816 4.39019 26.7134 4.04682 26.0891C3.70346 25.4648 3.49498 24.7235 3.42141 23.8651C3.34783 22.9807 3.31104 21.9923 3.31104 20.8998C3.31104 19.7553 3.2252 18.8189 3.05351 18.0906C2.88183 17.3362 2.55072 16.777 2.0602 16.4128C1.5942 16.0487 0.907469 15.8666 0 15.8666V13.1744C0.882943 13.1744 1.55741 12.9923 2.02341 12.6281C2.51394 12.238 2.84504 11.6787 3.01672 10.9504C3.21293 10.1961 3.31104 9.24664 3.31104 8.10213C3.31104 7.03566 3.34783 6.07323 3.42141 5.21485C3.49498 4.33046 3.70346 3.57612 4.04682 2.95184C4.39019 2.32757 4.96655 1.84635 5.77592 1.5082C6.58528 1.17005 7.75028 1.00098 9.2709 1.00098H11V3.73219C9.99443 3.73219 9.23411 3.82323 8.71906 4.00531C8.22854 4.16138 7.89744 4.4345 7.72575 4.82468C7.5786 5.21485 7.50502 5.7741 7.50502 6.50242C7.50502 7.95907 7.46823 9.18161 7.39465 10.1701C7.32107 11.1585 7.16165 11.9388 6.91639 12.5111C6.67113 13.0833 6.27871 13.5255 5.73913 13.8377C5.22408 14.1498 4.50056 14.3839 3.56856 14.54C4.4515 14.6961 5.1505 14.9302 5.66555 15.2423C6.20513 15.5284 6.59755 15.9576 6.84281 16.5299C7.1126 17.0761 7.28428 17.8044 7.35786 18.7148C7.43144 19.6253 7.46823 20.7828 7.46823 22.1874C7.46823 22.9937 7.54181 23.631 7.68896 24.0992C7.83612 24.5675 8.15496 24.8796 8.64548 25.0357C9.16054 25.2177 9.94537 25.3088 11 25.3088V28.001H9.2709Z" fill="white"/>
<path fill-rule="evenodd" clip-rule="evenodd" d="M111.224 27.4937C110.39 27.8319 109.225 28.001 107.729 28.001H106V25.3088C107.055 25.3088 107.839 25.2177 108.355 25.0357C108.845 24.8796 109.164 24.5675 109.311 24.0992C109.458 23.631 109.532 22.9937 109.532 22.1874C109.532 20.7828 109.569 19.6253 109.642 18.7148C109.716 17.8044 109.887 17.0761 110.157 16.5299C110.402 15.9576 110.795 15.5284 111.334 15.2423C111.849 14.9302 112.548 14.6961 113.431 14.54C112.499 14.3839 111.776 14.1498 111.261 13.8377C110.721 13.5255 110.329 13.0833 110.084 12.5111C109.838 11.9388 109.679 11.1585 109.605 10.1701C109.532 9.18161 109.495 7.95907 109.495 6.50242C109.495 5.7741 109.421 5.21485 109.274 4.82468C109.103 4.4345 108.771 4.16138 108.281 4.00531C107.766 3.82323 107.006 3.73219 106 3.73219V1.00098H107.729C109.25 1.00098 110.415 1.17005 111.224 1.5082C112.033 1.84635 112.61 2.32757 112.953 2.95184C113.297 3.57612 113.505 4.33046 113.579 5.21485C113.652 6.07323 113.689 7.03566 113.689 8.10213C113.689 9.24664 113.787 10.1961 113.983 10.9504C114.025 11.1254 114.047 11.2544 114.065 11.3548C114.122 11.6721 114.127 11.7036 114.5 12C114.641 12.1103 115.121 12.1538 115.745 12.1608V11.341C115.745 10.2364 116.64 9.34099 117.745 9.34099H125.713V9.36489H128.548V13.4442C128.946 12.3839 129.499 11.5044 130.207 10.8058C130.915 10.1072 131.719 9.44297 132.502 9.21842C133.297 8.99387 134.152 8.83528 135.173 8.83519C135.783 8.83513 136.618 9.10892 137.191 9.32919C138.229 8.9895 139.46 8.85989 140.948 8.85989C142.302 8.85989 143.47 9.04701 144.451 9.42127C145.445 9.78304 146.184 10.2571 146.668 10.8434C147.153 11.4173 147.476 12.041 147.637 12.7147C147.811 13.3883 147.898 14.4612 147.898 15.9332V24.3165H149.84V4.61213H146.598V1.44971H153.38V16.6834L154.634 16.6915L160.125 12.303H157.126V9.36513H167.094V11.1889C168.909 9.63622 170.965 8.85989 173.263 8.85989C175.686 8.85989 177.878 9.73938 179.841 11.4984C181.816 13.2449 182.841 15.8522 182.915 19.3202H167.748C167.972 20.9919 168.63 22.3454 169.723 23.3808C170.816 24.4163 172.214 24.934 173.916 24.934C176.388 24.934 178.344 23.936 179.785 21.94L184.511 24.3165H184.584V12.5275H181.416V9.36512H188.124V11.5545C190.397 9.90779 192.472 9.08444 194.347 9.08444C195.515 9.08444 196.478 9.36512 197.235 9.9265C198.005 10.4754 198.509 11.1553 198.745 11.9662C198.981 12.7646 199.099 13.9372 199.099 15.4841V24.3165H202.136V27.4789H195.558V15.6338C195.558 14.2616 195.353 13.3696 194.944 12.9579C194.534 12.5338 194.031 12.3217 193.434 12.3217C191.869 12.3217 190.099 13.0889 188.124 14.6234V24.3165H191.236V27.4789H181.416L179.532 26.6355C179.32 26.7033 179.123 26.7775 178.946 26.8614C177.319 27.6224 175.617 28.0029 173.841 28.0029C172.599 28.0029 171.437 27.8282 170.357 27.4789H162.454L154.634 19.7573L153.38 19.7728V24.3165H156.492V27.4789L144.749 27.4789V25.2708C143.035 26.9425 141.122 27.7783 139.01 27.7783C137.371 27.7783 135.942 27.2419 134.725 26.169C133.52 25.0962 132.917 23.7239 132.917 22.0523C132.917 20.3681 133.557 18.9709 134.837 17.8606C136.128 16.7504 137.681 16.1952 139.495 16.1952C141.184 16.1952 142.817 16.7067 144.395 17.7296V15.9332C144.395 15.0101 144.308 14.299 144.134 13.8C143.96 13.301 143.55 12.8519 142.904 12.4527C142.271 12.0535 141.439 11.8539 140.408 11.8539C138.862 11.8539 137.504 12.0236 136.653 13.0054L136.5 13.4442C136.5 13.4442 136.452 13.4312 136.362 13.4083C136.344 13.4383 136.326 13.4689 136.309 13.5L135.596 13.226C135.288 13.157 134.915 13.0783 134.5 13.0002C133.333 12.7808 132.759 12.8579 131.865 13.2197C130.983 13.5815 130.325 14.2426 129.89 15.2032C129.468 16.1513 129.257 17.8604 129.257 20.3305V24.3162H133.188V27.4787H122.083V27.4548H121.074L113.701 20.1755C113.693 20.4069 113.689 20.6483 113.689 20.8998C113.689 21.9923 113.652 22.9807 113.579 23.8651C113.505 24.7235 113.297 25.4648 112.953 26.0891C112.61 26.7134 112.033 27.1816 111.224 27.4937ZM165.974 12.303H164.336L157.573 17.9542L163.926 24.3165H165.714C164.462 22.7362 163.835 20.7714 163.835 18.422C163.835 16.0128 164.548 13.9731 165.974 12.303ZM125.716 12.5273H122.658L116.192 17.9301L122.546 24.2923H125.713L125.716 24.2939V12.5273ZM144.395 20.7424C142.867 19.5448 141.321 18.946 139.756 18.946C138.774 18.946 137.954 19.2329 137.296 19.8067C136.638 20.3806 136.309 21.1229 136.309 22.0335C136.309 22.8818 136.594 23.5929 137.166 24.1668C137.749 24.7406 138.538 25.0276 139.532 25.0276C141.246 25.0276 142.867 24.304 144.395 22.8569V20.7424ZM177.288 13.2948C178.356 14.3177 179.015 15.4654 179.263 16.7379H167.879C168.102 15.2658 168.717 14.0682 169.723 13.1451C170.729 12.2094 171.941 11.7416 173.357 11.7416C174.909 11.7416 176.22 12.2593 177.288 13.2948Z" fill="white"/>
<path fill-rule="evenodd" clip-rule="evenodd" d="M36.9193 1.41021H32.5407V3.43117C30.4538 1.80941 27.8639 0.998535 24.7709 0.998535C22.2866 0.998535 20.0041 1.51936 17.9235 2.56104C15.8428 3.60271 14.1877 5.15272 12.9579 7.21111C11.7281 9.2695 11.1133 11.6709 11.1133 14.4155C11.1133 18.2703 12.2964 21.4576 14.6628 23.9776C17.0291 26.4975 20.5413 27.7575 25.1995 27.7575C29.271 27.7575 32.4551 26.6072 34.7517 24.3065C35.5185 25.3507 36.5023 26.1891 37.7032 26.8219C39.2252 27.6079 40.9756 28.0009 42.9543 28.0009C44.9635 28.0009 46.7138 27.6079 48.2055 26.8219C48.5088 26.6592 48.7982 26.4846 49.0738 26.2979L49.0764 27.4812H70.9501V23.3083H68.1179V13.5591H70.9501V9.36745H68.1179V7.38392C68.1179 5.71225 68.6148 4.87643 69.6085 4.87643C70.3042 4.87643 70.8383 5.52513 71.2109 6.82254L75.3846 3.54784C74.1921 1.85122 72.186 1.00293 69.3663 1.00293C67.0671 1.00293 65.3308 1.6293 64.1574 2.88204C62.9359 1.6293 61.1137 1.00293 58.6908 1.00293C56.3679 1.00293 54.6196 1.64227 53.4457 2.92097C52.2719 4.19967 51.6849 5.79334 51.6849 7.70203V9.36745H46.0737C46.0195 9.35364 45.9651 9.34023 45.9103 9.3272C45.4068 10.1558 45.0916 10.7703 45.0063 11.0766C44.533 12.7768 44.4372 13.3686 47.3746 14.5222C50.312 15.6758 49.549 18.9771 48.0333 21.0397C46.3502 23.33 42.6257 26.1947 39.9154 25.6198C38.8039 25.3841 38.0639 24.0206 38.6314 23.3153C39.0097 24.1917 40.5298 24.6826 42.6979 23.1057C45.408 21.1346 45.2907 19.896 44.1043 18.5219C43.616 17.9564 43.0217 17.6811 42.4248 17.4046C41.5714 17.0093 40.7128 16.6115 40.151 15.3596C39.371 13.6213 39.3551 12.6 41.4891 9.07715C40.1002 9.22619 38.8382 9.59378 37.7032 10.1799C36.2115 10.9659 35.0548 12.0693 34.2329 13.4902C33.6052 14.5521 33.2172 15.7727 33.0689 17.1519C32.434 18.7862 31.3054 20.2293 30.2489 21.1894C28.9446 22.3745 27.4229 22.9671 25.6839 22.9671C23.5598 22.9671 21.8114 22.1843 20.4388 20.6187C19.0662 19.053 18.38 17.004 18.38 14.4716C18.38 12.0514 19.029 9.97434 20.3271 8.2403C21.6251 6.50626 23.5411 5.63925 26.0752 5.63925C28.5949 5.63925 30.4988 6.74985 31.787 8.97108C32.0674 9.45456 32.3186 9.99066 32.5407 10.5794L36.8901 7.34759L36.9193 1.41021ZM57.4424 23.3083V13.5591H62.3605V23.3083H57.4424ZM57.4424 9.36745V7.38392C57.4424 5.71225 57.9392 4.87643 58.933 4.87643C59.6286 4.87643 60.1627 5.52513 60.5354 6.82254L62.8165 5.03276C62.5125 5.84094 62.3605 6.73069 62.3605 7.70203V9.36745H57.4424Z" fill="#F2BC2B"/>
<path fill-rule="evenodd" clip-rule="evenodd" d="M105.375 23.2073L100.904 21.7664C99.5 23.1886 98.1088 23.8996 96.73 23.8996C95.6742 23.8996 94.6711 23.5566 93.7209 22.8704C92.7706 22.1843 92.252 21.0179 92.165 19.3712H105.599C105.599 17.45 105.307 15.7098 104.723 14.1504C104.14 12.591 103.096 11.2874 101.593 10.2395C100.09 9.19155 98.3076 8.6676 96.2456 8.6676C93.401 8.6676 91.0595 9.60322 89.2211 11.4745C88.6984 12.0065 88.25 12.5759 87.8759 13.1826C87.2624 12.0437 86.3653 11.0627 85.1846 10.2395C83.6815 9.19155 81.899 8.6676 79.837 8.6676C76.9925 8.6676 74.651 9.60322 72.8126 11.4745C70.9742 13.3458 70.055 15.6786 70.055 18.473C70.055 21.2175 70.9462 23.4318 72.7287 25.116C74.5113 26.8001 76.9925 27.6422 80.1724 27.6422C83.6993 27.6422 86.4002 26.4856 88.2749 24.1724C88.5345 24.5035 88.8219 24.818 89.1373 25.116C90.9198 26.8001 93.401 27.6422 96.5809 27.6422C100.568 27.6422 103.5 26.1639 105.375 23.2073ZM75.7565 19.3712H86.4967C86.589 20.5905 86.8734 21.6955 87.3498 22.6862L84.4952 21.7664C83.0915 23.1886 81.7003 23.8996 80.3215 23.8996C79.2656 23.8996 78.2626 23.5566 77.3123 22.8704C76.3621 22.1843 75.8435 21.0179 75.7565 19.3712ZM98.6212 13.5703C99.2733 14.2814 99.6677 15.1421 99.8044 16.1526H92.2582C92.606 13.72 93.8357 12.5037 95.9474 12.5037C97.0778 12.5037 97.9691 12.8592 98.6212 13.5703ZM83.3958 16.1526C83.2592 15.1421 82.8648 14.2814 82.2127 13.5703C81.5605 12.8592 80.6693 12.5037 79.5389 12.5037C77.4272 12.5037 76.1975 13.72 75.8497 16.1526H83.3958Z" fill="#F2BC2B"/>
</svg>
