<svg width="415" height="344" viewBox="0 0 415 344" fill="none" xmlns="http://www.w3.org/2000/svg">
<path d="M62.5399 20.6979C61.1899 21.9722 58.4916 22.7235 56.6457 22.3411C56.3119 22.2715 55.8816 22.1237 55.7364 21.8099C55.5807 21.4754 55.7655 21.0125 56.2359 20.5691C56.2593 20.5465 56.2867 20.5222 56.3093 20.5015C56.197 20.7729 56.1965 21.0516 56.3178 21.3095C56.4987 21.6993 56.9405 21.9918 57.5234 22.1136C58.7234 22.3633 60.2625 21.9583 61.0994 21.1678C61.6895 20.6102 61.8778 19.9713 61.6185 19.4168C61.3868 18.9228 60.8222 18.5493 60.0655 18.3932C58.3774 18.0408 56.124 18.6428 54.9396 19.7629C54.1158 20.5399 53.8457 21.4184 54.1974 22.1708C54.5097 22.8347 55.2525 23.3193 56.2884 23.5353C58.7678 24.051 62.0837 23.1597 63.8374 21.5036C64.6022 20.7801 65.0244 20.0066 65.0953 19.259C65.1583 18.5997 64.9463 17.9604 64.4544 17.3922C63.6336 16.4455 62.2455 16.5846 61.2333 16.6856C60.7909 16.7301 60.2069 16.7865 59.9923 16.6973C60.4485 16.6627 61.8409 16.1285 62.3476 16.1272L61.3416 15.403C58.2843 15.4144 53.708 16.6403 53.1097 20.1066C53.174 19.8039 56.0629 17.3729 58.325 16.9276C58.4695 17.2213 58.6787 17.4637 58.9684 17.6402C59.7227 18.0962 60.6807 18.0011 61.5278 17.9156C62.4813 17.8208 62.909 17.8156 63.1021 18.0351C63.7469 18.7802 63.5413 19.7505 62.5399 20.6979V20.6979ZM78.9322 20.4492C81.3289 21.8985 85.1587 22.0615 87.6496 20.8216C88.737 20.2778 89.4867 19.5592 89.8535 18.7448C90.1768 18.0277 90.2069 17.2362 89.9138 16.4256C89.4242 15.0746 87.9133 14.7425 86.8108 14.4999C86.3293 14.3943 85.6932 14.2511 85.5033 14.076C85.9967 14.1984 87.6684 14.0889 88.1994 14.2661L87.4309 13.0989C84.2175 12.0383 78.931 11.8061 76.9409 15.484C77.1259 15.1689 81.1166 13.4542 83.6649 13.7517C83.7011 14.131 83.8237 14.4766 84.0601 14.775C84.673 15.5526 85.7165 15.7826 86.6378 15.9848C87.677 16.212 88.1282 16.3572 88.2417 16.6705C88.6254 17.7333 88.0298 18.7494 86.606 19.4606C84.6881 20.4161 81.5592 20.3119 79.776 19.2326C79.4517 19.0379 79.0608 18.7206 79.0299 18.3169C78.998 17.8886 79.375 17.4332 80.0424 17.1006C80.0745 17.0837 80.1099 17.0669 80.1472 17.051C79.9196 17.3182 79.8101 17.6293 79.8331 17.9593C79.873 18.4613 80.2188 18.9457 80.7847 19.2856C81.9457 19.9893 83.7194 20.0738 84.9096 19.483C85.7496 19.0639 86.1974 18.4131 86.1429 17.7002C86.0929 17.0641 85.6467 16.448 84.9157 16.0057C83.2814 15.0168 80.6826 14.8998 78.9974 15.7401C77.8272 16.3224 77.1983 17.2128 77.2729 18.1828C77.339 19.037 77.9295 19.8431 78.9322 20.4492V20.4492ZM104.834 24.3727C107.532 26.7062 112.283 27.7713 115.651 26.7963C117.123 26.3699 118.205 25.6488 118.833 24.7228C119.384 23.9083 119.584 22.9356 119.383 21.8668C119.051 20.0837 117.23 19.332 115.902 18.7831C115.323 18.5448 114.559 18.225 114.355 17.9647C114.946 18.2278 117.057 18.4683 117.687 18.8061L116.965 17.188C113.166 15.1525 106.61 13.6731 103.367 17.7786C103.663 17.4286 109.002 16.2069 112.124 17.1474C112.092 17.627 112.174 18.0824 112.407 18.505C113.013 19.6036 114.27 20.1243 115.381 20.582C116.632 21.0978 117.165 21.3794 117.243 21.793C117.507 23.1948 116.551 24.3193 114.626 24.8784C112.031 25.6281 108.146 24.7949 106.136 23.0574C105.774 22.7437 105.349 22.2617 105.393 21.7568C105.441 21.2172 106.005 20.7399 106.908 20.4781C106.953 20.4633 107.002 20.4519 107.049 20.4397C106.711 20.7179 106.509 21.078 106.473 21.4946C106.418 22.1239 106.75 22.8013 107.386 23.3502C108.694 24.4818 110.893 24.9868 112.501 24.5223C113.638 24.1934 114.331 23.4897 114.408 22.5947C114.478 21.7958 114.047 20.931 113.224 20.2195C111.385 18.6275 108.16 17.8993 105.882 18.5588C104.301 19.0164 103.331 19.9755 103.225 21.1928C103.133 22.2658 103.704 23.3948 104.834 24.3727V24.3727ZM142.413 32.8042C145.924 35.3451 151.61 36.5355 155.363 35.5126C156.999 35.0647 158.139 34.2952 158.717 33.304C159.226 32.4287 159.299 31.3817 158.896 30.2264C158.22 28.3006 155.985 27.4759 154.354 26.8728C153.643 26.6105 152.703 26.2589 152.426 25.9762C153.155 26.2655 155.645 26.5439 156.429 26.9117L155.33 25.1624C150.593 22.9335 142.743 21.2824 139.643 25.6835C139.931 25.3085 145.928 24.0349 149.705 25.0763C149.746 25.5939 149.917 26.0855 150.252 26.5414C151.134 27.7341 152.679 28.3048 154.041 28.8077C155.574 29.3739 156.242 29.6816 156.4 30.1297C156.93 31.6444 156.005 32.8485 153.86 33.4342C150.972 34.221 146.325 33.2904 143.713 31.3988C143.24 31.0566 142.669 30.5348 142.639 29.9893C142.607 29.41 143.185 28.8984 144.19 28.6226C144.241 28.6087 144.296 28.5964 144.349 28.5833C144 28.8803 143.825 29.268 143.85 29.7153C143.888 30.3942 144.384 31.1272 145.212 31.7263C146.913 32.9589 149.546 33.5206 151.338 33.0327C152.603 32.688 153.294 31.9348 153.239 30.9704C153.19 30.1107 152.55 29.1747 151.48 28.3993C149.086 26.6671 145.227 25.8529 142.689 26.545C140.927 27.025 139.958 28.0515 140.033 29.3644C140.1 30.52 140.945 31.741 142.413 32.8042V32.8042ZM187.751 54.7922C189.698 54.9505 191.329 54.5847 192.524 53.7731C193.574 53.0599 194.284 51.9981 194.571 50.6436C195.048 48.3853 193.263 46.676 191.962 45.4281C191.393 44.8851 190.647 44.1626 190.534 43.7644C191.104 44.3399 193.481 45.5774 194.059 46.2615L193.996 44.0218C190.503 39.9032 183.48 35.1992 177.64 38.5922C178.163 38.312 185.067 39.2727 188.298 41.7919C188.025 42.3442 187.903 42.9203 187.969 43.5243C188.147 45.0981 189.379 46.2796 190.466 47.3198C191.694 48.4953 192.186 49.0681 192.077 49.593C191.703 51.3701 190.026 52.268 187.477 52.0606C184.046 51.7804 179.859 49.0427 178.336 46.0824C178.061 45.5471 177.794 44.7867 178.092 44.2093C178.412 43.593 179.314 43.2827 180.508 43.3791C180.569 43.3846 180.632 43.3922 180.693 43.399C180.158 43.5761 179.743 43.9107 179.496 44.3861C179.123 45.1055 179.187 46.0581 179.671 46.9933C180.663 48.9203 183.014 50.5088 185.142 50.6843C186.645 50.8073 187.807 50.2867 188.336 49.2628C188.806 48.3508 188.72 47.1338 188.097 45.922C186.702 43.2104 183.245 40.895 180.234 40.6493C178.14 40.4766 176.525 41.1752 175.806 42.5664C175.174 43.7935 175.297 45.386 176.154 47.0503C178.203 51.0267 183.295 54.4263 187.751 54.7922V54.7922ZM206.063 66.4527C208.446 70.231 213.63 73.3554 217.869 73.5653C219.72 73.6545 221.217 73.2489 222.248 72.4257C223.154 71.7015 223.703 70.6516 223.818 69.333C224.01 67.1323 222.134 65.5389 220.765 64.3752C220.169 63.8688 219.384 63.1918 219.231 62.8102C219.834 63.35 222.215 64.4691 222.837 65.1111L222.522 62.9474C218.762 59.0768 211.61 54.7571 206.496 58.2261C206.957 57.9395 213.568 58.6446 216.901 60.9773C216.707 61.5194 216.655 62.0795 216.788 62.6628C217.136 64.1785 218.432 65.2803 219.576 66.2525C220.863 67.3473 221.394 67.8861 221.35 68.3974C221.2 70.1274 219.723 71.0486 217.3 70.9336C214.035 70.7708 209.78 68.2605 208.006 65.4468C207.686 64.9386 207.349 64.2116 207.564 63.643C207.795 63.0377 208.608 62.7071 209.744 62.7625C209.802 62.7659 209.861 62.7707 209.921 62.7762C209.436 62.9634 209.084 63.301 208.906 63.7688C208.637 64.4769 208.806 65.3942 209.367 66.2835C210.523 68.1157 212.918 69.5752 214.941 69.6771C216.37 69.7472 217.408 69.2057 217.789 68.1996C218.129 67.3007 217.908 66.1275 217.182 64.9765C215.559 62.3991 212.04 60.2719 209.175 60.132C207.182 60.0326 205.741 60.759 205.224 62.1284C204.767 63.3354 205.065 64.8708 206.063 66.4527V66.4527ZM241.907 93.3349C243.822 94.1783 245.65 94.4158 247.228 94.0792C248.614 93.7819 249.808 93.037 250.701 91.8654C252.185 89.9109 251.121 87.6685 250.343 86.0316C250.004 85.318 249.561 84.3717 249.623 83.9567C249.95 84.7025 251.829 86.7128 252.116 87.562L253.042 85.4344C251.298 80.3159 246.21 73.3877 238.749 74.4977C239.405 74.4198 246.029 77.7847 248.212 81.307C247.69 81.7272 247.308 82.2238 247.11 82.8181C246.597 84.3607 247.332 85.9116 247.981 87.2778C248.714 88.8188 248.965 89.5342 248.62 89.987C247.452 91.5247 245.343 91.7723 242.835 90.6696C239.456 89.1812 236.394 85.1159 236.148 81.7889C236.103 81.1868 236.166 80.3779 236.727 79.9398C237.324 79.4754 238.382 79.504 239.558 80.0219C239.62 80.0476 239.679 80.0757 239.74 80.1046C239.114 80.0813 238.544 80.2479 238.082 80.6063C237.383 81.1522 237.027 82.0671 237.106 83.1203C237.267 85.2867 238.965 87.6183 241.058 88.5415C242.537 89.1926 243.956 89.1188 244.947 88.3444C245.832 87.6545 246.28 86.4795 246.181 85.1172C245.955 82.0695 243.453 78.6613 240.486 77.3553C238.427 76.4477 236.47 76.5279 235.12 77.5805C233.932 78.5085 233.353 80.0506 233.491 81.92C233.824 86.3895 237.519 91.4033 241.907 93.3349V93.3349ZM273.142 123.436C274.971 124.291 276.706 124.543 278.196 124.219C279.505 123.933 280.627 123.2 281.453 122.038C282.832 120.1 281.789 117.856 281.028 116.215C280.697 115.501 280.264 114.554 280.315 114.14C280.636 114.887 282.447 116.908 282.732 117.755L283.578 115.641C281.85 110.52 276.924 103.571 269.871 104.619C270.493 104.548 276.818 107.955 278.939 111.485C278.45 111.902 278.097 112.394 277.919 112.983C277.453 114.52 278.174 116.072 278.81 117.441C279.526 118.983 279.775 119.698 279.454 120.149C278.37 121.673 276.377 121.903 273.981 120.784C270.759 119.273 267.797 115.194 267.514 111.873C267.462 111.272 267.51 110.465 268.035 110.031C268.594 109.574 269.597 109.61 270.72 110.135C270.778 110.161 270.835 110.191 270.893 110.22C270.3 110.192 269.763 110.354 269.33 110.708C268.676 111.246 268.351 112.158 268.441 113.208C268.626 115.371 270.27 117.71 272.267 118.647C273.68 119.309 275.022 119.245 275.95 118.482C276.778 117.799 277.187 116.63 277.07 115.27C276.813 112.228 274.39 108.809 271.56 107.484C269.595 106.562 267.742 106.627 266.479 107.666C265.366 108.582 264.841 110.116 264.998 111.983C265.379 116.443 268.955 121.475 273.142 123.436V123.436ZM298.949 153.528C300.407 154.705 301.882 155.272 303.228 155.228C304.414 155.187 305.506 154.672 306.407 153.681C307.913 152.031 307.353 149.632 306.946 147.881C306.769 147.117 306.54 146.106 306.649 145.71C306.812 146.502 308.075 148.822 308.189 149.707L309.257 147.785C308.551 142.433 305.344 134.697 299.036 134.43C299.589 134.473 304.568 138.987 305.864 142.846C305.374 143.167 304.99 143.587 304.741 144.132C304.097 145.557 304.482 147.214 304.823 148.677C305.206 150.325 305.309 151.074 304.961 151.457C303.779 152.756 302.006 152.616 300.094 151.074C297.522 148.998 295.58 144.443 295.85 141.126C295.9 140.528 296.068 139.743 296.594 139.413C297.152 139.066 298.02 139.286 298.915 140.009C298.96 140.045 299.007 140.085 299.052 140.123C298.54 139.986 298.047 140.047 297.614 140.315C296.961 140.725 296.537 141.561 296.451 142.611C296.275 144.77 297.341 147.371 298.936 148.661C300.06 149.569 301.24 149.755 302.167 149.175C302.996 148.656 303.534 147.582 303.646 146.223C303.895 143.186 302.319 139.379 300.06 137.556C298.493 136.289 296.868 136.011 295.606 136.802C294.492 137.498 293.796 138.908 293.643 140.773C293.28 145.227 295.609 150.83 298.949 153.528V153.528ZM318.455 183.648C319.971 184.707 321.451 185.158 322.759 185.009C323.911 184.876 324.931 184.278 325.729 183.223C327.059 181.46 326.32 179.113 325.781 177.397C325.545 176.651 325.24 175.661 325.315 175.258C325.538 176.037 326.955 178.248 327.141 179.122L328.023 177.121C326.899 171.845 323.149 164.385 316.987 164.61C317.528 164.609 322.741 168.719 324.318 172.466C323.866 172.823 323.526 173.27 323.33 173.835C322.818 175.304 323.327 176.926 323.777 178.357C324.286 179.97 324.448 180.708 324.14 181.117C323.095 182.504 321.356 182.501 319.37 181.113C316.698 179.245 314.435 174.857 314.429 171.531C314.428 170.929 314.527 170.133 315.012 169.767C315.528 169.376 316.392 169.528 317.321 170.18C317.37 170.212 317.418 170.247 317.464 170.282C316.955 170.185 316.479 170.283 316.08 170.585C315.476 171.043 315.132 171.909 315.134 172.962C315.137 175.128 316.389 177.638 318.045 178.798C319.215 179.616 320.379 179.708 321.236 179.06C321.999 178.477 322.435 177.367 322.433 176.003C322.429 172.958 320.584 169.286 318.238 167.645C316.606 166.504 315.003 166.354 313.838 167.24C312.812 168.02 312.249 169.48 312.251 171.351C312.258 175.818 314.983 181.22 318.455 183.648V183.648ZM346.506 242.559C346.79 242.98 347.081 243.384 347.378 243.766C349.926 247.035 352.962 248.748 355.688 248.39C357.996 248.084 358.062 245.564 358.11 243.721C358.137 242.695 358.168 241.53 358.56 241.29C358.681 241.216 358.895 241.216 359.173 241.272C359.114 242.676 358.682 247.259 358.422 248.487C358.422 248.487 360.032 248.451 361.07 246.426C363.207 240.251 361.531 234.452 353.638 226.202C357.594 231.054 358.757 235.173 359.097 238.701C358.209 238.494 357.493 238.559 356.93 238.904C355.727 239.645 355.681 241.397 355.639 242.939C355.589 244.854 355.455 245.671 354.755 245.763C352.719 246.03 350.401 244.454 348.387 241.449C345.727 237.463 344.712 231.668 346.172 228.796C346.457 228.239 346.983 227.6 347.87 227.728C348.798 227.863 349.888 228.775 350.863 230.241C351.253 230.823 351.584 231.469 351.851 232.137C351.815 232.083 351.78 232.027 351.745 231.975C350.952 230.783 349.931 230.02 348.948 229.877C348.068 229.749 347.325 230.145 346.912 230.96C346.032 232.683 346.543 235.828 348.074 238.122C349.156 239.74 350.518 240.781 351.812 240.969C352.964 241.138 353.905 240.63 354.462 239.538C355.732 237.046 354.977 232.474 352.744 229.133C351.217 226.838 349.311 225.369 347.531 225.108C345.969 224.883 344.69 225.585 343.925 227.089C342.046 230.781 343.18 237.576 346.506 242.559V242.559ZM359.091 271.69C359.328 272.111 359.575 272.511 359.827 272.892C362.001 276.156 364.768 277.966 367.408 277.791C369.642 277.643 369.911 275.247 370.109 273.5C370.217 272.527 370.342 271.42 370.738 271.214C370.861 271.152 371.067 271.165 371.326 271.233C371.155 272.565 370.366 276.896 370.018 278.048C370.018 278.048 371.561 278.11 372.723 276.248C375.274 270.509 374.143 264.894 367.259 256.573C370.651 261.423 371.428 265.409 371.465 268.786C370.631 268.534 369.939 268.553 369.372 268.849C368.16 269.481 367.972 271.14 367.808 272.606C367.603 274.424 367.407 275.19 366.729 275.235C364.756 275.367 362.667 273.73 360.984 270.749C358.761 266.8 358.263 261.228 359.897 258.589C360.216 258.073 360.772 257.499 361.61 257.677C362.487 257.859 363.457 258.792 364.272 260.243C364.598 260.821 364.861 261.455 365.062 262.105C365.033 262.052 365.003 261.997 364.975 261.945C364.312 260.767 363.396 259.977 362.467 259.783C361.636 259.607 360.891 259.94 360.428 260.688C359.446 262.272 359.678 265.294 360.956 267.568C361.86 269.174 363.079 270.244 364.301 270.502C365.393 270.732 366.335 270.305 366.958 269.3C368.378 267.007 368.028 262.616 366.163 259.303C364.89 257.029 363.182 255.518 361.5 255.165C360.025 254.853 358.742 255.445 357.886 256.828C355.783 260.224 356.313 266.753 359.091 271.69V271.69ZM373.599 305.206C373.877 305.637 374.161 306.044 374.454 306.43C376.96 309.731 380.034 311.436 382.87 311.033C385.269 310.691 385.44 308.116 385.566 306.236C385.636 305.188 385.714 303.998 386.13 303.748C386.258 303.668 386.482 303.665 386.766 303.718C386.646 305.154 386.013 309.837 385.695 311.094C385.695 311.094 387.362 311.036 388.521 308.954C390.983 302.621 389.484 296.725 381.647 288.411C385.546 293.311 386.584 297.498 386.792 301.097C385.88 300.898 385.135 300.972 384.54 301.334C383.262 302.107 383.143 303.894 383.039 305.471C382.908 307.426 382.738 308.261 382.009 308.365C379.891 308.664 377.554 307.09 375.592 304.05C372.999 300.016 372.184 294.115 373.814 291.164C374.131 290.589 374.701 289.93 375.614 290.05C376.569 290.176 377.662 291.089 378.612 292.574C378.991 293.162 379.308 293.818 379.556 294.495C379.523 294.438 379.488 294.386 379.453 294.331C378.679 293.125 377.654 292.36 376.644 292.228C375.737 292.109 374.952 292.524 374.491 293.361C373.51 295.13 373.911 298.337 375.403 300.658C376.458 302.296 377.825 303.338 379.156 303.514C380.345 303.669 381.339 303.137 381.958 302.014C383.376 299.45 382.779 294.796 380.604 291.415C379.114 289.093 377.202 287.62 375.369 287.381C373.763 287.171 372.409 287.905 371.556 289.45C369.461 293.246 370.357 300.166 373.599 305.206V305.206ZM347.97 205.285C347.725 204.539 347.407 203.55 347.494 203.145C347.723 203.921 349.234 206.13 349.421 207.002L350.406 204.996C349.259 199.719 345.292 192.27 338.602 192.53C339.188 192.528 344.79 196.614 346.45 200.355C345.955 200.715 345.579 201.164 345.357 201.729C344.783 203.203 345.314 204.824 345.782 206.255C346.311 207.868 346.477 208.605 346.138 209.016C344.984 210.411 343.096 210.416 340.961 209.039C338.087 207.182 335.69 202.801 335.731 199.471C335.738 198.87 335.857 198.072 336.389 197.701C336.953 197.309 337.887 197.455 338.889 198.103C338.94 198.134 338.991 198.169 339.043 198.205C338.49 198.111 337.973 198.212 337.535 198.515C336.875 198.978 336.488 199.849 336.475 200.902C336.451 203.069 337.773 205.574 339.555 206.728C340.813 207.541 342.075 207.627 343.014 206.972C343.851 206.386 344.339 205.271 344.356 203.908C344.392 200.858 342.442 197.19 339.917 195.562C338.164 194.428 336.426 194.286 335.148 195.18C334.025 195.964 333.393 197.43 333.368 199.302C333.316 203.776 336.197 209.168 339.933 211.579C341.564 212.634 343.163 213.076 344.586 212.92C345.837 212.78 346.953 212.177 347.833 211.115C349.299 209.343 348.531 206.999 347.97 205.285V205.285ZM26.9865 13.3522C52.1659 4.29118 79.7888 -4.00281 116.114 2.62761C125.484 4.33599 134.908 5.78113 144.021 7.17814C170.802 11.2856 196.096 15.1636 215.396 24.9575C219.17 26.873 223.44 28.9933 228.066 31.2889C254.212 44.2657 293.723 63.8776 316.615 83.437C341.021 104.289 361.519 129.171 377.542 157.393C384.887 170.332 394.936 188.582 403.182 204.062C403.946 206.167 404.995 207.968 406.102 209.571C408.74 214.574 411.103 219.137 413.014 222.945C413.028 223.13 413.058 223.296 413.067 223.487C413.144 225.052 411.727 228.707 411.064 230.367C410.372 231.467 409.886 232.653 409.617 233.901C407.739 238.456 406.405 241.97 406.214 245.272C406.001 248.918 407.554 252.362 409.056 255.693C410.148 258.113 411.275 260.613 411.46 262.658C411.923 267.784 411.337 268.48 410.657 269.288C408.628 271.701 406.81 274.432 406.851 281.279C406.888 287.181 409.662 291.432 411.892 294.848C413.378 297.123 414.547 298.913 414.494 300.372C414.478 300.795 414.394 300.992 412.581 302.687C409.668 305.414 405.267 309.53 404.066 318.953C404.049 319.084 404.048 319.23 404.033 319.365C403.361 318.962 402.627 318.634 401.695 318.296C401.159 318.103 400.505 317.866 399.635 317.483C399.149 317.268 398.905 317.017 399.075 313.998C399.124 313.121 399.173 312.238 399.125 311.351C399.134 311.343 399.142 311.333 399.151 311.323C403.186 306.903 400.2 302.363 398.764 300.181C396.297 296.43 393.925 295.294 392.447 294.737C392.442 294.508 392.445 294.222 392.46 293.861C392.528 292.201 392.875 290.614 393.18 289.214C393.77 286.52 394.377 283.74 392.664 281.319C390.971 278.928 387.985 278.554 387.003 278.432C385.072 278.189 383.431 278.22 382.076 278.337C383.401 274.187 385.096 268.257 381.663 264.037C380.669 262.819 379.902 261.792 379.23 260.894C378.043 259.306 377.038 257.963 375.624 256.633C376.79 255.024 377.877 252.454 376.902 248.527C375.746 243.866 372.556 242.672 369.957 242.466C371.949 239.29 374.283 234.466 370.117 228.458C368.513 226.145 367.852 224.754 367.416 223.833C367.006 222.965 366.579 222.061 365.636 221.236L365.471 221.094L365.294 220.967C364.074 220.1 362.815 219.937 360.911 219.691C357.005 219.184 356.679 218.853 356.113 217.076C356.235 216.912 356.406 216.7 356.543 216.53C358.424 214.212 360.291 211.259 358.704 205.482C356.389 197.072 352.677 192.393 349.967 188.976C347.328 185.649 344.364 186.115 342.939 186.34C342.014 186.487 341.957 186.495 341.391 186.099C340.304 185.335 339.444 184.871 338.93 184.594C338.788 184.517 338.657 184.451 338.539 184.377C338.239 183.702 337.752 181.697 337.584 181.006C335.953 174.304 334.1 169.972 332.138 165.385C331.789 164.569 331.578 163.921 331.393 163.349C329.822 158.522 326.397 158.466 323.085 158.41C320.746 158.374 319.266 158.077 318.447 157.811C319.423 154.288 321.061 147.568 315.759 142.956C315.61 142.826 315.506 142.721 315.434 142.641C315.466 142.529 315.504 142.396 315.535 142.288C316.225 139.942 316.52 136.873 312.66 133.92C307.68 130.11 306.491 129.473 301.097 127.742C298.776 126.996 297.01 126.967 295.843 126.948C295.482 126.945 295.224 126.934 295.063 126.919C294.935 126.773 294.674 126.436 294.287 125.735C293.335 124.006 293.36 123.556 293.428 122.359C293.508 120.985 293.616 119.105 292.786 115.894C292.569 115.05 292.379 114.241 292.197 113.474C291.046 108.588 289.959 103.975 283.958 100.922C282.662 100.262 281.877 99.7857 281.246 99.4044C278.53 97.7549 277.296 97.8013 273.206 97.954C272.108 97.9962 271.152 98.0538 270.241 98.1102C269.46 98.1581 268.166 98.238 267.526 98.1906C266.953 97.2138 266.556 96.1644 266.007 94.7179C265.454 93.2601 264.7 91.2687 263.464 88.6119C262.675 86.9172 262.401 85.7526 262.135 84.6267C261.534 82.0851 260.892 80.0336 258.066 76.7294C257.526 76.0981 257.066 75.546 256.66 75.056C253.376 71.1014 252.228 70.3467 246.418 68.3156C242.992 67.1207 241.512 66.9594 240.177 66.8917C239.576 66.8608 239.247 66.8446 237.418 66.0096C234.945 64.8825 233.33 64.5525 232.149 64.3118C231.01 64.0786 230.891 64.0542 230.087 63.2511C229.149 62.3124 229.015 62.0109 228.723 61.3508C228.225 60.2235 227.647 59.0565 226.061 57.2008C225.568 56.6221 225.195 56.1587 224.887 55.7776C222.811 53.1956 221.945 52.7887 218.192 51.2873C216.939 50.7869 216.129 50.1216 215.273 49.4184C213.787 48.1978 211.306 46.163 207.643 47.7298C207.375 47.8442 207.083 47.9865 206.761 48.1638C206.156 48.4949 205.602 48.8686 205.099 49.2518C204.521 47.2151 203.587 45.1327 201.075 41.5225C196.979 35.6327 193.441 30.5457 185.436 28.8745C180.277 27.7969 178.817 27.8974 176.239 28.4323C175.687 28.5456 175.037 28.6821 174.14 28.8075C173.001 28.9645 172.145 29.1733 171.456 29.3407C171.267 29.3866 170.783 29.5058 170.547 29.5359C170.364 29.4519 169.834 29.1517 168.687 28.1669C167.536 27.1807 166.713 26.2507 165.843 25.2668C163.874 23.043 161.841 20.7494 156.775 18.4848C155.833 18.0637 155.023 17.6802 154.293 17.3365C149.338 14.9903 147.458 14.344 140.517 16.1549C139.405 16.4464 138.437 16.7691 137.558 17.145C135.902 17.8535 134.934 18.5994 134.356 19.0449C134.345 19.0527 134.334 19.0604 134.324 19.0696C133.986 19.0159 133.316 18.8727 132.033 18.4905C129.388 17.7012 127.672 17.4646 126.536 17.3068C126.393 17.288 126.087 17.246 125.859 17.2066C125.718 17.0259 125.471 16.6801 125.064 16.0268C124.542 15.1898 124.171 14.5321 123.872 14.0044C122.254 11.1429 121.195 10.3014 117.899 9.2476C114.194 8.06398 112.565 8.35936 107.728 9.23601C106.744 9.41452 105.695 9.60347 104.463 9.81593C100.927 10.4252 98.8733 11.2503 97.5145 11.7969C97.4767 11.8115 97.4234 11.8342 97.3589 11.8602C94.2616 8.89071 91.8923 7.45021 86.2995 6.81112C85.4813 6.71748 85.2573 6.55843 84.7677 6.2094C82.8446 4.83604 80.7305 4.62188 78.4933 5.5787C77.6105 5.9563 76.615 6.54565 75.0582 7.6126C72.485 9.37851 71.0255 10.7908 70.0579 11.7253C69.9374 11.8413 69.6943 12.0759 69.4872 12.262C69.3884 12.2445 69.2654 12.2184 69.1145 12.1823C65.9393 11.4137 64.7761 10.9957 62.2255 10.0778L61.3091 9.75096C60.9388 9.6183 60.5993 9.48354 60.2811 9.35849C58.4898 8.65073 56.032 7.68072 52.4939 9.19397C51.3953 9.66384 50.2013 10.3601 48.623 11.4504C47.226 12.416 46.2975 13.1434 45.6834 13.6263C45.3722 13.8711 45.1726 14.0194 45.0432 14.1109C44.5884 14.112 43.7391 14.0599 43.2885 14.034L42.3093 13.9762C39.3431 13.8103 37.5023 13.8708 35.6473 14.6642C35.3224 14.8032 35.008 14.9628 34.6543 15.1487C34.3891 15.2873 34.0814 15.4519 33.666 15.6296C33.4982 15.7014 33.3114 15.7765 33.0998 15.8528C32.5286 16.0641 31.9599 16.2885 31.3926 16.5312C23.9795 19.7018 22.1627 23.9064 22.0359 27.061L21.5607 29.4082C23.384 28.5592 24.9443 27.681 26.4239 26.776C26.6998 24.8837 28.2704 22.5855 33.0988 20.5204C33.5969 20.3074 34.0952 20.11 34.5868 19.9296C34.8785 19.8237 35.1391 19.7185 35.3722 19.6188C35.9221 19.3836 36.3287 19.1704 36.6771 18.9868C36.9176 18.8604 37.1312 18.7485 37.3535 18.6534C38.3176 18.2411 39.4162 18.1614 42.052 18.3098L43.0255 18.3653C45.1482 18.4924 45.8978 18.5068 46.6356 18.1913C47.1123 17.9874 47.6125 17.6287 48.3649 17.0379C48.9735 16.5605 49.8075 15.9066 51.0901 15.0198C52.4037 14.1135 53.3904 13.5295 54.2 13.1832C56.0949 12.3728 57.181 12.8017 58.684 13.3952C59.0388 13.5361 59.4223 13.685 59.8413 13.8361L60.7513 14.1627C63.3756 15.1056 64.6907 15.5766 68.0896 16.4005C69.4298 16.7239 70.3169 16.7283 71.0573 16.4117C71.7165 16.1298 72.3111 15.5828 73.0764 14.8418C73.9903 13.9586 75.2423 12.7499 77.5144 11.1898C78.7863 10.3186 79.6136 9.81852 80.1995 9.56793C81.2382 9.12369 81.7407 9.38533 82.2464 9.74634C82.932 10.2333 83.8719 10.9025 85.8009 11.122C90.4846 11.6575 91.9614 12.687 94.4452 15.0837C96.2876 16.8612 97.2131 16.5944 99.1323 15.8223C100.396 15.3149 102.119 14.622 105.197 14.092C106.478 13.8714 107.563 13.6748 108.497 13.5064C113.184 12.6565 113.899 12.5268 116.572 13.3812C118.847 14.1085 119.012 14.2375 120.081 16.1275C120.405 16.6982 120.809 17.4128 121.376 18.3232C123.119 21.1201 123.711 21.2996 125.937 21.6072C127.007 21.7553 128.463 21.9552 130.785 22.6483C133.622 23.4955 134.854 23.6291 135.856 23.2008C136.191 23.0573 136.536 22.8423 137.005 22.4812C137.474 22.12 138.117 21.6252 139.264 21.1342C139.941 20.8449 140.709 20.5889 141.612 20.3537C147.354 18.8558 148.217 19.2651 152.372 21.2316C153.14 21.5938 153.995 21.9987 154.998 22.4474C159.208 24.3277 160.774 26.0948 162.585 28.142C163.519 29.1958 164.478 30.2803 165.856 31.462C169.096 34.2384 170.16 34.1217 172.462 33.5615C173.092 33.4087 173.803 33.2348 174.737 33.1045C175.752 32.9629 176.489 32.8113 177.118 32.6806C178.947 32.3011 179.782 32.1281 184.543 33.1231C190.563 34.3798 193.261 37.8948 197.508 44.0015C200.467 48.2539 200.825 49.8655 201.283 51.9067C201.43 52.5687 201.585 53.259 201.834 54.0715C202.031 54.7092 202.385 55.5817 203.185 55.7883C203.506 55.8714 203.81 55.8452 204.139 55.7046C204.726 55.4534 205.345 54.8613 206.002 54.2345C206.814 53.4561 207.734 52.5764 208.861 51.9611C209.039 51.8627 209.201 51.7822 209.349 51.719C210.586 51.1899 211.228 51.7177 212.511 52.7701C213.49 53.5751 214.7 54.5681 216.573 55.3176C219.933 56.6603 220.064 56.7128 221.482 58.4738C221.815 58.8881 222.219 59.3915 222.755 60.0194C224.06 61.5456 224.426 62.3753 224.749 63.1072C225.136 63.9843 225.501 64.8068 227.012 66.3185C228.738 68.0451 229.857 68.2732 231.273 68.5622C232.358 68.7843 233.586 69.0343 235.608 69.9566C238.068 71.0797 238.86 71.1705 239.948 71.2256C240.798 71.2699 241.856 71.3207 244.98 72.413C250.235 74.2492 250.634 74.6007 253.315 77.827C253.731 78.3299 254.205 78.8983 254.762 79.5501C257.125 82.313 257.469 83.7753 257.906 85.6267C258.193 86.8381 258.548 88.3471 259.524 90.4449C260.691 92.9487 261.385 94.7803 261.942 96.2532C262.552 97.8595 263.031 99.1224 263.801 100.429C265.129 102.681 266.706 102.677 270.461 102.444C271.354 102.389 272.289 102.332 273.367 102.291C277.234 102.146 277.386 102.14 278.968 103.102C279.626 103.499 280.527 104.048 281.983 104.789C286.193 106.931 286.898 109.931 287.969 114.472C288.157 115.268 288.353 116.106 288.581 116.985C289.241 119.537 289.162 120.907 289.092 122.113C289.002 123.668 288.925 125.008 290.483 127.832C292.275 131.081 293.59 131.257 295.76 131.288C296.788 131.305 298.05 131.323 299.765 131.875C304.666 133.449 305.432 133.859 310.017 137.367C311.915 138.819 311.776 139.677 311.368 141.069C310.968 142.425 310.472 144.114 312.905 146.231C316.075 148.988 315.214 153.253 314.157 157.032C314.055 157.391 313.967 157.712 313.898 157.982C313.693 158.817 313.853 159.585 314.374 160.262C315.555 161.796 318.621 162.679 323.009 162.751C326.164 162.802 326.648 162.81 327.257 164.684C327.462 165.312 327.715 166.093 328.143 167.094C330.032 171.51 331.817 175.683 333.363 182.035C334.54 186.874 334.9 187.346 336.861 188.412C337.35 188.676 338.021 189.041 338.893 189.651C340.896 191.056 342.403 190.818 343.611 190.626C344.885 190.426 345.54 190.386 346.559 191.671C349.177 194.97 352.434 199.076 354.514 206.635C355.644 210.747 354.389 212.297 353.174 213.795C352.235 214.951 351.266 216.141 351.909 218.196C353.342 222.769 356.053 223.437 360.35 223.995C362.045 224.214 362.499 224.309 362.772 224.504C363.011 224.712 363.134 224.939 363.49 225.695C363.958 226.68 364.738 228.327 366.545 230.93C369.516 235.217 367.562 238.21 365.672 241.106C364.774 242.483 363.929 243.777 363.858 245.063C363.825 245.701 363.993 246.2 364.361 246.543C365.047 247.183 366.129 247.05 367.383 246.896C370.017 246.573 371.942 246.576 372.685 249.577C373.494 252.835 372.143 254.172 371.156 255.15C370.485 255.813 370.049 256.298 370.098 257.001C370.147 257.716 370.713 258.225 371.201 258.589C373.195 260.08 374.211 261.439 375.75 263.494C376.453 264.433 377.254 265.503 378.291 266.777C380.401 269.37 378.872 274.117 377.757 277.582C377.255 279.145 376.863 280.368 376.841 281.216C376.836 281.506 376.818 282.27 377.371 282.751C377.973 283.279 378.81 283.175 380.241 282.949C381.723 282.714 383.739 282.398 386.462 282.739C387.851 282.912 388.721 283.269 389.118 283.829C389.696 284.646 389.426 286.055 388.938 288.285C388.611 289.782 388.205 291.645 388.12 293.684C387.956 297.554 388.83 298.05 390.519 298.655C391.646 299.058 393.189 299.612 395.133 302.567C397.332 305.91 397.16 307.067 395.944 308.4C395.35 309.051 394.612 309.86 394.761 311.261C394.838 311.989 394.789 312.847 394.738 313.757C394.583 316.503 394.39 319.915 397.875 321.453C398.864 321.889 399.606 322.158 400.211 322.376C401.84 322.966 402.386 323.222 404.113 325.364C404.223 326.268 404.36 327.175 404.55 328.078C404.572 328.86 404.687 329.986 405.172 331.054C404.459 331.232 403.711 331.462 402.942 331.73C401.242 329.008 398.499 326.241 394.432 323.22C398.121 326.468 399.994 329.578 401.047 332.456C399.859 332.968 398.662 333.585 397.459 334.297C397.363 331.717 396.047 328.587 393.953 326.339C392.076 324.319 389.937 323.199 388.101 323.275C386.491 323.342 385.299 324.293 384.743 325.951C383.418 329.897 385.385 336.238 389.224 340.618C388.501 341.299 387.776 342.001 387.051 342.75C386.845 342.975 386.668 343.194 386.481 343.415C385.968 342.89 385.459 342.385 384.958 341.894C382.144 339.143 379.488 336.545 377.092 330.339C374.889 324.629 376.536 322.24 377.858 320.32C378.903 318.8 379.659 317.703 378.656 314.646C377.644 311.565 375.502 310.035 372.79 308.099C369.273 305.588 364.894 302.461 361.861 294.79C358.76 286.95 359.768 284.402 360.656 282.151C361.251 280.645 361.724 279.455 360.551 276.002C360.192 274.946 359.752 274.244 359.341 274.078C358.818 273.868 357.823 274.375 356.946 274.824C355.667 275.481 354.083 276.292 352.63 275.401C351.213 274.531 350.641 272.483 350.658 268.327C350.674 263.818 351.277 261.221 352.613 259.903C353.326 259.198 354.109 258.994 354.724 258.937C354.651 258.657 354.543 258.282 354.38 257.78C353.202 254.161 349.424 250.498 345.768 246.955C342.471 243.759 339.359 240.74 337.806 237.561C335.867 233.589 337.266 230.963 338.288 229.046C339.223 227.288 339.74 226.32 338.529 224.469C336.102 220.757 331.281 212.163 324.59 199.619C323.152 196.928 320.274 194.548 317.491 192.251C314.31 189.624 311.02 186.906 309.561 183.496C308.598 181.244 307.993 179.322 307.459 177.627C306.573 174.811 305.874 172.589 303.94 170.21C302.493 168.433 300.559 167.129 298.689 165.87C296.441 164.355 294.315 162.924 293.153 160.769C292.411 159.397 292.212 157.281 291.959 154.604C291.461 149.315 290.776 142.071 285.599 136.463C281.53 132.059 278.938 131.288 275.936 130.397C273.294 129.611 270.298 128.721 266.283 125.219C261.989 121.473 260.286 117.097 258.781 113.236C257.281 109.382 255.985 106.054 252.496 103.779C248.853 101.403 246.997 100.783 245.031 100.128C242.955 99.4364 240.603 98.6521 236.131 95.8601C230.002 92.0338 229.319 85.7996 228.822 81.2479C228.61 79.3216 228.392 77.3294 227.77 76.7082C226.987 75.9231 223.15 75.8354 220.066 75.7637C214.411 75.6329 208.001 75.4848 204.025 72.5166C200.517 69.8974 200.086 66.7184 199.74 64.1626C199.382 61.5219 199.167 59.9278 196.189 58.9602C192.003 57.6011 189.286 57.376 186.408 57.1375C184.414 56.9726 182.353 56.8004 179.79 56.2403C176.085 55.4293 174.909 52.1882 173.772 49.0536C172.671 46.0217 171.534 42.8852 168.084 41.3829C164.594 39.862 161.095 40.2714 157.39 40.7048C153.452 41.1653 149.379 41.6424 145.275 39.6965C141.969 38.1268 138.787 35.6493 135.713 33.2521C131.888 30.2714 128.275 27.4562 125.483 27.2928C123.309 27.1639 122.187 27.8326 120.635 28.7624C118.677 29.9315 116.241 31.3872 111.233 31.4702C106.388 31.5493 101.911 28.9073 97.9602 26.5764C94.479 24.5213 91.1901 22.5807 88.3333 22.8179C87.9787 22.8469 87.6957 22.8813 87.4703 22.9179C87.8701 23.4658 88.332 24.2954 87.8799 25.2124C87.2901 26.4005 85.765 26.4882 84.2529 26.4774C80.1252 26.4464 78.228 23.8853 76.8399 22.0173C75.6255 20.3786 75.2136 19.99 74.4217 20.1714C73.1733 20.4568 71.4954 21.4687 69.5529 22.6393C66.0035 24.7818 61.5819 27.4484 56.2425 27.8917C52.1868 28.2279 48.7067 26.5547 45.6369 25.0787C41.8799 23.2737 39.4459 22.2416 36.9645 23.6254C34.6751 24.9018 32.8125 26.1121 31.0134 27.2827C28.1093 29.1697 25.3671 30.9529 21.3696 32.6626C17.5531 34.2949 13.7565 34.3347 10.4053 34.3697C7.96663 34.395 5.66302 34.4191 3.77897 35.0708C1.8506 35.7367 0.770789 34.8473 0.431087 33.8837C-0.767061 30.4857 7.30925 20.439 26.9865 13.3522Z"/>
</svg>
