<svg width="197" height="41" viewBox="0 0 197 41" fill="none" xmlns="http://www.w3.org/2000/svg">
<path d="M167.609 27.8044C151.652 23.5649 139.906 21.3957 124.289 21.2609C111.482 21.1432 101.22 24.3815 90.2195 28.6999C81.0725 32.2902 65.1722 35.3255 60.1011 33.0979C70.4413 34.5498 80.223 31.5169 89.2596 27.9703C99.9295 23.782 110.97 19.457 124.09 19.5641C139.923 19.7008 152.618 23.0735 168.692 27.3417C176.881 29.517 187.323 35.1273 196.976 34.2645C194.113 37.2878 175.817 29.984 167.609 27.8044" fill="#75787B" fill-opacity="0.6"/>
<path d="M135.528 18.8219C119.572 14.5825 107.826 12.4133 92.2092 12.2785C79.4024 12.1608 69.1398 15.3991 58.1394 19.7175C48.9924 23.3078 33.0922 26.3431 28.021 24.1155C38.3612 25.5674 48.143 22.5345 57.1795 18.9878C67.8494 14.7996 78.8897 10.4745 92.0103 10.5817C107.843 10.7184 120.538 14.0911 136.612 18.3593C144.801 20.5346 155.243 26.1449 164.896 25.2821C162.033 28.3054 143.737 21.0016 135.528 18.8219" fill="#75787B" fill-opacity="0.3"/>
<path d="M107.94 11.1227C91.9833 6.88328 80.2368 4.71406 64.6204 4.57924C51.8135 4.46153 41.5509 7.69985 30.5506 12.0182C21.4036 15.6086 5.50328 18.6438 0.432127 16.4163C10.7723 17.8682 20.5541 14.8352 29.5907 11.2886C40.2605 7.1004 51.3008 2.77532 64.4215 2.88249C80.2537 3.01917 92.9495 6.39184 109.023 10.6601C117.212 12.8354 127.654 18.4457 137.307 17.5829C134.444 20.6062 116.148 13.3024 107.94 11.1227" fill="#75787B"/>
</svg>
