<svg width="143" height="30" viewBox="0 0 143 30" fill="none" xmlns="http://www.w3.org/2000/svg">
<path d="M121.665 20.2078C110.082 17.1305 101.556 15.5559 90.2199 15.458C80.9236 15.3725 73.4741 17.7232 65.4891 20.8579C58.8494 23.464 47.3075 25.6673 43.6264 24.0504C51.1323 25.1043 58.2328 22.9027 64.7923 20.3282C72.5374 17.2881 80.5514 14.1485 90.0756 14.2263C101.568 14.3255 110.784 16.7737 122.452 19.872C128.396 21.451 135.975 25.5235 142.982 24.8972C140.904 27.0918 127.623 21.79 121.665 20.2078" fill="#75787B"/>
<path d="M98.3787 13.6873C86.7962 10.61 78.2696 9.03534 66.9338 8.93748C57.6375 8.85204 50.188 11.2027 42.2029 14.3374C35.5632 16.9435 24.0214 19.1468 20.3403 17.5299C27.8462 18.5837 34.9466 16.3822 41.5062 13.8077C49.2513 10.7676 57.2653 7.62803 66.7894 7.70583C78.2818 7.80504 87.4976 10.2532 99.1654 13.3515C105.11 14.9305 112.689 19.003 119.696 18.3767C117.618 20.5712 104.337 15.2695 98.3787 13.6873" fill="#75787B" fill-opacity="0.4"/>
<path d="M78.3524 8.09845C66.7699 5.02109 58.2432 3.44648 46.9074 3.34861C37.6111 3.26317 30.1616 5.61383 22.1766 8.7485C15.5369 11.3547 3.99504 13.5579 0.313949 11.941C7.81979 12.9949 14.9203 10.7933 21.4798 8.21887C29.2249 5.1787 37.2389 2.03917 46.7631 2.11697C58.2555 2.21617 67.4712 4.66436 79.1391 7.76263C85.0832 9.34165 92.6627 13.4141 99.6698 12.7878C97.5916 14.9824 84.3109 9.68064 78.3524 8.09845" fill="#75787B" fill-opacity="0.6"/>
</svg>
