<svg width="197" height="41" viewBox="0 0 197 41" fill="none" xmlns="http://www.w3.org/2000/svg">
<path d="M167.609 27.8034C151.652 23.5639 139.906 21.3947 124.289 21.2599C111.482 21.1422 101.22 24.3805 90.2195 28.6989C81.0725 32.2892 65.1722 35.3245 60.1011 33.097C70.4413 34.5488 80.223 31.5159 89.2596 27.9693C99.9295 23.7811 110.97 19.456 124.09 19.5632C139.923 19.6998 152.618 23.0725 168.692 27.3408C176.881 29.516 187.323 35.1263 196.976 34.2635C194.113 37.2868 175.817 29.983 167.609 27.8034" fill="#75787B" fill-opacity="0.3"/>
<path d="M135.528 18.821C119.572 14.5815 107.826 12.4123 92.2092 12.2775C79.4024 12.1598 69.1398 15.3981 58.1394 19.7165C48.9924 23.3068 33.0922 26.3421 28.021 24.1145C38.3612 25.5664 48.143 22.5335 57.1795 18.9869C67.8494 14.7986 78.8897 10.4736 92.0103 10.5807C107.843 10.7174 120.538 14.0901 136.612 18.3583C144.801 20.5336 155.243 26.1439 164.896 25.2811C162.033 28.3044 143.737 21.0006 135.528 18.821" fill="#75787B"/>
<path d="M107.94 11.1217C91.9833 6.8823 80.2368 4.71308 64.6204 4.57826C51.8135 4.46056 41.5509 7.69888 30.5506 12.0173C21.4036 15.6076 5.50328 18.6429 0.432127 16.4153C10.7723 17.8672 20.5541 14.8343 29.5907 11.2876C40.2605 7.09943 51.3008 2.77434 64.4215 2.88152C80.2537 3.01819 92.9495 6.39086 109.023 10.6591C117.212 12.8344 127.654 18.4447 137.307 17.5819C134.444 20.6052 116.148 13.3014 107.94 11.1217" fill="#75787B" fill-opacity="0.5"/>
</svg>
