<svg width="123" height="25" viewBox="0 0 123 25" fill="none" xmlns="http://www.w3.org/2000/svg">
<path d="M21.3481 6.99562C32.3914 3.5957 40.5461 1.75835 51.4631 1.2387C60.4157 0.806448 67.6803 2.79107 75.491 5.51089C81.9857 7.77271 93.1874 9.461 96.6729 7.76493C89.4817 9.06228 82.5587 7.20815 76.1423 4.97447C68.5673 2.33727 60.7283 -0.386736 51.5558 0.0461116C40.488 0.573551 31.7017 3.27841 20.5776 6.70227C14.9105 8.44683 7.76162 12.6544 0.987527 12.3149C3.07154 14.3504 15.6672 8.74437 21.3481 6.99562" fill="#75787B" fill-opacity="0.3"/>
<path d="M43.5238 14.2403C53.4217 11.2477 60.7306 9.63053 70.5153 9.17314C78.5395 8.79268 85.0505 10.5395 92.0512 12.9334C97.8723 14.9242 107.912 16.4102 111.036 14.9174C104.591 16.0593 98.3858 14.4273 92.6349 12.4613C85.8456 10.1401 78.8196 7.74246 70.5985 8.12345C60.6785 8.58769 52.8035 10.9685 42.8332 13.9821C37.7538 15.5176 31.3464 19.221 25.2749 18.9222C27.1427 20.7138 38.4321 15.7795 43.5238 14.2403" fill="#75787B"/>
<path d="M74.0475 20.3977C81.0952 18.2431 86.2995 17.0787 93.2666 16.7493C98.9801 16.4754 103.616 17.7331 108.601 19.4568C112.746 20.8901 119.895 21.9601 122.119 20.8852C117.53 21.7074 113.112 20.5324 109.017 19.1168C104.182 17.4455 99.1796 15.7193 93.3258 15.9936C86.2624 16.3278 80.6551 18.042 73.5558 20.2118C69.9391 21.3174 65.3767 23.9838 61.0535 23.7687C62.3835 25.0586 70.422 21.5059 74.0475 20.3977" fill="#75787B" fill-opacity="0.5"/>
</svg>
