<svg width="349" height="75" viewBox="0 0 349 75" fill="none" xmlns="http://www.w3.org/2000/svg">
<path d="M285.48 38.0566C280.376 34.4041 276.447 32.6155 271.498 32.1845C267.439 31.8242 264.094 33.7115 260.659 36.863C257.803 39.4837 255.286 40.5511 251.339 41.4314C253.25 41.4515 257.621 38.1917 260.443 35.6035C263.774 32.547 267.222 29.3912 271.38 29.7491C276.397 30.1867 280.458 33.0925 285.6 36.7701C288.219 38.645 291.188 40.7687 294.64 42.7811C294.64 42.7811 288.105 39.9347 285.48 38.0566Z" fill="#75787B"/>
<path d="M257.746 49.4497C252.99 45.838 249.33 44.067 244.725 43.6334C240.948 43.2711 237.838 45.127 234.647 48.2299C231.993 50.8102 229.653 51.8588 225.982 52.7204C227.76 52.7435 231.822 49.5354 234.444 46.9871C237.538 43.9778 240.741 40.8707 244.611 41.2308C249.28 41.6711 253.064 44.5444 257.855 48.1809C260.296 50.0348 263.062 52.1347 266.278 54.1257C266.278 54.1257 260.192 51.3068 257.746 49.4497Z" fill="#75787B" fill-opacity="0.5"/>
<path d="M98.5539 33.3374C92.4392 29.2407 87.6722 27.1534 81.5614 26.4234C76.5502 25.8175 72.2915 27.5948 67.8467 30.6846C64.1509 33.2542 60.9673 34.2238 56.0218 34.9174C58.3892 35.0468 64.0017 31.8971 67.6527 29.3596C71.9633 26.363 76.424 23.2693 81.5587 23.8783C87.754 24.6191 92.6184 27.8783 98.7775 32.0032C101.915 34.106 105.472 36.488 109.634 38.7814C109.634 38.7814 101.698 35.4438 98.5539 33.3374Z" fill="#75787B" fill-opacity="0.5"/>
<path d="M163.338 43.7232C158.098 39.3862 154.018 37.1962 148.797 36.4831C144.516 35.8906 140.888 37.8544 137.109 41.2333C133.966 44.0432 131.253 45.1249 127.034 45.9303C129.056 46.0414 133.832 42.5842 136.937 39.8093C140.602 36.5323 144.395 33.1491 148.782 33.7435C154.075 34.4672 158.244 37.9176 163.522 42.2844C166.212 44.5106 169.26 47.0323 172.824 49.4514C172.824 49.4514 166.033 45.9532 163.338 43.7232Z" fill="#75787B" fill-opacity="0.6"/>
<path d="M324.997 42.0329C317.318 37.3875 311.348 35.0407 303.723 34.2734C297.471 33.636 292.191 35.7348 286.699 39.3477C282.132 42.3523 278.18 43.5077 272.028 44.3663C274.98 44.4868 281.926 40.7908 286.438 37.8237C291.764 34.3197 297.276 30.7021 303.682 31.3417C311.412 32.1203 317.521 35.816 325.256 40.4933C329.196 42.8777 333.663 45.5788 338.882 48.1704C338.882 48.1704 328.945 44.4214 324.997 42.0329Z" fill="#75787B" fill-opacity="0.5"/>
<path d="M223.589 45.8267C216.78 40.3867 211.482 37.6437 204.711 36.7614C199.159 36.0282 194.463 38.5082 189.575 42.7684C185.511 46.3111 181.997 47.6791 176.531 48.7039C179.152 48.838 185.332 44.4766 189.347 40.9779C194.087 36.8462 198.993 32.5806 204.682 33.3159C211.547 34.2114 216.964 38.5392 223.823 44.0166C227.317 46.8089 231.278 49.972 235.908 53.0045C235.908 53.0045 227.09 48.6238 223.589 45.8267Z" fill="#75787B" fill-opacity="0.3"/>
<path d="M185.312 51.8056C180.64 48.0729 177.005 46.1908 172.359 45.5854C168.549 45.0823 165.328 46.784 161.974 49.7071C159.185 52.138 156.774 53.0767 153.023 53.7798C154.822 53.8718 159.062 50.8792 161.817 48.4786C165.07 45.6436 168.436 42.7167 172.339 43.2213C177.05 43.8357 180.767 46.8053 185.473 50.5636C187.871 52.4796 190.588 54.6499 193.765 56.7307C193.765 56.7307 187.715 53.7249 185.312 51.8056Z" fill="#75787B"/>
<path d="M129.078 66.1653C126.024 64.3187 123.649 63.3858 120.617 63.0808C118.13 62.8274 116.03 63.6617 113.846 65.0979C112.03 66.2922 110.458 66.7515 108.011 67.0928C109.185 67.1407 111.948 65.6715 113.742 64.4921C115.86 63.0992 118.053 61.6612 120.601 61.9154C123.675 62.2249 126.104 63.694 129.181 65.5533C130.748 66.5012 132.524 67.5749 134.6 68.6051C134.6 68.6051 130.648 67.1148 129.078 66.1653Z" fill="#75787B"/>
<path d="M293.238 56.8805C291.175 55.6331 289.571 55.0029 287.523 54.7968C285.843 54.6257 284.425 55.1892 282.949 56.1594C281.722 56.9662 280.66 57.2764 279.008 57.507C279.801 57.5393 281.667 56.5469 282.879 55.7501C284.31 54.8093 285.791 53.8379 287.512 54.0096C289.588 54.2187 291.23 55.2111 293.308 56.467C294.366 57.1073 295.566 57.8326 296.969 58.5285C296.969 58.5285 294.299 57.5218 293.238 56.8805Z" fill="#75787B"/>
<path d="M71.1079 53.6203C68.6233 52.1181 66.6917 51.3591 64.2249 51.111C62.2019 50.9049 60.4936 51.5836 58.7167 52.7519C57.2392 53.7235 55.9604 54.0971 53.9701 54.3748C54.9251 54.4137 57.1725 53.2186 58.6321 52.2591C60.3554 51.126 62.1388 49.9561 64.2116 50.1629C66.7125 50.4148 68.689 51.6099 71.1916 53.1224C72.4666 53.8935 73.9117 54.767 75.6005 55.605C75.6005 55.605 72.3853 54.3927 71.1079 53.6203Z" fill="#75787B" fill-opacity="0.5"/>
<path d="M21.0779 39.1653C18.0238 37.3187 15.6493 36.3858 12.6169 36.0808C10.1302 35.8274 8.03033 36.6617 5.846 38.0979C4.02976 39.2922 2.45788 39.7515 0.0113217 40.0928C1.18522 40.1407 3.94783 38.6715 5.74207 37.4921C7.86044 36.0992 10.0526 34.6612 12.6006 34.9154C15.6749 35.2249 18.1045 36.694 21.1808 38.5533C22.748 39.5012 24.5245 40.5749 26.6004 41.6051C26.6004 41.6051 22.6482 40.1148 21.0779 39.1653Z" fill="#75787B"/>
<path d="M123.312 41.8056C118.64 38.0729 115.005 36.1908 110.359 35.5854C106.549 35.0823 103.328 36.784 99.9737 39.7071C97.1849 42.138 94.7739 43.0767 91.023 43.7798C92.8218 43.8718 97.0621 40.8792 99.8171 38.4786C103.07 35.6436 106.436 32.7167 110.339 33.2213C115.05 33.8357 118.767 36.8053 123.473 40.5636C125.871 42.4796 128.588 44.6499 131.765 46.7307C131.765 46.7307 125.715 43.7249 123.312 41.8056Z" fill="#75787B"/>
<path d="M59.3135 18.8124C54.6411 15.0798 51.0062 13.1976 46.3603 12.5923C42.5503 12.0892 39.3285 13.7909 35.9746 16.714C33.1859 19.1449 30.7749 20.0835 27.0239 20.7867C28.8228 20.8787 33.0631 17.8861 35.818 15.4854C39.0707 12.6505 42.4366 9.72354 46.3404 10.2281C51.0505 10.8425 54.7675 13.8121 59.4739 17.5704C61.8716 19.4864 64.5894 21.6568 67.7663 23.7376C67.7663 23.7376 61.7159 20.7317 59.3135 18.8124Z" fill="#75787B"/>
<path d="M58.8738 5.31548C56.1422 3.13329 54.0172 2.03298 51.3012 1.67906C49.0738 1.38495 47.1903 2.37978 45.2296 4.08868C43.5992 5.50982 42.1897 6.05857 39.9968 6.46964C41.0485 6.52343 43.5274 4.77391 45.138 3.37045C47.0395 1.71308 49.0073 0.00196001 51.2895 0.296937C54.0431 0.656134 56.2162 2.3922 58.9676 4.58939C60.3694 5.70949 61.9582 6.97832 63.8155 8.1948C63.8155 8.1948 60.2783 6.43751 58.8738 5.31548Z" fill="#75787B" fill-opacity="0.5"/>
<path d="M340.312 26.8056C335.64 23.0729 332.005 21.1908 327.359 20.5854C323.549 20.0823 320.328 21.784 316.974 24.7071C314.185 27.138 311.774 28.0767 308.023 28.7798C309.822 28.8718 314.062 25.8792 316.817 23.4786C320.07 20.6436 323.436 17.7167 327.339 18.2213C332.05 18.8357 335.767 21.8053 340.473 25.5636C342.871 27.4796 345.588 29.6499 348.765 31.7307C348.765 31.7307 342.715 28.7249 340.312 26.8056Z" fill="#75787B"/>
</svg>
