<svg width="187" height="37" viewBox="0 0 187 37" fill="none" xmlns="http://www.w3.org/2000/svg">
<path d="M31.2857 10.7494C48.255 5.52497 60.7856 2.70165 77.5609 1.90314C91.3178 1.23894 102.481 4.28855 114.483 8.46788C124.463 11.9434 141.675 14.5377 147.031 11.9315C135.981 13.925 125.343 11.0759 115.484 7.64361C103.844 3.59123 91.798 -0.594537 77.7035 0.070586C60.6964 0.88106 47.1953 5.0374 30.1017 10.2986C21.3935 12.9793 10.4083 19.4447 -0.000866802 18.9231C3.20147 22.0509 22.5563 13.4365 31.2857 10.7494" fill="#75787B" fill-opacity="0.4"/>
<path d="M65.3606 21.8808C80.57 17.2824 91.801 14.7974 106.836 14.0946C119.166 13.51 129.172 16.1942 139.929 19.8727C148.874 22.9319 164.301 25.2153 169.102 22.9213C159.197 24.676 149.663 22.1683 140.826 19.1472C130.393 15.5804 119.597 11.8962 106.964 12.4816C91.721 13.195 79.6201 16.8533 64.2994 21.4841C56.4944 23.8436 46.6486 29.5343 37.319 29.0752C40.1892 31.8283 57.5366 24.246 65.3606 21.8808" fill="#75787B" fill-opacity="0.8"/>
<path d="M112.264 31.3418C123.094 28.0309 131.091 26.2417 141.796 25.7357C150.576 25.3148 157.7 27.2474 165.36 29.8959C171.729 32.0985 182.714 33.7426 186.132 32.0909C179.08 33.3543 172.291 31.5488 165.998 29.3736C158.57 26.8055 150.882 24.1528 141.887 24.5743C131.034 25.088 122.417 27.722 111.508 31.0561C105.951 32.755 98.9402 36.8523 92.2971 36.5217C94.3408 38.5039 106.693 33.0447 112.264 31.3418" fill="#75787B" fill-opacity="0.2"/>
</svg>
