<svg width="64" height="64" viewBox="0 0 64 64" fill="none" xmlns="http://www.w3.org/2000/svg">
<path fill-rule="evenodd" clip-rule="evenodd" d="M58 39H18C16.8954 39 16 39.8954 16 41V58C16 59.1046 16.8954 60 18 60H58C59.1046 60 60 59.1046 60 58V41C60 39.8954 59.1046 39 58 39ZM18 35C14.6863 35 12 37.6863 12 41V58C12 61.3137 14.6863 64 18 64H58C61.3137 64 64 61.3137 64 58V41C64 37.6863 61.3137 35 58 35H18Z" fill="black"/>
<path fill-rule="evenodd" clip-rule="evenodd" d="M0 8C0 3.58172 3.58172 0 8 0H56C60.4183 0 64 3.58172 64 8V30.5C64 31.6046 63.1046 32.5 62 32.5C60.8954 32.5 60 31.6046 60 30.5V8C60 5.79086 58.2091 4 56 4H8C5.79086 4 4 5.79086 4 8V57C4 58.6569 5.34315 60 7 60H8C9.10457 60 10 60.8954 10 62C10 63.1046 9.10457 64 8 64H7C3.13401 64 0 60.866 0 57V8Z" fill="black"/>
<path d="M19.36 13.8V27H16.6V16.92L13.74 18.76L12.48 16.7L16.84 13.8H19.36Z" fill="black"/>
<path d="M31.1114 16.26C29.7514 16.06 28.5714 15.96 27.5714 15.96C25.6781 15.96 24.7314 16.9867 24.7314 19.04L25.1514 18.92C26.0314 18.6667 26.7314 18.54 27.2514 18.54C28.7581 18.54 29.8914 18.8867 30.6514 19.58C31.4114 20.2733 31.7914 21.3533 31.7914 22.82C31.7914 24.2733 31.3647 25.3733 30.5114 26.12C29.6581 26.8667 28.4181 27.24 26.7914 27.24C25.1781 27.24 23.9581 26.6533 23.1314 25.48C22.3047 24.2933 21.8914 22.5533 21.8914 20.26C21.8914 17.9667 22.3647 16.28 23.3114 15.2C24.2581 14.1067 25.6181 13.56 27.3914 13.56C28.4314 13.56 29.5447 13.7067 30.7314 14L31.3514 14.14L31.1114 16.26ZM27.0114 20.94C26.3847 20.94 25.7314 21.0533 25.0514 21.28L24.7114 21.38C24.7114 23.6867 25.4581 24.84 26.9514 24.84C27.5914 24.84 28.0847 24.6667 28.4314 24.32C28.7781 23.96 28.9514 23.46 28.9514 22.82C28.9514 21.5667 28.3047 20.94 27.0114 20.94Z" fill="black"/>
<path d="M32.0028 26.84L37.7628 12.64L40.1228 13.48L34.3628 27.68L32.0028 26.84Z" fill="black"/>
<path d="M44.6592 24.84C46.4325 24.84 47.3192 23.76 47.3192 21.6L46.8992 21.74C45.9792 22.0467 45.2792 22.2 44.7992 22.2C43.3459 22.2 42.2259 21.8467 41.4392 21.14C40.6525 20.4333 40.2592 19.3867 40.2592 18C40.2592 16.6 40.6925 15.5133 41.5592 14.74C42.4259 13.9533 43.6525 13.56 45.2392 13.56C46.8392 13.56 48.0592 14.1533 48.8992 15.34C49.7392 16.5133 50.1592 18.2667 50.1592 20.6C50.1592 22.92 49.6925 24.6067 48.7592 25.66C47.8259 26.7133 46.4592 27.24 44.6592 27.24C43.6192 27.24 42.5059 27.0933 41.3192 26.8L40.6992 26.66L40.9392 24.54C42.2992 24.74 43.5392 24.84 44.6592 24.84ZM45.0392 19.8C45.6525 19.8 46.3125 19.68 47.0192 19.44L47.3392 19.34C47.3392 17.0867 46.5925 15.96 45.0992 15.96C44.4592 15.96 43.9659 16.14 43.6192 16.5C43.2725 16.8467 43.0992 17.34 43.0992 17.98C43.0992 19.1933 43.7459 19.8 45.0392 19.8Z" fill="black"/>
</svg>
