<svg width="64" height="64" viewBox="0 0 64 64" fill="none" xmlns="http://www.w3.org/2000/svg">
<g clip-path="url(#clip0_877_4951)">
<rect width="64" height="64" fill="white"/>
<rect x="-0.5" y="-0.5" width="65" height="65" fill="white" stroke="black"/>
<path d="M0.420898 56L11.3806 8H30.1482L43.3683 56H31.2227L29.2886 47.3176H12.2402L10.3061 56H0.420898ZM19.0452 16.0471L14.1026 38.8471H27.4262L22.4836 16.0471H19.0452Z" fill="black"/>
<path fill-rule="evenodd" clip-rule="evenodd" d="M41.8252 37.3715L42.911 41.1035L45.7755 33.9217L50.263 44.6997C48.9908 44.7415 47.5509 44.7624 45.9432 44.7624C45.2565 44.7624 44.5996 44.7588 43.9725 44.7517L44.6501 47.0809H51.2905L53.0939 51.6762C53.4154 52.4699 53.5762 53.0408 53.5762 53.389C53.5762 53.6675 53.4644 53.8694 53.2407 53.9947C53.031 54.1061 52.0804 54.1966 50.3888 54.2662V55.9999L57.7492 55.8746L63.5788 55.9999V54.2662C63.1734 54.2245 62.8658 54.1897 62.6561 54.1618C61.9991 54.12 61.5867 54.0713 61.4189 54.0156C61.2651 53.9599 61.1253 53.8763 60.9995 53.7649C60.8737 53.6535 60.7409 53.4725 60.6011 53.2219L59.7623 51.3002L58.4622 48.4386L49.0887 26.632H46.111L44.2656 31.3734L41.8252 37.3715Z" fill="black"/>
</g>
<defs>
<clipPath id="clip0_877_4951">
<rect width="64" height="64" fill="white"/>
</clipPath>
</defs>
</svg>
