<svg width="64" height="64" viewBox="0 0 64 64" fill="none" xmlns="http://www.w3.org/2000/svg">
<rect width="64" height="64" fill="white"/>
<path d="M32.0213 18.9166C38.7518 18.9166 43.4438 23.1836 45.4852 25.4843C43.5005 28.0867 38.8085 33.0833 32.0213 33.0833C25.7596 33.0833 20.7871 28.074 18.5941 25.4234C20.7092 23.0901 25.4182 18.9166 32.0213 18.9166V18.9166ZM32.0213 16.0833C21.2985 16.0833 15 25.3639 15 25.3639C15 25.3639 21.8496 35.9166 32.0213 35.9166C42.9763 35.9166 49 25.3639 49 25.3639C49 25.3639 42.9211 16.0833 32.0213 16.0833ZM32 23.1666C33.5626 23.1666 34.8333 24.4374 34.8333 26C34.8333 27.5626 33.5626 28.8333 32 28.8333C30.4374 28.8333 29.1667 27.5626 29.1667 26C29.1667 24.4374 30.4374 23.1666 32 23.1666ZM32 20.3333C28.8706 20.3333 26.3333 22.872 26.3333 26C26.3333 29.1294 28.8706 31.6666 32 31.6666C35.1294 31.6666 37.6667 29.1294 37.6667 26C37.6667 22.872 35.1294 20.3333 32 20.3333Z" fill="black"/>
<path d="M7 7V44.5H57V7H7ZM52.8333 40.3333H11.1667V11.1667H52.8333V40.3333ZM46.5833 52.8333V57H17.4167V52.8333H25.75V48.6667H38.25V52.8333H46.5833Z" fill="black"/>
</svg>
