<svg viewBox="0 0 500 561" fill="none" xmlns="http://www.w3.org/2000/svg">
<g opacity="0.1" filter="url(#filter0_f_1655_4880)">
<path d="M291.375 545L260.299 527.017L280.407 516L317.299 527.017L291.375 545Z" fill="url(#paint0_linear_1655_4880)"/>
</g>
<g opacity="0.1" filter="url(#filter1_f_1655_4880)">
<path d="M189.092 551L137.299 521.235L170.812 503L232.299 521.235L189.092 551Z" fill="url(#paint1_linear_1655_4880)"/>
</g>
<g opacity="0.1" filter="url(#filter2_f_1655_4880)">
<path d="M95.2784 477L53.2988 452.816L80.4621 438L130.299 452.816L95.2784 477Z" fill="url(#paint2_linear_1655_4880)"/>
</g>
<g opacity="0.1" filter="url(#filter3_f_1655_4880)">
<path d="M40.4679 476L14.2988 461.117L31.2318 452L62.2988 461.117L40.4679 476Z" fill="url(#paint3_linear_1655_4880)"/>
</g>
<g opacity="0.1" filter="url(#filter4_f_1655_4880)">
<path d="M261.092 505L209.299 475.235L242.812 457L304.299 475.235L261.092 505Z" fill="url(#paint4_linear_1655_4880)"/>
</g>
<g opacity="0.2" filter="url(#filter5_f_1655_4880)">
<path d="M109.649 548L81.2988 533.117L99.6429 524L133.299 533.117L109.649 548Z" fill="url(#paint5_linear_1655_4880)"/>
</g>
<g opacity="0.2" filter="url(#filter6_f_1655_4880)">
<path d="M93.6487 538L65.2988 523.117L83.6429 514L117.299 523.117L93.6487 538Z" fill="url(#paint6_linear_1655_4880)"/>
</g>
<g opacity="0.3" filter="url(#filter7_f_1655_4880)">
<path d="M243.383 541L230.299 533.559L238.765 529L254.299 533.559L243.383 541Z" fill="url(#paint7_linear_1655_4880)"/>
</g>
<g opacity="0.3" filter="url(#filter8_f_1655_4880)">
<path d="M232.383 535L219.299 527.559L227.765 523L243.299 527.559L232.383 535Z" fill="url(#paint8_linear_1655_4880)"/>
</g>
<g opacity="0.1" filter="url(#filter9_f_1655_4880)">
<path d="M334.01 525L301.299 504.536L322.465 492L361.299 504.536L334.01 525Z" fill="url(#paint9_linear_1655_4880)"/>
</g>
<g opacity="0.1" filter="url(#filter10_f_1655_4880)">
<ellipse cx="171.148" cy="476.09" rx="38.9969" ry="28" transform="rotate(-31.0139 171.148 476.09)" fill="black"/>
</g>
<g opacity="0.1" filter="url(#filter11_f_1655_4880)">
<ellipse cx="291" cy="496.365" rx="21.7618" ry="15.6251" transform="rotate(-31.0139 291 496.365)" fill="black"/>
</g>
<g opacity="0.1" filter="url(#filter12_f_1655_4880)">
<ellipse cx="82.1476" cy="423.09" rx="30.55" ry="21.935" transform="rotate(-31.0139 82.1476 423.09)" fill="black"/>
</g>
<path d="M101.309 372.092L115.843 372.092L112.589 381.204L101.309 382.288L101.309 372.092Z" fill="#FFBB01"/>
<path d="M53.7998 359.51L66.599 367.103L62.6941 397.691L54.0167 392.544L53.7998 359.51Z" fill="#FFBB01"/>
<path d="M53.7998 359.51L66.599 367.103L62.6941 397.691L54.0167 392.544L53.7998 359.51Z" fill="black" fill-opacity="0.26"/>
<path d="M102 372.5L84.1699 362.113L99.5756 362.113L115.843 372.058L102 372.5Z" fill="#FFBB01"/>
<path d="M102 372.5L84.1699 362.113L99.5756 362.113L115.843 372.058L102 372.5Z" fill="white" fill-opacity="0.71"/>
<path d="M77 357.5L67.4658 351.7L53.7998 359.51L63 365L77 357.5Z" fill="#FFBB01"/>
<path d="M77 357.5L67.4658 351.7L53.7998 359.51L63 365L77 357.5Z" fill="white" fill-opacity="0.4"/>
<path d="M59.4404 407.453L24.2969 386.627L76.7952 357.341L111.939 378.166L59.4404 407.453Z" fill="#FFBB01"/>
<path d="M59.4404 407.453L24.2969 386.627L76.7952 357.341L111.939 378.166L59.4404 407.453Z" fill="white" fill-opacity="0.4"/>
<path d="M129.944 404.633L126.039 402.463L111.287 406.151L118.663 410.943L129.944 404.633Z" fill="#FFBB01"/>
<path d="M129.944 404.633L126.039 402.463L111.287 406.151L118.663 410.943L129.944 404.633Z" fill="white" fill-opacity="0.49"/>
<path d="M24.2969 386.627L59.4404 407.453V426.883L24.2969 406.151V386.627Z" fill="#FFBB01"/>
<path d="M24.2969 386.627L59.4404 407.453V426.883L24.2969 406.151V386.627Z" fill="black" fill-opacity="0.3"/>
<path d="M59.4404 407.368L98.2718 385.759L98.4888 405.067L59.4404 426.892V407.368Z" fill="#FFBB01"/>
<path d="M59.4404 407.453L82.8694 394.437L76.7952 440.861L59.4404 450.623V407.453Z" fill="#FFBB01"/>
<path d="M111.062 393.569L124.955 385.976L116.802 418.473L107.166 423.94L111.062 393.569Z" fill="#FFBB01"/>
<path d="M118.446 410.881L129.944 404.633V409.188L116.711 418.516L118.446 410.881Z" fill="#FFBB01"/>
<path d="M124.954 385.976L111.937 378.166L98.2715 385.778L111.071 393.588L124.954 385.976Z" fill="#FFBB01"/>
<path d="M124.954 385.976L111.937 378.166L98.2715 385.778L111.071 393.588L124.954 385.976Z" fill="white" fill-opacity="0.43"/>
<path d="M98.2715 385.759L111.071 393.352L107.166 423.94L98.4884 418.793L98.2715 385.759Z" fill="#FFBB01"/>
<path d="M98.2715 385.759L111.071 393.352L107.166 423.94L98.4884 418.793L98.2715 385.759Z" fill="black" fill-opacity="0.31"/>
<path d="M24.2959 406.151L37.9064 414.178V437.946L24.5128 430.094L24.2959 406.151Z" fill="#FFBB01"/>
<path d="M24.2959 406.151L37.9064 414.178V437.946L24.5128 430.094L24.2959 406.151Z" fill="black" fill-opacity="0.35"/>
<path d="M6.94193 432.183L0 428.062L24.2967 413.093L37.9637 420.686L6.94193 432.183Z" fill="#FFBB01"/>
<path d="M6.94193 432.183L0 428.062L24.2967 413.093L37.9637 420.686L6.94193 432.183Z" fill="white" fill-opacity="0.44"/>
<path fill-rule="evenodd" clip-rule="evenodd" d="M37.9637 420.686L7 432L6.99546 432.172L6.94071 432.183L6.74359 441.744L6.5 451L6.55319 450.978L6.50684 453.226L14.7504 448.887L14.8973 447.484L37.9637 437.824V420.686Z" fill="#FFBB01"/>
<path fill-rule="evenodd" clip-rule="evenodd" d="M37.9637 420.686L7 432L6.99546 432.172L6.94071 432.183L6.74359 441.744L6.5 451L6.55319 450.978L6.50684 453.226L14.7504 448.887L14.8973 447.484L37.9637 437.824V420.686Z" fill="black" fill-opacity="0.17"/>
<path d="M0 428.062L6.94193 432.183L6.50806 453.226L1.30161 450.189L0 428.062Z" fill="#FFBB01"/>
<path d="M0 428.062L6.94193 432.183L6.50806 453.226L1.30161 450.189L0 428.062Z" fill="black" fill-opacity="0.29"/>
<path d="M42.7344 416.998L59.4386 426.894V450.529L42.7344 424.801V416.998Z" fill="#FFBB01"/>
<path d="M42.7344 416.998L59.4386 426.894V450.529L42.7344 424.801V416.998Z" fill="black" fill-opacity="0.35"/>
<path d="M19.9562 439.776L59.4384 431.099L59.6081 450.623L19.7393 450.623L19.9562 439.776Z" fill="#FFBB01"/>
<path d="M19.9562 439.776L59.4384 431.099L59.6081 450.623L19.7393 450.623L19.9562 439.776Z" fill="black" fill-opacity="0.06"/>
<path d="M19.9566 439.776L13.0146 435.654L42.7348 424.808L59.4388 431.099L19.9566 439.776Z" fill="#FFBB01"/>
<path d="M19.9566 439.776L13.0146 435.654L42.7348 424.808L59.4388 431.099L19.9566 439.776Z" fill="white" fill-opacity="0.4"/>
<path d="M19.9554 439.776L29.7174 437.607L27.765 456.263L19.5215 460.819L19.9554 439.776Z" fill="#FFBB01"/>
<path d="M13.0146 435.654L19.9566 439.776L19.5227 460.819L14.3163 457.782L13.0146 435.654Z" fill="#FFBB01"/>
<path d="M13.0146 435.654L19.9566 439.776L19.5227 460.819L14.3163 457.782L13.0146 435.654Z" fill="black" fill-opacity="0.28"/>
<path d="M206.09 405.346L227.006 405.346L222.324 418.458L206.09 420.019L206.09 405.346Z" fill="#4F11F7"/>
<path d="M145.839 456.11L201.72 425.014L202.032 452.798L145.839 484.206V456.11Z" fill="#4F1FD0"/>
<path d="M137.722 387.239L156.141 398.166L150.521 442.184L138.034 434.777L137.722 387.239Z" fill="#5223CF"/>
<path d="M145.839 456.232L95.2646 426.262L170.814 384.117L221.388 414.087L145.839 456.232Z" fill="#7242F3"/>
<path d="M204.838 405.296L181.428 390.986L203.598 390.985L227.008 405.296L204.838 405.296Z" fill="#AF93FC"/>
<path d="M247.299 452.174L241.68 449.052L220.451 454.359L231.065 461.255L247.299 452.174Z" fill="#7242F3"/>
<path d="M95.2646 426.262L145.839 456.232V484.193L95.2646 454.359V426.262Z" fill="#5223CF"/>
<path d="M145.839 456.232L179.555 437.501L170.814 504.309L145.839 518.357V456.232Z" fill="#4F1FD0"/>
<path d="M220.127 436.252L240.119 425.326L228.386 472.091L214.52 479.958L220.127 436.252Z" fill="#4F1FD0"/>
<path d="M230.753 461.166L247.299 452.174V458.73L228.256 472.154L230.753 461.166Z" fill="#4F1FD0"/>
<path d="M240.117 425.326L221.386 414.087L201.72 425.041L220.139 436.28L240.117 425.326Z" fill="#7242F3"/>
<path d="M176.119 387.239L157.388 376L137.722 387.239L156.141 398.193L176.119 387.239Z" fill="#7242F3"/>
<path d="M201.72 425.014L220.139 435.94L214.519 479.958L202.032 472.551L201.72 425.014Z" fill="#5223CF"/>
<path d="M95.2637 454.359L114.85 465.91V500.115L95.5759 488.815L95.2637 454.359Z" fill="#53389B"/>
<path d="M62.7956 487.451L114.931 475.275V499.938L62.4834 503.06L62.7956 487.451Z" fill="#53389B"/>
<path d="M70.2888 491.821L60.2988 485.89L95.2636 464.349L114.931 475.276L70.2888 491.821Z" fill="#7242F3"/>
<path d="M70.2884 491.821L84.3368 489.012L81.5271 515.86L69.6641 522.103L70.2884 491.821Z" fill="#53389B"/>
<path d="M60.2988 485.89L70.2888 491.821L69.6644 522.103L62.1719 517.733L60.2988 485.89Z" fill="#5223CF"/>
<path d="M121.8 469.968L145.838 484.209V518.221L121.8 504.112V469.968Z" fill="#53389B"/>
<path d="M89.0192 502.748L145.837 490.26L146.081 518.357L88.707 518.357L89.0192 502.748Z" fill="#4F1FD0"/>
<path d="M89.0202 502.748L79.0303 496.816L121.8 481.207L145.838 490.261L89.0202 502.748Z" fill="#7242F3"/>
<path d="M89.0209 502.748L103.069 499.626L100.26 526.474L88.3965 533.03L89.0209 502.748Z" fill="#4F1FD0"/>
<path d="M79.0303 496.816L89.0202 502.748L88.3958 533.03L80.9034 528.659L79.0303 496.816Z" fill="#5223CF"/>
<path fill-rule="evenodd" clip-rule="evenodd" d="M157.38 405.545L140.85 415.372L144.141 417.332L145.814 416.337L144.172 415.359L157.362 407.517L159.005 408.495L160.671 407.505L157.38 405.545Z" fill="white"/>
<path fill-rule="evenodd" clip-rule="evenodd" d="M176.61 416.995L174.944 417.985L176.587 418.963L163.396 426.805L161.754 425.827L160.08 426.822L163.371 428.781L179.901 418.954L176.61 416.995Z" fill="white"/>
<path fill-rule="evenodd" clip-rule="evenodd" d="M161.1 417.511C158.068 419.294 154.583 419.574 151.831 417.936L151.839 417.931C150.747 417.271 150.03 416.655 149.868 415.858L149.112 416.307L147.49 415.341L150.922 413.301L152.545 414.266C151.772 415.273 152.308 416.086 153.445 416.763C154.232 417.232 155.173 417.443 156.267 417.398C157.362 417.351 158.383 417.047 159.331 416.483C160.237 415.945 160.774 415.34 160.943 414.667C161.111 413.995 160.725 413.379 159.787 412.821C158.65 412.144 157.234 412.035 155.542 412.494L153.92 411.528L157.352 409.487L158.974 410.453L158.218 410.903C159.598 411.002 160.697 411.455 161.843 412.137C163.63 413.201 164.716 415.362 161.1 417.511V417.511Z" fill="white"/>
<path fill-rule="evenodd" clip-rule="evenodd" d="M165.107 423.837L163.435 424.831L161.772 423.846L161.887 418.804L161.057 418.315L158.45 419.884L160.085 420.857L158.418 421.849L155.152 419.904L165.032 414.031L166.671 415.016L162.745 417.331L163.55 417.815L168.004 417.788L166.647 416.981L168.314 415.99L173.303 418.96L171.636 419.951L170.372 419.198L164.343 419.265L164.321 423.37L165.107 423.837Z" fill="white"/>
<mask id="mask0_1655_4880" style="mask-type:alpha" maskUnits="userSpaceOnUse" x="140" y="405" width="40" height="24">
<path fill-rule="evenodd" clip-rule="evenodd" d="M140.85 415.372L163.372 428.781L179.902 418.954L157.38 405.545L140.85 415.372Z" fill="white"/>
</mask>
<g mask="url(#mask0_1655_4880)">
<path fill-rule="evenodd" clip-rule="evenodd" d="M145.783 418.31L158.438 425.844L160.105 424.854L147.449 417.319L145.783 418.31Z" fill="white"/>
<path fill-rule="evenodd" clip-rule="evenodd" d="M160.647 409.473L173.303 417.008L174.969 416.017L162.313 408.482L160.647 409.473Z" fill="#F2BC2B"/>
</g>
<path d="M299.116 462.468L310.855 462.468L308.227 469.826L299.116 470.703L299.116 462.468Z" fill="#C4C4C4"/>
<path d="M265.304 490.957L296.664 473.506L296.839 489.098L265.304 506.725V490.957Z" fill="#C4C4C4"/>
<path d="M260.748 452.307L271.085 458.438L267.931 483.142L260.923 478.985L260.748 452.307Z" fill="#898989"/>
<path d="M265.303 491.025L236.921 474.206L279.319 450.555L307.701 467.374L265.303 491.025Z" fill="#F5F4F4"/>
<path d="M298.413 462.44L285.275 454.409L297.717 454.409L310.855 462.44L298.413 462.44Z" fill="#EEEEEE"/>
<path d="M322.243 488.748L319.089 486.996L307.176 489.974L313.133 493.844L322.243 488.748Z" fill="#F5F4F4"/>
<path d="M236.921 474.206L265.303 491.026V506.717L236.921 489.974V474.206Z" fill="#847F7F"/>
<path d="M265.304 491.026L284.225 480.514L279.32 518.006L265.304 525.89V491.026Z" fill="#C4C4C4"/>
<path d="M306.993 479.813L318.213 473.681L311.629 499.926L303.847 504.341L306.993 479.813Z" fill="#C4C4C4"/>
<path d="M312.957 493.795L322.243 488.748V492.427L311.556 499.961L312.957 493.795Z" fill="#C4C4C4"/>
<path d="M318.213 473.681L307.701 467.374L296.664 473.521L307.001 479.828L318.213 473.681Z" fill="#F5F4F4"/>
<path d="M282.297 452.307L271.785 445.999L260.748 452.307L271.085 458.454L282.297 452.307Z" fill="#F5F4F4"/>
<path d="M296.664 473.506L307.001 479.638L303.847 504.341L296.839 500.184L296.664 473.506Z" fill="#868686"/>
<path d="M236.921 489.974L247.913 496.457V515.652L237.096 509.311L236.921 489.974Z" fill="#797575"/>
<path d="M218.701 508.545L247.959 501.713V515.553L218.525 517.305L218.701 508.545Z" fill="#939393"/>
<path d="M222.905 510.998L217.299 507.669L236.921 495.581L247.959 501.713L222.905 510.998Z" fill="#F5F4F4"/>
<path d="M222.904 510.998L230.788 509.421L229.211 524.488L222.554 527.992L222.904 510.998Z" fill="#939393"/>
<path d="M217.299 507.669L222.905 510.998L222.555 527.992L218.35 525.54L217.299 507.669Z" fill="#838383"/>
<path d="M251.812 498.734L265.302 506.726V525.814L251.812 517.896V498.734Z" fill="#797575"/>
<path d="M233.415 517.13L265.302 510.122L265.439 525.89L233.24 525.89L233.415 517.13Z" fill="#B8B8B8"/>
<path d="M233.416 517.13L227.81 513.801L251.812 505.041L265.302 510.122L233.416 517.13Z" fill="#F5F4F4"/>
<path d="M233.415 517.13L241.299 515.378L239.722 530.445L233.064 534.124L233.415 517.13Z" fill="#C4C4C4"/>
<path d="M227.81 513.801L233.416 517.13L233.066 534.124L228.861 531.672L227.81 513.801Z" fill="#807F7F"/>
<path d="M206.592 405.306L227.48 405.306L222.803 418.399L206.592 419.958L206.592 405.306Z" fill="#5100FF"/>
<path d="M138.316 387.223L156.71 398.135L151.099 442.093L138.628 434.696L138.316 387.223Z" fill="#5100FF"/>
<path d="M138.316 387.223L156.71 398.135L151.099 442.093L138.628 434.696L138.316 387.223Z" fill="black" fill-opacity="0.26"/>
<path d="M207.586 405.891L181.962 390.965L204.102 390.964L227.48 405.256L207.586 405.891Z" fill="#5100FF"/>
<path d="M207.586 405.891L181.962 390.965L204.102 390.964L227.48 405.256L207.586 405.891Z" fill="white" fill-opacity="0.71"/>
<path d="M171.658 384.335L157.956 376L138.316 387.223L151.538 395.113L171.658 384.335Z" fill="#5100FF"/>
<path d="M171.658 384.335L157.956 376L138.316 387.223L151.538 395.113L171.658 384.335Z" fill="white" fill-opacity="0.4"/>
<path d="M146.422 456.122L95.917 426.193L171.363 384.106L221.868 414.035L146.422 456.122Z" fill="#5100FF"/>
<path d="M146.422 456.122L95.917 426.193L171.363 384.106L221.868 414.035L146.422 456.122Z" fill="white" fill-opacity="0.4"/>
<path d="M247.744 452.07L242.132 448.952L220.933 454.252L231.532 461.138L247.744 452.07Z" fill="#5100FF"/>
<path d="M247.744 452.07L242.132 448.952L220.933 454.252L231.532 461.138L247.744 452.07Z" fill="white" fill-opacity="0.49"/>
<path d="M95.917 426.193L146.422 456.122V484.046L95.917 454.252V426.193Z" fill="#5100FF"/>
<path d="M95.917 426.193L146.422 456.122V484.046L95.917 454.252V426.193Z" fill="black" fill-opacity="0.3"/>
<path d="M146.423 456L202.228 424.946L202.54 452.693L146.423 484.059V456Z" fill="#5100FF"/>
<path d="M146.423 456.123L180.093 437.417L171.364 504.134L146.423 518.163V456.123Z" fill="#5100FF"/>
<path d="M220.609 436.17L240.575 425.258L228.857 471.96L215.01 479.816L220.609 436.17Z" fill="#5100FF"/>
<path d="M231.221 461.05L247.744 452.069V458.616L228.727 472.022L231.221 461.05Z" fill="#5100FF"/>
<path d="M240.573 425.258L221.867 414.035L202.228 424.974L220.621 436.197L240.573 425.258Z" fill="#5100FF"/>
<path d="M240.573 425.258L221.867 414.035L202.228 424.974L220.621 436.197L240.573 425.258Z" fill="white" fill-opacity="0.43"/>
<path d="M202.228 424.946L220.621 435.858L215.01 479.816L202.539 472.42L202.228 424.946Z" fill="#5100FF"/>
<path d="M202.228 424.946L220.621 435.858L215.01 479.816L202.539 472.42L202.228 424.946Z" fill="black" fill-opacity="0.31"/>
<path d="M95.916 454.252L115.476 465.787V499.945L96.2278 488.661L95.916 454.252Z" fill="#5100FF"/>
<path d="M95.916 454.252L115.476 465.787V499.945L96.2278 488.661L95.916 454.252Z" fill="black" fill-opacity="0.35"/>
<path d="M70.9763 491.663L61 485.74L95.9172 464.228L115.558 475.14L70.9763 491.663Z" fill="#5100FF"/>
<path d="M70.9763 491.663L61 485.74L95.9172 464.228L115.558 475.14L70.9763 491.663Z" fill="white" fill-opacity="0.44"/>
<path fill-rule="evenodd" clip-rule="evenodd" d="M115.559 475.14L71.0604 491.399L71.0538 491.647L70.9751 491.663L70.6919 505.402L70.3418 518.705L70.4182 518.673L70.3516 521.904L82.1985 515.669L82.4097 513.651L115.559 499.769V475.14Z" fill="#5100FF"/>
<path fill-rule="evenodd" clip-rule="evenodd" d="M115.559 475.14L71.0604 491.399L71.0538 491.647L70.9751 491.663L70.6919 505.402L70.3418 518.705L70.4182 518.673L70.3516 521.904L82.1985 515.669L82.4097 513.651L115.559 499.769V475.14Z" fill="black" fill-opacity="0.17"/>
<path d="M61 485.74L70.9763 491.663L70.3528 521.904L62.8706 517.539L61 485.74Z" fill="#5100FF"/>
<path d="M61 485.74L70.9763 491.663L70.3528 521.904L62.8706 517.539L61 485.74Z" fill="black" fill-opacity="0.29"/>
<path d="M122.415 469.84L146.421 484.061V518.027L122.415 481.053V469.84Z" fill="#5100FF"/>
<path d="M122.415 469.84L146.421 484.061V518.027L122.415 481.053V469.84Z" fill="black" fill-opacity="0.35"/>
<path d="M89.6799 502.575L146.42 490.104L146.664 518.163L89.3682 518.163L89.6799 502.575Z" fill="#5100FF"/>
<path d="M89.6799 502.575L146.42 490.104L146.664 518.163L89.3682 518.163L89.6799 502.575Z" fill="black" fill-opacity="0.06"/>
<path d="M89.6804 502.575L79.7041 496.651L122.415 481.063L146.421 490.104L89.6804 502.575Z" fill="#5100FF"/>
<path d="M89.6804 502.575L79.7041 496.651L122.415 481.063L146.421 490.104L89.6804 502.575Z" fill="white" fill-opacity="0.4"/>
<path d="M89.6782 502.575L103.707 499.457L100.902 526.268L89.0547 532.815L89.6782 502.575Z" fill="#5100FF"/>
<path d="M79.7041 496.651L89.6804 502.575L89.0569 532.815L81.5747 528.451L79.7041 496.651Z" fill="#5100FF"/>
<path d="M79.7041 496.651L89.6804 502.575L89.0569 532.815L81.5747 528.451L79.7041 496.651Z" fill="black" fill-opacity="0.28"/>
<path d="M163.749 400.773L142.154 412.221C141.178 412.738 141.175 413.582 142.147 414.106L144.559 415.406C142.676 415.959 142.465 416.516 142.465 416.516L140.608 415.515C138.177 414.205 138.184 412.094 140.624 410.801L161.106 399.944C163.546 398.651 167.494 398.664 169.925 399.975L172.826 401.538C171.154 401.309 168.645 401.523 168.645 401.523L167.276 400.786C166.304 400.262 164.725 400.256 163.749 400.773Z" fill="white"/>
<path d="M170.946 427.738L192.541 416.291C193.516 415.774 193.521 414.931 192.549 414.407L173.861 404.335C175.117 403.892 177.207 403.899 177.207 403.899L194.087 412.997C196.517 414.307 196.51 416.417 194.07 417.711L173.589 428.568C171.149 429.861 167.201 429.848 164.77 428.538L151.228 421.239C153.944 421.584 155.31 421.2 155.31 421.2L167.418 427.726C168.39 428.25 169.97 428.255 170.946 427.738Z" fill="white"/>
<mask id="mask1_1655_4880" style="mask-type:alpha" maskUnits="userSpaceOnUse" x="137" y="398" width="61" height="33">
<path d="M166.357 398.052L197.236 414.694L167.919 430.235L137.04 413.593L166.357 398.052Z" fill="white"/>
</mask>
<g mask="url(#mask1_1655_4880)">
<mask id="mask2_1655_4880" style="mask-type:alpha" maskUnits="userSpaceOnUse" x="144" y="402" width="34" height="24">
<path d="M166.156 409.996C167.171 410.195 168.044 410.569 168.649 410.907C169.632 411.458 170.383 412.153 170.834 412.861C171.284 413.569 171.438 414.294 171.194 414.904C170.987 415.422 170.381 416.051 169.01 416.242C170.111 417.277 169.896 418.261 169.413 418.9C168.859 419.632 167.773 420.23 166.407 420.625C165.042 421.019 163.416 421.204 161.776 421.105C160.58 421.033 159.01 420.772 157.671 420.145C157.28 420.459 156.779 420.708 156.268 420.894C154.886 421.396 152.983 421.633 150.921 421.596C148.858 421.56 146.724 421.252 144.893 420.694C144.643 420.618 144.388 420.533 144.131 420.44L156.96 422.875C158.601 423.575 156.343 426.457 163.405 425.758C175.441 424.507 177.39 422.049 177.72 419.015C177.967 416.736 173.042 412.225 170.07 409.503C169.088 408.603 168.319 407.899 168.021 407.535C167.062 406.366 167.176 403.56 175.293 402.813C164.213 401.75 164.069 405.401 164.209 406.995C164.252 407.484 164.893 408.329 165.666 409.348C165.825 409.557 165.99 409.774 166.156 409.996Z" fill="white"/>
</mask>
<g mask="url(#mask2_1655_4880)">
<rect width="40.0272" height="34.9605" transform="matrix(0.88029 0.474437 -0.883542 0.468351 165.555 396.094)" fill="white"/>
</g>
</g>
<mask id="mask3_1655_4880" style="mask-type:alpha" maskUnits="userSpaceOnUse" x="137" y="399" width="58" height="32">
<path d="M165.515 399.837L194.307 415.355L166.665 430.007L137.873 414.49L165.515 399.837Z" fill="white"/>
</mask>
<g mask="url(#mask3_1655_4880)">
<path d="M167.074 415.319C166.096 415.354 164.789 414.623 164.154 413.688C163.519 412.752 163.797 411.966 164.775 411.932C165.753 411.897 167.06 412.628 167.695 413.563C168.33 414.499 168.052 415.285 167.074 415.319Z" fill="#FFBB01"/>
<path d="M159.195 418.844C158.238 418.124 158.953 417.125 160.793 416.612C162.633 416.098 164.9 416.266 165.857 416.986C166.814 417.705 166.099 418.705 164.259 419.218C162.42 419.731 160.152 419.564 159.195 418.844Z" fill="#FFBB01"/>
<path d="M149.93 416.128C146.936 416.034 144.887 416.763 145.353 417.756C145.818 418.748 148.622 419.629 151.616 419.722C154.609 419.816 156.658 419.087 156.193 418.095C155.727 417.102 152.923 416.221 149.93 416.128Z" fill="#FFBB01"/>
</g>
<g opacity="0.1">
<path d="M269.042 172.962C269.042 102.265 318.616 66.4301 379.766 92.9211C440.917 119.412 490.491 198.198 490.491 268.894C490.491 332.316 453.905 351.261 427.211 354.367C423.011 354.856 417.473 349.913 415.58 342.404L401.131 285.077C399.66 279.238 401.419 273.79 405.955 271.481C415.8 266.469 422.883 257.783 422.883 239.606C422.883 213.678 404.013 185.82 379.766 175.317C355.498 164.803 337.026 180.088 336.651 202.104C336.38 218.038 343.94 233.009 353.981 248.589C357.342 253.804 358.542 259.659 357.225 263.741L342.635 308.988C340.618 315.243 334.349 315.173 329.824 310.292C295.16 272.908 269.042 219.95 269.042 172.962Z" stroke="#5E6C70" stroke-width="15"/>
<path d="M270.034 171.831C270.034 101.134 319.607 65.2996 380.758 91.7906C441.909 118.282 491.482 197.067 491.482 267.764C491.482 331.186 454.897 350.13 428.202 353.236C424.003 353.725 418.464 348.782 416.572 341.274L402.123 283.947C400.651 278.107 402.411 272.66 406.947 270.351C416.791 265.339 423.874 256.652 423.874 238.476C423.874 212.548 405.004 184.69 380.758 174.186C356.489 163.673 338.018 178.958 337.643 200.973C337.371 216.908 344.931 231.878 354.972 247.458C358.333 252.674 359.533 258.529 358.217 262.611L343.626 307.857C341.609 314.113 335.341 314.042 330.815 309.161C296.151 271.778 270.034 218.819 270.034 171.831Z" stroke="#5E6C70" stroke-width="15"/>
<path d="M271.025 170.7C271.025 100.004 320.598 64.169 381.749 90.66C442.9 117.151 492.473 195.937 492.473 266.633C492.473 330.055 455.888 349 429.194 352.106C424.994 352.595 419.455 347.652 417.563 340.143L403.114 282.816C401.642 276.977 403.402 271.529 407.938 269.22C417.782 264.208 424.865 255.522 424.865 237.345C424.865 211.417 405.995 183.559 381.749 173.056C357.48 162.542 339.009 177.827 338.634 199.842C338.362 215.777 345.923 230.748 355.963 246.328C359.324 251.543 360.524 257.398 359.208 261.48L344.617 306.726C342.6 312.982 336.332 312.911 331.806 308.03C297.142 270.647 271.025 217.689 271.025 170.7Z" stroke="#5E6C70" stroke-width="15"/>
<path d="M272.017 169.57C272.017 98.8733 321.59 63.0385 382.741 89.5295C443.892 116.021 493.465 194.806 493.465 265.503C493.465 328.925 456.88 347.869 430.186 350.975C425.986 351.464 420.448 346.521 418.555 339.013L404.106 281.686C402.634 275.846 404.394 270.399 408.93 268.089C418.774 263.078 425.858 254.391 425.858 236.215C425.858 210.287 406.988 182.429 382.741 171.925C358.472 161.412 340.001 176.697 339.626 198.712C339.354 214.647 346.915 229.617 356.956 245.197C360.317 250.413 361.516 256.268 360.2 260.35L345.61 305.596C343.592 311.852 337.324 311.781 332.798 306.9C298.135 269.517 272.017 216.558 272.017 169.57Z" stroke="#5E6C70" stroke-width="15"/>
<path d="M268.051 174.092C268.051 103.395 317.624 67.5606 378.775 94.0516C439.926 120.543 489.499 199.328 489.499 270.025C489.499 333.447 452.914 352.391 426.22 355.497C422.02 355.986 416.482 351.043 414.589 343.535L400.14 286.208C398.668 280.368 400.428 274.921 404.964 272.612C414.808 267.6 421.892 258.913 421.892 240.737C421.892 214.809 403.022 186.951 378.775 176.447C354.506 165.934 336.035 181.219 335.66 203.234C335.389 219.169 342.949 234.139 352.99 249.719C356.351 254.935 357.55 260.79 356.234 264.872L341.644 310.118C339.626 316.374 333.358 316.303 328.832 311.422C294.169 274.039 268.051 221.08 268.051 174.092Z" stroke="#323A3C" stroke-width="15"/>
</g>
<path d="M228.393 188.313C228.393 117.617 277.966 81.7818 339.117 108.273C400.268 134.764 449.841 213.549 449.841 284.246C449.841 347.668 413.256 366.613 386.562 369.719C382.362 370.207 376.824 365.264 374.931 357.756L360.482 300.429C359.01 294.589 360.77 289.142 365.306 286.833C375.15 281.821 382.234 273.135 382.234 254.958C382.234 229.03 363.364 201.172 339.117 190.668C314.848 180.155 296.377 195.44 296.002 217.455C295.73 233.39 303.291 248.36 313.332 263.941C316.693 269.156 317.892 275.011 316.576 279.093L301.986 324.339C299.968 330.595 293.7 330.524 289.174 325.643C254.511 288.26 228.393 235.302 228.393 188.313Z" stroke="#5100FF" stroke-width="15"/>
<path d="M228.393 188.313C228.393 117.617 277.966 81.7818 339.117 108.273C400.268 134.764 449.841 213.549 449.841 284.246C449.841 347.668 413.256 366.613 386.562 369.719C382.362 370.207 376.824 365.264 374.931 357.756L360.482 300.429C359.01 294.589 360.77 289.142 365.306 286.833C375.15 281.821 382.234 273.135 382.234 254.958C382.234 229.03 363.364 201.172 339.117 190.668C314.848 180.155 296.377 195.44 296.002 217.455C295.73 233.39 303.291 248.36 313.332 263.941C316.693 269.156 317.892 275.011 316.576 279.093L301.986 324.339C299.968 330.595 293.7 330.524 289.174 325.643C254.511 288.26 228.393 235.302 228.393 188.313Z" stroke="white" stroke-opacity="0.44" stroke-width="15"/>
<path d="M224.427 192.835C224.427 122.139 274 86.3039 335.151 112.795C396.302 139.286 445.875 218.072 445.875 288.768C445.875 352.19 409.29 371.135 382.596 374.241C378.396 374.729 372.858 369.787 370.965 362.278L356.516 304.951C355.044 299.112 356.804 293.664 361.34 291.355C371.184 286.343 378.268 277.657 378.268 259.48C378.268 233.552 359.398 205.694 335.151 195.19C310.882 184.677 292.411 199.962 292.036 221.977C291.765 237.912 299.325 252.883 309.366 268.463C312.727 273.678 313.926 279.533 312.61 283.615L298.02 328.861C296.002 335.117 289.734 335.046 285.208 330.165C250.545 292.782 224.427 239.824 224.427 192.835Z" stroke="#5100FF" stroke-width="15"/>
<path d="M186.752 204.795C186.752 134.099 236.326 98.2639 297.476 124.755C358.627 151.246 408.201 230.032 408.201 300.728C408.201 364.15 371.615 383.095 344.921 386.201C340.721 386.689 335.183 381.746 333.29 374.238L318.841 316.911C317.37 311.071 319.129 305.624 323.665 303.315C333.509 298.303 340.593 289.617 340.593 271.44C340.593 245.512 321.723 217.654 297.476 207.15C273.208 196.637 254.736 211.922 254.361 233.937C254.09 249.872 261.65 264.842 271.691 280.423C275.052 285.638 276.252 291.493 274.935 295.575L260.345 340.821C258.328 347.077 252.059 347.006 247.534 342.125C212.87 304.742 186.752 251.784 186.752 204.795Z" stroke="#FFBB01" stroke-width="15"/>
<path d="M186.752 204.795C186.752 134.099 236.326 98.2639 297.476 124.755C358.627 151.246 408.201 230.032 408.201 300.728C408.201 364.15 371.615 383.095 344.921 386.201C340.721 386.689 335.183 381.746 333.29 374.238L318.841 316.911C317.37 311.071 319.129 305.624 323.665 303.315C333.509 298.303 340.593 289.617 340.593 271.44C340.593 245.512 321.723 217.654 297.476 207.15C273.208 196.637 254.736 211.922 254.361 233.937C254.09 249.872 261.65 264.842 271.691 280.423C275.052 285.638 276.252 291.493 274.935 295.575L260.345 340.821C258.328 347.077 252.059 347.006 247.534 342.125C212.87 304.742 186.752 251.784 186.752 204.795Z" stroke="white" stroke-opacity="0.45" stroke-width="15"/>
<path d="M182.787 209.317C182.787 138.621 232.36 102.786 293.511 129.277C354.662 155.768 404.235 234.554 404.235 305.25C404.235 368.672 367.65 387.617 340.955 390.723C336.756 391.211 331.217 386.269 329.325 378.76L314.876 321.433C313.404 315.594 315.163 310.146 319.7 307.837C329.544 302.825 336.627 294.139 336.627 275.962C336.627 250.034 317.757 222.176 293.511 211.672C269.242 201.159 250.771 216.444 250.395 238.459C250.124 254.394 257.684 269.365 267.725 284.945C271.086 290.16 272.286 296.015 270.97 300.097L256.379 345.343C254.362 351.599 248.094 351.528 243.568 346.647C208.904 309.264 182.787 256.306 182.787 209.317Z" stroke="#FFBB01" stroke-width="15"/>
<g opacity="0.1" filter="url(#filter13_f_1655_4880)">
<path d="M376.411 447.337C376.13 449.8 363.951 450.433 349.21 448.75C334.468 447.067 322.746 443.706 323.027 441.243C323.308 438.78 335.487 438.147 350.228 439.83C364.97 441.513 376.692 444.874 376.411 447.337Z" fill="#3E3E3E"/>
</g>
<g opacity="0.05" filter="url(#filter14_f_1655_4880)">
<path d="M406.61 440.337C406.329 442.8 394.151 443.433 379.409 441.75C364.667 440.067 352.945 436.706 353.226 434.243C353.507 431.78 365.686 431.147 380.427 432.83C395.169 434.513 406.891 437.874 406.61 440.337Z" fill="#3E3E3E"/>
</g>
<g opacity="0.02" filter="url(#filter15_f_1655_4880)">
<path d="M444.61 443.618C444.329 446.081 432.151 446.713 417.409 445.03C402.667 443.348 390.945 439.986 391.226 437.523C391.507 435.06 403.686 434.428 418.427 436.111C433.169 437.793 444.891 441.155 444.61 443.618Z" fill="#3E3E3E"/>
</g>
<g opacity="0.1" filter="url(#filter16_f_1655_4880)">
<path d="M267.004 391.485C266.853 393.96 254.724 395.23 239.915 394.323C225.105 393.416 213.222 390.675 213.374 388.2C213.526 385.726 225.654 384.455 240.464 385.362C255.273 386.269 267.156 389.011 267.004 391.485Z" fill="#3E3E3E"/>
</g>
<g opacity="0.05" filter="url(#filter17_f_1655_4880)">
<path d="M297.203 384.485C297.052 386.96 284.923 388.23 270.114 387.323C255.304 386.416 243.422 383.675 243.573 381.2C243.725 378.726 255.853 377.455 270.663 378.362C285.472 379.269 297.355 382.011 297.203 384.485Z" fill="#3E3E3E"/>
</g>
<g opacity="0.02" filter="url(#filter18_f_1655_4880)">
<path d="M335.203 387.766C335.052 390.24 322.923 391.511 308.114 390.604C293.304 389.696 281.422 386.955 281.573 384.481C281.725 382.006 293.853 380.735 308.663 381.643C323.472 382.55 335.355 385.291 335.203 387.766Z" fill="#3E3E3E"/>
</g>
<defs>
<filter id="filter0_f_1655_4880" x="250.299" y="506" width="77" height="49" filterUnits="userSpaceOnUse" color-interpolation-filters="sRGB">
<feFlood flood-opacity="0" result="BackgroundImageFix"/>
<feBlend mode="normal" in="SourceGraphic" in2="BackgroundImageFix" result="shape"/>
<feGaussianBlur stdDeviation="5" result="effect1_foregroundBlur_1655_4880"/>
</filter>
<filter id="filter1_f_1655_4880" x="127.299" y="493" width="115" height="68" filterUnits="userSpaceOnUse" color-interpolation-filters="sRGB">
<feFlood flood-opacity="0" result="BackgroundImageFix"/>
<feBlend mode="normal" in="SourceGraphic" in2="BackgroundImageFix" result="shape"/>
<feGaussianBlur stdDeviation="5" result="effect1_foregroundBlur_1655_4880"/>
</filter>
<filter id="filter2_f_1655_4880" x="43.2988" y="428" width="97" height="59" filterUnits="userSpaceOnUse" color-interpolation-filters="sRGB">
<feFlood flood-opacity="0" result="BackgroundImageFix"/>
<feBlend mode="normal" in="SourceGraphic" in2="BackgroundImageFix" result="shape"/>
<feGaussianBlur stdDeviation="5" result="effect1_foregroundBlur_1655_4880"/>
</filter>
<filter id="filter3_f_1655_4880" x="4.29883" y="442" width="68" height="44" filterUnits="userSpaceOnUse" color-interpolation-filters="sRGB">
<feFlood flood-opacity="0" result="BackgroundImageFix"/>
<feBlend mode="normal" in="SourceGraphic" in2="BackgroundImageFix" result="shape"/>
<feGaussianBlur stdDeviation="5" result="effect1_foregroundBlur_1655_4880"/>
</filter>
<filter id="filter4_f_1655_4880" x="199.299" y="447" width="115" height="68" filterUnits="userSpaceOnUse" color-interpolation-filters="sRGB">
<feFlood flood-opacity="0" result="BackgroundImageFix"/>
<feBlend mode="normal" in="SourceGraphic" in2="BackgroundImageFix" result="shape"/>
<feGaussianBlur stdDeviation="5" result="effect1_foregroundBlur_1655_4880"/>
</filter>
<filter id="filter5_f_1655_4880" x="71.2988" y="514" width="72" height="44" filterUnits="userSpaceOnUse" color-interpolation-filters="sRGB">
<feFlood flood-opacity="0" result="BackgroundImageFix"/>
<feBlend mode="normal" in="SourceGraphic" in2="BackgroundImageFix" result="shape"/>
<feGaussianBlur stdDeviation="5" result="effect1_foregroundBlur_1655_4880"/>
</filter>
<filter id="filter6_f_1655_4880" x="55.2988" y="504" width="72" height="44" filterUnits="userSpaceOnUse" color-interpolation-filters="sRGB">
<feFlood flood-opacity="0" result="BackgroundImageFix"/>
<feBlend mode="normal" in="SourceGraphic" in2="BackgroundImageFix" result="shape"/>
<feGaussianBlur stdDeviation="5" result="effect1_foregroundBlur_1655_4880"/>
</filter>
<filter id="filter7_f_1655_4880" x="220.299" y="519" width="44" height="32" filterUnits="userSpaceOnUse" color-interpolation-filters="sRGB">
<feFlood flood-opacity="0" result="BackgroundImageFix"/>
<feBlend mode="normal" in="SourceGraphic" in2="BackgroundImageFix" result="shape"/>
<feGaussianBlur stdDeviation="5" result="effect1_foregroundBlur_1655_4880"/>
</filter>
<filter id="filter8_f_1655_4880" x="209.299" y="513" width="44" height="32" filterUnits="userSpaceOnUse" color-interpolation-filters="sRGB">
<feFlood flood-opacity="0" result="BackgroundImageFix"/>
<feBlend mode="normal" in="SourceGraphic" in2="BackgroundImageFix" result="shape"/>
<feGaussianBlur stdDeviation="5" result="effect1_foregroundBlur_1655_4880"/>
</filter>
<filter id="filter9_f_1655_4880" x="291.299" y="482" width="80" height="53" filterUnits="userSpaceOnUse" color-interpolation-filters="sRGB">
<feFlood flood-opacity="0" result="BackgroundImageFix"/>
<feBlend mode="normal" in="SourceGraphic" in2="BackgroundImageFix" result="shape"/>
<feGaussianBlur stdDeviation="5" result="effect1_foregroundBlur_1655_4880"/>
</filter>
<filter id="filter10_f_1655_4880" x="114.735" y="424.791" width="112.824" height="102.598" filterUnits="userSpaceOnUse" color-interpolation-filters="sRGB">
<feFlood flood-opacity="0" result="BackgroundImageFix"/>
<feBlend mode="normal" in="SourceGraphic" in2="BackgroundImageFix" result="shape"/>
<feGaussianBlur stdDeviation="10" result="effect1_foregroundBlur_1655_4880"/>
</filter>
<filter id="filter11_f_1655_4880" x="250.681" y="458.899" width="80.6387" height="74.9324" filterUnits="userSpaceOnUse" color-interpolation-filters="sRGB">
<feFlood flood-opacity="0" result="BackgroundImageFix"/>
<feBlend mode="normal" in="SourceGraphic" in2="BackgroundImageFix" result="shape"/>
<feGaussianBlur stdDeviation="10" result="effect1_foregroundBlur_1655_4880"/>
</filter>
<filter id="filter12_f_1655_4880" x="33.623" y="378.571" width="97.0498" height="89.0393" filterUnits="userSpaceOnUse" color-interpolation-filters="sRGB">
<feFlood flood-opacity="0" result="BackgroundImageFix"/>
<feBlend mode="normal" in="SourceGraphic" in2="BackgroundImageFix" result="shape"/>
<feGaussianBlur stdDeviation="10" result="effect1_foregroundBlur_1655_4880"/>
</filter>
<filter id="filter13_f_1655_4880" x="313.022" y="428.888" width="73.3936" height="30.8041" filterUnits="userSpaceOnUse" color-interpolation-filters="sRGB">
<feFlood flood-opacity="0" result="BackgroundImageFix"/>
<feBlend mode="normal" in="SourceGraphic" in2="BackgroundImageFix" result="shape"/>
<feGaussianBlur stdDeviation="5" result="effect1_foregroundBlur_1655_4880"/>
</filter>
<filter id="filter14_f_1655_4880" x="343.222" y="421.888" width="73.3936" height="30.8041" filterUnits="userSpaceOnUse" color-interpolation-filters="sRGB">
<feFlood flood-opacity="0" result="BackgroundImageFix"/>
<feBlend mode="normal" in="SourceGraphic" in2="BackgroundImageFix" result="shape"/>
<feGaussianBlur stdDeviation="5" result="effect1_foregroundBlur_1655_4880"/>
</filter>
<filter id="filter15_f_1655_4880" x="381.222" y="425.168" width="73.3936" height="30.8041" filterUnits="userSpaceOnUse" color-interpolation-filters="sRGB">
<feFlood flood-opacity="0" result="BackgroundImageFix"/>
<feBlend mode="normal" in="SourceGraphic" in2="BackgroundImageFix" result="shape"/>
<feGaussianBlur stdDeviation="5" result="effect1_foregroundBlur_1655_4880"/>
</filter>
<filter id="filter16_f_1655_4880" x="203.372" y="375.069" width="73.6338" height="29.5468" filterUnits="userSpaceOnUse" color-interpolation-filters="sRGB">
<feFlood flood-opacity="0" result="BackgroundImageFix"/>
<feBlend mode="normal" in="SourceGraphic" in2="BackgroundImageFix" result="shape"/>
<feGaussianBlur stdDeviation="5" result="effect1_foregroundBlur_1655_4880"/>
</filter>
<filter id="filter17_f_1655_4880" x="233.571" y="368.069" width="73.6338" height="29.5468" filterUnits="userSpaceOnUse" color-interpolation-filters="sRGB">
<feFlood flood-opacity="0" result="BackgroundImageFix"/>
<feBlend mode="normal" in="SourceGraphic" in2="BackgroundImageFix" result="shape"/>
<feGaussianBlur stdDeviation="5" result="effect1_foregroundBlur_1655_4880"/>
</filter>
<filter id="filter18_f_1655_4880" x="271.571" y="371.35" width="73.6338" height="29.5468" filterUnits="userSpaceOnUse" color-interpolation-filters="sRGB">
<feFlood flood-opacity="0" result="BackgroundImageFix"/>
<feBlend mode="normal" in="SourceGraphic" in2="BackgroundImageFix" result="shape"/>
<feGaussianBlur stdDeviation="5" result="effect1_foregroundBlur_1655_4880"/>
</filter>
<linearGradient id="paint0_linear_1655_4880" x1="268.774" y1="520.05" x2="285.692" y2="541.371" gradientUnits="userSpaceOnUse">
<stop stop-color="#242424"/>
<stop offset="1" stop-color="#C4C4C4" stop-opacity="0"/>
</linearGradient>
<linearGradient id="paint1_linear_1655_4880" x1="151.424" y1="509.704" x2="179.382" y2="545.181" gradientUnits="userSpaceOnUse">
<stop stop-color="#242424"/>
<stop offset="1" stop-color="#C4C4C4" stop-opacity="0"/>
</linearGradient>
<linearGradient id="paint2_linear_1655_4880" x1="64.7478" y1="443.447" x2="87.4768" y2="472.219" gradientUnits="userSpaceOnUse">
<stop stop-color="#242424"/>
<stop offset="1" stop-color="#C4C4C4" stop-opacity="0"/>
</linearGradient>
<linearGradient id="paint3_linear_1655_4880" x1="21.4359" y1="455.352" x2="35.3801" y2="473.233" gradientUnits="userSpaceOnUse">
<stop stop-color="#242424"/>
<stop offset="1" stop-color="#C4C4C4" stop-opacity="0"/>
</linearGradient>
<linearGradient id="paint4_linear_1655_4880" x1="223.424" y1="463.704" x2="251.382" y2="499.181" gradientUnits="userSpaceOnUse">
<stop stop-color="#242424"/>
<stop offset="1" stop-color="#C4C4C4" stop-opacity="0"/>
</linearGradient>
<linearGradient id="paint5_linear_1655_4880" x1="89.0306" y1="527.352" x2="102.665" y2="546.292" gradientUnits="userSpaceOnUse">
<stop stop-color="#242424"/>
<stop offset="1" stop-color="#C4C4C4" stop-opacity="0"/>
</linearGradient>
<linearGradient id="paint6_linear_1655_4880" x1="73.0306" y1="517.352" x2="86.665" y2="536.292" gradientUnits="userSpaceOnUse">
<stop stop-color="#242424"/>
<stop offset="1" stop-color="#C4C4C4" stop-opacity="0"/>
</linearGradient>
<linearGradient id="paint7_linear_1655_4880" x1="233.867" y1="530.676" x2="240.839" y2="539.616" gradientUnits="userSpaceOnUse">
<stop stop-color="#242424"/>
<stop offset="1" stop-color="#C4C4C4" stop-opacity="0"/>
</linearGradient>
<linearGradient id="paint8_linear_1655_4880" x1="222.867" y1="524.676" x2="229.839" y2="533.616" gradientUnits="userSpaceOnUse">
<stop stop-color="#242424"/>
<stop offset="1" stop-color="#C4C4C4" stop-opacity="0"/>
</linearGradient>
<linearGradient id="paint9_linear_1655_4880" x1="310.22" y1="496.609" x2="329.759" y2="519.386" gradientUnits="userSpaceOnUse">
<stop stop-color="#242424"/>
<stop offset="1" stop-color="#C4C4C4" stop-opacity="0"/>
</linearGradient>
</defs>
</svg>
