<svg width="871" height="477" viewBox="0 0 871 477" fill="none" xmlns="http://www.w3.org/2000/svg">
<g opacity="0.1" filter="url(#filter0_f_913_5065)">
<path d="M712.894 383L549 301.593L664.027 233L861 286.518L712.894 383Z" fill="url(#paint0_linear_913_5065)"/>
</g>
<path d="M658.221 139.132V222.832C658.221 230.01 654.375 236.637 648.143 240.198L548.987 296.849V202.595L658.221 139.132Z" fill="#3E484A"/>
<path d="M548.987 202.595L466.778 154.414V238.266C466.778 245.443 470.624 252.07 476.856 255.631L548.987 296.849V202.595Z" fill="#323A3C"/>
<path d="M658.221 139.132L576.992 91.7796L466.778 154.414L548.987 202.595L658.221 139.132Z" fill="#1E1E1E"/>
<path d="M658.221 124.678L576.992 77.3249L466.778 139.96L548.987 188.141L658.221 124.678Z" fill="#5F6769"/>
<path d="M644.482 125.834L574.911 85.2778L480.517 138.923L550.926 180.188L644.482 125.834" fill="#27497C"/>
<path d="M644.482 119.284L574.911 78.7285L480.517 132.373L550.926 173.639L644.482 119.284Z" fill="#4F11F7"/>
<path d="M548.987 202.595V188.141L466.778 139.96V154.414L548.987 202.595Z" fill="#A0A0A0"/>
<path d="M658.221 139.132V124.678L548.987 188.141V202.595L658.221 139.132" fill="#C4C4C4"/>
<path d="M550.926 180.188V173.639L480.517 132.373V138.923L550.926 180.188Z" fill="#A0A0A0"/>
<path d="M550.926 180.188V173.639L644.483 119.284V125.834L550.926 180.188Z" fill="#C4C4C4"/>
<path d="M623.633 120.53L569.214 88.8918L575.826 85.299L630.005 116.706L623.633 120.53Z" fill="#5F6769"/>
<path d="M623.633 123.624V120.53L569.214 88.8919V91.9855L623.633 123.624" fill="#A0A0A0"/>
<path d="M623.633 123.624V120.53L630.005 116.707V119.801L623.633 123.624Z" fill="#C4C4C4"/>
<path d="M550.082 162.16L495.664 130.523L502.275 126.93L556.454 158.338L550.082 162.16" fill="#6D6D6D"/>
<path d="M550.082 165.255V162.16L495.664 130.522V133.616L550.082 165.255Z" fill="#5F6769"/>
<path d="M550.082 165.255V162.16L556.454 158.338V161.432L550.082 165.255" fill="#C4C4C4"/>
<path d="M643.127 142.843V166.093L633.009 171.844V148.732L643.127 142.843Z" fill="#DBDBDB"/>
<path d="M633.009 171.844L630.894 170.475V147.596L633.009 148.732V171.844" fill="#BABABA"/>
<path d="M633.009 148.732L630.894 147.596L641.013 141.707L643.128 142.843L633.009 148.732Z" fill="#A0A0A0"/>
<path d="M579.74 179.28V202.531L569.621 208.281V185.169L579.74 179.28Z" fill="#DBDBDB"/>
<path d="M569.621 208.281L567.506 206.912V184.033L569.621 185.169V208.281" fill="#BABABA"/>
<path d="M569.621 185.169L567.506 184.032L577.625 178.144L579.74 179.28L569.621 185.169Z" fill="#A0A0A0"/>
<path d="M595.069 112.963V91.7371L539.292 123.601V145.654L547.969 140.412V126.958L587.219 105.061V117.662L595.069 112.963Z" fill="#939393"/>
<path d="M539.292 145.654L531.959 141.212V119.624L539.292 123.601V145.654Z" fill="#7A7A7A"/>
<path d="M587.219 117.663L579.885 113.686V109.153L587.219 105.062V117.663Z" fill="#7A7A7A"/>
<path d="M595.069 91.7371L587.735 87.7602L531.959 119.624L539.292 123.601L595.069 91.7371Z" fill="#5F6769"/>
<g opacity="0.1" filter="url(#filter1_f_913_5065)">
<path d="M469 466.5L306 385L469 292L490 302.5L451 326.5L575.5 392L469 466.5Z" fill="url(#paint1_linear_913_5065)"/>
</g>
<g filter="url(#filter2_f_913_5065)">
<path d="M190 461L310 386.646L163.375 304L10.5 335L190 461Z" fill="url(#paint2_linear_913_5065)" fill-opacity="0.1"/>
</g>
<path d="M498.697 109.709V266.069C498.697 273.246 494.851 279.873 488.619 283.434L306.185 387.665V221.554L498.697 109.709Z" fill="#3E484A"/>
<path fill-rule="evenodd" clip-rule="evenodd" d="M378 235.755V289.441L387.33 284.216V278.78L382.673 281.388V238.549L387.33 235.942V230.53L378 235.755Z" fill="white"/>
<path fill-rule="evenodd" clip-rule="evenodd" d="M432.515 205.225V210.637L437.171 208.029V250.868L432.515 253.476V258.911L441.844 253.687V200L432.515 205.225Z" fill="white"/>
<path fill-rule="evenodd" clip-rule="evenodd" d="M411.777 243.455C411.728 253.275 407.461 262.094 399.661 266.462L399.658 266.437C396.54 268.157 394.058 269.031 391.928 268.31V270.765L387.329 273.341V262.193L391.928 259.618C393.233 262.889 395.928 262.728 399.152 260.923C401.383 259.673 403.22 257.693 404.661 254.983C406.101 252.272 406.823 249.379 406.823 246.299C406.823 243.358 406.141 241.214 404.778 239.867C403.415 238.522 401.4 238.596 398.742 240.085C395.518 241.891 393.254 245.163 391.95 249.895L387.351 252.471V241.324L391.95 238.748V241.204C394.142 238.005 396.776 235.98 400.025 234.161C405.092 231.323 411.777 231.712 411.777 243.455V243.455Z" fill="white"/>
<path fill-rule="evenodd" clip-rule="evenodd" d="M432.524 242.592V248.019L427.821 250.666L415.972 243.355L413.632 244.678L413.677 253.173L418.312 250.577V255.991L409.054 261.176V229.088L413.723 226.5L413.677 239.225L415.972 237.953L422.216 227.145L418.37 229.298V223.884L432.512 215.964V221.378L428.929 223.385L420.549 238.057L430.298 243.838L432.524 242.592Z" fill="white"/>
<mask id="mask0_913_5065" style="mask-type:alpha" maskUnits="userSpaceOnUse" x="378" y="200" width="64" height="90">
<path fill-rule="evenodd" clip-rule="evenodd" d="M378 289.441L441.844 253.686V200L378 235.755V289.441Z" fill="white"/>
</mask>
<g mask="url(#mask0_913_5065)">
<path fill-rule="evenodd" clip-rule="evenodd" d="M391.984 281.609L427.86 261.518V256.106L391.984 276.198V281.609Z" fill="white"/>
<path fill-rule="evenodd" clip-rule="evenodd" d="M391.984 233.335L427.86 213.244V207.832L391.984 227.923V233.335Z" fill="#F2BC2B"/>
</g>
<path d="M306.185 221.554L161.303 136.641V293.269C161.303 300.446 165.148 307.073 171.38 310.634L306.185 387.665V221.554Z" fill="#323A3C"/>
<path d="M498.697 109.709L355.54 26.2553L161.303 136.641L306.185 221.554L498.697 109.709Z" fill="#1E1E1E"/>
<path d="M498.697 84.2343L355.54 0.780736L161.303 111.168L306.185 196.081L498.697 84.2343Z" fill="#5F6769"/>
<path d="M474.485 86.2729L351.874 14.797L185.516 109.34L309.603 182.064L474.485 86.2729" fill="#27497C"/>
<path d="M474.485 74.729L351.874 3.25448L185.516 97.7965L309.603 170.522L474.485 74.729Z" fill="#FCBC10"/>
<path d="M306.185 221.554V196.081L161.303 111.168V136.641L306.185 221.554Z" fill="#A0A0A0"/>
<path d="M498.697 109.709V84.2343L306.185 196.081V221.554L498.697 109.709" fill="#C4C4C4"/>
<path d="M309.603 182.064V170.522L185.516 97.7966V109.34L309.603 182.064Z" fill="#A0A0A0"/>
<path d="M309.603 182.064V170.522L474.484 74.7291V86.2729L309.603 182.064Z" fill="#C4C4C4"/>
<path d="M437.739 76.9238L341.833 21.1663L353.486 14.8344L448.969 70.1861L437.739 76.9238Z" fill="#5F6769"/>
<path d="M437.739 82.3774V76.924L341.833 21.1663V26.6185L437.739 82.3774" fill="#A0A0A0"/>
<path d="M437.739 82.3774V76.924L448.969 70.1862V75.6397L437.739 82.3774Z" fill="#C4C4C4"/>
<path d="M308.114 150.293L212.209 94.5354L223.861 88.2035L319.344 143.557L308.114 150.293" fill="#6D6D6D"/>
<path d="M308.114 155.746V150.293L212.209 94.5352V99.9873L308.114 155.746Z" fill="#5F6769"/>
<path d="M308.114 155.746V150.293L319.344 143.556V149.009L308.114 155.746" fill="#C4C4C4"/>
<path d="M472.096 116.249V157.224L454.264 167.359V126.627L472.096 116.249Z" fill="#DBDBDB"/>
<path d="M454.264 167.359L450.536 164.947V124.625L454.264 126.627V167.359" fill="#BABABA"/>
<path d="M454.263 126.627L450.536 124.625L468.369 114.246L472.096 116.249L454.263 126.627Z" fill="#A0A0A0"/>
<path d="M360.384 180.464V221.44L342.551 231.574V190.842L360.384 180.464Z" fill="#DBDBDB"/>
<path d="M342.551 231.574L338.823 229.162V188.84L342.551 190.842V231.574" fill="#BABABA"/>
<path d="M342.551 190.842L338.823 188.84L356.656 178.461L360.384 180.464L342.551 190.842Z" fill="#A0A0A0"/>
<path d="M387.398 63.5885V26.1805L289.1 82.3372V121.202L304.391 111.963V88.2539L373.564 49.6631V71.8708L387.398 63.5885Z" fill="#939393"/>
<path d="M289.1 121.202L276.176 113.373V75.3285L289.1 82.3373V121.202Z" fill="#7A7A7A"/>
<path d="M373.564 71.8708L360.639 64.8621V56.8735L373.564 49.6632V71.8708Z" fill="#7A7A7A"/>
<path d="M387.399 26.1806L374.473 19.1719L276.176 75.3287L289.1 82.3374L387.399 26.1806Z" fill="#5F6769"/>
<g opacity="0.15" filter="url(#filter3_f_913_5065)">
<path d="M470.446 417L513 363.048L447.319 326L371 341.746L470.446 417Z" fill="url(#paint3_linear_913_5065)"/>
</g>
<path d="M588.719 246.093V304.043C588.719 311.22 584.873 317.848 578.641 321.408L508.998 361.198V292.409L588.719 246.093Z" fill="#3E484A"/>
<g opacity="0.1" filter="url(#filter4_f_913_5065)">
<path d="M611 413.5L502 359.5L578.5 314L709.5 349.5L611 413.5Z" fill="url(#paint4_linear_913_5065)"/>
</g>
<path d="M508.998 292.409L449 257.246V315.307C449 322.484 452.846 329.111 459.077 332.672L508.998 361.198V292.409Z" fill="#323A3C"/>
<path d="M588.719 246.093L529.436 211.534L449 257.246L508.998 292.409L588.719 246.093Z" fill="#1E1E1E"/>
<path d="M588.719 235.544L529.436 200.985L449 246.697L508.998 281.861L588.719 235.544Z" fill="#5F6769"/>
<path d="M578.692 236.388L527.918 206.789L459.027 245.94L510.413 276.056L578.692 236.388" fill="#27497C"/>
<path d="M578.692 231.607L527.918 202.009L459.027 241.16L510.413 271.276L578.692 231.607Z" fill="#FF3559"/>
<path d="M508.998 292.409V281.86L449 246.697V257.246L508.998 292.409Z" fill="#A0A0A0"/>
<path d="M588.719 246.093V235.544L508.998 281.86V292.409L588.719 246.093" fill="#C4C4C4"/>
<path d="M510.413 276.056V271.277L459.027 241.16V245.94L510.413 276.056Z" fill="#A0A0A0"/>
<path d="M510.413 276.056V271.277L578.692 231.608V236.388L510.413 276.056Z" fill="#C4C4C4"/>
<path d="M563.476 232.516L523.76 209.426L528.585 206.804L568.126 229.726L563.476 232.516Z" fill="#5F6769"/>
<path d="M563.476 234.775V232.516L523.76 209.426V211.684L563.476 234.775" fill="#A0A0A0"/>
<path d="M563.476 234.775V232.516L568.126 229.726V231.984L563.476 234.775Z" fill="#C4C4C4"/>
<path d="M509.796 262.899L470.081 239.81L474.906 237.187L514.447 260.11L509.796 262.899" fill="#6D6D6D"/>
<path d="M509.796 265.158V262.899L470.081 239.809V242.067L509.796 265.158Z" fill="#5F6769"/>
<path d="M509.796 265.158V262.899L514.447 260.11V262.368L509.796 265.158" fill="#C4C4C4"/>
<path d="M577.703 248.801V265.77L570.318 269.967V253.099L577.703 248.801Z" fill="#DBDBDB"/>
<path d="M570.319 269.967L568.775 268.968V252.27L570.319 253.099V269.967" fill="#BABABA"/>
<path d="M570.319 253.099L568.775 252.27L576.16 247.972L577.704 248.801L570.319 253.099Z" fill="#A0A0A0"/>
<path d="M531.442 275.393V292.362L524.057 296.559V279.691L531.442 275.393Z" fill="#DBDBDB"/>
<path d="M524.057 296.559L522.513 295.56V278.862L524.057 279.691V296.559" fill="#BABABA"/>
<path d="M524.057 279.691L522.513 278.862L529.898 274.564L531.442 275.393L524.057 279.691Z" fill="#A0A0A0"/>
<path d="M542.629 226.994V211.503L501.922 234.758V250.852L508.254 247.027V237.208L536.9 221.227V230.424L542.629 226.994Z" fill="#939393"/>
<path d="M501.922 250.852L496.57 247.61V231.856L501.922 234.758V250.852Z" fill="#7A7A7A"/>
<path d="M536.9 230.424L531.547 227.521V224.213L536.9 221.227V230.424Z" fill="#7A7A7A"/>
<path d="M542.629 211.503L537.276 208.601L496.57 231.856L501.922 234.758L542.629 211.503Z" fill="#5F6769"/>
<defs>
<filter id="filter0_f_913_5065" x="539" y="223" width="332" height="170" filterUnits="userSpaceOnUse" color-interpolation-filters="sRGB">
<feFlood flood-opacity="0" result="BackgroundImageFix"/>
<feBlend mode="normal" in="SourceGraphic" in2="BackgroundImageFix" result="shape"/>
<feGaussianBlur stdDeviation="5" result="effect1_foregroundBlur_913_5065"/>
</filter>
<filter id="filter1_f_913_5065" x="296" y="282" width="289.5" height="194.5" filterUnits="userSpaceOnUse" color-interpolation-filters="sRGB">
<feFlood flood-opacity="0" result="BackgroundImageFix"/>
<feBlend mode="normal" in="SourceGraphic" in2="BackgroundImageFix" result="shape"/>
<feGaussianBlur stdDeviation="5" result="effect1_foregroundBlur_913_5065"/>
</filter>
<filter id="filter2_f_913_5065" x="0.5" y="294" width="319.5" height="177" filterUnits="userSpaceOnUse" color-interpolation-filters="sRGB">
<feFlood flood-opacity="0" result="BackgroundImageFix"/>
<feBlend mode="normal" in="SourceGraphic" in2="BackgroundImageFix" result="shape"/>
<feGaussianBlur stdDeviation="5" result="effect1_foregroundBlur_913_5065"/>
</filter>
<filter id="filter3_f_913_5065" x="361" y="316" width="162" height="111" filterUnits="userSpaceOnUse" color-interpolation-filters="sRGB">
<feFlood flood-opacity="0" result="BackgroundImageFix"/>
<feBlend mode="normal" in="SourceGraphic" in2="BackgroundImageFix" result="shape"/>
<feGaussianBlur stdDeviation="5" result="effect1_foregroundBlur_913_5065"/>
</filter>
<filter id="filter4_f_913_5065" x="492" y="304" width="227.5" height="119.5" filterUnits="userSpaceOnUse" color-interpolation-filters="sRGB">
<feFlood flood-opacity="0" result="BackgroundImageFix"/>
<feBlend mode="normal" in="SourceGraphic" in2="BackgroundImageFix" result="shape"/>
<feGaussianBlur stdDeviation="5" result="effect1_foregroundBlur_913_5065"/>
</filter>
<linearGradient id="paint0_linear_913_5065" x1="604.634" y1="260.136" x2="727.498" y2="382.68" gradientUnits="userSpaceOnUse">
<stop stop-color="#343434"/>
<stop offset="1" stop-color="#C4C4C4" stop-opacity="0"/>
</linearGradient>
<linearGradient id="paint1_linear_913_5065" x1="384" y1="341" x2="446" y2="445.5" gradientUnits="userSpaceOnUse">
<stop stop-color="#282828"/>
<stop offset="1" stop-color="#C4C4C4" stop-opacity="0"/>
</linearGradient>
<linearGradient id="paint2_linear_913_5065" x1="223.78" y1="332.926" x2="138.021" y2="451.69" gradientUnits="userSpaceOnUse">
<stop stop-color="#4A4A4A"/>
<stop offset="1" stop-color="#C4C4C4" stop-opacity="0"/>
</linearGradient>
<linearGradient id="paint3_linear_913_5065" x1="474.378" y1="338.967" x2="435.925" y2="392.179" gradientUnits="userSpaceOnUse">
<stop stop-color="#4A4A4A"/>
<stop offset="1" stop-color="#C4C4C4" stop-opacity="0"/>
</linearGradient>
<linearGradient id="paint4_linear_913_5065" x1="539" y1="332" x2="620.5" y2="413.5" gradientUnits="userSpaceOnUse">
<stop stop-color="#343434"/>
<stop offset="1" stop-color="#C4C4C4" stop-opacity="0"/>
</linearGradient>
</defs>
</svg>
