<svg width="37" height="37" viewBox="0 0 37 37" fill="none" xmlns="http://www.w3.org/2000/svg">
<path d="M36.7513 0.138631L0.625977 0.145874L0.633219 36.2712L36.7586 36.264L36.7513 0.138631Z" fill="#6CC04A"/>
<path d="M4.89453 32.679L4.89453 18.7113L9.65363 18.7113L13.0034 30.2141L13.2076 30.2141L13.2076 18.7113L16.0263 18.7113L16.0263 32.679L11.3898 32.679L7.91748 21.1762L7.71323 21.1762L7.71323 32.679L4.89453 32.679Z" fill="white"/>
<path d="M17.9332 34.1169L17.9332 31.652C18.4779 31.652 18.8728 31.5493 19.1179 31.3439C19.363 31.1385 19.4856 30.7551 19.4856 30.1936L19.4856 18.7113L22.2838 18.7113L22.3042 30.3169C22.3042 31.8095 21.9706 32.816 21.3034 33.3363C20.6498 33.8567 19.5264 34.1169 17.9332 34.1169Z" fill="white"/>
<path d="M29.489 20.9297C28.0048 20.9297 27.2627 21.4227 27.2627 22.4087C27.2627 22.8469 27.4465 23.1824 27.8141 23.4152C28.1818 23.6479 29.0397 23.9834 30.3877 24.4217C31.7494 24.8599 32.7026 25.3597 33.2473 25.9211C33.792 26.4689 34.0643 27.3179 34.0643 28.4682C34.0643 29.9334 33.6217 31.0426 32.7366 31.7958C31.8515 32.5489 30.6941 32.9255 29.2643 32.9255C28.2022 32.9255 26.9018 32.7612 25.3631 32.4326L24.6278 32.2888L24.9137 30.0909C26.7384 30.3374 28.1341 30.4606 29.1009 30.4606C30.5443 30.4606 31.266 29.8581 31.266 28.653C31.266 28.2148 31.0958 27.8725 30.7554 27.626C30.4286 27.3795 29.7682 27.1125 28.7741 26.8249C27.1946 26.373 26.078 25.839 25.4244 25.2227C24.7844 24.5928 24.4644 23.7233 24.4644 22.6141C24.4644 21.2173 24.8865 20.1766 25.7308 19.4919C26.575 18.8072 27.7324 18.4648 29.2031 18.4648C30.2107 18.4648 31.4907 18.6018 33.043 18.8756L33.7783 19.0194L33.5537 21.2584C31.6337 21.0393 30.2788 20.9297 29.489 20.9297Z" fill="white"/>
</svg>
