<svg width="347" height="227" viewBox="0 0 347 227" fill="none" xmlns="http://www.w3.org/2000/svg">
<path d="M335.709 123.852C334.556 127.345 331.736 131.217 329.293 132.673C327.854 133.537 326.71 133.548 326.017 132.772C325.698 132.417 325.474 131.885 325.359 131.19C325.251 130.485 325.35 129.773 325.553 129.095L325.082 128.848C326.469 124.474 329.145 118.12 333.269 119.271C331.266 119.3 330.31 121.427 329.152 123.255C329.205 123.497 329.239 123.756 329.23 124.046C329.19 125.464 328.445 126.772 327.787 127.92C327.488 128.45 326.93 129.432 326.892 129.758C327.057 130.735 327.931 130.868 329.237 130.089C329.673 129.826 330.133 129.458 330.597 129.011C329.77 129.441 329.129 129.277 328.829 128.536C328.548 127.855 328.608 126.792 328.995 125.627C329.778 123.255 331.681 120.634 333.324 119.65C334.592 118.889 335.523 119.053 335.945 120.073C336.154 120.588 336.402 121.756 335.709 123.852V123.852ZM312.402 161.001C310.471 163.682 306.625 165.668 303.652 165.525C301.902 165.444 300.637 164.717 300.017 163.506C299.731 162.949 299.586 162.284 299.59 161.526C299.602 160.761 299.848 160.127 300.201 159.595L299.729 159.048C302.085 155.645 306.243 151.132 310.578 154.927C308.363 153.659 306.902 155.131 305.281 156.18C305.292 156.455 305.281 156.728 305.216 157.008C304.903 158.374 303.834 159.18 302.89 159.881C302.457 160.209 301.657 160.813 301.555 161.11C301.552 162.176 302.491 162.87 304.081 162.947C304.613 162.971 305.188 162.904 305.785 162.77C304.788 162.653 304.115 162.084 303.926 161.162C303.743 160.31 304.01 159.301 304.657 158.407C305.97 156.581 308.566 155.24 310.567 155.333C312.109 155.403 313.107 156.162 313.381 157.443C313.514 158.08 313.566 159.389 312.402 161.001ZM281.642 184.701C279.708 187.382 275.862 189.368 272.89 189.224C271.139 189.144 269.875 188.417 269.254 187.206C268.97 186.648 268.826 185.983 268.829 185.225C268.841 184.46 269.087 183.826 269.438 183.294L268.966 182.747C271.322 179.344 275.48 174.831 279.817 178.626C277.6 177.359 276.139 178.83 274.52 179.879C274.529 180.154 274.518 180.428 274.455 180.707C274.143 182.073 273.072 182.879 272.129 183.58C271.696 183.909 270.895 184.512 270.792 184.81C270.79 185.875 271.729 186.569 273.318 186.646C273.851 186.67 274.426 186.604 275.024 186.469C274.027 186.352 273.353 185.783 273.163 184.861C272.982 184.009 273.248 183 273.894 182.107C275.209 180.28 277.805 178.939 279.804 179.032C281.348 179.102 282.344 179.861 282.619 181.142C282.751 181.779 282.805 183.088 281.642 184.701V184.701ZM250.195 198.935C248.262 201.616 244.416 203.602 241.444 203.458C239.693 203.378 238.428 202.651 237.808 201.44C237.524 200.882 237.379 200.217 237.383 199.459C237.395 198.694 237.641 198.06 237.992 197.528L237.52 196.981C239.876 193.578 244.034 189.065 248.371 192.86C246.154 191.593 244.693 193.064 243.074 194.113C243.083 194.388 243.072 194.662 243.009 194.941C242.696 196.307 241.625 197.113 240.683 197.814C240.25 198.143 239.448 198.746 239.346 199.044C239.344 200.109 240.282 200.803 241.872 200.88C242.405 200.904 242.98 200.838 243.578 200.703C242.581 200.586 241.907 200.017 241.717 199.095C241.536 198.243 241.801 197.234 242.448 196.341C243.763 194.514 246.359 193.173 248.358 193.266C249.902 193.336 250.898 194.095 251.173 195.376C251.305 196.013 251.359 197.322 250.195 198.935V198.935ZM223.753 209.492C220.881 211.751 215.736 212.218 212.042 210.557C209.864 209.581 208.404 208.072 207.836 206.308C207.573 205.491 207.504 204.616 207.64 203.71C207.781 202.793 208.195 202.15 208.729 201.685L208.229 200.787C211.752 197.876 217.717 194.516 222.498 201.258C219.939 198.622 217.864 199.663 215.661 200.114C215.629 200.452 215.567 200.774 215.441 201.083C214.819 202.569 213.343 203.004 212.043 203.379C211.445 203.554 210.342 203.881 210.163 204.189C209.979 205.469 211.036 206.773 213.013 207.667C213.675 207.961 214.408 208.173 215.175 208.303C213.951 207.667 213.203 206.64 213.123 205.438C213.039 204.317 213.542 203.238 214.502 202.485C216.454 200.944 219.928 200.624 222.414 201.742C224.332 202.598 225.452 204.015 225.577 205.691C225.634 206.525 225.483 208.13 223.753 209.492V209.492ZM194.735 215.339C191.877 217.636 186.7 218.008 182.956 216.187C180.747 215.118 179.255 213.507 178.656 211.647C178.38 210.789 178.298 209.872 178.42 208.929C178.551 207.972 178.958 207.311 179.488 206.834L178.972 205.884C182.475 202.919 188.437 199.543 193.352 206.7C190.735 203.884 188.661 204.931 186.448 205.35C186.421 205.704 186.364 206.039 186.238 206.355C185.635 207.898 184.155 208.318 182.85 208.682C182.253 208.852 181.145 209.172 180.969 209.485C180.802 210.822 181.888 212.208 183.891 213.186C184.562 213.509 185.304 213.746 186.079 213.903C184.835 213.207 184.068 212.119 183.969 210.86C183.869 209.684 184.359 208.57 185.315 207.801C187.258 206.237 190.753 205.979 193.274 207.205C195.219 208.143 196.368 209.648 196.515 211.404C196.588 212.279 196.457 213.952 194.735 215.339V215.339ZM165.182 215.222C165.228 216.107 165.022 217.817 163.054 219.325C159.788 221.826 154.011 222.495 149.909 220.853C147.488 219.887 145.887 218.331 145.288 216.47C145.01 215.613 144.95 214.681 145.125 213.716C145.303 212.736 145.779 212.039 146.388 211.521L145.847 210.587C149.859 207.371 156.616 203.599 161.83 210.608C159.018 207.888 156.67 209.07 154.189 209.62C154.148 209.982 154.071 210.327 153.923 210.659C153.194 212.26 151.532 212.771 150.064 213.216C149.392 213.422 148.147 213.808 147.942 214.14C147.706 215.508 148.862 216.858 151.059 217.742C151.793 218.033 152.612 218.236 153.467 218.349C152.108 217.712 151.294 216.647 151.229 215.37C151.162 214.182 151.748 213.018 152.841 212.181C155.061 210.479 158.962 210.018 161.724 211.126C163.856 211.975 165.079 213.44 165.182 215.222ZM132.184 218.138C132.123 218.992 131.703 220.564 129.521 221.468C125.897 222.965 119.953 222.035 115.992 219.361C113.656 217.783 112.221 215.869 111.845 213.933C111.668 213.039 111.725 212.136 112.019 211.262C112.322 210.38 112.89 209.846 113.571 209.519L113.139 208.481C117.605 206.504 124.929 204.744 129.353 212.834C126.835 209.482 124.307 209.967 121.723 209.822C121.635 210.155 121.516 210.465 121.323 210.737C120.386 212.067 118.636 212.099 117.093 212.128C116.386 212.142 115.075 212.173 114.824 212.432C114.417 213.672 115.424 215.272 117.543 216.707C118.254 217.187 119.058 217.601 119.911 217.939C118.613 216.966 117.918 215.729 118.01 214.498C118.089 213.346 118.826 212.396 120.038 211.896C122.5 210.875 126.515 211.495 129.182 213.297C131.24 214.684 132.302 216.413 132.184 218.138V218.138ZM92.6137 215.679C92.4949 216.548 91.8799 218.157 89.0813 219.174C84.4312 220.859 76.9771 220.212 72.1126 217.706C69.2434 216.227 67.5322 214.364 67.1559 212.428C66.9795 211.537 67.0938 210.619 67.5119 209.722C67.9387 208.816 68.684 208.251 69.5592 207.888L69.067 206.862C74.8081 204.648 84.1396 202.512 89.3118 210.466C86.3051 207.201 83.0867 207.817 79.8325 207.796C79.7053 208.137 79.5374 208.454 79.2789 208.736C78.0316 210.127 75.8202 210.247 73.8697 210.352C72.9791 210.4 71.3203 210.493 70.9942 210.768C70.413 212.04 71.6025 213.606 74.206 214.951C75.077 215.399 76.0732 215.777 77.1308 216.079C75.5427 215.162 74.7304 213.946 74.9058 212.695C75.0647 211.529 76.0461 210.536 77.6005 209.97C80.7637 208.824 85.7983 209.248 89.0727 210.942C91.5971 212.241 92.8491 213.931 92.6137 215.679V215.679ZM326.886 9.44136C319.747 1.68468 311.577 -1.61402 305.52 0.79353C297.865 3.86662 294.928 6.9453 295.702 11.0832C296.773 16.8131 304.593 17.8635 308.014 18.0458C313.123 19.0974 317 21.9893 319.864 26.8881C326.189 37.7122 326.319 55.9132 325.944 72.1227C325.509 90.8935 296.936 122.32 264.798 139.377C237.186 154.033 188.267 148.668 126.332 141.879C120.383 141.224 114.309 140.56 108.12 139.899C84.4241 137.36 58.8693 132.753 34.155 128.302C30.1586 127.58 26.195 126.87 22.2467 126.166C20.8912 131.862 19.0399 134.765 15.8614 136.109C15.6097 136.673 15.0967 138.008 14.3487 140.884C12.9485 146.278 13.2476 147.266 13.5399 148.219C14.6856 151.981 15.8257 156.588 14.865 163.71C13.7195 172.178 10.4709 175.1 8.09913 176.325C9.80486 180.431 10.1483 184.766 9.93381 188.854C10.1367 189.002 10.3412 189.15 10.515 189.26C10.5564 189.192 10.6066 189.105 10.6593 189.004C13.7767 183.01 17.0473 179.631 20.3774 178.959L36.4543 176.662L35.239 179.13C36.5243 179.156 37.8373 179.39 39.1993 179.831L41.437 180.549C48.1714 182.691 50.2903 183.641 54.1522 191.038C54.7686 192.22 55.2689 193.312 55.666 194.22C56.508 193.543 56.848 192.78 57.3871 191.582C58.1027 189.978 59.3031 187.277 62.0319 186.726C63.5154 186.427 64.8086 186.899 65.9868 187.454L74.1928 191.332L73.3707 193.778C73.9671 193.633 74.5513 193.472 75.1343 193.313C76.1266 193.044 77.0657 192.794 77.9975 192.606C80.4026 192.121 83.6819 191.816 87.7175 193.792C88.5143 194.18 89.2382 194.278 90.0742 194.109C90.9872 193.925 91.9559 193.433 92.8914 192.954C94.2551 192.264 95.2412 191.824 96.269 191.616C99.7465 190.915 102.283 193.336 103.8 195.491C104.335 196.248 104.792 196.992 105.182 197.698C106.092 196.732 106.792 195.661 107.472 194.621C108.848 192.524 110.394 190.166 113.133 189.613C116.129 189.008 118.936 190.925 121.523 193.087C124.758 195.795 126.356 197.975 127.552 199.819C128.033 199.843 128.866 199.836 130.304 199.73C132.062 199.603 133.225 199.475 133.965 199.326C134.732 199.171 134.911 199.056 135.667 198.565C136.721 197.87 138.348 196.795 142.347 195.239C145.125 194.157 146.898 193.586 148.462 193.27C152.497 192.456 155.08 193.378 159.359 194.899C159.359 194.899 161.18 195.544 162.048 195.841L161.002 187.812L167.486 188.005C167.756 188.01 168.11 188.04 168.579 188.124C173.429 189.063 175.771 192.912 177.051 195.121C177.956 194.845 178.988 193.868 179.987 192.929C181.557 191.449 183.331 189.779 185.753 189.29C188.602 188.715 191.566 189.887 194.81 192.871C195.582 193.579 196.674 194.58 197.548 195.328C197.783 195.05 198.046 194.764 198.343 194.477C198.529 194.063 198.829 193.05 199.033 192.356C200.071 188.851 201.807 183 206.887 181.975C209.027 181.543 211.444 182.065 214.276 183.57C217.05 185.047 224.212 188.856 226.486 188.858C228.849 185.464 232.822 181.713 237.319 180.806C237.805 180.708 238.292 180.639 238.795 180.612C240.095 180.545 241.042 180.623 241.803 180.686C242.509 180.746 242.691 180.721 242.722 180.714C242.849 180.623 243.466 180.037 245.242 177.522C247.812 173.898 250.555 171.835 253.633 171.214C257.369 170.46 261.094 172.024 263.931 173.485C264.79 171.956 266.297 170.071 269.179 169.49C269.662 169.393 270.211 169.323 270.851 169.295C270.852 168.617 270.875 167.726 270.921 167.179L271.445 160.711L275.929 160.541C276.44 160.52 276.962 160.574 277.525 160.702C279.048 161.034 280.194 161.118 281.002 160.955C281.833 160.788 282.592 160.434 283.479 157.769C283.794 156.822 284.064 155.851 284.332 154.9C285.554 150.543 287.227 144.589 292.128 143.6C293.848 143.253 295.704 143.572 297.964 144.604C298.549 144.872 298.875 144.853 299.096 144.809C299.876 144.651 300.749 143.668 301.594 142.713C302.847 141.3 304.412 139.522 306.616 139.077C308.711 138.654 310.898 139.491 313.119 141.565C313.246 141.347 313.367 141.015 313.46 140.673L301.267 130.805L314.43 124.889C315.04 124.615 315.688 124.408 316.308 124.283C316.622 124.219 317.192 124.104 317.93 124.136C317.304 122.01 317.067 119.731 317.292 117.556C317.908 111.588 321.548 107.516 327.544 106.087C328.085 105.956 328.595 105.845 329.077 105.748C330.898 105.38 332.33 105.223 333.374 105.108C333.894 105.05 334.371 104.992 334.797 104.906C334.807 104.904 334.821 104.901 334.833 104.899C334.881 104.73 334.94 104.51 335.007 104.225C335.113 103.254 334.393 99.6893 333.916 97.33C332.716 91.3929 331.222 84.0061 333.534 78.617C334.682 75.9379 336.018 71.7035 337.197 67.9672C337.973 65.5058 338.723 63.1373 339.392 61.282L341.531 55.3543C341.705 56.8669 341.854 58.42 341.976 60.0225L342.356 64.602C342.526 66.6092 342.679 68.4443 342.813 70.1896C342.595 70.8757 342.373 71.5763 342.148 72.2968C340.911 76.2148 339.514 80.6428 338.218 83.6646C337.052 86.3858 338.115 91.6478 339.054 96.2877C339.551 98.7446 340.022 101.114 340.242 103.248C339.62 105.933 338.883 108.9 338.027 112.193C337.575 112.495 337.049 112.683 336.393 112.816C335.881 112.919 335.311 112.993 334.666 113.066C333.621 113.18 332.322 113.324 330.673 113.657C330.227 113.747 329.758 113.85 329.258 113.97C325.395 114.892 322.913 117.158 322.616 120.035C322.478 121.366 322.868 122.731 323.679 123.775C325.29 125.845 325.582 128.887 324.404 131.344C323.829 132.541 323.025 133.299 322.144 133.477C321.358 133.635 320.573 133.33 319.876 132.595C319.35 132.131 318.733 132.025 317.904 132.192C317.529 132.268 317.13 132.395 316.759 132.56L314.876 133.407L316.826 134.986C317.766 135.746 318.439 137.007 318.772 138.624C318.8 138.761 318.808 138.905 318.831 139.046C318.169 140.59 317.922 142.124 317.68 143.707C317.477 145.051 317.249 146.535 316.655 148.328C316.595 148.392 316.543 148.48 316.481 148.542C315.907 149.124 315.28 149.489 314.615 149.623C313.431 149.862 312.148 149.361 310.905 148.174C309.868 147.187 309.036 146.82 308.212 146.986C307.279 147.175 306.448 148.047 305.29 149.362C304.119 150.679 302.662 152.321 300.692 152.718C299.598 152.939 298.462 152.77 297.218 152.201C295.773 151.54 294.662 151.32 293.724 151.509C291.317 151.995 290.41 155.229 289.359 158.97C289.055 160.055 288.744 161.157 288.389 162.222C287.038 166.281 285.253 168.329 282.598 168.865C281.284 169.13 279.703 169.04 277.617 168.583C277.311 168.516 277.109 168.51 276.978 168.515L276.337 168.539L276.263 169.468C276.233 169.815 276.231 170.399 276.232 170.819C276.233 172.945 276.235 176.487 272.907 177.159C272.612 177.218 272.293 177.255 271.945 177.268C271.496 177.287 271.112 177.331 270.775 177.4C268.909 177.776 268.389 178.924 267.968 179.845C267.38 181.127 266.867 181.686 266.133 181.835C265.399 181.983 264.382 181.711 263.022 181.005C260.644 179.779 257.857 178.593 255.229 179.123C253.097 179.554 251.209 181.016 249.289 183.727C246.797 187.251 245.681 188.349 244.318 188.624C243.84 188.72 243.29 188.727 242.424 188.649C241.697 188.59 240.935 188.53 239.918 188.581C239.578 188.601 239.245 188.649 238.915 188.715C235.316 189.442 232.016 192.783 230.285 195.426C229.807 196.159 229.196 196.576 228.365 196.743C225.698 197.281 221.003 195.153 213.266 191.037C211.325 190.005 209.76 189.626 208.483 189.884C205.842 190.417 204.92 193.534 204.027 196.545C203.447 198.506 202.897 200.357 201.89 201.287C201.325 201.807 200.973 202.317 200.661 202.767C200.442 203.086 200.244 203.29 200.049 203.489C199.36 203.609 198.747 203.76 198.202 203.938C196.978 203.455 195.204 201.874 192.575 199.457C190.559 197.606 188.899 196.887 187.349 197.2C185.927 197.487 184.754 198.591 183.395 199.869C182.08 201.111 180.599 202.502 178.77 203.005C178.631 203.042 178.494 203.075 178.362 203.102C175.53 203.673 174.413 201.739 173.331 199.867C172.366 198.198 171.405 196.537 168.853 196.043C168.612 196 168.433 195.985 168.293 195.98L167.367 195.953L167.547 197.338C167.596 197.704 167.673 198.166 167.733 198.516C168.07 200.497 168.285 202.235 167.503 203.43C167.164 203.948 166.694 204.262 166.067 204.389C165.23 204.558 164.106 204.403 162.626 203.909C161.345 203.481 160.234 203.088 159.247 202.739L158.977 202.645C154.945 201.211 153.119 200.562 150.058 201.18C148.697 201.454 147.09 201.979 144.51 202.982C140.88 204.398 139.499 205.302 138.493 205.966C137.528 206.592 136.918 206.962 135.561 207.235C134.657 207.418 133.396 207.56 131.472 207.698C126.514 208.06 125.769 207.601 124.173 205.099C123.409 203.901 122.362 202.257 119.529 199.885C117.218 197.956 115.873 197.291 114.729 197.522C113.526 197.765 112.733 198.979 111.633 200.655C110.754 201.998 109.661 203.668 108.078 205.151C106.493 206.628 105.553 207.408 104.79 207.562C104.487 207.623 104.224 207.58 103.938 207.426C103.228 207.046 102.883 206.169 102.472 204.97C102.107 203.902 101.607 202.439 100.442 200.786C99.6727 199.693 98.9032 199.316 97.8651 199.526C97.2227 199.655 96.4393 200.014 95.3783 200.552C94.2726 201.115 93.0372 201.743 91.6702 202.019C90.0394 202.348 88.4644 202.122 86.854 201.333C83.9436 199.907 81.5498 200.121 79.5936 200.516C78.7319 200.689 77.8626 200.922 76.9584 201.168C75.9952 201.431 75.0304 201.694 74.0197 201.898C72.3684 202.231 70.9144 202.333 69.4442 202.221C67.3011 202.06 66.2592 201.535 65.7321 200.355C65.2195 199.201 65.5052 198.126 65.8714 197.034L66.3607 195.58L65.1882 195.026C64.5106 194.707 64.0613 194.548 63.6279 194.636C62.893 194.784 62.5684 195.516 62.0262 196.734C61.3218 198.306 60.4533 200.248 58.3834 201.714C57.3798 202.421 56.5437 202.837 55.8294 202.981C54.2106 203.308 53.2616 202.333 51.7657 198.807C51.3454 197.811 50.8209 196.572 50.1091 195.21C47.5842 190.374 47.2242 190.26 41.1865 188.337L38.9375 187.616C37.2746 187.079 35.7258 186.967 34.2029 187.274C31.1075 187.898 28.7904 190.171 26.7441 192.179C25.591 193.311 24.5032 194.379 23.4387 194.925C23.2867 195.003 23.0331 195.142 22.7247 195.204C21.9779 195.355 21.6453 194.917 21.4368 194.52C20.9125 193.512 21.1806 192.711 22.3091 190.662C22.5633 190.199 22.8767 189.622 23.158 189.055L24.4078 186.52L21.9734 186.869C19.3233 187.403 16.7842 191.324 15.1231 194.515C14.2433 196.207 13.2776 197.138 12.1761 197.36C11.1038 197.576 10.019 197.068 9.01424 196.409C8.92694 196.904 8.83875 197.378 8.75193 197.84C10.9372 197.997 13.0575 198.883 14.9317 200.909C12.5906 199.211 10.4222 199.544 8.25926 200.222C8.11462 200.866 7.96848 201.458 7.8187 202.023C10.1648 201.281 12.7436 201.029 14.7712 201.465C17.3371 202.007 18.7554 203.336 18.7753 205.185C18.7856 206.102 18.4307 207.921 15.9294 209.811C12.3508 212.512 6.57326 214.087 1.87936 213.804C1.58871 214.467 1.27523 215.334 0.921967 216.516C1.98379 216.681 3.24008 216.784 4.7754 216.804C9.55102 216.863 11.2597 215.462 13.2403 213.836C15.4455 212.025 18.1968 209.765 27.3387 208.431C30.7496 207.929 33.4637 207.651 35.7354 207.538C34.4152 207.162 33.1561 206.7 32.042 206.127C29.1728 204.648 27.4615 202.784 27.0852 200.849C26.9088 199.957 27.0232 199.039 27.4413 198.143C27.8681 197.236 28.6134 196.672 29.4886 196.308L28.9964 195.283C34.7374 193.068 44.069 190.933 49.2412 198.886C46.2345 195.621 43.0162 196.238 39.762 196.217C39.6347 196.558 39.4668 196.874 39.2083 197.157C37.961 198.547 35.7495 198.667 33.7991 198.773C32.9085 198.821 31.2497 198.914 30.9218 199.188C30.3424 200.461 31.5319 202.026 34.1353 203.372C35.0064 203.819 36.0025 204.197 37.0601 204.499C35.4721 203.582 34.6597 202.366 34.8352 201.115C34.994 199.95 35.9755 198.956 37.5299 198.39C40.6931 197.244 45.7278 197.669 49.0021 199.362C51.5265 200.661 52.7786 202.351 52.5431 204.1C52.4243 204.969 51.8094 206.577 49.0107 207.595C47.8661 208.01 46.551 208.278 45.1478 208.418C46.3131 208.751 47.4439 209.151 48.6908 209.597C50.4685 210.234 52.4853 210.952 55.1345 211.677C59.4598 212.862 62.3594 215.119 65.4292 217.513C69.5565 220.73 73.823 224.053 81.1294 224.039C87.5101 224.013 90.9017 221.781 94.1836 219.607C97.2707 217.563 100.189 215.63 105.727 215.643C110.919 215.651 112.147 217.84 113.566 220.375C115.163 223.219 117.149 226.761 122.905 226.59C128.796 226.403 130.659 222.69 132.152 219.7C133.421 217.153 134.431 215.146 137.962 214.98C141.022 214.837 142.102 216.433 143.734 218.847C146.074 222.31 148.988 226.614 157.107 225.193C164.997 223.779 166.685 219.838 168.176 216.333C169.209 213.907 170.026 211.992 173.329 210.936C176.165 210.037 176.54 210.878 177.524 213.138C179.266 217.149 181.534 220.95 188.317 219.581C194.58 218.317 195.83 215.527 196.723 212.282C197.214 210.495 197.584 209.191 201.636 208.659C205.966 208.076 207.299 209.528 208.982 211.369C211.052 213.624 213.396 216.183 219.48 215.348C225.542 214.512 226.729 211.756 227.637 208.231C228.176 206.143 228.641 204.34 232.195 202.814C235.929 201.212 237.017 202.598 238.535 204.514C240.204 206.628 242.484 209.542 247.182 207.324C251.835 205.151 252.175 200.255 252.448 196.323C252.71 192.602 252.881 190.147 256.272 189.054C259.439 188.048 260.97 189.056 263.08 190.471C266.003 192.43 269.644 194.878 277.673 191.582C286.215 188.08 287.043 181.959 287.705 177.043C288.145 173.796 288.46 171.452 290.807 169.609C293.23 167.713 295.539 168.13 298.21 168.62C302.608 169.429 307.59 170.344 313.958 161.969C319.905 154.151 320.649 149.259 321.19 145.684C321.558 143.25 321.764 141.909 323.621 140.027C324.978 138.656 326.47 137.702 328.049 136.694C332.412 133.913 337.357 130.758 340.632 117.761C348.04 90.0021 347.504 83.6621 345.917 64.8413L345.539 60.3131C343.349 31.3108 332.911 15.9934 326.886 9.44136"/>
</svg>
