<svg width="260" height="163" viewBox="0 0 260 163" fill="none" xmlns="http://www.w3.org/2000/svg">
<path d="M179.031 6.30999C177.04 7.33497 175.886 8.98917 175.851 10.8183C175.847 11.0175 175.856 11.2187 175.88 11.4211C176.064 13.0369 177.534 13.5155 178.507 13.832C178.982 13.9864 179.573 14.1796 179.681 14.3964C179.691 14.4194 179.712 14.4866 179.705 14.6144C178.713 14.3715 176.201 13.4718 175.145 12.8759C175.145 12.8759 173.876 13.5372 175.785 14.9207C177.692 16.3043 184.72 17.0571 185.931 13.4608C184.484 14.4249 182.812 14.7869 181.511 14.8197C181.555 14.3654 181.5 13.954 181.32 13.5895C180.872 12.6798 179.916 12.3682 179.073 12.0944C178.077 11.7701 177.739 11.5974 177.695 11.2145C177.546 9.9138 178.338 8.72154 179.867 7.93542C181.891 6.89461 184.844 7.13462 186.312 8.45954C186.591 8.7098 186.905 9.11062 186.841 9.62763C186.774 10.1382 186.347 10.6364 185.668 11.0009C185.918 10.7132 186.076 10.3753 186.123 10.0133C186.201 9.4198 185.968 8.84232 185.49 8.41277C184.484 7.50246 182.725 7.32818 181.402 8.00761C180.501 8.47119 179.923 9.21238 179.814 10.0429C179.723 10.7879 180.016 11.5402 180.636 12.0995C182.038 13.3656 184.592 13.6099 186.448 12.6554C187.702 12.0103 188.506 10.992 188.652 9.86232C188.786 8.8467 188.387 7.87025 187.537 7.10185C185.491 5.25774 181.755 4.90962 179.031 6.30999V6.30999ZM157.101 10.6856C155.542 11.7728 154.676 13.2323 154.647 14.7426C154.64 15.1254 154.685 15.5111 154.788 15.895C155.187 17.3988 156.659 17.6408 157.632 17.801C158.011 17.8631 158.548 17.9574 158.728 18.1006C158.361 18.0397 156.65 17.9248 156.259 17.8296L157.167 19.653C160.078 20.3602 166.081 20.9289 166.507 15.6643C165.537 16.5205 162.862 18.2297 160.638 18.2531C160.618 17.8141 160.512 17.4264 160.291 17.105C159.736 16.2956 158.776 16.1374 157.929 15.9979C156.986 15.8428 156.635 15.7319 156.553 15.4242C156.25 14.2814 156.831 13.1016 158.146 12.1853C159.91 10.9567 162.716 10.7744 164.271 11.7875C164.551 11.9692 164.887 12.28 164.894 12.7225C164.904 13.1248 164.646 13.5613 164.187 13.9456C164.299 13.7037 164.356 13.4525 164.353 13.1829C164.344 12.6078 164.037 12.0819 163.512 11.7401C162.431 11.034 160.735 11.1132 159.566 11.9245C158.76 12.4876 158.312 13.2743 158.317 14.0786C158.328 14.8027 158.721 15.4701 159.396 15.9098C160.898 16.8908 163.355 16.7676 164.989 15.6298C166.106 14.8523 166.728 13.8104 166.722 12.6943C166.706 11.7224 166.19 10.8562 165.268 10.2546C163.079 8.83184 159.493 9.02028 157.101 10.6856V10.6856ZM133.062 13.4344C131.26 14.708 130.806 15.8646 130.79 16.6869C130.78 17.2214 130.955 17.6159 131.068 17.8109C131.626 18.7885 130.927 19.2304 133.608 19.4533C136.288 19.6753 140.763 18.6758 143.196 14.761C141.174 17.0906 139.289 17.4595 136.829 17.355C136.782 17.281 136.542 17.0159 136.465 16.9605C137.936 17.0197 139.934 16.4198 141.259 15.4827C142.911 14.3159 142.959 13.2676 142.84 12.7444C142.738 12.301 142.359 11.5242 140.959 11.29C138.754 10.9226 135.286 11.8637 133.062 13.4344V13.4344ZM200.289 13.3855C202.378 15.6819 209.523 16.3875 210.472 14.5603C208.183 14.9115 205.78 14.9452 203.712 13.8126C203.997 13.2925 204.098 12.7936 204.022 12.2995C203.865 11.3003 203.039 10.7206 202.311 10.2095C201.457 9.6083 201.184 9.3417 201.254 8.98201C201.491 7.72251 202.595 6.836 204.281 6.54916C206.521 6.16869 209.273 7.27408 210.289 8.96145C210.479 9.27673 210.66 9.74542 210.453 10.1994C210.244 10.6533 209.704 10.9912 208.962 11.1352C209.269 10.9381 209.507 10.673 209.653 10.355C209.898 9.81861 209.85 9.1962 209.518 8.64514C208.824 7.49037 207.199 6.80498 205.74 7.05225C204.739 7.22237 203.966 7.7542 203.619 8.51349C203.305 9.19391 203.374 9.99129 203.801 10.705C204.77 12.3129 207.133 13.3002 209.181 12.9536C210.573 12.716 211.642 11.9906 212.114 10.9613C212.536 10.0417 212.444 8.99523 211.855 8.01793C210.443 5.67317 206.981 4.23712 203.974 4.74736C201.528 5.16319 199.839 6.61986 199.458 8.64253C199.431 8.78916 199.416 8.92873 199.414 9.06395C199.388 10.3906 200.501 11.1722 201.261 11.7049C201.649 11.9773 202.179 12.3503 202.216 12.584C202.218 12.5969 202.216 12.628 202.209 12.668C201.995 12.4766 200.516 12.389 199.853 11.2339C199.189 10.0787 198.2 11.0881 200.289 13.3855V13.3855ZM113.179 23.2179C111.934 24.3348 111.271 25.5541 111.25 26.6852C111.24 27.2106 111.368 27.7175 111.641 28.1852C111.918 28.6594 112.319 28.9074 112.766 29.032L112.613 29.6588C115.524 30.365 120.142 30.6779 121.953 25.6701C120.788 27.8112 119.207 27.7719 117.661 28.0952C117.573 27.9172 117.466 27.7506 117.321 27.6144C116.614 26.9465 115.551 27.0908 114.615 27.2192C114.187 27.2777 113.391 27.3859 113.213 27.2592C112.831 26.5938 113.27 25.5913 114.398 24.5791C114.777 24.2399 115.22 23.9295 115.699 23.658C115.019 24.3314 114.732 25.0991 114.916 25.79C115.087 26.4367 115.635 26.9059 116.422 27.0772C118.019 27.4239 120.382 26.6985 121.8 25.4259C122.895 24.4459 123.352 23.3661 123.098 22.3961C122.97 21.9157 122.547 21.0631 121.131 20.7555C118.782 20.2473 115.288 21.3296 113.179 23.2179V23.2179ZM99.7952 29.5752C97.3939 29.6967 94.3022 31.6503 92.7563 34.0237C92.0727 35.0754 91.7206 36.0997 91.7032 37.0088C91.6867 37.8731 91.9729 38.6335 92.565 39.2197C93.5454 40.1871 94.9026 39.6143 95.8949 39.1972C96.0423 39.1352 96.2274 39.0583 96.4106 38.9886L96.546 40.322C99.5257 40.0205 103.917 36.824 104.027 33.4535C102.147 36.7326 101.14 37.3724 98.669 38.0711C98.4975 37.6748 98.2455 37.3748 97.9008 37.1891C97.045 36.7295 96.0564 37.1457 95.1857 37.513C94.7877 37.6809 94.0479 37.9921 93.8419 37.916C93.2984 37.3746 93.4625 36.2901 94.2892 35.0208C94.5669 34.5938 94.9148 34.1782 95.3079 33.79C94.8242 34.6161 94.7465 35.4344 95.1039 36.0545C95.4374 36.6349 96.0886 36.9452 96.8927 36.9057C98.5256 36.8244 100.617 35.5089 101.657 33.911C102.459 32.6815 102.625 31.5248 102.121 30.6478C101.873 30.2172 101.242 29.505 99.7952 29.5752V29.5752ZM102.218 44.1628C102.199 45.1413 102.483 46.0579 103.074 46.8388C104.061 48.139 105.594 47.7724 106.714 47.5059C107.228 47.3832 107.932 47.2147 108.143 47.3567C108.203 47.3962 108.278 47.5211 108.338 47.7507C107.791 47.7778 105.622 48.4831 105.009 48.4404L106.488 49.5662C109.476 49.7685 114.606 48.3949 115.015 44.0494C113.555 46.6045 112.103 47.0301 110.145 47.5009C109.987 46.7393 109.661 46.1728 109.159 45.837C108.285 45.2518 107.225 45.5049 106.29 45.7274C105.237 45.9788 104.759 46.0364 104.53 45.7341C103.755 44.7121 103.909 43.2582 104.951 41.7453C106.356 39.7102 109.3 38.2884 111.382 38.6407C111.758 38.7045 112.247 38.8728 112.435 39.3179C112.633 39.7896 112.463 40.4966 111.974 41.2038C111.949 41.2408 111.923 41.2769 111.896 41.3129C112.003 40.8973 111.982 40.4874 111.829 40.1216C111.595 39.5688 111.083 39.1879 110.424 39.0767C109.068 38.847 107.388 39.6247 106.517 40.8859C105.902 41.7762 105.743 42.7402 106.074 43.5261C106.37 44.2273 107.027 44.7105 107.88 44.8556C109.787 45.1781 112.246 44.0295 113.478 42.2424C114.335 41.002 114.57 39.6749 114.118 38.606C113.72 37.6644 112.857 37.0364 111.686 36.8386C108.89 36.3658 105.27 38.0654 103.446 40.7085C102.651 41.8632 102.239 43.0527 102.218 44.1628V44.1628ZM82.1062 40.5009C79.2675 40.6442 75.6106 42.9599 73.7785 45.772C72.9754 47.007 72.5623 48.2047 72.542 49.2654C72.5231 50.2567 72.8484 51.1266 73.5229 51.7939C74.5509 52.8088 75.9433 52.3043 77.1124 51.8166L77.2947 53.4735C80.6952 53.1006 85.5446 50.6969 86.0927 45.5845C86.0405 45.9738 83.0703 49.8994 80.6536 50.8276C80.4684 50.2793 80.1608 49.8786 79.7274 49.6464C78.7748 49.1338 77.6793 49.5955 76.6189 50.0423C76.0246 50.2933 75.0296 50.7121 74.8071 50.4931C74.0761 49.769 74.2644 48.3779 75.3104 46.7691C76.8055 44.4743 79.959 42.4396 82.1975 42.3269C82.686 42.3024 83.0341 42.406 83.1508 42.6102C83.3109 42.8883 83.2204 43.5611 82.6508 44.4359C82.6254 44.4738 82.6 44.5126 82.5737 44.5505C82.5981 44.2302 82.5346 43.9173 82.3788 43.6474C82.0807 43.129 81.5075 42.853 80.8077 42.8881C79.473 42.9531 77.8238 43.9847 76.9727 45.29C76.3212 46.293 76.1897 47.2913 76.609 48.0214C76.9752 48.6581 77.6972 48.9972 78.5937 48.954C80.5056 48.8588 82.9597 47.3126 84.1827 45.433C85.1064 44.0129 85.3017 42.6868 84.7356 41.699C84.4587 41.2166 83.7492 40.4198 82.1062 40.5009V40.5009ZM87.411 55.2466C86.6158 56.4013 86.2038 57.5908 86.1826 58.7018C86.164 59.6794 86.4481 60.596 87.0391 61.3769C88.0252 62.6771 89.5584 62.3115 90.6785 62.044C91.166 61.9272 91.8122 61.7786 92.0588 61.8839C91.5524 61.9866 90.0437 62.9349 89.4804 62.9964L90.6549 63.9483C94.0555 63.5753 99.0527 61.2367 99.453 56.0593C99.405 56.5118 96.3756 60.4316 93.8932 61.3494C93.7101 60.9338 93.4597 60.5999 93.124 60.3751C92.2495 59.7899 91.19 60.043 90.2545 60.2664C89.2014 60.5169 88.7242 60.5745 88.495 60.2731C87.7203 59.2502 87.8742 57.7963 88.9156 56.2834C90.3198 54.2492 93.2652 52.8265 95.3468 53.1788C95.723 53.2426 96.2115 53.4119 96.3995 53.856C96.5979 54.3287 96.4282 55.0347 95.9386 55.7419C95.9141 55.7789 95.8869 55.8149 95.8606 55.851C95.9663 55.4353 95.9467 55.0264 95.7929 54.6606C95.5594 54.1069 95.0466 53.7261 94.3889 53.6148C93.0333 53.3861 91.3533 54.1629 90.4812 55.424C89.8665 56.3144 89.7074 57.2783 90.0387 58.0642C90.3352 58.7654 90.9922 59.2496 91.8449 59.3938C93.7507 59.7162 96.2101 58.5676 97.4432 56.7805C98.3004 55.5393 98.5349 54.2139 98.0828 53.1451C97.6849 52.2025 96.8213 51.5746 95.6507 51.3768C92.854 50.9039 89.2353 52.6034 87.411 55.2466V55.2466ZM61.9771 56.9315C58.8715 57.46 55.1453 60.4891 53.4932 63.8275C52.8924 65.0425 52.5844 66.1938 52.565 67.2143C52.5394 68.5564 53.0116 69.6741 53.9707 70.4208C55.2675 71.4298 56.8216 70.5474 58.0707 69.8373C58.5854 69.5445 59.5435 69.0007 59.8075 69.1045C59.8265 69.1121 59.8785 69.167 59.9402 69.2852C59.4452 69.507 57.0205 71.3783 56.5301 71.5499C56.5301 71.5499 56.632 72.1953 59.0608 71.5982C61.4886 71.001 65.6278 67.7403 65.8591 61.9346C65.1273 65.805 63.4099 67.2017 61.5443 68.4137C61.2822 67.9234 60.9277 67.5821 60.4769 67.4044C59.4002 66.9799 58.2646 67.6245 57.1679 68.248C56.4325 68.6654 55.4263 69.2384 55.0931 68.9789C54.1421 68.2378 54.1557 66.6149 55.1311 64.6374C56.5037 61.8641 59.7787 59.159 62.2818 58.7332C62.5569 58.6864 63.2263 58.616 63.4856 58.9646C63.7057 59.2604 63.7526 60.0144 63.1803 61.1752C63.0909 61.3544 62.9878 61.5353 62.8757 61.7123C62.9543 61.1882 62.8618 60.7185 62.5882 60.3504C62.2139 59.8479 61.5783 59.6311 60.8466 59.7561C59.4007 59.9981 57.7384 61.3374 56.9807 62.8721C56.1936 64.4657 56.6077 65.4168 56.9259 65.8424C57.3901 66.4672 58.2003 66.734 59.1474 66.5739C61.2287 66.2233 63.7202 64.2071 64.8181 61.9851C65.628 60.349 65.6767 58.8501 64.9522 57.8748C64.5958 57.3955 63.7347 56.635 61.9771 56.9315V56.9315ZM42.244 72.2436C39.5309 72.9925 36.4948 76.0175 35.3295 79.1311C34.9857 80.0513 34.8092 80.919 34.7943 81.7011C34.7664 83.1674 35.307 84.3376 36.3817 85.0125C37.6724 85.8204 38.9926 84.8831 40.0525 84.1292C40.4481 83.847 41.1837 83.3254 41.4291 83.3465C41.429 83.3529 41.4846 83.4088 41.5612 83.5602C41.1128 83.8798 38.5142 86.1974 38.0576 86.4647C38.0576 86.4647 39.0385 87.1689 41.1223 86.0168C43.2061 84.8638 47.2632 81.214 45.9262 75.2203C45.6633 78.2698 44.5561 80.8342 42.9756 82.3816C42.6918 81.9768 42.3406 81.7051 41.9197 81.5865C40.8852 81.2962 39.9235 81.9789 38.9942 82.6393C38.4754 83.0078 37.6091 83.6238 37.3535 83.4635C36.4964 82.9281 36.3784 81.5466 37.0419 79.7706C37.9896 77.235 40.5943 74.5949 42.7286 74.0059C43.1917 73.8785 43.5467 73.9017 43.7016 74.071C43.9156 74.3054 43.9687 74.9718 43.6085 75.9338C43.597 75.9646 43.5854 75.9955 43.573 76.0254C43.5222 75.7173 43.3948 75.4462 43.1943 75.2266C42.7923 74.7876 42.1764 74.6424 41.5029 74.8279C40.224 75.1783 38.852 76.5331 38.3099 77.9778C37.7426 79.5006 38.2164 80.3405 38.5495 80.7042C39.0409 81.2428 39.8163 81.4157 40.6753 81.1798C42.5027 80.6772 44.5428 78.6542 45.3209 76.5733C45.9075 74.9978 45.8113 73.6707 45.0494 72.8373C44.677 72.4298 43.8169 71.8111 42.244 72.2436V72.2436ZM54.5436 92.336C56.1713 93.1978 57.6031 92.0662 58.6488 91.2398C59.2306 90.7784 59.8913 90.2563 60.2722 90.3157C60.3797 90.3324 60.5043 90.4115 60.6363 90.5374C60.0752 90.9654 57.2032 93.1956 56.6246 93.5355C56.6246 93.5355 56.9395 93.5086 59.8405 93.2587C62.7415 93.0096 65.4588 88.5866 64.6434 82.463C64.2745 84.7939 63.4278 87.7884 61.9948 89.3166C61.5575 88.8632 61.0837 88.5927 60.5543 88.5095C59.3852 88.3273 58.3914 89.1127 57.5145 89.8061C56.428 90.6656 55.8936 90.9825 55.3996 90.7209C53.9628 89.9586 53.3552 88.2252 53.7465 85.9678C54.2568 82.976 56.8074 79.8687 59.3147 79.1817C59.8016 79.0493 60.4855 78.9837 60.9769 79.43C61.4899 79.8949 61.6757 80.7896 61.4885 81.8846C61.4135 82.3228 61.2671 82.7633 61.068 83.1863C61.0761 83.1463 61.0841 83.1071 61.0904 83.0661C61.2437 82.1697 61.0184 81.3775 60.4767 80.8855C59.9897 80.4448 59.3015 80.3038 58.5895 80.4986C57.0864 80.9096 55.6755 82.579 55.3804 84.2998C55.1698 85.5169 55.4629 86.5873 56.1762 87.2352C56.8141 87.814 57.6908 87.9888 58.6435 87.7292C60.8218 87.1327 62.8615 84.7011 63.2895 82.194C63.5837 80.4704 63.1892 78.9695 62.2064 78.077C61.3439 77.2937 60.1456 77.0606 58.8328 77.4195C55.6081 78.3021 52.5825 81.9223 51.9446 85.6611C51.8623 86.143 51.8168 86.611 51.8082 87.0614C51.7625 89.4579 52.7377 91.3757 54.5436 92.336V92.336ZM22.6401 87.3023C20.0639 88.5867 17.6093 92.2177 17.0501 95.5695C16.9716 96.0424 16.9282 96.4967 16.92 96.9261C16.8789 99.0842 17.707 100.66 19.2484 101.254C20.5649 101.76 21.7071 100.911 22.5396 100.291C22.9522 99.9832 23.5168 99.5626 23.7655 99.6039C23.8074 99.6111 23.9617 99.668 24.2028 100.011C23.8557 100.335 23.5008 100.642 23.1461 100.933C23.1461 100.933 22.1737 102.9 24.3064 102.345C26.4382 101.79 30.4255 95.5165 28.193 88.7974C28.383 91.8217 27.3383 96.4749 25.4721 98.6795C25.0573 98.1918 24.5896 97.8903 24.0685 97.8027C23.0509 97.6316 22.1999 98.2652 21.4489 98.8249C20.7434 99.3488 20.2554 99.6832 19.9052 99.5486C18.9281 99.1717 18.5329 97.7996 18.8521 95.8689C19.3102 93.1284 21.4179 89.9542 23.4543 88.9374C23.6656 88.8327 24.1908 88.6087 24.4684 88.815C24.7333 89.012 24.9216 89.6801 24.7499 90.7279C24.7397 90.788 24.7275 90.8508 24.7154 90.9109C24.6083 90.5807 24.4198 90.3075 24.1575 90.1133C23.6745 89.7559 23.0343 89.7318 22.4022 90.0479C21.1926 90.6463 20.0832 92.2703 19.8224 93.8246C19.5536 95.4592 20.1856 96.2005 20.5876 96.4979C21.1824 96.9379 21.9862 96.9606 22.7963 96.5583C24.53 95.6948 26.1803 93.2667 26.552 91.0282C26.8328 89.3354 26.4794 88.0299 25.5547 87.346C25.1041 87.0129 24.1256 86.5629 22.6401 87.3023V87.3023ZM40.7524 108.678C42.4229 109.454 43.7931 108.248 44.7932 107.368C45.3509 106.877 45.9839 106.32 46.3661 106.359C46.4847 106.372 46.6266 106.458 46.7784 106.596C46.0008 107.257 43.3073 109.325 42.4909 109.82C42.4909 109.82 43.5647 110.447 45.3102 109.874C49.9567 107.713 51.909 104.209 51.0764 97.0152C51.1162 100.972 49.7136 103.449 48.0806 105.31C47.6077 104.852 47.1034 104.598 46.5525 104.541C45.3749 104.421 44.4249 105.257 43.5865 105.996C42.5463 106.912 42.0289 107.257 41.5216 107.02C40.0477 106.336 39.3571 104.637 39.6198 102.362C39.9725 99.3471 42.3556 96.1096 44.8233 95.292C45.3025 95.1339 45.9825 95.0326 46.4964 95.451C47.0328 95.8889 47.2682 96.7708 47.1365 97.8769C47.0852 98.3174 46.9624 98.7666 46.7851 99.1983C46.7913 99.1582 46.7967 99.118 46.802 99.0779C46.9078 98.1778 46.6412 97.395 46.0733 96.9327C45.5631 96.5171 44.8686 96.4134 44.1687 96.645C42.688 97.135 41.367 98.8765 41.164 100.611C41.0218 101.836 41.3664 102.889 42.1142 103.499C42.782 104.044 43.6651 104.172 44.6042 103.861C46.7471 103.152 48.6563 100.616 48.9512 98.0898C49.157 96.3553 48.6808 94.8739 47.6512 94.0353C46.7486 93.2979 45.5409 93.1286 44.2486 93.5573C41.0755 94.6082 38.2453 98.3829 37.8043 102.15C37.7671 102.47 37.7465 102.784 37.7406 103.09C37.6907 105.709 38.7794 107.76 40.7524 108.678V108.678ZM26.7258 106.596C23.8796 108.048 21.7176 111.91 21.648 115.559C21.6448 115.727 21.6462 115.895 21.6521 116.064C21.7615 119.146 23.2194 121.391 25.5506 122.072C27.3203 122.587 28.4921 121.188 29.3478 120.167C29.8257 119.597 30.3662 118.951 30.7505 118.932C30.9416 118.923 31.2173 119.082 31.5271 119.375C30.549 120.393 29.7789 120.467 28.3619 121.883C26.9439 123.299 29.3368 123.429 29.3368 123.429C32.6929 121.312 36.4048 117.452 34.8828 110.473C34.209 112.782 33.9434 116.167 32.6862 117.969C32.016 117.365 31.3507 117.073 30.6609 117.107C29.479 117.166 28.6645 118.136 27.9481 118.992C27.0578 120.055 26.5992 120.474 26.0621 120.317C24.5016 119.861 23.5591 118.288 23.4785 115.999C23.3862 112.976 25.2392 109.405 27.5557 108.225C28.0061 107.995 28.6625 107.793 29.2337 108.129C29.8292 108.481 30.1935 109.32 30.2317 110.432C30.2496 110.878 30.1943 111.338 30.0832 111.793C30.084 111.751 30.083 111.709 30.082 111.667C30.0508 110.762 29.6708 110.03 29.0391 109.658C28.4724 109.324 27.7696 109.325 27.1125 109.661C25.7235 110.369 24.6909 112.28 24.7406 114.035C24.7829 115.269 25.2831 116.257 26.1155 116.747C26.8575 117.185 27.7515 117.178 28.6319 116.729C30.6429 115.704 32.1474 112.914 32.058 110.368C31.9981 108.619 31.3062 107.229 30.1603 106.554C29.158 105.964 27.9385 105.979 26.7258 106.596V106.596ZM8.73398 123.241C5.88777 124.692 3.72579 128.555 3.65623 132.203C3.65301 132.372 3.65436 132.54 3.66031 132.708C3.76971 135.79 5.22755 138.036 7.55881 138.716C9.2457 139.207 10.4309 138.064 11.3843 137.144C12.5705 136.001 12.9551 135.771 13.6915 136.403C12.74 137.369 12.8206 138.08 10.6326 138.802C8.44368 139.522 11.6075 140.347 11.6075 140.347C14.9636 138.231 17.6245 134.802 17.1535 127.391C16.5197 129.811 16.1719 133.192 14.8678 135.009C12.7798 133.269 11.1245 134.857 10.1162 135.829C9.18051 136.731 8.67283 137.137 8.07025 136.961C6.50971 136.507 5.56821 134.933 5.48664 132.644C5.39171 129.618 7.24738 126.05 9.56385 124.87C10.0142 124.64 10.6706 124.437 11.2418 124.774C11.8374 125.125 12.2016 125.964 12.2398 127.076C12.2587 127.521 12.2024 127.983 12.0914 128.438C12.0922 128.395 12.0921 128.354 12.091 128.312C12.059 127.406 11.679 126.674 11.0473 126.303C10.4806 125.968 9.77776 125.969 9.12155 126.305C7.73075 127.013 6.70227 128.947 6.74876 130.679C6.79104 131.913 7.29132 132.901 8.1237 133.391C8.8657 133.829 9.75964 133.823 10.6401 133.374C12.6511 132.349 14.1631 129.55 14.0661 127.012C14.0063 125.263 13.3144 123.874 12.1684 123.199C11.1661 122.608 9.94667 122.623 8.73398 123.241V123.241ZM82.4974 69.1166C81.2591 71.7509 79.9053 73.393 78.2541 74.3852C77.8935 73.7413 77.4429 73.3132 76.8783 73.1069C75.7665 72.699 74.6397 73.2753 73.6438 73.7837C72.4108 74.4146 71.8247 74.6209 71.3918 74.2681C70.1319 73.2405 69.8777 71.4233 70.6962 69.2846C71.7821 66.4501 74.8897 63.8999 77.4832 63.7172C77.9866 63.6811 78.6698 63.7499 79.0654 64.283C79.478 64.8383 79.4834 65.7533 79.087 66.7922C78.9283 67.206 78.6995 67.6093 78.4209 67.9851C78.4371 67.9479 78.4524 67.9108 78.4669 67.8726C78.7929 67.0225 78.7273 66.2004 78.2906 65.6136C77.8976 65.086 77.2512 64.8132 76.5154 64.8659C74.9596 64.9743 73.2511 66.3373 72.625 67.9687C72.1836 69.1183 72.2603 70.2257 72.8332 71.0016C73.3455 71.6941 74.1716 72.0361 75.1581 71.9672C77.4094 71.8072 79.8847 69.8208 80.7937 67.4454C81.4189 65.8112 81.326 64.2612 80.5338 63.195C79.8406 62.2596 78.7107 61.7975 77.3535 61.8932C74.0196 62.1295 70.3458 65.0883 68.9896 68.6306C68.6145 69.6133 68.4208 70.5674 68.4038 71.4591C68.3709 73.1823 68.996 74.673 70.237 75.6856C71.6652 76.8489 73.2905 76.0171 74.4764 75.4118C75.1382 75.0725 75.8876 74.6901 76.2497 74.8223C76.3668 74.8656 76.4877 74.9941 76.6057 75.1791C75.7422 75.5072 73.7866 76.7422 72.9354 76.9051C72.9354 76.9051 72.8081 77.5881 74.3591 77.6844C75.9091 77.7807 81.2894 76.1504 82.4974 69.1166V69.1166ZM132.637 32.4909C131.278 34.5617 129.697 34.6979 128.018 34.973C127.851 34.3766 127.561 33.926 127.138 33.6428C126.304 33.0849 125.31 33.3228 124.432 33.5318C123.491 33.7561 123.067 33.811 122.88 33.5634C122.184 32.6453 122.326 31.331 123.269 29.9616C124.552 28.1023 127.241 26.8028 129.14 27.1232C129.471 27.1789 129.898 27.325 130.059 27.7065C130.218 28.0861 130.103 28.6405 129.751 29.215C129.774 28.9303 129.736 28.6527 129.628 28.3947C129.402 27.8621 128.91 27.4945 128.279 27.3883C127.001 27.172 125.421 27.9032 124.602 29.0876C124.02 29.9293 123.87 30.8441 124.186 31.5931C124.469 32.263 125.096 32.7255 125.906 32.8634C127.691 33.1653 129.993 32.0913 131.145 30.4206C131.953 29.2533 132.169 28.0035 131.743 26.9955C131.366 26.1018 130.549 25.5076 129.444 25.3211C126.836 24.8802 123.463 26.4629 121.765 28.9238C121.021 30.0028 120.637 31.1142 120.617 32.1539C120.6 33.0721 120.867 33.9336 121.423 34.6672C121.996 35.423 122.778 35.5804 123.527 35.538L121.808 36.1369C127.356 38.7561 131.172 36.372 132.637 32.4909V32.4909ZM234.845 19.7493C234.48 20.1326 234.341 20.565 234.333 21.009C234.319 21.7299 234.651 22.4784 234.921 23.0877C235.003 23.2738 235.11 23.5217 235.195 23.7482C235.195 23.7482 233.556 23.1293 233.613 24.0288C233.748 28.0456 237 31.2498 241.194 30.9285C238.589 28.7667 236.701 28.089 235.957 25.916C236.425 25.733 236.765 25.4471 236.964 25.0569C237.406 24.187 236.973 23.2109 236.592 22.3491C236.429 21.9804 236.087 21.2134 236.167 21.0093C236.718 20.4321 237.822 20.5628 239.12 21.3599C239.579 21.6419 240.026 22.0014 240.442 22.4115C239.571 21.9023 238.711 21.8283 238.073 22.2128C237.497 22.5582 237.196 23.2151 237.247 24.0231C237.353 25.6648 238.713 27.7326 240.344 28.7334C241.577 29.489 242.774 29.627 243.628 29.1114C244.057 28.8527 244.761 28.2098 244.67 26.7549C244.516 24.3427 242.498 21.2881 240.075 19.8015C237.988 18.5215 236.034 18.5016 234.845 19.7493ZM245.614 36.9929C244.262 37.7203 244.387 39.259 244.469 40.2751C244.502 40.6678 244.561 41.3992 244.429 41.542C244.424 41.5465 244.04 42.4659 243.377 40.321C243.028 38.6573 243.016 38.0977 243.016 38.0977C242.985 38.5038 242.535 39.3453 242.576 41.2892C242.232 46.2519 244.316 47.7768 248.259 48.6691C244.179 44.8961 244.901 45.2974 244.553 43.4052C245.057 43.3125 245.467 43.1101 245.768 42.7859C246.447 42.053 246.365 41.0287 246.291 40.127C246.215 39.1842 246.224 38.7402 246.48 38.6016C247.464 38.0719 248.71 38.4265 249.897 39.577C251.517 41.1471 252.384 44.0133 251.789 45.83C251.688 46.1397 251.487 46.5298 251.108 46.624C250.727 46.7182 250.219 46.5212 249.721 46.0931C249.982 46.1519 250.245 46.1524 250.498 46.0896C251.057 45.9503 251.492 45.5209 251.69 44.9123C252.089 43.6997 251.617 42.0254 250.588 41.0279C249.852 40.3146 248.978 40.0174 248.192 40.2117C247.492 40.3849 246.945 40.931 246.691 41.7094C246.132 43.4152 246.832 45.8488 248.283 47.2529C249.303 48.2421 250.493 48.6596 251.546 48.3981C252.477 48.1673 253.18 47.4578 253.527 46.3978C254.342 43.9044 253.304 40.3348 251.168 38.2641C249.398 36.5487 247.321 36.0731 245.614 36.9929ZM244.191 79.312C243.476 80.6675 242.609 83.0346 242.573 84.9688C242.22 90.0145 246.255 90.776 246.255 90.776C244.559 87.9588 244.147 85.8177 244.534 83.7074C245.059 83.9149 245.555 83.9517 246.011 83.8188C246.975 83.5355 247.434 82.6267 247.839 81.8246C248.277 80.9574 248.513 80.5972 248.844 80.6145C250.034 80.6728 250.981 81.6313 251.445 83.2451C252.067 85.4222 251.339 88.3102 249.854 89.5532C249.589 89.7748 249.186 90.012 248.765 89.8834C248.351 89.7557 247.981 89.2963 247.759 88.6386C247.971 88.8629 248.226 89.024 248.511 89.1108C249.068 89.2814 249.669 89.1429 250.161 88.731C251.166 87.8919 251.622 86.2061 251.224 84.8056C250.943 83.8251 250.331 83.1252 249.547 82.8845C248.847 82.67 248.082 82.8501 247.449 83.3782C246.044 84.5533 245.387 87.0131 245.952 88.9798C246.342 90.3399 247.172 91.3071 248.23 91.6307C249.169 91.9183 250.163 91.6786 251.027 90.9547C253.075 89.2417 254.031 85.6351 253.201 82.7412C252.519 80.3637 250.924 78.8865 248.933 78.7882C247.366 78.7108 246.669 80.0886 246.208 81.0002C246.006 81.4003 245.701 82.005 245.495 82.0651C245.432 82.0831 245.273 82.0508 245.035 81.9284C245.254 81.343 246.308 78.7245 246.617 78.1025C246.617 78.1025 244.906 77.9556 244.191 79.312V79.312ZM213.232 127.672C204.099 133.205 208.869 136.498 208.869 136.498C208.093 134.021 208.521 132.423 210.772 130.716C212.166 131.964 213.864 131.017 214.798 130.492C215.716 129.975 216.061 129.838 216.431 129.974C217.594 130.405 218.053 131.395 217.692 132.688C217.222 134.367 215.151 136.129 213.169 136.537C212.595 136.654 212.126 136.602 211.812 136.386C211.428 136.12 211.303 135.625 211.469 135.027C211.479 134.995 211.489 134.962 211.5 134.93C211.517 135.281 211.684 135.583 211.985 135.79C212.378 136.059 212.965 136.141 213.597 136.01C214.955 135.733 216.264 134.651 216.574 133.549C216.776 132.814 216.575 132.172 216.019 131.789C215.504 131.435 214.761 131.334 213.923 131.506C212.002 131.9 210.155 133.435 209.718 135C209.578 135.503 209.571 135.973 209.692 136.384C209.817 136.812 210.079 137.176 210.47 137.445C211.165 137.923 212.178 138.057 213.323 137.823C216.115 137.25 218.802 135.006 219.444 132.715C219.955 130.884 219.212 129.405 217.457 128.753C216.097 128.249 214.78 128.989 213.907 129.478C212.869 130.061 212.64 130.155 212.22 129.745C212.765 129.416 212.823 128.646 215.98 127.641L213.232 127.672ZM167.331 123.116C167.323 122.275 166.78 121.466 166.422 120.931C165.993 120.296 165.914 120.155 166.022 119.894C166.259 120.228 166.603 120.258 167.569 122.199L167.096 120.505C163.157 114.909 162.517 117.867 162.517 117.867C163.468 117.375 164.237 117.63 165.356 119.007C165.045 119.873 165.742 120.914 166.128 121.486C166.507 122.05 166.624 122.261 166.625 122.491C166.632 123.21 166.277 123.498 165.652 123.283C164.84 123.004 163.726 121.737 163.217 120.517C163.07 120.165 163.015 119.876 163.056 119.681C163.107 119.441 163.303 119.362 163.593 119.463C163.608 119.467 163.623 119.473 163.639 119.48C163.488 119.493 163.385 119.597 163.345 119.784C163.292 120.028 163.355 120.39 163.518 120.778C163.865 121.615 164.556 122.414 165.09 122.599C165.444 122.72 165.691 122.592 165.765 122.247C165.833 121.928 165.754 121.469 165.539 120.954C165.047 119.772 164.067 118.644 163.311 118.382C163.069 118.299 162.862 118.297 162.702 118.374C162.537 118.454 162.422 118.618 162.37 118.86C162.277 119.291 162.388 119.917 162.682 120.621C163.396 122.337 164.826 123.981 165.932 124.362C166.817 124.667 167.339 124.201 167.331 123.116V123.116ZM192.002 5.48698C194.514 5.65369 196.228 4.63165 198.212 3.4475C200.879 1.85685 203.902 0.0545588 209.234 1.26396C214.279 2.40848 214.722 4.13062 214.759 6.09729C214.781 7.20087 214.795 7.92957 217.117 8.75437C220.12 9.81883 221.404 9.47682 223.031 9.04354C224.659 8.60938 226.507 8.11816 230.117 8.97484C234.757 10.0778 235.03 12.2537 234.919 14.3574C234.862 15.4448 234.917 15.636 235.343 15.8351C235.921 16.1057 236.34 15.9793 237.091 15.7121C239.037 15.0208 240.911 14.7924 244.154 19.0092C247.215 22.9903 247.113 25.8802 247.03 28.2001C246.981 29.6158 246.944 30.6296 247.605 31.6137C248.139 32.4081 248.662 32.5131 249.529 32.6851C251.742 33.1248 253.741 33.9672 255.781 39.8464C257.872 45.8628 256.021 48.4716 254.535 50.5692C253.65 51.8163 252.953 52.7992 253.117 54.3689C253.312 56.2161 254.116 56.7031 255.332 57.4401C256.815 58.3394 258.661 59.4567 259.275 63.2724C259.936 67.3668 258.171 68.9298 256.753 70.1833C255.732 71.0869 254.924 71.8009 254.893 73.4052C254.866 74.857 255.252 75.5837 255.742 76.5033C256.653 78.218 257.686 80.1597 256.147 86.4267C254.673 92.4199 252.424 94.0889 250.249 95.7026C248.945 96.6713 247.714 97.5846 246.683 99.5528C245.677 101.473 245.847 102.51 246.061 103.819C246.415 105.991 246.82 108.456 242.689 114.498C238.468 120.669 234.161 121.171 230.7 121.574C228.597 121.819 226.935 122.012 225.693 123.407C224.19 125.095 223.885 127.284 223.561 129.601C223.147 132.571 222.678 135.937 219.526 138.613C216.549 141.141 215.234 141.287 213.169 141.328C211.681 141.357 209.831 141.394 206.076 142.787C197.312 146.039 192.814 144.747 179.913 140.172C166.604 135.452 156.523 118.799 157.453 103.017C158.311 88.3992 174.911 73.5117 185.896 63.6601C186.767 62.8789 187.602 62.1298 188.388 61.4172C190.878 59.1624 193.045 57.1171 194.957 55.3119C200.522 50.0612 203.314 47.4246 205.316 47.7544C205.761 47.8277 206.38 48.0836 206.808 48.8906C208.437 51.9533 206.319 57.5402 203.116 65.9928L202.876 66.6271C201.513 70.2259 197.938 73.2251 194.154 76.4012C188.527 81.1224 182.147 86.4746 180.743 95.2722C178.652 108.396 190.841 111.092 197.391 112.537C197.948 112.66 198.454 112.772 198.894 112.879C203.706 114.044 219.592 109.698 228.208 85.4032C236.669 61.549 226.617 50.5569 215.669 42.9514C205.304 35.7518 158.843 43.5095 145.086 47.8052C134.615 51.0759 119.587 59.3213 99.1416 73.0131C85.4507 82.1825 60.5617 107.63 48.7452 121.837C37.9538 134.813 27.2427 152.922 21.9712 162.122C21.3357 161.951 20.6881 161.784 20.0176 161.626C15.7344 160.648 12.7058 159.82 10.7374 159.093L7.67537 157.96C7.45896 157.663 7.25726 157.409 7.07451 157.215C6.18587 156.272 5.87877 155.841 5.77342 155.663C5.80206 155.503 5.86942 155.23 5.9268 155.001C6.00698 154.678 6.09614 154.316 6.18362 153.898C6.27409 153.467 6.37483 152.976 6.47664 152.43C7.87115 152.294 9.54059 151.687 11.4712 150.228C12.9669 149.099 13.6681 147.312 14.3463 145.583C14.8718 144.244 15.4136 142.863 16.2543 142.004C17.5714 140.658 19.0345 139.608 20.5811 138.494C21.5253 137.816 22.5011 137.114 23.4906 136.309L27.5029 133.045L22.9297 130.976C23.0093 130.826 23.1208 130.639 23.2759 130.413C24.2292 129.016 25.637 129.001 28.4016 129.291C30.5505 129.517 33.7985 129.858 34.9482 126.792C35.3526 125.713 36.2702 124.752 37.242 123.734C38.5606 122.351 40.0545 120.788 40.7149 118.509C41.2196 116.771 41.2525 115.285 41.2759 114.199C41.278 114.092 41.2808 113.991 41.2835 113.899C41.7387 113.942 42.2712 114.008 42.6606 114.056C46.1764 114.489 52.0638 115.216 52.854 110.632L52.9673 109.962C53.4841 106.919 53.9308 104.293 55.5807 102.222C56.5778 100.973 56.8304 100.859 57.896 100.38C58.6584 100.038 59.7019 99.5697 61.2823 98.6C62.4705 97.8713 63.4097 97.4606 64.24 97.0981C66.0814 96.2932 67.6675 95.5996 69.0785 92.7804C69.8652 91.206 69.9855 89.9762 70.0026 89.0827C70.0082 88.7849 70.0011 88.4877 69.9917 88.1676C69.9845 87.9216 69.9776 87.7058 69.982 87.4783C69.9925 86.9273 70.0574 86.3007 70.7214 85.2194C72.3211 82.6185 72.3211 82.6185 74.6023 82.2791C75.1999 82.1908 75.7986 82.1867 76.4311 82.1814C78.4311 82.1656 80.9146 82.1453 83.8467 79.548C86.419 77.2691 87.0137 72.6804 87.4486 69.3298C87.4948 68.9715 87.5557 68.5066 87.6189 68.0718C87.7117 68.09 87.801 68.1054 87.8829 68.1216C90.3828 68.586 94.1586 69.2887 97.0366 67.8501C101.106 65.8155 103.155 63.6793 104.107 60.4775C104.265 59.9514 104.346 59.4027 104.358 58.8034C104.375 57.8943 104.228 57.0598 104.097 56.3234C104.054 56.0694 104.006 55.8034 103.976 55.5716C104.802 55.4905 105.824 55.4542 106.728 55.4212C110.689 55.2792 115.179 55.1161 116.882 52.0402C117.714 50.5352 118.121 49.1327 118.514 47.7766C118.854 46.6077 119.175 45.5033 119.76 44.4579C120.381 43.3492 120.659 43.1069 120.734 43.058C120.734 43.0708 121.075 43.0499 122.011 43.4022C122.248 43.4936 122.508 43.5963 122.775 43.7056C125.484 44.7946 130.523 46.821 135.79 42.1432C138.868 39.4124 139.505 38.4485 140.288 37.1034C140.607 36.5556 140.968 35.9355 141.825 34.8678C143.175 33.189 146.729 29.3194 150.548 29.6719C152.957 29.8942 154.813 29.5768 156.043 27.3098C156.238 26.9525 156.238 26.9525 156.47 26.8564C158.564 25.9879 159.792 25.8833 162.612 25.7123L162.87 25.698C165.899 25.5163 167.119 25.3649 170.533 23.6057C171.976 22.8628 172.829 21.6086 172.967 20.0493C173.236 20.1275 173.552 20.2259 173.925 20.3491C176.191 21.0987 177.345 21.8346 178.189 22.3725C181.314 24.3725 183.047 23.1964 185.918 21.2495C188.696 19.3694 189.781 17.4122 190.574 15.9832C191.373 14.5407 191.474 14.3562 193.026 14.3401C194.643 14.3225 195.08 14.8783 196.106 16.4872C196.939 17.7918 198.078 19.5812 200.426 20.3196C203.268 21.2147 205.149 20.4015 206.66 19.7485C207.675 19.3099 208.55 18.9308 209.894 18.9117C211.615 18.8869 211.75 18.9827 212.623 19.6108C213.403 20.1722 214.474 20.9421 216.574 21.9098C218.752 22.9128 220.919 23.5263 222.83 24.0673C225.176 24.7316 227.386 25.3578 228.759 26.5136C229.272 26.9457 229.269 27.101 229.263 27.3833C229.259 27.588 229.237 27.785 229.219 27.9729C229.185 28.3305 229.159 28.6435 229.153 28.9441C229.117 30.8116 229.85 32.2971 231.461 33.622C233.434 35.2417 235.574 35.4278 236.991 35.5499C237.28 35.5746 237.675 35.6086 237.938 35.6566C237.942 35.695 237.945 35.7408 237.949 35.7912C238.026 37.0676 238.018 38.092 238.01 39.1767C237.993 41.1616 237.976 43.2076 238.537 46.5525C239.179 50.3769 239.951 51.6721 242.471 53.1524C242.619 53.2393 242.774 53.33 242.936 53.429C241.875 54.4014 240.622 55.9888 240.573 58.5644C240.56 59.2505 240.635 59.9831 240.798 60.743C241.427 63.6934 242.35 65.135 243.023 66.187C243.61 67.1058 243.855 67.4852 243.828 68.8721C243.816 69.5052 243.74 70.2697 243.597 71.2065C243.549 71.5419 243.52 71.8841 243.492 72.272C243.349 74.1548 243.16 74.504 242.139 74.7697C239.054 75.57 237.174 78.076 237.109 81.4738C237.089 82.5291 237.236 83.6752 237.547 84.8812C238.391 88.152 239.139 91.9363 239.277 93.299L239.276 93.3593C239.269 93.7101 239.256 94.0444 239.239 94.3621L238.685 93.4549L236.002 98.9452C235.768 99.4279 235.303 100.388 234.988 100.651C231.906 101.204 231.328 104.58 230.862 107.3C230.656 108.506 230.401 110.001 230.003 110.632C229.414 111.57 229.047 112.615 228.693 113.628C228.012 115.573 227.654 116.012 227.5 116.1C227.5 116.099 227.326 116.148 226.855 116.034C221.131 114.647 219.791 119.044 218.905 121.953C218.794 122.319 218.68 122.694 218.555 123.074C218.506 123.227 218.458 123.33 218.422 123.399C218.271 123.346 217.985 123.216 217.801 123.085L217.703 123.018C216.228 122.038 214.769 121.689 213.368 121.98C211.1 122.45 209.861 124.361 208.956 125.756C208.948 125.768 208.941 125.779 208.933 125.791L207.459 124.641L205.503 127.25C204.974 127.957 204.569 128.976 204.097 130.235C203.926 130.686 203.64 131.445 203.36 132.032C201.373 128.422 198.137 129.912 197.062 130.407C195.046 131.334 193.997 132.623 193.302 133.475C192.993 133.855 192.787 134.08 192.688 134.145L192.688 134.144C192.688 134.124 192.179 134.141 190.733 133.499C188.598 132.552 188.155 131.841 187.726 131.153C186.773 129.625 185.703 128.686 183.054 128.406C181.782 128.271 180.745 128.279 179.91 128.285C179.569 128.288 179.151 128.291 178.856 128.274C178.837 128.187 178.816 128.079 178.796 127.945C178.746 127.592 178.707 127.264 178.671 126.961C178.069 121.989 175.411 121.899 171.998 122.296C171.563 122.347 171.22 122.382 170.949 122.404C170.911 122.039 170.859 121.623 170.766 121.142C170.743 121.02 170.732 120.906 170.734 120.798C170.739 120.557 170.813 120.328 170.934 119.975C171.065 119.589 171.262 119.012 171.276 118.283C171.318 116.067 169.716 114.643 168.21 113.483C166.689 112.31 165.382 111.763 164.029 111.762C163.983 111.629 163.931 111.473 163.871 111.292L163.709 110.787C163.014 108.647 162.36 106.629 162.383 105.395C162.393 104.868 162.499 104.796 162.691 104.668C165.537 102.758 167.261 99.5732 167.42 95.9285C167.42 95.9276 167.42 95.9258 167.42 95.9239C167.456 94.0482 166.856 92.9894 166.492 92.3554C166.493 92.3536 166.493 92.3528 166.494 92.3519C167.388 90.8535 174.926 76.4221 176.875 72.9834L171.286 80.3879C170.084 81.7396 168.926 83.1177 167.832 84.5163C166.266 87.2695 164.696 90.0162 164.14 90.947C163.822 91.4792 163.663 91.9396 163.656 92.3544C163.647 92.8158 163.814 93.1983 164.106 93.7047C164.385 94.1908 164.702 94.7425 164.682 95.8096C164.56 98.605 163.277 100.973 161.163 102.392C160.151 103.071 159.668 104.009 159.642 105.343C159.61 107.038 160.301 109.166 161.1 111.63L161.263 112.137C161.985 114.367 162.374 114.798 163.451 114.569C164.116 114.427 164.902 114.395 166.536 115.654C168.026 116.802 168.55 117.477 168.535 118.231C168.529 118.531 168.438 118.801 168.341 119.087C168.192 119.524 168.007 120.063 167.994 120.746C167.988 121.041 168.014 121.346 168.074 121.656C168.184 122.23 168.225 122.701 168.263 123.117C168.34 123.979 168.403 124.475 168.835 124.827C169.386 125.275 170.354 125.248 172.316 125.02C175.299 124.671 175.638 124.719 175.948 127.288C175.987 127.608 176.029 127.958 176.083 128.339C176.15 128.802 176.248 129.182 176.372 129.5C171.401 128.216 172.196 131.032 172.196 131.032C172.934 129.768 173.911 129.438 175.921 130.015C176.089 131.174 177.445 131.728 178.194 132.032C178.929 132.331 179.18 132.462 179.316 132.702C179.74 133.457 179.526 134.038 178.727 134.299C177.691 134.637 175.752 134.172 174.494 133.281C174.131 133.024 173.903 132.762 173.834 132.524C173.75 132.232 173.915 131.994 174.284 131.874C174.303 131.867 174.325 131.862 174.346 131.856C174.191 131.987 174.139 132.178 174.205 132.408C174.291 132.705 174.57 133.039 174.97 133.321C175.832 133.933 177.042 134.237 177.724 134.016C178.174 133.867 178.367 133.54 178.246 133.117C178.134 132.726 177.78 132.305 177.25 131.929C176.03 131.067 174.32 130.638 173.352 130.954C173.043 131.056 172.82 131.216 172.693 131.42C172.56 131.634 172.533 131.897 172.616 132.194C172.768 132.72 173.252 133.294 173.978 133.809C175.749 135.062 178.244 135.682 179.659 135.22C180.788 134.851 181.079 133.951 180.437 132.812C179.941 131.93 178.885 131.501 178.186 131.218C177.5 130.938 177.269 130.828 177.188 130.595C177.664 130.911 178.271 131.001 178.992 131.022C179.314 131.178 179.689 131.377 180.16 131.657L179.498 131.029C179.633 131.029 179.773 131.028 179.916 131.027C180.726 131.02 181.642 131.013 182.766 131.132C184.525 131.318 184.862 131.741 185.399 132.603C185.956 133.496 186.72 134.718 189.622 136.005C190.234 136.278 190.766 136.473 191.241 136.611C188.778 137.734 190.117 139.53 190.117 139.53C190.369 138.02 191.119 137.207 192.881 136.852C193.106 136.841 193.313 136.807 193.503 136.751C193.671 136.73 193.829 136.704 194.011 136.69C194.722 137.966 196.553 138.009 197.56 138.031C198.552 138.054 198.904 138.095 199.167 138.316C200 139.007 200.007 139.782 199.191 140.441C198.133 141.297 195.663 141.614 193.799 141.134C193.261 140.995 192.878 140.791 192.691 140.543C192.464 140.239 192.551 139.89 192.927 139.586C192.95 139.569 192.969 139.553 192.992 139.536C192.869 139.759 192.895 140.004 193.073 140.242C193.306 140.551 193.779 140.816 194.372 140.969C195.649 141.299 197.196 141.117 197.893 140.556C198.354 140.182 198.432 139.715 198.104 139.275C197.801 138.869 197.199 138.534 196.412 138.331C194.606 137.867 192.42 138.128 191.432 138.925C191.116 139.181 190.926 139.467 190.869 139.763C190.81 140.071 190.893 140.39 191.123 140.699C191.534 141.246 192.353 141.701 193.43 141.979C196.053 142.655 199.241 142.269 200.687 141.101C201.842 140.168 201.78 138.988 200.525 137.945C199.554 137.136 198.131 137.105 197.19 137.084C196.071 137.059 195.836 137.033 195.635 136.626C196.234 136.627 196.583 136.177 199.69 136.721L197.316 135.731C196.404 135.734 195.602 135.768 194.891 135.826C195.069 135.637 195.245 135.43 195.427 135.207C196.026 134.471 196.769 133.559 198.209 132.896C199.974 132.084 200.415 132.299 201.016 133.463C201.385 134.176 201.888 135.152 203.271 135.331C205.022 135.557 205.932 133.14 206.663 131.198C207.03 130.222 207.385 129.31 207.698 128.895L207.976 128.522L208.343 128.808C208.683 129.073 209.019 129.184 209.342 129.141C210.095 129.04 210.607 128.249 211.255 127.249C211.969 126.149 212.777 124.903 213.923 124.664C214.592 124.526 215.332 124.734 216.187 125.301C216.225 125.329 217.829 126.517 219.34 126.036C219.917 125.851 220.703 125.336 221.161 123.925C221.291 123.527 221.411 123.134 221.527 122.752C222.522 119.489 223.136 117.954 226.209 118.698C229.295 119.447 230.293 117.352 231.279 114.536C231.598 113.627 231.899 112.768 232.323 112.093C232.414 111.948 232.482 111.77 232.56 111.607C233.646 109.926 234.777 108.797 235.845 107.985C235.902 108.254 236.002 108.479 236.149 108.653C236.698 109.299 237.668 109.004 238.522 108.743C238.86 108.639 239.761 108.363 239.839 108.542C240.127 109.198 239.702 110.393 238.702 111.737C238.348 112.211 237.936 112.667 237.494 113.083C238.148 112.178 238.456 111.244 238.345 110.509C238.243 109.845 237.818 109.451 237.177 109.428C235.869 109.384 233.861 110.671 232.603 112.358C232.183 112.922 231.859 113.491 231.641 114.036C231.367 114.72 231.262 115.366 231.345 115.914C231.421 116.409 231.72 117.244 232.876 117.285C234.799 117.35 237.767 115.44 239.634 112.933C241.243 110.773 241.832 108.637 241.208 107.215C240.732 106.132 239.54 106.496 238.58 106.79C238.242 106.892 237.679 107.059 237.432 107.025C238.143 106.692 239.901 105.348 240.717 105.139L239.829 104.266C236.612 105.135 234.582 107.167 233.315 109.124C233.404 108.675 233.486 108.219 233.564 107.763C233.937 105.589 234.288 103.534 235.514 103.342C237.037 103.103 237.861 101.395 238.465 100.149L238.954 99.1477L239.388 99.858C239.649 100.284 239.961 100.457 240.314 100.371C241.35 100.117 241.955 96.6687 242.017 93.3942L242.02 93.1904C241.891 91.647 241.058 87.5155 240.201 84.197C239.952 83.2326 239.834 82.3346 239.85 81.5261C239.891 79.3361 240.921 77.918 242.827 77.4224C245.911 76.623 246.1 74.1287 246.225 72.4768C246.25 72.1574 246.27 71.8763 246.307 71.621C246.469 70.5612 246.554 69.6808 246.569 68.9243C246.578 68.4648 246.557 68.0695 246.516 67.7078C247.794 69.3032 249.463 69.7737 249.463 69.7737C247.609 67.6545 246.933 65.9033 246.937 64.0562C247.447 64.1171 247.897 64.0526 248.291 63.8435C249.147 63.3882 249.427 62.4439 249.652 61.6859C249.918 60.7835 250.063 60.4755 250.396 60.4288C251.594 60.2551 252.725 60.9421 253.498 62.3141C254.523 64.1314 254.385 66.8314 253.2 68.2108C252.979 68.4671 252.619 68.7627 252.151 68.7163C251.755 68.6777 251.36 68.4061 251.035 67.9575C251.26 68.0898 251.505 68.1721 251.76 68.1962C252.33 68.2527 252.889 68.0166 253.291 67.5481C254.138 66.5653 254.254 64.894 253.559 63.6606C253.088 62.8254 252.361 62.3015 251.561 62.2223C250.839 62.1509 250.127 62.4564 249.607 63.0597C248.437 64.4184 248.279 66.8301 249.245 68.5476C249.897 69.7034 250.891 70.428 251.971 70.5354C252.946 70.6317 253.874 70.2289 254.585 69.4025C256.281 67.4324 256.504 63.9251 255.09 61.4158C253.943 59.3823 252.092 58.3361 250.135 58.6187C248.588 58.8406 248.174 60.2402 247.899 61.1663C247.778 61.5753 247.612 62.1342 247.432 62.2304C247.384 62.2551 247.281 62.2641 247.133 62.2439C247.23 61.7577 248.391 58.4996 248.545 57.9751C248.545 57.9751 246.712 58.1111 245.758 60.2161C244.803 62.3201 245.129 62.7139 245.106 63.9089C245.119 64.1002 245.148 64.2762 245.172 64.4558C244.591 63.538 243.96 62.4256 243.478 60.1717C243.36 59.6165 243.304 59.0935 243.313 58.6166C243.353 56.5253 244.608 55.5539 245.522 54.8429L245.605 54.7787C246.143 54.363 246.65 53.9705 246.66 53.4361L246.658 53.3391C246.651 52.7522 246.114 52.2868 245.709 51.9876C244.969 51.4406 244.354 51.0788 243.859 50.7879C242.281 49.8621 241.802 49.4462 241.241 46.0977C240.718 42.9875 240.734 41.148 240.751 39.1988C240.759 38.1068 240.768 36.9919 240.686 35.6249C240.532 33.1021 238.853 32.9577 237.23 32.8189C235.958 32.7087 234.518 32.5853 233.202 31.5046C232.094 30.5932 231.878 29.8424 231.894 28.9964C231.898 28.7625 231.921 28.5171 231.946 28.2507C231.972 27.9907 231.999 27.7188 232.004 27.4356C232.02 26.5731 231.857 25.54 230.525 24.4178C228.924 23.0684 226.811 22.36 224.537 21.7024C226.616 22.1113 229.014 21.8426 230.741 20.5841C226.745 20.8287 225.676 20.9409 223.891 19.7835C224.225 19.3457 224.385 18.8927 224.345 18.4167C224.267 17.4354 223.418 16.8188 222.669 16.2744C222.262 15.9787 221.592 15.4551 221.636 15.2566C221.844 14.3631 222.901 13.8074 224.462 13.7723C225.203 13.7554 225.998 13.8839 226.766 14.1206C226.555 14.091 226.342 14.0778 226.133 14.082C225.094 14.1052 224.287 14.5148 223.919 15.207C223.594 15.8168 223.661 16.5565 224.096 17.2375C225.016 18.668 227.264 19.7538 229.215 19.7087C230.648 19.6775 231.747 19.1355 232.233 18.2253C232.655 17.4318 232.565 16.4868 231.975 15.5707C230.628 13.4731 227.31 11.8807 224.421 11.9454C221.972 12.0011 220.265 13.0845 219.856 14.8425C219.821 14.9926 219.804 15.1367 219.801 15.2737C219.779 16.4331 220.816 17.1868 221.595 17.7537C221.918 17.9884 222.456 18.3789 222.524 18.5684C222.518 18.5692 222.494 18.6081 222.45 18.6657C222.245 18.4818 219.369 17.3457 219.161 17.1425C219.161 17.1425 220.027 18.5482 220.557 19.4093C221.057 20.2103 221.971 20.8556 223.083 21.2881C221.331 20.7895 219.531 20.2534 217.721 19.4201C215.86 18.5638 214.953 17.9095 214.223 17.3847C213.014 16.5162 212.374 16.1339 209.856 16.1709C207.964 16.1979 206.694 16.7476 205.572 17.2316C204.2 17.8252 203.116 18.2925 201.249 17.7049C199.854 17.2661 199.156 16.1715 198.417 15.0132C197.386 13.3968 196.218 11.5649 192.997 11.5985C189.851 11.6318 189.074 13.0309 188.176 14.6525C187.445 15.9729 186.617 17.4662 184.38 18.9809C181.565 20.8896 181.27 21.0896 179.666 20.0627C178.751 19.4796 177.38 18.6043 174.787 17.746C172.339 16.9353 171.205 16.8113 170.602 17.287C170.314 17.5136 170.186 17.8183 170.177 18.3052C170.173 18.5209 170.193 18.7351 170.21 18.9338C170.233 19.2047 170.25 19.4381 170.246 19.6428C170.232 20.37 169.943 20.8261 169.278 21.1689C166.204 22.7518 165.323 22.8045 162.708 22.9603L162.446 22.9763C159.459 23.1579 157.913 23.2902 155.418 24.3248C154.294 24.7914 153.928 25.4617 153.634 26.0017C153.203 26.7978 152.804 27.1265 150.801 26.9421C150.119 26.8788 149.455 26.9101 148.808 27.0046C149.713 26.3584 150.439 25.514 150.815 24.4445C149.6 25.5272 147.101 27.0461 144.813 27.0363C144.718 26.5153 144.506 26.0946 144.173 25.7893C143.436 25.1108 142.417 25.1928 141.516 25.2652C140.552 25.3437 140.125 25.3319 139.977 25.0586C139.429 24.0446 139.771 22.7697 140.914 21.5595C142.465 19.9192 145.322 19.046 147.149 19.653C147.467 19.7587 147.867 19.9692 147.969 20.3696C148.07 20.7709 147.869 21.2982 147.433 21.8127C147.501 21.5361 147.504 21.2546 147.436 20.9837C147.295 20.4217 146.865 19.9849 146.258 19.7832C145.028 19.374 143.354 19.853 142.362 20.8998C141.66 21.6441 141.373 22.5261 141.57 23.314C141.746 24.0184 142.295 24.5708 143.075 24.8307C144.794 25.4008 147.232 24.6933 148.627 23.2183C149.602 22.1885 150.009 20.9889 149.741 19.9254C149.506 18.985 148.789 18.2722 147.726 17.9174C145.214 17.0844 141.64 18.1331 139.586 20.3049C138.495 21.4594 137.917 22.7426 137.893 23.9715C137.88 24.6503 138.038 25.3122 138.37 25.9273C139.108 27.2931 140.645 27.1689 141.663 27.0878C141.706 27.084 139.111 27.9595 139.158 27.9558L141.476 28.4323C142.41 28.6603 143.577 28.6972 144.772 28.5299C142.576 29.8654 140.807 31.7583 139.687 33.1518C138.705 34.377 138.269 35.1236 137.92 35.7238C137.314 36.7634 136.877 37.5136 133.97 40.0932C129.972 43.6436 126.404 42.2092 123.799 41.1615C123.514 41.0473 123.24 40.9378 122.978 40.8378C119.9 39.675 118.803 40.5571 117.369 43.1181C116.629 44.4375 116.249 45.7473 115.882 47.0126C115.514 48.2824 115.165 49.4794 114.485 50.7122C113.532 52.4324 109.865 52.5654 106.63 52.6819C105.593 52.7188 104.522 52.7588 103.6 52.8536C102.642 52.9523 101.989 53.2488 101.602 53.7605C101.339 54.1092 101.211 54.529 101.201 55.0809C101.19 55.6227 101.297 56.2215 101.398 56.8002C101.514 57.4522 101.629 58.1152 101.617 58.7511C101.61 59.102 101.565 59.4109 101.481 59.6954C100.759 62.1201 99.1689 63.7185 95.8111 65.3983C93.7553 66.4258 90.5223 65.824 88.384 65.4258C87.0807 65.1844 86.3803 65.0631 85.9404 65.1727C85.2278 65.3501 85.0548 66.4655 84.731 68.9709C84.3732 71.7307 83.8341 75.8973 82.0287 77.4961C79.8645 79.4135 78.1863 79.4254 76.4103 79.44C75.7064 79.4457 74.9807 79.452 74.1989 79.5678C71.3311 79.9939 70.5707 80.2298 68.3872 83.7838C67.4073 85.3773 67.2585 86.5188 67.2412 87.426C67.2358 87.7083 67.2435 87.9781 67.2512 88.2406C67.2597 88.5177 67.2667 88.7737 67.2618 89.0305C67.2495 89.6746 67.1647 90.4782 66.6269 91.5546C65.6606 93.4857 64.821 93.8527 63.1474 94.5839C62.2802 94.9622 61.201 95.4342 59.8481 96.263C58.4221 97.1388 57.5076 97.5501 56.773 97.8788C55.4391 98.4785 54.792 98.8153 53.4372 100.513C51.3454 103.138 50.8213 106.23 50.2653 109.503L50.1522 110.166C49.8059 112.175 45.8697 111.689 42.9957 111.335C41.2715 111.123 40.2692 111.013 39.7177 111.228C38.6635 111.634 38.5674 112.599 38.5353 114.14C38.5136 115.133 38.4867 116.353 38.0818 117.746C37.6083 119.38 36.4668 120.576 35.2592 121.841C34.1392 123.014 32.9819 124.226 32.3819 125.829C31.9766 126.91 30.5254 126.758 28.6884 126.565C26.151 126.298 22.9933 125.966 21.0123 128.865C20.3476 129.838 20.0035 130.677 19.9905 131.359C19.9868 131.554 20.0098 131.741 20.0594 131.915C20.2879 132.73 20.9763 133.101 21.6623 133.411L22.3355 133.715L21.7627 134.182C20.8354 134.935 19.893 135.613 18.9821 136.268C17.4068 137.401 15.7796 138.572 14.2976 140.085C13.0636 141.343 12.3892 143.064 11.7936 144.583C11.2278 146.025 10.6966 147.379 9.81849 148.041C8.75397 148.845 7.78021 149.346 6.89115 149.575C6.93218 149.197 6.96889 148.806 6.99877 148.389C7.01285 148.178 7.02203 147.984 7.02571 147.791C7.11353 143.185 4.49439 140.586 2.58296 138.69C1.02492 137.145 0.482187 136.515 0.501121 135.522C0.506382 135.246 0.552613 134.931 0.638768 134.582C10.3515 117.688 13.6895 109.092 13.8512 100.611C13.9573 95.0445 12.6853 89.7603 10.9256 82.446C10.6233 81.189 10.3118 79.8861 9.99392 78.5365C13.9193 79.5409 18.0187 80.0459 24.2823 78.7779C28.6622 77.8926 29.364 76.3193 30.1774 74.4977C30.8123 73.0758 31.5312 71.4654 33.8424 70.2226C36.74 68.6637 38.8566 68.5725 40.7235 68.492C42.1202 68.4309 43.3258 68.379 44.6652 67.6806C46.0056 66.9823 46.6593 65.3387 47.4166 63.4356C48.3084 61.1932 49.3201 58.6534 51.7524 56.8161C54.1392 55.0126 56.9651 54.7749 59.6985 54.5455C62.3486 54.3219 64.8513 54.1109 67.1124 52.6204C69.3912 51.1165 69.822 49.5161 70.3669 47.4892C70.8942 45.526 71.4914 43.3009 73.9074 40.9752C76.9481 38.0482 80.3469 38.1952 83.0783 38.3131C84.8526 38.3899 86.3849 38.4557 87.5287 37.7582C88.6698 37.0625 88.8106 36.3888 89.043 35.2727C89.3749 33.6823 89.8295 31.5047 93.4119 28.7845C96.8867 26.1472 99.5268 26.7807 101.858 27.3388C103.763 27.7946 105.408 28.1888 107.532 26.8712C109.437 25.6901 109.373 25.2209 109.295 24.576C109.098 23.0432 109.293 21.6942 113.5 19.3468C118.023 16.8237 120 17.153 121.914 17.4701C123.217 17.6868 124.342 17.8746 126.468 17.0944C129.014 16.1595 129.413 15.5566 129.918 14.7939C130.512 13.8976 131.184 12.8804 134.113 11.4858C137.772 9.74225 139.494 10.0447 141.874 10.462C143.317 10.7153 144.951 11.0024 147.538 10.9237C151.368 10.8085 152.301 10.1673 153.714 9.19707C154.753 8.48478 156.045 7.5973 158.682 6.72995C162.032 5.62849 163.716 6.26656 165.345 6.8844C166.858 7.45796 168.421 8.04987 171.851 7.2616C175.447 6.43448 176.776 5.36121 177.947 4.41291C179.133 3.45392 180.255 2.54764 183.029 2.27516C185.817 2.0002 186.722 2.72669 187.695 3.78078C188.382 4.52414 189.092 5.2944 192.002 5.48698"/>
</svg>
