<svg width="642" height="173" viewBox="0 0 642 173" fill="none" xmlns="http://www.w3.org/2000/svg">
<path d="M566.19 172.641V98.2993H623.199C628.346 98.2993 632.722 100.136 636.325 103.811C640.014 107.485 641.859 111.843 641.859 116.885V172.641H622.169V122.14C622.169 119.32 622.169 117.91 622.169 117.91C622.169 117.91 620.754 117.91 617.923 117.91H590.126C587.295 117.91 585.879 117.91 585.879 117.91C585.879 117.91 585.879 119.32 585.879 122.14V172.641H566.19Z" fill="#2B3438"/>
<path d="M495.742 172.641C490.724 172.641 486.387 170.804 482.73 167.129C479.074 163.455 477.245 159.097 477.245 154.055V116.885C477.245 111.843 479.074 107.485 482.73 103.811C486.387 100.136 490.724 98.2993 495.742 98.2993H533.754C538.857 98.2993 543.194 100.136 546.765 103.811C550.422 107.485 552.251 111.843 552.251 116.885V145.34H496.762V148.8C496.762 151.62 496.762 153.03 496.762 153.03C496.762 153.03 498.165 153.03 500.971 153.03H552.251V172.641H495.742ZM496.762 128.164H532.734V122.14C532.734 119.32 532.734 117.91 532.734 117.91C532.734 117.91 531.331 117.91 528.524 117.91H500.971C498.165 117.91 496.762 117.91 496.762 117.91C496.762 117.91 496.762 119.32 496.762 122.14V128.164Z" fill="#2B3438"/>
<rect x="359.76" y="153.392" width="38.4983" height="19.2491" fill="#2B3438"/>
<path d="M314.698 172.641C309.55 172.641 305.132 170.804 301.443 167.129C297.84 163.455 296.038 159.097 296.038 154.055V125.601H352.018V122.14C352.018 119.32 352.018 117.91 352.018 117.91C352.018 117.91 350.602 117.91 347.771 117.91H296.038V98.2993H353.047C358.195 98.2993 362.57 100.136 366.173 103.811C369.863 107.485 371.707 111.843 371.707 116.885V172.641H314.698ZM319.974 153.03H352.018V142.776H315.727V148.8C315.727 151.62 315.727 153.03 315.727 153.03C315.727 153.03 317.143 153.03 319.974 153.03Z" fill="#2B3438"/>
<path d="M263.514 172.641V116.885C263.514 111.843 265.351 107.485 269.026 103.811C272.701 100.136 277.102 98.2993 282.23 98.2993H323.252V117.91H287.358C284.538 117.91 283.127 117.91 283.127 117.91C283.127 117.91 283.127 119.32 283.127 122.14V172.641H263.514Z" fill="#2B3438"/>
<path d="M171.185 172.641V65.1113H194.483V107.227H215.541L250.786 65.1113H274.98V73.176L236.598 118.876L274.98 164.576V172.641H250.786L215.541 130.525H194.483V172.641H171.185Z" fill="#2B3438"/>
<path d="M384.982 172.641V65.1113H408.28V107.227H429.338L464.584 65.1113H479.237V85.3561L450.396 118.876L488.778 164.576V172.641H464.584L429.338 130.525H408.28V172.641H384.982Z" fill="#2B3438"/>
<rect x="467.289" y="154.72" width="39.8258" height="17.9216" fill="#2B3438"/>
<path d="M552.25 153.01L576.81 153.01V172.642H552.25V153.01Z" fill="#2B3438"/>
<path d="M254.885 65.1113H371.707V85.688H254.885V65.1113Z" fill="#2B3438"/>
<path d="M477.245 65.1113H641.859V85.688H477.245V65.1113Z" fill="#2B3438"/>
<rect x="594.627" y="126.901" width="19.2592" height="45.7405" fill="#F2BC2B"/>
<path d="M414.875 153.383H438.948L455.399 172.642H414.875V153.383Z" fill="#F2BC2B"/>
<path d="M200.616 84.3706H224.69L241.141 65.1114H200.616V84.3706Z" fill="#F2BC2B"/>
<path d="M57.7776 153.382H119.567V172.641H57.7776V153.382Z" fill="#F2BC2B"/>
<path d="M38.5183 153.382C38.5183 164.013 47.1365 172.632 57.7675 172.632C68.3985 172.632 77.0166 164.013 77.0166 153.382C57.7675 153.382 73.0243 153.382 57.7675 153.382C47.1365 153.382 52.5614 153.382 38.5183 153.382Z" fill="#F2BC2B"/>
<path d="M100.308 153.382C100.308 164.013 108.926 172.632 119.557 172.632C130.188 172.632 138.806 164.013 138.806 153.382C119.557 153.382 134.814 153.382 119.557 153.382C108.926 153.382 114.351 153.382 100.308 153.382Z" fill="#F2BC2B"/>
<rect y="84.3604" width="34.5157" height="19.2491" fill="#F2BC2B"/>
<rect x="75.4316" y="33.8149" width="19.2592" height="19.2592" fill="#F2BC2B"/>
<rect x="94.6909" y="15.3584" width="14.4444" height="14.4444" fill="#F2BC2B" fill-opacity="0.75"/>
<rect x="48.9504" y="0.914062" width="14.4444" height="14.4444" fill="white" fill-opacity="0.33"/>
<rect x="85.0613" y="1.71631" width="9.62958" height="9.62958" fill="#F2BC2B" fill-opacity="0.5"/>
<rect x="118.765" y="0.914062" width="9.62958" height="9.62958" fill="white" fill-opacity="0.33"/>
<path d="M29.2056 127.505H148.019L138.726 146.754H38.1664L29.2056 127.505Z" fill="#F2BC2B"/>
<path d="M157.976 65.1113L157.976 127.837L138.726 136.798L138.726 65.1113L157.976 65.1113Z" fill="#F2BC2B"/>
<path d="M38.4983 65.1113L38.4983 136.798L19.2492 127.837L19.2492 65.1113L38.4983 65.1113Z" fill="#F2BC2B"/>
<path d="M157.976 127.505C157.976 138.136 149.357 146.754 138.726 146.754C128.095 146.754 119.477 138.136 119.477 127.505C138.726 127.505 138.726 127.505 138.726 108.256C149.357 108.256 157.976 116.874 157.976 127.505Z" fill="#F2BC2B"/>
<path d="M19.2491 127.505C19.2491 138.136 27.8672 146.754 38.4982 146.754C49.1292 146.754 57.7473 138.136 57.7473 127.505C38.4982 127.505 38.4982 127.505 38.4982 108.256C27.8672 108.256 19.2491 116.874 19.2491 127.505Z" fill="#F2BC2B"/>
<rect x="49.1184" y="65.1113" width="78.9878" height="19.2491" fill="#2B3438"/>
</svg>
