<svg width="331" height="337" viewBox="0 0 331 337" fill="none" xmlns="http://www.w3.org/2000/svg">
<g id="features-illustration">
<g id="cube base">
<path id="Vector 9" d="M214.5 173L116 185L205 213.5L311 191.5L214.5 173Z" fill="#FFDB25"/>
<path id="Rectangle 11" d="M116 185L205 213.5V330.5L116 286V185Z" fill="url(#paint0_linear)"/>
<path id="Rectangle 12" d="M205 213.5L311 191.449V292.449L205 331V213.5Z" fill="url(#paint1_linear)"/>
</g>
<g id="cube base_2">
<path id="Vector 9_2" d="M39.9068 189.698L81.5556 192.246L46.9236 173.674L1.41062 174.689L39.9068 189.698Z" fill="#FFDB25"/>
<path id="Rectangle 11_2" d="M81.5557 192.246L46.9236 173.674L55.845 125.289L89.257 150.478L81.5557 192.246Z" fill="url(#paint2_linear)"/>
<path id="Rectangle 12_2" d="M46.9236 173.674L1.40676 174.71L9.10811 132.942L55.8831 125.082L46.9236 173.674Z" fill="url(#paint3_linear)"/>
</g>
<g id="cube base_3">
<path id="Vector 9_3" d="M87.0855 230L20.3799 238.127L80.652 257.427L152.437 242.528L87.0855 230Z" fill="#844AFF"/>
<path id="Rectangle 11_3" d="M20.3799 238.127L80.652 257.427V336.661L20.3799 306.525V238.127Z" fill="url(#paint4_linear)"/>
<path id="Rectangle 12_3" d="M80.6514 257.427L152.436 242.494V310.893L80.6514 337V257.427Z" fill="url(#paint5_linear)"/>
</g>
<g id="cube base_4">
<path id="Vector 9_4" d="M172.547 119.625L235.506 96.1355L172.393 91.4543L106.077 122.716L172.547 119.625Z" fill="#554700"/>
<path id="Rectangle 11_4" d="M235.506 96.1355L172.392 91.4542L153.876 14.414L219.522 29.6307L235.506 96.1355Z" fill="url(#paint6_linear)"/>
<path id="Rectangle 12_4" d="M172.393 91.4543L106.086 122.749L90.1017 56.2444L153.798 14.0849L172.393 91.4543Z" fill="url(#paint7_linear)"/>
</g>
<g id="cube base_5">
<path id="Vector 9_5" d="M299.823 273L268 276.877L296.754 286.085L331 278.977L299.823 273Z" fill="#844AFF"/>
<path id="Rectangle 11_5" d="M268 276.877L296.754 286.085V323.885L268 309.508V276.877Z" fill="url(#paint8_linear)"/>
<path id="Rectangle 12_5" d="M296.754 286.085L331 278.96V311.591L296.754 324.046V286.085Z" fill="url(#paint9_linear)"/>
</g>
<g id="cube base_6">
<path id="Vector 9_6" d="M293.178 139.117L310.56 112.18L285.086 128.386L268.637 159.253L293.178 139.117Z" fill="#844AFF"/>
<path id="Rectangle 11_6" d="M310.56 112.18L285.086 128.387L256.036 104.201L285.482 91.3019L310.56 112.18Z" fill="url(#paint10_linear)"/>
<path id="Rectangle 12_6" d="M285.086 128.386L268.65 159.264L243.573 138.386L255.912 104.098L285.086 128.386Z" fill="url(#paint11_linear)"/>
</g>
</g>
<defs>
<linearGradient id="paint0_linear" x1="160.5" y1="185" x2="160.5" y2="330.5" gradientUnits="userSpaceOnUse">
<stop stop-color="#FFD500"/>
<stop offset="1" stop-color="#B65700"/>
</linearGradient>
<linearGradient id="paint1_linear" x1="258" y1="191.449" x2="258" y2="331" gradientUnits="userSpaceOnUse">
<stop stop-color="#FFB800"/>
<stop offset="1" stop-color="#FFD501"/>
</linearGradient>
<linearGradient id="paint2_linear" x1="63.1531" y1="188.853" x2="74.2476" y2="128.682" gradientUnits="userSpaceOnUse">
<stop stop-color="#FFD500"/>
<stop offset="1" stop-color="#B65700"/>
</linearGradient>
<linearGradient id="paint3_linear" x1="23.3245" y1="178.751" x2="33.9654" y2="121.041" gradientUnits="userSpaceOnUse">
<stop stop-color="#FFB800"/>
<stop offset="1" stop-color="#FFD501"/>
</linearGradient>
<linearGradient id="paint4_linear" x1="50.5159" y1="238.127" x2="50.5159" y2="336.661" gradientUnits="userSpaceOnUse">
<stop stop-color="#7F43FF"/>
<stop offset="1" stop-color="#2B0284"/>
</linearGradient>
<linearGradient id="paint5_linear" x1="116.544" y1="242.494" x2="116.544" y2="337" gradientUnits="userSpaceOnUse">
<stop stop-color="#6116FF"/>
<stop offset="1" stop-color="#8951FF"/>
</linearGradient>
<linearGradient id="paint6_linear" x1="206.204" y1="103.178" x2="183.178" y2="7.37152" gradientUnits="userSpaceOnUse">
<stop stop-color="#7F43FF"/>
<stop offset="1" stop-color="#FFD500"/>
</linearGradient>
<linearGradient id="paint7_linear" x1="140.984" y1="114.362" x2="118.899" y2="22.4725" gradientUnits="userSpaceOnUse">
<stop stop-color="#FFD501"/>
<stop offset="1" stop-color="#5100FC"/>
</linearGradient>
<linearGradient id="paint8_linear" x1="282.377" y1="276.877" x2="282.377" y2="323.885" gradientUnits="userSpaceOnUse">
<stop stop-color="#7F43FF"/>
<stop offset="1" stop-color="#2B0284"/>
</linearGradient>
<linearGradient id="paint9_linear" x1="313.877" y1="278.96" x2="313.877" y2="324.046" gradientUnits="userSpaceOnUse">
<stop stop-color="#6116FF"/>
<stop offset="1" stop-color="#8951FF"/>
</linearGradient>
<linearGradient id="paint10_linear" x1="301.361" y1="123.229" x2="265.234" y2="93.1524" gradientUnits="userSpaceOnUse">
<stop stop-color="#7F43FF"/>
<stop offset="1" stop-color="#2B0284"/>
</linearGradient>
<linearGradient id="paint11_linear" x1="279.606" y1="146.104" x2="244.956" y2="117.257" gradientUnits="userSpaceOnUse">
<stop stop-color="#6116FF"/>
<stop offset="1" stop-color="#8951FF"/>
</linearGradient>
</defs>
</svg>
