<svg width="298" height="206" viewBox="0 0 298 206" fill="none" xmlns="http://www.w3.org/2000/svg">
<path d="M297.5 10C297.5 4.47715 293.023 0 287.5 0H10C4.47715 0 0 4.47715 0 10V133C0 138.523 4.47715 143 10 143H204.037C206.583 143 209.033 143.971 210.887 145.715L258.107 190.116C262.028 193.803 268.207 189.541 266.154 184.566L254.701 156.815C251.985 150.232 256.824 143 263.945 143H287.5C293.023 143 297.5 138.523 297.5 133V10Z" fill="#1C1F21"/>
<path d="M58.0078 59.4189C58.0078 59.0381 57.9492 58.6963 57.832 58.3936C57.7246 58.0811 57.5195 57.7979 57.2168 57.5439C56.9141 57.2803 56.4893 57.0215 55.9424 56.7676C55.3955 56.5137 54.6875 56.25 53.8184 55.9766C52.8516 55.6641 51.9336 55.3125 51.0645 54.9219C50.2051 54.5312 49.4434 54.0771 48.7793 53.5596C48.125 53.0322 47.6074 52.4219 47.2266 51.7285C46.8555 51.0352 46.6699 50.2295 46.6699 49.3115C46.6699 48.4229 46.8652 47.6172 47.2559 46.8945C47.6465 46.1621 48.1934 45.5371 48.8965 45.0195C49.5996 44.4922 50.4297 44.0869 51.3867 43.8037C52.3535 43.5205 53.4131 43.3789 54.5654 43.3789C56.1377 43.3789 57.5098 43.6621 58.6816 44.2285C59.8535 44.7949 60.7617 45.5713 61.4062 46.5576C62.0605 47.5439 62.3877 48.6719 62.3877 49.9414H58.0225C58.0225 49.3164 57.8906 48.7695 57.627 48.3008C57.373 47.8223 56.9824 47.4463 56.4551 47.1729C55.9375 46.8994 55.2832 46.7627 54.4922 46.7627C53.7305 46.7627 53.0957 46.8799 52.5879 47.1143C52.0801 47.3389 51.6992 47.6465 51.4453 48.0371C51.1914 48.418 51.0645 48.8477 51.0645 49.3262C51.0645 49.6875 51.1523 50.0146 51.3281 50.3076C51.5137 50.6006 51.7871 50.874 52.1484 51.1279C52.5098 51.3818 52.9541 51.6211 53.4814 51.8457C54.0088 52.0703 54.6191 52.29 55.3125 52.5049C56.4746 52.8564 57.4951 53.252 58.374 53.6914C59.2627 54.1309 60.0049 54.624 60.6006 55.1709C61.1963 55.7178 61.6455 56.3379 61.9482 57.0312C62.251 57.7246 62.4023 58.5107 62.4023 59.3896C62.4023 60.3174 62.2217 61.1475 61.8604 61.8799C61.499 62.6123 60.9766 63.2324 60.293 63.7402C59.6094 64.248 58.7939 64.6338 57.8467 64.8975C56.8994 65.1611 55.8398 65.293 54.668 65.293C53.6133 65.293 52.5732 65.1562 51.5479 64.8828C50.5225 64.5996 49.5898 64.1748 48.75 63.6084C47.9199 63.042 47.2559 62.3193 46.7578 61.4404C46.2598 60.5615 46.0107 59.5215 46.0107 58.3203H50.4199C50.4199 58.9844 50.5225 59.5459 50.7275 60.0049C50.9326 60.4639 51.2207 60.835 51.5918 61.1182C51.9727 61.4014 52.4219 61.6064 52.9395 61.7334C53.4668 61.8604 54.043 61.9238 54.668 61.9238C55.4297 61.9238 56.0547 61.8164 56.543 61.6016C57.041 61.3867 57.4072 61.0889 57.6416 60.708C57.8857 60.3271 58.0078 59.8975 58.0078 59.4189Z" fill="white"/>
<path d="M64.4531 57.2363V56.9287C64.4531 55.7666 64.6191 54.6973 64.9512 53.7207C65.2832 52.7344 65.7666 51.8799 66.4014 51.1572C67.0361 50.4346 67.8174 49.873 68.7451 49.4727C69.6729 49.0625 70.7373 48.8574 71.9385 48.8574C73.1396 48.8574 74.209 49.0625 75.1465 49.4727C76.084 49.873 76.8701 50.4346 77.5049 51.1572C78.1494 51.8799 78.6377 52.7344 78.9697 53.7207C79.3018 54.6973 79.4678 55.7666 79.4678 56.9287V57.2363C79.4678 58.3887 79.3018 59.458 78.9697 60.4443C78.6377 61.4209 78.1494 62.2754 77.5049 63.0078C76.8701 63.7305 76.0889 64.292 75.1611 64.6924C74.2334 65.0928 73.1689 65.293 71.9678 65.293C70.7666 65.293 69.6973 65.0928 68.7598 64.6924C67.832 64.292 67.0459 63.7305 66.4014 63.0078C65.7666 62.2754 65.2832 61.4209 64.9512 60.4443C64.6191 59.458 64.4531 58.3887 64.4531 57.2363ZM68.6719 56.9287V57.2363C68.6719 57.9004 68.7305 58.5205 68.8477 59.0967C68.9648 59.6729 69.1504 60.1807 69.4043 60.6201C69.668 61.0498 70.0098 61.3867 70.4297 61.6309C70.8496 61.875 71.3623 61.9971 71.9678 61.9971C72.5537 61.9971 73.0566 61.875 73.4766 61.6309C73.8965 61.3867 74.2334 61.0498 74.4873 60.6201C74.7412 60.1807 74.9268 59.6729 75.0439 59.0967C75.1709 58.5205 75.2344 57.9004 75.2344 57.2363V56.9287C75.2344 56.2842 75.1709 55.6787 75.0439 55.1123C74.9268 54.5361 74.7363 54.0283 74.4727 53.5889C74.2188 53.1396 73.8818 52.7881 73.4619 52.5342C73.042 52.2803 72.5342 52.1533 71.9385 52.1533C71.3428 52.1533 70.835 52.2803 70.415 52.5342C70.0049 52.7881 69.668 53.1396 69.4043 53.5889C69.1504 54.0283 68.9648 54.5361 68.8477 55.1123C68.7305 55.6787 68.6719 56.2842 68.6719 56.9287Z" fill="white"/>
<path d="M86.2793 52.4316V65H82.0459V49.1504H86.0156L86.2793 52.4316ZM85.6934 56.5186H84.5215C84.5215 55.415 84.6533 54.3994 84.917 53.4717C85.1904 52.5342 85.5859 51.7236 86.1035 51.04C86.6309 50.3467 87.2803 49.8096 88.0518 49.4287C88.8232 49.0479 89.7168 48.8574 90.7324 48.8574C91.4355 48.8574 92.0801 48.9648 92.666 49.1797C93.252 49.3848 93.7549 49.7119 94.1748 50.1611C94.6045 50.6006 94.9365 51.1768 95.1709 51.8896C95.4053 52.5928 95.5225 53.4375 95.5225 54.4238V65H91.3037V54.8926C91.3037 54.1699 91.2061 53.6133 91.0107 53.2227C90.8154 52.832 90.5371 52.5586 90.1758 52.4023C89.8242 52.2461 89.3994 52.168 88.9014 52.168C88.3545 52.168 87.876 52.2803 87.4658 52.5049C87.0654 52.7295 86.7334 53.042 86.4697 53.4424C86.2061 53.833 86.0107 54.292 85.8838 54.8193C85.7568 55.3467 85.6934 55.9131 85.6934 56.5186ZM95.127 56.0352L93.6182 56.2256C93.6182 55.1904 93.7451 54.2285 93.999 53.3398C94.2627 52.4512 94.6484 51.6699 95.1562 50.9961C95.6738 50.3223 96.3135 49.7998 97.0752 49.4287C97.8369 49.0479 98.7158 48.8574 99.7119 48.8574C100.474 48.8574 101.167 48.9697 101.792 49.1943C102.417 49.4092 102.949 49.7559 103.389 50.2344C103.838 50.7031 104.18 51.3184 104.414 52.0801C104.658 52.8418 104.78 53.7744 104.78 54.8779V65H100.547V54.8779C100.547 54.1455 100.449 53.5889 100.254 53.208C100.068 52.8174 99.7949 52.5488 99.4336 52.4023C99.082 52.2461 98.6621 52.168 98.1738 52.168C97.666 52.168 97.2217 52.2705 96.8408 52.4756C96.46 52.6709 96.1426 52.9443 95.8887 53.2959C95.6348 53.6475 95.4443 54.0576 95.3174 54.5264C95.1904 54.9854 95.127 55.4883 95.127 56.0352Z" fill="white"/>
<path d="M115.342 65.293C114.111 65.293 113.008 65.0977 112.031 64.707C111.055 64.3066 110.225 63.7549 109.541 63.0518C108.867 62.3486 108.35 61.5332 107.988 60.6055C107.627 59.668 107.446 58.6719 107.446 57.6172V57.0312C107.446 55.8301 107.617 54.7314 107.959 53.7354C108.301 52.7393 108.789 51.875 109.424 51.1426C110.068 50.4102 110.85 49.8486 111.768 49.458C112.686 49.0576 113.721 48.8574 114.873 48.8574C115.996 48.8574 116.992 49.043 117.861 49.4141C118.73 49.7852 119.458 50.3125 120.044 50.9961C120.64 51.6797 121.089 52.5 121.392 53.457C121.694 54.4043 121.846 55.459 121.846 56.6211V58.3789H109.248V55.5664H117.7V55.2441C117.7 54.6582 117.593 54.1357 117.378 53.6768C117.173 53.208 116.86 52.8369 116.44 52.5635C116.021 52.29 115.483 52.1533 114.829 52.1533C114.272 52.1533 113.794 52.2754 113.394 52.5195C112.993 52.7637 112.666 53.1055 112.412 53.5449C112.168 53.9844 111.982 54.502 111.855 55.0977C111.738 55.6836 111.68 56.3281 111.68 57.0312V57.6172C111.68 58.252 111.768 58.8379 111.943 59.375C112.129 59.9121 112.388 60.376 112.72 60.7666C113.062 61.1572 113.472 61.46 113.95 61.6748C114.438 61.8896 114.99 61.9971 115.605 61.9971C116.367 61.9971 117.075 61.8506 117.729 61.5576C118.394 61.2549 118.965 60.8008 119.443 60.1953L121.494 62.4219C121.162 62.9004 120.708 63.3594 120.132 63.7988C119.565 64.2383 118.882 64.5996 118.081 64.8828C117.28 65.1562 116.367 65.293 115.342 65.293Z" fill="white"/>
<path d="M132.012 49.1504V52.1387H122.783V49.1504H132.012ZM125.068 45.2393H129.287V60.2246C129.287 60.6836 129.346 61.0352 129.463 61.2793C129.59 61.5234 129.775 61.6943 130.02 61.792C130.264 61.8799 130.571 61.9238 130.942 61.9238C131.206 61.9238 131.44 61.9141 131.646 61.8945C131.86 61.8652 132.041 61.8359 132.188 61.8066L132.202 64.9121C131.841 65.0293 131.45 65.1221 131.03 65.1904C130.61 65.2588 130.146 65.293 129.639 65.293C128.711 65.293 127.9 65.1416 127.207 64.8389C126.523 64.5264 125.996 64.0283 125.625 63.3447C125.254 62.6611 125.068 61.7627 125.068 60.6494V45.2393Z" fill="white"/>
<path d="M138.53 42.5V65H134.312V42.5H138.53ZM137.93 56.5186H136.772C136.782 55.415 136.929 54.3994 137.212 53.4717C137.495 52.5342 137.9 51.7236 138.428 51.04C138.955 50.3467 139.585 49.8096 140.317 49.4287C141.06 49.0479 141.88 48.8574 142.778 48.8574C143.56 48.8574 144.268 48.9697 144.902 49.1943C145.547 49.4092 146.099 49.7607 146.558 50.249C147.026 50.7275 147.388 51.3574 147.642 52.1387C147.896 52.9199 148.022 53.8672 148.022 54.9805V65H143.774V54.9512C143.774 54.248 143.672 53.6963 143.467 53.2959C143.271 52.8857 142.983 52.5977 142.603 52.4316C142.231 52.2559 141.772 52.168 141.226 52.168C140.62 52.168 140.103 52.2803 139.673 52.5049C139.253 52.7295 138.916 53.042 138.662 53.4424C138.408 53.833 138.223 54.292 138.105 54.8193C137.988 55.3467 137.93 55.9131 137.93 56.5186Z" fill="white"/>
<path d="M155.684 49.1504V65H151.45V49.1504H155.684ZM151.187 45.0195C151.187 44.4043 151.401 43.8965 151.831 43.4961C152.261 43.0957 152.837 42.8955 153.56 42.8955C154.272 42.8955 154.844 43.0957 155.273 43.4961C155.713 43.8965 155.933 44.4043 155.933 45.0195C155.933 45.6348 155.713 46.1426 155.273 46.543C154.844 46.9434 154.272 47.1436 153.56 47.1436C152.837 47.1436 152.261 46.9434 151.831 46.543C151.401 46.1426 151.187 45.6348 151.187 45.0195Z" fill="white"/>
<path d="M163.301 52.5342V65H159.082V49.1504H163.037L163.301 52.5342ZM162.686 56.5186H161.543C161.543 55.3467 161.694 54.292 161.997 53.3545C162.3 52.4072 162.725 51.6016 163.271 50.9375C163.818 50.2637 164.468 49.751 165.22 49.3994C165.981 49.0381 166.831 48.8574 167.769 48.8574C168.511 48.8574 169.189 48.9648 169.805 49.1797C170.42 49.3945 170.947 49.7363 171.387 50.2051C171.836 50.6738 172.178 51.2939 172.412 52.0654C172.656 52.8369 172.778 53.7793 172.778 54.8926V65H168.53V54.8779C168.53 54.1748 168.433 53.6279 168.237 53.2373C168.042 52.8467 167.754 52.5732 167.373 52.417C167.002 52.251 166.543 52.168 165.996 52.168C165.43 52.168 164.937 52.2803 164.517 52.5049C164.106 52.7295 163.765 53.042 163.491 53.4424C163.228 53.833 163.027 54.292 162.891 54.8193C162.754 55.3467 162.686 55.9131 162.686 56.5186Z" fill="white"/>
<path d="M186.021 49.1504H189.844V64.4727C189.844 65.918 189.521 67.1436 188.877 68.1494C188.242 69.165 187.354 69.9316 186.211 70.4492C185.068 70.9766 183.74 71.2402 182.227 71.2402C181.562 71.2402 180.859 71.1523 180.117 70.9766C179.385 70.8008 178.682 70.5273 178.008 70.1562C177.344 69.7852 176.787 69.3164 176.338 68.75L178.198 66.2598C178.687 66.8262 179.253 67.2656 179.897 67.5781C180.542 67.9004 181.255 68.0615 182.036 68.0615C182.798 68.0615 183.442 67.9199 183.97 67.6367C184.497 67.3633 184.902 66.958 185.186 66.4209C185.469 65.8936 185.61 65.2539 185.61 64.502V52.8125L186.021 49.1504ZM175.356 57.2656V56.958C175.356 55.7471 175.503 54.6484 175.796 53.6621C176.099 52.666 176.523 51.8115 177.07 51.0986C177.627 50.3857 178.301 49.834 179.092 49.4434C179.883 49.0527 180.776 48.8574 181.772 48.8574C182.827 48.8574 183.711 49.0527 184.424 49.4434C185.137 49.834 185.723 50.3906 186.182 51.1133C186.641 51.8262 186.997 52.6709 187.251 53.6475C187.515 54.6143 187.72 55.6738 187.866 56.8262V57.5C187.72 58.6035 187.5 59.6289 187.207 60.5762C186.914 61.5234 186.528 62.3535 186.05 63.0664C185.571 63.7695 184.976 64.3164 184.263 64.707C183.56 65.0977 182.72 65.293 181.743 65.293C180.767 65.293 179.883 65.0928 179.092 64.6924C178.311 64.292 177.642 63.7305 177.085 63.0078C176.528 62.2852 176.099 61.4355 175.796 60.459C175.503 59.4824 175.356 58.418 175.356 57.2656ZM179.575 56.958V57.2656C179.575 57.9199 179.639 58.5303 179.766 59.0967C179.893 59.6631 180.088 60.166 180.352 60.6055C180.625 61.0352 180.962 61.3721 181.362 61.6162C181.772 61.8506 182.256 61.9678 182.812 61.9678C183.584 61.9678 184.214 61.8066 184.702 61.4844C185.19 61.1523 185.557 60.6982 185.801 60.1221C186.045 59.5459 186.187 58.8818 186.226 58.1299V56.2109C186.206 55.5957 186.123 55.0439 185.977 54.5557C185.83 54.0576 185.625 53.6328 185.361 53.2812C185.098 52.9297 184.756 52.6562 184.336 52.4609C183.916 52.2656 183.418 52.168 182.842 52.168C182.285 52.168 181.802 52.2949 181.392 52.5488C180.991 52.793 180.654 53.1299 180.381 53.5596C180.117 53.9893 179.917 54.4971 179.78 55.083C179.644 55.6592 179.575 56.2842 179.575 56.958Z" fill="white"/>
<path d="M196.978 42.5V44.7266C196.978 45.3613 196.855 46.0156 196.611 46.6895C196.377 47.3633 196.06 48.0029 195.659 48.6084C195.259 49.2041 194.819 49.7119 194.341 50.1318L192.363 48.9893C192.725 48.4131 193.032 47.7881 193.286 47.1143C193.54 46.4307 193.667 45.6396 193.667 44.7412V42.5H196.978Z" fill="white"/>
<path d="M205.737 60.6201C205.737 60.3174 205.649 60.0439 205.474 59.7998C205.298 59.5557 204.971 59.3311 204.492 59.126C204.023 58.9111 203.345 58.7158 202.456 58.54C201.655 58.3643 200.908 58.1445 200.215 57.8809C199.531 57.6074 198.936 57.2803 198.428 56.8994C197.93 56.5186 197.539 56.0693 197.256 55.5518C196.973 55.0244 196.831 54.4238 196.831 53.75C196.831 53.0859 196.973 52.4609 197.256 51.875C197.549 51.2891 197.964 50.7715 198.501 50.3223C199.048 49.8633 199.712 49.5068 200.493 49.2529C201.284 48.9893 202.173 48.8574 203.159 48.8574C204.536 48.8574 205.718 49.0771 206.704 49.5166C207.7 49.9561 208.462 50.5615 208.989 51.333C209.526 52.0947 209.795 52.9639 209.795 53.9404H205.576C205.576 53.5303 205.488 53.1641 205.312 52.8418C205.146 52.5098 204.883 52.251 204.521 52.0654C204.17 51.8701 203.711 51.7725 203.145 51.7725C202.676 51.7725 202.271 51.8555 201.929 52.0215C201.587 52.1777 201.323 52.3926 201.138 52.666C200.962 52.9297 200.874 53.2227 200.874 53.5449C200.874 53.7891 200.923 54.0088 201.021 54.2041C201.128 54.3896 201.299 54.5605 201.533 54.7168C201.768 54.873 202.07 55.0195 202.441 55.1562C202.822 55.2832 203.291 55.4004 203.848 55.5078C204.99 55.7422 206.011 56.0498 206.909 56.4307C207.808 56.8018 208.521 57.3096 209.048 57.9541C209.575 58.5889 209.839 59.4238 209.839 60.459C209.839 61.1621 209.683 61.8066 209.37 62.3926C209.058 62.9785 208.608 63.4912 208.022 63.9307C207.437 64.3604 206.733 64.6973 205.913 64.9414C205.103 65.1758 204.189 65.293 203.174 65.293C201.699 65.293 200.449 65.0293 199.424 64.502C198.408 63.9746 197.637 63.3057 197.109 62.4951C196.592 61.6748 196.333 60.835 196.333 59.9756H200.332C200.352 60.5518 200.498 61.0156 200.771 61.3672C201.055 61.7188 201.411 61.9727 201.841 62.1289C202.28 62.2852 202.754 62.3633 203.262 62.3633C203.809 62.3633 204.263 62.29 204.624 62.1436C204.985 61.9873 205.259 61.7822 205.444 61.5283C205.64 61.2646 205.737 60.9619 205.737 60.6201Z" fill="white"/>
<path d="M52.0459 96.6162L56.2939 78.6719H58.667L59.209 81.6602L54.6826 100H52.1338L52.0459 96.6162ZM49.8633 78.6719L53.3789 96.6162L53.0859 100H50.2441L45.5127 78.6719H49.8633ZM62.9443 96.543L66.416 78.6719H70.7666L66.0498 100H63.208L62.9443 96.543ZM60 78.6719L64.2773 96.6895L64.1602 100H61.6113L57.0557 81.6455L57.6416 78.6719H60Z" fill="white"/>
<path d="M73.1543 78.6719H81.1084C82.7393 78.6719 84.1406 78.916 85.3125 79.4043C86.4941 79.8926 87.4023 80.6152 88.0371 81.5723C88.6719 82.5293 88.9893 83.7061 88.9893 85.1025C88.9893 86.2451 88.7939 87.2266 88.4033 88.0469C88.0225 88.8574 87.4805 89.5361 86.7773 90.083C86.084 90.6201 85.2686 91.0498 84.3311 91.3721L82.9395 92.1045H76.0254L75.9961 88.6768H81.1377C81.9092 88.6768 82.5488 88.54 83.0566 88.2666C83.5645 87.9932 83.9453 87.6123 84.1992 87.124C84.4629 86.6357 84.5947 86.0693 84.5947 85.4248C84.5947 84.7412 84.4678 84.1504 84.2139 83.6523C83.96 83.1543 83.5742 82.7734 83.0566 82.5098C82.5391 82.2461 81.8896 82.1143 81.1084 82.1143H77.5488V100H73.1543V78.6719ZM85.0781 100L80.2148 90.4932L84.8584 90.4639L89.7803 99.7949V100H85.0781Z" fill="white"/>
<path d="M109.893 88.8379V89.8486C109.893 91.4697 109.673 92.9248 109.233 94.2139C108.794 95.5029 108.174 96.6016 107.373 97.5098C106.572 98.4082 105.615 99.0967 104.502 99.5752C103.398 100.054 102.173 100.293 100.825 100.293C99.4873 100.293 98.2617 100.054 97.1484 99.5752C96.0449 99.0967 95.0879 98.4082 94.2773 97.5098C93.4668 96.6016 92.8369 95.5029 92.3877 94.2139C91.9482 92.9248 91.7285 91.4697 91.7285 89.8486V88.8379C91.7285 87.207 91.9482 85.752 92.3877 84.4727C92.8271 83.1836 93.4473 82.085 94.248 81.1768C95.0586 80.2686 96.0156 79.5752 97.1191 79.0967C98.2324 78.6182 99.458 78.3789 100.796 78.3789C102.144 78.3789 103.369 78.6182 104.473 79.0967C105.586 79.5752 106.543 80.2686 107.344 81.1768C108.154 82.085 108.779 83.1836 109.219 84.4727C109.668 85.752 109.893 87.207 109.893 88.8379ZM105.454 89.8486V88.8086C105.454 87.6758 105.352 86.6797 105.146 85.8203C104.941 84.9609 104.639 84.2383 104.238 83.6523C103.838 83.0664 103.35 82.627 102.773 82.334C102.197 82.0312 101.538 81.8799 100.796 81.8799C100.054 81.8799 99.3945 82.0312 98.8184 82.334C98.252 82.627 97.7686 83.0664 97.3682 83.6523C96.9775 84.2383 96.6797 84.9609 96.4746 85.8203C96.2695 86.6797 96.167 87.6758 96.167 88.8086V89.8486C96.167 90.9717 96.2695 91.9678 96.4746 92.8369C96.6797 93.6963 96.9824 94.4238 97.3828 95.0195C97.7832 95.6055 98.2715 96.0498 98.8477 96.3525C99.4238 96.6553 100.083 96.8066 100.825 96.8066C101.567 96.8066 102.227 96.6553 102.803 96.3525C103.379 96.0498 103.862 95.6055 104.253 95.0195C104.644 94.4238 104.941 93.6963 105.146 92.8369C105.352 91.9678 105.454 90.9717 105.454 89.8486Z" fill="white"/>
<path d="M130.415 78.6719V100H126.021L117.451 85.7031V100H113.057V78.6719H117.451L126.035 92.9834V78.6719H130.415Z" fill="white"/>
<path d="M151.143 88.8525V97.3047C150.811 97.7051 150.298 98.1396 149.604 98.6084C148.911 99.0674 148.018 99.4629 146.924 99.7949C145.83 100.127 144.507 100.293 142.954 100.293C141.577 100.293 140.322 100.068 139.189 99.6191C138.057 99.1602 137.08 98.4912 136.26 97.6123C135.449 96.7334 134.824 95.6592 134.385 94.3896C133.945 93.1104 133.726 91.6504 133.726 90.0098V88.6768C133.726 87.0361 133.936 85.5762 134.355 84.2969C134.785 83.0176 135.396 81.9385 136.187 81.0596C136.978 80.1807 137.92 79.5117 139.014 79.0527C140.107 78.5938 141.323 78.3643 142.661 78.3643C144.517 78.3643 146.04 78.667 147.231 79.2725C148.423 79.8682 149.331 80.6982 149.956 81.7627C150.591 82.8174 150.981 84.0283 151.128 85.3955H146.865C146.758 84.6729 146.553 84.043 146.25 83.5059C145.947 82.9688 145.513 82.5488 144.946 82.2461C144.39 81.9434 143.667 81.792 142.778 81.792C142.046 81.792 141.392 81.9434 140.815 82.2461C140.249 82.5391 139.771 82.9736 139.38 83.5498C138.989 84.126 138.691 84.8389 138.486 85.6885C138.281 86.5381 138.179 87.5244 138.179 88.6475V90.0098C138.179 91.123 138.286 92.1094 138.501 92.9688C138.716 93.8184 139.033 94.5361 139.453 95.1221C139.883 95.6982 140.41 96.1328 141.035 96.4258C141.66 96.7188 142.388 96.8652 143.218 96.8652C143.911 96.8652 144.487 96.8066 144.946 96.6895C145.415 96.5723 145.791 96.4307 146.074 96.2646C146.367 96.0889 146.592 95.9229 146.748 95.7666V91.9873H142.734V88.8525H151.143Z" fill="white"/>
<path d="M159.185 78.6719L158.701 93.4814H155.186L154.688 78.6719H159.185ZM154.57 98.0664C154.57 97.4414 154.785 96.9238 155.215 96.5137C155.654 96.0938 156.23 95.8838 156.943 95.8838C157.666 95.8838 158.242 96.0938 158.672 96.5137C159.102 96.9238 159.316 97.4414 159.316 98.0664C159.316 98.6719 159.102 99.1846 158.672 99.6045C158.242 100.024 157.666 100.234 156.943 100.234C156.23 100.234 155.654 100.024 155.215 99.6045C154.785 99.1846 154.57 98.6719 154.57 98.0664Z" fill="white"/>
</svg>
