<svg width="901" height="548" viewBox="0 0 901 548" fill="none" xmlns="http://www.w3.org/2000/svg">
<path d="M370.054 311.646V123.407C370.054 118.018 374.334 113.597 379.72 113.419C554.712 107.635 717.015 108.04 829.84 54.1646C831.207 53.5118 832.688 53.17 834.203 53.1702C837.461 53.1705 843.03 53.1709 843.03 53.1699V342.175C843.03 347.649 838.592 352.087 833.118 352.087C832.312 352.087 831.579 352.005 830.796 351.816C758.73 334.444 506.577 324.644 379.774 321.651C374.338 321.522 370.054 317.084 370.054 311.646Z" stroke="white" stroke-opacity="0.2"/>
<path d="M723.613 338.243L728.481 378.167C729.188 383.964 724.798 389.131 718.962 389.369L491.156 398.658C488.873 398.751 486.961 400.418 486.557 402.667V402.667C486.017 405.675 488.347 408.432 491.403 408.401L733.803 405.997C734.425 405.99 735.047 406.042 735.66 406.152L743.548 407.56C746.711 408.125 749.409 410.175 750.802 413.07L765.859 444.374C766.786 446.3 768.734 447.524 770.871 447.524V447.524C774.847 447.524 777.538 443.472 775.996 439.807L767.473 419.547C765.9 415.808 768.645 411.674 772.702 411.674V411.674C776.154 411.674 778.806 408.616 778.317 405.199L769.353 342.446M830.175 77.2993V327.187C830.175 333.686 824.17 338.525 817.776 337.359C735.706 322.384 502.011 315.631 385.468 312.993C380.032 312.87 375.741 308.431 375.741 302.994V129.112C375.741 123.723 380.014 119.302 385.4 119.125C547.414 113.797 707.197 113.921 815.654 67.9197C822.451 65.0371 830.175 69.9169 830.175 77.2993Z" stroke="white" stroke-opacity="0.2"/>
<path d="M414.496 259.476V71.2367C414.496 65.8476 418.776 61.4269 424.162 61.2489C599.155 55.4647 761.457 55.8699 874.282 1.9947C875.649 1.34193 877.131 1.0001 878.646 1.00024C881.904 1.00056 887.473 1.00095 887.473 1V290.005C887.473 295.48 883.035 299.917 877.561 299.917C876.754 299.917 876.022 299.835 875.238 299.646C803.172 282.274 551.02 272.474 424.216 269.481C418.78 269.353 414.496 264.914 414.496 259.476Z" stroke="white" stroke-opacity="0.1"/>
<path d="M420.184 250.824V76.9423C420.184 71.553 424.456 67.1324 429.843 66.9553C591.857 61.6271 751.64 61.7511 860.097 15.7498C866.893 12.8671 874.617 17.747 874.617 25.1294V275.017C874.617 281.516 868.612 286.355 862.219 285.189C780.148 270.214 546.453 263.461 429.91 260.823C424.474 260.7 420.184 256.261 420.184 250.824Z" stroke="white" stroke-opacity="0.1"/>
<path d="M269.579 298.121V109.881C269.579 104.492 273.859 100.071 279.245 99.8934C454.238 94.1092 616.54 94.5144 729.365 40.6392C730.732 39.9865 732.214 39.6446 733.729 39.6448C736.987 39.6451 742.556 39.6455 742.556 39.6445V328.65C742.556 334.124 738.118 338.562 732.644 338.562C731.837 338.562 731.105 338.479 730.321 338.29C658.255 320.919 406.103 311.119 279.299 308.125C273.863 307.997 269.579 303.558 269.579 298.121Z" stroke="white" stroke-opacity="0.05"/>
<path d="M275.266 289.468V115.587C275.266 110.198 279.538 105.777 284.925 105.6C446.939 100.272 606.722 100.396 715.179 54.3943C721.975 51.5117 729.699 56.3915 729.699 63.7739V313.661C729.699 320.161 723.694 325 717.301 323.833C635.23 308.859 401.535 302.105 284.992 299.468C279.556 299.345 275.266 294.906 275.266 289.468Z" stroke="white" stroke-opacity="0.05"/>
<path d="M899.967 526.262L5.83105 415.159V398.735L692.736 377.964L728.482 380.63M899.967 393.422L775.339 384.125" stroke="white" stroke-opacity="0.2"/>
<path d="M436.233 468.778V547.999" stroke="white" stroke-opacity="0.2"/>
<path d="M452.175 470.711L452.175 548" stroke="white" stroke-opacity="0.2"/>
<path d="M491.785 475.541L491.785 547.999" stroke="white" stroke-opacity="0.2"/>
<path d="M900.45 504.041L6.31445 402.116" stroke="white" stroke-opacity="0.2"/>
<path d="M895.136 521.432L1 410.329V393.905L687.905 373.134L723.651 375.8M895.136 388.592L770.507 379.295" stroke="white" stroke-opacity="0.1"/>
<path d="M431.402 463.948V543.169" stroke="white" stroke-opacity="0.1"/>
<path d="M447.344 465.881L447.344 543.17" stroke="white" stroke-opacity="0.1"/>
<path d="M486.954 470.711L486.954 543.169" stroke="white" stroke-opacity="0.1"/>
<path d="M895.619 499.212L1.4834 397.287" stroke="white" stroke-opacity="0.1"/>
</svg>
