<svg width="292" height="275" viewBox="0 0 292 275" fill="none" xmlns="http://www.w3.org/2000/svg">
<g clip-path="url(#clip0_2244_4644)">
<path d="M235.823 0H246.062C258.625 1.47709 270.446 8.57516 277.161 19.4189C287.523 35.266 290.139 54.5715 292 73.0199V85.5575C291.22 98.3068 287.473 110.678 282.191 122.25C273.338 141.488 262.222 159.785 248.451 175.902C240.967 184.184 235.237 193.821 229.644 203.432C216.829 224.741 202.76 245.259 189.704 266.405C193.16 267.993 196.981 269.077 199.928 271.572C199.878 272.505 198.57 271.774 197.999 271.698C192.388 269.606 187.086 266.808 181.644 264.338C180.635 263.934 179.398 263.632 178.414 264.212C175.187 267.363 174.018 272.278 170.356 275H169.891C171.269 270.715 175.167 267.589 176.281 263.203C174.803 260.406 171.246 259.423 168.553 258.137C166.634 259.574 163.875 260.658 162.972 263.077C163.651 263.43 167.192 266.228 164.209 265.472C159.478 263.405 156.765 268.749 152.723 269.656C153.377 267.312 156.37 266.203 157.421 263.934C151.895 260.758 145.831 258.616 140.102 255.843C110.452 241.934 83.4904 222.717 59.3859 200.611C40.8448 183.562 24.0718 164.193 12.0724 141.911C5.92551 130.798 1.31538 118.653 0 105.947V95.204C0.933092 86.16 4.24041 77.3529 10.0175 70.2825C19.9797 56.7695 35.538 48.7665 51.3125 44.116C65.4321 39.7981 80.6659 38.374 95.1427 41.7314C83.8576 41.5474 72.5523 42.3792 61.3552 43.8412C42.6028 45.956 24.3409 55.0933 12.3389 69.8389C5.20369 78.9711 0.261568 90.3618 1.17957 102.168C1.63228 119.946 9.8943 136.227 19.1221 150.978C38.0128 181.508 65.2008 205.706 93.8147 226.833C95.9224 224.721 97.8213 222.155 99.2272 219.498C98.7845 216.673 95.3716 215.067 92.8137 216.242C92.7081 214.19 91.5235 211.589 89.1644 211.528C87.8238 212.846 86.9234 214.873 85.0044 215.496C84.4059 213.512 86.9461 212.085 87.7333 210.502C69.2374 194.28 49.5771 178.553 36.2221 157.534C29.2176 146.433 23.9636 134.042 22.1528 120.97C21.2499 113.131 21.7378 105.223 21.6472 97.354C22.2433 90.2988 21.3178 82.9739 23.6895 76.1707C26.7428 68.7374 35.4424 67.4368 41.4736 63.739C49.9343 55.3932 61.3477 50.168 73.2087 49.4193C92.3962 47.9019 112.248 49.9336 129.997 57.7576C135.932 60.0992 141.241 63.7869 147.089 66.2622C153.533 61.7427 159.425 56.2351 163.502 49.4269C171.048 37.1742 181.659 27.1446 193.16 18.6551C205.642 9.228 220.049 1.60312 235.823 0M235.557 1.90307C224.043 2.97938 213.2 7.65009 203.321 13.4601C187.013 23.2528 173.11 37.1237 163.04 53.2204C185.348 42.2835 206.213 27.9613 229.9 19.9255C238.032 17.4604 248.147 18.0149 254.601 24.1148C262.171 29.94 268.811 37.0985 273.64 45.3662C278.368 59.3859 284.404 73.2065 286.09 88.0958C287.171 94.2512 285.637 100.631 286.391 106.706C294.062 82.8176 290.642 56.5704 282.493 33.2168C277.916 19.9709 267.88 8.04835 254.249 3.80866C248.21 1.8703 241.854 1.27796 235.557 1.90307M236.563 22.3252C224.428 22.058 213.718 28.3797 204.392 35.4828C203.97 36.0953 204.553 36.0474 204.991 35.8332C219.216 27.5681 236.344 23.9535 252.614 26.4061C249.312 22.3756 241.917 21.574 236.563 22.3252ZM239.578 27.374C238.58 27.5933 237.028 27.074 236.437 27.6966C244.79 27.7899 253.419 29.3476 260.26 34.2326C257.04 26.9077 246.437 27.1849 239.578 27.374ZM203.077 33.6276C190.205 39.4578 178.087 46.8962 165.995 54.1959C159.747 57.3391 157.024 64.1398 154.556 70.2422C153.364 72.6771 155.17 75.3061 156.933 76.9017C165.708 68.0089 175.28 59.9757 184.554 51.6198C190.011 45.0612 197.773 39.4629 203.077 33.6276ZM231.721 35.2484C234.513 38.195 238.17 41.313 239.948 45.3611C249.198 63.9003 248.721 85.4996 245.308 105.465C244.669 106.69 244.759 110.943 246.895 108.808C251.505 96.0988 249.973 81.7035 250.979 68.8256C252.488 81.0078 251.507 93.3059 250.056 105.448C250.011 106.287 249.754 107.3 250.536 107.875C253.192 107.318 255.657 106.02 258.373 105.672C260.008 105.42 262.398 105.234 262.699 103.197C265.692 90.9088 267.755 78.2679 267.83 65.5992C267.83 54.2564 261.366 43.3068 251.5 37.8144C245.416 34.7165 238.308 35.4198 231.721 35.2484M227.71 36.3676C209.528 40.7887 194.541 52.8902 180.524 64.722C168.492 74.3735 158.653 87.6799 155.253 102.922C154.433 104.429 155.995 108.505 153.666 108.314C153.309 104.883 154.166 101.561 154.883 98.2514C154.227 98.3951 153.623 98.7706 152.952 98.811C148.658 92.0456 140.741 87.8941 134.491 82.8075C133.057 83.5637 131.956 85.6558 130.804 86.9338C138.389 91.8994 146.636 96.9936 150.917 105.352C152.891 109.133 153.834 113.95 153.5 117.927C151.739 105.241 142.328 94.8611 130.857 89.8728C130.17 89.6132 128.669 89.5477 129.164 90.6013C129.702 93.3135 132.492 95.0628 132.969 97.6792C130.537 97.1524 129.378 94.1982 127.507 92.7388C125.817 94.3696 125.022 96.8222 122.939 98.085C120.794 93.1295 115.668 89.8023 111.74 86.1347C102.653 77.7234 89.7655 74.9936 77.7359 75.1095C67.5599 75.4498 58.3447 80.9423 50.983 87.6421C47.4443 90.6139 46.7049 95.5493 47.472 99.8822C49.5318 138.173 67.1977 176.355 97.0139 200.521C100.663 197.587 103.82 194.098 107.318 190.988C144.856 155.696 189.569 127.818 238.444 111.412C240.094 111.051 242.149 110.751 242.695 108.856C245.433 99.5571 246.004 89.7947 246.251 80.1558C246.027 69.1357 244.94 57.6769 239.443 47.8818C236.958 43.1153 233.308 37.4716 227.71 36.3676M263.881 36.8868C263.982 38.8352 265.969 40.398 267.302 41.6407C265.994 40.3602 265.818 37.1011 263.881 36.8868M77.8415 50.5435C64.7204 50.5209 50.8397 55.3756 42.2809 65.5715C47.5776 64.9187 52.8618 64.0062 58.1938 63.7793C57.9875 64.5658 55.6787 64.5305 55.148 65.3245C62.6706 64.1423 70.4246 68.629 77.7283 65.9748C73.7746 64.5759 67.4517 65.5513 63.4427 63.7945C72.082 62.7484 80.6131 65.6068 89.2675 65.0472C106.073 63.6205 123.017 67.9711 137.793 75.8708C140.18 73.8291 142.466 71.5378 144.348 69.0021C145.972 67.4897 143.357 66.5949 142.338 65.7958C123.093 54.2388 100.158 49.2555 77.8415 50.5435M272.584 51.4585C273.414 54.7984 274.797 58.4205 275.677 61.4478C275.451 57.9895 275.199 54.0245 272.584 51.4585ZM155.552 61.5788C152.929 63.192 150.61 65.4329 148.736 67.8501C149.257 69.2012 150.728 70.6153 152.102 71.0841C153.507 68.0669 155.011 65.0699 156.101 61.9191C156.322 61.4301 155.884 61.4982 155.552 61.5788ZM277.664 62.5089C278.217 101.538 262.548 138.281 246.709 173.152C263.202 153.871 278.997 132.179 283.675 106.602C286.064 91.9095 284.48 75.6313 277.664 62.5089M48.9534 66.4033C40.0098 69.0903 37.3136 79.3795 35.7593 87.5186C35.8297 88.8318 34.464 91.8238 36.1793 92.2699C39.4263 90.1803 41.1491 86.475 44.0691 83.9922C49.9619 77.6655 57.741 73.8139 65.3667 70.0582C66.0961 69.7104 69.2148 68.2812 67.0569 67.8955C61.0433 67.2754 55.0021 66.31 48.9534 66.4033ZM43.3649 66.6302C41.3553 66.6629 39.454 67.4242 38.1813 69.0273C31.3152 77.0202 25.86 86.7422 24.6905 97.3692C24.6351 104.099 25.855 110.902 28.4857 117.116C28.624 117.484 28.9535 118 29.4062 117.877C31.3328 108.518 33.3297 99.1512 34.3534 89.6359C35.2789 81.6934 37.0646 73.1611 43.1536 67.4771C43.2542 67.2553 44.2175 66.2924 43.3649 66.6302M35.5782 68.1526C26.4837 70.7816 21.5089 81.9329 24.107 90.4198C26.1442 82.5378 31.29 76.1405 35.4902 69.355C35.6989 68.9668 36.6647 67.6359 35.5782 68.1526ZM146.465 69.1432C144.048 71.6764 141.606 74.2223 139.312 76.8841C142.469 79.6114 145.678 82.3488 149.154 84.6728C149.883 80.8389 151.078 77.0857 151.611 73.2216C149.75 72.0974 148.108 70.2195 146.465 69.1432M93.1734 72.0495C99.5516 76.327 107.939 79.0266 115.661 80.9322C113.332 79.0014 110.744 77.31 108.357 75.412C104.142 71.9134 98.3067 72.1907 93.1734 72.0495M84.6624 73.2115C84.2273 73.3375 83.3219 73.1182 83.4853 73.8316C86.8681 74.681 90.769 74.9281 94.021 74.7214C91.1588 73.1535 87.8842 72.7074 84.6624 73.2115M108.52 73.0628C113.525 77.4336 119.705 81.832 125.754 85.2147C128.452 87.1203 131.921 84.3451 132.419 81.7841C125.243 77.179 116.815 74.6634 108.52 73.0628M153.027 74.7491C151.91 77.5747 151.417 80.6398 150.869 83.6192C154.259 82.0337 156.588 77.0303 153.027 74.7491ZM269.188 75.7674C267.101 100.356 258.826 124.037 248.776 146.484C240.008 165.325 229.088 183.073 217.332 200.168C213.2 206.668 208.233 212.778 205.001 219.781C219.589 207.374 228.084 189.475 237.156 172.897C250.398 146.829 263.077 119.893 268.233 90.8735C268.937 85.8877 269.767 80.7003 269.188 75.7674M108.986 80.8566C113.015 86.2583 119.174 89.9837 124.219 94.5083C125.537 93.011 126.34 90.5963 124.738 88.9957C120.869 84.33 114.836 81.827 108.986 80.8566ZM45.1053 93.5882C42.2834 98.8866 39.1899 104.273 38.0279 110.234C37.2331 120.725 40.9102 130.866 44.6954 140.472C53.5283 163.185 69.7606 182.158 88.2313 197.665C90.5954 199.482 92.6729 201.927 95.5803 202.87C93.7594 198.827 89.6271 196.566 86.8329 193.269C62.5147 170.072 50.2939 136.958 45.6184 104.261C44.7557 100.845 45.968 96.5374 45.1053 93.5882M23.2644 104.182C21.9289 107.431 23.0708 111.046 23.1462 114.424C24.5924 130.571 29.4088 147.212 40.1909 159.611C36.5641 151.459 33.1336 143.141 31.461 134.327C29.3434 124.272 25.777 113.506 23.2644 104.182M260.662 106.232C257.015 107.182 253.494 108.568 249.795 109.385C248.909 109.602 248.96 110.696 248.718 111.396C245.499 126.802 239.576 141.425 234.337 156.211C233.047 159.374 232.149 162.948 230.122 165.602C230.162 162.8 231.792 159.351 232.74 156.377C238.016 141.599 243.939 126.971 247.36 111.616C247.606 110.708 246.6 109.345 245.748 110.63C243.565 111.772 243.645 114.424 242.974 116.465C239.591 126.467 235.791 136.338 231.382 145.934C215.253 177.427 191.933 204.41 168.362 230.483C167.899 231.323 165.457 232.984 167.225 233.684C173.153 236.397 179.561 237.854 185.796 239.648C192.378 233.362 199.252 227.08 203.64 218.962C214.297 201.809 226.168 185.415 236.108 167.813C246.942 148.835 255.481 128.557 261.467 107.532C261.643 106.965 261.492 105.778 260.662 106.232M240.328 112.546C187.22 129.633 139.458 161.358 99.9163 200.488C98.2061 201.97 100.9 204.506 102.514 203.354C111.43 192.818 122.461 184.353 133.407 176.048C151.946 161.97 172.449 150.852 192.906 139.892C203.122 134.715 213.039 128.804 223.718 124.625C227.046 124.932 229.289 121.691 232.559 121.817C233.094 122.825 231.414 123.027 230.949 123.596C216.02 130.919 201.412 138.896 187.199 147.535C165.469 160.818 144.041 174.974 125.56 192.634C120.341 198.156 114.142 203.261 110.407 209.87C122.046 217.139 134.984 222.115 147.632 227.36C153.027 229.339 158.505 231.872 164.257 232.245C181.286 213.721 197.949 194.733 212.501 174.152C225.398 156.604 235.084 136.824 241.553 116.05C241.837 114.915 242.813 111.452 240.328 112.546M36.6748 121.3C37.1225 139.002 45.8397 155.079 56.5891 168.63C63.576 177.22 69.9417 187.219 79.6649 192.863C65.9653 179.38 53.2718 164.254 45.553 146.415C41.6295 138.453 39.6225 129.295 36.6748 121.3ZM190.265 143.282C159.546 159.402 129.104 177.424 105.05 202.842C102.054 205.317 107.718 209.678 109.597 206.371C132.746 181.429 160.379 161.101 189.657 143.958C189.903 143.88 191.158 142.912 190.265 143.282M96.9334 203.53C95.7463 204.849 99.2775 207.394 100.306 205.927C99.8333 204.629 98.4123 203.205 96.9334 203.53ZM101.682 206.24C100.61 208.771 104.345 210.558 106.337 210.903C106.242 208.584 103.774 206.671 101.682 206.24ZM108.261 211.798C107.537 211.952 108.304 212.771 108.581 213.081C113.593 216.93 119.564 219.198 125.268 221.797C143.281 229.296 161.264 237.236 180.185 242.146C181.03 242.366 184.257 242.918 183.392 241.224C175.336 237.024 165.975 236.407 157.859 232.492C146.113 228.374 134.365 224.146 123.221 218.556C118.156 216.509 113.621 212.816 108.261 211.798M101.393 220.106C99.529 222.596 96.1512 225.097 96.2192 228.411C116.31 241.735 137.157 254.457 159.966 262.573C162.428 261.162 164.566 259.019 166.742 257.129C144.134 246.298 122.753 233.145 101.393 220.106M206.09 221.409C203.233 223.99 200.796 227.156 198.726 230.408C201.89 228.507 204.486 223.912 206.09 221.409ZM108.065 222.132C127.29 234.04 147.024 245.625 167.456 255.39C159.038 248.687 148.633 244.485 139.333 238.958C128.953 233.276 118.744 227.229 108.065 222.132M207.37 223.209C202.489 228.633 198.263 234.693 194.088 240.689C193.389 241.902 194.923 241.118 195.215 240.505C199.591 235.151 203.907 228.411 207.37 223.209M140.271 230.68C151.47 237.387 162.939 243.701 174.511 249.723C176.787 248.299 178.686 246.356 180.791 244.707C180.172 243.918 178.678 243.833 177.713 243.338C165.19 239.253 152.999 234.022 140.271 230.68ZM196.284 231.769C193.864 234.541 189.918 236.729 188.922 240.402C193.497 241.695 195.567 234.468 196.284 231.769ZM186.302 242.058C182.127 243.548 189.699 246.414 190.145 243.492C190.102 241.71 187.564 241.975 186.302 242.058ZM183.034 245.597C180.411 246.625 178.372 248.74 176.53 250.805C178.216 252.516 180.788 253.272 183.039 254.054C184.687 251.594 186.312 249.065 187.368 246.283C186.058 245.567 184.506 245.337 183.034 245.597M198.568 247.911C195.059 252.113 191.782 256.549 187.662 260.204C185.668 261.212 188.014 264.943 189.579 263.103C193.13 258.641 196.553 252.617 198.568 247.911M180.22 261.187C181.017 263.153 184.571 263.556 186.606 264.439C185.233 262.397 182.692 261.086 180.22 261.187Z" fill="#1C1F21"/>
</g>
<defs>
<clipPath id="clip0_2244_4644">
<rect width="292" height="275" fill="white"/>
</clipPath>
</defs>
</svg>
