<svg width="357" height="121" viewBox="0 0 357 121" fill="none" xmlns="http://www.w3.org/2000/svg">
<g class="__logo">
<path d="M136.141 119.977V113.931H142.281V72.1617H136.324V66.208H151.262V100.349L165.65 89.1855H159.602V83.1388H179.305V89.1855H174.448L160.427 100.442L173.532 113.931H179.58V119.977H168.308L151.262 101.93V113.931H156.669V119.977H136.141Z" fill="white"/>
<path d="M175.455 119.977V113.931H181.687V89.1855H175.455V83.1388H190.668V94.2089H189.294C190.088 91.2321 191.035 88.9064 192.135 87.232C193.296 85.5575 194.579 84.3792 195.984 83.697C197.389 82.9528 198.794 82.5806 200.199 82.5806C201.482 82.5806 202.704 82.7357 203.865 83.0458C205.087 83.3559 206.278 83.79 207.439 84.3481L205.423 92.3484C204.385 91.6662 203.285 91.1701 202.124 90.86C201.024 90.4879 199.863 90.3018 198.641 90.3018C196.625 90.3018 194.792 91.1081 193.143 92.7205C191.554 94.333 190.76 96.7206 190.76 99.8835L190.668 113.931H196.717V119.977H175.455Z" fill="white"/>
<path d="M213.396 121.001C209.669 121.001 206.676 119.977 204.415 117.931C202.216 115.822 201.116 113.217 201.116 110.116C201.116 107.264 201.788 105 203.132 103.326C204.476 101.651 206.248 100.442 208.447 99.6975C210.647 98.9533 213.03 98.5812 215.596 98.5812C217.734 98.5812 219.811 98.7672 221.827 99.1393C223.844 99.5114 225.738 99.9766 227.509 100.535L224.943 100.907V96.7207C224.943 93.9919 224.241 91.9763 222.836 90.6739C221.43 89.3716 219.475 88.7204 216.97 88.7204C215.26 88.7204 213.305 88.9995 211.105 89.5576C208.967 90.1158 206.828 90.922 204.69 91.9763L202.307 86.3947C204.751 84.9683 207.378 83.914 210.189 83.2318C213.06 82.5496 215.718 82.2085 218.162 82.2085C221.522 82.2085 224.363 82.7667 226.685 83.883C229.067 84.9993 230.87 86.6118 232.092 88.7204C233.314 90.767 233.924 93.1856 233.924 95.9764V113.931H239.148V119.977H226.226L225.218 114.582H227.968C225.768 116.752 223.508 118.365 221.186 119.419C218.925 120.473 216.329 121.001 213.396 121.001ZM215.687 115.419C217.642 115.419 219.567 114.985 221.461 114.117C223.416 113.248 225.402 111.884 227.418 110.023L224.943 113.465V103.232L226.96 105C225.615 104.504 224.088 104.101 222.377 103.791C220.667 103.481 218.895 103.326 217.062 103.326C215.107 103.326 213.335 103.76 211.747 104.628C210.219 105.496 209.455 107.14 209.455 109.558C209.455 111.233 210.005 112.628 211.105 113.744C212.205 114.861 213.732 115.419 215.687 115.419Z" fill="white"/>
<path d="M234.108 119.977V113.931H240.248V72.1617H234.291V66.208H249.229V100.349L263.617 89.1855H257.569V83.1388H277.272V89.1855H272.415L258.393 100.442L271.498 113.931H288.636V119.977H266.275L249.229 101.93V113.931H254.636V119.977H234.108Z" fill="white"/>
<path d="M294.41 121.001C290.438 121.001 286.895 120.225 283.779 118.675C280.663 117.062 278.219 114.799 276.447 111.884C274.675 108.969 273.79 105.527 273.79 101.558C273.79 97.6509 274.645 94.2399 276.356 91.3251C278.066 88.4103 280.357 86.1777 283.229 84.6272C286.162 83.0148 289.461 82.2085 293.127 82.2085C296.853 82.2085 300.061 83.0148 302.749 84.6272C305.437 86.1777 307.484 88.3793 308.889 91.2321C310.356 94.0849 311.089 97.4028 311.089 101.186V103.326H280.296L280.388 98.3951H302.383C302.383 96.3485 301.985 94.581 301.191 93.0926C300.397 91.6042 299.297 90.4879 297.892 89.7437C296.487 88.9374 294.868 88.5343 293.035 88.5343C291.019 88.5343 289.216 89.0305 287.628 90.0227C286.1 91.015 284.879 92.4104 283.962 94.2089C283.107 96.0074 282.679 98.2091 282.679 100.814C282.679 103.543 283.168 105.899 284.145 107.884C285.184 109.868 286.62 111.388 288.453 112.442C290.286 113.496 292.393 114.024 294.776 114.024C297.342 114.024 299.725 113.527 301.924 112.535C304.124 111.543 306.048 110.302 307.698 108.814L310.539 114.396C308.767 116.256 306.507 117.838 303.757 119.14C301.069 120.38 297.953 121.001 294.41 121.001Z" fill="white"/>
<path d="M295.051 119.977V113.931H316.679V89.1855H310.447V83.1388H325.385L325.477 88.0692L322.636 88.6274C325.202 86.7668 327.768 85.2474 330.334 84.0691C332.9 82.8287 335.558 82.2085 338.307 82.2085C341.851 82.2085 344.753 83.3249 347.013 85.5575C349.274 87.7901 350.404 90.86 350.404 94.7671V113.931H356.453V119.977H336.108V113.931H341.331V96.3485C341.331 94.0539 340.782 92.2554 339.682 90.953C338.582 89.6506 337.055 88.9995 335.1 88.9995C333.206 88.9995 331.251 89.4336 329.234 90.3018C327.279 91.1701 325.202 92.3794 323.003 93.9299L325.752 90.0227V113.931H331.342V119.977H295.051Z" fill="white"/>
<path d="M167.665 62.683C162.965 62.683 158.63 62.0154 154.658 60.6803C150.687 59.2785 147.212 57.3092 144.233 54.7725C141.321 52.169 139.038 49.0316 137.383 45.36C135.794 41.6885 135 37.5163 135 32.8435C135 26.702 136.324 21.395 138.971 16.9224C141.685 12.3831 145.326 8.9118 149.893 6.50862C154.526 4.03868 159.821 2.80372 165.778 2.80372C169.948 2.80372 173.588 3.43789 176.699 4.70623C179.876 5.97458 182.458 7.71021 184.444 9.91312C186.495 12.116 187.885 14.7195 188.613 17.7235L184.642 14.8196V3.80504H195.762V24.4323H186.231C184.51 21.1613 182.325 18.6914 179.678 17.0225C177.097 15.2869 173.853 14.4191 169.948 14.4191C166.308 14.4191 163.164 15.1868 160.516 16.7221C157.935 18.2575 155.916 20.3937 154.46 23.1306C153.07 25.8008 152.375 28.9717 152.375 32.6432C152.375 35.4469 152.772 37.9836 153.566 40.2533C154.36 42.4562 155.453 44.3921 156.843 46.061C158.299 47.6631 160.02 48.898 162.005 49.7659C163.991 50.6337 166.208 51.0676 168.657 51.0676C171.371 51.0676 173.754 50.5669 175.806 49.5656C177.858 48.5643 179.579 47.0957 180.969 45.1598C182.359 43.1571 183.385 40.7206 184.046 37.8501L197.251 42.4562C196.325 46.5282 194.537 50.0996 191.89 53.1704C189.308 56.1743 185.966 58.5108 181.862 60.1796C177.825 61.8485 173.092 62.683 167.665 62.683Z" fill="#F2BC2B"/>
<path d="M205.69 62.7831C201.256 62.7831 197.383 61.9153 194.074 60.1796C190.765 58.3773 188.183 55.8739 186.33 52.6697C184.477 49.4655 183.55 45.7606 183.55 41.555C183.55 37.3494 184.477 33.6779 186.33 30.5404C188.183 27.4029 190.765 24.9664 194.074 23.2307C197.383 21.4284 201.256 20.5272 205.69 20.5272C210.125 20.5272 213.997 21.4284 217.307 23.2307C220.616 24.9664 223.197 27.4029 225.051 30.5404C226.904 33.6779 227.831 37.3494 227.831 41.555C227.831 45.7606 226.904 49.4655 225.051 52.6697C223.197 55.8739 220.616 58.3773 217.307 60.1796C213.997 61.9153 210.125 62.7831 205.69 62.7831ZM205.69 51.5683C207.411 51.5683 208.9 51.1677 210.158 50.3667C211.482 49.5656 212.475 48.4308 213.137 46.9622C213.798 45.4268 214.129 43.6244 214.129 41.555C214.129 39.4856 213.798 37.7166 213.137 36.248C212.475 34.7794 211.482 33.6445 210.158 32.8435C208.9 32.0424 207.411 31.6419 205.69 31.6419C203.903 31.6419 202.381 32.0424 201.123 32.8435C199.932 33.6445 198.972 34.7794 198.244 36.248C197.582 37.7166 197.251 39.4856 197.251 41.555C197.251 43.6244 197.582 45.4268 198.244 46.9622C198.972 48.4308 199.932 49.5656 201.123 50.3667C202.381 51.1677 203.903 51.5683 205.69 51.5683Z" fill="#F2BC2B"/>
<path d="M225.349 61.6816V52.87H230.511V30.3402H225.249V21.6286H230.511V17.9237C230.511 12.8503 231.967 8.84504 234.88 5.90782C237.792 2.9706 241.929 1.50199 247.29 1.50199C252.453 1.50199 256.358 2.6702 259.006 5.00663C261.72 7.2763 263.308 10.3804 263.772 14.319L253.545 16.0212C253.479 14.2188 253.115 12.817 252.453 11.8156C251.857 10.7476 250.865 10.2135 249.475 10.2135C248.085 10.2135 247.026 10.7809 246.297 11.9158C245.569 12.9839 245.205 14.7529 245.205 17.2228V21.6286H258.807V16.5219C258.807 13.3844 259.469 10.5807 260.793 8.11074C262.117 5.6408 264.102 3.67153 266.75 2.20292C269.464 0.734307 272.906 0 277.076 0C280.517 0 283.364 0.500665 285.614 1.50199C287.931 2.43656 289.751 3.83842 291.075 5.70756C292.398 7.50994 293.226 9.77961 293.557 12.5166L282.338 14.5192C282.271 12.7168 281.907 11.315 281.246 10.3137C280.584 9.31233 279.525 8.81167 278.068 8.81167C276.612 8.81167 275.487 9.34571 274.693 10.4138C273.965 11.4819 273.601 13.4178 273.601 16.2215V21.6286H280.451V30.3402H273.601V52.87H280.352V61.6816H253.347V52.87H258.807V30.3402H245.205V52.87H254.042V61.6816H225.349Z" fill="#F2BC2B"/>
<path d="M300.407 62.7831C295.84 62.7831 291.836 61.9487 288.394 60.2798C285.018 58.6109 282.371 56.2077 280.451 53.0702C278.532 49.866 277.572 46.061 277.572 41.6551C277.572 37.4496 278.499 33.778 280.352 30.6406C282.205 27.5031 284.754 25.0331 287.997 23.2307C291.306 21.4284 295.079 20.5272 299.315 20.5272C303.485 20.5272 307.026 21.4284 309.939 23.2307C312.917 24.9664 315.168 27.4029 316.69 30.5404C318.279 33.6112 319.073 37.1825 319.073 41.2546V43.9582H285.713L285.813 37.6498H305.471C305.471 36.0477 305.206 34.7126 304.677 33.6445C304.213 32.5097 303.485 31.6419 302.492 31.0411C301.5 30.4403 300.275 30.1399 298.819 30.1399C297.164 30.1399 295.774 30.5738 294.649 31.4416C293.524 32.2427 292.663 33.4443 292.068 35.0464C291.538 36.5818 291.273 38.4175 291.273 40.5537C291.273 43.0236 291.737 45.093 292.663 46.7619C293.656 48.364 294.98 49.599 296.635 50.4668C298.289 51.2679 300.209 51.6684 302.393 51.6684C304.776 51.6684 307.026 51.2679 309.144 50.4668C311.262 49.6657 313.116 48.631 314.704 47.3627L318.775 56.1743C316.525 58.177 313.844 59.7791 310.733 60.9807C307.622 62.1823 304.18 62.7831 300.407 62.7831Z" fill="#F2BC2B"/>
<path d="M336.646 62.7831C332.079 62.7831 328.075 61.9487 324.633 60.2798C321.257 58.6109 318.61 56.2077 316.69 53.0702C314.771 49.866 313.811 46.061 313.811 41.6551C313.811 37.4496 314.737 33.778 316.591 30.6406C318.444 27.5031 320.992 25.0331 324.236 23.2307C327.545 21.4284 331.318 20.5272 335.554 20.5272C339.724 20.5272 343.265 21.4284 346.177 23.2307C349.156 24.9664 351.406 27.4029 352.929 30.5404C354.517 33.6112 355.312 37.1825 355.312 41.2546V43.9582H321.952L322.051 37.6498H341.71C341.71 36.0477 341.445 34.7126 340.915 33.6445C340.452 32.5097 339.724 31.6419 338.731 31.0411C337.738 30.4403 336.514 30.1399 335.058 30.1399C333.403 30.1399 332.013 30.5738 330.888 31.4416C329.762 32.2427 328.902 33.4443 328.306 35.0464C327.777 36.5818 327.512 38.4175 327.512 40.5537C327.512 43.0236 327.975 45.093 328.902 46.7619C329.895 48.364 331.219 49.599 332.873 50.4668C334.528 51.2679 336.448 51.6684 338.632 51.6684C341.015 51.6684 343.265 51.2679 345.383 50.4668C347.501 49.6657 349.355 48.631 350.943 47.3627L355.014 56.1743C352.763 58.177 350.083 59.7791 346.972 60.9807C343.861 62.1823 340.419 62.7831 336.646 62.7831Z" fill="#F2BC2B"/>
<path d="M59 59H80V70C80 75.5228 75.5228 80 70 80H59V59Z" fill="white"/>
<path d="M59 40H80V61H59V40Z" fill="white"/>
<path d="M40 59H61V80H40V59Z" fill="white"/>
<path d="M40 50C40 44.4772 44.4772 40 50 40H61V61H40V50Z" fill="white"/>
</g>
<g class="__square">
<rect opacity="0.4" x="39" width="20" height="21" fill="#F2BC2B"/>
<rect opacity="0.6" x="59" width="20" height="21" fill="#F2BC2B"/>
<rect opacity="0.8" x="79" width="20" height="21" fill="#F2BC2B"/>
<path d="M99 0H100C111.046 0 120 8.95431 120 20V21H99V0Z" fill="#F2BC2B"/>
<rect opacity="0.4" x="99" y="39" width="21" height="20" fill="#F2BC2B"/>
<rect opacity="0.6" x="99" y="59" width="21" height="20" fill="#F2BC2B"/>
<rect opacity="0.8" x="99" y="79" width="21" height="20" fill="#F2BC2B"/>
<path d="M99 99H120V100C120 111.046 111.046 120 100 120H99V99Z" fill="#F2BC2B"/>
<rect opacity="0.4" x="61" y="99" width="20" height="21" fill="#F2BC2B"/>
<rect opacity="0.6" x="41" y="99" width="20" height="21" fill="#F2BC2B"/>
<rect opacity="0.8" x="21" y="99" width="20" height="21" fill="#F2BC2B"/>
<path d="M0 99H21V120H20C8.95431 120 0 111.046 0 100V99Z" fill="#F2BC2B"/>
<rect opacity="0.4" y="61" width="21" height="20" fill="#F2BC2B"/>
<rect opacity="0.6" y="41" width="21" height="20" fill="#F2BC2B"/>
<rect opacity="0.8" y="21" width="21" height="20" fill="#F2BC2B"/>
<path d="M0 20C0 8.95431 8.95431 0 20 0H21V21H0V20Z" fill="#F2BC2B"/>
</g>
</svg>
