<svg width="232" height="99" viewBox="0 0 232 99" fill="none" xmlns="http://www.w3.org/2000/svg">
<path d="M103.661 97.4748V93.9733H107.216V69.7864H103.767V66.3389H112.417V86.1085L120.749 79.6443H117.246V76.1429H128.656V79.6443H125.843L117.724 86.1624L125.313 93.9733H128.815V97.4748H122.288L112.417 87.0243V93.9733H115.548V97.4748H103.661Z" fill="white"/>
<path d="M126.426 97.4748V93.9733H130.035V79.6443H126.426V76.1429H135.236V82.5532H134.44C134.9 80.8294 135.448 79.4827 136.085 78.5131C136.757 77.5435 137.5 76.8611 138.314 76.4661C139.127 76.0352 139.941 75.8197 140.755 75.8197C141.498 75.8197 142.205 75.9095 142.878 76.089C143.585 76.2686 144.275 76.52 144.947 76.8432L143.78 81.4759C143.178 81.0808 142.541 80.7935 141.869 80.614C141.232 80.3985 140.56 80.2908 139.853 80.2908C138.685 80.2908 137.624 80.7576 136.669 81.6913C135.749 82.6251 135.289 84.0077 135.289 85.8392L135.236 93.9733H138.738V97.4748H126.426Z" fill="white"/>
<path d="M148.397 98.0673C146.239 98.0673 144.505 97.4748 143.196 96.2897C141.922 95.0686 141.285 93.5603 141.285 91.7647C141.285 90.1128 141.675 88.802 142.453 87.8323C143.231 86.8627 144.257 86.1624 145.531 85.7315C146.805 85.3005 148.184 85.085 149.67 85.085C150.908 85.085 152.111 85.1928 153.279 85.4083C154.446 85.6237 155.543 85.8931 156.569 86.2163L155.083 86.4318V84.0077C155.083 82.4275 154.676 81.2604 153.863 80.5062C153.049 79.7521 151.917 79.375 150.466 79.375C149.476 79.375 148.344 79.5366 147.07 79.8598C145.832 80.183 144.593 80.6499 143.355 81.2604L141.975 78.0283C143.391 77.2023 144.912 76.5918 146.539 76.1968C148.202 75.8017 149.741 75.6042 151.156 75.6042C153.102 75.6042 154.747 75.9274 156.091 76.5738C157.471 77.2203 158.515 78.154 159.222 79.375C159.93 80.5601 160.284 81.9607 160.284 83.5767V93.9733H163.309V97.4748H155.826L155.242 94.3504H156.834C155.561 95.6073 154.252 96.541 152.907 97.1515C151.598 97.7621 150.095 98.0673 148.397 98.0673ZM149.723 94.8352C150.855 94.8352 151.97 94.5838 153.067 94.0811C154.199 93.5783 155.349 92.7882 156.516 91.7108L155.083 93.704V87.7785L156.251 88.802C155.472 88.5147 154.588 88.2812 153.597 88.1017C152.607 87.9221 151.581 87.8323 150.519 87.8323C149.387 87.8323 148.361 88.0837 147.441 88.5865C146.557 89.0893 146.115 90.0409 146.115 91.4415C146.115 92.4111 146.433 93.2192 147.07 93.8656C147.707 94.512 148.591 94.8352 149.723 94.8352Z" fill="white"/>
<path d="M160.39 97.4748V93.9733H163.946V69.7864H160.496V66.3389H169.146V86.1085L177.478 79.6443H173.975V76.1429H185.385V79.6443H182.572L174.453 86.1624L182.042 93.9733H191.965V97.4748H179.017L169.146 87.0243V93.9733H172.277V97.4748H160.39Z" fill="white"/>
<path d="M195.309 98.0673C193.009 98.0673 190.957 97.6184 189.153 96.7206C187.348 95.7869 185.933 94.4761 184.907 92.7882C183.881 91.1003 183.368 89.1072 183.368 86.8088C183.368 84.5464 183.864 82.5712 184.854 80.8833C185.845 79.1954 187.172 77.9026 188.834 77.0048C190.532 76.0711 192.443 75.6042 194.566 75.6042C196.724 75.6042 198.581 76.0711 200.138 77.0048C201.694 77.9026 202.88 79.1775 203.693 80.8294C204.542 82.4814 204.967 84.4027 204.967 86.5934V87.8323H187.136L187.189 84.9773H199.926C199.926 83.7922 199.696 82.7687 199.236 81.9068C198.776 81.0449 198.139 80.3985 197.325 79.9676C196.511 79.5007 195.574 79.2673 194.513 79.2673C193.345 79.2673 192.301 79.5546 191.382 80.1292C190.497 80.7038 189.79 81.5118 189.259 82.5532C188.764 83.5947 188.516 84.8696 188.516 86.3779C188.516 87.958 188.799 89.3227 189.365 90.4719C189.966 91.6211 190.798 92.5009 191.859 93.1114C192.921 93.7219 194.141 94.0272 195.521 94.0272C197.007 94.0272 198.387 93.7399 199.66 93.1653C200.934 92.5907 202.048 91.8725 203.003 91.0106L204.649 94.2427C203.623 95.32 202.314 96.2358 200.722 96.9899C199.165 97.7082 197.361 98.0673 195.309 98.0673Z" fill="white"/>
<path d="M195.68 97.4748V93.9733H208.204V79.6443H204.596V76.1429H213.246L213.299 78.9979L211.654 79.3211C213.139 78.2438 214.625 77.3639 216.111 76.6816C217.597 75.9633 219.136 75.6042 220.728 75.6042C222.78 75.6042 224.461 76.2506 225.77 77.5435C227.079 78.8363 227.733 80.614 227.733 82.8764V93.9733H231.236V97.4748H219.455V93.9733H222.479V83.7922C222.479 82.4635 222.161 81.422 221.524 80.6678C220.887 79.9137 220.003 79.5366 218.871 79.5366C217.774 79.5366 216.642 79.788 215.474 80.2908C214.342 80.7935 213.139 81.4938 211.866 82.3916L213.458 80.1292V93.9733H216.695V97.4748H195.68Z" fill="white"/>
<path d="M121.915 64.2985C119.194 64.2985 116.683 63.9119 114.384 63.1388C112.084 62.3271 110.072 61.1867 108.347 59.7178C106.661 58.2103 105.338 56.3934 104.38 54.2674C103.46 52.1413 103 49.7254 103 47.0195C103 43.4632 103.767 40.3901 105.3 37.8001C106.871 35.1716 108.979 33.1615 111.624 31.7699C114.307 30.3396 117.373 29.6245 120.823 29.6245C123.237 29.6245 125.345 29.9917 127.147 30.7262C128.987 31.4606 130.481 32.4657 131.631 33.7413C132.819 35.017 133.624 36.5245 134.046 38.264L131.746 36.5825V30.2043H138.185V42.1489H132.666C131.67 40.2548 130.405 38.8245 128.872 37.8581C127.377 36.8531 125.499 36.3506 123.237 36.3506C121.129 36.3506 119.309 36.7951 117.776 37.6842C116.281 38.5733 115.112 39.8102 114.269 41.3951C113.464 42.9413 113.061 44.7775 113.061 46.9035C113.061 48.527 113.291 49.996 113.751 51.3102C114.211 52.5859 114.844 53.7069 115.648 54.6733C116.492 55.601 117.488 56.3161 118.638 56.8187C119.788 57.3212 121.072 57.5724 122.49 57.5724C124.061 57.5724 125.441 57.2825 126.629 56.7027C127.818 56.1229 128.814 55.2724 129.619 54.1514C130.424 52.9918 131.018 51.5808 131.401 49.9186L139.048 52.5859C138.511 54.9439 137.476 57.0119 135.943 58.7901C134.448 60.5296 132.513 61.8825 130.136 62.8489C127.798 63.8153 125.058 64.2985 121.915 64.2985Z" fill="#FEBD0F"/>
<path d="M143.935 64.3565C141.367 64.3565 139.124 63.854 137.208 62.8489C135.292 61.8052 133.797 60.3556 132.724 58.5002C131.65 56.6447 131.114 54.4993 131.114 52.064C131.114 49.6287 131.65 47.5027 132.724 45.6859C133.797 43.8691 135.292 42.4581 137.208 41.4531C139.124 40.4094 141.367 39.8875 143.935 39.8875C146.502 39.8875 148.745 40.4094 150.661 41.4531C152.577 42.4581 154.072 43.8691 155.145 45.6859C156.219 47.5027 156.755 49.6287 156.755 52.064C156.755 54.4993 156.219 56.6447 155.145 58.5002C154.072 60.3556 152.577 61.8052 150.661 62.8489C148.745 63.854 146.502 64.3565 143.935 64.3565ZM143.935 57.8624C144.931 57.8624 145.793 57.6304 146.522 57.1666C147.288 56.7027 147.863 56.0455 148.246 55.1951C148.63 54.306 148.821 53.2623 148.821 52.064C148.821 50.8657 148.63 49.8413 148.246 48.9909C147.863 48.1405 147.288 47.4833 146.522 47.0195C145.793 46.5556 144.931 46.3237 143.935 46.3237C142.9 46.3237 142.018 46.5556 141.29 47.0195C140.6 47.4833 140.044 48.1405 139.623 48.9909C139.239 49.8413 139.048 50.8657 139.048 52.064C139.048 53.2623 139.239 54.306 139.623 55.1951C140.044 56.0455 140.6 56.7027 141.29 57.1666C142.018 57.6304 142.9 57.8624 143.935 57.8624Z" fill="#FEBD0F"/>
<path d="M155.318 63.7187V58.6161H158.308V45.5699H155.26V40.5254H158.308V38.38C158.308 35.4422 159.151 33.1228 160.837 31.422C162.524 29.7211 164.919 28.8707 168.024 28.8707C171.013 28.8707 173.275 29.5472 174.808 30.9001C176.379 32.2144 177.299 34.0119 177.567 36.2926L171.646 37.2783C171.607 36.2346 171.397 35.4228 171.013 34.843C170.668 34.2245 170.093 33.9153 169.288 33.9153C168.484 33.9153 167.87 34.2438 167.449 34.901C167.027 35.5195 166.816 36.5438 166.816 37.9741V40.5254H174.693V37.5682C174.693 35.7514 175.076 34.1279 175.843 32.6976C176.609 31.2674 177.759 30.127 179.292 29.2766C180.864 28.4262 182.857 28.001 185.271 28.001C187.264 28.001 188.912 28.2909 190.216 28.8707C191.557 29.4119 192.611 30.2237 193.378 31.306C194.144 32.3497 194.623 33.664 194.815 35.2489L188.318 36.4086C188.28 35.3649 188.069 34.5531 187.686 33.9733C187.303 33.3934 186.689 33.1035 185.846 33.1035C185.003 33.1035 184.351 33.4127 183.891 34.0312C183.47 34.6497 183.259 35.7707 183.259 37.3943V40.5254H187.226V45.5699H183.259V58.6161H187.169V63.7187H171.531V58.6161H174.693V45.5699H166.816V58.6161H171.933V63.7187H155.318Z" fill="#FEBD0F"/>
<path d="M198.782 64.3565C196.137 64.3565 193.818 63.8733 191.825 62.9069C189.871 61.9405 188.338 60.5489 187.226 58.7321C186.114 56.8766 185.559 54.6733 185.559 52.122C185.559 49.6867 186.095 47.5607 187.169 45.7439C188.242 43.927 189.717 42.4968 191.595 41.4531C193.512 40.4094 195.696 39.8875 198.149 39.8875C200.564 39.8875 202.615 40.4094 204.301 41.4531C206.026 42.4581 207.329 43.8691 208.211 45.6859C209.13 47.464 209.59 49.5321 209.59 51.8901V53.4556H190.273L190.331 49.8027H201.714C201.714 48.8749 201.561 48.1018 201.254 47.4834C200.986 46.8262 200.564 46.3237 199.989 45.9758C199.414 45.6279 198.705 45.4539 197.862 45.4539C196.904 45.4539 196.099 45.7052 195.447 46.2077C194.796 46.6716 194.298 47.3674 193.953 48.2951C193.646 49.1842 193.493 50.2472 193.493 51.4842C193.493 52.9144 193.761 54.1128 194.298 55.0792C194.872 56.0069 195.639 56.722 196.597 57.2245C197.555 57.6884 198.667 57.9203 199.932 57.9203C201.312 57.9203 202.615 57.6884 203.841 57.2245C205.068 56.7607 206.141 56.1615 207.061 55.4271L209.418 60.5296C208.115 61.6892 206.562 62.617 204.761 63.3128C202.96 64.0086 200.967 64.3565 198.782 64.3565Z" fill="#FEBD0F"/>
<path d="M219.766 64.3565C217.122 64.3565 214.803 63.8733 212.81 62.9069C210.855 61.9405 209.322 60.5489 208.211 58.7321C207.099 56.8766 206.543 54.6733 206.543 52.122C206.543 49.6867 207.08 47.5607 208.153 45.7439C209.226 43.927 210.702 42.4968 212.58 41.4531C214.496 40.4094 216.681 39.8875 219.134 39.8875C221.549 39.8875 223.599 40.4094 225.286 41.4531C227.01 42.4581 228.314 43.8691 229.195 45.6859C230.115 47.464 230.575 49.5321 230.575 51.8901V53.4556H211.258L211.315 49.8027H222.699C222.699 48.8749 222.545 48.1018 222.239 47.4834C221.97 46.8262 221.549 46.3237 220.974 45.9758C220.399 45.6279 219.69 45.4539 218.847 45.4539C217.888 45.4539 217.084 45.7052 216.432 46.2077C215.78 46.6716 215.282 47.3674 214.937 48.2951C214.631 49.1842 214.477 50.2472 214.477 51.4842C214.477 52.9144 214.746 54.1128 215.282 55.0792C215.857 56.0069 216.624 56.722 217.582 57.2245C218.54 57.6884 219.652 57.9203 220.916 57.9203C222.296 57.9203 223.599 57.6884 224.826 57.2245C226.052 56.7607 227.125 56.1615 228.045 55.4271L230.403 60.5296C229.099 61.6892 227.547 62.617 225.746 63.3128C223.944 64.0086 221.951 64.3565 219.766 64.3565Z" fill="#FEBD0F"/>
<mask id="mask0_1068_7619" style="mask-type:alpha" maskUnits="userSpaceOnUse" x="0" y="0" width="115" height="98">
<rect width="115" height="98" fill="#C4C4C4"/>
</mask>
<g mask="url(#mask0_1068_7619)">
<path d="M57.5249 41.9616C58.8334 41.1573 60.3187 40.9326 61.4886 40.9616C63.3922 41.0089 65.3334 41.681 67.015 42.7548C68.6966 43.8287 70.1282 45.3104 70.9826 47.0243C71.7072 48.4779 72.2539 50.6848 71.3022 52.8319C74.1755 53.852 75.722 56.393 76.4013 58.4691C77.1803 60.8501 77.2196 63.5827 76.6344 66.1924C76.0492 68.8021 74.8477 71.2525 73.1283 73.0652C71.8743 74.3873 69.9335 75.7404 67.5592 75.9589C67.7498 77.1702 67.7208 78.3695 67.5692 79.4337C67.1592 82.3129 65.7883 85.2282 63.7826 87.7116C61.777 90.195 59.2222 92.1404 56.5067 93.131C56.1369 93.2659 55.746 93.3881 55.3388 93.4916L61.4886 97.5C64.2761 97.0735 75.6364 96.0796 82.9229 81.7836C92.0311 63.9135 89.5012 55.8111 84.4248 48.3957C80.6099 42.8231 67.9636 38.5361 60.3335 35.9496C57.8103 35.0943 55.8356 34.4249 54.9102 33.9564C51.9312 32.4484 47.0561 25.8289 53.3702 14C41.0528 25.3368 47.4 33.9454 50.3633 37.4537C51.2713 38.5286 53.3748 39.6816 55.9119 41.0724C56.4335 41.3583 56.9733 41.6542 57.5249 41.9616Z" fill="white"/>
<path d="M49.2125 73.4801C47.1592 72.1944 46.0711 69.2412 45.4785 63.0703C44.6081 54.0066 42.901 51.2575 42.1563 51.0159C43.0562 51.6619 44.3684 54.8514 42.4174 62.4409C42.2 63.2869 41.9949 64.0681 41.8045 64.7937C40.3782 70.2278 39.7711 72.5405 40.9021 75.5621C36.8059 72.8788 32.337 70.693 29.5606 71.1513C23.1824 72.2041 22.2651 73.584 18.0307 79.9536C17.6162 80.5771 17.1696 81.249 16.6833 81.9724C12.3197 88.4645 9.07626 89.5818 8 89.3289C8.67237 89.7319 11.8489 89.2042 19.176 83.8692C28.3349 77.2006 30.5187 78.9652 34.7958 85.016C36.7287 87.7505 40.8486 88.0577 44.3528 87.0769C44.0625 85.6934 44.0758 84.3032 44.2488 83.0889C44.6588 80.2096 46.0297 77.2943 48.0353 74.8109C48.4095 74.3477 48.8027 73.9032 49.2125 73.4801Z" fill="white"/>
<path d="M67.3363 51.4489C66.4546 52.867 63.8612 52.8017 61.5437 51.3032C59.2261 49.8047 58.0621 47.4403 58.9438 46.0223C59.8255 44.6042 62.4189 44.6695 64.7364 46.168C67.0539 47.6665 68.2179 50.0309 67.3363 51.4489Z" fill="white"/>
<path d="M66.1492 71.0761C63.9132 70.5611 62.7829 67.0629 63.6245 63.2625C64.4661 59.4622 66.961 56.7989 69.1969 57.3138C71.4328 57.8288 72.5631 61.327 71.7215 65.1274C70.8799 68.9277 68.3851 71.5911 66.1492 71.0761Z" fill="white"/>
<path d="M51.7998 77.873C48.7383 81.7113 48.0871 86.3415 50.3454 88.2147C52.6036 90.088 56.9161 88.495 59.9776 84.6568C63.0391 80.8185 63.6902 76.1883 61.432 74.3151C59.1737 72.4418 54.8612 74.0348 51.7998 77.873Z" fill="white"/>
<path fill-rule="evenodd" clip-rule="evenodd" d="M27.0464 85.7061H86.2178C90.361 85.7061 93.7198 89.0648 93.7198 93.2081V144.878C93.7198 153.165 87.0022 159.882 78.7157 159.882H34.5484C26.2619 159.882 19.5443 153.165 19.5443 144.878V141.338H16.0038C7.71731 141.338 0.999756 134.62 0.999756 126.333V117.399C0.999756 109.113 7.71732 102.395 16.0039 102.395H19.5443V93.2081C19.5443 89.0648 22.9031 85.7061 27.0464 85.7061ZM85.5083 97.4371C87.7546 101.898 87.0444 106.789 83.9218 108.361C80.7993 109.934 76.447 107.592 74.2007 103.131C71.9543 98.6707 72.6646 93.7799 75.7871 92.2074C78.9096 90.635 83.262 92.9764 85.5083 97.4371ZM11.6173 119.369C11.6173 115.226 14.9761 111.867 19.1193 111.867H22.1202C26.2634 111.867 29.6222 115.226 29.6222 119.369V122.37C29.6222 126.513 26.2634 129.872 22.1202 129.872H19.1193C14.9761 129.872 11.6173 126.513 11.6173 122.37V119.369ZM87.3975 120.004C87.6579 123.669 85.7893 126.788 83.2238 126.97C80.6582 127.153 78.3673 124.329 78.1069 120.664C77.8465 116.999 79.7151 113.88 82.2806 113.698C84.8462 113.516 87.1371 116.339 87.3975 120.004Z" fill="#FEBD0F"/>
<path d="M29.8525 89.3613H68.5305C68.9176 90.2518 69.1324 91.2353 69.1324 92.2693V142.34C69.1324 150.37 62.6558 156.88 54.6667 156.88H26.7547C24.1968 154.257 22.6196 150.665 22.6196 146.702V132.873H24.12C28.2633 132.873 31.6221 129.514 31.6221 125.371V122.37C31.6221 118.227 28.2633 114.868 24.12 114.868H22.6196V96.6312C22.6196 92.6161 25.8579 89.3613 29.8525 89.3613Z" fill="black" fill-opacity="0.05"/>
</g>
</svg>
