<svg width="64" height="64" viewBox="0 0 64 64" fill="none" xmlns="http://www.w3.org/2000/svg">
<g clip-path="url(#clip0_511:4911)">
<rect width="64" height="64" fill="white"/>
<rect x="-0.5" y="-0.5" width="65" height="65" fill="white" stroke="black"/>
<path fill-rule="evenodd" clip-rule="evenodd" d="M0 9V56.0272H9.35226V51.2658H4.68471V13.7405H9.35226V9H0Z" fill="black"/>
<path fill-rule="evenodd" clip-rule="evenodd" d="M54.647 9V13.7405H59.3145V51.2658H54.647V56.0272H63.9992V9H54.647Z" fill="black"/>
<path fill-rule="evenodd" clip-rule="evenodd" d="M33.8593 32.315C33.8101 40.8928 29.5327 46.5249 21.7138 46.5249L21.7115 46.5016C18.5853 46.4784 16.0976 46.0262 13.9624 44.3499V46.5005H9.35205V36.7358H13.9624C15.2703 40.2418 17.972 41.4228 21.2034 41.4228C23.4405 41.4228 25.2817 40.5894 26.7258 38.9224C28.1699 37.2543 28.8931 35.0735 28.8931 32.3754C28.8931 29.7994 28.2099 27.5873 26.8436 25.739C25.4774 23.8918 23.4577 22.9688 20.7926 22.9688C17.5612 22.9688 15.2909 24.7241 13.9841 28.2301H9.37379V18.4655H13.9841V20.6172C16.1812 18.8898 18.8222 18.4085 22.0788 18.4085C27.1583 18.4085 33.8593 22.0284 33.8593 32.315V32.315Z" fill="black"/>
<path fill-rule="evenodd" clip-rule="evenodd" d="M54.6564 41.7361V46.4906L49.942 46.5022L38.0643 34.2848L35.7185 34.2964L35.7642 41.7594H40.4101V46.5022H31.1299V18.394L35.81 18.4172L35.7642 29.5419L38.0643 29.5536L44.3235 23.1484H40.4684V18.4056H54.645V23.1484H51.0531L42.6529 31.8901L52.4251 41.7361H54.6564Z" fill="black"/>
<mask id="mask0_511:4911" style="mask-type:alpha" maskUnits="userSpaceOnUse" x="0" y="9" width="64" height="48">
<path fill-rule="evenodd" clip-rule="evenodd" d="M0 56.0272H64V9H0V56.0272Z" fill="white"/>
</mask>
<g mask="url(#mask0_511:4911)">
<path fill-rule="evenodd" clip-rule="evenodd" d="M14.0186 56.0273H49.9812V51.2867H14.0186V56.0273Z" fill="black"/>
<path fill-rule="evenodd" clip-rule="evenodd" d="M14.0186 13.7405H49.9812V9H14.0186V13.7405Z" fill="black"/>
</g>
</g>
<defs>
<clipPath id="clip0_511:4911">
<rect width="64" height="64" fill="white"/>
</clipPath>
</defs>
</svg>
