<svg width="212" height="187" viewBox="0 0 212 187" fill="none" xmlns="http://www.w3.org/2000/svg">
<path d="M100.6 3.6002V152H72.5999L70.9999 139.6C63.5332 150.134 53.4666 155.4 40.7999 155.4C27.5999 155.4 17.5332 150.334 10.5999 140.2C3.7999 130.067 0.399902 116.2 0.399902 98.6002C0.399902 87.8002 2.1999 78.1335 5.7999 69.6002C9.3999 61.0669 14.4666 54.4002 20.9999 49.6002C27.6666 44.8002 35.2666 42.4002 43.7999 42.4002C53.9332 42.4002 62.3332 45.7335 68.9999 52.4002V0.200195L100.6 3.6002ZM50.5999 132.2C57.9332 132.2 64.0666 128.2 68.9999 120.2V74.4002C66.4666 71.3335 63.8666 69.0669 61.1999 67.6002C58.6666 66.1335 55.7332 65.4002 52.3999 65.4002C46.5332 65.4002 41.8666 68.1335 38.3999 73.6002C34.9332 79.0669 33.1999 87.4669 33.1999 98.8002C33.1999 111.2 34.6666 119.867 37.5999 124.8C40.6666 129.734 44.9999 132.2 50.5999 132.2Z" fill="url(#paint0_linear_31824_3752)"/>
<path d="M111.922 186.2V161.4H211.922V186.2H111.922Z" fill="url(#paint1_linear_31824_3752)"/>
<defs>
<linearGradient id="paint0_linear_31824_3752" x1="0.399903" y1="93.2002" x2="211.922" y2="93.2002" gradientUnits="userSpaceOnUse">
<stop stop-color="#0051A2"/>
<stop offset="1" stop-color="#498FFF"/>
</linearGradient>
<linearGradient id="paint1_linear_31824_3752" x1="0.399903" y1="93.2002" x2="211.922" y2="93.2002" gradientUnits="userSpaceOnUse">
<stop stop-color="#0051A2"/>
<stop offset="1" stop-color="#498FFF"/>
</linearGradient>
</defs>
</svg>
