<svg width="919" height="552" viewBox="0 0 919 552" fill="none" xmlns="http://www.w3.org/2000/svg">
<path d="M449.5 0.499226C288 5.63223 240 120.999 229 183.499C243.333 160.332 288.5 109.5 355 109.5C432.5 109.5 491.5 196 527.5 223C571.237 255.803 659.123 299.115 774.5 264C866.5 236 909.167 138.332 918.5 91.9992C874 152.499 806.5 188.838 723 145.999C665.5 116.499 622.5 -4.99977 449.5 0.499226Z" fill="#07B6D5"/>
<path d="M221 274.999C59.5 280.132 11.5 395.499 0.5 457.999C14.8333 434.832 60 384 126.5 384C204 384 263 470.5 299 497.5C342.737 530.303 430.623 573.615 546 538.5C638 510.5 680.667 412.832 690 366.499C645.5 426.999 578 463.338 494.5 420.499C437 390.999 394 269.5 221 274.999Z" fill="#07B6D5"/>
</svg>
