<svg xmlns="http://www.w3.org/2000/svg" width="16" height="16" viewBox="0 0 23 22" class="real-device-item__browser-icon" fill="" pathfill="" title=""><defs><linearGradient id="chrome-browser__b9d4b7fd-068d-434d-b9b9-f67a212c9063" x1="49.998%" x2="49.998%" y1=".706%" y2="96.99%"><stop offset="0%" stop-color="#86BBE5"></stop><stop offset="100%" stop-color="#1072BA"></stop></linearGradient></defs><g fill="none"><path fill="#EF3F36" d="M10.977.026s6.469-.29 9.898 6.212H10.426s-1.971-.063-3.656 2.33c-.484 1.004-1.004 2.038-.42 4.077C5.509 11.22 1.886 4.91 1.886 4.91S4.44.283 10.976.026z"></path><path fill="#FCD900" d="M20.588 16.45s-2.996 5.731-10.365 5.448l5.245-9.02s1.047-1.67-.188-4.317c-.629-.92-1.27-1.881-3.333-2.394 1.66-.015 8.96 0 8.96 0s2.735 4.513-.319 10.283z"></path><path fill="#61BC5B" d="M1.466 16.504s-3.496-5.431.433-11.617l5.236 9.002s.934 1.733 3.853 1.992c1.113-.081 2.271-.15 3.75-1.664-.815 1.432-4.474 7.69-4.474 7.69s-5.3.097-8.798-5.403z"></path><path fill="#5AB055" d="M10.223 22.024l1.456-6.144s1.6-.127 2.944-1.614c-.834 1.481-4.4 7.758-4.4 7.758z"></path><path fill="#FFF" d="M6.054 11.024c0-2.686 2.204-4.864 4.921-4.864 2.718 0 4.921 2.178 4.921 4.864 0 2.685-2.203 4.863-4.92 4.863-2.718-.003-4.922-2.178-4.922-4.863z"></path><path fill="url(#chrome-browser__b9d4b7fd-068d-434d-b9b9-f67a212c9063)" d="M6.865 11.024a4.053 4.053 0 118.105 0 4.053 4.053 0 01-8.105 0z"></path><path fill="#EACA05" d="M20.875 6.164l-6.043 1.733S13.92 6.59 11.96 6.164c1.7-.009 8.915 0 8.915 0z"></path><path fill="#DF3A32" d="M6.265 12.413c-.857-1.476-4.38-7.526-4.38-7.526L6.403 9.33s-.464.95-.29 2.307l.153.776z"></path></g></svg>