<svg width="125" height="423" viewBox="0 0 125 423" fill="none" xmlns="http://www.w3.org/2000/svg">
<path d="M92.8555 33.4924C94.9143 35.8173 96.7628 40.0529 97.068 43.1323C97.252 44.9483 96.9373 46.182 96.2118 46.6863C95.8792 46.9195 95.4537 46.9945 94.9463 46.9025C94.4344 46.8 93.9767 46.4726 93.5715 46.043L93.2695 46.4723C90.6751 43.622 87.0921 38.7704 89.0408 34.693C88.4954 36.8563 89.6779 38.5454 90.5993 40.3577C90.7791 40.3766 90.9658 40.42 91.1611 40.52C92.118 41.0037 92.801 42.2113 93.3991 43.2755C93.6762 43.7623 94.1895 44.6673 94.4014 44.809C95.1144 44.935 95.452 44.0368 95.2882 42.3897C95.2311 41.8397 95.1102 41.2302 94.9355 40.592C94.996 41.6159 94.7032 42.2543 94.1131 42.3459C93.5687 42.4374 92.86 42.0425 92.1742 41.2643C90.7757 39.6846 89.5235 36.8242 89.3146 34.7514C89.1527 33.1522 89.5268 32.2012 90.3423 32.0648C90.7527 31.9999 91.62 32.0959 92.8555 33.4924V33.4924ZM111.643 70.0979C112.928 73.0082 113.2 77.7612 112.264 80.913C111.715 82.771 110.863 83.9051 109.861 84.1962C109.4 84.33 108.906 84.2791 108.389 84.0394C107.87 83.7894 107.507 83.3273 107.243 82.7828L106.737 83.1209C105.078 79.5294 103.17 73.6561 106.982 70.1732C105.492 72.1615 106.085 74.1898 106.344 76.2589C106.535 76.3326 106.719 76.4291 106.891 76.5857C107.736 77.3463 107.984 78.7466 108.196 79.9798C108.299 80.5474 108.485 81.5951 108.659 81.7975C109.386 82.1311 110.124 81.3373 110.625 79.6516C110.792 79.0863 110.908 78.4475 110.985 77.7639C110.624 78.7997 110.046 79.3465 109.363 79.264C108.73 79.1957 108.116 78.5949 107.689 77.6216C106.812 75.6426 106.629 72.4341 107.256 70.3108C107.739 68.6743 108.538 67.8368 109.49 67.9395C109.962 67.9954 110.87 68.346 111.643 70.0979ZM119.148 110.542C120.433 113.454 120.705 118.207 119.769 121.359C119.221 123.217 118.368 124.351 117.366 124.642C116.906 124.774 116.411 124.723 115.895 124.483C115.376 124.233 115.012 123.771 114.748 123.229L114.242 123.566C112.583 119.975 110.675 114.102 114.488 110.617C112.997 112.607 113.59 114.635 113.85 116.703C114.04 116.778 114.224 116.875 114.396 117.029C115.241 117.79 115.489 119.192 115.702 120.423C115.804 120.991 115.99 122.041 116.165 122.243C116.891 122.577 117.629 121.783 118.13 120.097C118.297 119.532 118.413 118.893 118.49 118.208C118.129 119.243 117.551 119.792 116.868 119.71C116.235 119.639 115.621 119.04 115.194 118.067C114.318 116.086 114.134 112.878 114.761 110.756C115.244 109.118 116.043 108.282 116.995 108.385C117.467 108.441 118.376 108.79 119.148 110.542V110.542ZM120 148.782C121.285 151.694 121.556 156.447 120.62 159.599C120.072 161.457 119.219 162.591 118.218 162.882C117.757 163.014 117.263 162.963 116.746 162.723C116.227 162.473 115.864 162.011 115.6 161.469L115.093 161.806C113.435 158.215 111.526 152.342 115.339 148.857C113.849 150.847 114.442 152.875 114.701 154.943C114.891 155.018 115.075 155.115 115.248 155.269C116.092 156.03 116.341 157.432 116.553 158.663C116.656 159.231 116.842 160.281 117.016 160.483C117.742 160.817 118.481 160.023 118.982 158.337C119.148 157.772 119.265 157.133 119.342 156.447C118.981 157.483 118.402 158.032 117.719 157.95C117.086 157.879 116.473 157.28 116.045 156.307C115.169 154.326 114.985 151.118 115.613 148.996C116.095 147.358 116.895 146.522 117.846 146.625C118.319 146.681 119.227 147.03 120 148.782V148.782ZM119.752 180.498C120.484 184.289 119.353 189.967 117.178 193.424C115.897 195.463 114.456 196.564 113.092 196.627C112.46 196.656 111.843 196.459 111.264 196.031C110.677 195.594 110.355 194.949 110.188 194.23L109.434 194.489C108.44 189.796 107.828 182.337 113.778 179.29C111.257 181.223 111.383 183.778 111.069 186.288C111.291 186.427 111.494 186.593 111.669 186.825C112.508 187.956 112.389 189.678 112.278 191.193C112.23 191.89 112.142 193.178 112.301 193.466C113.123 194.061 114.311 193.33 115.479 191.481C115.866 190.861 116.217 190.139 116.523 189.354C115.743 190.473 114.832 190.958 113.989 190.671C113.199 190.412 112.605 189.537 112.361 188.27C111.86 185.692 112.621 181.857 114.084 179.53C115.209 177.734 116.493 176.969 117.672 177.356C118.257 177.553 119.31 178.215 119.752 180.498V180.498ZM115.563 213.522C116.325 217.309 115.12 222.992 112.822 226.452C111.47 228.496 109.949 229.601 108.511 229.666C107.847 229.697 107.198 229.5 106.589 229.076C105.973 228.637 105.636 227.994 105.46 227.277L104.666 227.537C103.63 222.847 103.006 215.388 109.277 212.325C106.616 214.264 106.746 216.82 106.409 219.331C106.643 219.469 106.855 219.635 107.036 219.868C107.919 220.996 107.788 222.719 107.669 224.235C107.617 224.929 107.523 226.221 107.686 226.507C108.552 227.102 109.804 226.365 111.037 224.515C111.446 223.893 111.817 223.169 112.143 222.385C111.317 223.506 110.358 223.993 109.471 223.708C108.64 223.45 108.018 222.577 107.762 221.311C107.243 218.735 108.052 214.896 109.599 212.566C110.788 210.766 112.139 209.998 113.379 210.385C113.997 210.578 115.102 211.239 115.563 213.522V213.522ZM107.152 245.268C107.77 245.492 108.879 246.245 109.353 248.831C110.139 253.12 108.968 259.54 106.691 263.441C105.349 265.746 103.835 266.984 102.397 267.049C101.733 267.082 101.08 266.857 100.47 266.37C99.8517 265.873 99.5102 265.145 99.3282 264.329L98.5384 264.621C97.4744 259.307 96.804 250.868 103.058 247.439C100.409 249.617 100.554 252.51 100.23 255.349C100.466 255.506 100.679 255.695 100.864 255.958C101.751 257.24 101.632 259.185 101.521 260.903C101.473 261.689 101.385 263.148 101.554 263.472C102.421 264.15 103.669 263.326 104.892 261.239C105.297 260.539 105.666 259.722 105.984 258.837C105.167 260.101 104.21 260.645 103.321 260.318C102.491 260.021 101.861 259.03 101.598 257.594C101.062 254.678 101.847 250.34 103.382 247.714C104.562 245.684 105.907 244.825 107.152 245.268ZM99.8409 281.66C100.407 281.991 101.362 282.932 101.364 285.559C101.364 289.921 99.0535 296.024 96.1114 299.453C94.3755 301.475 92.6647 302.424 91.2376 302.227C90.5772 302.139 89.9767 301.798 89.4628 301.21C88.9466 300.61 88.7419 299.833 88.7109 298.999L87.8806 299.141C87.7903 293.724 88.6531 285.302 95.4228 283.057C92.4246 284.724 92.0433 287.593 91.2157 290.327C91.4184 290.525 91.596 290.749 91.7274 291.041C92.3715 292.462 91.9001 294.354 91.4847 296.022C91.2948 296.787 90.9466 298.206 91.0528 298.557C91.7844 299.38 93.1601 298.794 94.7373 296.961C95.265 296.345 95.7742 295.609 96.2455 294.797C95.2156 295.891 94.1751 296.254 93.3606 295.773C92.5966 295.329 92.156 294.241 92.1565 292.783C92.1538 289.818 93.7084 285.692 95.6904 283.384C97.2175 281.603 98.6966 280.998 99.8409 281.66V281.66ZM87.0081 323.451C87.5678 323.849 88.4925 325.01 88.3981 328.336C88.2371 333.86 85.6942 341.675 82.6124 346.128C80.7941 348.755 79.0398 350.016 77.6127 349.819C76.9542 349.732 76.3601 349.324 75.866 348.596C75.3675 347.855 75.1922 346.878 75.191 345.824L74.3521 346.035C74.4586 339.173 75.6316 328.474 82.5185 325.382C79.4423 327.602 78.9559 331.254 78.0242 334.747C78.2212 334.99 78.3899 335.269 78.51 335.635C79.1075 337.408 78.5658 339.824 78.0879 341.954C77.8696 342.927 77.4657 344.74 77.5611 345.176C78.2658 346.196 79.6696 345.403 81.3222 343.021C81.873 342.223 82.4118 341.27 82.9163 340.226C81.8427 341.649 80.7835 342.145 79.9791 341.568C79.2285 341.035 78.8268 339.671 78.8786 337.823C78.9881 334.065 80.6972 328.783 82.7762 325.788C84.3744 323.476 85.8808 322.655 87.0081 323.451V323.451ZM12.2731 7.43642C4.9658 12.7051 0.411248 20.4659 0.347188 27.7276C0.286797 36.9152 1.5603 41.0304 4.60304 41.4831C8.81599 42.1118 11.7376 34.0275 12.8263 30.4057C14.9844 25.2375 18.0512 21.9671 22.2024 20.409C31.3738 16.9691 43.8343 22.4836 54.793 27.9226C67.4829 34.2227 80.8795 74.7132 83.4628 114.575C85.6835 148.823 68.231 199.765 46.138 264.262C44.0143 270.456 41.8482 276.782 39.6524 283.233C31.2395 307.927 20.8917 333.978 10.8861 359.174C9.26678 363.247 7.66529 367.289 6.07162 371.317C9.57709 374.544 11.0371 377.437 11.0583 381.273C11.3723 381.718 12.1392 382.685 13.8912 384.383C17.1786 387.564 17.9372 387.55 18.6705 387.532C21.5607 387.468 25.027 387.673 29.6176 390.919C35.075 394.782 36.1537 399.183 36.3212 402.114C39.605 401.556 42.6605 402.533 45.3903 404.033C45.5488 403.861 45.7075 403.687 45.8318 403.535C45.7966 403.469 45.7513 403.388 45.6971 403.3C42.485 398.085 41.1005 393.518 41.5805 389.728L44.5442 371.725L45.8861 373.799C46.2662 372.424 46.7964 371.085 47.4816 369.758L48.602 367.574C51.9626 360.997 53.2083 359.014 59.3463 357.158C60.3267 356.863 61.2135 356.664 61.945 356.519C61.7199 355.403 61.2951 354.8 60.6292 353.849C59.736 352.581 58.2309 350.451 58.6243 347.345C58.8381 345.657 59.5246 344.412 60.2358 343.318L65.1964 335.698L66.6343 337.342C66.7034 336.655 66.7577 335.977 66.8136 335.3C66.9098 334.15 67.004 333.062 67.1384 332.002C67.4851 329.264 68.2013 325.643 70.6878 321.917C71.1773 321.181 71.4483 320.433 71.5688 319.481C71.7004 318.442 71.6378 317.247 71.5741 316.092C71.4879 314.412 71.4652 313.214 71.6134 312.045C72.1147 308.087 74.4826 306.111 76.3813 305.149C77.0483 304.809 77.6854 304.549 78.2773 304.349C77.8748 303.07 77.3408 301.984 76.8226 300.93C75.7792 298.799 74.6048 296.404 74.9996 293.287C75.4315 289.877 77.5313 287.453 79.7358 285.343C82.4965 282.705 84.4351 281.663 86.0309 280.95C86.1826 280.441 86.4132 279.543 86.746 277.963C87.1548 276.033 87.3955 274.743 87.5022 273.901C87.6129 273.027 87.5842 272.8 87.463 271.833C87.2853 270.484 87.0103 268.401 87.0754 263.617C87.1201 260.293 87.2296 258.209 87.4551 256.429C88.0369 251.836 89.3942 249.345 91.6387 245.216C91.6387 245.216 92.5924 243.457 93.0396 242.617L87.2644 241.247L89.2236 234.334C89.3038 234.045 89.4241 233.674 89.6135 233.195C91.6218 228.272 94.9093 226.949 96.7776 226.258C96.8444 225.199 96.4686 223.787 96.1089 222.42C95.541 220.272 94.9015 217.845 95.2507 215.089C95.6614 211.847 97.2967 209.023 100.248 206.461C100.949 205.851 101.94 204.988 102.697 204.279C102.574 203.941 102.452 203.569 102.34 203.16C102.11 202.832 101.503 202.195 101.087 201.76C98.9872 199.555 95.4823 195.87 96.2148 190.087C96.5232 187.652 97.5609 185.214 99.387 182.637C101.177 180.112 105.796 173.594 106.438 171.149C104.788 167.553 103.347 162.115 103.995 156.998C104.066 156.444 104.156 155.899 104.279 155.35C104.6 153.93 104.92 152.937 105.178 152.138C105.418 151.398 105.452 151.194 105.456 151.159C105.43 150.993 105.204 150.148 103.988 147.457C102.238 143.566 101.603 139.976 102.047 136.472C102.586 132.22 104.703 128.701 106.5 126.104C105.699 124.705 104.837 122.498 105.253 119.219C105.322 118.669 105.43 118.057 105.591 117.36C105.129 117.149 104.527 116.847 104.167 116.627L99.8988 114.054L101.047 109.18C101.177 108.624 101.361 108.079 101.607 107.513C102.263 105.978 102.643 104.773 102.76 103.852C102.88 102.907 102.852 101.98 101.283 100.199C100.726 99.5655 100.139 98.9741 99.5652 98.3904C96.9358 95.7219 93.343 92.0737 94.0495 86.4958C94.2975 84.5384 95.0389 82.6414 96.3798 80.5313C96.7283 79.9851 96.8071 79.6288 96.839 79.3773C96.9514 78.4902 96.5266 77.2458 96.1127 76.0405C95.5012 74.2535 94.7285 72.0182 95.0463 69.5091C95.3484 67.1247 96.5364 65.033 98.5777 63.2889C98.465 63.0844 98.2725 62.8521 98.0649 62.6455L87.8923 72.6916L87.5649 56.698C87.5498 55.9572 87.5907 55.1958 87.6801 54.4901C87.7253 54.1333 87.8076 53.4841 88.0375 52.7011C86.4097 52.7128 84.7873 52.2596 83.3662 51.3428C79.4657 48.8262 77.713 43.646 78.4276 36.7539C78.4905 36.1319 78.5585 35.5482 78.6279 35.0003C78.8904 32.9279 79.1867 31.3391 79.4029 30.1799C79.5096 29.6031 79.6046 29.0724 79.6661 28.587C79.6676 28.5753 79.6696 28.5597 79.6713 28.546C79.5696 28.442 79.4357 28.3103 79.26 28.1494C78.6271 27.7345 75.9912 27.4005 74.2461 27.1814C69.8553 26.6272 64.392 25.9392 61.3653 21.7782C59.8602 19.7117 57.3465 16.9589 55.1285 14.5306C53.6671 12.9312 52.262 11.3884 51.184 10.093L47.7409 5.95067C48.8222 6.23422 49.9245 6.55609 51.0527 6.92283L54.2858 7.93649C55.7038 8.37756 56.9994 8.7833 58.2287 9.18068C58.6356 9.62838 59.0511 10.0851 59.4794 10.5514C61.8052 13.0983 64.4337 15.9767 66.1311 18.3093C67.6599 20.4085 71.5515 20.8994 74.983 21.3321C76.8003 21.5603 78.5501 21.7898 80.069 22.216C81.7267 23.7195 83.544 25.4335 85.5501 27.3773C85.6291 27.9578 85.6095 28.5811 85.5149 29.3278C85.4411 29.9107 85.3309 30.5466 85.1985 31.2628C84.9824 32.422 84.7145 33.8637 84.4767 35.7412C84.4125 36.2481 84.3505 36.7849 84.2915 37.3599C83.8321 41.8003 84.6785 45.174 86.5593 46.3868C87.429 46.9486 88.4703 46.9538 89.4113 46.4055C91.2785 45.3168 93.4371 45.9467 94.7825 47.9772C95.4375 48.9674 95.728 50.0679 95.6011 51.07C95.4877 51.9649 95.058 52.7146 94.36 53.2363C93.8947 53.6567 93.6485 54.2873 93.529 55.2309C93.4749 55.6579 93.4492 56.126 93.4575 56.5767L93.5045 58.8646L95.1322 57.2584C95.9156 56.484 96.966 56.1516 98.1641 56.2954C98.2654 56.3083 98.3658 56.3446 98.4684 56.3636C99.3357 57.555 100.313 58.297 101.325 59.0491C102.186 59.685 103.134 60.3914 104.191 61.587C104.218 61.6717 104.263 61.7548 104.288 61.8411C104.523 62.6395 104.596 63.4271 104.5 64.1835C104.33 65.5307 103.626 66.7549 102.465 67.7231C101.499 68.5318 101.014 69.3122 100.895 70.2499C100.761 71.3125 101.122 72.4775 101.693 74.1305C102.262 75.7992 102.972 77.8761 102.688 80.1181C102.53 81.3639 102.095 82.5329 101.356 83.6932C100.497 85.0424 100.034 86.1683 99.8984 87.2367C99.5514 89.9759 101.503 91.9563 103.76 94.2489C104.415 94.9122 105.08 95.5888 105.707 96.302C108.097 99.0155 108.991 101.571 108.609 104.593C108.419 106.088 107.912 107.762 107.012 109.862C106.88 110.17 106.819 110.386 106.785 110.529L106.622 111.225L107.235 111.594C107.463 111.734 107.861 111.917 108.148 112.046C109.6 112.706 112.018 113.804 111.538 117.592C111.496 117.928 111.431 118.282 111.341 118.661C111.228 119.15 111.15 119.576 111.101 119.96C110.833 122.083 111.469 122.999 111.98 123.738C112.689 124.768 112.926 125.494 112.82 126.33C112.715 127.164 112.242 128.174 111.377 129.418C109.87 131.594 108.275 134.223 107.896 137.213C107.588 139.641 108.054 142.124 109.364 145.032C111.067 148.807 111.501 150.348 111.305 151.9C111.236 152.443 111.086 153.037 110.788 153.944C110.543 154.707 110.287 155.509 110.036 156.618C109.953 156.989 109.892 157.362 109.844 157.738C109.325 161.835 110.676 166.421 111.992 169.103C112.358 169.845 112.47 170.632 112.35 171.577C111.966 174.613 109.189 179.002 104.199 186.043C102.947 187.81 102.248 189.376 102.064 190.828C101.683 193.834 103.55 195.794 105.354 197.691C106.529 198.923 107.637 200.09 107.989 201.461C108.184 202.231 108.433 202.768 108.652 203.243C108.808 203.578 108.892 203.854 108.972 204.125C108.86 204.904 108.79 205.61 108.759 206.251C108.084 207.418 106.504 208.834 104.114 210.911C102.282 212.503 101.323 214.065 101.1 215.83C100.895 217.448 101.317 219.052 101.807 220.911C102.284 222.711 102.816 224.735 102.644 226.859C102.63 227.019 102.614 227.178 102.595 227.328C102.186 230.551 100.551 231.152 98.9682 231.734C97.5574 232.252 96.1528 232.77 95.0956 235.361C94.9991 235.607 94.9377 235.795 94.895 235.944L94.6155 236.931L95.6116 237.168C95.8752 237.229 96.2123 237.29 96.4681 237.334C97.9158 237.587 99.1624 237.895 99.7576 239.107C100.016 239.633 100.098 240.236 100.008 240.95C99.8868 241.903 99.4644 243.064 98.7098 244.501C98.057 245.746 97.4753 246.819 96.9585 247.772L96.8184 248.033C94.7033 251.923 93.7452 253.686 93.3039 257.17C93.1078 258.718 93.0128 260.609 92.9705 263.696C92.9136 268.039 93.1416 269.805 93.3111 271.094C93.466 272.326 93.5466 273.097 93.3511 274.641C93.2207 275.671 92.9622 277.07 92.5144 279.183C91.3632 284.627 90.84 285.286 88.6828 286.225C87.6493 286.674 86.2323 287.289 83.8141 289.599C81.8459 291.485 81.0134 292.725 80.8485 294.027C80.6751 295.396 81.28 296.626 82.114 298.33C82.7833 299.692 83.6147 301.386 84.1805 303.55C84.7425 305.713 85.0096 306.967 84.8997 307.834C84.856 308.179 84.7524 308.449 84.567 308.709C84.1069 309.354 83.4111 309.452 82.4772 309.522C81.6454 309.583 80.5057 309.667 79.0493 310.405C78.0862 310.893 77.6119 311.604 77.4622 312.785C77.3696 313.516 77.3934 314.47 77.4615 315.778C77.5343 317.143 77.6147 318.666 77.4176 320.222C77.1825 322.078 76.5846 323.702 75.5921 325.189C73.7978 327.875 73.2692 330.516 72.9872 332.743C72.863 333.723 72.777 334.73 72.6897 335.779C72.5977 336.897 72.5054 338.016 72.3597 339.166C72.1217 341.046 71.781 342.641 71.29 344.187C70.5765 346.442 69.9243 347.399 68.9699 347.599C68.0382 347.792 67.3846 347.151 66.7425 346.418L65.8878 345.44L65.1794 346.529C64.7708 347.159 64.5356 347.592 64.4731 348.086C64.3672 348.922 64.7755 349.499 65.454 350.46C66.3283 351.706 67.4092 353.243 67.8263 355.925C68.0262 357.224 68.0743 358.252 67.9713 359.065C67.7379 360.908 66.8051 361.625 63.9768 362.139C63.1782 362.281 62.1849 362.46 61.0541 362.802C57.0416 364.016 56.8623 364.367 53.8475 370.263L52.7216 372.458C51.8863 374.079 51.3728 375.71 51.1532 377.443C50.707 380.966 51.6054 384.164 52.3985 386.988C52.8466 388.58 53.2685 390.082 53.3417 391.396C53.3516 391.584 53.375 391.9 53.3305 392.251C53.2229 393.101 52.8303 393.322 52.5006 393.423C51.6646 393.674 51.1938 393.137 50.1129 391.286C49.8686 390.869 49.5635 390.353 49.2557 389.874L47.8776 387.743L47.4293 390.469C47.0473 393.485 49.0074 397.434 50.7176 400.212C51.6247 401.683 51.9874 403.011 51.8286 404.265C51.674 405.485 51.0213 406.494 50.2884 407.37C50.6017 407.617 50.8999 407.859 51.1908 408.096C51.9141 405.795 53.1169 403.79 55.0277 402.404C53.2087 404.394 52.825 406.829 52.678 409.366C53.0767 409.722 53.4396 410.063 53.7832 410.399C53.9379 407.646 54.4932 404.794 55.3623 402.749C56.4552 400.158 57.7628 399.046 59.0299 399.599C59.6588 399.872 60.8007 400.819 61.3859 404.097C62.2204 408.784 61.6666 415.487 60.1508 420.447C60.521 420.965 61.0245 421.572 61.7322 422.319C62.1437 421.228 62.5682 419.909 63.0143 418.264C64.4014 413.147 63.9267 410.874 63.375 408.239C62.7602 405.305 61.9937 401.644 63.6599 391.398C64.279 387.574 64.8538 384.568 65.4173 382.09C64.7887 383.393 64.1184 384.604 63.4127 385.624C61.5944 388.25 59.84 389.512 58.4129 389.315C57.7545 389.228 57.1604 388.819 56.6663 388.091C56.1678 387.351 55.9924 386.374 55.9912 385.32L55.1524 385.53C55.2589 378.668 56.4319 367.969 63.3188 364.878C60.2426 367.097 59.7562 370.75 58.8245 374.243C59.0215 374.486 59.1903 374.765 59.3103 375.13C59.9078 376.904 59.3661 379.319 58.8882 381.45C58.6699 382.422 58.266 384.235 58.3611 384.673C59.066 385.691 60.4699 384.899 62.1225 382.517C62.6733 381.719 63.2121 380.765 63.7166 379.722C62.643 381.145 61.5838 381.64 60.7794 381.063C60.0288 380.53 59.6271 379.166 59.6789 377.319C59.7884 373.561 61.4975 368.278 63.5765 365.283C65.1747 362.972 66.6812 362.15 67.8084 362.947C68.3682 363.345 69.2928 364.506 69.1984 367.831C69.1588 369.191 68.9711 370.689 68.6714 372.242C69.2271 371.092 69.819 370 70.4745 368.797C71.4106 367.084 72.4693 365.138 73.7108 362.514C75.7391 358.231 78.0974 355.814 80.5964 353.256C83.9558 349.817 87.427 346.261 89.4767 338.399C91.2581 331.529 90.6907 327.188 90.1319 322.983C89.6067 319.028 89.1097 315.289 90.6797 309.337C92.1492 303.757 93.9893 303.116 96.1192 302.378C98.5108 301.544 101.488 300.508 102.994 294.265C104.527 287.871 102.518 284.715 100.898 282.18C99.5172 280.024 98.4324 278.314 99.314 274.466C100.079 271.13 101.473 270.464 103.581 269.46C106.604 268.018 110.364 266.222 111.682 257.049C112.941 248.124 110.727 245.085 108.755 242.392C107.39 240.528 106.313 239.054 106.523 235.175C106.709 231.845 107.389 231.703 109.209 231.347C112.438 230.72 115.672 229.462 116.649 221.741C117.552 214.613 116 212.402 114.037 210.434C112.956 209.35 112.17 208.548 112.949 204.025C113.772 199.187 115.138 198.205 116.87 196.966C118.992 195.441 121.4 193.715 122.545 186.913C123.683 180.134 122.136 178.001 119.986 175.93C118.713 174.701 117.614 173.641 117.573 169.345C117.533 164.831 118.785 164.093 120.521 163.055C122.434 161.916 125.067 160.37 124.877 154.629C124.705 148.95 121.459 147.063 118.852 145.548C116.386 144.111 114.759 143.163 114.969 139.177C115.174 135.459 116.294 134.125 117.855 132.296C120.016 129.761 122.713 126.607 122.727 116.947C122.744 106.673 118.799 103.881 115.63 101.642C113.538 100.16 112.027 99.0933 111.431 95.9969C110.819 92.8016 111.755 90.4481 112.843 87.7274C114.634 83.2497 116.663 78.1761 112.742 68.7257C109.082 59.9008 105.953 57.581 103.665 55.8888C102.107 54.7367 101.249 54.0991 100.489 51.5168C99.9352 49.6321 99.7045 47.7309 99.4621 45.7193C98.7931 40.1634 98.0339 33.8651 90.0854 26.3055C73.2257 9.71544 68.7471 8.32212 55.4528 4.18191L52.2556 3.18074C31.8416 -3.47374 18.4439 2.99246 12.2731 7.43642"/>
</svg>
