<svg width="192" height="232" viewBox="0 0 192 232" fill="none" xmlns="http://www.w3.org/2000/svg">
<path d="M123.332 8.05848C124.024 7.88375 124.743 7.89972 125.378 7.91406C126.164 7.93137 126.537 7.92151 126.803 7.81693C127.582 7.50935 127.715 7.13573 127.165 6.79036C126.439 6.33198 124.443 6.10077 122.809 6.286C122.491 6.32193 122.061 6.39359 121.821 6.53047C121.569 6.67311 121.58 6.8519 121.845 7.01957C121.951 7.08667 122.101 7.14565 122.282 7.19454C122.272 7.18796 122.261 7.18267 122.251 7.17609C122.034 7.03933 122.063 6.87434 122.328 6.72297C122.568 6.58701 122.971 6.47846 123.436 6.42692C124.417 6.31493 125.513 6.43449 125.932 6.69833C126.227 6.88482 126.194 7.10566 125.846 7.30475C125.534 7.48359 125.018 7.61881 124.397 7.68969C122.978 7.84997 121.388 7.67562 120.781 7.29147C120.362 7.02672 120.396 6.71839 120.882 6.44461C121.302 6.20355 122.005 6.01679 122.862 5.92086C124.964 5.68297 127.323 5.9458 128.23 6.51771C128.48 6.67753 128.618 6.84634 128.643 7.01735C128.689 7.34758 128.318 7.69175 127.551 7.99282C126.67 8.34048 125.635 8.31827 124.878 8.30063C124.458 8.29026 123.978 8.28017 123.753 8.33722C123.679 8.35544 123.605 8.39098 123.534 8.437C124.083 8.42724 125.332 8.50002 125.871 8.4601C125.871 8.4601 125.961 8.58108 124.987 8.7319C124.012 8.88218 120.599 9.02323 119.732 7.76038C120.552 8.16656 121.43 8.37041 122.484 8.42165C122.702 8.26701 122.98 8.1456 123.332 8.05848V8.05848ZM140.412 4.7437C142.889 4.73817 145.599 5.34859 146.581 6.13198C146.852 6.34991 146.99 6.56366 146.996 6.76662C147.007 7.15909 146.532 7.50928 145.601 7.76139C144.531 8.05192 143.328 7.89197 142.449 7.77304C141.961 7.70884 141.405 7.63351 141.136 7.67069C141.048 7.68289 140.956 7.71483 140.867 7.75853C141.508 7.81741 142.953 8.06539 143.584 8.08785C143.584 8.08785 143.674 8.24086 142.521 8.28992C141.366 8.33881 137.377 8.06262 136.531 6.48009C137.433 7.05922 138.427 7.40877 139.647 7.60659C139.92 7.45316 140.26 7.34731 140.682 7.291C141.511 7.17862 142.345 7.29003 143.081 7.38843C143.994 7.51088 144.429 7.54641 144.753 7.45887C145.699 7.20264 145.901 6.78374 145.307 6.31166C144.521 5.68521 142.228 5.15791 140.302 5.16179C139.927 5.16208 139.418 5.19062 139.12 5.31893C138.809 5.45246 138.797 5.66065 139.085 5.89195C139.2 5.98111 139.367 6.07078 139.572 6.1505C139.56 6.14245 139.549 6.13493 139.537 6.12596C139.303 5.93845 139.357 5.75051 139.686 5.60769C139.982 5.48196 140.466 5.40692 141.013 5.40675C142.168 5.40373 143.43 5.68443 143.882 6.04481C144.203 6.30008 144.136 6.55291 143.705 6.7406C143.319 6.90782 142.702 6.99859 141.969 7.00147C140.296 7.00434 138.469 6.59552 137.811 6.06904C137.358 5.70811 137.438 5.35316 138.038 5.09634C138.558 4.87121 139.402 4.74531 140.412 4.7437V4.7437ZM163.186 12.8785C162.649 11.8128 160.436 10.1104 158.356 9.16191C157.951 8.97611 157.388 8.75384 157.004 8.74588C156.602 8.73653 156.486 8.95572 156.682 9.34622C156.761 9.5002 156.897 9.67861 157.079 9.86693C157.071 9.85113 157.062 9.83754 157.055 9.8232C156.894 9.50438 157.046 9.32905 157.47 9.3383C157.853 9.34755 158.411 9.50574 159.001 9.77687C160.25 10.3463 161.47 11.273 161.781 11.8856C162.001 12.3198 161.804 12.5593 161.246 12.5479C160.747 12.5372 160.036 12.3309 159.244 11.9701C157.438 11.146 155.669 9.8006 155.22 8.90825C154.909 8.29375 155.172 7.95045 155.944 7.97022C156.619 7.98547 157.591 8.26698 158.681 8.76473C161.356 9.98465 163.979 11.9845 164.65 13.3157C164.835 13.684 164.879 13.9842 164.785 14.2042C164.603 14.6331 163.916 14.7771 162.787 14.5892C161.488 14.3718 160.27 13.6041 159.38 13.042C158.886 12.7295 158.323 12.3747 158.014 12.2814C157.914 12.2495 157.799 12.2392 157.682 12.2428C158.342 12.6236 159.779 13.6051 160.449 13.9422C160.449 13.9422 160.47 14.1511 159.202 13.6345C157.932 13.1155 153.765 10.8425 153.635 8.71691C154.321 9.78849 155.222 10.6575 156.44 11.4746C156.81 11.4445 157.229 11.4984 157.712 11.6463C158.662 11.9354 159.505 12.4667 160.253 12.9398C161.177 13.5219 161.628 13.7758 162.021 13.8414C163.168 14.0335 163.594 13.6821 163.186 12.8785V12.8785ZM178.683 24.647C178.405 23.3766 176.532 20.9902 174.596 19.4355C174.219 19.1335 173.685 18.7507 173.282 18.6389C172.861 18.5239 172.679 18.7259 172.78 19.1912C172.822 19.3756 172.917 19.6003 173.057 19.8476C173.052 19.8294 173.047 19.813 173.043 19.7953C172.961 19.4146 173.169 19.2681 173.614 19.3907C174.015 19.501 174.56 19.8162 175.11 20.2581C176.273 21.1906 177.309 22.4939 177.47 23.2251C177.583 23.7422 177.31 23.945 176.725 23.786C176.201 23.6429 175.507 23.2373 174.77 22.6467C173.088 21.297 171.588 19.4072 171.356 18.342C171.195 17.6098 171.566 17.3159 172.376 17.5389C173.084 17.7325 174.032 18.2876 175.046 19.1011C177.536 21.0981 179.761 23.9081 180.108 25.4959C180.203 25.935 180.167 26.2632 180.008 26.4732C179.699 26.8797 178.935 26.8503 177.796 26.354C176.486 25.7829 175.409 24.6472 174.623 23.8183C174.186 23.3564 173.688 22.8326 173.388 22.6524C173.29 22.5927 173.173 22.5514 173.048 22.5229C173.642 23.1009 174.891 24.5202 175.506 25.054C175.506 25.054 175.472 25.28 174.274 24.3978C173.074 23.515 169.296 20.0098 169.736 17.7238C170.17 19.039 170.883 20.1981 171.948 21.3827C172.346 21.4492 172.773 21.6166 173.242 21.8996C174.165 22.4563 174.911 23.2425 175.571 23.9391C176.388 24.7994 176.794 25.1882 177.191 25.36C178.35 25.8653 178.893 25.6064 178.683 24.647V24.647ZM186.84 47.5644C187.544 46.0993 187.374 42.6022 186.468 39.9315C186.293 39.4108 186.007 38.7218 185.65 38.3849C185.275 38.0347 184.915 38.1425 184.656 38.6797C184.555 38.8942 184.481 39.1777 184.44 39.5103C184.448 39.4887 184.456 39.4684 184.466 39.4483C184.676 39.0097 185.023 38.9729 185.419 39.3444C185.774 39.6789 186.126 40.3046 186.382 41.0638C186.927 42.6667 187.035 44.5837 186.631 45.4281C186.345 46.0246 185.882 46.0838 185.362 45.598C184.896 45.1618 184.451 44.3609 184.106 43.3447C183.32 41.026 183.167 38.2463 183.756 37.0186C184.161 36.1734 184.805 36.0728 185.523 36.7495C186.152 37.3391 186.759 38.4339 187.233 39.8336C188.397 43.2682 188.621 47.3947 187.742 49.226C187.497 49.7309 187.196 50.0499 186.853 50.1795C186.188 50.4308 185.366 49.9804 184.502 48.84C183.507 47.5288 183.22 45.7633 183.011 44.4747C182.895 43.7567 182.762 42.9413 182.573 42.5897C182.512 42.4745 182.415 42.3668 182.299 42.2695C182.496 43.1937 182.749 45.3463 183.004 46.2372C183.004 46.2372 182.785 46.4522 182.163 44.8806C181.54 43.3094 180.151 37.6087 182.457 35.4877C181.89 37.0846 181.757 38.6756 181.989 40.4867C182.379 40.774 182.716 41.1819 183.01 41.7318C183.589 42.8146 183.788 44.0388 183.963 45.1205C184.182 46.4597 184.322 47.0838 184.623 47.4808C185.502 48.6401 186.31 48.6707 186.84 47.5644V47.5644ZM185.196 63.5617C183.79 64.7505 182.817 66.1575 182.088 67.9571C182.32 68.4248 182.438 68.9765 182.437 69.6394C182.435 70.9426 181.985 72.1807 181.585 73.275C181.091 74.6303 180.899 75.2808 180.987 75.8048C181.241 77.3332 182.023 77.7801 183.133 77.0272C184.603 76.0308 186.285 72.6976 186.804 69.7526C186.905 69.1795 186.99 68.3928 186.814 67.8957C186.631 67.378 186.216 67.2925 185.677 67.6568C185.464 67.802 185.241 68.0283 185.023 68.3156C185.043 68.2989 185.062 68.2848 185.083 68.2722C185.523 67.9726 185.885 68.1181 186.079 68.6656C186.252 69.1606 186.269 69.9224 186.119 70.7592C185.809 72.5267 184.902 74.3608 184.056 74.9363C183.458 75.3423 182.969 75.1584 182.713 74.4383C182.485 73.7943 182.468 72.8207 182.665 71.7015C183.116 69.1433 184.436 66.4859 185.668 65.6511C186.516 65.0752 187.204 65.3153 187.554 66.3133C187.863 67.1844 187.884 68.5138 187.611 70.0559C186.943 73.8426 184.98 77.7874 183.142 79.0325C182.632 79.3752 182.167 79.5157 181.76 79.4592C180.972 79.3496 180.399 78.5072 180.147 77.0038C179.86 75.2739 180.51 73.4882 180.986 72.1841C181.251 71.4591 181.551 70.6342 181.551 70.2105C181.551 70.0712 181.514 69.9215 181.45 69.7709C181.156 70.7303 180.265 72.8585 180.047 73.8162C180.047 73.8162 179.716 73.9032 179.934 72.1249C180.151 70.3447 181.797 64.3384 185.196 63.5617V63.5617ZM175.693 85.934C173.762 87.0379 172.317 88.4853 171.1 90.4431C171.298 91.0372 171.341 91.7089 171.219 92.4842C170.979 94.0103 170.204 95.3662 169.516 96.5656C168.667 98.0509 168.314 98.7742 168.325 99.4052C168.356 101.248 169.23 101.931 170.721 101.276C172.697 100.411 175.356 96.8556 176.526 93.5137C176.755 92.863 177 91.9589 176.877 91.3418C176.748 90.6976 176.258 90.5127 175.533 90.8282C175.246 90.9542 174.935 91.1736 174.616 91.4654C174.643 91.4501 174.669 91.4375 174.696 91.4254C175.289 91.1671 175.703 91.4111 175.841 92.0929C175.961 92.7075 175.842 93.6024 175.508 94.5515C174.806 96.5573 173.365 98.519 172.228 99.0183C171.425 99.3708 170.862 99.0555 170.681 98.1602C170.519 97.3586 170.677 96.2159 171.122 94.9449C172.138 92.043 174.233 89.2019 175.888 88.4782C177.027 87.979 177.823 88.4002 178.069 89.6405C178.288 90.7239 178.069 92.2841 177.455 94.0339C175.951 98.3311 172.837 102.546 170.367 103.627C169.683 103.924 169.088 103.993 168.602 103.842C167.66 103.552 167.115 102.449 167.082 100.637C167.047 98.5514 168.166 96.5947 168.985 95.1658C169.441 94.3708 169.957 93.4668 170.034 92.9709C170.061 92.8083 170.042 92.6244 169.991 92.4362C169.456 93.4986 167.983 95.8074 167.542 96.8834C167.542 96.8834 167.122 96.9176 167.712 94.8792C168.3 92.8413 171.404 86.1464 175.693 85.934ZM160.734 112.382C158.512 112.706 156.632 113.532 154.788 114.922C154.767 115.551 154.572 116.197 154.183 116.879C153.419 118.221 152.205 119.208 151.13 120.082C149.803 121.161 149.212 121.71 149.002 122.306C148.384 124.045 148.971 125.007 150.617 124.943C152.796 124.858 156.571 122.501 158.859 119.798C159.305 119.271 159.855 118.514 159.956 117.889C160.059 117.238 159.66 116.884 158.86 116.913C158.544 116.925 158.17 117.017 157.766 117.173C157.796 117.169 157.826 117.167 157.856 117.166C158.509 117.142 158.816 117.523 158.707 118.212C158.605 118.833 158.177 119.63 157.527 120.396C156.155 122.019 154.097 123.33 152.842 123.38C151.956 123.415 151.533 122.911 151.676 122.006C151.804 121.194 152.355 120.18 153.225 119.151C155.211 116.804 158.197 114.91 160.023 114.84C161.281 114.79 161.888 115.479 161.685 116.733C161.511 117.828 160.756 119.213 159.557 120.627C156.618 124.104 152.179 126.912 149.455 127.017C148.701 127.045 148.113 126.889 147.704 126.569C146.912 125.95 146.782 124.716 147.39 123.004C148.088 121.035 149.84 119.612 151.119 118.572C151.831 117.994 152.641 117.336 152.887 116.899C152.968 116.756 153.016 116.578 153.035 116.382C152.153 117.182 149.943 118.806 149.145 119.652C149.145 119.652 148.736 119.529 150.011 117.836C151.288 116.14 156.588 111.003 160.734 112.382V112.382ZM137.375 135.896C134.181 139.142 129.381 141.471 126.45 141.2C125.638 141.122 125.006 140.876 124.57 140.482C123.724 139.719 123.595 138.4 124.264 136.684C125.034 134.709 126.931 133.459 128.316 132.544C129.087 132.036 129.963 131.457 130.235 131.032C130.322 130.894 130.374 130.712 130.396 130.508C129.441 131.226 127.047 132.624 126.183 133.403C126.183 133.403 125.743 133.216 127.131 131.613C128.519 130.007 134.268 125.345 138.716 127.381C136.322 127.41 134.292 128.016 132.296 129.217C132.267 129.878 132.052 130.529 131.627 131.193C130.794 132.5 129.479 133.368 128.315 134.134C126.877 135.084 126.236 135.578 126.005 136.177C125.324 137.921 125.947 139.016 127.719 139.179C130.064 139.398 134.147 137.449 136.631 134.924C137.115 134.433 137.714 133.713 137.829 133.069C137.946 132.397 137.52 131.969 136.658 131.888C136.318 131.857 135.915 131.9 135.48 132.006C135.513 132.007 135.543 132.009 135.576 132.012C136.278 132.078 136.607 132.523 136.481 133.233C136.367 133.873 135.9 134.651 135.193 135.367C133.702 136.882 131.478 137.971 130.128 137.847C129.172 137.759 128.722 137.171 128.883 136.236C129.029 135.401 129.632 134.41 130.576 133.451C132.734 131.259 135.964 129.685 137.929 129.869C139.281 129.994 139.93 130.803 139.7 132.095C139.503 133.225 138.676 134.575 137.375 135.896ZM113.964 148.171C110.414 151.024 105.304 152.706 102.333 152.001C101.511 151.804 100.888 151.461 100.476 150.993C99.6796 150.09 99.6651 148.723 100.5 147.067C101.46 145.16 103.51 144.158 105.006 143.425C105.839 143.018 106.784 142.554 107.098 142.158C107.201 142.03 107.271 141.852 107.311 141.647C106.273 142.241 103.704 143.321 102.751 143.993C102.751 143.993 102.318 143.737 103.878 142.299C105.437 140.861 111.724 136.934 116.086 139.663C113.639 139.342 111.512 139.666 109.365 140.604C109.279 141.275 109 141.909 108.508 142.526C107.541 143.739 106.12 144.435 104.865 145.05C103.311 145.812 102.613 146.223 102.323 146.802C101.473 148.485 102.014 149.697 103.809 150.121C106.184 150.686 110.528 149.288 113.289 147.069C113.828 146.637 114.503 145.989 114.677 145.348C114.856 144.678 114.459 144.178 113.587 143.969C113.241 143.888 112.827 143.874 112.372 143.919C112.405 143.925 112.437 143.931 112.47 143.94C113.181 144.108 113.478 144.611 113.286 145.319C113.114 145.956 112.568 146.683 111.782 147.312C110.126 148.644 107.754 149.433 106.386 149.11C105.419 148.881 105.011 148.214 105.259 147.282C105.482 146.449 106.185 145.524 107.234 144.68C109.632 142.755 113.072 141.617 115.063 142.091C116.434 142.415 117.024 143.338 116.676 144.624C116.373 145.751 115.41 147.011 113.964 148.171V148.171ZM91.1734 161.531C91.1762 162.09 90.7822 162.805 90.0973 163.491C88.7041 164.884 86.4843 165.974 84.9314 166.03C83.8279 166.07 83.1933 165.64 83.1891 164.856C83.183 164.157 83.6873 163.25 84.5679 162.367C86.5113 160.423 89.7496 158.84 91.9379 158.762C93.4693 158.709 94.3491 159.284 94.3548 160.338C94.361 161.272 93.6984 162.45 92.4981 163.653C89.6593 166.493 84.9098 168.807 81.6874 168.919C80.2739 168.967 79.2656 168.645 78.7212 168.007C78.2402 167.447 78.1207 166.64 78.4058 165.63C78.7015 164.59 79.5363 163.724 80.4383 163.016L78.1217 164.324C83.3183 157.223 88.9874 154.98 92.6505 155.992C90.0177 156.019 88.0964 157.484 85.9891 158.961C86.0916 159.501 85.9766 160.07 85.6228 160.666C84.9248 161.835 83.6415 162.661 82.5036 163.392C81.2874 164.176 80.7657 164.557 80.6696 164.896C80.3121 166.16 81.1354 166.85 82.9318 166.787C85.3687 166.699 89.171 164.882 91.2385 162.814C91.5978 162.454 92.0256 161.943 92.025 161.543C92.0194 161.149 91.6066 160.91 90.9075 160.894C91.0759 161.05 91.1703 161.265 91.1734 161.531V161.531ZM65.5313 176.759C66.8722 176.637 67.7604 177.254 67.9687 178.454C68.1524 179.507 67.8055 180.863 66.9926 182.277C64.9999 185.749 61.1602 188.676 58.2548 188.939C57.4509 189.01 56.7633 188.898 56.214 188.618C55.1472 188.077 54.5886 186.914 54.663 185.254C54.7494 183.345 56.1573 181.891 57.1836 180.83C57.757 180.238 58.4074 179.566 58.5262 179.136C58.5661 178.996 58.5542 178.825 58.5089 178.636C57.8288 179.448 55.9941 181.119 55.4194 181.972C55.4194 181.972 54.9363 181.879 55.7384 180.195C56.54 178.511 60.5192 173.323 65.4635 174.385C63.1734 174.824 61.4246 175.719 59.9054 177.147C60.0972 177.746 60.105 178.37 59.9172 179.04C59.5485 180.361 58.5731 181.369 57.7098 182.259C56.6431 183.364 56.1905 183.919 56.1669 184.497C56.0895 186.183 57.052 187.06 58.8074 186.902C61.1297 186.692 64.405 184.232 65.9558 181.531C66.2597 181.005 66.5964 180.254 66.493 179.656C66.3841 179.031 65.8306 178.719 64.9793 178.795C64.6427 178.825 64.2683 178.934 63.8851 179.106C63.9184 179.101 63.9481 179.097 63.9812 179.095C64.6768 179.031 65.1406 179.375 65.2545 180.036C65.3559 180.632 65.1652 181.41 64.7209 182.178C63.7916 183.799 62.0146 185.166 60.6774 185.286C59.733 185.373 59.1037 184.921 58.9504 184.052C58.814 183.275 59.0635 182.28 59.6546 181.254C61.0017 178.908 63.5833 176.933 65.5313 176.759V176.759ZM48.5909 194.6C49.2093 195.484 49.2822 196.759 48.8004 198.189C47.6591 201.568 44.1514 204.912 40.813 205.804C39.3508 206.195 38.0709 206.135 37.0764 205.665C36.1995 205.25 35.5444 204.515 35.1841 203.49C34.8122 202.435 35.1307 201.412 35.618 200.523L34.0267 202.324C34.8644 194.34 39.3941 190.837 43.9343 190.903C41.1671 191.57 40.0944 193.425 38.8336 195.334C39.2964 195.821 39.5478 196.388 39.5641 197.035C39.5931 198.313 38.776 199.408 38.0533 200.376C37.2799 201.412 36.9744 201.902 37.0965 202.245C37.5483 203.529 38.8731 203.979 40.7325 203.483C43.2524 202.808 46.0859 200.161 46.9169 197.702C47.0609 197.273 47.1779 196.685 46.9135 196.307C46.6513 195.935 46.0581 195.811 45.3051 195.965C45.5882 196.072 45.8281 196.252 46.0063 196.504C46.3755 197.032 46.4274 197.804 46.1518 198.621C45.5932 200.276 43.9593 201.849 42.3511 202.28C41.2096 202.588 40.2559 202.334 39.7365 201.595C39.2727 200.934 39.211 199.953 39.5645 198.903C40.3448 196.59 42.7329 194.304 44.9983 193.698C46.5828 193.274 47.8931 193.605 48.5909 194.6ZM123.043 93.0292C115.371 100.169 103.777 110.961 89.6536 117.854C74.8944 125.058 59.2403 135.886 41.7953 150.959C39.7844 152.697 37.256 154.634 34.3284 156.878C23.3557 165.285 7.21879 177.676 0.34953 194.496C0.956725 194.866 1.59303 195.313 2.26409 195.868C8.37085 200.396 12.526 205.309 15.509 210.013C15.813 209.871 16.1694 209.593 16.7304 209.132C17.1282 208.803 17.6252 208.395 18.1908 208.021C19.1641 207.381 20.2839 207.257 21.2718 207.149C21.4837 207.125 21.7759 207.093 22.0292 207.053C22.0047 206.95 21.9712 206.828 21.9263 206.686C21.7611 206.167 21.5937 205.715 21.4308 205.313C21.1375 204.59 20.8599 204.034 20.6154 203.545C20.4007 203.118 20.2457 202.797 20.1443 202.547C19.3453 200.576 19.8717 198.849 21.7064 197.416C23.7672 195.806 25.8065 195.999 27.4445 196.156C28.3049 196.238 29.1126 196.316 29.9708 196.159C31.2159 195.933 31.4777 195.71 31.4887 195.7C31.4875 195.698 31.6839 195.385 31.741 194.018C31.8844 190.446 32.9036 187.783 37.5283 185.551C38.9283 184.876 39.6399 184.371 40.2098 183.965C41.0344 183.381 41.8855 182.777 43.6017 182.421C44.16 182.304 44.475 182.038 45.3046 181.283C46.0661 180.59 47.0103 179.73 48.5061 178.85C48.774 178.692 49.0207 178.558 49.2436 178.446C49.2056 177.927 49.1707 177.262 49.1609 176.407C49.1463 175.088 48.9226 174.248 48.725 173.508C47.6364 169.434 50.1434 168.025 52.7975 166.532C57.4767 163.902 59.6057 164.311 61.9027 165.119C62.23 165.235 62.5699 165.355 62.9011 165.428C63.8252 165.632 64.4944 165.949 64.9782 166.232C65.7215 165.634 65.9436 165.418 66.3879 164.991C66.8766 164.52 67.5453 163.875 69.1799 162.429C69.4736 162.169 69.6194 161.984 69.6883 161.883C69.6868 161.879 69.6857 161.876 69.6846 161.873C69.613 161.697 69.4845 161.47 69.3617 161.249C69.1422 160.855 68.9242 160.452 68.7517 160.026C68.3268 158.978 68.2444 157.938 68.5069 156.936C69.5585 152.967 72.8356 153.478 74.4092 153.724C74.993 153.815 75.7165 153.928 76.5577 153.999C78.0368 154.123 79.2036 154.541 80.0563 154.846C80.5721 155.03 80.8462 155.104 80.9911 155.129C81.1184 155.021 81.4004 154.734 81.8308 154.048C82.5864 152.847 83.0205 151.417 83.4397 150.036C84.2801 147.264 85.4305 143.47 89.9674 143.142C92.9622 142.925 94.7347 143.868 95.7427 144.466C96.0357 144.294 96.3339 144.14 96.627 143.989C98.1869 143.182 99.5338 142.486 100.118 139.45L100.23 138.869C101.196 133.819 101.68 131.284 106.48 130.423L106.759 130.373C110.16 129.761 111.529 129.621 115.326 131.016C116.453 131.431 117.319 131.836 118.013 132.161C118.382 132.333 118.861 132.557 119.131 132.646C119.863 132.151 120.561 131.942 121.121 131.775C122.002 131.512 122.91 131.241 124.322 127.528C125.094 125.502 125.248 123.887 125.372 122.59C125.522 121.012 125.677 119.378 127.107 118.269C128.517 117.177 130.386 117.29 132.198 117.574C135.384 118.071 136.828 119.004 137.691 119.56C137.801 119.631 137.89 119.686 137.955 119.725C138.084 119.701 138.338 119.638 138.773 119.478C139.518 119.204 140.336 118.943 141.174 118.676C142.604 118.221 146.387 117.018 146.489 116.137C146.89 112.62 149.696 110.011 152.407 107.489C152.853 107.075 153.298 106.663 153.733 106.244C156.5 103.583 159.124 104.543 160.533 105.057C160.793 105.152 161.201 105.3 161.406 105.332C161.807 104.566 161.762 102.078 161.743 100.985C161.725 99.8733 161.707 98.824 161.831 97.9442C161.769 97.8205 161.674 97.6613 161.587 97.5179C161.393 97.1929 161.198 96.8555 161.036 96.4556C159.472 92.5985 163.383 90.1822 164.856 89.2715C167.307 87.7564 168.937 85.6098 170.374 83.7169C171.688 81.9843 172.95 80.3222 174.632 79.6144C174.278 78.3139 174.061 76.5802 174.556 74.4294L174.608 74.2016C175.689 69.5121 176.093 67.7564 175.65 65.3129C175.566 64.8533 175.54 64.5429 175.531 64.338L175.386 61.3386L178.488 60.7414C179.047 60.639 179.265 60.5996 179.777 59.7615L179.828 59.6779C181.552 56.8543 181.93 56.0128 181.523 55.009C181.348 54.5778 181.029 54.0811 180.575 53.5328C179.544 52.2886 178.69 50.8411 178.036 49.2297C176.866 46.3442 176.54 43.3435 176.732 41.778C176.825 41.0187 177.082 40.3559 177.329 39.7141C177.825 38.4266 178.338 37.0893 177.401 34.7765C177.159 34.1839 176.42 32.3686 176.138 32.0408C176.11 32.0279 175.825 31.8863 175.718 31.8324C175.384 31.666 174.981 31.4644 174.477 31.1667C174.088 30.9371 173.612 30.6995 173.1 30.4394C170.774 29.2634 167.585 27.6511 166.342 24.5836C166.072 23.919 165.911 23.2233 165.863 22.5151C165.766 21.1286 165.675 19.8221 165.484 19.3367C165.469 19.3298 165.42 19.2993 165.328 19.2524C165.204 19.2885 165.039 19.3458 164.916 19.3891C162.793 20.1228 160.258 20.4054 157.551 16.9328C156.209 15.2107 155.648 15.0861 154.719 14.8795C153.873 14.6915 152.715 14.4345 151.348 13.4354C151.32 13.4149 151.285 13.3894 151.246 13.3611C150.423 13.6167 149.282 13.7637 147.438 13.6316C144.877 13.4473 143.682 12.9795 142.81 12.6382C142.101 12.3617 141.887 12.2773 140.375 12.5358C138.752 12.8127 136.883 12.8579 135.299 11.1133C135.221 11.1138 135.113 11.1178 134.973 11.1318L135.755 15.2002L130.731 14.2423C129.975 14.098 128.964 13.8124 127.638 13.3682C126.013 12.8244 124.222 12.2262 123.183 11.9562C123.008 12.238 122.79 12.567 122.503 12.932C118.992 17.3963 114.262 15.7509 112.707 15.2091C111.472 14.78 110.811 14.8562 110.614 14.9681C110.552 15.005 110.411 15.1888 110.324 15.6305C110.241 16.0507 110.407 16.8642 110.54 17.5177C110.818 18.8673 111.106 20.2681 110.357 21.6046L110.103 22.0576L109.669 22.4747C108.247 23.7018 106.394 23.4729 105.785 23.3975C105.003 23.3004 104.358 23.1946 103.786 23.1002C103.436 23.041 103.157 23 102.951 22.9762C102.837 23.1551 102.674 23.4342 102.443 23.8707C102.193 24.341 102.269 24.9259 102.485 26.0584C102.805 27.7215 103.47 31.1809 99.2848 32.7323C98.4892 33.0271 97.5454 34.7306 96.7863 36.1001C95.3764 38.6444 93.4476 42.1291 89.5589 42.5723L89.4125 42.5888L88.4632 42.6023C88.8351 41.6081 89.188 40.5937 89.4828 39.5548C91.6787 39.1418 92.9545 36.8766 94.183 34.6585C94.799 33.5482 95.4301 32.4253 96.1826 31.5251C96.5236 31.2573 96.8601 30.9389 97.185 30.5524C97.5154 30.3008 97.8647 30.0853 98.2507 29.9416C99.9955 29.2952 99.9074 28.4072 99.5637 26.6199C99.3209 25.3558 99.0464 23.9236 99.8143 22.4756C100.431 21.3137 100.879 20.6632 101.405 20.3148C102.116 20.4935 102.941 20.553 103.743 20.0852C103.915 20.1099 104.078 20.1315 104.273 20.1638C104.811 20.2537 105.417 20.3529 106.149 20.4444C107.101 20.5615 107.493 20.4209 107.654 20.2828L107.72 20.2252L107.762 20.1493C107.922 19.8625 107.892 19.4062 107.625 18.1131C107.429 17.1521 107.207 16.0627 107.404 15.0548C107.712 13.4935 108.514 12.7423 109.133 12.3874C110.265 11.7381 111.796 11.7424 113.684 12.3994C116.725 13.4572 118.602 13.0783 120.163 11.0933C120.485 10.6847 120.687 10.3371 120.866 10.0303C121.842 8.35115 122.058 8.36506 128.583 10.5471C129.766 10.9427 130.677 11.2029 131.288 11.319L132.006 11.456L131.868 10.7381C131.786 10.3112 131.733 9.75572 132.062 9.25518C132.377 8.77755 132.961 8.4626 133.849 8.29432C136.352 7.81877 136.979 8.52351 137.482 9.09124C137.983 9.65346 138.426 9.84976 139.874 9.60278C142.092 9.22361 142.812 9.44441 143.894 9.8676C144.666 10.169 145.541 10.5119 147.65 10.663C149.873 10.8226 150.503 10.4953 150.842 10.3195C151.564 9.94417 151.907 10.1572 153.103 11.0326C153.967 11.6638 154.646 11.8146 155.364 11.9743C156.611 12.2521 157.898 12.5374 159.898 15.1024C161.539 17.208 162.565 17.0533 163.943 16.576C164.648 16.3329 165.445 16.0569 166.299 16.4244C167.345 16.876 167.907 17.3931 168.238 18.2103C168.611 19.1296 168.703 20.4646 168.831 22.3124C168.858 22.7061 168.949 23.0941 169.099 23.4655C169.924 25.498 172.43 26.7669 174.445 27.7855C175.019 28.0762 175.549 28.3452 175.987 28.6031C176.417 28.8558 176.761 29.027 177.047 29.1701C178.431 29.8609 178.701 30.0761 180.158 33.6584C181.538 37.0605 180.676 39.3034 180.105 40.7871C179.905 41.3049 179.733 41.7523 179.686 42.1388C179.567 43.1009 179.764 45.5717 180.794 48.1116C181.332 49.439 182.03 50.6245 182.867 51.635C183.525 52.4289 183.987 53.1674 184.28 53.8908C185.305 56.4169 184.076 58.4308 182.373 61.2178L182.316 61.3116C181.109 63.2889 179.87 63.5141 179.049 63.6637L178.482 63.7726L178.503 64.201C178.509 64.3229 178.528 64.5077 178.578 64.7808C179.131 67.8275 178.623 70.0341 177.509 74.871L177.457 75.0966C176.901 77.5096 177.558 79.1422 177.993 80.2234L178.074 80.4216C178.357 81.1184 178.444 81.5145 178.173 81.88C177.853 82.3136 177.19 82.2935 176.593 82.2403C175.316 82.1275 174.238 83.5485 172.744 85.5153C171.228 87.5129 169.342 89.9979 166.42 91.8035C164.364 93.0738 163.275 94.0588 163.794 95.3375C163.877 95.5425 163.998 95.7523 164.134 95.9778C164.301 96.2566 164.488 96.565 164.624 96.8987C164.816 97.3739 164.87 97.8093 164.793 98.2687C164.685 98.9108 164.702 99.8919 164.719 100.931C164.766 103.621 164.826 106.954 162.836 107.979C161.601 108.616 160.492 108.21 159.513 107.853C158.284 107.404 157.224 107.016 155.795 108.389C155.347 108.82 154.89 109.244 154.437 109.666C152.01 111.922 149.722 114.05 149.444 116.478C149.123 119.271 145.382 120.46 142.081 121.511C141.285 121.764 140.509 122.01 139.8 122.272C137.738 123.031 137.105 122.721 136.078 122.061C135.329 121.578 134.302 120.914 131.738 120.514C129.746 120.202 129.182 120.424 128.931 120.619C128.537 120.926 128.455 121.603 128.335 122.873C128.2 124.274 128.017 126.184 127.103 128.586C125.314 133.29 123.721 134.104 121.975 134.626C121.531 134.759 121.146 134.873 120.789 135.117C119.378 136.083 118.334 135.595 116.754 134.857C116.067 134.536 115.301 134.178 114.299 133.81C111.068 132.622 110.267 132.765 107.288 133.301L107.004 133.353C104.309 133.836 104.113 134.404 103.152 139.428L103.04 140.012C102.184 144.465 99.7611 145.718 97.9921 146.633C97.5409 146.866 97.1498 147.068 96.8505 147.294C95.9527 147.97 95.2671 147.652 94.3944 147.128C93.5659 146.629 92.4297 145.947 90.1818 146.11C87.6851 146.29 87.0681 148.325 86.2872 150.9C85.8316 152.4 85.3171 154.093 84.3503 155.632C82.4782 158.61 81.1018 158.38 79.0559 157.648C78.2786 157.37 77.4022 157.056 76.3077 156.965C75.3644 156.885 74.5806 156.763 73.9516 156.664C72.2139 156.393 71.7485 156.319 71.3849 157.69C71.2552 158.186 71.3939 158.623 71.5094 158.908C71.6141 159.167 71.767 159.451 71.9526 159.785C72.115 160.074 72.2988 160.401 72.4423 160.755C72.8258 161.701 73.025 163 71.1517 164.658C69.5731 166.054 68.925 166.679 68.4523 167.134C67.9299 167.638 67.6459 167.911 66.621 168.728C65.2912 169.789 64.7401 169.633 63.8798 169.058C63.4951 168.801 63.0605 168.511 62.2597 168.333C61.758 168.223 61.3098 168.066 60.9145 167.927C59.4111 167.398 58.1321 166.947 54.255 169.127C51.4632 170.697 51.1341 170.999 51.5989 172.734C51.817 173.554 52.118 174.677 52.1367 176.37C52.1532 177.773 52.2379 178.592 52.2937 179.133C52.3976 180.126 52.3349 180.41 51.5197 180.704C51.2078 180.816 50.7448 180.984 50.0159 181.414C48.7846 182.139 48.0005 182.853 47.3079 183.484C46.3859 184.322 45.5899 185.047 44.2061 185.335C43.1001 185.564 42.6614 185.875 41.9338 186.391C41.3065 186.837 40.4473 187.447 38.8215 188.232C35.4447 189.861 34.825 191.371 34.7136 194.14C34.5783 197.447 33.6728 198.511 30.5019 199.088C29.2398 199.317 28.1384 199.211 27.1663 199.118C25.7136 198.981 24.6647 198.88 23.5388 199.76C22.9603 200.212 22.5417 200.54 22.9021 201.428C22.9818 201.625 23.1068 201.875 23.2752 202.212C23.5333 202.727 23.8531 203.368 24.1886 204.195C24.3768 204.659 24.5714 205.184 24.7608 205.78C25.1918 207.129 25.1763 208.131 24.7154 208.842C24.0721 209.832 22.7572 209.978 21.5968 210.107C20.7535 210.2 20.1751 210.278 19.8278 210.507C19.3989 210.79 19.004 211.115 18.621 211.429C18.1201 211.841 17.6115 212.261 17.0318 212.576C17.5038 213.421 17.943 214.253 18.3506 215.073C20.013 212.724 23.5773 209.633 29.0152 210.505C25.9855 210.997 23.8407 211.988 22.1756 213.562C22.6226 214.221 22.8232 214.906 22.767 215.644C22.6591 217.096 21.6177 218.208 20.6954 219.191C20.5812 219.313 20.478 219.426 20.3767 219.537C20.4717 219.766 20.5704 219.999 20.6617 220.225C21.0535 221.191 21.4096 222.111 21.7435 222.975L21.7887 223.091C21.9423 223.491 22.0898 223.873 22.2352 224.243C22.6628 224.305 23.1207 224.328 23.6234 224.29C26.7704 224.05 30.5486 221.333 31.8695 218.358C32.1282 217.779 32.3658 216.953 32.0406 216.296C31.6999 215.609 30.8425 215.268 29.6882 215.354C29.2297 215.39 28.7486 215.51 28.2717 215.702C28.314 215.695 28.3549 215.69 28.3991 215.689C29.3418 215.617 30.0852 215.993 30.4446 216.718C30.7674 217.372 30.7383 218.229 30.3608 219.075C29.5681 220.861 27.5291 222.368 25.7178 222.507C24.4379 222.606 23.4319 222.112 22.9548 221.157C22.5306 220.304 22.5748 219.209 23.0772 218.077C24.224 215.494 27.1925 213.315 29.8313 213.115C31.6467 212.975 33.0628 213.651 33.7142 214.97C34.2883 216.124 34.2225 217.617 33.5287 219.175C31.8309 222.999 27.415 226.231 23.4801 226.532C23.383 226.538 23.2902 226.536 23.1942 226.539C23.5182 227.241 23.745 227.634 23.8911 227.846L23.9679 227.854C23.9679 227.854 26.3712 229.512 26.5665 229.677C27.1622 230.177 27.9326 230.837 28.7437 231.726C31.1461 230.566 33.3544 228.745 34.6472 227.062C37.9598 222.751 37.8435 219.544 37.7489 216.967C37.6827 215.159 37.6383 213.964 38.7252 212.788C40.0448 211.36 41.9791 210.946 44.2172 210.465C46.697 209.934 49.5058 209.333 51.7558 207.094C54.5831 204.281 54.7147 202.692 54.8312 201.29C54.9399 199.963 55.0446 198.711 58.6961 195.642C60.1554 194.416 62.1502 193.652 64.079 192.913C66.1774 192.109 68.1593 191.351 69.334 190.021C70.6712 188.509 71.7417 185.901 72.8741 183.14C74.0737 180.22 75.3136 177.201 76.7484 175.89C80.0196 172.905 83.1068 172.491 86.0937 172.091C89.2128 171.674 92.4372 171.242 95.3566 167.87C97.8986 164.934 98.705 163.33 99.3541 162.041C100.061 160.635 100.528 159.706 103.188 157.539C105.763 155.441 110.18 154.437 114.858 153.373C119.285 152.366 123.866 151.324 127.722 149.238C133.206 146.272 135.597 143.293 137.909 140.414C139.033 139.016 140.094 137.694 141.503 136.358C143.387 134.576 145.079 134.192 147.421 133.662C150.251 133.019 153.773 132.221 159.102 128.741C165.456 124.594 165.487 122.612 164.865 120.453C164.64 119.672 164.517 119.242 165.154 118.395C166.133 117.094 167.413 116.656 169.033 116.101C171.109 115.389 173.693 114.505 175.958 111.324C178.231 108.133 178.313 104.36 178.386 101.031C178.436 98.672 178.481 96.6354 179.318 95.5283C179.715 95.0037 180.309 94.3775 180.995 93.6519C184.236 90.229 189.661 84.5016 191.152 72.6735C191.705 68.2793 191.529 65.0452 190.614 62.7876C190.038 61.3673 189.272 60.54 188.658 59.875C188.256 59.4416 187.94 59.0999 187.781 58.7074C187.661 58.4123 187.537 57.8881 187.829 56.7387C188.285 54.9537 188.98 54.004 189.716 52.9993C191.199 50.9733 192.599 49.0601 191.323 41.7993C190.935 39.5924 190.505 37.9243 190.01 36.7017C189.026 34.2749 187.81 33.794 186.832 33.4079C186.074 33.1084 185.475 32.8718 184.776 31.5464C184.08 30.2253 183.732 28.8689 183.352 27.4026C183.044 26.213 182.725 24.9839 182.206 23.7043C181.119 21.022 179.388 18.8007 176.756 16.7165C172.826 13.6025 171.39 13.5029 170.043 13.6885C169.559 13.755 169.293 13.7915 168.285 12.95C167.34 12.162 166.856 11.3617 166.344 10.5151C165.198 8.62383 164.014 6.66898 158.393 5.11068C153.778 3.83078 152.269 4.40278 151.225 5.82379C151.192 5.86834 151.152 5.92304 151.119 5.96409C151.053 5.95574 150.93 5.93054 150.727 5.85763C149.878 5.55731 148.899 4.76615 147.863 3.92867C145.809 2.26855 143.252 0.202242 139.853 0.418221C137.283 0.581498 135.957 1.65829 134.789 2.60852C133.618 3.5582 132.695 4.30925 130.526 4.23709C128.653 4.17569 127.911 3.3676 127.051 2.43314C126.011 1.30354 124.719 -0.10135 121.587 0.817377C118.61 1.69173 117.967 2.89865 117.344 4.06754C116.868 4.96055 116.417 5.80574 114.666 6.84104C112.951 7.85554 111.964 7.84027 110.823 7.82351C109.34 7.80173 107.659 7.77592 104.845 10.0546C101.802 12.5194 102.253 14.4696 102.915 16.1031L103.063 16.4658C103.428 17.3648 103.432 17.6512 103.081 18.0793C102.655 18.5998 102.38 18.5711 101.283 18.2098C100.09 17.817 98.0906 17.1602 96.4332 19.7727C95.0573 21.9414 95.7163 23.5666 96.1974 24.7534L96.3022 25.0117C96.7573 26.1341 97.1501 27.103 96.071 28.7393C95.1819 30.0866 94.1802 30.5174 93.0216 31.015C91.1223 31.8321 88.9696 32.7584 87.9104 37.6802C87.4965 39.6055 86.7649 41.5077 86.058 43.3463C84.7122 46.8461 83.4409 50.152 84.6179 53.055L84.6183 53.0559C85.2224 54.546 86.3961 55.7591 88.208 56.7617L88.8296 57.1069L89.3558 56.6281C89.792 56.2307 90.2197 55.8679 90.6394 55.5093C92.8434 53.63 94.9266 51.8541 97.374 46.4594C98.6529 43.6396 100.743 42.2968 102.956 40.8751C105.295 39.3712 107.715 37.815 108.907 34.4966C110.415 30.295 113.525 29.2922 117.127 28.1324C118.169 27.7965 119.248 27.4492 120.327 27.0116C121.233 26.6441 122.268 26.1345 123.364 25.5941C128.149 23.2355 134.702 20.0036 140.085 23.8548L141.407 24.798C147.155 28.895 152.117 32.4329 153.649 36.2109C153.821 36.6365 153.95 37.0662 154.03 37.4873L154.105 37.8798C155.048 42.8064 156.628 51.0531 148.303 60.1933C143.892 65.0367 140.97 70.3838 138.393 75.1012C135.705 80.0196 133.385 84.2665 130.093 86.7754C128.259 88.1743 125.956 90.3174 123.043 93.0292" fill="url(#paint0_linear_2242_4422)"/>
<defs>
<linearGradient id="paint0_linear_2242_4422" x1="113" y1="86" x2="-64" y2="387" gradientUnits="userSpaceOnUse">
<stop stop-color="#F2BC2B"/>
<stop offset="1" stop-color="#4900E6"/>
</linearGradient>
</defs>
</svg>
