<svg width="211" height="187" viewBox="0 0 211 187" fill="none" xmlns="http://www.w3.org/2000/svg">
<path d="M146.652 4.23284C164.652 9.86158 182.521 21.6426 194.872 38.7906C207.222 56.0696 214.317 78.5845 209.456 98.2196C204.726 117.855 188.171 134.479 172.404 150.842C156.637 167.204 141.659 183.305 124.184 186.447C106.578 189.457 86.6065 179.64 69.3944 170.084C52.051 160.659 37.7295 151.496 26.1672 139.192C14.6049 126.887 6.06458 111.571 2.12289 94.6853C-1.68741 77.6682 -0.767682 59.2112 8.16682 46.3829C17.1013 33.4237 34.182 26.2242 49.5546 19.4173C64.9272 12.6105 78.5917 6.19636 94.4898 2.66204C110.519 -0.872284 128.651 -1.39589 146.652 4.23284Z" fill="#F7C032"/>
<path d="M162.995 79.8485C161.985 81.8239 160.552 83.1089 158.696 83.7036C156.848 84.3019 154.814 84.1316 152.594 83.1925C150.166 82.1654 148.599 80.5415 147.893 78.3208C147.199 76.095 147.455 73.5558 148.662 70.703L149.152 69.5454C149.922 67.7245 150.921 66.256 152.15 65.1401C153.379 64.0242 154.743 63.349 156.242 63.1145C157.755 62.875 159.3 63.089 160.878 63.7566C163.063 64.681 164.576 66.0109 165.416 67.7464C166.256 69.4819 166.332 71.4516 165.646 73.6554L161.744 72.0047C162.165 70.7417 162.197 69.7124 161.838 68.9166C161.492 68.1159 160.721 67.4625 159.524 66.9563C158.224 66.406 157.05 66.4616 156.004 67.123C154.969 67.7793 154.029 69.0837 153.183 71.036L152.577 72.4667C151.712 74.5131 151.387 76.1391 151.603 77.3447C151.827 78.5539 152.607 79.441 153.942 80.0059C155.148 80.5158 156.161 80.6223 156.981 80.3255C157.815 80.0236 158.518 79.3144 159.093 78.1978L162.995 79.8485Z" fill="white" style="mix-blend-mode:multiply"/>
<path d="M168.117 85.7568L176.402 89.2617L175.076 92.3963L162.889 87.2407L170.9 68.303L174.802 69.9537L168.117 85.7568Z" fill="white" style="mix-blend-mode:multiply"/>
<path d="M181.475 95.1035L177.573 93.4528L185.584 74.5151L189.486 76.1658L181.475 95.1035Z" fill="white" style="mix-blend-mode:multiply"/>
</svg>
