<svg width="65" height="68" viewBox="0 0 65 68" fill="none" xmlns="http://www.w3.org/2000/svg">
<path d="M49.2084 60.5372C44.175 64.5781 37.4185 67.4078 30.1898 67.6458C22.924 67.8587 15.1729 65.5794 10.5212 60.4522C5.84442 55.3623 4.27904 47.4867 2.63765 39.8851C0.996256 32.2835 -0.721141 24.9559 1.71997 19.3912C4.22333 13.8142 10.8229 10.0124 16.8218 6.94477C22.8085 3.8148 28.1443 1.49355 33.8464 0.555641C39.5485 -0.382263 45.5295 0.112874 51.0796 2.21435C56.6418 4.37813 61.7107 8.16062 63.6513 13.1466C65.6291 18.1576 64.4162 24.3844 63.4176 30.051C62.419 35.7176 61.6346 40.8239 59.6059 46.0155C57.5521 51.2445 54.2418 56.4964 49.2084 60.5372Z" fill="#F7C032"/>
</svg>
