<svg width="222" height="214" viewBox="0 0 222 214" fill="none" xmlns="http://www.w3.org/2000/svg">
<path d="M144.963 174.138C132.241 180.674 118.944 187.648 107.023 185.896C95.1022 184.144 84.5264 173.507 73.1843 163.592C61.7478 153.612 49.5147 144.195 43.9263 131.702C38.3075 119.051 39.239 103.26 40.9513 85.1012C42.7277 66.8481 45.3153 46.3858 56.5674 34.2956C67.978 22.1752 87.989 18.5214 105.114 22.5675C122.144 26.5495 136.225 38.3258 146.861 49.28C157.527 60.3928 164.686 70.778 174.911 81.7286C185.2 92.5848 198.555 104.006 200.25 116.338C201.946 128.669 192.012 142.069 180.876 151.754C169.835 161.503 157.686 167.601 144.963 174.138Z" fill="#F7C032"/>
<path d="M108.793 73.4289L102.252 91.0561C101.165 93.9848 99.3926 95.962 96.9343 96.9876C94.4881 98.0177 91.6884 97.9478 88.535 96.7777C85.4303 95.6257 83.2717 93.8837 82.0593 91.5518C80.8468 89.2198 80.7588 86.6011 81.7954 83.6956L88.4111 65.8662L93.89 67.8992L87.3356 85.5632C86.6854 87.3155 86.6242 88.7496 87.1521 89.8656C87.6966 90.9738 88.7055 91.8013 90.1787 92.3479C93.259 93.4909 95.4283 92.4416 96.6864 89.2002L103.295 71.3891L108.793 73.4289Z" fill="white" style="mix-blend-mode:multiply"/>
<path d="M109.181 104.02L103.702 101.987L113.632 75.2247L119.111 77.2576L109.181 104.02Z" fill="white" style="mix-blend-mode:multiply"/>
</svg>
