<svg width="246" height="99" viewBox="0 0 246 99" fill="none" xmlns="http://www.w3.org/2000/svg">
<mask id="mask0_1156_8207" style="mask-type:alpha" maskUnits="userSpaceOnUse" x="0" y="0" width="246" height="84">
<path d="M123 84C85.1948 84 76.6753 76.1869 62.2987 76.1869C44.1948 76.1869 45.7922 84 0 84V0H246V84H206.065H132.584H123Z" fill="#282D33"/>
</mask>
<g mask="url(#mask0_1156_8207)">
<path d="M103.161 83.9748V80.4733H106.716V56.2864H103.267V52.8389H111.917V72.6085L120.249 66.1443H116.746V62.6429H128.156V66.1443H125.343L117.224 72.6624L124.812 80.4733H128.315V83.9748H121.788L111.917 73.5243V80.4733H115.048V83.9748H103.161Z" fill="white"/>
<path d="M125.926 83.9748V80.4733H129.535V66.1443H125.926V62.6429H134.736V69.0532H133.94C134.399 67.3294 134.948 65.9827 135.585 65.0131C136.257 64.0435 137 63.3611 137.814 62.9661C138.627 62.5352 139.441 62.3197 140.255 62.3197C140.998 62.3197 141.705 62.4095 142.377 62.589C143.085 62.7686 143.775 63.02 144.447 63.3432L143.28 67.9759C142.678 67.5808 142.041 67.2935 141.369 67.114C140.732 66.8985 140.06 66.7908 139.352 66.7908C138.185 66.7908 137.124 67.2576 136.168 68.1913C135.249 69.1251 134.789 70.5077 134.789 72.3392L134.736 80.4733H138.238V83.9748H125.926Z" fill="white"/>
<path d="M147.896 84.5673C145.738 84.5673 144.005 83.9748 142.696 82.7897C141.422 81.5686 140.785 80.0603 140.785 78.2647C140.785 76.6128 141.174 75.302 141.953 74.3323C142.731 73.3627 143.757 72.6624 145.031 72.2315C146.304 71.8005 147.684 71.585 149.17 71.585C150.408 71.585 151.611 71.6928 152.779 71.9083C153.946 72.1237 155.043 72.3931 156.069 72.7163L154.583 72.9318V70.5077C154.583 68.9275 154.176 67.7604 153.362 67.0062C152.549 66.2521 151.417 65.875 149.966 65.875C148.975 65.875 147.843 66.0366 146.57 66.3598C145.331 66.683 144.093 67.1499 142.855 67.7604L141.475 64.5283C142.89 63.7023 144.412 63.0918 146.039 62.6968C147.702 62.3017 149.241 62.1042 150.656 62.1042C152.602 62.1042 154.247 62.4274 155.591 63.0738C156.971 63.7203 158.015 64.654 158.722 65.875C159.43 67.0601 159.784 68.4607 159.784 70.0767V80.4733H162.809V83.9748H155.326L154.742 80.8504L156.5 83.4899C155.226 84.7469 153.752 83.041 152.407 83.6515C151.098 84.2621 149.595 84.5673 147.896 84.5673ZM149.223 81.3352C150.355 81.3352 151.47 81.0838 152.566 80.5811C153.699 80.0783 154.848 79.2882 156.016 78.2108L154.583 80.204V74.2785L155.75 75.302C154.972 75.0147 154.088 74.7812 153.097 74.6017C152.106 74.4221 151.08 74.3323 150.019 74.3323C148.887 74.3323 147.861 74.5837 146.941 75.0865C146.057 75.5893 145.614 76.5409 145.614 77.9415C145.614 78.9111 145.933 79.7192 146.57 80.3656C147.207 81.012 148.091 81.3352 149.223 81.3352Z" fill="white"/>
<path d="M159.89 83.9748V80.4733H163.445V56.2864H159.996V52.8389H168.646V72.6085L176.978 66.1443H173.475V62.6429H184.885V66.1443H182.072L173.953 72.6624L181.541 80.4733H191.465V83.9748H178.517L168.646 73.5243V80.4733H171.777V83.9748H159.89Z" fill="white"/>
<path d="M194.808 84.5673C192.509 84.5673 190.457 84.1184 188.653 83.2206C186.848 82.2869 185.433 80.9761 184.407 79.2882C183.381 77.6003 182.868 75.6072 182.868 73.3088C182.868 71.0464 183.363 69.0712 184.354 67.3833C185.345 65.6954 186.671 64.4026 188.334 63.5048C190.032 62.5711 191.943 62.1042 194.065 62.1042C196.224 62.1042 198.081 62.5711 199.638 63.5048C201.194 64.4026 202.379 65.6775 203.193 67.3294C204.042 68.9814 204.467 70.9027 204.467 73.0934V74.3323H186.636L186.689 71.4773H199.425C199.425 70.2922 199.195 69.2687 198.735 68.4068C198.276 67.5449 197.639 66.8985 196.825 66.4676C196.011 66.0007 195.074 65.7673 194.012 65.7673C192.845 65.7673 191.801 66.0546 190.881 66.6292C189.997 67.2037 189.289 68.0118 188.759 69.0532C188.263 70.0947 188.016 71.3696 188.016 72.8779C188.016 74.458 188.299 75.8227 188.865 76.9719C189.466 78.1211 190.298 79.0009 191.359 79.6114C192.42 80.2219 193.641 80.5272 195.021 80.5272C196.507 80.5272 197.886 80.2399 199.16 79.6653C200.434 79.0907 201.548 78.3725 202.503 77.5106L204.148 80.7427C203.122 81.82 201.813 82.7358 200.221 83.4899C198.665 84.2082 196.86 84.5673 194.808 84.5673Z" fill="white"/>
<path d="M195.18 83.9748V80.4733H207.704V66.1443H204.095V62.6429H212.745L212.798 65.4979L211.153 65.8211C212.639 64.7438 214.125 63.8639 215.611 63.1816C217.097 62.4633 218.636 62.1042 220.228 62.1042C222.28 62.1042 223.96 62.7506 225.269 64.0435C226.578 65.3363 227.233 67.114 227.233 69.3764V80.4733H230.735V83.9748H218.954V80.4733H221.979V70.2922C221.979 68.9635 221.661 67.922 221.024 67.1678C220.387 66.4137 219.503 66.0366 218.371 66.0366C217.274 66.0366 216.142 66.288 214.974 66.7908C213.842 67.2935 212.639 67.9938 211.366 68.8916L212.958 66.6292V80.4733H216.195V83.9748H195.18Z" fill="white"/>
<path d="M121.415 50.7985C118.694 50.7985 116.183 50.4119 113.884 49.6388C111.584 48.8271 109.572 47.6867 107.847 46.2178C106.161 44.7103 104.838 42.8934 103.88 40.7674C102.96 38.6413 102.5 36.2254 102.5 33.5195C102.5 29.9632 103.267 26.8901 104.8 24.3001C106.371 21.6716 108.479 19.6615 111.124 18.2699C113.807 16.8396 116.873 16.1245 120.323 16.1245C122.737 16.1245 124.845 16.4917 126.647 17.2262C128.487 17.9606 129.981 18.9657 131.131 20.2413C132.319 21.517 133.124 23.0245 133.546 24.764L131.246 23.0825V16.7043H137.685V28.6489H132.166C131.17 26.7548 129.905 25.3245 128.372 24.3581C126.877 23.3531 124.999 22.8506 122.737 22.8506C120.629 22.8506 118.809 23.2951 117.276 24.1842C115.781 25.0733 114.612 26.3102 113.769 27.8951C112.964 29.4413 112.561 31.2775 112.561 33.4035C112.561 35.027 112.791 36.496 113.251 37.8102C113.711 39.0859 114.344 40.2069 115.148 41.1733C115.992 42.101 116.988 42.8161 118.138 43.3187C119.288 43.8212 120.572 44.0724 121.99 44.0724C123.561 44.0724 124.941 43.7825 126.129 43.2027C127.318 42.6229 128.314 41.7724 129.119 40.6514C129.924 39.4918 130.518 38.0808 130.901 36.4186L138.548 39.0859C138.011 41.4439 136.976 43.5119 135.443 45.2901C133.948 47.0296 132.013 48.3825 129.636 49.3489C127.298 50.3153 124.558 50.7985 121.415 50.7985Z" fill="#FEBD0F"/>
<path d="M143.435 50.8565C140.867 50.8565 138.624 50.354 136.708 49.3489C134.792 48.3052 133.297 46.8556 132.224 45.0002C131.15 43.1447 130.614 40.9993 130.614 38.564C130.614 36.1287 131.15 34.0027 132.224 32.1859C133.297 30.3691 134.792 28.9581 136.708 27.9531C138.624 26.9094 140.867 26.3875 143.435 26.3875C146.002 26.3875 148.245 26.9094 150.161 27.9531C152.077 28.9581 153.572 30.3691 154.645 32.1859C155.719 34.0027 156.255 36.1287 156.255 38.564C156.255 40.9993 155.719 43.1447 154.645 45.0002C153.572 46.8556 152.077 48.3052 150.161 49.3489C148.245 50.354 146.002 50.8565 143.435 50.8565ZM143.435 44.3624C144.431 44.3624 145.293 44.1304 146.022 43.6666C146.788 43.2027 147.363 42.5455 147.746 41.6951C148.13 40.806 148.321 39.7623 148.321 38.564C148.321 37.3657 148.13 36.3413 147.746 35.4909C147.363 34.6405 146.788 33.9833 146.022 33.5195C145.293 33.0556 144.431 32.8237 143.435 32.8237C142.4 32.8237 141.518 33.0556 140.79 33.5195C140.1 33.9833 139.544 34.6405 139.123 35.4909C138.739 36.3413 138.548 37.3657 138.548 38.564C138.548 39.7623 138.739 40.806 139.123 41.6951C139.544 42.5455 140.1 43.2027 140.79 43.6666C141.518 44.1304 142.4 44.3624 143.435 44.3624Z" fill="#FEBD0F"/>
<path d="M154.818 50.2187V45.1161H157.808V32.0699H154.76V27.0254H157.808V24.88C157.808 21.9422 158.651 19.6228 160.337 17.922C162.024 16.2211 164.419 15.3707 167.524 15.3707C170.513 15.3707 172.775 16.0472 174.308 17.4001C175.879 18.7144 176.799 20.5119 177.067 22.7926L171.146 23.7783C171.107 22.7346 170.897 21.9228 170.513 21.343C170.168 20.7245 169.593 20.4153 168.788 20.4153C167.984 20.4153 167.37 20.7438 166.949 21.401C166.527 22.0195 166.316 23.0438 166.316 24.4741V27.0254H174.193V24.0682C174.193 22.2514 174.576 20.6279 175.343 19.1976C176.109 17.7674 177.259 16.627 178.792 15.7766C180.364 14.9262 182.357 14.501 184.771 14.501C186.764 14.501 188.412 14.7909 189.716 15.3707C191.057 15.9119 192.111 16.7237 192.878 17.806C193.644 18.8497 194.123 20.164 194.315 21.7489L187.818 22.9086C187.78 21.8649 187.569 21.0531 187.186 20.4733C186.803 19.8934 186.189 19.6035 185.346 19.6035C184.503 19.6035 183.851 19.9127 183.391 20.5312C182.97 21.1497 182.759 22.2707 182.759 23.8943V27.0254H186.726V32.0699H182.759V45.1161H186.669V50.2187H171.031V45.1161H174.193V32.0699H166.316V45.1161H171.433V50.2187H154.818Z" fill="#FEBD0F"/>
<path d="M198.282 50.8565C195.637 50.8565 193.318 50.3733 191.325 49.4069C189.371 48.4405 187.838 47.0489 186.726 45.2321C185.614 43.3766 185.059 41.1733 185.059 38.622C185.059 36.1867 185.595 34.0607 186.669 32.2439C187.742 30.427 189.217 28.9968 191.095 27.9531C193.012 26.9094 195.196 26.3875 197.649 26.3875C200.064 26.3875 202.115 26.9094 203.801 27.9531C205.526 28.9581 206.829 30.3691 207.711 32.1859C208.63 33.964 209.09 36.0321 209.09 38.3901V39.9556H189.773L189.831 36.3027H201.214C201.214 35.3749 201.061 34.6018 200.754 33.9834C200.486 33.3262 200.064 32.8237 199.489 32.4758C198.914 32.1279 198.205 31.9539 197.362 31.9539C196.404 31.9539 195.599 32.2052 194.947 32.7077C194.296 33.1716 193.798 33.8674 193.453 34.7951C193.146 35.6842 192.993 36.7472 192.993 37.9842C192.993 39.4144 193.261 40.6128 193.798 41.5792C194.372 42.5069 195.139 43.222 196.097 43.7245C197.055 44.1884 198.167 44.4203 199.432 44.4203C200.812 44.4203 202.115 44.1884 203.341 43.7245C204.568 43.2607 205.641 42.6615 206.561 41.9271L208.918 47.0296C207.615 48.1892 206.062 49.117 204.261 49.8128C202.46 50.5086 200.467 50.8565 198.282 50.8565Z" fill="#FEBD0F"/>
<path d="M219.266 50.8565C216.622 50.8565 214.303 50.3733 212.31 49.4069C210.355 48.4405 208.822 47.0489 207.711 45.2321C206.599 43.3766 206.043 41.1733 206.043 38.622C206.043 36.1867 206.58 34.0607 207.653 32.2439C208.726 30.427 210.202 28.9968 212.08 27.9531C213.996 26.9094 216.181 26.3875 218.634 26.3875C221.049 26.3875 223.099 26.9094 224.786 27.9531C226.51 28.9581 227.814 30.3691 228.695 32.1859C229.615 33.964 230.075 36.0321 230.075 38.3901V39.9556H210.758L210.815 36.3027H222.199C222.199 35.3749 222.045 34.6018 221.739 33.9834C221.47 33.3262 221.049 32.8237 220.474 32.4758C219.899 32.1279 219.19 31.9539 218.347 31.9539C217.388 31.9539 216.584 32.2052 215.932 32.7077C215.28 33.1716 214.782 33.8674 214.437 34.7951C214.131 35.6842 213.977 36.7472 213.977 37.9842C213.977 39.4144 214.246 40.6128 214.782 41.5792C215.357 42.5069 216.124 43.222 217.082 43.7245C218.04 44.1884 219.152 44.4203 220.416 44.4203C221.796 44.4203 223.099 44.1884 224.326 43.7245C225.552 43.2607 226.625 42.6615 227.545 41.9271L229.903 47.0296C228.599 48.1892 227.047 49.117 225.246 49.8128C223.444 50.5086 221.451 50.8565 219.266 50.8565Z" fill="#FEBD0F"/>
<mask id="mask1_1156_8207" style="mask-type:alpha" maskUnits="userSpaceOnUse" x="-1" y="-14" width="116" height="99">
<rect y="-13" width="114" height="97" fill="#C4C4C4" stroke="black"/>
</mask>
<g mask="url(#mask1_1156_8207)">
<path d="M56.9726 22.9571C58.2833 22.3399 59.7711 22.1674 60.9429 22.1897C62.8497 22.226 64.7941 22.7417 66.4785 23.5658C68.1629 24.3898 69.5969 25.5269 70.4526 26.8421C71.1785 27.9576 71.7261 29.6511 70.7728 31.2987C73.6508 32.0815 75.2 34.0314 75.8804 35.6246C76.6606 37.4516 76.7001 39.5486 76.1139 41.5512C75.5277 43.5538 74.3242 45.4342 72.602 46.8252C71.3458 47.8398 69.4018 48.8781 67.0236 49.0458C67.2145 49.9754 67.1854 50.8956 67.0336 51.7123C66.6229 53.9217 65.2498 56.1589 63.2408 58.0645C61.2318 59.9702 58.6727 61.4631 55.9528 62.2233C55.5824 62.3268 55.1907 62.4206 54.7829 62.5L71.2091 54.5629C74.0013 54.2356 77 61.5 82.4129 53.5155C91.5361 39.8024 89.002 33.5849 83.9172 27.8945C80.096 23.6182 67.4287 20.3285 59.7859 18.3436C57.2585 17.6872 55.2805 17.1736 54.3536 16.8141C51.3697 15.6569 46.4865 10.5772 52.811 1.5C40.4732 10.1996 46.831 16.8056 49.7992 19.4978C50.7087 20.3227 52.8157 21.2075 55.357 22.2747C55.8794 22.4941 56.4202 22.7212 56.9726 22.9571Z" fill="white"/>
<path d="M66.6335 30.3367C65.7135 31.4002 63.0073 31.3513 60.5891 30.2274C58.1708 29.1035 56.9562 27.3303 57.8761 26.2667C58.7961 25.2032 61.5023 25.2521 63.9206 26.376C66.3389 27.4999 67.5535 29.2731 66.6335 30.3367Z" fill="white"/>
<path d="M65.3948 45.0571C63.0616 44.6708 61.8822 42.0472 62.7604 39.1969C63.6386 36.3466 66.2419 34.3491 68.575 34.7354C70.9082 35.1216 72.0876 37.7453 71.2094 40.5955C70.3312 43.4458 67.7279 45.4433 65.3948 45.0571Z" fill="white"/>
<path d="M50.4215 50.1548C47.2269 53.0335 46.5474 56.5061 48.9039 57.911C51.2603 59.316 55.7603 58.1213 58.9549 55.2426C62.1495 52.3639 62.829 48.8913 60.4725 47.4863C58.1161 46.0814 53.6161 47.2761 50.4215 50.1548Z" fill="white"/>
<path d="M50 46C48.7201 45.2042 45.2314 43.78 44.862 39.9607C44.3194 34.351 43.2553 32.6495 42.7911 32.5C43.3521 32.8998 44.17 34.8739 42.9539 39.5712C42.8184 40.0948 42.6905 40.5783 42.5718 41.0274C41.6827 44.3906 41.3044 45.822 42.0094 47.6921C39.456 46.0314 36.6704 44.6786 34.9397 44.9622C30.9639 45.6138 30.392 46.4678 27.7526 50.4101C27.4942 50.796 27.2158 51.2118 26.9127 51.6596C24.1927 55.6777 22.1709 56.3692 21.5 56.2127C21.9191 56.4621 23.8992 56.1354 28.4665 52.8335C34.1757 48.7062 35.5369 49.7983 38.203 53.5433C39.4079 55.2357 41.976 55.4259 44.1603 54.8188C43.9793 53.9626 43.9877 53.1022 44.0955 52.3506C44.351 50.5685 45 50 46 49C47.3672 47.6328 49.7445 46.2619 50 46Z" fill="white"/>
<path fill-rule="evenodd" clip-rule="evenodd" d="M26.5464 52.2061H85.7178C89.861 52.2061 93.2198 55.5648 93.2198 59.7081V111.378C93.2198 119.665 86.5022 126.382 78.2157 126.382H34.0484C25.7619 126.382 19.0443 119.665 19.0443 111.378V107.838H15.5038C7.21731 107.838 0.499756 101.12 0.499756 92.8335V83.8995C0.499756 75.6129 7.21732 68.8954 15.5039 68.8954H19.0443V59.7081C19.0443 55.5648 22.4031 52.2061 26.5464 52.2061ZM85.0083 63.9371C87.2546 68.3979 86.5444 73.2887 83.4219 74.8612C80.2993 76.4336 75.947 74.0922 73.7007 69.6315C71.4543 65.1707 72.1646 60.2799 75.2871 58.7074C78.4096 57.135 82.762 59.4764 85.0083 63.9371ZM11.1173 85.8688C11.1173 81.7256 14.4761 78.3668 18.6193 78.3668H21.6202C25.7634 78.3668 29.1222 81.7256 29.1222 85.8688V88.8697C29.1222 93.0129 25.7634 96.3717 21.6202 96.3717H18.6193C14.4761 96.3717 11.1173 93.0129 11.1173 88.8697V85.8688ZM86.8975 86.504C87.1579 90.169 85.2893 93.2879 82.7238 93.4702C80.1582 93.6525 77.8673 90.8292 77.6069 87.1642C77.3465 83.4991 78.9345 82.6823 81.5 82.5C84.0655 82.3177 86.6371 82.8389 86.8975 86.504Z" fill="#FEBD0F"/>
<path d="M28.4665 52.8335C23.8992 56.1354 21.9191 56.4621 21.5 56.2127C22.1381 56.3615 23.9981 55.7433 26.5186 52.2256L29.3315 52.2256C29.0547 52.4141 28.7666 52.6166 28.4665 52.8335Z" fill="white"/>
<path d="M29.3525 55.8613H68.0305C68.4176 56.7518 68.6324 57.7353 68.6324 58.7693V108.84C68.6324 116.87 62.1558 123.38 54.1667 123.38H26.2547C23.6968 120.757 22.1196 117.165 22.1196 113.202V99.3732H23.62C27.7633 99.3732 31.1221 96.0144 31.1221 91.8712V88.8704C31.1221 84.7271 27.7633 81.3683 23.62 81.3683H22.1196V63.1312C22.1196 59.1161 25.3579 55.8613 29.3525 55.8613Z" fill="black" fill-opacity="0.05"/>
</g>
</g>
<path d="M0 0H44.2692L38.3462 7H7V61.9692C4.81297 62.9297 1.90992 64.7665 0 68.1561V0Z" fill="white"/>
<path d="M0 92V99H246V0H59V7H239V92H0Z" fill="white"/>
</svg>
