<svg width="64" height="64" viewBox="0 0 64 64" fill="none" xmlns="http://www.w3.org/2000/svg">
<path d="M41.5855 10.6632V11.9132H42.8355H43.8544C44.2894 11.9132 44.642 12.2659 44.642 12.7009V24.8588C44.642 25.2938 44.2894 25.6465 43.8544 25.6465H20.4214C19.9864 25.6465 19.6338 25.2938 19.6338 24.8588V12.7009C19.6338 12.2659 19.9864 11.9132 20.4214 11.9132H20.8969H22.1469V10.6632V8.6256C22.1469 8.1906 22.4995 7.83795 22.9345 7.83795H27.6211C28.0561 7.83795 28.4088 8.1906 28.4088 8.6256V10.6632V11.9132H29.6588H34.0737H35.3237V10.6632V8.6256C35.3237 8.1906 35.6763 7.83795 36.1113 7.83795H40.7979C41.2329 7.83795 41.5855 8.1906 41.5855 8.6256V10.6632Z" stroke="black" stroke-width="2.5"/>
<mask id="path-2-inside-1_1087_8085" fill="white">
<path fill-rule="evenodd" clip-rule="evenodd" d="M45.0768 26.4889H45.0769C44.7363 26.7448 44.3129 26.8965 43.8541 26.8965H32.307C32.307 26.8965 32.307 26.8965 32.307 26.8965H43.854C44.3128 26.8965 44.7362 26.7448 45.0768 26.4889ZM31.4922 28.9341H43.8541C46.1048 28.9341 47.9294 27.1096 47.9294 24.8588V22.8742C48.2807 22.5864 48.7301 22.4136 49.2197 22.4136H53.9063C55.0316 22.4136 55.9439 23.3259 55.9439 24.4513V26.4889H56.9628C58.0881 26.4889 59.0004 27.4012 59.0004 28.5266V40.6845C59.0004 41.8099 58.0881 42.7222 56.9628 42.7222H33.5298C32.4045 42.7222 31.4922 41.8099 31.4922 40.6845V28.9341Z"/>
</mask>
<path d="M45.0768 26.4889V23.9889H44.2423L43.5751 24.4902L45.0768 26.4889ZM45.0769 26.4889L46.5786 28.4876L52.5661 23.9889H45.0769V26.4889ZM32.307 26.8965L30.8033 24.8993L24.8305 29.3965H32.307V26.8965ZM32.307 26.8965V24.3965H31.4711L30.8033 24.8993L32.307 26.8965ZM31.4922 28.9341V26.4341H28.9922V28.9341H31.4922ZM47.9294 22.8742L46.3451 20.9402L45.4294 21.6904V22.8742H47.9294ZM55.9439 26.4889H53.4439V28.9889H55.9439V26.4889ZM45.0768 28.9889H45.0769V23.9889H45.0768V28.9889ZM43.8541 29.3965C44.8729 29.3965 45.8199 29.0577 46.5786 28.4876L43.5752 24.4902C43.6527 24.432 43.7528 24.3965 43.8541 24.3965V29.3965ZM32.307 29.3965H43.8541V24.3965H32.307V29.3965ZM33.8108 28.8937L33.8108 28.8936L30.8033 24.8993L30.8033 24.8993L33.8108 28.8937ZM43.854 24.3965H32.307V29.3965H43.854V24.3965ZM43.5751 24.4902C43.6526 24.432 43.7528 24.3965 43.854 24.3965V29.3965C44.8729 29.3965 45.8198 29.0577 46.5785 28.4877L43.5751 24.4902ZM31.4922 31.4341H43.8541V26.4341H31.4922V31.4341ZM43.8541 31.4341C47.4855 31.4341 50.4294 28.4903 50.4294 24.8588H45.4294C45.4294 25.7288 44.7241 26.4341 43.8541 26.4341V31.4341ZM50.4294 24.8588V22.8742H45.4294V24.8588H50.4294ZM49.5136 24.8082C49.4346 24.8729 49.3285 24.9136 49.2197 24.9136V19.9136C48.1316 19.9136 47.1269 20.2998 46.3451 20.9402L49.5136 24.8082ZM49.2197 24.9136H53.9063V19.9136H49.2197V24.9136ZM53.9063 24.9136C53.6509 24.9136 53.4439 24.7066 53.4439 24.4513H58.4439C58.4439 21.9452 56.4123 19.9136 53.9063 19.9136V24.9136ZM53.4439 24.4513V26.4889H58.4439V24.4513H53.4439ZM55.9439 28.9889H56.9628V23.9889H55.9439V28.9889ZM56.9628 28.9889C56.7074 28.9889 56.5004 28.7819 56.5004 28.5266H61.5004C61.5004 26.0205 59.4688 23.9889 56.9628 23.9889V28.9889ZM56.5004 28.5266V40.6845H61.5004V28.5266H56.5004ZM56.5004 40.6845C56.5004 40.4292 56.7074 40.2222 56.9628 40.2222V45.2222C59.4688 45.2222 61.5004 43.1906 61.5004 40.6845H56.5004ZM56.9628 40.2222H33.5298V45.2222H56.9628V40.2222ZM33.5298 40.2222C33.7852 40.2222 33.9922 40.4292 33.9922 40.6845H28.9922C28.9922 43.1906 31.0238 45.2222 33.5298 45.2222V40.2222ZM33.9922 40.6845V28.9341H28.9922V40.6845H33.9922Z" fill="black" mask="url(#path-2-inside-1_1087_8085)"/>
<mask id="path-4-inside-2_1087_8085" fill="white">
<path fill-rule="evenodd" clip-rule="evenodd" d="M44.6268 42.7221C44.6268 42.7221 44.6268 42.7221 44.6268 42.7221H33.5291C32.606 42.7221 31.8262 42.1083 31.5758 41.2664C31.8262 42.1082 32.606 42.7221 33.5291 42.7221H44.6268ZM29.4538 40.1576V40.6845C29.4538 42.9352 31.2784 44.7598 33.5291 44.7598H45.2791V56.3743C45.2791 57.4997 44.3668 58.412 43.2414 58.412H6.8355C5.71014 58.412 4.79785 57.4997 4.79785 56.3743V44.2164C4.79785 43.091 5.71014 42.1787 6.8355 42.1787H7.31095V40.1411C7.31095 39.0157 8.22323 38.1035 9.34859 38.1035H14.0352C15.1605 38.1035 16.0728 39.0157 16.0728 40.1411V42.1787H20.4877V40.1411C20.4877 39.0157 21.4 38.1035 22.5254 38.1035H27.212C28.3373 38.1035 29.4194 39.0157 29.4194 40.1411L29.4538 40.1576Z"/>
</mask>
<path d="M28.1737 40.0373L28.0039 42.0749L30.4953 42.2826L30.6651 40.2449L28.1737 40.0373ZM44.6268 42.7221V45.2221H51.1083L46.3056 40.8697L44.6268 42.7221ZM44.6268 42.7221L46.3056 40.8696L45.5911 40.2221H44.6268V42.7221ZM31.5758 41.2664L33.972 40.5536L29.1795 41.9793L31.5758 41.2664ZM29.4538 40.1576H31.9538V38.5845L30.5356 37.9038L29.4538 40.1576ZM45.2791 44.7598H47.7791V42.2598H45.2791V44.7598ZM7.31095 42.1787V44.6787H9.81095V42.1787H7.31095ZM16.0728 42.1787H13.5728V44.6787H16.0728V42.1787ZM20.4877 42.1787V44.6787H22.9877V42.1787H20.4877ZM29.4194 40.1411H26.9194V41.7142L28.3376 42.3949L29.4194 40.1411ZM46.3056 40.8697C46.3108 40.8744 46.3149 40.8782 46.3174 40.8804C46.3197 40.8825 46.3216 40.8843 46.3213 40.884C46.3213 40.884 46.3213 40.884 46.3213 40.884C46.3213 40.884 46.3213 40.884 46.3213 40.884C46.3213 40.884 46.3213 40.884 46.3213 40.884C46.3213 40.884 46.3213 40.884 46.3213 40.884C46.3213 40.884 46.3213 40.884 46.3212 40.884C46.3212 40.8839 46.3211 40.8839 46.3211 40.8838C46.3209 40.8836 46.3206 40.8834 46.3203 40.8831C46.3197 40.8825 46.3187 40.8816 46.3174 40.8804C46.3149 40.8781 46.3108 40.8743 46.3056 40.8696L42.948 44.5746C42.9428 44.5699 42.9387 44.5661 42.9362 44.5638C42.9339 44.5617 42.932 44.5599 42.9323 44.5602C42.9323 44.5602 42.9323 44.5602 42.9323 44.5602C42.9323 44.5602 42.9323 44.5602 42.9323 44.5602C42.9323 44.5602 42.9323 44.5602 42.9323 44.5602C42.9323 44.5602 42.9323 44.5602 42.9323 44.5603C42.9323 44.5603 42.9323 44.5603 42.9324 44.5603C42.9324 44.5603 42.9325 44.5604 42.9325 44.5605C42.9327 44.5606 42.9329 44.5608 42.9333 44.5611C42.9339 44.5617 42.9349 44.5627 42.9362 44.5638C42.9387 44.5661 42.9428 44.5699 42.948 44.5746L46.3056 40.8697ZM33.5291 45.2221H44.6268V40.2221H33.5291V45.2221ZM29.1795 41.9793C29.7367 43.8521 31.4696 45.2221 33.5291 45.2221V40.2221C33.7423 40.2221 33.9157 40.3644 33.972 40.5536L29.1795 41.9793ZM33.5291 40.2221C33.7422 40.2221 33.9157 40.3643 33.972 40.5536L29.1796 41.9793C29.7367 43.8522 31.4697 45.2221 33.5291 45.2221V40.2221ZM44.6268 40.2221H33.5291V45.2221H44.6268V40.2221ZM26.9538 40.1576V40.6845H31.9538V40.1576H26.9538ZM26.9538 40.6845C26.9538 44.316 29.8977 47.2598 33.5291 47.2598V42.2598C32.6591 42.2598 31.9538 41.5545 31.9538 40.6845H26.9538ZM33.5291 47.2598H45.2791V42.2598H33.5291V47.2598ZM47.7791 56.3743V44.7598H42.7791V56.3743H47.7791ZM43.2414 60.912C45.7475 60.912 47.7791 58.8804 47.7791 56.3743H42.7791C42.7791 56.119 42.9861 55.912 43.2414 55.912V60.912ZM6.8355 60.912H43.2414V55.912H6.8355V60.912ZM2.29785 56.3743C2.29785 58.8804 4.32943 60.912 6.8355 60.912V55.912C7.09085 55.912 7.29785 56.119 7.29785 56.3743H2.29785ZM2.29785 44.2164V56.3743H7.29785V44.2164H2.29785ZM6.8355 39.6787C4.32942 39.6787 2.29785 41.7103 2.29785 44.2164H7.29785C7.29785 44.4717 7.09085 44.6787 6.8355 44.6787V39.6787ZM7.31095 39.6787H6.8355V44.6787H7.31095V39.6787ZM4.81095 40.1411V42.1787H9.81095V40.1411H4.81095ZM9.34859 35.6035C6.84252 35.6035 4.81095 37.635 4.81095 40.1411H9.81095C9.81095 40.3965 9.60395 40.6035 9.34859 40.6035V35.6035ZM14.0352 35.6035H9.34859V40.6035H14.0352V35.6035ZM18.5728 40.1411C18.5728 37.635 16.5413 35.6035 14.0352 35.6035V40.6035C13.7798 40.6035 13.5728 40.3965 13.5728 40.1411H18.5728ZM18.5728 42.1787V40.1411H13.5728V42.1787H18.5728ZM20.4877 39.6787H16.0728V44.6787H20.4877V39.6787ZM17.9877 40.1411V42.1787H22.9877V40.1411H17.9877ZM22.5254 35.6035C20.0193 35.6035 17.9877 37.635 17.9877 40.1411H22.9877C22.9877 40.3965 22.7807 40.6035 22.5254 40.6035V35.6035ZM27.212 35.6035H22.5254V40.6035H27.212V35.6035ZM31.9194 40.1411C31.9194 37.3858 29.4549 35.6035 27.212 35.6035V40.6035C27.1566 40.6035 27.1231 40.5927 27.1091 40.5871C27.0958 40.5818 27.0836 40.5749 27.0686 40.5615C27.0479 40.5429 26.9194 40.4092 26.9194 40.1411H31.9194ZM30.5356 37.9038L30.5012 37.8873L28.3376 42.3949L28.372 42.4114L30.5356 37.9038Z" fill="black" mask="url(#path-4-inside-2_1087_8085)"/>
</svg>
