<svg width="64" height="64" viewBox="0 0 64 64" fill="none" xmlns="http://www.w3.org/2000/svg">
<path d="M33.955 9.92661C33.955 8.86257 34.8176 8 35.8816 8H40.3128C41.3768 8 42.2394 8.86257 42.2394 9.92661V11.8532H43.2027C44.2667 11.8532 45.1293 12.7158 45.1293 13.7798V25.2752C45.1293 26.3393 44.2667 27.2018 43.2027 27.2018H21.0467C19.9827 27.2018 19.1201 26.3393 19.1201 25.2752V13.7798C19.1201 12.7158 19.9827 11.8532 21.0467 11.8532H21.4963V9.92661C21.4963 8.86257 22.3588 8 23.4229 8H27.8541C28.9181 8 29.7807 8.86257 29.7807 9.92661V11.8532H33.955V9.92661Z" fill="black"/>
<path fill-rule="evenodd" clip-rule="evenodd" d="M42.1752 25.9163V26.8165H42.8947L43.2028 27.2019L32.2851 27.2019C32.6071 26.9599 33.0074 26.8165 33.4413 26.8165H33.8908V24.8899C33.8908 23.8259 34.7534 22.9633 35.8174 22.9633H39.8147L42.1752 25.9163ZM31.5146 29.1285H43.2028C45.3308 29.1285 47.056 27.4034 47.056 25.2753V23.3989C47.3882 23.1267 47.8131 22.9633 48.2761 22.9633H52.7073C53.7713 22.9633 54.6339 23.8259 54.6339 24.8899V26.8165H55.5972C56.6612 26.8165 57.5238 27.6791 57.5238 28.7431V40.2385C57.5238 41.3026 56.6612 42.1652 55.5972 42.1652H33.4413C32.3772 42.1652 31.5146 41.3026 31.5146 40.2385V29.1285Z" fill="black"/>
<path fill-rule="evenodd" clip-rule="evenodd" d="M43.9339 42.1651C43.9339 42.1651 43.9339 42.1651 43.9339 42.1651H33.4402C32.5674 42.1651 31.8301 41.5847 31.5933 40.7888C31.8301 41.5847 32.5674 42.1651 33.4402 42.1651H43.9339ZM29.587 39.74V40.2385C29.587 42.3666 31.3121 44.0918 33.4402 44.0918H44.5506V55.0733C44.5506 56.1374 43.688 56.9999 42.624 56.9999H8.202C7.13796 56.9999 6.27539 56.1374 6.27539 55.0733V43.5779C6.27539 42.5139 7.13796 41.6513 8.202 41.6513H8.65154V39.7247C8.65154 38.6607 9.51411 37.7981 10.5781 37.7981H15.0093C16.0734 37.7981 16.9359 38.6607 16.9359 39.7247V41.6513H21.1103V39.7247C21.1103 38.6607 21.9728 37.7981 23.0369 37.7981H27.468C28.5321 37.7981 29.5552 38.6607 29.5552 39.7247L29.587 39.74Z" fill="black"/>
</svg>
