<svg width="232" height="232" viewBox="0 0 232 232" fill="none" xmlns="http://www.w3.org/2000/svg">
<path d="M0.71485 114.95L1.42969 0L231.33 1.4297L229.9 231.33L0 229.9" fill="#777BB3"/>
<path d="M39.8557 180.995L35.4248 212H21L33.4556 124L58.5636 124.06C66.3094 124.06 72.3977 126.7 76.8285 131.978C81.2593 137.256 83.1958 144.147 82.6378 152.648C82.1127 161.271 79.1752 168.161 73.8254 173.319C68.5084 178.476 61.7144 181.055 53.4435 181.055L39.8557 180.995ZM41.8742 166.308L53.8866 166.429C57.7595 166.429 60.976 165.2 63.536 162.742C66.096 160.284 67.6222 156.96 68.1145 152.769C68.6068 148.579 68.0489 145.234 66.4407 142.736C64.8653 140.238 62.5186 138.908 59.4006 138.747L45.8127 138.687L41.8742 166.308Z" fill="white"/>
<path d="M138.346 212H123.921L129.238 174.286H101.422L96.056 212H81.6312L94.0867 124H108.512L103.441 159.659H131.306L136.327 124H150.752L138.346 212Z" fill="white"/>
<path d="M167.124 180.995L162.693 212H148.269L160.724 124L185.832 124.06C193.578 124.06 199.666 126.7 204.097 131.978C208.528 137.256 210.464 144.147 209.906 152.648C209.381 161.271 206.444 168.161 201.094 173.319C195.777 178.476 188.983 181.055 180.712 181.055L167.124 180.995ZM169.143 166.308L181.155 166.429C185.028 166.429 188.245 165.2 190.805 162.742C193.365 160.284 194.891 156.96 195.383 152.769C195.875 148.579 195.317 145.234 193.709 142.736C192.134 140.238 189.787 138.908 186.669 138.747L173.081 138.687L169.143 166.308Z" fill="white"/>
</svg>
