<svg width="64" height="64" viewBox="0 0 64 64" fill="none" xmlns="http://www.w3.org/2000/svg">
<g clip-path="url(#clip0_867_4915)">
<rect width="64" height="64" fill="white"/>
<path d="M39.7714 9.59978C40.5524 10.3808 41.8187 10.3808 42.5998 9.59978C43.3808 8.81873 43.3808 7.5524 42.5998 6.77135L39.7714 9.59978ZM19.438 38.6511C18.6569 39.4322 18.6569 40.6985 19.438 41.4795C20.219 42.2606 21.4854 42.2606 22.2664 41.4795L19.438 38.6511ZM42.5998 6.77135L37.8284 2L35 4.82843L39.7714 9.59978L42.5998 6.77135ZM32.1716 2L2.5 31.6716L5.32843 34.5L35 4.82843L32.1716 2ZM2.5 37.3284L17.0493 51.8778L19.8778 49.0493L5.32843 34.5L2.5 37.3284ZM28.363 51.8778L30.5335 49.7073L27.7051 46.8789L25.5346 49.0493L28.363 51.8778ZM36.1903 49.7073L47.4989 61.0158L50.3273 58.1874L39.0188 46.8789L36.1903 49.7073ZM58.8126 61.0158L60.983 58.8454L58.1546 56.017L55.9842 58.1874L58.8126 61.0158ZM60.983 47.5317L49.6745 36.2231L46.8461 39.0516L58.1546 50.3601L60.983 47.5317ZM49.6745 30.5663L52.3778 27.863L49.5493 25.0346L46.8461 27.7379L49.6745 30.5663ZM52.3778 16.5493L49.7872 13.9588L46.9588 16.7872L49.5493 19.3778L52.3778 16.5493ZM44.1303 13.9588L19.438 38.6511L22.2664 41.4795L46.9588 16.7872L44.1303 13.9588ZM49.7872 13.9588C48.2251 12.3967 45.6924 12.3967 44.1303 13.9588L46.9588 16.7872L46.9588 16.7872L49.7872 13.9588ZM52.3778 27.863C55.502 24.7388 55.502 19.6735 52.3778 16.5493L49.5493 19.3778C51.1114 20.9399 51.1114 23.4725 49.5493 25.0346L52.3778 27.863ZM49.6745 36.2231C48.1124 34.661 48.1124 32.1284 49.6745 30.5663L46.8461 27.7379C43.7219 30.8621 43.7219 35.9274 46.8461 39.0516L49.6745 36.2231ZM60.983 58.8454C64.1072 55.7212 64.1072 50.6559 60.983 47.5317L58.1546 50.3601C59.7167 51.9222 59.7167 54.4549 58.1546 56.017L60.983 58.8454ZM47.4989 61.0158C50.6231 64.14 55.6884 64.14 58.8126 61.0158L55.9842 58.1874C54.4221 59.7495 51.8894 59.7495 50.3273 58.1874L47.4989 61.0158ZM30.5335 49.7073C32.0956 48.1452 34.6283 48.1452 36.1903 49.7073L39.0188 46.8789C35.8946 43.7547 30.8293 43.7547 27.7051 46.8789L30.5335 49.7073ZM17.0493 51.8778C20.1735 55.002 25.2388 55.002 28.363 51.8778L25.5346 49.0493C23.9725 50.6114 21.4399 50.6114 19.8778 49.0493L17.0493 51.8778ZM2.5 31.6716C0.937906 33.2337 0.937901 35.7663 2.5 37.3284L5.32843 34.5L5.32843 34.5L2.5 31.6716ZM37.8284 2C36.2663 0.437903 33.7337 0.437903 32.1716 2L35 4.82843L35 4.82843L37.8284 2Z" fill="black"/>
</g>
<defs>
<clipPath id="clip0_867_4915">
<rect width="64" height="64" fill="white"/>
</clipPath>
</defs>
</svg>
