<svg width="200" height="200" viewBox="0 0 200 200" fill="none" xmlns="http://www.w3.org/2000/svg">
<path fill-rule="evenodd" clip-rule="evenodd" d="M118.47 7.65048C108.269 -2.55017 91.7308 -2.55016 81.5301 7.65048L7.65048 81.5301C-2.55016 91.7308 -2.55016 108.27 7.65049 118.47L81.5301 192.35C91.7308 202.551 108.269 202.551 118.47 192.35L192.35 118.47C202.55 108.27 202.55 91.7308 192.35 81.5301L118.47 7.65048ZM109.431 34.4155C104.331 29.3152 96.0613 29.3152 90.961 34.4155L35.5513 89.8252C30.451 94.9256 30.451 103.195 35.5513 108.295L90.961 163.705C96.0613 168.805 104.331 168.805 109.431 163.705L164.841 108.295C169.941 103.195 169.941 94.9256 164.841 89.8252L109.431 34.4155Z" fill="#3D3D3D"/>
</svg>
